<svg xmlns="http://www.w3.org/2000/svg" viewBox="0 0 1265.97 606.34"><path d="M1256.51 24.46c-12.8-10.13-31.88-41.45-45.18-12.44-11.26-18.39-41.37-7.4-36.2 14.1-39.81 18.15-77.42 40.48-116.12 60.61-38.81-33.41-98.52-11.71-101.17 36.34-32.58-34.24-107.13-5.47-107.37 42.41-259.64 73.75-580.49 222.02-825.93 44.47C10.93 208-4.2 220.62 1.07 234.88 33.55 430.27 245.85 515.99 424.6 516.97c12.41 109.24 128.31 128.37 98 .86 4.83-.15 9.74-.33 14.59-.4 19.56 104.44 127.26 86.09 102.14-6.86 47.48-5 94.69-12.65 141.1-23.37 33.82 83.68 108.71 41.1 104.67-30.49 42.08 104.68 124.97 53.85 97.05-42.08 129.48-69.53 329.69-229.94 274.35-390.15ZM171.06 349.71c-25.75 21.28-68.2-6.61-71.23-36.42 5.64-31 92.54 10.96 71.23 36.42Zm92.62 13.68c-11.58 17.62-42.36 8.68-49.73-8.74-1.8-19.85 57.45-10.67 49.73 8.74Zm22.45-21.35c-2.98-19.73 38.88-12.17 47.09-2.89 14.78 22.56-35.07 27.95-47.09 2.89Zm140.71 37.83c-9.82 31.93-60.6 31.96-79.52 8.73-12-29.17 83.08-41.68 79.52-8.73Zm56.99-45.77c-3.62 14.9-26.89 16.3-36.19 6.17-6.09-13.15 36.74-21.35 36.19-6.17Zm87.08 15.89c-11.58 17.62-42.36 8.68-49.73-8.74-1.8-19.85 57.45-10.67 49.73 8.74ZM972.78 123.9c1.98-53.98 99.24-52.31 76.21 6.98-17.64 27.29-73.77 34.3-76.21-6.98Zm-73.93 72.69c-33.67-3.77-36.4-46.18-8.09-60.22 62.69-44.81 85.17 68.47 8.09 60.22Zm198.64 56.26c-6.95 18.88-35.63-8.8-43.22-16.48 21.65 54.83-6.36 56.84-36.89 16.33 21.96 53.95-5.01 59.03-36.39 17.43 13.23 58.37-16.86 50.54-39.51 8.67-4.7-7.43 35.56-17.49 38.54-12.15 4.65-6.84 29.69-18.62 36.91-14.61-4.27-7.68 28.62-18.82 34.81-18.36-4.16-7.26 25.26-20.58 31.55-21.14 10.7 4.71 15.58 28.08 14.21 40.33Zm131.2-100.25c-.63 18.51-31.44 4.5-40.69.1 24.81 39.21 3.16 47.24-29.32 23.07 25.66 48.55-5.29 47.07-35.14 17.89 56.84 88.32-90.05 18.62-2.51-2.32-5.17-6.69 23.05-21.52 28.94-22.59-.84-8.38 20.66-21.64 28.26-24.32 18.6-37.22 41.21-27.45 50.46 8.17Z" fill="#693"/><path d="M136.47 213.81c-21.43-6.87-35.41 34.17-41.08 49.49-3.35 8.56 55.58 28.27 54.69 15.75.03-21.35 3.03-49.06-13.61-65.24Zm87.67 16.7c-22.47-1.37-25.88 41.85-27.59 58.1-1.13 9.12 60.83 13.67 56.89 1.76-5.24-20.7-9.18-48.29-29.3-59.86Zm107.44 5.95c-22.47-1.37-25.88 41.85-27.59 58.1-1.13 9.12 60.83 13.67 56.89 1.76-5.24-20.7-9.18-48.29-29.3-59.86Zm97.68-11.91c-22.45 1.67-20.02 44.95-19.52 61.28.11 9.19 62.12 5.37 56.61-5.9-7.98-19.8-15.59-46.62-37.08-55.38Zm89.94-17.6c-21.77 5.71-11.53 47.84-8.09 63.81 1.77 9.02 62.06-5.99 54.6-16.07-11.44-18.03-23.79-43.02-46.51-47.74Zm91.57-26.38c-21.77 5.71-11.53 47.84-8.09 63.81 1.77 9.02 62.06-5.99 54.6-16.07-11.44-18.03-23.79-43.02-46.51-47.74Zm86.18-24.82c-21.77 5.71-11.53 47.84-8.09 63.81 1.77 9.02 62.06-5.99 54.6-16.07-11.44-18.03-23.79-43.02-46.51-47.74Z" fill="#030"/><path d="M1220.91 89.95c-80.27 92.83-189.37 160.23-308.56 189.7-4.95 1.23-3.31 9 1.66 7.76 120.44-29.94 231.15-97.6 312.26-191.6 3.3-3.82-2.01-9.73-5.35-5.87Zm-21.41-77.54c-9.77-5.02-21.11 10.55-10.91 17 12.09 6.58 24.07-9.41 10.91-17Zm34.7-1.4c-10.3-10.95-26.63 9.33-12.86 16.38 12.01 5.73 21.52-6.33 12.86-16.38ZM917.66 148.33c-14.83-7.63-32.05 16.02-16.56 25.82 18.72 9.73 36.51-13.83 16.56-25.82Zm101.47-44.93c-14.83-7.63-32.05 16.02-16.56 25.82 18.72 9.73 36.51-13.83 16.56-25.82Z" fill="#3c322e"/></svg>