<svg xmlns="http://www.w3.org/2000/svg" viewBox="0 0 1190 814.74"><path d="M614.68 601.79c-37.19 58.24-59.34 126.01-63.71 194.98m453.74-175.8c46.85 39.3 76.6 98.32 80.31 159.35" fill="none" stroke="#333" stroke-linecap="round" stroke-linejoin="round" stroke-width="35.94"/><ellipse cx="899.2" cy="431.29" rx="297.62" ry="219.55" transform="rotate(-18.47 899.051 431.24)" fill="#f0534c"/><path d="M968.68 639.58c-155.89 51.96-313.44 1-351.79-114.05-2.49-7.47-4.48-15.11-5.81-22.58 61.43 79.19 193.91 108.57 325.39 64.58 145.76-48.64 238.57-170.33 218.31-279.9 11.62 14.78 20.59 31.38 26.73 49.47 38.35 114.88-56.94 250.35-212.83 302.48Z" fill="#ed4040"/><circle cx="642.48" cy="472.78" r="135.19" fill="#db3a3a"/><path d="M777.65 472.84c0 74.55-60.52 135.08-135.22 135.08-66.9 0-122.75-48.9-133.38-112.82 23.81 38.98 66.76 65.06 115.66 65.06 74.7 0 135.22-60.52 135.22-135.22 0-7.51-.57-15.02-1.84-22.25 12.33 20.41 19.56 44.36 19.56 70.16Z" fill="#d32a2a"/><path d="M23.46 522.01C12.82 542.95-.05 576.08 0 613.76c.02 13.74 13.31 23.69 26.72 20.68 21.22-4.76 52.65-15.66 80.58-40.54 9.93-8.84 14.57-22.44 11.91-35.47-4.04-19.8-16.43-47.32-53.57-56.61-16.88-4.22-34.3 4.68-42.18 20.19Z" fill="#db3a3a"/><ellipse cx="322.74" cy="421.31" rx="293.99" ry="276.82" fill="#f0534c"/><path d="M616.78 421.27c0 152.93-131.67 276.81-294.11 276.81-152.37 0-277.66-109.14-292.4-248.89 41.24 105.88 149.11 181.42 275.96 181.42 162.29 0 293.96-124.02 293.96-276.81 0-9.5-.57-18.99-1.56-28.35 11.76 29.91 18.14 62.08 18.14 95.81Z" fill="#ed4040"/><ellipse cx="351.8" cy="385.37" rx="80.47" ry="90.67" fill="#333"/><path d="M474.02 313.48c0 31.11-25.22 56.33-56.33 56.33s-56.33-25.22-56.33-56.33 25.22-56.33 56.33-56.33 56.33 25.22 56.33 56.33Z" fill="#f8ffe7"/><path d="M183.39 186.21a577.747 577.747 0 0 0-50.57-134.8m308.3 123.05a647.133 647.133 0 0 1 35.22-156.49" fill="none" stroke="#333" stroke-linecap="round" stroke-linejoin="round" stroke-width="35.94"/><path d="M151.95 585.42c-12.32 24.26-27.24 62.65-27.18 106.3.02 15.92 15.41 27.44 30.95 23.96 24.58-5.51 61.01-18.14 93.36-46.97 11.5-10.25 16.88-26 13.8-41.09-4.68-22.94-19.04-54.82-62.07-65.59-19.55-4.89-39.74 5.42-48.87 23.39Z" fill="#db3a3a"/></svg>