<svg xmlns="http://www.w3.org/2000/svg" viewBox="0 0 631.89 850.25"><path d="M180.62 200.14c5.45-25.38 65.51-28.33 82.38-17.65-11.16 3.46-18.76 8.2-23.54 11.77-10.8 8.06-12.42 14.02-23.54 19.62-13.23 9.21-34.28 4.57-35.31-13.73Zm-72.22-33.31c20.25-16.25-4.02-71.27-21.13-81.56 1.91 11.53 1.07 20.45.02 26.32-2.37 13.27-6.97 17.39-6.99 29.83-2.1 16.3 10.96 32.5 28.09 25.41Z" fill="#b55d33"/><path d="M298.1 78.96c-8.72 36.02-36.47 60.47-71.89 69.28-18.5 4.02-30.4 3.31-35.25 21.72-3.08 11.28-.82 22.87-8.38 26.26-7.81 3.51-21.44-3.81-25.5-13.73-5.17-11.93 5.05-28.96 16.36-39.82 25.04-27.19 47.74-12.45 75.83-26.87 18.43-9.49 31.85-26.6 41.98-43.7 11.43-20.86 11.95-8.63 6.85 6.87Z" fill="#812a17"/><path d="M192.2 166.25c-.49 1.22-.9 2.45-1.24 3.71-10.45-3.55-17.14-13.3-20.65-24.05 1.02-1.12 2.06-2.2 3.14-3.24 2.92 10.32 8.77 20.2 18.75 23.58Zm38.17-19.24c-1.47.47-2.84.88-4.16 1.24-5.77-6.83-8.53-15.83-7.39-24.77 1.33-.08 2.67-.16 4.02-.27-1.31 8.69 1.47 17.52 7.53 23.81Zm46.21-27.23c-.9.95-1.81 1.95-2.77 2.86-5.39-3.86-9.18-9.61-10.67-16.06 1.16-.92 2.28-1.9 3.35-2.86.92 6.49 4.67 12.38 10.08 16.06Zm21.52-40.82c-.45 1.43-.86 2.73-1.2 3.77-3.24-1.53-6-3.88-7.96-6.85.8-1.33 1.59-2.59 2.31-3.79 1.51 2.98 3.9 5.37 6.85 6.87Z" fill="#fb9a54"/><path d="M203.59 16.77c9.27 35.89-3.69 70.52-30.79 94.97-14.43 12.26-25.26 17.24-20.87 35.76 2.59 11.4 10.04 20.56 4.98 27.11-5.23 6.77-20.71 6.74-28.96-.1-10.18-8.09-9.19-27.93-4.32-42.83 9.43-35.13 33.7-32.87 52.59-57.09 13.01-17.35 17.21-39.89 18.1-60.65.26-23.79 6.48-13.24 9.27 2.83Z" fill="#812a17"/><path d="M151.28 143.65c.14 1.3.36 2.59.66 3.85-10.89 1.79-21.39-3.66-29.55-11.49.37-1.47.78-2.91 1.24-4.33 7.44 7.73 17.25 13.69 27.65 11.97Zm24.61-34.96a87.31 87.31 0 0 1-3.09 3.05c-8.3-3.31-14.98-9.95-18.19-18.37 1.14-.7 2.28-1.39 3.42-2.14 2.93 8.28 9.55 14.76 17.86 17.46Zm27.94-45.78c-.35 1.27-.68 2.57-1.09 3.83-6.58-.87-12.62-4.16-16.98-9.15.59-1.36 1.11-2.75 1.61-4.11 3.87 5.29 9.95 8.72 16.46 9.42Zm-.24-46.14c.28 1.48.52 2.81.72 3.89-3.58.17-7.12-.6-10.25-2.29.08-1.56.18-3.03.26-4.43 2.74 1.92 5.97 2.9 9.27 2.83Z" fill="#fb9a54"/><path d="M126.27 800.68c3.44 12.81 23.67 18.26 31.62.53 16.77-85.44 33.55-170.91 50.31-256.35-18.77-2.67-37.54-5.34-56.32-8-8.55 87.94-17.1 175.87-25.62 263.82Z" fill="#a3542e"/><path d="M126.27 800.68c7.79 20.28 33.34 13.42 33.84-10.75-8.59-5.87-21.55-8.61-32.13-6.92l-1.71 17.67Z" fill="#7a0007"/><path d="M446.12 804.88c6.42 11.6 27.37 12.03 30.82-7.1-4.28-86.96-8.57-173.96-12.86-260.92-18.86 1.93-37.72 3.86-56.59 5.78 12.86 87.41 25.72 174.81 38.63 262.24Z" fill="#a3542e"/><path d="M446.12 804.88c12.44 17.81 35.59 5 30.26-18.58-9.75-3.62-22.98-3.17-32.85 1.01.86 5.85 1.73 11.72 2.6 17.56Z" fill="#7a0007"/><path d="M560.31 576.19c-33 62.28-119.88 60.01-181.3 64.28-247.25 9.87-247.87-27.23-266.15-340.74-2.6-34.8-5.48-81.36 21.84-100.29 13.91-9.63 37.48-13.38 51.43-2.57 26.24 20.32-8.59 71.24 7.71 150.43 3.47 16.85 7.2 34.95 14.16 51.33 46.26 86.87 81.28 31.95 218.57 38.68 114.85 8.02 123.12 23.9 140.29 83.57 3.1 19.01 1.21 38.7-6.55 55.3Z" fill="#b55d33"/><path d="M128.54 153.16c-28.4-1.1-53.22 16.23-102.88 50.91-22.28 12.39-33.4 40.75-19.6 64.36 27.7 44.31 154.27 30.04 184.44-21.61 24.62-49.71-14.51-97.04-61.96-93.67Z" fill="#bd6c47"/><path d="M569.12 824.22c-3.44 12.81-23.67 18.26-31.62.53-16.77-85.44-33.55-170.91-50.31-256.35 18.77-2.67 37.54-5.34 56.32-8 8.55 87.94 17.1 175.87 25.62 263.82Z" fill="#b55d33"/><path d="M569.12 824.22c-7.79 20.28-33.34 13.42-33.84-10.75 8.59-5.87 21.55-8.61 32.13-6.92l1.71 17.67Z" fill="#7a0007"/><path d="M238.84 842.39c-6.81 11.38-27.76 11.08-30.56-8.15 7.27-86.76 14.55-173.56 21.82-260.33 18.78 2.58 37.57 5.15 56.35 7.73-15.86 86.92-31.72 173.83-47.62 260.75Z" fill="#b55d33"/><path d="M238.84 842.39c-13.05 17.37-35.74 3.78-29.6-19.61 9.87-3.29 23.08-2.38 32.8 2.14-1.06 5.82-2.13 11.65-3.2 17.46Zm328.03-321.5c-24.46 3.06-81.54-20.03-188.13-24.56-86.33-3.67-122.4 8.38-149.07-19.62-18.2-19.11-26.25-50.78-21.66-78.09 46.27 86.86 81.27 31.95 218.57 38.68 114.81 8.02 123.13 23.9 140.29 83.58Z" fill="#7a0007"/><path d="M531.73 482.6c30.08-23.3 103.59 34.78 100.04 66.69-2.6 1.73-12.23-24.51-39.23-35.31-26.44-10.58-48.5 2.07-58.85-11.77-4.23-5.66-5.71-14.7-1.96-19.62Z" fill="#7a0007"/><path d="M166.8 252.34c-2.04 11.15-31.42 5.59-29.25-5.53 2.04-11.15 31.42-5.59 29.25 5.53Z" fill="#eb8ea9"/><path d="M153.16 212.89c-.37 21.92-32.97 21.91-33.35 0 .37-21.92 32.97-21.91 33.35 0Z" fill="#fff"/><path d="M137.47 213.87c.15 10.18-15.84 10.18-15.69 0-.15-10.18 15.84-10.18 15.69 0Z"/><path d="M133.55 209.95c.04 2.54-3.96 2.55-3.92 0-.04-2.54 3.96-2.54 3.92 0Zm-27.46-6.86c-.37 21.92-32.97 21.91-33.35 0 .37-21.92 32.97-21.91 33.35 0Z" fill="#fff"/><path d="M90.39 204.07c.15 10.18-15.84 10.18-15.69 0-.15-10.18 15.84-10.18 15.69 0Z"/><path d="M86.47 200.14c.04 2.54-3.96 2.54-3.92 0-.04-2.54 3.96-2.54 3.92 0Z" fill="#fff"/><path d="M25.66 262.91c-12.37-6.11-12.64-45.04 5.88-17.65 41.33-14.67 6.82 23.47-5.88 17.65Z"/><path d="M25.42 258.79c-5.95 14.39 6.34 31.91 19.56 17.04 2.42-2.5-1.4-6.32-3.82-3.82-9.73 10.75-14.26-3.14-10.54-11.78.84-3.37-4.37-4.81-5.21-1.44Z"/><path d="M25.71 258.71c1.14 6.29-7.72 12.14-10.22 4.48-.58-3.42-5.79-1.97-5.21 1.44.93 5.43 7.11 8.62 12.24 7.26 5.71-1.51 8.81-7.6 8.59-13.17-.14-3.46-5.54-3.48-5.4 0Z"/></svg>