<svg xmlns="http://www.w3.org/2000/svg" viewBox="0 0 24 24" xml:space="preserve"><path d="M13.5 3.1c1 .5 1.9 1.3 2.7 2.1l.9-.9c-.8-1-1.9-1.8-3-2.4-.2-.1-.4-.1-.6.1-.2.1-.3.3-.3.5s.1.5.3.6zM8.7 9.3c-.6.1-1.1.5-1.4 1-.3.5-.4 1.1-.3 1.7.1.6.5 1 1 1.3l2.9-2.8c-.2-.4-.5-.7-1-.9-.3-.3-.8-.4-1.2-.3zm6-2.5c-.8-1-1.9-1.8-3.1-2.2-1.3-.5-2.6-.6-3.9-.3-.3.1-.6.4-.7.7-.1.4 0 .8.2 1 .2.3.6.4.9.4.9-.2 1.9-.1 2.7.2.9.3 1.6.9 2.2 1.6l1.7-1.4zM1.9 21.2c0 .2 0 .4.2.5.1.2.3.3.5.3s.3-.1.5-.2l11-10.9c.2 1.5-.4 3-1.4 4.1-.5.5-.8 1.2-.9 1.9 0 .7-.3 1.4-.8 2-.5.5-1.2.9-1.9 1-.7.1-1.5-.1-2.1-.5-.2-.2-.6-.3-.9-.3-.3 0-.6.2-.8.5-.2.3-.2.6-.1.9.1.3.3.6.6.7 1.1.7 2.3 1 3.6.8 1.2-.2 2.4-.7 3.3-1.7.9-.9 1.4-2.1 1.4-3.4 0-.2.1-.3.2-.5 1-1 1.6-2.2 1.9-3.5.3-1.3.2-2.7-.2-4l1.6-1.6c.3.7.6 1.4.7 2.1.4 1.8.2 3.7-.6 5.5-.1.2-.1.3 0 .5s.2.3.4.4c.1 0 .2.1.3.1.1 0 .3 0 .4-.1.1-.1.2-.2.2-.3.8-2 1.1-4.2.6-6.3-.2-1-.5-2-1-2.9L21.9 3c.1 0 .2-.2.2-.4s-.2-.4-.4-.5c-.2-.1-.4-.1-.6 0 0 0-.1 0-.1.1L2.1 20.9c-.1.1-.1.2-.2.3z"/></svg>