<svg xmlns="http://www.w3.org/2000/svg" viewBox="0 0 24 24"><path d="m6.7 22-.5-.1c-.5-.1-.5-.5-.2-.9l3.5-3.6c.4-.4.7-.3.7.1v1.8c.1.1.2 3.5-3.5 2.7zM20.2 6.8c.4-.4.7-.3.7.3v8.4c0 .5-.1 1.4-.2 2 0 0-.4 2.6-3.4 2.6-2 0-3.6-1.6-3.6-3.6s1.6-3.6 3.6-3.6c.8 0 1.3.3 1.3.3.5.3.8 0 .8-.5l-.2-3.9c0-.5.3-1.3.6-1.7l.4-.3zm2.6-4.7c.3-.3.3-.8 0-1.1-.3-.3-.8-.3-1.1 0L20 2.7l-.2-.2c-.7-.5-1.7-.6-2.8-.3l-5.8 1.6c-1.4.4-2.3 1.5-2.3 3V14l-1.1 1c-.4-.1-.7-.2-1.1-.2-2 0-3.6 1.6-3.6 3.6 0 .4.1.8.2 1.2l-1.9 1.9c-.3.3-.3.8 0 1.1.1.1.3.2.5.2s.4-.1.5-.2L4 21l6.2-6.2 6-6 4.5-4.5 2.1-2.2zm-12.5 8.2 3-.9-3 3.1v-2.2z"/></svg>