<svg xmlns="http://www.w3.org/2000/svg" xmlns:xlink="http://www.w3.org/1999/xlink" viewBox="0 0 750 403.3"><defs><clipPath id="a"><rect width="750" height="403.3" fill="none"/></clipPath></defs><title>cover</title><g clip-path="url(#a)"><rect y="-43.27" width="750" height="500" fill="#f8ffd9"/><path d="M142.27,74.8c32.92-3.24,68.6-13.21,86.71-40.89,14.08-21.53,14.41-49.13,24.1-73,.58-1.42,1.21-2.83,1.86-4.22H0V60.13A360.56,360.56,0,0,0,142.27,74.8Z" fill="#d9efc5"/><path d="M430.83-22.73c3.7,24.45-2.48,51.74,11.05,72.44,14.27,21.83,44.81,26.43,70.47,21.8s49.88-16.23,75.83-18.82c6.43-.64,13.75-.39,18.2,4.29,7.34,7.71,1.62,20.14,1.32,30.78-.65,23.65,28.25,38.08,51.67,34.73s43.68-17.65,66-25.4A79.86,79.86,0,0,1,750,92.72v-136H424.86A81.86,81.86,0,0,1,430.83-22.73Z" fill="#d9efc5"/><path d="M215.31,418.64c-6-46.63,20-91.17,25.46-137.87,1.68-14.42.42-31.14-10.92-40.21-19.58-15.67-46.74,4-71.16,9.68-4.6,1.08-10.08,1.39-13.42-2-2.83-2.85-3.07-7.32-2.84-11.33,1.71-29.8,17.42-66.23-5.73-85.06-14.76-12-36.61-7.45-54.39-.68A317.05,317.05,0,0,0,0,197.71v259H228.76A99.19,99.19,0,0,1,215.31,418.64Z" fill="#d9efc5"/><path d="M750,274.55c-.86.32-1.73.61-2.62.86-10.17,2.83-21,.29-31.51.25-31.43-.14-61,25.07-65.92,56.13-12.3-17.86-41.5-15.9-57.22-1S572,368.7,570.39,390.33c-33.51-40.06-105.51-37-135.54,5.68-13,18.44-18.19,41.24-29.48,60.72H750Z" fill="#d9efc5"/><path d="M5.06,402.21C16.82,380,33.53,360.8,51,342.72c28.85-29.88,60.91-57.83,99.15-74.05,3.55,41.07-8.78,82.77-31.29,117.31S64.1,448.12,28.09,468.19c-16.35,9.12-36.33,16.26-38.55-6.69C-12.37,441.72-4,419.33,5.06,402.21Z" fill="#5bc175"/><path d="M155.65,298.62a4.48,4.48,0,0,0-1.93-.75l-.63,0c-.13-.09-.74-.38-.8-.41-.46-.26-1.2.19-1,.75a5.19,5.19,0,0,1,.23.7c-2.08.62-4.15,1.51-6.15,2.2L136.87,304l-8.28,2.85c-1.34.46-2.68.91-4,1.43l0,0C132.8,297,141,285.52,148.82,273.88c.56-.83,1.2-1.69,1.68-2.58s.28-2.15.36-3.2-1-1.33-1.73-1l-1.25.57a3.89,3.89,0,0,0-2.09,1.69c-.66.89-1.33,1.78-2,2.68l-3.71,5.23q-3.71,5.24-7.45,10.44-7.48,10.39-15,20.76-8.16,11.2-16.46,22.32c-.21-2-.54-4-.76-6a98.06,98.06,0,0,1-.64-12.23,104.06,104.06,0,0,1,1.13-12,46.81,46.81,0,0,0,.56-6.37,9.6,9.6,0,0,0-.32-3A4.09,4.09,0,0,0,98.6,289a.8.8,0,0,0-.95.12c-.76.95-1.57,1.54-1.69,2.86-.09.93,0,1.86,0,2.79a47.8,47.8,0,0,1-.53,5.85,98.45,98.45,0,0,0-1.07,12.71,71.2,71.2,0,0,0,1,12.46,36.72,36.72,0,0,0,1.39,6c.34,1,.69,2,1.1,2.92.06.13.11.28.17.43q-5.46,7.28-11,14.51-15.48,20.3-31.41,40.22l-2,2.51c1-6.87,1.65-13.8,2.4-20.69l2.94-26.85c.57-5.13,1.09-10.27,1.62-15.41a2.33,2.33,0,0,0-1.18-2.06,2.08,2.08,0,0,0-1.83-.24,2.5,2.5,0,0,0-1.75,2.3c-2,17.8-3.89,35.61-5.59,53.44-.48,5.06-1,10.09-1.23,15.16a.33.33,0,0,0,0,.1Q36.28,413.8,23.24,429.25c-2.47,2.93-5,5.82-7.47,8.73.2-1.71.38-3.42.55-5.13q.73-7.37,1.58-14.72c1.11-9.74,2.24-19.48,3.56-29.19q.49-3.68,1-7.33a20.13,20.13,0,0,0,.45-3.61,5.88,5.88,0,0,0-1.23-3.32c-1.43-1.31-3,1.29-3.5,2.37a14.41,14.41,0,0,0-.69,3.69c-.18,1.22-.35,2.44-.53,3.67-1.39,9.83-2.66,19.68-3.75,29.55-.61,5.47-1.11,11-1.6,16.44-.24,2.78-.53,5.56-.65,8.35-.07,1.64-.19,3.3-.1,4.94-1.44,1.67-2.86,3.35-4.3,5C1,455.16-4.68,461.58-10.13,468.15a10.7,10.7,0,0,0-2.08,2.94,9.13,9.13,0,0,0-.3,2.9A1.21,1.21,0,0,0-11,475.14a7.7,7.7,0,0,0,2.81-.7A11.93,11.93,0,0,0-5.62,472c1.42-1.59,2.81-3.21,4.22-4.82q4.29-4.91,8.56-9.85c5.59-6.46,11-13.05,16.49-19.63l4.58-5.56c2.34-.29,4.65-.78,7-1.24,3.3-.67,6.59-1.4,9.88-2.15q9.85-2.26,19.61-4.94,19.25-5.31,38.1-12c1.8-.64,3.84-1.51,3.57-3.81-.18-1.52-1.7-2.84-3.21-2a1.63,1.63,0,0,0-.45.38l-.38.14c-.59.24-1.21.43-1.81.64l-4.09,1.43q-3.75,1.29-7.53,2.54c-5.1,1.68-10.21,3.35-15.35,4.93q-15.4,4.73-31,8.77l-8.85,2.27-1.64.41q12.18-14.81,24.23-29.75,10.95-13.65,21.68-27.47c.56,0,1.09,0,1.52.05a41.59,41.59,0,0,0,6.5-.62c4.3-.67,8.57-1.43,12.84-2.26q12.8-2.46,25.47-5.43,3.48-.8,6.94-1.65c2.45-.59,5-1.08,7.37-1.88a2.77,2.77,0,0,0-1.47-5.33c-4.14.86-8.23,2.24-12.33,3.31s-8.24,2.11-12.38,3.1c-8.2,2-16.45,3.67-24.68,5.45-2.27.49-4.53,1-6.81,1.44q3.64-4.69,7.26-9.42,15.67-20.43,30.87-41.22l2.48-3.39c2.65.44,5.71-.88,8.2-1.61l8.62-2.55,8.38-2.48c3-.88,6.16-1.53,9-2.86C157.47,302.1,157.09,299.59,155.65,298.62Z" fill="#ff583d"/><path d="M645.84,335.9A141.83,141.83,0,0,1,734,398.52a210.24,210.24,0,0,1-20.49-102.06c26.69,15.56,45.29,42.31,57.34,70.75,9.76,23.05,16.4,50.72,5.1,74.47-10.19,21.42-30.24,33.4-52.62,22.59C683.43,445,639.81,381,645.84,335.9Z" fill="#5bc175"/><path d="M666.09,362.32a2.84,2.84,0,0,0-.27-.68,2.38,2.38,0,0,0-.11-.38,2,2,0,0,0-.52-.8.88.88,0,0,0-.15-.12,1.74,1.74,0,0,0-.32-.53c-.21-.45-.57-1-1.13-.95a.54.54,0,0,0-.29.12,7.72,7.72,0,0,0-1.24-1.37c-.38-.31-.77-.62-1.17-.9a5.48,5.48,0,0,0-1.34-.69l.66.28-1.21-.52-.31-.11a2,2,0,0,0-1.22,0,1.86,1.86,0,0,0-1.59.73,2,2,0,0,0-.27,1.93,2.78,2.78,0,0,0,.3,1c.06.11.14.21.2.32s.25.45.38.68c.27.47.58.92.85,1.4.46.8.95,1.59,1.35,2.43.1.27.21.54.29.82a3.36,3.36,0,0,0,2.31,2.31,3.25,3.25,0,0,0,1.75,0,3.32,3.32,0,0,0,1.46-.85,5.85,5.85,0,0,0,1-1.07A3.42,3.42,0,0,0,666.09,362.32Z" fill="#ff583d"/><path d="M678.39,356.84a3.56,3.56,0,0,0-.48-1.72,3.9,3.9,0,0,0-.19-.35,4.55,4.55,0,0,0-1-1.17,6.67,6.67,0,0,0-.91-.67,9.06,9.06,0,0,0-1-.45,3.09,3.09,0,0,0-.72-.2,2.26,2.26,0,0,0-1.18,0,2.13,2.13,0,0,0-1.09.35l-.6.46a2.19,2.19,0,0,0-.61.95,1.49,1.49,0,0,0-.2.74,2.25,2.25,0,0,0,.05,1.18,3.17,3.17,0,0,0,1.12,1.59,2.29,2.29,0,0,1,.27.27c.08.11.15.22.22.33s.13.21.19.31a3.21,3.21,0,0,0,1.21,1.24,2.74,2.74,0,0,0,.78.33l.22.07a.66.66,0,0,0,.48.24.92.92,0,0,0,.46-.08,2.83,2.83,0,0,0,2.39-1.44l.11-.23A3.3,3.3,0,0,0,678.39,356.84Z" fill="#ff583d"/><path d="M680.73,378.07a2.16,2.16,0,0,0-.34-.17l0-.06a1.57,1.57,0,0,0-.21-.17,2.61,2.61,0,0,0-.52-.53,3.52,3.52,0,0,0-1.67-1c-.12,0-.23-.08-.35-.12l-.6-.31c-.13-.08-.27-.14-.41-.22a3.19,3.19,0,0,0-.62-.3,4,4,0,0,1-.48-.32l.34.27h0a2.86,2.86,0,0,0-1.84-.7,2.9,2.9,0,0,0-1.72.61,2.85,2.85,0,0,0-.73,3.66,8.23,8.23,0,0,0,.53.78l0,0h0a.1.1,0,0,0,0,.05,5.69,5.69,0,0,0,3.15,2.29,6.24,6.24,0,0,0,.94.26,4.6,4.6,0,0,0,1.92,0,3,3,0,0,0,1.15-.58,2.69,2.69,0,0,0,1.13-1.11,2.2,2.2,0,0,0,.24-.28,1.76,1.76,0,0,0,.16-.4,1.64,1.64,0,0,0,.32-.68A.88.88,0,0,0,680.73,378.07Z" fill="#ff583d"/><path d="M700.47,377a6.32,6.32,0,0,0-1.34-2.22,8.42,8.42,0,0,0-1.32-1.08l-.42-.27a3.48,3.48,0,0,0-2.11-.46h0a2,2,0,0,0-.87.08,3.76,3.76,0,0,0-.46.2h0a2.27,2.27,0,0,0-1.47,3,3,3,0,0,0,.11.4,2,2,0,0,0,.05.26l.32.76.05.06a5,5,0,0,1,.6,1l-.24-.56h0c.07.15.13.3.2.46.16.41.33.83.51,1.24l-.36-.85c.05.12.09.24.14.37a6,6,0,0,0,.39.94,3.35,3.35,0,0,0,.44.57l.07.09a3.12,3.12,0,0,0,.31.4,3.82,3.82,0,0,0,.72.55,3.17,3.17,0,0,0,3.22,0,3.75,3.75,0,0,0,1.2-1.18c.09-.17.14-.33.22-.5a3.94,3.94,0,0,0,.21-.56A4.34,4.34,0,0,0,700.47,377Z" fill="#ff583d"/><path d="M695.2,372.92h0Z" fill="#ff583d"/><path d="M686,397.49a2.86,2.86,0,0,0-.68-1l-.1-.18a3.86,3.86,0,0,0-.3-.8,3.22,3.22,0,0,0-.64-.74.77.77,0,0,0-1.16.08l-.12-.08q-.49-.28-1-.54l-.46-.24a3.25,3.25,0,0,0-1.35-.37l-.46-.15a2.28,2.28,0,0,0-2.56,3.33c.08.15.16.3.25.45a2.76,2.76,0,0,0,.45.91l.56.69c.24.29.5.58.75.86a6.23,6.23,0,0,0,.86.76,15.89,15.89,0,0,0,1.49,1.1,3.06,3.06,0,0,0,1.59.43,2.31,2.31,0,0,0,1.21-.27,2.38,2.38,0,0,0,1-.65,3.1,3.1,0,0,0,.81-1.39,7.32,7.32,0,0,0,.12-.94A2.76,2.76,0,0,0,686,397.49Z" fill="#ff583d"/><path d="M693.9,366.82Z" fill="#ff583d"/><path d="M695.65,363.85a3,3,0,0,0-.46-1.6,4.75,4.75,0,0,0-.79-1,6.21,6.21,0,0,0-1.38-1.13,9.85,9.85,0,0,0-1-.48,12.16,12.16,0,0,0-1.13-.46,3.5,3.5,0,0,0-1.14-.11l-.54-.08a2.35,2.35,0,0,0-1.55.39h0a1.8,1.8,0,0,0-.86.5,2,2,0,0,0,0,2.7,3,3,0,0,0,1.12,1.15h0a4.51,4.51,0,0,0,.83.7l.13.1a3.17,3.17,0,0,1,.34.28,14.18,14.18,0,0,0,1.13.92l-.63-.48c.2.16.4.32.59.49a4.74,4.74,0,0,0,.82.66,3.06,3.06,0,0,0,2,.36h0l.3,0a1.84,1.84,0,0,0,.41.06h.09a1.32,1.32,0,0,0,.85-.37,1.35,1.35,0,0,0,.38-.69.25.25,0,0,0,0-.08l0-.05c.09-.21.18-.41.26-.62a2,2,0,0,0,0-.24A3.07,3.07,0,0,0,695.65,363.85Z" fill="#ff583d"/><path d="M721.71,388a5.4,5.4,0,0,0-1.41-2.19,10.06,10.06,0,0,0-.8-.8,12.42,12.42,0,0,0-1.41-1.1,4.72,4.72,0,0,0-1.57-.78l0,0a5.56,5.56,0,0,0-.8-.35,2.33,2.33,0,0,0-1.23,0,2.79,2.79,0,0,0-.4-.07,1.88,1.88,0,0,0-.31,0,1.15,1.15,0,0,0-1.2,1.33c0,.09,0,.17,0,.17a1.93,1.93,0,0,0,.06.41,2.11,2.11,0,0,0,0,1.22c.09.27.23.54.34.8a1,1,0,0,1,.07.15,3,3,0,0,0,.31.9c.09.16.2.31.3.47a18.3,18.3,0,0,0,1.11,1.55c.24.29.48.58.74.85l.4.41,0,0,.21.28.51.39a4.55,4.55,0,0,0,.64.27l.09,0a2.65,2.65,0,0,0,.3.11l-.09,0a3.32,3.32,0,0,0,3-.54,3.24,3.24,0,0,0,1-1.33A3.43,3.43,0,0,0,721.71,388Z" fill="#ff583d"/><path d="M714.16,404.12a11.15,11.15,0,0,0-3.33-5.06c-.5-.41-1-.81-1.54-1.17a7.55,7.55,0,0,0-1.7-.8,6.23,6.23,0,0,0-3.46-.37l.82-.11a4.44,4.44,0,0,0-2.41.35,2.2,2.2,0,0,0-1.12,3.32,5.56,5.56,0,0,0,1.12,1.35c.42.6,1.05,1.13,1.48,1.69l-.58-.75c.38.48.75.95,1.16,1.4.17.18.33.37.49.57s.51.7.78,1l-.64-.83c.27.36.52.74.75,1.12a1.18,1.18,0,0,0,.46,1.21,3.83,3.83,0,0,0,1.43,1.48,9.8,9.8,0,0,0,1.29.55,4.07,4.07,0,0,0,5-5Z" fill="#ff583d"/><path d="M729.21,317.71a11.33,11.33,0,0,0-.88-3.68,10.3,10.3,0,0,0-1.36-2.25,6.72,6.72,0,0,0-1.49-1.32,2.82,2.82,0,0,0-1.37-.55,2.08,2.08,0,0,0-2.81,2.56,3.91,3.91,0,0,0,.32,1.25c-.07-.18-.21-.53-.07-.14a3.58,3.58,0,0,1,.11.35c.11.34.25.66.39,1h0c0,.06.05.13.08.2l0,0,0,.11a15.06,15.06,0,0,1,.68,2.82l.15,1.23c0-.28-.07-.56-.11-.84,0,.33.06.67.13,1a4.19,4.19,0,0,0,.22.6h0c-.17-.36-.07-.09,0,0a.69.69,0,0,0,0,.13,3.53,3.53,0,0,0,.11.65,2.86,2.86,0,0,0,.58,1,1.71,1.71,0,0,0,.13.23l0,.09a1.91,1.91,0,0,0,.21.43.85.85,0,0,0,1.41.58,1.42,1.42,0,0,0,.52-.19,1,1,0,0,0,.21-.15,2.16,2.16,0,0,0,.59-.34l.16-.07a3,3,0,0,0,1.29-1.65,3.12,3.12,0,0,0,.37-.8c0-.13,0-.17,0-.15a3.2,3.2,0,0,0,.17-.43A5.24,5.24,0,0,0,729.21,317.71Z" fill="#ff583d"/><path d="M729.61,338a.75.75,0,0,1-.07-.12,2.65,2.65,0,0,0-.41-1.22,4.51,4.51,0,0,0-.48-.6,6.7,6.7,0,0,0-.68-.52l.56.43a12.6,12.6,0,0,0-1.06-.74,5,5,0,0,1-.53-.37l-.41-.29-.21-.14c-.14-.12-.28-.25-.43-.36a2.78,2.78,0,0,0-1-.49,2.49,2.49,0,0,0-.28-.15,2.16,2.16,0,0,0-.59-.16,1.69,1.69,0,0,0-1.23,0,1.67,1.67,0,0,0-1,1.12,2,2,0,0,0-.2.47,2.5,2.5,0,0,0,0,1,2.54,2.54,0,0,0,.08,1,3.27,3.27,0,0,0,.56,1.08c.24.32.47.63.73.93a5.14,5.14,0,0,0,1,.82,5.84,5.84,0,0,0,1,.59,3.82,3.82,0,0,0,2.49.36,2.73,2.73,0,0,0,1.72-1.28c.07-.07.15-.12.22-.2A1,1,0,0,0,729.61,338Z" fill="#ff583d"/><path d="M748.55,339.41a7.81,7.81,0,0,0-2.24-5.75,2.44,2.44,0,0,0-.94-.72,2.2,2.2,0,0,0-2.36.3,2.51,2.51,0,0,0-.89,1.69,3.93,3.93,0,0,0-.23,1.19c0,.22,0,.45,0,.67a17,17,0,0,0,.26,2.12,6.24,6.24,0,0,0,.39,1.32,3.66,3.66,0,0,0,1.51,2,3.15,3.15,0,0,0,1.13.35,1,1,0,0,0,1.4-.14,2.66,2.66,0,0,0,1-.67A3.7,3.7,0,0,0,748.55,339.41Z" fill="#ff583d"/><path d="M746.78,355.93a4.07,4.07,0,0,0-.38-1,4.52,4.52,0,0,0-.36-.65,6.19,6.19,0,0,0-.66-.87,2.84,2.84,0,0,0-.75-.55,3,3,0,0,0-1.86-.65l0,0a2.22,2.22,0,0,0-2,.41,1.66,1.66,0,0,1-.22,0,1,1,0,0,0-.74.86,1,1,0,0,0,.37.94,2.09,2.09,0,0,0,.18.55,3.14,3.14,0,0,0,.11.66s0,.07,0,.1a4,4,0,0,0,.15.74c.05.21.09.42.12.64,0-.28-.07-.55-.11-.82,0,.4.12.79.18,1.18a5.21,5.21,0,0,0,.8,2.63,2.71,2.71,0,0,0,2.14,1.09,2.79,2.79,0,0,0,2-.86,4.73,4.73,0,0,0,1-1.76,3.73,3.73,0,0,0,.19-1.48C746.9,356.68,746.84,356.3,746.78,355.93Z" fill="#ff583d"/><path d="M742.44,373.72a2.88,2.88,0,0,0-.33-.43,1.14,1.14,0,0,0-.25-.18,2.51,2.51,0,0,0-.43-.63,4.38,4.38,0,0,0-.33-.46h0l-.18-.62a7.92,7.92,0,0,0-.62-1.44l-.18-.36a2.63,2.63,0,0,0-.74-.85l-.18-.11,0-.05a2.11,2.11,0,0,0-2.09-.55,2.07,2.07,0,0,0-1,.55,1.93,1.93,0,0,0-.35.46,2.77,2.77,0,0,0-.63,1.15l-.06.4a8.89,8.89,0,0,0-.22,1.62c0,.31,0,.61,0,.92a7.07,7.07,0,0,0,.31,1.7,3.18,3.18,0,0,0,1.12,1.62,2.94,2.94,0,0,0,1.9.67,6.29,6.29,0,0,0,1.44-.25,3.29,3.29,0,0,0,1.4-.78,2.85,2.85,0,0,0,.33-.39,1.5,1.5,0,0,0,.2-.23,1.28,1.28,0,0,0,.2-.26l0,0h0l.06,0a1.91,1.91,0,0,0,.44-.41A.86.86,0,0,0,742.44,373.72Z" fill="#ff583d"/><path d="M755.18,406.28a2.63,2.63,0,0,0-.23-.65,3.9,3.9,0,0,0-1.71-2.14l-.52-.37.75.58a19.45,19.45,0,0,0-1.63-1.19l-.72-.47a4.9,4.9,0,0,0-.57-.45,3.36,3.36,0,0,0-.43-.2l-.38-.23a2.43,2.43,0,0,0-4,1.8s0,.08,0,.11a2.74,2.74,0,0,0,0,1.14,2.5,2.5,0,0,0,.16,1.2c.16.39.32.79.5,1.17a5.36,5.36,0,0,0,.46.85,6.88,6.88,0,0,0,1.85,1.95,7.86,7.86,0,0,0,.87.54,3.84,3.84,0,0,0,3.32.23,3.57,3.57,0,0,0,.9-.35,3.08,3.08,0,0,0,1.27-1.49A3.21,3.21,0,0,0,755.18,406.28Z" fill="#ff583d"/><path d="M387.81,16.26c1.57,10.58,8.36,20.78,18.45,24.33C419.58,45.26,434,37.7,445.09,29c20.59-16.12,62.43-77,14.34-86.35C423-64.46,382.71-18.22,387.81,16.26Z" fill="#5bc175"/><path d="M480.31-74.12a7.19,7.19,0,0,0-3,1.7L474.75-70q-2.29,2.17-4.54,4.38-4.57,4.48-9,9.13t-8.64,9.36a153,153,0,0,1-20.93,2q-5.81.15-11.62-.1-2.77-.12-5.55-.33c-1-.07-1.93-.16-2.89-.18a6.64,6.64,0,0,0-1.58.19,1.67,1.67,0,0,0-2,1.29c-.54,2.73,2.71,3.13,4.6,3.39a121.78,121.78,0,0,0,14.42.93,172.69,172.69,0,0,0,20-.83c-.91,1.07-1.82,2.13-2.72,3.21q-6,7.18-11.65,14.66a3.67,3.67,0,0,0-.8,0,38.64,38.64,0,0,1-5.27.32l-5.2.23c-3.54.15-7.09.3-10.63.43s-6.93.21-10.39.41c-1.81.1-3.64.23-5.44.44a12.33,12.33,0,0,0-4.8,1.13.69.69,0,0,0,0,1.18,12.21,12.21,0,0,0,4.8.88c1.8.12,3.63.15,5.44.16,3.54,0,7.09-.11,10.64-.16s7.09-.1,10.63-.14l5.44-.05,2,0Q421.37-7.57,414.42,3.47a118.48,118.48,0,0,1-13.81,5.12c-2.6.79-5.22,1.48-7.84,2.17-2.37.63-5.35,1.05-7.21,2.79a.59.59,0,0,0,.12.92c2.36,1.23,5.43.58,7.94.23a69.76,69.76,0,0,0,8.43-1.77c2.74-.73,5.45-1.59,8.12-2.56-1.13,1.88-2.25,3.77-3.33,5.67a60.48,60.48,0,0,0-3.45,6.51c-.9,2.19-1.71,4.09-1.2,6.47a.4.4,0,0,0,.5.28c3.73-1.46,5.61-5.72,7.61-9,1.69-2.75,3.36-5.51,5.06-8.25.05.44.1.88.16,1.32.37,2.9.83,5.79,1.3,8.68.44,2.73.92,5.45,1.42,8.17.27,1.43.55,2.87.83,4.3a22.61,22.61,0,0,0,1,4.26c.6,2.91,5.25,2.25,5.16-.69s-1-5.81-1.55-8.62-1-5.59-1.5-8.4-.87-5.45-1.29-8.18c-.23-1.44-.45-2.89-.66-4.33-.16-1.13-.25-2.31-.51-3.43q5.5-8.44,11.44-16.61c.31-.44.64-.86.95-1.3,1.68,5.8,3.26,11.6,4.42,17.56.78,4,1.44,8.1,1.92,12.19.38,3.15.6,6.3.84,9.45-1,2.36-.22,5.14,2.32,6a2.82,2.82,0,0,0,3.55-2.7,154.21,154.21,0,0,0-3.33-25.95A154.24,154.24,0,0,0,436.08-18q8.19-10.8,17.11-21c2.36,15.51,5.08,31,7.67,46.43a.83.83,0,0,0-.58.76c-.1,2,1.91,4.21,4,4a3.15,3.15,0,0,0,3-3.9c-3-17.63-5.73-35.31-9-52.88,1.67-1.84,3.34-3.69,5-5.5q4.92-5.22,10-10.26c1.65-1.62,3.31-3.24,5-4.83.89-.85,1.78-1.69,2.69-2.53a10.6,10.6,0,0,0,1.34-1.34,9.11,9.11,0,0,0,.95-2C483.93-72.9,481.91-74.62,480.31-74.12Z" fill="#ff583d"/><path d="M495.06,298.68c-.48,1.52,23.24,26,25.73,29.56a199,199,0,0,1,20.31,36.65C551.73,390,558,418,557.31,445.36c-.46,17.77-14.5,45.4-36.22,29.79-19-13.64-27.86-55.69-31.81-77.15C483.22,365.08,484.86,330.63,495.06,298.68Z" fill="#fd9d12"/><path d="M550.15,490.09a42.88,42.88,0,0,0-1.21-4.58l-1.4-5.05c-.84-3-1.69-6.09-2.53-9.14q-2.61-9.37-5.2-18.75-5.14-18.51-10.32-37-10.44-37.23-21-74.4c-4-13.91-8-27.82-12.47-41.57a1.7,1.7,0,0,0-3.25,1c2.85,12.67,6.15,25.23,9.48,37.78,3.28,12.38,6.53,24.77,9.88,37.14q10.13,37.32,20.3,74.62,2.85,10.35,5.69,20.69,1.44,5.3,2.9,10.59l1.46,5.29c0,.21.11.43.16.65a4.38,4.38,0,0,0,.06,1.4c-.33,1.76.88,3.5,2.15,4.64a3.33,3.33,0,0,0,4,.4A3.4,3.4,0,0,0,550.15,490.09Z" fill="#1d2c46"/><path d="M497.17,369.06c-.05-.32-.1-.64-.18-1-.16-.66-.34-1.31-.5-2a25.35,25.35,0,0,0-1.25-3.78,2.1,2.1,0,0,0-2.29-1.41,2,2,0,0,0-1.72,2.06,27.59,27.59,0,0,0,.69,4.43c.15.64.29,1.27.44,1.91a4.94,4.94,0,0,0,1.2,2.63,2.25,2.25,0,0,0,2.15.51,2.32,2.32,0,0,0,1.49-1.57A3.42,3.42,0,0,0,497.17,369.06Z" fill="#1d2c46"/><path d="M507.07,379.14a7.73,7.73,0,0,0-1.08-2.58,6.2,6.2,0,0,0-.94-1.16,2.08,2.08,0,0,0-1.23-.58,1.64,1.64,0,0,0-1.31.37,2.34,2.34,0,0,0-.45,2.22c.07.32.17.65.25,1s.13.67.22,1,.09.37.13.56.19.66.06.28c0-.2,0-.21,0,0a2.89,2.89,0,0,1,0,.29c0,.19,0,.38,0,.58s0,.68,0,1a9.25,9.25,0,0,0,.28,1.39,3.8,3.8,0,0,0,.14.51,1.77,1.77,0,0,0,.48.78l.06,0c.05.12.1.25.16.37a.84.84,0,0,0,1.13.27,2.53,2.53,0,0,0,.36-.25,2.48,2.48,0,0,0,.82-.49,2.9,2.9,0,0,0,.52-.77,3.3,3.3,0,0,0,.19-.43s.22-.66.1-.25.15-.33.13-.26a3.06,3.06,0,0,0,.17-.95A9.54,9.54,0,0,0,507.07,379.14Z" fill="#1d2c46"/><path d="M506.43,399a10.9,10.9,0,0,0-.77-1.91,3.32,3.32,0,0,0-.4-.58,11,11,0,0,0-.83-1,5.61,5.61,0,0,0-1.61-1.1,2.05,2.05,0,0,0-2.73,2.88c.2.32.36.66.53,1s.39.65.55,1l-.27-.59c.13.3.27.59.41.88a6.33,6.33,0,0,1,.37,1c.05.19.09.37.13.56a2.77,2.77,0,0,0,.81,1.45,2.32,2.32,0,0,0,2,.6,2.35,2.35,0,0,0,1.71-1.19A3.74,3.74,0,0,0,506.43,399Z" fill="#1d2c46"/><path d="M516.09,407.6a12.19,12.19,0,0,0-.12-1.82c-.2-1.6-.62-3.62-2.11-4.44a1.74,1.74,0,0,0-2.31-.14,2,2,0,0,0-.63,1.12,2.69,2.69,0,0,0-.29,1.31c0,.16,0,.32,0,.48l0,.17,0,.32a8.51,8.51,0,0,0,.21,1.41l0,.1c0,.13,0,.25.05.37,0,.31.06.61.08.92s0,.33,0,.49a1.72,1.72,0,0,0,.13.68,3.61,3.61,0,0,0,.39,1.14l.06.12,0,0c.07.18.23.48.24.51a2.69,2.69,0,0,0,.2.27c.14.56.43,1.18,1.05,1.25s1.11-.47,1.41-1a2.83,2.83,0,0,0,.56-.74,2.9,2.9,0,0,0,.67-1.2,2,2,0,0,0,0-.24l-.13.3A3.39,3.39,0,0,0,516.09,407.6Z" fill="#1d2c46"/><path d="M493,339.27h0C492.94,338.84,492.94,338.84,493,339.27Z" fill="#1d2c46"/><path d="M498.4,339.73a9.84,9.84,0,0,0-1.3-3,5.2,5.2,0,0,0-1.25-1.47l-.07-.05,0-.05a2.84,2.84,0,0,0-.68-.42,2.08,2.08,0,0,0-1.18-.11,1.11,1.11,0,0,0-1.11.86,4.38,4.38,0,0,0,.11,3.06,2.36,2.36,0,0,1,.14.68l.05.36c0,.11.05.23.07.34v0c0,.22.05.44.08.67a25.34,25.34,0,0,1,.26,2.61,6.85,6.85,0,0,0,.11.91v0a.49.49,0,0,1,0,.12c0,.19,0,.21,0,.07l.09.57c.05.2.1.41.17.61a2.64,2.64,0,0,0,.5.81,2.43,2.43,0,0,0,.34.47.84.84,0,0,0,.77.49,1.85,1.85,0,0,0,1.1-.44l.37-.17a2.42,2.42,0,0,0,.51-.45,4.71,4.71,0,0,0,.58-.87,6.1,6.1,0,0,0,.59-2.25A10,10,0,0,0,498.4,339.73Z" fill="#1d2c46"/><path d="M515.91,335.07c.1.56.09.45,0-.36l-.06-.16A16.76,16.76,0,0,0,515,333a3.87,3.87,0,0,1-.31-.65h0s0,0,0-.05c-.25-.57-.49-1.13-.76-1.69l-.27-.56-.07-.15c-.23-.52-.43-1.05-.71-1.55a7.67,7.67,0,0,0-.69-1.22c-.22-.25-.23-.28,0-.07-.06-.1-.11-.2-.16-.3s-.26-.34-.4-.5l0,0a1.54,1.54,0,0,0-1.68-1,1.5,1.5,0,0,0-1.26,1.51,1.81,1.81,0,0,0,0,.32,1.45,1.45,0,0,0-.09.25,3.07,3.07,0,0,0-.05.68c0,.24,0,.23,0,0a7.85,7.85,0,0,0,0,1.61,17.06,17.06,0,0,0,.69,3.09,21.23,21.23,0,0,0,1.23,3,12,12,0,0,0,.56,1.14,4.81,4.81,0,0,0,.52.67h0a4.11,4.11,0,0,0,1.09.92,2.28,2.28,0,0,0,2.35-.06,2.3,2.3,0,0,0,1.09-2C516.11,336.13,515.87,335.1,515.91,335.07Z" fill="#1d2c46"/><path d="M529.16,346.06a9.68,9.68,0,0,0-.9-3.43,8.43,8.43,0,0,0-1.56-2.46c-.47-.34-.56-.41-.28-.21a3.07,3.07,0,0,0-.26-.25,4.07,4.07,0,0,0-.63-.46,6.62,6.62,0,0,1-.95-.8,1.2,1.2,0,0,0-1.83,1.5l.27.44c.08.5.18,1,.3,1.57s.23,1.08.34,1.65a.7.7,0,0,0,0,.17c0,.21.07.57.07.53,0,.19.07.38.09.57s0,.16,0,.2c0,.39.17.8.21,1.19,0-.06,0,0,0,.2s0,.31,0,.47c0,.42.06.84.13,1.26a2.78,2.78,0,0,0,.33.89,2.7,2.7,0,0,0,.45,1,3.56,3.56,0,0,0,.29.7,2.34,2.34,0,0,0,.26.71.73.73,0,0,0,.8.31,2.46,2.46,0,0,0,.76-.62,2.34,2.34,0,0,0,.4-.32,4.59,4.59,0,0,0,.33-.44l.05-.08.09-.08a1.28,1.28,0,0,0,.43-.52,2.48,2.48,0,0,0,.17-.37A5.07,5.07,0,0,0,529.16,346.06Z" fill="#1d2c46"/><path d="M531,369a1.77,1.77,0,0,0-.14-.69,2.84,2.84,0,0,0-.63-1l-.07-.07a3.11,3.11,0,0,0-.23-.28,2.48,2.48,0,0,0-.56-.65l-.47-.41A8.82,8.82,0,0,1,528,365l.41.51c-.3-.38-.61-.74-.92-1.11l-.2-.24a3,3,0,0,0-.25-.25c-.14-.18-.28-.36-.4-.55a2.13,2.13,0,0,0-1.76-1,1,1,0,0,0-.77-.12.89.89,0,0,0-.58.57,2.22,2.22,0,0,0-.77,2.31c.07.27.15.54.24.8a1.78,1.78,0,0,0,.07.39,3.81,3.81,0,0,0,.33.75,4.82,4.82,0,0,0,.27.5,7.5,7.5,0,0,0,1.07,1.38,8.71,8.71,0,0,0,.83.78c.22.18.45.35.68.51a2.8,2.8,0,0,0,1.15.53h0a3.9,3.9,0,0,0,1.14.21l-.59-.06a3.08,3.08,0,0,0,1.51,0,2.28,2.28,0,0,0,.81-.4,1.28,1.28,0,0,0,.67-.7A1.19,1.19,0,0,0,531,369Z" fill="#1d2c46"/><path d="M536.15,377.88s0,.07,0,.12v0Z" fill="#1d2c46"/><path d="M541,373.94a9.24,9.24,0,0,0-.75-1.7,3.5,3.5,0,0,0-.68-.89,2.32,2.32,0,0,0-.44-.31l-.13-.12a2.32,2.32,0,0,0-1.6-.57,1.47,1.47,0,0,0-.36,0,1.31,1.31,0,0,0-1.2.75,1.63,1.63,0,0,0-.15.79,2.35,2.35,0,0,0,0,1.12l0,.13a7.06,7.06,0,0,0,.18,1.12c0,.44.06.89.1,1.34a9.07,9.07,0,0,0,.16,1.88,3.29,3.29,0,0,0,0,.44c0-.14,0-.16,0,.06v0l.05.14a.84.84,0,0,1,0-.12l.06.38v.22a2.54,2.54,0,0,0,.1.55.51.51,0,0,1,0,.12c0,.08,0,.16,0,.24a.75.75,0,0,0,.74.71,2.42,2.42,0,0,0,.47-.06h0l.12,0a2,2,0,0,0,.9-.27c.11-.06.39-.18.09-.11s-.19.08-.08,0a1.2,1.2,0,0,0,.52-.25s1-.88.24-.24a3,3,0,0,0,.92-.95l.07-.15a3.32,3.32,0,0,0,.47-.85,5.29,5.29,0,0,0,.27-1.53A5.11,5.11,0,0,0,541,373.94Z" fill="#1d2c46"/><path d="M540.22,401.37a5.35,5.35,0,0,0-.23-1.44,21.3,21.3,0,0,0-.9-2.21,9.78,9.78,0,0,0-1.35-2.12,1.34,1.34,0,0,0-.34-.37l-.27-.2s0,0,0-.08-.1-.13-.16-.19a2.56,2.56,0,0,0-.72-.47l-.48-.19h-.14a1.2,1.2,0,0,0-.21-.13,1.07,1.07,0,0,0-.53-.1c.08.12.06.09-.06-.08a.48.48,0,0,0-.85.39c.07.19.06.23,0,.11a1,1,0,0,0-.27.44,1.11,1.11,0,0,0,0,.25,2.4,2.4,0,0,0-.38.88s-.05.44-.06.71a5.35,5.35,0,0,0,0,.65,8.69,8.69,0,0,0,.51,2.56c.23.62.55,1.23.82,1.84a5.14,5.14,0,0,0,1.19,1.8,3.55,3.55,0,0,0,1.31.71l-.36-.12.25.13a2.14,2.14,0,0,0,3.06-1.34c.06-.17.24-.63-.06.07A3.32,3.32,0,0,0,540.22,401.37Z" fill="#1d2c46"/><path d="M550,406.7a9.92,9.92,0,0,0-1-2.44c-.1-.15-.2-.3-.31-.44a2.5,2.5,0,0,0-.46-.57c-.49-.37-.6-.46-.33-.26s.15.11,0,0l-.19-.21a1.85,1.85,0,0,0-.84-.5h-.08l0,0-.28-.12a1,1,0,0,0-1.15-.35.93.93,0,0,0-.54,1.1l0,.09h0v0l0,.08-.08.1a1.53,1.53,0,0,0-.23.72,2.91,2.91,0,0,0,0,.67l-.06.45c0,.14,0,.29,0,.44a11.61,11.61,0,0,0,.17,1.43v0c0,.15,0,.3,0,.45,0,.63.1,1.27.1,1.9a5.82,5.82,0,0,0,.29,2.33,4.54,4.54,0,0,0,.12.53,1.37,1.37,0,0,0,0,.4c0,.06,0,.13,0,.19a2,2,0,0,1-.07.23.82.82,0,0,0,.92,1.19,2.54,2.54,0,0,0,.37-.1l.07,0,.11,0a1.54,1.54,0,0,0,.56-.18,2.11,2.11,0,0,0,.74-.32l.09,0a1.67,1.67,0,0,0,.42-.22,3.47,3.47,0,0,0,.66-.6,3,3,0,0,0,1.11-1.66,7,7,0,0,0,.2-1.57A8.4,8.4,0,0,0,550,406.7Z" fill="#1d2c46"/><path d="M727.57,102.55a149.77,149.77,0,0,0-43.2,49.14c-3.55,6.49-6.65,14.33-3.62,21.08,2.15,4.77,7,7.83,11.88,9.64,15.17,5.57,32.73,1.36,46-7.94s22.66-23.08,30-37.46c4.64-9,8.64-18.6,9.8-28.71,1.5-13-.31-28.14-13.9-26.86C753.34,82.5,736.3,96.2,727.57,102.55Z" fill="#ff583d"/><path d="M781,106.48c-1.32-.67-3.26-.43-3.65,1.21a.69.69,0,0,0,.73.86l-.13.21c-.16.21-.28.44-.43.65-.51.71-1.16,1.35-1.74,2-1.38,1.57-2.77,3.12-4.18,4.67q-4.21,4.65-8.61,9.12-8.72,8.87-18.11,17t-19.19,15.31c-3.3,2.41-6.61,4.89-10.13,7-3.1,1.82-6.52,3.29-10,3.28-2.83,0-5.85-.92-7.66-3.19s-2-5.32-1.45-8.09c1.36-6.89,5.81-13,9.88-18.52a130,130,0,0,1,30-29.37,134.49,134.49,0,0,1,18.62-11,192.75,192.75,0,0,1,19.54-8,42.12,42.12,0,0,0,5.07-2.19,1.75,1.75,0,0,0-.88-3.24,38.62,38.62,0,0,0-11.46,2.31c-3.71,1.24-7.37,2.63-10.95,4.21a134.35,134.35,0,0,0-20.13,11.06,138.25,138.25,0,0,0-33.81,31.87c-4.54,6-9.32,12.61-11.23,20a17.84,17.84,0,0,0,.53,11.72,13.84,13.84,0,0,0,8.61,7.45c8.48,2.71,16.6-1.87,23.34-6.58q11-7.72,21.4-16.38T764.63,132q4.7-4.65,9.19-9.5,2.28-2.46,4.5-5a31,31,0,0,0,4.18-5.13C783.54,110.47,783.25,107.28,781,106.48Z" fill="#03231e"/><path d="M763.61,111a2.48,2.48,0,0,0-2.16-1.24,2.58,2.58,0,0,0-1.25.37l.06-.06-.13.1-.15.12a3.15,3.15,0,0,0-1,1.52c-.14.44.13-.08-.09.35a11.35,11.35,0,0,1-.73,1.08q-1.51,2.11-3.13,4.16a106.61,106.61,0,0,1-7.14,8,99.74,99.74,0,0,1-16.39,13.44c-1.82,1.19-5.17,3.41-7.34,2.32-2.36-1.19-1-5.5-.1-7.26a33.6,33.6,0,0,1,6.38-8,86.12,86.12,0,0,1,8-7.16,93.39,93.39,0,0,1,9.74-6.64c1.75-1,3.54-2,5.34-3,.86-.46,1.71-.95,2.58-1.4a8.85,8.85,0,0,0,2.3-2,1.17,1.17,0,0,0-.82-2,7.85,7.85,0,0,0-2.86.18c-.93.3-1.83.68-2.73,1a58.56,58.56,0,0,0-5.62,2.77,78,78,0,0,0-9.89,6.4,89.73,89.73,0,0,0-9.24,8,39.46,39.46,0,0,0-7.42,9.12c-1.87,3.49-3,8.26-.77,11.87s6.35,4,10,2.82,6.89-3.64,10-5.89a109.46,109.46,0,0,0,9.34-7.6,103.21,103.21,0,0,0,9.32-9.73c1.45-1.74,2.85-3.53,4.2-5.35S765,113.31,763.61,111Z" fill="#03231e"/><path d="M347.9,386.83c16.44-19.28,39.17-31.89,61.37-44.09,13.61,9.75,27.66,20,35.66,34.72,7,12.92,8.67,28.07,8.92,42.78.77,43.71-27.83,88.88-78.16,79.38C323.39,489.76,319,420.73,347.9,386.83Z" fill="#ff583d"/><path d="M428.59,387.41a105.26,105.26,0,0,0-15.76-24.74,2.76,2.76,0,0,0-3.31-.43c-15.2,8.15-29.26,18.83-40.36,32.1-11.61,13.86-19.92,30.5-22.82,48.43a79.48,79.48,0,0,0-1.18,15.32,57.48,57.48,0,0,0,.66,7.86c.21,1.18.44,2.35.7,3.52a19,19,0,0,0,1.41,3.76c.66,1.49,2.83.63,2.87-.77.15-4.37-.38-8.72-.41-13.1a91.8,91.8,0,0,1,.74-13.15,90.22,90.22,0,0,1,7.1-24.65C365.13,406.19,376,393,389,382.37a140.12,140.12,0,0,1,21.26-14.29,101.56,101.56,0,0,1,19.52,40.32,103.42,103.42,0,0,1,.47,46.27,82.22,82.22,0,0,1-3.82,12.86,18.72,18.72,0,0,1-2.68,4.5,44.12,44.12,0,0,1-3.74,3.35,6.47,6.47,0,0,1-1.72.51c-.84.06-1.63,1.25-.79,1.9a7,7,0,0,0,5,1.55,8.61,8.61,0,0,0,5.66-3.38c2.8-3.37,4.28-7.39,5.57-11.52a105,105,0,0,0,4.56-25.77A110.9,110.9,0,0,0,428.59,387.41Z" fill="#03231e"/><path d="M419.29,414.43a75.75,75.75,0,0,0-10-18.42c-.77-1-2.37-1.88-3.61-.95-18.84,14.21-33.95,34.24-37.39,58.08a63.69,63.69,0,0,0-.61,10.33,37.45,37.45,0,0,0,.55,5.38c.15.85.29,1.73.51,2.56a8.54,8.54,0,0,0,1.1,2.25,1.07,1.07,0,0,0,1.93-.26,14.09,14.09,0,0,0,.47-2c.07-.71,0-1.48,0-2.19,0-1.47,0-2.94.1-4.4.12-2.86.24-5.71.63-8.55a78,78,0,0,1,4.12-16.69A83.82,83.82,0,0,1,394.6,412a106,106,0,0,1,11.85-10.86,72.89,72.89,0,0,1,9.23,60.52,54.52,54.52,0,0,1-3.15,8.5c-1.11,2.3-3,5.7-6.1,5a.61.61,0,0,0-.68.89c1.44,2.84,5.25,3,7.82,1.72,3.13-1.5,4.53-5.45,5.71-8.45A74,74,0,0,0,423.77,451,78.57,78.57,0,0,0,419.29,414.43Z" fill="#03231e"/><path d="M155-14c15.18,7.19,35.39,2.91,45.11-10.78,13,20.41,27.4,42,49.82,51.11,31.6,12.81,72.19-8.63,79.43-41.94A34.19,34.19,0,0,0,367.9-11C380-17.62,387.06-32.42,384.62-46c-.72-4-2.38-8.08-5.83-10.17-2.73-1.66-6.1-1.77-9.3-1.82L206.92-60.78c-14.59-.24-61.56-7.45-72.47,3.09C121.45-45.12,143.4-19.48,155-14Z" fill="#ff583d"/><path d="M382.67-43.73a14.2,14.2,0,0,0-.89-4.27c-.58-1.51-2.11-2.55-3.46-3.36a1.34,1.34,0,0,0-2,1.15c0,1.22-.27,1.82-.27,3a13.82,13.82,0,0,0,.32,1.89.39.39,0,0,1,0,.09c0,.06,0,.12,0,.22,0,.32,0,.64.05,1a14,14,0,0,1-.83,5.94,15.74,15.74,0,0,1-7.88,8.87c-9.12,4.51-20.28.4-27.57-5.93a66.25,66.25,0,0,1-11.59-13.78,3,3,0,0,0-5.47.72c-7.32,19.3-19.74,38.68-40.05,46a42.33,42.33,0,0,1-29.61-.09c-9.54-3.58-17.64-10.36-23.93-18.26-7.72-9.68-12.77-21.29-16.79-32.91a2.56,2.56,0,0,0-4.6-.6c-6.3,8.23-13.38,16.52-23,20.89-8.7,3.94-19.63,4.05-26.69-3.1a17.86,17.86,0,0,1-3.93-5.83,16.08,16.08,0,0,1-1-3.59c-.19-1.26-.49-2.48-.57-3.76a1.36,1.36,0,0,0-2.65-.36,14.57,14.57,0,0,0-.71,3.58,13.67,13.67,0,0,0,.7,4,21,21,0,0,0,3.36,6.68,23.71,23.71,0,0,0,12.81,8.76c11.56,3.08,23.42-2,32.17-9.4a83.52,83.52,0,0,0,10.83-11.49c7.36,19.93,18.71,39.57,38.62,48.95a47.43,47.43,0,0,0,32.61,3.19c11-2.9,20.83-9.39,28.5-17.66s13.12-17.82,17.49-28c6.26,8.54,14.14,16.19,24.62,19A28.4,28.4,0,0,0,370-23.46a21.71,21.71,0,0,0,11.16-11.76A19.56,19.56,0,0,0,382.67-43.73Z" fill="#03231e"/><path d="M502.25,1.86c10.07,19.74,27.34,35,46.13,46.73,5.72,3.58,13.93,6.6,18.51,1.65,2.39-2.58,2.7-6.4,2.88-9.91.7-13.4,1.38-27-1.72-40.08C565.13-12,559-23.29,552.34-34c-8.78-14.18-30.09-41-49.25-26.48C486-47.51,494.37-13.58,502.25,1.86Z" fill="#2fa55e"/><path d="M560.76,0a8.84,8.84,0,0,0-1.16-3.37,4.81,4.81,0,0,0-2.51-2.38,2.18,2.18,0,0,0-.64-.25l-.33-.41a1.23,1.23,0,0,0-1.62-.1,1.25,1.25,0,0,0-.32,1.59c.07.13.14.27.2.41s0,.23,0,.35a4.94,4.94,0,0,0,.32,2.58,9,9,0,0,1,.27,1s0,.07,0,.11,0,.13,0,.19l.12.85c0,.23,0,.12-.05-.32a2.46,2.46,0,0,1,0,.26,3.53,3.53,0,0,1,0,.46l-.06.29a3,3,0,0,0-.1.52,2.26,2.26,0,0,0-.1.35,3.63,3.63,0,0,0-.12.85,1.61,1.61,0,0,1-.14.3,2.49,2.49,0,0,0-.09.37l-.07.32s0,.06,0,.1a2.1,2.1,0,0,1-.93.41.59.59,0,0,0-.14,1.07,3,3,0,0,0,1.08.48,5.67,5.67,0,0,0,.57.1h.46c.18,0,.6.17.67.06s-.45-.06-.21,0a3.56,3.56,0,0,0,1.08,0,2.9,2.9,0,0,0,1.23-.57,2.55,2.55,0,0,0,.91-.57,4,4,0,0,0,.63-.73,5.82,5.82,0,0,0,.77-1.43A7,7,0,0,0,560.76,0Z" fill="#ffcb32"/><path d="M547.16,22a.14.14,0,0,1,0-.07,1.11,1.11,0,0,1,0-.17l0-.18,0,.17A3.35,3.35,0,0,0,546,19.1a3.57,3.57,0,0,0-1.23-1.2l-.69-.5.68.52-.86-.66c-.62-.49-1.2-1-1.8-1.55S541,14.54,540.32,14a5.09,5.09,0,0,0-.82-.65A2.38,2.38,0,0,0,537,13a2.33,2.33,0,0,0-1.45,2.17l0,.25a3.55,3.55,0,0,0,.18,1.37,2.85,2.85,0,0,0,.35,1.09c.07.16.14.32.22.48s.27.54.42.8a11.22,11.22,0,0,0,1.64,2.18,13.67,13.67,0,0,0,2.05,1.74c.27.18.54.36.83.52a4.44,4.44,0,0,0,1.14.5,2.85,2.85,0,0,0,.8.11,3.7,3.7,0,0,0,1.87,0,2.9,2.9,0,0,0,1.33-.78,1,1,0,0,1,.32-.38A1,1,0,0,0,547.16,22Z" fill="#ffcb32"/><path d="M563.84,22.26a6.22,6.22,0,0,0-.62-1.82c-.22-.44-.48-.85-.73-1.27-.13-.21-.25-.42-.36-.64a2.88,2.88,0,0,0-.55-.79l-.49-.38a2.61,2.61,0,0,0-.24-.23.87.87,0,0,0-1.23-.9,1.22,1.22,0,0,0-.38,0,1.71,1.71,0,0,0-.63.38,1.86,1.86,0,0,0-.26.17,2.46,2.46,0,0,0-1.29,1.52h0a2.77,2.77,0,0,0-.42,1.75c.05.53.13,1.07.23,1.6a8.74,8.74,0,0,0,.6,1.81,7.37,7.37,0,0,0,.91,2.11l.06.13a2.6,2.6,0,0,0,.27.38.85.85,0,0,0,.41,1.36,2.24,2.24,0,0,0,.68.1,1.7,1.7,0,0,0,1-.08,2.6,2.6,0,0,0,1.35-.66,3.08,3.08,0,0,0,1.37-1.58,3.67,3.67,0,0,0,.4-1A4.89,4.89,0,0,0,563.84,22.26Z" fill="#ffcb32"/><path d="M560.65,39.63a7.62,7.62,0,0,0-.22-1.42,4.87,4.87,0,0,0-.74-1.54,5,5,0,0,0-.69-.77,2.92,2.92,0,0,0-1.59-.76,2.69,2.69,0,0,0-1.78.33,2.85,2.85,0,0,0-1.27,3.14c0,.14.07.28.1.43a3,3,0,0,0,.15.48l-.05-.12c.11.26.19.52.28.79l.09.37a3.36,3.36,0,0,0,.48,1,3.35,3.35,0,0,0,.79,1.19,2.25,2.25,0,0,0,1.26.6,2.35,2.35,0,0,0,1.39-.26A3.25,3.25,0,0,0,560,42a2.52,2.52,0,0,0,.36-.8,3.89,3.89,0,0,0,.21-.51A2.41,2.41,0,0,0,560.65,39.63Z" fill="#ffcb32"/><path d="M665,203c-3.71-.43-8.73.19-9.31,3.88-.35,2.18,1.23,4.15,2.7,5.8,14.6,16.31,29.37,32.78,47.34,45.27,16.79,11.68,98.7,35,65.62-6.93C748.65,222.19,699.76,207,665,203Z" fill="#2fa55e"/><path d="M776.46,267.43c-1.13-2-3.68-2.95-5.6-4L758.8,256.9l-9.17-5a6.13,6.13,0,0,0-.06-2.85,65.7,65.7,0,0,0-3-7.72c-1-2.61-2.05-5.22-3.09-7.83l-3.4-8.5c-.58-1.46-1.17-2.92-1.75-4.37a17.4,17.4,0,0,0-2.46-4.84,2.77,2.77,0,0,0-3.37-.43c-.91.64-1.94,1.47-1.94,2.7a2.08,2.08,0,0,0,.9,1.66,50.63,50.63,0,0,0,2.15,5.53l2.85,7.12c1.93,4.83,3.9,9.65,5.86,14.47.19.48.39.95.59,1.43q-13.61-7.39-27.23-14.75-4.53-14.1-10.22-27.79a2.94,2.94,0,0,0-3.51-2h-.06a2.06,2.06,0,0,0-.57.25h0l-.05,0-.12.08-.12.09a2.82,2.82,0,0,0-1.07,3.05q4.6,11,8.49,22.38l-21.89-11.72c-1.61-4-3.31-7.86-5-11.79-.83-2-1.57-4.33-3.09-5.95a5,5,0,0,0-3.21-1.34,2.57,2.57,0,0,0-1,.27c.32-.14,0,0-.15.06a2.93,2.93,0,0,0-1,.69.72.72,0,0,0,0,1,3.79,3.79,0,0,1,.25.35,3.11,3.11,0,0,0,.52,1c-.49-.7.34.91.31.87.39.7.83,1.15,1.23,1.88.94,1.74,1.64,3.63,2.42,5.44l1.58,3.69-17.56-9.34c-1.92-1-3.88-2.12-6.1-2a1.12,1.12,0,0,0-1,1.67c1.17,2,3.19,3,5.15,4.13l5.88,3.29,12,6.7,2.12,1.19-5,.57-5,.56a16.82,16.82,0,0,0-2.73.5,3.09,3.09,0,0,0-2.09,1.75.38.38,0,0,0,.06.43c1.26,1.5,2.91,1.5,4.76,1.39l5.2-.31,10.16-.57a2.88,2.88,0,0,0,1.41-.51l15,8.32,7,3.85-3.26.59-6.8,1.23L692,238.81l-3.4.63c-1.25.24-2.7.41-3.57,1.42a1.8,1.8,0,0,0,.36,2.78,5.4,5.4,0,0,0,3.68.27l3.67-.56,6.84-1,6.84-1.08,3.41-.54,2-.31a5.58,5.58,0,0,1,1.49-.24,3.19,3.19,0,0,0,2.5-.57q11.7,6.44,23.4,12.84l-.58.14c-5,1.24-10,2.4-15,3.59-2.83.68-5.65,1.34-8.46,2.11-1.44.4-2.87.83-4.28,1.34-1.24.46-2.58.91-3.26,2.12a1.06,1.06,0,0,0,.37,1.42,5,5,0,0,0,3.44.49c1.52-.14,3-.36,4.52-.63,2.79-.5,5.56-1.08,8.32-1.67,5.45-1.18,10.89-2.38,16.34-3.5a21,21,0,0,0,5.59-1.58l3.76,2.06,12,6.6,6.13,3.36c1.94,1.06,4.13,2.68,6.44,2.62C776.51,270.82,777.47,269.21,776.46,267.43Z" fill="#ffcb32"/><path d="M603,398.84c4.87-5.5,10.71-10.74,17.93-12.08,9.84,18.78,9.77,41.86,2.23,61.67-5.92,15.55-30.67,59.51-45.12,28.39C566.91,452.77,587.49,416.37,603,398.84Z" fill="#2fa55e"/><path d="M631.26,426.36a3.8,3.8,0,0,0-1.31-.67,3.38,3.38,0,0,0-2.4.2.54.54,0,0,0-.33.54,88.81,88.81,0,0,0-10.57,3,87.34,87.34,0,0,0-8.54,3.18c.09-.3.19-.59.28-.89,2.06-6.72,4-13.46,6.09-20.17h.09a9.43,9.43,0,0,0,1.49-.16c1.13-.14,2.24-.3,3.36-.54s2-.44,3-.7a21.48,21.48,0,0,0,3-.81,2.52,2.52,0,0,0,1.79-2.36,3.51,3.51,0,0,0-.33-1.23,2.35,2.35,0,0,0-2.11-1.21,39.22,39.22,0,0,0-6.47,1.69c-.82.25-1.61.55-2.4.86q1.56-4.84,3.25-9.65c.67-1.91,1.34-3.83,2-5.72s1.93-4,1.81-5.92a2.29,2.29,0,0,0-3.86-1.6c-1.34,1.12-1.93,3.2-2.6,4.78-.72,1.74-1.43,3.48-2.11,5.23-1.3,3.35-2.45,6.76-3.56,10.18-1.37,4.21-2.66,8.45-3.94,12.69-.84-1.39-1.69-2.77-2.57-4.13-2.12-3.28-4.21-7-7.19-9.53a1.86,1.86,0,0,0-2.19-.28,1.79,1.79,0,0,0-.83,2c1.53,3.65,4,6.83,6.08,10.2,1,1.63,2,3.27,2.89,4.93.5.88,1,1.78,1.49,2.66l.36.66c-.1.32-.2.65-.29,1-1.64,5.44-3.35,10.85-5.17,16.23q-1.86-2.35-3.74-4.69l-4.22-5.26c-1.4-1.75-2.71-4-4.75-5a1.56,1.56,0,0,0-2.26,1.75c.46,2.12,2.12,3.83,3.39,5.54l4,5.41,3.9,5.25c.6.8,1.2,1.58,1.81,2.36-2.24,6.31-4.65,12.56-7.3,18.72q-2.1,4.86-4.36,9.66c-.74,1.56-1.49,3.11-2.22,4.68-.86,1.82-2.34,3.89-1.07,5.87a1.88,1.88,0,0,0,2,1.05c2.39-.13,3.2-2.68,4.12-4.49,1.6-3.14,3-6.37,4.49-9.59q5-11.15,9.11-22.61a2.29,2.29,0,0,0,1.29-2,2.87,2.87,0,0,0-.19-1.07c1-2.86,2-5.74,2.91-8.63,3.86-1.06,7.66-2.32,11.52-3.43q3-.89,6.07-1.62c2.09-.51,4.29-.84,6.33-1.53a2.62,2.62,0,0,0,1.89-2.5A3.07,3.07,0,0,0,631.26,426.36Z" fill="#ffcb32"/><path d="M46.18,96.77c8-4.2,18.36-6.71,25.46-1.18,4,3.12,6,8.29,6.26,13.36.6,13.59-10,24.77-19.85,34.16l-39,37.17c34.06-27.83,80.39-40.06,123.75-32.66,4.26.73,8.78,1.79,11.75,4.93,3.83,4.06,3.94,10.48,2.24,15.79-5.62,17.49-25.67,25.25-43.49,29.68a482,482,0,0,1-70.69,12,102.37,102.37,0,0,1,46.08,13.3c7.27,4.15,14.89,11.33,12.85,19.45-1.71,6.78-9.33,10.14-16.21,11.35-25.69,4.51-51.1-7.37-74.47-18.94-10.75-5.31-22.24-11.36-27.44-22.16C-33.37,178.13,17.37,112,46.18,96.77Z" fill="#2fa55e"/><path d="M132.59,158.64c-18.28-8.44-39.28-4.06-58,.52a395.31,395.31,0,0,0-55.66,18q-5.2,2.13-10.34,4.42A236.22,236.22,0,0,0,46.75,134c4.07-6.74,7.82-13.68,11.25-20.76.89-1.83-.64-3.5-2.3-3.89-7.27-1.73-14.51.9-20.69,4.65-6.36,3.86-12,9-17.37,14.09a224.69,224.69,0,0,0-30.11,34.57q-3.69,5.25-7.1,10.69a112.41,112.41,0,0,0-6.31,11.56c-.91,1.94,2.11,3.69,3.31,1.87,2-3.08,4.06-6.13,6-9.24s4.05-6.18,6.19-9.2q6.4-9,13.68-17.44c4.73-5.47,9.68-10.76,14.89-15.77A151.7,151.7,0,0,1,34.7,120.85c4.82-3.46,10.41-6.4,16.33-6.39a236.91,236.91,0,0,1-45.39,61.6q-8.19,8-17.12,15.16c-2.62,2.11,0,6.8,3.11,5.19a390.79,390.79,0,0,1,52.58-22.1q13.41-4.51,27.14-8a208.4,208.4,0,0,1,28.1-5.67c9-1,18.24-.8,26.82,2.16-9.09,9.77-21.64,15.86-34.38,19.46-16.45,4.65-33.59,5.57-50.47,7.66A171.42,171.42,0,0,0,11.24,196a3.11,3.11,0,0,0-1.83,3.33,3.17,3.17,0,0,0,2.72,2.62,50.47,50.47,0,0,1,37.95,27.11c.73,1.48,2,3.6,1.45,5.29a3.47,3.47,0,0,1-.15.36c-.05.05-.15.2-.18.22-.38.28-.21.19-.08.09l-.39.32,0,0c-.17.08-.35.17-.53.24l-.4.16s-.55.14-.58.14a12.26,12.26,0,0,1-4.83,0c-2.26-.32-4.5-.78-6.72-1.28A107.61,107.61,0,0,1-13.6,206.71c-1.23-1.2-3.5-.62-4.43.62-1.14,1.51-.61,3.23.62,4.43a113.69,113.69,0,0,0,53.87,29.08c4.33,1,9.06,2.17,13.52,1.35a10.25,10.25,0,0,0,6-3.14,8.67,8.67,0,0,0,1.74-7.6c-1.05-4.68-4-9.2-6.77-13a56.81,56.81,0,0,0-9.62-10.16A56.71,56.71,0,0,0,25,198.8c13.92-2.93,28.27-3.83,42.36-5.6,15.86-2,32-5.27,46.13-13a66,66,0,0,0,20.42-16.84A3.12,3.12,0,0,0,132.59,158.64Z" fill="#ffcb32"/><path d="M51.34,61.54c35,21,79.64,19.21,118.41,6.59A237.31,237.31,0,0,0,75.41-48.15C57.6-59.45,37-68.57,16-66,2.79-64.38-15.11-55.17-19.8-41.66-24.21-28.94-15.64-19.37-8.92-9.29,8.62,17,23.31,44.74,51.34,61.54Z" fill="#ffcb32"/><path d="M170.5,60.33a9.44,9.44,0,0,0-2.22-.94,9.83,9.83,0,0,0-3.5.15c-1.83.31-3.62.77-5.45,1a60,60,0,0,1-10.63.56,55.24,55.24,0,0,1-5.76-.5c.13-.23.24-.47.38-.7a31,31,0,0,1,5-6.45,26.42,26.42,0,0,1,2.93-2.57A18.86,18.86,0,0,0,155,48a2.47,2.47,0,0,0,.5-2.66,2.37,2.37,0,0,0-2.23-1.5,6.65,6.65,0,0,0-3,.94c-.63.4-1.24.81-1.83,1.25a37.63,37.63,0,0,0-3.81,3.19,34.72,34.72,0,0,0-6,7.72c-.47.83-.93,1.7-1.37,2.61a72,72,0,0,1-9-2.77,105.08,105.08,0,0,1-12.67-6,133.06,133.06,0,0,1,18.88-13.78q3.5-2.2,7.07-4.27c1.23-.71,2.46-1.4,3.71-2.09a10.58,10.58,0,0,0,4.11-3.16c1.42-2.11-.48-4.92-2.83-4.93a9,9,0,0,0-4.33,1.48c-1.25.67-2.48,1.36-3.71,2.07q-3.39,1.92-6.69,4c-4.39,2.73-8.71,5.59-12.84,8.69A96.63,96.63,0,0,0,109,47.18q-8.75-5.1-17.24-10.61c-2-1.28-4-2.6-5.92-3.92,7.32-7.84,15.71-15,25.32-19.73a47.76,47.76,0,0,1,9.49-3.48,38.75,38.75,0,0,1,4.76-.9c.93-.11,1.87-.15,2.8-.28.39,0,.79-.1,1.18-.17h0c-.24,0-.21,0,.08,0a2.4,2.4,0,0,0,3.21-2.8c-.83-4-6.89-2.77-9.65-2.33a45.78,45.78,0,0,0-9.67,2.67,72.16,72.16,0,0,0-18.12,10.7,115.31,115.31,0,0,0-14,13.15q-12.39-8.58-24.17-18C66.71,3.17,78.31-3,90.22-7.35q5.4-2,10.94-3.45c3.73-1,7.57-1.63,11.26-2.71a3,3,0,0,0,2.14-3.28,3,3,0,0,0-2.93-2.59,71.82,71.82,0,0,0-10.82,2.29Q95.74-15.74,90.75-14A128.71,128.71,0,0,0,71-5.43a99.83,99.83,0,0,0-18.68,13Q39.75-2.76,28-14c-.61-.58-1.2-1.19-1.81-1.78a3.88,3.88,0,0,1,.33-.23,34.36,34.36,0,0,1,9-4c3.76-1.18,7.57-2.22,11.36-3.3,7.75-2.2,15.52-4.33,23.3-6.45a125.81,125.81,0,0,1,12.5-3.06,30.19,30.19,0,0,1,6.15-.39c2.23.09,4.29.64,6.22-.79a1.55,1.55,0,0,0,.7-1.72c-1.65-4.07-7.15-3.65-10.84-3.31a71.55,71.55,0,0,0-12.29,2.47q-12.12,3.3-24.22,6.71-6,1.7-12,3.44a56.05,56.05,0,0,0-10.7,4.08A24.81,24.81,0,0,0,22-19.91c-3.43-3.43-6.83-6.89-10.14-10.43C6.65-35.92,1.8-41.85-3.44-47.41c-1.57-1.67-4.65.58-3.25,2.51A207.39,207.39,0,0,0,7.08-28.6c3.71,4.12,7.52,8.15,11.38,12.12A33.14,33.14,0,0,0,12.53-5.92,57.13,57.13,0,0,0,9.9,7c-.24,2.25-.42,4.51-.61,6.76-.1,1.21-.17,2.42-.23,3.63L9,19.12c0,.15-.09,1.07,0,.87-1.28,2.77,2.49,5.1,4.15,2.43.9-1.44,1-3.35,1.26-5,.33-2.16.52-4.34.74-6.52A77.65,77.65,0,0,1,16.93-.33a31,31,0,0,1,5.59-12Q34.89.05,48.28,11.4a81.11,81.11,0,0,0-9,10.79A62.2,62.2,0,0,0,33.16,33a42.5,42.5,0,0,0-2.38,6.83,18.84,18.84,0,0,0,0,7.48c.31,2,3.58,1.91,4,0s1.13-3.78,1.61-5.71a34.33,34.33,0,0,1,1.83-5.4,61.79,61.79,0,0,1,5.28-9.43A75.52,75.52,0,0,1,53,15.32Q64.82,25.07,77.36,34a83.59,83.59,0,0,0-9,12.92,62.69,62.69,0,0,0-4.66,10.54A27.42,27.42,0,0,0,62,68.71a1.79,1.79,0,0,0,3.49.47c1-3,1.69-6.05,2.68-9a55,55,0,0,1,3.51-8.25A80.74,80.74,0,0,1,81.88,37.13c1.2.84,2.4,1.69,3.62,2.52Q94.2,45.53,103.18,51l1.53.92A44.27,44.27,0,0,0,99,60.83a32.72,32.72,0,0,0-2.73,7.94,26.35,26.35,0,0,0-.51,4.06,9.64,9.64,0,0,0,1,4.08,1.48,1.48,0,0,0,2.54,0,18.52,18.52,0,0,0,1.51-3c.36-1.05.61-2.15,1-3.2a42.37,42.37,0,0,1,2.52-5.83,44.21,44.21,0,0,1,6.61-9.4,127.73,127.73,0,0,0,11.51,5.8,82.8,82.8,0,0,0,12.52,4.33,19.12,19.12,0,0,0-.24,10.25c.53,1.83,3.39,2,3.85,0,.63-2.73.94-5.52,1.63-8.23.07-.28.17-.56.24-.84q3.18.56,6.44.8a63.28,63.28,0,0,0,12.46-.3c2.13-.26,4.27-.57,6.37-1A11.11,11.11,0,0,0,169,65a6.42,6.42,0,0,0,2.06-2.47A1.63,1.63,0,0,0,170.5,60.33Z" fill="#2fa55e"/><path d="M650.61-37.23c-13.15,3.64-26.36,7.84-37.69,15.44C605.61-16.88,599-10.3,596.18-1.95S595.1,16.66,602,22.17c7.47,6,18.21,4.93,27.59,3A264,264,0,0,0,713.08-6.95,100.66,100.66,0,0,0,675,30.89c-5.07,8.9-8.81,18.94-8.21,29.16S673,80.63,682.49,84.59c13.11,5.5,27.79-2.42,39.13-11,29.42-22.23,55-53.43,58.4-90.14,2.26-24.3-10.26-43.54-35-40.1A738.4,738.4,0,0,0,650.61-37.23Z" fill="#ffcb32"/><path d="M623.43,7.33a6.18,6.18,0,0,0-.28-1.22A4.78,4.78,0,0,0,623,4.37a12.71,12.71,0,0,0-.77-1.87A7.41,7.41,0,0,0,620.76.6a5.65,5.65,0,0,0-5.42-1.44,5.48,5.48,0,0,0-3.89,3.9s0,0,0,0c-.09.17-.18.34-.26.52a7.86,7.86,0,0,0-.57,3.15,7.85,7.85,0,0,0,2.28,5.58,6.42,6.42,0,0,0,4.39,1.82,6,6,0,0,0,4.4-1.82,14.5,14.5,0,0,0,1.08-1.4A5.58,5.58,0,0,0,623.43,7.33Z" fill="#2fa55e"/><path d="M664.38,2.49A6.64,6.64,0,0,0,661.7-1a4.27,4.27,0,0,0-1.77-.65,4.29,4.29,0,0,0-1.69-.41,5.73,5.73,0,0,0-.58-.07,7.5,7.5,0,0,0-1.25-.17A5.23,5.23,0,0,0,651.2.13c-1.54,2.59-.5,5.75,1.47,7.78a7.17,7.17,0,0,0,7.63,1.77C663.05,8.63,665.58,5.68,664.38,2.49Z" fill="#2fa55e"/><path d="M717.93,13.74a2.83,2.83,0,0,0-.16-.36,8.43,8.43,0,0,0-2.72-2.66,6.45,6.45,0,0,0-3.54-1.45,5.41,5.41,0,0,0-.58-.12,3.6,3.6,0,0,0-3.38.22,4.16,4.16,0,0,0-2,3.58c0,.15-.07.31-.09.46a8.11,8.11,0,0,0,.08,4.2,8.3,8.3,0,0,0,2.41,4.2,6.52,6.52,0,0,0,9,0l.13-.12A6.4,6.4,0,0,0,717.93,13.74Z" fill="#2fa55e"/><path d="M738.71-4.95A3.23,3.23,0,0,0,738.26-6c.11.25.19.44.25.6l0-.13A5.12,5.12,0,0,0,736.31-8a4.24,4.24,0,0,0-1.1-.47,8.47,8.47,0,0,0-1-.44l-.3-.16a5.55,5.55,0,0,0-4.5-.43A3.88,3.88,0,0,0,726.74-6c.12-1.72-.09.34-.08.9A5.85,5.85,0,0,0,727-3.23,6.43,6.43,0,0,0,729.91.7c3.52,2,9,.21,9-4.35A4.74,4.74,0,0,0,738.71-4.95Z" fill="#2fa55e"/><path d="M758.18,9.58c-1.91-2.47-5.85-3.74-8.7-2-3.08,1.92-5,6-3.59,9.58,1,2.67,2.84,4.62,5.83,5a7.14,7.14,0,0,0,7-3.35A8,8,0,0,0,758.18,9.58Z" fill="#2fa55e"/><path d="M731.53,38.5a6.6,6.6,0,0,0-6.3-1.67c-2,.56-4.16,2.37-4.53,4.53a20.12,20.12,0,0,0-.46,2.83,9.31,9.31,0,0,0,.14,1.59c0,.46.32,2.42.24,2.14a6.12,6.12,0,0,0,.85,1.84,6.15,6.15,0,0,0,7.5,2.9l-.12.07.18,0a6.83,6.83,0,0,0,4.77-4.77A8.84,8.84,0,0,0,731.53,38.5Z" fill="#2fa55e"/><path d="M696.22,43.87a8.7,8.7,0,0,0-1.23-2.5s-.87-1.32-.6-.72c-.84-1.89-3.51-2.69-5.36-2.18a4.58,4.58,0,0,0-3.16,3.11,11.83,11.83,0,0,0-1.77,6c-.08,3.69,2.95,7.32,6.82,6.8,3.54-.47,5.77-3.64,5.9-7.1A9.69,9.69,0,0,0,696.22,43.87Z" fill="#2fa55e"/><path d="M690.7,70.15a19.83,19.83,0,0,0-.77-1.84,6.27,6.27,0,0,0-3.14-2.67,6.59,6.59,0,0,0-3.16-.48,5.58,5.58,0,0,0-3.8,1.58,5.82,5.82,0,0,0-1.58,3.8l0,.46a5.91,5.91,0,0,0,.52,2.69,6.31,6.31,0,0,0,2,2.65,4.66,4.66,0,0,0,2.12,1.11l.35.14a6.28,6.28,0,0,0,3.22,0,6.06,6.06,0,0,0,4.22-7.44Z" fill="#2fa55e"/><path d="M711.06,61.59a7,7,0,0,0-4-3.09,6.94,6.94,0,0,0-5.2.68,6.82,6.82,0,0,0-3.32,5.24,4.75,4.75,0,0,0-.1,1.2,5,5,0,0,0,.57,2.53,6,6,0,0,0,2.68,3.14,6.92,6.92,0,0,0,3.33.9,7,7,0,0,0,6.06-3.79,6.76,6.76,0,0,0,0-6.81Z" fill="#2fa55e"/><path d="M180.46,453.94c-14-14.76-23.78-34.21-24.2-54.56s8.44-40.13,19.7-57.27a10.31,10.31,0,0,1,3.64-3.83,10.61,10.61,0,0,1,5.32-.67l26.72,1.27c9.91.47,19.89.95,29.53,3.33,23.29,5.75,43,22.57,55.1,43.3s16.93,46.34,8.65,68.71C281.77,516.73,213.84,489.11,180.46,453.94Z" fill="#2fa55e"/><path d="M295.2,414.25A51.56,51.56,0,0,0,284.48,402a46.56,46.56,0,0,0-8.86-5.92c-.07-1.1-.19-2.18-.35-3.24a40.31,40.31,0,0,0-15.13-25.18,39.58,39.58,0,0,0-13.41-6.93,27.93,27.93,0,0,0-9.83-1.15,27.18,27.18,0,0,0-17.23-11.19c-6-1-11.71.66-17.65,1.05a15.38,15.38,0,0,1-7.68-1.08,2.49,2.49,0,0,0-3.33.88c-5.83,9.55-11.82,19.71-12,31.23a30.67,30.67,0,0,0,1.51,9.87,26.58,26.58,0,0,0-4.31,10.31c-3.44,16.77,5.17,35.06,19.83,43.72-2.78,9.44,3.48,19,10.8,24.76a46.11,46.11,0,0,0,36.82,9.58c2.41-.39,1.88-4.57-.58-4.3A45.57,45.57,0,0,1,218,470.07c-7.2-3.58-14.87-9.55-17-17.69a12.36,12.36,0,0,1-.19-5.6,19.53,19.53,0,0,0,10,1.82c4.06-.52,8.44-3,8.23-7.64-.25-5.7-6.5-8.33-11.46-7.55a14.53,14.53,0,0,0-9.36,6.3A37.94,37.94,0,0,1,180.53,409,29.78,29.78,0,0,1,183,395.82c2.48,3.91,6.14,6.83,11.13,7.35a8.65,8.65,0,0,0,9.51-7.2,10.52,10.52,0,0,0-6-11.25,13.77,13.77,0,0,0-13.25,1.75c-.18-.88-.31-1.75-.4-2.6-.89-9.36,3-18.06,7.51-26q1.29-2.24,2.63-4.44c4.29,1.32,8.74.88,13.23.23,4.72-.68,9.35-1.33,14,.12a21.89,21.89,0,0,1,10.24,6.93l0,.06c-.15.06-.3.11-.44.18-4.67,2-7.4,6.43-6.4,11.49.87,4.4,4.86,8.36,9.58,7.22s6.56-6.58,6.07-11a17.6,17.6,0,0,0-.85-3.72c.53,0,1,.07,1.54.14a31,31,0,0,1,11.56,4.11,35.89,35.89,0,0,1,15.45,18.31,33,33,0,0,1,1.69,6.57l-.57-.12c-5.74-1-11.74.81-14.53,6.28-2.53,5-.91,11,4.5,13.06,4.89,1.88,10.45-.37,13.41-4.45a15.38,15.38,0,0,0,2.62-6.29,45.34,45.34,0,0,1,14.21,64.22c-.67,1-1.33,2-1.94,3a17.4,17.4,0,0,1-1.84,2.83c-1.87,2,1.16,5.08,3,3,.89-.95,2-1.75,2.93-2.68a22.72,22.72,0,0,0,2.88-3.67,48.93,48.93,0,0,0,3.93-7.35,54.4,54.4,0,0,0,4.3-16.38A49.86,49.86,0,0,0,295.2,414.25Zm-83.85,24.43c1.28.4,2.52,1.3,2.53,2.69a3.59,3.59,0,0,0-.06.36s-.26.41-.15.28a4.37,4.37,0,0,1-.4.42,5.32,5.32,0,0,1-1,.55s-.67.22-.74.24a10.84,10.84,0,0,1-1.13.25,18.08,18.08,0,0,1-2,.08,14.87,14.87,0,0,1-4.61-1.11c-.3-.1-.58-.24-.87-.36C204.91,439.6,208.19,437.67,211.35,438.68Zm-21.71-49.34c3-1.13,6.9-.92,8.65,2.07,1.29,2.2,1.32,5.56-1.31,6.78-3.08,1.44-6.85-1.14-8.78-3.37a14.78,14.78,0,0,1-2.1-3.26A10.84,10.84,0,0,1,189.64,389.34ZM235.51,371a6.55,6.55,0,0,1-.51,2.09,3.84,3.84,0,0,1-1,1.27,1.94,1.94,0,0,1-.69.33,3.75,3.75,0,0,1-.39.09h-.4l-.47-.14c.07,0-.78-.55-.45-.28a3.65,3.65,0,0,1-1.12-1.43s-.1-.19-.15-.29-.2-.54-.18-.48l-.15-.54c0-.06-.1-.48-.11-.52a6.56,6.56,0,0,1,0-1c0-.14,0-.28,0-.42s.06-.31.08-.37.1-.36.16-.53a.81.81,0,0,0,0-.09l.09-.15a3.51,3.51,0,0,1,.68-.94,8,8,0,0,1,3.62-2.13A12.17,12.17,0,0,1,235.51,371Zm32.65,34.58a6,6,0,0,1-4,2.61,4.75,4.75,0,0,1-3.93-.69,5,5,0,0,1-.8-1,4,4,0,0,1-.18-.59c0-.09,0-.14-.06-.19v-.1c0-.2,0-.4,0-.61s0-.22,0-.33,0,0,0-.13a6.53,6.53,0,0,1,2.4-3.76,7.83,7.83,0,0,1,5.61-1.23,15.29,15.29,0,0,1,2.73.59A11.75,11.75,0,0,1,268.16,405.57Z" fill="#ffcb32"/><path d="M214.42,35.21a15.21,15.21,0,0,0-2.18-3.45,11.49,11.49,0,0,0-2.88-2.3c-1.11-.72-2.16.46-2,1.54a21.41,21.41,0,0,0,.51,3.09,28,28,0,0,0,1.23,3.31,40,40,0,0,1,2,5.74,43.2,43.2,0,0,1,1.68,12.38c-.07,7.92-2.29,16-7.1,22.37a22.16,22.16,0,0,1-8.34,6.88,13.45,13.45,0,0,1-7.66,1.16,32,32,0,0,0,.45-3.92c.23-4.74-.62-10.13-4.31-13.49a7.54,7.54,0,0,0-6.88-2,7.92,7.92,0,0,0-5.39,5.38c-1.5,4.33-.05,9.21,2.68,12.71a19,19,0,0,0,6.41,5.18,25,25,0,0,1-12.75,13.81,25.92,25.92,0,0,1-16,1.77c1-4.5.25-10.14-3.52-13.21a6.83,6.83,0,0,0-7.67-.85,8.39,8.39,0,0,0-4,5.58c-1.06,5.32,2.89,9.61,7.37,11.79-.13.18-.26.36-.4.52a14.47,14.47,0,0,1-8.17,5.12c-6.84,1.45-14-3.28-17.7-9a31.5,31.5,0,0,1-2.75-5,1.6,1.6,0,0,0-3.09.85c1.78,9.2,9.87,17.28,19.27,18.51a19.16,19.16,0,0,0,18.42-9A31,31,0,0,0,186,96.36a32.6,32.6,0,0,0,2.24-4.79A20.33,20.33,0,0,0,201,89.5c8.87-4.51,14.32-14.21,16.47-23.61A48.73,48.73,0,0,0,214.42,35.21ZM147.81,103a7.24,7.24,0,0,1-3.34-3.4,4.26,4.26,0,0,0-.14-.58c0-.25,0-.72,0-.71,0-.18.08-.37.13-.54a2.91,2.91,0,0,0,.1-.28c.12-.22.37-.63.35-.64.13-.12.5-.45.55-.52l.18-.09.25-.07s.25,0,.3,0a1.61,1.61,0,0,1,.68.43A4.63,4.63,0,0,1,148,98.52a10.37,10.37,0,0,1,.34,1.12,5.94,5.94,0,0,1,.19,1,10.68,10.68,0,0,1-.12,2.71ZM180.7,80.85a8.89,8.89,0,0,1-1.76-3.92,6.33,6.33,0,0,1,.45-3.91,2,2,0,0,1,.83-.84,1.24,1.24,0,0,1,1,.09,5.3,5.3,0,0,1,1.15,1,9.35,9.35,0,0,1,1.25,2.19,17.43,17.43,0,0,1,.57,8.5l-.42-.26a8.84,8.84,0,0,1-1.56-1.21A14.74,14.74,0,0,1,180.7,80.85Z" fill="#03231e"/><path d="M686.42,302.84a40.1,40.1,0,0,0-12.58-8.38,26.68,26.68,0,0,0-15.07-2.15,21.73,21.73,0,0,0-10.72,5.5,21.26,21.26,0,0,0-16-.18c-9,3.63-15.42,11.76-19.09,20.57-2.12,5.11-3.23,10.72-2.19,16.21a22.56,22.56,0,0,0-4.95,8.28c-3.07,9.14.53,20,9.11,24.78a18.13,18.13,0,0,0,3.14,1.43,8,8,0,0,0,3.28,0c.76-.1,1.52-1.14.73-1.77s-1.24-1.19-1.9-1.7-1.62-1-2.37-1.48a21.17,21.17,0,0,1-4-3.67,16.44,16.44,0,0,1-3.86-9.27,17.32,17.32,0,0,1,2.4-10c.18-.29.36-.58.56-.88a17.7,17.7,0,0,0,6,6.1c4,2.43,10.67,3.44,14.13-.47a8,8,0,0,0,1.6-7.1,10.05,10.05,0,0,0-4.38-6c-4.13-2.85-9.91-4.14-14.56-2a22,22,0,0,1,.73-6c1.81-7.2,6.16-14.49,12.15-19,4.64-3.5,10.25-5.11,15.54-3.55-2.69,3.71-4.43,8.16-3.65,12.81a10.9,10.9,0,0,0,8.55,8.6c5.08,1,9.36-2.22,10.28-7.28a15.59,15.59,0,0,0-3.45-12.59,19.6,19.6,0,0,0-2.88-2.88,20.09,20.09,0,0,1,1.91-1.3,16,16,0,0,1,10.37-1.91,28.88,28.88,0,0,1,11.05,4.35c3.74,2.32,3.68,9.6,7.54,11.8C692.49,318.63,690.87,307.39,686.42,302.84ZM620.76,335a13.54,13.54,0,0,1,5.34,1.55,6,6,0,0,1,3.26,3.14c.34,1.1.33,2.26-.7,2.86a6.22,6.22,0,0,1-4.45.23A11.73,11.73,0,0,1,617,336.4l-.11-.27A6.68,6.68,0,0,1,620.76,335Zm32-17.21a1.72,1.72,0,0,1-1,.5,3.43,3.43,0,0,1-.44.09h-.2c-.13,0-.77-.06-.77,0a5.87,5.87,0,0,1-3.11-1.59,4.22,4.22,0,0,1-1.08-1.47,3.45,3.45,0,0,1-.22-.59,6.15,6.15,0,0,1-.26-1.41,10,10,0,0,1,1.11-5.11,19.21,19.21,0,0,1,2.24-3.52,13.57,13.57,0,0,1,4.17,4.87C654.3,311.56,655,315.7,652.8,317.75Z" fill="#03231e"/><path d="M660.6,80c-2.91-1.79-6.82-.71-10-.32l-8.1,1a145.05,145.05,0,0,0,.53-15.32A3.13,3.13,0,0,0,640,62.26a107.22,107.22,0,0,0-14.78.46q1-6.24,2.06-12.48c.28-1.71-.73-3.78-2.77-3.65-7.17.46-14.36.7-21.47,1.75a2.25,2.25,0,0,0-1.62,2.48,2.28,2.28,0,0,0,2.22,2c5.79.28,11.6,0,17.39-.28q-1.18,6.42-2.32,12.84c-.3,1.68.78,4.08,2.9,3.81a105.87,105.87,0,0,1,15.31-.82,145.24,145.24,0,0,1-1,15.88,3.11,3.11,0,0,0,3.12,3.12l10-1.18,5.11-.6c.6-.07,1.19-.15,1.79-.19.31,0,.62,0,.93,0H657c0,.32,0,.63-.07,1-.18,1.61-.41,3.21-.62,4.81s-.43,3.28-.64,4.92a37.45,37.45,0,0,0-.63,5.37c-.21,1.54,1.36,2.95,2.75,3.12a3.19,3.19,0,0,0,3.49-2.28,44.36,44.36,0,0,0,.84-6.21l.72-5.82C663.28,86.63,664.3,82.24,660.6,80Z" fill="#03231e"/><path d="M653.09,111.82c-2.92-1.79-6.83-.7-10-.31l-8.1,1a145,145,0,0,0,.53-15.32,3.13,3.13,0,0,0-3.07-3.07,107.12,107.12,0,0,0-14.77.46q1-6.24,2.06-12.48c.27-1.71-.73-3.78-2.78-3.65-7.16.46-14.36.7-21.46,1.75a2.24,2.24,0,0,0-1.62,2.48,2.29,2.29,0,0,0,2.22,2c5.79.27,11.59,0,17.39-.28q-1.18,6.4-2.33,12.84c-.29,1.68.79,4.07,2.9,3.8a106.09,106.09,0,0,1,15.32-.82,145.57,145.57,0,0,1-1,15.89,3.12,3.12,0,0,0,3.12,3.12l10-1.18,5.12-.61c.59-.07,1.19-.15,1.79-.19h1c0,.32,0,.63-.07,1-.18,1.61-.42,3.21-.63,4.81l-.63,4.92a37.64,37.64,0,0,0-.64,5.37c-.2,1.54,1.37,3,2.76,3.12a3.18,3.18,0,0,0,3.49-2.28,44.16,44.16,0,0,0,.84-6.21l.72-5.81C655.76,118.49,656.79,114.11,653.09,111.82Z" fill="#03231e"/><path d="M52.49,272.12a5.69,5.69,0,0,0-4.61-2.32,8.45,8.45,0,0,0-3.82,1,3.62,3.62,0,0,0-1.36,1,10.76,10.76,0,0,0-1,.77,7,7,0,0,0-2,3.21,6.07,6.07,0,0,0,1.42,5.58c3.53,4.25,11.62.89,12.43-4.1A6.07,6.07,0,0,0,52.49,272.12Z" fill="#03231e"/><path d="M80.25,272.14a7.16,7.16,0,0,0-5.43-3.37,7,7,0,0,0-6,2.19,5.79,5.79,0,0,0-1.48,5.57,5.7,5.7,0,0,0,3.27,3.68l-.48-.21a9.94,9.94,0,0,0,2.08.91,16.84,16.84,0,0,0,2.44.26h-.08a4.68,4.68,0,0,0,2.1-.24,6.14,6.14,0,0,0,3.87-3.46A5.91,5.91,0,0,0,80.25,272.14Z" fill="#03231e"/><path d="M68.43,290.67a6.1,6.1,0,0,0-3.22-2.48,4.13,4.13,0,0,0-2.15-.09,4,4,0,0,0-2,.63,5.7,5.7,0,0,0-1.37,1.16,6,6,0,0,0-1.54,3.75c.07.48.13.95.19,1.42a4.07,4.07,0,0,0,1,1.81,2.6,2.6,0,0,0,1,1,4.07,4.07,0,0,0,1.81,1l1.42.19a5.4,5.4,0,0,0,2.69-.73,6.85,6.85,0,0,0,1.41-1.06,5.36,5.36,0,0,0,.84-6.52Z" fill="#03231e"/><path d="M41.49,296.91a9.63,9.63,0,0,0-3.55,0l1.54-.2a8.36,8.36,0,0,0-3.53.84,11.85,11.85,0,0,0-1.74,1.34c-2.75,2.27-1.74,7,1.11,8.61a6.52,6.52,0,0,0,5.88.54,7.37,7.37,0,0,0,3.61-3C46.64,302.26,45,297.54,41.49,296.91Z" fill="#03231e"/><path d="M54.51,309.32a5.09,5.09,0,0,0-3.24-1.15l-1.41.19a5.21,5.21,0,0,0-1.85.93,4.72,4.72,0,0,0-1.29,1l-.85,1.1a4.13,4.13,0,0,0-.65,2,5.23,5.23,0,0,0,.65,3.46,6.51,6.51,0,0,0,2,2,5.48,5.48,0,0,0,4.19.54,5.94,5.94,0,0,0,2.72-1.63,11.51,11.51,0,0,0,1.15-1.55A5.35,5.35,0,0,0,54.51,309.32Z" fill="#03231e"/><path d="M484.21,13.81a5.63,5.63,0,0,0-3.39-3.8,5.54,5.54,0,0,0-4.51,0,5.77,5.77,0,0,0-3,2.83,5.76,5.76,0,0,0,.65,7.4,5.85,5.85,0,0,0,4.1,1.7l1.54-.21a5.76,5.76,0,0,0,2.56-1.49,5.28,5.28,0,0,0,.78-.92,4.32,4.32,0,0,0,.68-1,5.79,5.79,0,0,0,.8-3Z" fill="#03231e"/><path d="M480.1,29.88l-.91-.69a4,4,0,0,0-2.06-.66,5.06,5.06,0,0,0-3.55.66l-.08,0c-.37.27-.24-.07-1.06.82A5.51,5.51,0,0,0,471,32.51a5.57,5.57,0,0,0,3.89,6.85,6.33,6.33,0,0,0,2.17.24l1.42-.19a4,4,0,0,0,1.82-.95,5.14,5.14,0,0,0,1.91-2.77A5.53,5.53,0,0,0,480.1,29.88Z" fill="#03231e"/><path d="M501.68,24.13a6.52,6.52,0,0,0-2.18-2.22,5.73,5.73,0,0,0-2.89-.78,5.57,5.57,0,0,0-2.84.76A7.16,7.16,0,0,0,491.7,24a10.06,10.06,0,0,0-.67,1.61,7.55,7.55,0,0,0,.09,3.57l.58,1.36c.29.39.59.77.89,1.15a5.51,5.51,0,0,0,3.27,1.57,5.43,5.43,0,0,0,2.95-.39,5.69,5.69,0,0,0,2.73-2.33A6.22,6.22,0,0,0,501.68,24.13Z" fill="#03231e"/><path d="M496,45.21a2.34,2.34,0,0,0-.12-.74,4.72,4.72,0,0,0-2.08-2.7,4.52,4.52,0,0,0-6.19,1.62l-.45,1.08a4.48,4.48,0,0,0,0,2.41,1.45,1.45,0,0,0,.25.68,1.93,1.93,0,0,0,.3.65l.7.91a3.48,3.48,0,0,0,1.44.93,2.26,2.26,0,0,0,1.14.3,3.27,3.27,0,0,0,1.78-.08,5.4,5.4,0,0,0,2-1.15,3.36,3.36,0,0,0,.93-1.45A3.4,3.4,0,0,0,496,46,1.44,1.44,0,0,0,496,45.21Z" fill="#03231e"/><path d="M385.62,330.2c-1.57-1.05-3.74-1.07-5.56-1.29-1.53-.2-3.07-.35-4.61-.47a94.08,94.08,0,0,0-9.5-.23,3.71,3.71,0,0,0-3.49,2.65,59.06,59.06,0,0,0-2.27,12.79q-9.06-.87-18.13-1.71a3.59,3.59,0,0,0-3.45,2.63c-.7,3.24-1.23,6.51-1.64,9.8-.2,1.65-.45,3.4-.59,5.14-1.74-.41-3.49-.78-5.29-1a50.72,50.72,0,0,0-9.38-.35,3.3,3.3,0,0,0-3.26,3.25c0,5.78-.11,11.57.12,17.34a3,3,0,0,0,6.09,0c.23-4.7.24-9.41.27-14.12a39.11,39.11,0,0,1,14,2.43,3.36,3.36,0,0,0,4.12-2.35c.6-3.14.55-6.42.94-9.6.24-1.92.57-3.82.95-5.71l18.76,1.81c1.95.19,3.61-1.8,3.61-3.6a51.43,51.43,0,0,1,1.47-12.16q3.24,0,6.47.25c1.46.11,2.92.25,4.37.43,1.74.21,3.5.7,5.24.24C387.75,335.58,388,331.75,385.62,330.2Z" fill="#03231e"/><path d="M407.38,144.62a50,50,0,0,0-1.87-6.53c5.29-3.11,8.81-9.33,8.81-16.49,0-10.26-7.46-18.66-16.69-18.66-6.32,0-11.82,3.94-14.62,9.75a42.46,42.46,0,0,0-17.93-3.63,44.36,44.36,0,0,0-17.94,3.52c-2.9-5.7-8.29-9.74-14.62-9.74-9.22,0-16.69,8.39-16.69,18.66A19.28,19.28,0,0,0,324.65,138a52.2,52.2,0,0,0-1.87,6.53,36.64,36.64,0,0,1-1.24,4.77c-1.66,6-4.77,21.15,4.14,32.87,7.26,9.54,20.43,14.41,39.29,14.41s32.14-4.87,39.3-14.41c8.81-11.72,5.8-27,4.14-32.87-.31-1.55-.72-3.11-1-4.66Zm-8.92,33.17c-5.81,7.57-17,11.51-33.38,11.51s-27.58-3.94-33.39-11.51c-6.84-9-4.35-21.46-2.9-26.33.52-1.76.93-3.52,1.35-5.29,1.87-8.91,9-29.65,34.94-29.65s33.07,20.63,34.94,29.55c.41,1.76.82,3.52,1.34,5.29,1.35,5,3.94,17.41-2.9,26.43Z" fill="#03231e"/><path d="M362.17,148.25a8.45,8.45,0,0,0-1.24-6.64c-1.45-2.18-4-3.21-7.26-2.8a18.57,18.57,0,0,0-7.56,3.11c-2.7,1.76-7.37,5.6-7.88,10.89-.31,3.32,1.14,6.43,4.14,9.33A5.3,5.3,0,0,0,346,163.8h.31c2.18-.21,3.53-2,4.88-3.84a14.93,14.93,0,0,1,4-4c3.83-2,6.22-4.67,6.94-7.67Z" fill="#03231e"/><path d="M384.05,141.92a18.61,18.61,0,0,0-7.57-3.11c-3.21-.41-5.8.52-7.26,2.8a8.11,8.11,0,0,0-1.24,6.64c.73,3,3.11,5.7,6.95,7.77a14.93,14.93,0,0,1,4,4c1.45,1.87,2.8,3.63,4.87,3.84h.31a5.26,5.26,0,0,0,3.63-1.66c3-2.9,4.46-6,4.15-9.33-.52-5.29-5.19-9.12-7.88-11Z" fill="#03231e"/><path d="M367.67,161.62h-5.29a4.29,4.29,0,0,0-3.42,6.84l2.59,3.42a4.18,4.18,0,0,0,6.74,0l2.59-3.42A4.14,4.14,0,0,0,367.67,161.62Z" fill="#03231e"/><circle cx="425.71" cy="178.45" r="6.02" fill="#03231e"/><path d="M206.9,277.05h-13l18.81-54.87,16.22.22,17.7,54.65H233.78l-3-9.62-20.37-.15Zm5.63-20.36h16.22L221.19,234Z" fill="#03231e"/><path d="M262.89,222.18l-.15,55.09H251V222.18Z" fill="#03231e"/><path d="M310.46,267.65a20.47,20.47,0,0,1-7,7.63,17.8,17.8,0,0,1-9.81,2.88,34.09,34.09,0,0,1-5.67-.48,22.05,22.05,0,0,1-5.26-1.55,6.3,6.3,0,0,1-3.14-2.48V292.9H267.48l.07-34a32.32,32.32,0,0,1,.89-5.41q4.21-16.5,24.07-16.66a18.42,18.42,0,0,1,10.22,3,23,23,0,0,1,7.7,7.89,18.66,18.66,0,0,1,2.74,9.77A22.32,22.32,0,0,1,310.46,267.65Zm-8.77-10.55a9.25,9.25,0,0,0-3-7,10.53,10.53,0,0,0-7.48-2.78,11.13,11.13,0,0,0-5.41,1.3,9.46,9.46,0,0,0-5,8.55,9.23,9.23,0,0,0,2.92,7,10.43,10.43,0,0,0,7.48,2.78,10.57,10.57,0,0,0,7.52-2.78A9.24,9.24,0,0,0,301.69,257.1Z" fill="#03231e"/><path d="M329,222.4v20.07q3.35-4.66,12.22-4.67a14.66,14.66,0,0,1,11.07,4.45,15.51,15.51,0,0,1,4.26,11.18V277.5l-11.85-.15V255.58a7.9,7.9,0,0,0-2-5.63,7.25,7.25,0,0,0-5.4-2.22,7.76,7.76,0,0,0-5.63,2.33,7.61,7.61,0,0,0-1.63,2.63,9.19,9.19,0,0,0-.59,3.33l-.08,21.48-12-.15v-55Z" fill="#03231e"/><path d="M405.06,276.9H393.44V273q-1.11,1.92-5,3.41a22.6,22.6,0,0,1-8,1.48,18.25,18.25,0,0,1-13.7-5.67q-5.49-5.65-5.48-14.7a20.93,20.93,0,0,1,3-11,21.24,21.24,0,0,1,7.74-7.7A20,20,0,0,1,382,236.1a42,42,0,0,1,4.26.19,36.92,36.92,0,0,1,4.3.7,19.28,19.28,0,0,1,4.29,1.44,17.82,17.82,0,0,1,3.82,2.63,16,16,0,0,1,3.22,4,23.55,23.55,0,0,1,2.18,5.63,32.23,32.23,0,0,1,1,7.59ZM390.7,264.61a9.2,9.2,0,0,0,2.07-3.22,11,11,0,0,0,.74-4,10.68,10.68,0,0,0-.74-4,9.26,9.26,0,0,0-2.07-3.19,9.81,9.81,0,0,0-3.19-2.11,10.36,10.36,0,0,0-4.07-.78,9.75,9.75,0,0,0-10.07,10.07,10.46,10.46,0,0,0,.78,4,10.13,10.13,0,0,0,2.07,3.22,8.81,8.81,0,0,0,3.19,2.07,10.87,10.87,0,0,0,4.07.75,10.63,10.63,0,0,0,4-.75A9.26,9.26,0,0,0,390.7,264.61Z" fill="#03231e"/><path d="M427.13,247.36l-18.59.15v-10l34.73-.15-.14,10.22-18.52,20.07h19.92l-.07,9.77-35.77.08v-9.33Z" fill="#03231e"/><path d="M479.15,239.62a18.37,18.37,0,0,1,7.45,7.22,22.71,22.71,0,0,1,0,21.33,18.45,18.45,0,0,1-7.48,7.22,23.08,23.08,0,0,1-11,2.55,21.55,21.55,0,0,1-13.85-4.52q-7.19-5.78-7.18-15.92a20.16,20.16,0,0,1,4.59-13.4q5.92-7,16.44-7A23,23,0,0,1,479.15,239.62Zm-5.4,26a8.73,8.73,0,0,0,3.37-3.45,10.11,10.11,0,0,0,1.18-4.92,9.52,9.52,0,0,0-2.66-6.89,9.13,9.13,0,0,0-6.82-2.74,9.47,9.47,0,0,0-7,2.74,9.35,9.35,0,0,0-2.74,6.89,10.34,10.34,0,0,0,.71,3.85,8.35,8.35,0,0,0,2,3,9.71,9.71,0,0,0,3.07,2,10.14,10.14,0,0,0,3.92.74A9.7,9.7,0,0,0,473.75,265.65Z" fill="#03231e"/><path d="M527,239.62a18.34,18.34,0,0,1,7.44,7.22,22.64,22.64,0,0,1,0,21.33,18.32,18.32,0,0,1-7.48,7.22,23,23,0,0,1-11,2.55,21.54,21.54,0,0,1-13.84-4.52Q495,267.65,495,257.5a20.16,20.16,0,0,1,4.59-13.4q5.93-7,16.44-7A23,23,0,0,1,527,239.62Zm-5.41,26A8.67,8.67,0,0,0,525,262.2a10.12,10.12,0,0,0,1.19-4.92,9.49,9.49,0,0,0-2.67-6.89,9.11,9.11,0,0,0-6.81-2.74,9.47,9.47,0,0,0-7,2.74,9.35,9.35,0,0,0-2.74,6.89,10.33,10.33,0,0,0,.7,3.85,8.61,8.61,0,0,0,2,3,9.87,9.87,0,0,0,3.08,2,10.14,10.14,0,0,0,3.92.74A9.63,9.63,0,0,0,521.58,265.65Z" fill="#03231e"/><path d="M541.62,270.54a6.46,6.46,0,0,1,2-4.89,7.17,7.17,0,0,1,5.18-1.93,8.2,8.2,0,0,1,3.74.85,6.25,6.25,0,0,1,2.59,2.45,6.84,6.84,0,0,1,.93,3.52,6.73,6.73,0,0,1-2,5.07,7.21,7.21,0,0,1-5.22,2,7.07,7.07,0,0,1-5.18-2A6.77,6.77,0,0,1,541.62,270.54Z" fill="#03231e"/></g></svg>