<svg xmlns="http://www.w3.org/2000/svg" viewBox="0 0 162.79 154.91"><title>Asset 2</title><path d="M151.31,69.06a79.78,79.78,0,0,0-3.08-10.8C157,53.12,162.79,42.84,162.79,31c0-17-12.33-30.85-27.59-30.85C124.75.17,115.67,6.68,111,16.28c-8.22-3.77-18-6-29.64-6a73,73,0,0,0-29.65,5.83C47,6.68,38,0,27.59,0,12.34,0,0,13.88,0,30.84,0,42.67,6,52.78,14.57,58.09a87.76,87.76,0,0,0-3.09,10.8,59.5,59.5,0,0,1-2.05,7.88c-2.75,9.94-7.89,35,6.85,54.32,12,15.77,33.76,23.82,65,23.82s53.12-8,64.94-23.82c14.57-19.36,9.6-44.55,6.85-54.32-.51-2.57-1.19-5.14-1.71-7.71Zm-14.74,54.83c-9.59,12.51-28.1,19-55.17,19s-45.59-6.51-55.18-19C14.91,109,19,88.42,21.42,80.37c.86-2.92,1.54-5.83,2.23-8.74,3.08-14.74,14.91-49,57.75-49s54.66,34.1,57.74,48.84c.69,2.91,1.38,5.82,2.23,8.74,2.23,8.22,6.51,28.79-4.8,43.69Z"/><path d="M76.6,75.06a14,14,0,0,0-2.06-11c-2.4-3.6-6.68-5.31-12-4.63A30.94,30.94,0,0,0,50,64.6c-4.46,2.92-12.17,9.26-13,18C36.5,88.08,38.9,93.22,43.87,98c2.05,1.88,3.94,2.74,6,2.74h.51c3.6-.34,5.83-3.26,8-6.34,1.89-2.4,4-5.14,6.69-6.68C71.46,84.48,75.4,80,76.6,75.06Z"/><path d="M112.75,64.6a30.9,30.9,0,0,0-12.5-5.14c-5.32-.68-9.6.86-12,4.63a13.32,13.32,0,0,0-2,11c1.2,5,5.14,9.42,11.48,12.85,2.74,1.54,4.79,4.28,6.68,6.68,2.4,3.08,4.63,6,8,6.34h.52c2,0,3.94-.86,6-2.74,5-4.8,7.36-9.94,6.85-15.42-.86-8.74-8.57-15.08-13-18.17Z"/><path d="M85.68,97.16H76.94a7.09,7.09,0,0,0-5.65,11.31l4.28,5.66a6.9,6.9,0,0,0,11.14,0L91,108.47A6.84,6.84,0,0,0,85.68,97.16Z"/></svg>