<svg xmlns="http://www.w3.org/2000/svg" viewBox="0 0 598.53 116.89"><path d="M21.42 90.7H0L31.09 0 57.9.37 87.15 90.7h-21.3l-5-15.91-33.66-.25Zm9.3-33.7h26.81L45 19.46ZM114 0l-.24 91.07H94.37V0Zm78.6 75.15A33.9 33.9 0 0 1 181 87.76a29.39 29.39 0 0 1-16.22 4.78 56.16 56.16 0 0 1-9.36-.8 35.9 35.9 0 0 1-8.69-2.57c-2.66-1.18-4.39-2.55-5.21-4.1v31.82h-20l.12-56.18a53.18 53.18 0 0 1 1.47-8.93q7-27.3 39.78-27.54a30.47 30.47 0 0 1 16.89 5 37.7 37.7 0 0 1 12.73 13 30.76 30.76 0 0 1 4.53 16.16 37 37 0 0 1-4.44 16.75Zm-14.51-17.44a15.24 15.24 0 0 0-4.9-11.63 17.35 17.35 0 0 0-12.36-4.59 18.29 18.29 0 0 0-8.93 2.15 15.65 15.65 0 0 0-8.33 14.13 15.26 15.26 0 0 0 4.84 11.57 17.21 17.21 0 0 0 12.36 4.59 17.43 17.43 0 0 0 12.42-4.59 15.23 15.23 0 0 0 4.9-11.63ZM223.26.37v33.17q5.51-7.71 20.19-7.71 11.27 0 18.3 7.34t7 18.48v39.78l-19.58-.24v-36a13.13 13.13 0 0 0-3.31-9.3 12 12 0 0 0-8.86-3.66 13 13 0 0 0-5.2 1 12.63 12.63 0 0 0-4.1 2.81 12.75 12.75 0 0 0-2.7 4.39 15.39 15.39 0 0 0-1 5.51l-.12 35.49-19.88-.24V.37ZM349 90.45h-19.26V84q-1.83 3.18-8.32 5.63A37.22 37.22 0 0 1 308.2 92q-13.59 0-22.64-9.36t-9.06-24.25a34.73 34.73 0 0 1 4.89-18.12 35.1 35.1 0 0 1 12.8-12.73 33 33 0 0 1 16.7-4.54c2.61 0 5 .11 7 .31a62.92 62.92 0 0 1 7.1 1.16 30.82 30.82 0 0 1 7.1 2.39 28.86 28.86 0 0 1 6.3 4.34 26 26 0 0 1 5.33 6.55 38.9 38.9 0 0 1 3.61 9.3A52.9 52.9 0 0 1 349 59.61Zm-23.79-20.31a15.43 15.43 0 0 0 3.43-5.33 18 18 0 0 0 1.23-6.67 17.55 17.55 0 0 0-1.23-6.61 15.52 15.52 0 0 0-3.43-5.26 16.17 16.17 0 0 0-5.21-3.49 17.14 17.14 0 0 0-6.73-1.29 16.14 16.14 0 0 0-16.65 16.65 17.27 17.27 0 0 0 1.29 6.67 16.52 16.52 0 0 0 3.43 5.33 14.67 14.67 0 0 0 5.26 3.42 18.17 18.17 0 0 0 6.73 1.23 17.71 17.71 0 0 0 6.67-1.23 15.4 15.4 0 0 0 5.21-3.42Zm60.22-28.52-30.72.24V25.34l57.41-.25-.25 16.91-30.6 33.17h32.93l-.12 16.16-59.08.1V76Zm85.99-12.79a30.38 30.38 0 0 1 12.3 11.93 34.88 34.88 0 0 1 4.41 17.63A34.84 34.84 0 0 1 483.72 76a30.38 30.38 0 0 1-12.36 12 38.12 38.12 0 0 1-18.12 4.22q-13.46 0-22.88-7.47-11.88-9.54-11.88-26.31 0-13.11 7.59-22.16 9.8-11.62 27.17-11.63a37.89 37.89 0 0 1 18.18 4.18Zm-8.93 43a14.35 14.35 0 0 0 5.56-5.69A16.75 16.75 0 0 0 470 58a15.71 15.71 0 0 0-4.4-11.39 15.06 15.06 0 0 0-11.26-4.52 15.61 15.61 0 0 0-11.51 4.52A15.45 15.45 0 0 0 438.31 58a17.24 17.24 0 0 0 1.16 6.36 14.23 14.23 0 0 0 3.31 5 16.12 16.12 0 0 0 5.08 3.31 16.82 16.82 0 0 0 6.49 1.22 16 16 0 0 0 8.14-2.04Zm88-43a30.38 30.38 0 0 1 12.3 11.93 34.88 34.88 0 0 1 4.41 17.63A34.84 34.84 0 0 1 562.79 76a30.38 30.38 0 0 1-12.36 12 38.12 38.12 0 0 1-18.12 4.22q-13.45 0-22.88-7.47-11.88-9.54-11.88-26.31 0-13.11 7.59-22.16 9.8-11.62 27.17-11.63a37.89 37.89 0 0 1 18.18 4.18Zm-8.93 43a14.44 14.44 0 0 0 5.57-5.69 16.86 16.86 0 0 0 2-8.14 15.71 15.71 0 0 0-4.4-11.39 15.06 15.06 0 0 0-11.26-4.52 15.61 15.61 0 0 0-11.51 4.52A15.45 15.45 0 0 0 517.38 58a17.24 17.24 0 0 0 1.16 6.36 14.23 14.23 0 0 0 3.31 5 16.12 16.12 0 0 0 5.08 3.31 16.82 16.82 0 0 0 6.49 1.22 16 16 0 0 0 8.14-2.04Zm33.11 8.1a10.75 10.75 0 0 1 3.3-8.08 11.84 11.84 0 0 1 8.57-3.18 13.51 13.51 0 0 1 6.18 1.4 10.3 10.3 0 0 1 4.28 4 11.4 11.4 0 0 1 1.53 5.82 11.13 11.13 0 0 1-3.36 8.38 11.92 11.92 0 0 1-8.63 3.25 11.68 11.68 0 0 1-8.54-3.21 11.24 11.24 0 0 1-3.33-8.38Z"/></svg>