<?xml version="1.0" standalone="no"?>
<!DOCTYPE svg PUBLIC "-//W3C//DTD SVG 20010904//EN"
 "http://www.w3.org/TR/2001/REC-SVG-20010904/DTD/svg10.dtd">
<svg version="1.0" xmlns="http://www.w3.org/2000/svg"
 width="652.000000pt" height="652.000000pt" viewBox="0 0 652.000000 652.000000"
 preserveAspectRatio="xMidYMid meet">
<metadata>
Created by potrace 1.14, written by Peter Selinger 2001-2017
</metadata>
<g transform="translate(0.000000,652.000000) scale(0.100000,-0.100000)"
fill="#000000" stroke="none">
<path d="M998 6355 c-2 -2 -24 -6 -49 -9 -25 -3 -59 -10 -75 -16 -16 -6 -29
-10 -29 -9 0 8 -123 -40 -190 -75 -217 -111 -403 -306 -509 -531 -73 -156 -98
-239 -124 -405 -8 -55 -7 -317 2 -382 26 -189 118 -421 225 -568 49 -66 66
-85 141 -160 87 -86 111 -107 163 -139 20 -12 37 -26 37 -29 0 -4 -12 -41 -26
-82 -14 -41 -27 -82 -29 -90 -13 -45 -74 -292 -79 -316 -7 -40 -13 -65 -35
-144 -7 -25 -15 -52 -17 -60 -2 -8 -13 -46 -24 -85 -22 -77 -58 -230 -66 -285
-2 -19 -7 -44 -9 -56 -2 -11 -7 -45 -11 -75 -3 -30 -8 -57 -10 -60 -16 -27
-24 -493 -11 -634 18 -194 77 -445 138 -582 11 -24 19 -46 19 -50 0 -21 137
-276 151 -281 5 -2 9 -9 9 -16 0 -7 8 -21 18 -32 9 -10 37 -46 61 -79 78 -105
198 -228 316 -322 93 -75 105 -84 131 -100 203 -130 354 -207 534 -273 63 -23
122 -44 130 -48 21 -8 140 -42 169 -48 14 -3 28 -7 32 -10 4 -2 27 -8 51 -13
24 -5 77 -17 118 -26 76 -17 84 -19 155 -30 22 -3 50 -8 62 -10 12 -3 46 -8
75 -11 29 -3 64 -8 78 -10 14 -3 44 -7 67 -9 23 -2 66 -6 95 -9 29 -3 89 -9
133 -13 101 -9 762 -9 875 0 162 13 205 17 240 22 19 2 62 7 95 11 33 3 69 8
80 10 11 3 36 7 55 9 19 3 46 8 60 11 14 3 38 8 53 10 24 3 166 33 242 50 11
3 29 7 41 9 32 7 275 85 309 100 17 7 50 20 75 30 25 10 70 30 100 44 30 14
57 25 60 26 16 2 208 112 280 160 406 274 670 645 799 1125 22 82 24 92 46
224 8 49 12 93 9 97 -3 5 -2 9 3 9 10 0 11 29 14 260 1 96 -1 211 -5 255 -4
44 -9 100 -11 123 -2 24 -7 60 -10 80 -4 21 -8 51 -10 67 -2 17 -7 46 -10 65
-4 19 -9 44 -11 55 -6 35 -13 67 -39 165 -14 52 -27 106 -29 120 -5 30 -11 60
-33 149 -8 36 -17 75 -18 86 -2 11 -8 40 -15 65 -6 25 -16 61 -21 80 -7 28
-25 95 -34 130 -10 38 -31 106 -46 148 -11 30 -17 58 -14 63 4 5 21 16 38 25
18 9 34 20 37 23 3 3 25 22 50 43 86 69 123 110 229 249 11 14 29 45 42 70 12
24 31 56 41 71 11 16 17 28 13 28 -3 0 4 19 16 43 22 42 75 215 85 272 2 17 8
55 13 85 10 58 8 370 -1 386 -3 5 -9 26 -12 46 -9 59 -45 181 -72 250 -89 220
-231 405 -412 535 -265 190 -575 244 -887 152 -64 -19 -243 -101 -255 -117 -3
-4 -25 -20 -49 -36 -65 -42 -261 -241 -261 -265 0 -5 -4 -11 -8 -13 -9 -3 -72
-104 -72 -116 -1 -4 -9 -17 -20 -30 l-19 -23 -38 19 c-121 61 -404 144 -598
176 -16 2 -30 5 -30 6 0 1 -11 3 -25 4 -14 2 -48 6 -76 9 -143 18 -199 21
-429 20 -230 -1 -276 -3 -390 -18 -22 -3 -56 -7 -75 -10 -19 -3 -46 -7 -60
-10 -14 -2 -50 -9 -80 -15 -99 -19 -292 -71 -360 -97 -8 -3 -19 -7 -25 -8 -5
-2 -45 -17 -87 -34 -71 -28 -116 -32 -102 -10 3 5 0 9 -5 9 -6 0 -11 5 -11 11
0 29 -123 193 -210 279 -134 135 -321 251 -440 274 -3 1 -10 5 -16 9 -7 3 -29
9 -50 12 -22 4 -52 10 -69 14 -29 7 -260 12 -267 6z m2487 -909 c44 -3 95 -8
113 -10 48 -7 106 -15 155 -22 23 -3 87 -16 142 -30 549 -136 958 -423 1276
-896 33 -48 59 -89 59 -91 0 -2 22 -42 48 -88 65 -113 142 -289 196 -448 25
-72 43 -131 41 -131 -2 0 3 -16 11 -35 8 -19 12 -35 9 -35 -3 0 -1 -8 4 -17 5
-10 11 -31 14 -48 3 -16 20 -88 37 -160 17 -71 33 -137 35 -146 2 -9 12 -47
23 -85 20 -68 50 -188 58 -228 2 -12 7 -34 10 -51 4 -16 8 -39 10 -50 1 -11 7
-49 13 -85 21 -133 25 -190 25 -390 0 -217 -4 -259 -34 -410 -68 -334 -219
-593 -475 -814 -16 -14 -37 -32 -45 -39 -57 -51 -400 -249 -400 -231 0 4 -6 2
-13 -4 -19 -16 -165 -69 -296 -108 -136 -40 -401 -96 -521 -109 -14 -2 -52 -6
-85 -10 -33 -3 -76 -8 -95 -10 -223 -26 -870 -26 -1065 0 -22 3 -65 7 -95 11
-30 3 -66 7 -80 9 -14 1 -47 6 -75 9 -27 4 -57 8 -65 11 -8 2 -32 6 -53 9 -21
4 -79 15 -130 27 -51 11 -102 22 -113 24 -12 2 -32 9 -45 16 -13 7 -26 11 -29
10 -8 -4 -94 21 -104 30 -6 5 -18 9 -27 9 -25 0 -211 77 -318 132 -292 150
-519 363 -651 610 -40 75 -99 207 -105 237 -2 9 -13 47 -24 85 -11 38 -23 88
-26 110 -3 23 -8 48 -10 56 -6 25 -15 86 -20 152 -3 34 -7 64 -9 66 -2 2 0 17
4 33 5 16 5 29 2 29 -13 0 0 279 18 395 5 33 11 76 14 95 2 19 13 74 25 122
11 48 23 98 26 110 2 13 14 55 25 93 11 39 22 79 25 90 2 11 8 34 14 52 5 17
7 34 3 37 -3 3 -1 6 4 6 5 0 10 8 10 18 1 22 14 83 19 92 2 4 7 20 10 36 3 16
12 56 20 89 9 33 17 69 19 80 2 11 4 20 5 20 2 0 4 7 6 15 20 104 137 403 218
560 196 379 457 668 802 888 37 23 73 42 80 42 7 0 15 3 17 8 5 12 146 77 243
112 112 41 118 43 128 45 4 2 8 3 10 5 1 1 9 3 17 5 8 2 35 8 60 14 25 7 53
13 63 16 10 2 26 6 35 9 9 3 33 8 52 11 19 3 60 10 91 15 56 10 88 14 229 26
41 3 76 7 77 8 4 3 285 -3 358 -8z"/>
<path d="M2429 3964 c-52 -13 -102 -28 -111 -34 -10 -5 -23 -10 -29 -10 -28 0
-175 -79 -290 -155 -265 -178 -455 -418 -494 -626 -3 -13 -7 -37 -11 -52 -7
-31 -7 -139 0 -177 14 -84 56 -203 83 -232 9 -10 13 -18 9 -18 -3 0 17 -32 45
-70 165 -227 339 -309 494 -232 62 31 205 178 205 211 0 6 4 11 8 11 4 0 26
24 47 53 60 79 177 189 231 217 208 108 372 274 435 439 35 93 44 220 22 311
-8 30 -15 62 -18 72 -16 70 -144 237 -182 238 -6 0 -13 5 -15 10 -2 6 -37 22
-77 36 -105 37 -226 39 -352 8z"/>
<path d="M3791 3969 c-109 -28 -165 -63 -229 -145 -174 -223 -153 -524 52
-751 58 -64 176 -163 194 -163 6 0 12 -4 14 -8 2 -5 32 -26 68 -46 106 -62
162 -115 270 -252 177 -227 241 -276 362 -283 86 -5 183 46 277 142 208 214
284 449 222 687 -7 25 -15 52 -18 60 -4 8 -7 17 -8 20 -65 184 -274 415 -521
573 -121 78 -297 149 -424 172 -77 14 -190 11 -259 -6z"/>
<path d="M2985 2450 c-105 -41 -176 -145 -177 -258 0 -91 19 -129 147 -297
127 -167 170 -201 266 -211 126 -13 193 25 304 171 41 55 81 107 88 115 43 54
68 93 81 126 27 73 27 95 2 203 -9 39 -79 114 -132 141 -47 24 -54 25 -289 27
-218 2 -245 1 -290 -17z"/>
</g>
</svg>
