<?xml version="1.0" encoding="UTF-8"?><svg id="a" xmlns="http://www.w3.org/2000/svg" viewBox="0 0 100 100"><g><path d="M23.58,59.01c-3.13-1.64-6.75-2.32-10.26-1.93-.59,.06-1.22,.19-1.61,.64-.6,.71-.25,1.79,.2,2.6,1.88,3.37,5.19,5.91,8.94,6.86-3.73,2.04-9.7-2.71-12.04,.84-1.1,1.68-.07,4.08,1.64,5.14,1.7,1.06,3.81,1.15,5.82,1.2" fill="#126634"/><g><path d="M14.68,83.67c-1.64,.08-3.35,.21-4.67,.65s-2.11,1.29-1.37,1.95c.74,.66,3.27,.78,3.97,.11" fill="#126634"/><path d="M14.68,86.14c-1.64,.08-3.35,.21-4.67,.65s-2.11,1.29-1.37,1.95c.74,.66,3.27,.78,3.97,.11" fill="#126634"/></g></g><path d="M83.12,82.71c.38,3.08,6.45-2.01,7.23-5.02,.77-3.01-3.67-6.21-5.47-3.69,3.34-.21,6.02-3.84,5.23-7.09-.79-3.25-4.84-5.25-7.9-3.9,2.94-.36,5.14-3.57,4.56-6.48-.58-2.91-3.69-5.01-6.63-4.63,2.9-1.17,4.56-4.75,3.58-7.72-.98-2.97-4.46-4.85-7.48-4.06,3.2-2.36,5.94-6.11,5.26-10.03-.68-3.92-6.41-6.43-8.87-3.29,3.28-2.7,3.75-8.18,.99-11.41-2.77-3.23-8.25-3.6-11.43-.77,3.82-1.83,4.28-8.15,.69-10.4-3.59-2.25-7.79,3.04-7.32,7.25-1.56-3.66-6.18-9.99-9.85-8.44-4.31,1.83-2.02,8.48-3.74,12.83-1.88-3.79-6.51-8.77-10.13-6.59-3.81,2.3-1.3,9.12,1.51,12.57-1.9-.25-3.55-1.41-5.36-2.02-1.81-.62-4.21-.47-5.15,1.2-.42,.75-.46,1.66-.42,2.52,.21,4.42,2.13,8.73,5.27,11.85,0,0,45.75-32.27,55.43,47.31Z" fill="#126634"/><path d="M34.98,15.73c1.54-.91,3.88-1.77,7.02-2.59,3.13-.82,6.29-1.23,9.47-1.23,4.54,0,8.56,.66,12.05,1.97,3.49,1.32,5.74,3.38,6.74,6.2,1.63,4.72,3.4,10.22,5.31,16.48s3.81,12.74,5.72,19.41c1.91,6.67,3.77,13.26,5.58,19.75,1.82,6.49,3.41,12.24,4.77,17.23-1.09,1.27-2.72,2.3-4.9,3.07-2.18,.77-4.77,1.16-7.76,1.16-2.18,0-4.02-.18-5.52-.55-1.5-.36-2.72-.91-3.68-1.63-.95-.73-1.73-1.68-2.32-2.86-.59-1.18-1.11-2.54-1.57-4.09l-2.45-9.4h-24.65c-.73,2.72-1.45,5.54-2.18,8.45-.73,2.91-1.45,5.72-2.18,8.44-1.27,.45-2.61,.84-4.02,1.16-1.41,.32-3.11,.48-5.11,.48-4.63,0-8.06-.8-10.28-2.38-2.23-1.59-3.34-3.79-3.34-6.61,0-1.27,.18-2.54,.54-3.81,.36-1.27,.77-2.77,1.23-4.49,.63-2.45,1.52-5.49,2.66-9.13,1.13-3.63,2.38-7.56,3.75-11.78,1.36-4.22,2.81-8.56,4.36-13.01,1.54-4.45,3-8.65,4.36-12.6,1.36-3.95,2.61-7.47,3.75-10.56,1.13-3.09,2.02-5.45,2.66-7.08Zm16.35,17.57c-1.27,3.81-2.7,8.06-4.29,12.74-1.59,4.68-3.02,9.42-4.29,14.23h16.89c-1.27-4.9-2.57-9.69-3.88-14.37-1.32-4.68-2.52-8.88-3.61-12.6h-.82Z" fill="#0aa94d"/><path d="M18.68,94.05c7.64-9.48,10.92-21.98,8.91-33.99-.15-.87-1.47-.5-1.33,.37,1.92,11.48-1.26,23.59-8.56,32.65-.55,.68,.42,1.66,.97,.97h0Z" fill="#18181e"/><path d="M16.82,59.75c.81,.19,1.35,.85,1.2,1.48-.14,.63-.92,.99-1.73,.8-.81-.19-1.35-.85-1.2-1.48,.15-.63,.92-.99,1.73-.8Z" fill="#3e3a36"/><path d="M13.44,68.95c.81,.19,1.35,.85,1.2,1.48-.15,.63-.92,.99-1.73,.8-.81-.19-1.35-.85-1.2-1.48,.14-.63,.92-.99,1.73-.8Z" fill="#3e3a36"/></svg>