<?xml version="1.0" encoding="UTF-8"?><svg id="a" xmlns="http://www.w3.org/2000/svg" viewBox="0 0 100 100"><path d="M50.7,97.96c-1.61,0-3.51-.05-5.69-.14-2.18-.1-4.43-.29-6.76-.57-2.32-.28-4.62-.64-6.9-1.07-2.28-.43-4.36-1.02-6.26-1.78-5.22-1.99-7.82-5.45-7.82-10.39V17.58c0-1.99,.54-3.53,1.64-4.62,1.09-1.09,2.58-1.97,4.48-2.63,3.22-1.14,7.26-1.97,12.09-2.49,4.84-.52,9.82-.78,14.94-.78,12.14,0,21.48,2.04,28.03,6.12,6.54,4.08,9.82,10.38,9.82,18.92,0,4.27-1.23,7.95-3.7,11.03-2.47,3.08-5.79,5.34-9.96,6.76,4.74,1.33,8.7,3.75,11.88,7.26,3.18,3.51,4.77,7.92,4.77,13.23,0,9.39-3.49,16.34-10.46,20.84-6.97,4.5-17,6.76-30.09,6.76Zm-9.25-54.77h10.39c4.08,0,7.04-.76,8.89-2.28,1.85-1.52,2.77-3.75,2.77-6.69,0-2.56-1.07-4.6-3.2-6.12-2.13-1.52-5.33-2.28-9.6-2.28-1.42,0-3.06,.05-4.91,.14-1.85,.1-3.3,.24-4.34,.43v16.79Zm0,34.71c1.33,.38,3.03,.64,5.12,.78,2.09,.14,4.08,.21,5.98,.21,3.79,0,6.95-.78,9.46-2.35,2.51-1.57,3.77-4.01,3.77-7.33,0-3.13-1.04-5.36-3.13-6.69-2.09-1.33-5.26-1.99-9.53-1.99h-11.67v17.36Z" fill="#e88f72"/><g><path d="M57.1,46.12c-.08-1.77-9.63-1.01-12.09-.29-.24,.07-.51,.17-.62,.44-.15,.35,.05,.76,.25,1.07,1.35,2.04,3.38,3.39,5.52,3.68,2.14,.29,7.06-2.25,6.93-4.9Z" fill="#18181e"/><g><path d="M50.2,49.87c.04,2.2,.93,5.73-2.01,6.04-2.06,0-2.36-2.64-2.04-4.28" fill="none" stroke="#18181e" stroke-linecap="round" stroke-miterlimit="10" stroke-width=".82"/><path d="M50.2,49.87c.26,1.21,.23,2.62,.42,3.95,.14,.99,.56,1.98,1.59,2.35,1.88,.69,3.51-1.19,3.14-3" fill="none" stroke="#18181e" stroke-linecap="round" stroke-miterlimit="10" stroke-width=".82"/></g></g><g><g><path d="M81.95,22.04c3.46-2.24,6.93-4.87,8.54-8.65,1.62-3.78,.63-8.94-3.08-10.72-2.8-1.34-6.27-.38-8.69,1.57-2.42,1.94-4.01,4.7-5.55,7.39" fill="#e88f72"/><path d="M80.86,17.63c1.46-.94,2.92-2.06,3.6-3.65,.68-1.59,.27-3.77-1.3-4.52-1.18-.57-2.65-.16-3.67,.66-1.02,.82-1.69,1.98-2.34,3.12" fill="#ffbac4"/></g><g><ellipse cx="71.1" cy="27.09" rx=".98" ry="1.25" fill="#3e3a36"/><path d="M71.85,32.19c1.04,.46,1.59,1.81,1.18,2.86-.4,1.03-1.42,1.71-2.49,2-.93,.25-1.96,.24-2.84-.16-.88-.41-1.58-1.25-1.69-2.21-.11-.94,.37-1.87,1.12-2.46,.36-.28,.8-.44,1.25-.47,.8-.06,2.32-.08,3.46,.43Z" fill="#ffbac4"/></g></g><g><path d="M18.05,22.04c-3.46-2.24-6.93-4.87-8.54-8.65-1.62-3.78-.63-8.94,3.08-10.72,2.8-1.34,6.27-.38,8.69,1.57,2.42,1.94,4.01,4.7,5.55,7.39" fill="#e88f72"/><path d="M19.14,17.63c-1.46-.94-2.92-2.06-3.6-3.65-.68-1.59-.27-3.77,1.3-4.52,1.18-.57,2.65-.16,3.67,.66,1.02,.82,1.69,1.98,2.34,3.12" fill="#ffbac4"/></g><g><path d="M27.92,27.09c0,.69,.44,1.25,.98,1.25s.98-.56,.98-1.25-.44-1.25-.98-1.25-.98,.56-.98,1.25Z" fill="#3e3a36"/><path d="M28.15,32.19c-1.04,.46-1.59,1.81-1.18,2.86,.4,1.03,1.42,1.71,2.49,2,.93,.25,1.96,.24,2.84-.16,.88-.41,1.58-1.25,1.69-2.21,.11-.94-.37-1.87-1.12-2.46-.36-.28-.8-.44-1.25-.47-.8-.06-2.32-.08-3.46,.43Z" fill="#ffbac4"/></g></svg>