<?xml version="1.0" encoding="UTF-8"?><svg id="a" xmlns="http://www.w3.org/2000/svg" viewBox="0 0 100 100"><path d="M61.58,30.49c-6.99,0-12.35,2.14-16.07,6.4-3.72,4.27-5.58,10.31-5.58,18.12s2.06,13.98,6.2,18.25c4.13,4.27,9.69,6.4,16.69,6.4,3.72,0,6.88-.5,9.47-1.5,2.59-1,5.06-2.13,7.42-3.41,1.54,1.27,2.75,2.79,3.61,4.56,.86,1.77,1.29,3.84,1.29,6.2,0,3.72-2.07,6.88-6.2,9.47-4.13,2.59-10.42,3.88-18.87,3.88-6.08,0-11.81-.86-17.16-2.59-5.36-1.72-10.04-4.38-14.03-7.97-4-3.59-7.15-8.13-9.47-13.62-2.32-5.49-3.47-12.06-3.47-19.68,0-7.08,1.11-13.33,3.34-18.73,2.22-5.4,5.27-9.97,9.13-13.69,3.86-3.72,8.38-6.54,13.55-8.45,5.18-1.91,10.71-2.86,16.62-2.86,8.35,0,14.82,1.36,19.41,4.09,4.58,2.72,6.88,6.22,6.88,10.49,0,2.36-.59,4.41-1.77,6.13-1.18,1.73-2.54,3.09-4.09,4.09-2.36-1.54-4.88-2.86-7.56-3.95-2.68-1.09-5.79-1.63-9.33-1.63Z" fill="#f1861b"/><g><path d="M39.62,15.57c-4.11-1.59-8.22-3.17-12.32-4.76,1.71,5.54,3.74,10.97,6.09,16.27" fill="#f1861b"/><path d="M45.34,14.02c.97-4.36,2.19-8.66,3.65-12.89,2.16,4.58,4.32,9.15,6.47,13.73" fill="#f1861b"/></g><g><path d="M33.93,27.9c.24,.62,.83,.96,1.31,.77,.48-.19,.67-.84,.43-1.46-.24-.62-.83-.96-1.31-.77-.48,.19-.67,.84-.43,1.46Z" fill="#18181e"/><path d="M35.93,32.36c-.76,.77-.78,2.17-.04,2.96,.72,.77,1.87,1.02,2.92,.91,.92-.1,1.83-.48,2.47-1.15,.64-.67,.96-1.66,.72-2.56-.24-.87-.99-1.53-1.86-1.79-.42-.13-.86-.11-1.28,.02-.73,.23-2.09,.75-2.93,1.6Z" fill="#ffd530"/></g><g><path d="M56.33,16.57c.24,.62,.83,.96,1.31,.77,.48-.19,.67-.84,.43-1.46-.24-.62-.83-.96-1.31-.77-.48,.19-.67,.84-.43,1.46Z" fill="#18181e"/><path d="M58.33,21.03c-.76,.77-.78,2.17-.04,2.97,.72,.77,1.87,1.02,2.92,.91,.92-.1,1.83-.48,2.47-1.15,.64-.67,.96-1.66,.72-2.56-.24-.87-.99-1.53-1.86-1.79-.42-.13-.86-.11-1.28,.02-.73,.23-2.09,.75-2.93,1.6Z" fill="#ffd530"/></g><polygon points="47.6 26.13 50.59 24.93 50.09 27.56 47.6 26.13" fill="#18181e"/><path d="M45.8,29.84s6.28,1.45,3.58-3.58c0,0,2.17,5.11,4.82,0" fill="none" stroke="#18181e" stroke-linecap="round" stroke-miterlimit="10" stroke-width=".82"/></svg>