<?xml version="1.0" encoding="UTF-8"?><svg id="a" xmlns="http://www.w3.org/2000/svg" viewBox="0 0 100 100"><path d="M50.12,96.04c-1.63,0-3.51-.05-5.62-.14-2.11-.1-4.3-.29-6.56-.58-2.26-.29-4.52-.65-6.77-1.08-2.26-.43-4.35-1.03-6.27-1.8-5.28-2.02-7.93-5.52-7.93-10.52V14.62c0-2.02,.55-3.58,1.66-4.68,1.1-1.1,2.62-1.99,4.54-2.67,4.13-1.34,8.5-2.23,13.11-2.67,4.61-.43,8.74-.65,12.39-.65,7.49,0,14.29,.91,20.39,2.74,6.1,1.83,11.33,4.64,15.71,8.43,4.37,3.79,7.76,8.57,10.16,14.34,2.4,5.76,3.6,12.59,3.6,20.46s-1.15,14.39-3.46,20.1c-2.31,5.72-5.6,10.52-9.87,14.41-4.28,3.89-9.39,6.8-15.35,8.72-5.96,1.92-12.54,2.88-19.74,2.88Zm-8.07-21.04c1.06,.19,2.35,.36,3.89,.5,1.54,.14,2.98,.22,4.32,.22,3.26,0,6.27-.48,9.01-1.44,2.74-.96,5.09-2.45,7.06-4.47,1.97-2.02,3.51-4.63,4.61-7.85,1.1-3.22,1.66-7.08,1.66-11.6,0-8.65-2.02-15.15-6.05-19.53-4.03-4.37-9.42-6.56-16.14-6.56-1.35,0-2.72,.05-4.11,.14-1.39,.1-2.81,.24-4.25,.43v50.15Z" fill="#b57311"/><g><ellipse cx="58.86" cy="9.61" rx=".99" ry="1.27" fill="#3e3a36"/><path d="M59.62,14.78c1.05,.46,1.61,1.83,1.2,2.9-.41,1.04-1.44,1.74-2.52,2.03-.95,.26-1.99,.25-2.87-.17-.89-.41-1.6-1.26-1.71-2.24-.11-.95,.38-1.89,1.13-2.49,.36-.29,.81-.44,1.27-.47,.81-.06,2.35-.08,3.51,.43Z" fill="#fddcda"/></g><g><path d="M35.39,9.61c0,.7-.44,1.27-.99,1.27s-.99-.57-.99-1.27,.44-1.27,.99-1.27,.99,.57,.99,1.27Z" fill="#3e3a36"/><path d="M35.16,14.78c1.05,.46,1.61,1.83,1.2,2.9-.41,1.04-1.44,1.74-2.52,2.03-.95,.26-1.99,.25-2.87-.17-.89-.41-1.6-1.26-1.71-2.24-.11-.95,.38-1.89,1.13-2.49,.36-.29,.81-.44,1.27-.47,.81-.06,2.35-.08,3.51,.43Z" fill="#fddcda"/></g><path d="M30.77,5.41c-7.46,.55-12.43,2.46-17.56,5.09-5.13,2.63-9.67,6.95-11.24,12.49-1.57,5.54,.52,12.28,5.63,14.95,4.28,2.23,10.06,1.01,13.09-2.75,3.44-4.29,3.03-10.37,3.17-15.87,.14-5.5,1.77-11.96,6.91-13.9" fill="#91580b"/><path d="M62.97,5.41c7.46,.55,12.43,2.46,17.56,5.09,5.13,2.63,9.67,6.95,11.24,12.49,1.57,5.54-.52,12.28-5.63,14.95-4.28,2.23-10.06,1.01-13.09-2.75-3.44-4.29-3.03-10.37-3.17-15.87-.14-5.5-1.77-11.96-6.91-13.9" fill="#91580b"/><g><path d="M42.84,11.6c-1.07,1.65,.34,4.25,2.31,4.26,1.97,0,3.4-2.56,2.37-4.24-1.04-1.68-3.97-1.55-4.86,.21" fill="#3e3a36" stroke="#3e3a36" stroke-linecap="round" stroke-miterlimit="10" stroke-width=".55"/><path d="M44.91,14.8c-.04,2.49-2.65,4.6-5.1,4.12" fill="none" stroke="#3e3a36" stroke-linecap="round" stroke-miterlimit="10" stroke-width=".55"/><path d="M44.73,14.05c.66,3.19,4.32,5.39,7.45,4.5" fill="none" stroke="#3e3a36" stroke-linecap="round" stroke-miterlimit="10" stroke-width=".55"/><path d="M45.4,15.03c-.05,1.6-.43,4.95-.09,6.51,.34,1.56,1.76,3.07,3.32,2.74,1.01-.22,1.74-1.15,2.02-2.15,.28-.99,.19-2.05,.09-3.08" fill="none" stroke="#3e3a36" stroke-linecap="round" stroke-miterlimit="10" stroke-width=".55"/><path d="M47.56,17.85v3.56" fill="none" stroke="#3e3a36" stroke-linecap="round" stroke-miterlimit="10" stroke-width=".55"/></g></svg>