<?xml version="1.0" encoding="UTF-8"?><svg id="a" xmlns="http://www.w3.org/2000/svg" viewBox="0 0 100 100"><g><path d="M3.57,13.04C.28,16.7,.69,27.49,1.46,31.11c.77,3.62,2.64,7.05,5.45,8.65,2.17,1.24,4.66,1.29,7.05,1.17,2.41-.12,4.81-.38,7.19-.78,1.49-.25,2.61-1.79,2.61-3.6V15.28c0-1.83-13.53-9.67-20.19-2.24Z" fill="#7fb2c2"/><path d="M23.76,18.65c-2.59-2.46-9.27-2.26-11.49,.9-2.23,3.15-2.44,9.14-.22,12.29,2.44,3.45,8.64,3.95,11.71,1.93" fill="#f2e8da"/></g><path d="M98.01,64.16c-1.42-1.48-3.55-2.32-4.52-4.13-1.24-2.3-.13-5.08,.71-7.55,.98-2.9,1.5-5.91,1.6-8.94,.6-18.48-14.8-33.55-33.28-33.67-12.97-.08-31.53-.16-31.53-.16-3.79,0-6.79,1.1-9,3.31-2.21,2.21-3.31,5.21-3.31,9v55.97c0,3.79,1.1,6.79,3.31,9,2.2,2.2,5.2,3.31,9,3.31h38.64c2.38,0,4.3-.73,5.76-2.18,1.46-1.46,2.18-3.86,2.18-7.21,0-1.76-.24-3.44-.73-5.03-.49-1.59-1.04-2.87-1.65-3.84H41.17v-13.89h24.35c2.38,0,4.28-.71,5.69-2.12,1.41-1.41,2.12-3.79,2.12-7.15,0-1.76-.24-3.42-.73-4.96-.49-1.54-1.04-2.8-1.65-3.77h-29.77v-12.31s18.48-.03,26.09-.07c2.42-.01,4.83,.64,6.79,2.07,7.85,5.71,11.95,16.75,8.54,26-1.26,3.43-3.41,6.74-3.23,10.39,.12,2.48,1.76,4.66,4.12,5.4,5.07,1.58,4.83-5.74,8.35-5.58,2.25,.1,3.51,3.57,5.72,3.14,2.02-.39,1.87-3.53,.45-5.02Z" fill="#a2cddd"/><path d="M84.82,18.79c-4.54-.29-9.08,2.87-10.37,7.24" fill="none" stroke="#3e3a36" stroke-linecap="round" stroke-miterlimit="10" stroke-width=".55"/><path d="M92.14,27.72c-5.55-2.29-9.15,1.39-11.17,4.25" fill="none" stroke="#3e3a36" stroke-linecap="round" stroke-miterlimit="10" stroke-width=".55"/><path d="M94.75,35.1c-3.15-1.52-7.32-.44-9.33,2.42" fill="none" stroke="#3e3a36" stroke-linecap="round" stroke-miterlimit="10" stroke-width=".55"/><path d="M95.92,43.64c-3.15-1.52-5.88-.81-7.89,2.05" fill="none" stroke="#3e3a36" stroke-linecap="round" stroke-miterlimit="10" stroke-width=".55"/><g><path d="M35.35,19.16c0,.64-.41,1.17-.91,1.17s-.91-.52-.91-1.17,.41-1.17,.91-1.17,.91,.52,.91,1.17Z" fill="#3e3a36"/><path d="M35.14,23.9c.97,.43,1.48,1.68,1.1,2.66-.37,.96-1.32,1.59-2.31,1.86-.87,.24-1.82,.23-2.64-.15-.82-.38-1.47-1.16-1.57-2.05-.1-.87,.35-1.74,1.04-2.29,.33-.26,.74-.41,1.16-.44,.75-.05,2.16-.07,3.22,.4Z" fill="#fddcda"/></g></svg>