<?xml version="1.0" encoding="UTF-8"?><svg id="a" xmlns="http://www.w3.org/2000/svg" xmlns:xlink="http://www.w3.org/1999/xlink" viewBox="0 0 100 100"><defs><clipPath id="b"><path d="M87.56,83.83c0,2.68-.48,4.67-1.43,5.97-.95,1.3-2.46,2.55-4.54,3.76-1.21,.69-2.72,1.36-4.54,2.01-1.82,.65-3.81,1.21-5.97,1.69-2.16,.47-4.43,.84-6.81,1.1-2.38,.26-4.73,.39-7.07,.39-6.23,0-12.07-.84-17.51-2.53-5.45-1.69-10.18-4.24-14.21-7.65-4.02-3.42-7.2-7.67-9.54-12.78-2.33-5.1-3.5-11.03-3.5-17.77,0-7.09,1.28-13.28,3.83-18.55,2.55-5.27,5.92-9.66,10.12-13.17,4.19-3.5,8.99-6.12,14.4-7.85,5.4-1.73,10.96-2.59,16.67-2.59,8.22,0,14.72,1.32,19.53,3.96,4.8,2.64,7.2,6.08,7.2,10.31,0,2.25-.56,4.2-1.69,5.84-1.12,1.64-2.42,2.94-3.89,3.89-2.16-1.3-4.86-2.57-8.11-3.83-3.24-1.25-6.9-1.88-10.96-1.88-7.27,0-13.04,2.08-17.32,6.23-4.28,4.15-6.42,9.9-6.42,17.25,0,3.98,.58,7.42,1.75,10.31,1.17,2.9,2.74,5.28,4.74,7.14,1.99,1.86,4.28,3.24,6.88,4.15,2.59,.91,5.36,1.36,8.3,1.36,1.9,0,3.59-.17,5.06-.52,1.47-.34,2.59-.73,3.37-1.17v-12.19h-13.88c-.52-.95-1.02-2.21-1.49-3.76-.48-1.56-.71-3.2-.71-4.93,0-3.11,.71-5.36,2.14-6.75,1.43-1.38,3.26-2.08,5.51-2.08h21.93c2.59,0,4.61,.71,6.03,2.14,1.43,1.43,2.14,3.44,2.14,6.03v26.47Z" fill="none"/></clipPath></defs><g><g><path d="M61.73,19.08c-5.78-.93-7.12-10.68-12.97-10.89-.38-.01-.77,.02-1.08,.24-.39,.27-.56,.77-.66,1.24-.73,3.47,1.04,7.32,4.15,9.03" fill="#e6a400"/><path d="M56.42,21.34c3.95-2.47,7.34-5.82,9.87-9.74,.89-1.38,1.72-2.87,3.06-3.83s3.4-1.16,4.51,.05c1.33,1.44,.57,3.74-.25,5.52-1.09,2.35-2.58,5.02-5.15,5.39" fill="#e6a400"/><g><polyline points="55.85 2.66 59.7 25.67 63.6 24.56 61.82 2.66" fill="none" stroke="#3e3a36" stroke-linecap="round" stroke-miterlimit="10" stroke-width=".47"/><path d="M57.26,2.61c.03,.78-.58,1.43-1.35,1.46-.78,.03-1.43-.58-1.46-1.35-.03-.78,.58-1.43,1.35-1.46,.78-.03,1.43,.58,1.46,1.35Z" fill="#f6928a"/><path d="M63.14,2.61c.03,.78-.58,1.43-1.35,1.46-.78,.03-1.43-.58-1.46-1.35s.58-1.43,1.35-1.46c.78-.03,1.43,.58,1.46,1.35Z" fill="#f6928a"/></g></g><g><path d="M87.56,83.83c0,2.68-.48,4.67-1.43,5.97-.95,1.3-2.46,2.55-4.54,3.76-1.21,.69-2.72,1.36-4.54,2.01-1.82,.65-3.81,1.21-5.97,1.69-2.16,.47-4.43,.84-6.81,1.1-2.38,.26-4.73,.39-7.07,.39-6.23,0-12.07-.84-17.51-2.53-5.45-1.69-10.18-4.24-14.21-7.65-4.02-3.42-7.2-7.67-9.54-12.78-2.33-5.1-3.5-11.03-3.5-17.77,0-7.09,1.28-13.28,3.83-18.55,2.55-5.27,5.92-9.66,10.12-13.17,4.19-3.5,8.99-6.12,14.4-7.85,5.4-1.73,10.96-2.59,16.67-2.59,8.22,0,14.72,1.32,19.53,3.96,4.8,2.64,7.2,6.08,7.2,10.31,0,2.25-.56,4.2-1.69,5.84-1.12,1.64-2.42,2.94-3.89,3.89-2.16-1.3-4.86-2.57-8.11-3.83-3.24-1.25-6.9-1.88-10.96-1.88-7.27,0-13.04,2.08-17.32,6.23-4.28,4.15-6.42,9.9-6.42,17.25,0,3.98,.58,7.42,1.75,10.31,1.17,2.9,2.74,5.28,4.74,7.14,1.99,1.86,4.28,3.24,6.88,4.15,2.59,.91,5.36,1.36,8.3,1.36,1.9,0,3.59-.17,5.06-.52,1.47-.34,2.59-.73,3.37-1.17v-12.19h-13.88c-.52-.95-1.02-2.21-1.49-3.76-.48-1.56-.71-3.2-.71-4.93,0-3.11,.71-5.36,2.14-6.75,1.43-1.38,3.26-2.08,5.51-2.08h21.93c2.59,0,4.61,.71,6.03,2.14,1.43,1.43,2.14,3.44,2.14,6.03v26.47Z" fill="#fbbc01"/><g clip-path="url(#b)"><g><path d="M26.88,12.63c.97,5.2,8.05,8.17,7.72,13.46-.36,5.67-9.06,8.13-9.11,13.82,0,.54,.08,1.09-.06,1.61-.31,1.18-1.61,1.82-2.81,2-3.26,.48-6.72-1.51-7.94-4.57" fill="#be7b1f"/><path d="M46,40.76c-5.73,2.2-11.3,4.82-16.64,7.84-.93,.53-1.99,1.32-1.85,2.38,.1,.7,.69,1.19,1.17,1.71,1.22,1.31,1.89,3.11,1.82,4.9-.05,1.27-.46,2.51-.47,3.78-.03,4.41,5.93,7.5,9.52,4.93" fill="#be7b1f"/><path d="M13.64,73.97c3.93-2.1,9.4-.54,11.62,3.33,.84,1.46,1.27,3.18,2.44,4.38,1.02,1.04,2.51,1.59,3.38,2.77,.93,1.27,.92,2.98,.87,4.56-.17,5.12-.34,10.25-.5,15.37" fill="#be7b1f"/><path d="M60.57,111.21c-2.97-7.27,1.2-16.6,8.6-19.23,.95-.34,1.98-.6,2.7-1.31,1.09-1.07,1.12-2.77,1.65-4.2,1.15-3.14,5.19-4.85,8.24-3.49,2.75,1.22,4.8,4.49,7.79,4.14" fill="#be7b1f"/><path d="M49.15,49.11c-1.38,1.48-1.7,3.86-.74,5.65s3.1,2.86,5.1,2.55c2.06-.32,4.18-1.92,6.01-.93,1.33,.72,1.68,2.44,2.46,3.74,2,3.34,7.17,3.62,10.26,1.26,3.09-2.36,4.35-6.49,4.41-10.38,.03-2.06-.14-4.36,1.2-5.93" fill="#be7b1f"/><path d="M90.54,57.57c-6.23,1.21-11.86,5.26-14.99,10.78-.56,.98-1.05,2.07-.97,3.2,.2,2.55,3.2,3.94,5.75,3.9s5.08-.96,7.62-.64c2.54,.32,5.14,2.72,4.27,5.12" fill="#be7b1f"/><path d="M46.44,75.7c-2.65,2.37-3.6,6.45-2.26,9.75s4.87,5.56,8.42,5.4c1.14-.05,2.29-.34,3.24-.98,2.11-1.43,2.75-4.26,2.67-6.8-.08-2.54-.71-5.08-.44-7.61" fill="#be7b1f"/></g></g></g></g><g><ellipse cx="61.1" cy="20.9" rx=".89" ry="1.14" fill="#3e3a36"/><path d="M61.79,25.55c.95,.42,1.45,1.65,1.08,2.61-.37,.94-1.29,1.56-2.27,1.83-.85,.23-1.79,.22-2.59-.15-.8-.37-1.44-1.14-1.54-2.01-.1-.86,.34-1.7,1.02-2.24,.33-.26,.73-.4,1.14-.43,.73-.05,2.11-.07,3.16,.39Z" fill="#fddcda"/></g><g><path d="M86.66,26.08c-.95-1.72-2.54-2.75-4.18-3.14-1.64-.39-3.33-.2-4.98,.12-2.69,.52-5.37,1.41-7.75,3.06-.97,.68-1.89,1.51-2.72,2.45-5.37,5.62-3.22,9.56-1.69,11.11,1.74,1.77,4.13,2.13,6.37,2.09,2.43-.04,4.85-.47,7.19-1.26,2.63-.89,5.26-2.34,6.99-4.97,1.73-2.63,2.31-6.67,.76-9.47Z" fill="#f2e8da"/><ellipse cx="74.12" cy="30.29" rx="1.45" ry="1.96" fill="#3e3a36"/><path d="M81.88,28.34c0,1.08-.65,1.96-1.45,1.96s-1.45-.88-1.45-1.96,.65-1.96,1.45-1.96,1.45,.88,1.45,1.96Z" fill="#3e3a36"/></g></svg>