<?xml version="1.0" encoding="UTF-8"?><svg id="a" xmlns="http://www.w3.org/2000/svg" viewBox="0 0 100 100"><path d="M97.53,94.69c-1,.27-2.57,.54-4.7,.82-2.13,.27-4.25,.41-6.33,.41s-3.93-.16-5.52-.48c-1.59-.32-2.93-.89-4.02-1.7-1.09-.82-1.91-1.95-2.45-3.4-.54-1.45-.82-3.36-.82-5.72v-21.25h-26.15v31.33c-1,.27-2.57,.54-4.7,.82-2.13,.27-4.25,.41-6.33,.41s-3.93-.16-5.52-.48c-1.59-.32-2.93-.89-4.02-1.7-1.09-.82-1.91-1.95-2.45-3.4-.54-1.45-.82-3.36-.82-5.72V12.69c1-.18,2.59-.43,4.77-.75,2.18-.32,4.27-.48,6.27-.48s3.93,.16,5.52,.48c1.59,.32,2.93,.89,4.02,1.7,1.09,.82,1.91,1.95,2.45,3.41,.54,1.45,.82,3.36,.82,5.72v21.79h26.15V12.69c1-.18,2.59-.43,4.77-.75,2.18-.32,4.27-.48,6.27-.48s3.93,.16,5.52,.48c1.59,.32,2.93,.89,4.02,1.7,1.09,.82,1.91,1.95,2.45,3.41,.54,1.45,.82,3.36,.82,5.72V94.69Z" fill="#9d9dc1"/><g><path d="M47.61,19.96c3.42-2.17,6.19-5.36,7.85-9.06,.81-1.8,1.21-4.23-.32-5.46-1.79-1.44-4.34,.04-6.28,1.27-4.89,3.1-10.77,4.6-16.54,4.21-1.95-.13-4.01-.53-5.44-1.86-2.05-1.89-3.49-5.75-6.13-4.85-1.37,.47-1.95,2.16-1.78,3.6,.18,1.44,.9,2.75,1.32,4.14,1.29,4.22-.51,9.22-4.25,11.56-.53,.33-1.17,.62-1.77,.45-.47-.14-.82-.54-1.24-.79-1.46-.88-3.47,.28-4.1,1.87-.63,1.59-.3,3.38,.04,5.05-1.9-1.66-3.81-3.32-5.71-4.98-.23,5.07-.45,10.13-.68,15.2-.14,3.15-.27,6.37,.62,9.4,1.48,4.98,5.7,8.86,10.54,10.76,4.84,1.9,10.23,2,15.37,1.19,3.22-.5,6.47-1.39,9.04-3.39,2.98-2.32,4.71-5.89,5.91-9.47,2.15-6.43,2.89-13.33,2.14-20.07" fill="#9d9dc1"/><path d="M6.99,35.54c2.9-2.46,1.97-5.45,1.97-5.45-1.9-1.66-3.81-3.32-5.71-4.98-.19,4.25-.38,8.5-.57,12.74,.51-.16,2.12-.46,4.31-2.31Z" fill="#f2e8da"/><g><path d="M37.6,21.03c0,.66-.42,1.2-.93,1.2s-.93-.54-.93-1.2,.42-1.2,.93-1.2,.93,.54,.93,1.2Z" fill="#3e3a36"/><path d="M37.38,25.91c.99,.44,1.52,1.73,1.13,2.74-.38,.99-1.36,1.64-2.38,1.92-.89,.24-1.88,.23-2.72-.16-.84-.39-1.51-1.19-1.61-2.11-.1-.9,.36-1.79,1.07-2.35,.34-.27,.76-.42,1.2-.45,.77-.05,2.22-.07,3.32,.41Z" fill="#fddcda"/></g><path d="M21.34,48.14s13.47,2.49,15.32-8.5" fill="none" stroke="#18181e" stroke-linecap="round" stroke-miterlimit="10" stroke-width=".82"/></g></svg>