<?xml version="1.0" encoding="UTF-8"?><svg id="a" xmlns="http://www.w3.org/2000/svg" viewBox="0 0 100 100"><path d="M59.46,12.04c1.03-1.17,2.96-1.38,4.22-.47,.98,.71,1.48,1.99,1.31,3.19-.17,1.2-.97,2.27-2.04,2.83,1.55-.26,3.26,1,3.66,2.52,.4,1.52-.51,3.27-1.99,3.81,1.94,.64,2.91,2.95,2.47,4.94-.27,1.2-1.12,2.27-2.27,2.72,1.39,.3,2.48,1.26,2.73,2.66,.25,1.4-.41,2.91-1.61,3.68,.9-.11,1.84,.62,2.28,1.41,.44,.79,.44,1.78,.1,2.62-.34,.84-.99,1.53-1.75,2.02,.71,.47,1.2,.91,1.69,1.61,.73,1.04,.83,2.5,.23,3.62-.59,1.13-1.85,1.87-3.12,1.86,1.35,.83,2.27,2.45,2.17,4.03-.09,1.58-1.11,3.07-2.55,3.73,1.08,0,1.89,.78,2.43,1.71s.59,2.12,.17,3.11c-.41,.99-1.27,1.78-2.27,2.17,.9,.55,1.62,1.24,2.02,2.22,.4,.98,.41,2.13-.07,3.07-.48,.94-1.46,1.64-2.51,1.67,1.34,.58,2.14,1.96,2.25,3.41,.11,1.45-.64,2.94-1.87,3.71,1.28-.35,2.73,0,3.75,.85s1.59,2.21,1.48,3.53c.72-.82,1.81-1.11,2.88-.93,1.07,.18,2.03,.94,2.44,1.94,.66-.79,1.62-1.23,2.64-1.06s1.93,.9,2.31,1.86c.38,.96,.21,2.12-.42,2.93l-25.32-4.78L59.46,12.04Z" fill="#688715"/><path d="M79.34,94.22c-8.33,4.56-21.43,4.82-28.95,4.5-.59-.02-1.15-.09-1.7-.23-3.1-.69-5.67-2.94-6.79-5.99-1.56-4.33-2.66-9.36-3.39-14.68-1.47-10.5-1.6-22.11-1.31-31.57,.02-.43,.02-.83,.04-1.26,.09-2.46,.19-4.75,.32-6.83,.05-.83,.11-1.61,.16-2.38,.02-.39,.05-.74,.07-1.1,.05-.71,.11-1.38,.16-2.02,.11-1.33,.2-2.46,.28-3.33,.04-.37,.05-.69,.09-.96,.07-.8,.12-1.22,.12-1.22-13.7,.33-18.4-4.22-19.6-9.03-.37-1.48-.26-3.06,.26-4.5C24.14-.46,47.04,1.15,49.22,1.34c.11,.02,.16,.02,.16,.02,1.95,.28,3.74,.98,5.34,1.99,3.46,2.18,5.89,5.85,6.42,10.12,.37,3,.6,5.79,.73,7.67,.13,1.86,.35,3.72,.57,5.57,.8,6.47,1.2,13.41,1.2,20.81,0,6.68-.49,16.19-1.45,28.52-.14,1.86,.24,3.78,1.32,5.31,1.86,2.62,4.63,4.08,7.38,4.88,2.52,.74,5,.94,6.74,.98,1.7,.02,3.23,1.13,3.63,2.78,0,.02,.02,.05,.02,.09,.39,1.63-.44,3.33-1.93,4.15Z" fill="#7aa21d"/><g><path d="M43.57,14.64h0c-1.69,0-3.06-1.37-3.06-3.06v-1.76c0-1.69,1.37-3.06,3.06-3.06h0c1.69,0,3.06,1.37,3.06,3.06v1.76c0,1.69-1.37,3.06-3.06,3.06Z" fill="#fff"/><path d="M43.26,13.61h0c-1.09,0-1.97-.88-1.97-1.97v-1.28c0-1.09,.88-1.97,1.97-1.97h0c1.09,0,1.97,.88,1.97,1.97v1.28c0,1.09-.88,1.97-1.97,1.97Z"/><path d="M22.67,16.23c0,.54-.44,.98-.98,.98s-.98-.44-.98-.98,.44-.98,.98-.98,.98,.44,.98,.98Z"/><path d="M30.35,19.16c.8,.3,1.74,.17,2.43-.32,.69-.5,1.11-1.35,1.09-2.2" fill="none" stroke="#000" stroke-linecap="round" stroke-linejoin="round" stroke-width=".74"/><path d="M46.17,8.86c0,.63-.51,1.14-1.14,1.14s-1.14-.51-1.14-1.14,.51-1.14,1.14-1.14,1.14,.51,1.14,1.14Z" fill="#fff"/></g><g><path d="M57.36,25.56c0,1.15-.72,2.09-1.61,2.09s-1.61-.94-1.61-2.09,.72-2.09,1.61-2.09,1.61,.94,1.61,2.09Z" fill="#688715"/><path d="M42.52,74.32c0,.79-.5,1.44-1.11,1.44s-1.11-.64-1.11-1.44,.5-1.44,1.11-1.44,1.11,.64,1.11,1.44Z" fill="#688715"/><path d="M58.99,27.2c0,.54-.33,.97-.74,.97s-.74-.44-.74-.97,.33-.97,.74-.97,.74,.44,.74,.97Z" fill="#688715"/><path d="M44,71.6c0,.54-.33,.97-.74,.97s-.74-.44-.74-.97,.33-.97,.74-.97,.74,.44,.74,.97Z" fill="#688715"/><path d="M72.28,92.54c.54,0,.97,.33,.97,.74s-.44,.74-.97,.74-.97-.33-.97-.74,.44-.74,.97-.74Z" fill="#688715"/><path d="M61.26,82.24c.54,0,.97,.33,.97,.74s-.44,.74-.97,.74-.97-.33-.97-.74,.44-.74,.97-.74Z" fill="#688715"/><path d="M57.36,49.73c.54,0,.97,.33,.97,.74s-.44,.74-.97,.74-.97-.33-.97-.74,.44-.74,.97-.74Z" fill="#688715"/><path d="M41.41,39c.54,0,.97,.33,.97,.74s-.44,.74-.97,.74-.97-.33-.97-.74,.44-.74,.97-.74Z" fill="#688715"/><path d="M69.65,93.59c.73,0,1.32,.45,1.32,1s-.59,1-1.32,1-1.32-.45-1.32-1,.59-1,1.32-1Z" fill="#688715"/></g></svg>