<?xml version="1.0" encoding="UTF-8"?><svg id="a" xmlns="http://www.w3.org/2000/svg" viewBox="0 0 100 100"><path d="M71.2,58.26c.74,2.87,1.11,5.78,1.11,8.72,0,5.67-1.33,10.87-3.97,15.62-2.65,4.75-6.25,8.52-10.82,11.31-4.56,2.8-9.64,4.19-15.23,4.19-4.41,0-8.81-.88-13.19-2.65-4.38-1.77-8.22-4.25-11.53-7.45-3.31-3.2-5.59-6.9-6.84-11.09l17.44-10.92c.96,2.35,2.44,4.36,4.47,6.01,2.02,1.66,4.28,2.48,6.79,2.48,3.16,0,5.54-.88,7.12-2.65,1.58-1.77,2.37-4.19,2.37-7.28,0-2.13-.29-4.08-.88-5.85l-5.74-22.84,22.96,.22,5.96,22.18Z" fill="#fc70a2"/><path d="M52.55,2.2s-25.6,1.43-26.35,25.97c0,0-14.95,6.11-8.97,11.84s12.96,1,12.96,1c0,0-.25,8.97,8.47,9.97,8.72,1,9.97-8.47,9.97-8.47,0,0,2.49,7.97,10.72,6.73,8.22-1.25,6.98-9.72,6.98-9.72,0,0,2.04,10.22,10.97,9.47,8.92-.75,3.49-9.22,3.49-9.22,0,0,5.23,1.68,7.97-2.4,2.74-4.08-5.98-6.64-5.98-6.64,0,0,2.68-32.26-30.22-28.52Z" fill="#f9a0cf"/><ellipse cx="46.5" cy="28.94" rx="1.59" ry="2.43" fill="#212121"/><ellipse cx="63.45" cy="28.94" rx="1.59" ry="2.43" fill="#212121"/><path d="M52.82,28.94s-.09,2.98,2.13,2.99c2.25,0,2.05-2.99,2.05-2.99" fill="none" stroke="#212121" stroke-linecap="round" stroke-linejoin="round" stroke-width=".33"/></svg>