<?xml version="1.0" encoding="UTF-8"?><svg id="a" xmlns="http://www.w3.org/2000/svg" viewBox="0 0 100 100"><path d="M73.15,99.27l-25.05-34.21-4.92,4.92,.12,25.4-23.91-.57-.46-86.26h24.14l.11,27.91L73.15,6.6l16.93,15.9-24.71,25.05,27.8,37.07-20.02,14.64Z" fill="#b3aad3"/><path d="M22.62,32.4l12.36-17.61s.57-6.5-4.97-10.96C25.61,.29,10.11-1.67,6.15,6.17c-.84,1.66,.86,3.23,.86,3.23,0,0-4.47,4.69-4.15,8.28,.34,3.85,3.07,.64,3.07,.64,0,0-3.39,7.56,.47,9.15,1.27,.53,2.05,0,2.48-.56,.05,.05,.09,.11,.14,.16-.42,1.65-.73,4.75,2.49,5.43,2.02,.43,2.72-.54,2.89-1.73,.17,.07,.34,.13,.51,.2,1.01,2.15,3.16,4.37,7.76,3.5l-1.05-2.11c.62,.04,1,.03,1,.03Z" fill="#b3aad3"/><path d="M77.38,32.92l-12.36-17.61s-.57-6.5,4.97-10.96c4.4-3.54,19.9-5.49,23.86,2.34,.84,1.66-.86,3.23-.86,3.23,0,0,4.47,4.69,4.15,8.28-.34,3.85-3.07,.64-3.07,.64,0,0,3.38,7.56-.47,9.15-1.28,.53-2.05,0-2.48-.56-.05,.05-.09,.11-.14,.16,.42,1.65,.73,4.75-2.5,5.43-2.02,.43-2.72-.54-2.89-1.73-.17,.07-.34,.13-.51,.2-1,2.15-3.15,4.37-7.76,3.5l1.05-2.11c-.62,.04-1,.03-1,.03Z" fill="#b3aad3"/><path d="M34.32,49.36c.08,1.11-.49,2.06-1.28,2.12-.79,.06-1.51-.79-1.59-1.9-.08-1.11,.49-2.06,1.29-2.12,.79-.06,1.5,.79,1.59,1.9Z"/><path d="M55.62,47.19c.08,1.11-.49,2.06-1.28,2.12-.79,.06-1.5-.79-1.59-1.9-.08-1.11,.49-2.06,1.28-2.12,.79-.06,1.5,.79,1.59,1.9Z"/><path d="M43.14,44.41s-3.44,.57-3.07,4.52c.37,3.95-.51,7.56,4.5,6.89,5.01-.67,2.96-4.78,2.23-6.82-.73-2.04-1.3-4.77-3.66-4.58Z"/></svg>