<?xml version="1.0" encoding="UTF-8"?><svg id="a" xmlns="http://www.w3.org/2000/svg" xmlns:xlink="http://www.w3.org/1999/xlink" viewBox="0 0 100 100"><defs><clipPath id="b"><path d="M55.12,22.93c-1.36-1.11-2.76-2.35-4.19-3.56-4.05-3.45-9.36-5.15-14.64-4.55-1.63,.19-3.13,.57-4.17,1.29-3.68,2.53-6.22,6.35-8.94,9.89-1.51,1.97-3.15,3.95-3.49,6.51-.13,.98-.02,1.98,.4,2.87,1.31,2.78,4.34,2.62,6.8,3.52,4.28,1.57,7.1,6.5,11.65,6.8,3.84,.25,6.91-2.92,10.29-4.76,2.17-1.18,4.59-1.83,6.78-2.96,2.2-1.13,4.26-2.91,4.81-5.32,.86-3.81-2.29-7.27-5.31-9.74Z" fill="none"/></clipPath></defs><path d="M39.08,97.86c-4.09,0-7.32-1.19-9.7-3.56-2.38-2.38-3.56-5.61-3.56-9.7V10.88c1.04-.19,2.71-.45,4.99-.78,2.28-.33,4.47-.5,6.56-.5s4.11,.17,5.77,.5c1.66,.33,3.07,.93,4.21,1.78,1.14,.85,2,2.05,2.57,3.56,.57,1.52,.86,3.52,.86,5.99v56.32h32.65c.66,1.05,1.28,2.45,1.85,4.21,.57,1.76,.86,3.59,.86,5.49,0,3.8-.81,6.49-2.42,8.06-1.62,1.57-3.76,2.35-6.42,2.35H39.08Z" fill="#fcbb04"/><g><path d="M64.68,15.19C60.95,6.84,46.58-.56,30.34,3.1c-6.74,1.52-11.72,6.85-14.2,12.55-2.48,5.7-2.64,12-1.85,18.06,.59,4.47,1.78,9.09,5.09,12.52,2.82,2.91,6.91,4.68,11.11,5.69,6.54,1.57,13.69,1.46,19.96-.8,6.28-2.26,11.58-6.75,13.87-12.35,1.33-3.25,1.64-6.74,1.85-10.19,.28-4.51,.37-9.18-1.51-13.38Z" fill="#f06d21"/><g><g><path d="M55.12,22.93c-1.36-1.11-2.76-2.35-4.19-3.56-4.05-3.45-9.36-5.15-14.64-4.55-1.63,.19-3.13,.57-4.17,1.29-3.68,2.53-6.22,6.35-8.94,9.89-1.51,1.97-3.15,3.95-3.49,6.51-.13,.98-.02,1.98,.4,2.87,1.31,2.78,4.34,2.62,6.8,3.52,4.28,1.57,7.1,6.5,11.65,6.8,3.84,.25,6.91-2.92,10.29-4.76,2.17-1.18,4.59-1.83,6.78-2.96,2.2-1.13,4.26-2.91,4.81-5.32,.86-3.81-2.29-7.27-5.31-9.74Z" fill="#efb23d"/><path d="M55.11,23.19c1.96-1.31,3.79-3.12,4.17-5.44,.37-2.32-1.4-5.03-3.74-4.85-1.29,.1-2.38,.99-3.21,1.97-1.07,1.27-1.86,2.76-2.31,4.35" fill="#efb23d"/><path d="M30.74,18.63c-.2-2.25-1.83-4.3-3.97-5.01-.71-.23-1.49-.33-2.2-.11-1.88,.58-2.49,2.98-2.26,4.94,.25,2.15,1.13,4.23,2.51,5.9" fill="#efb23d"/><g clip-path="url(#b)"><path d="M30.51,40.89c-.53-.89-.24-2.01,.11-2.99,2.1-5.87,5.78-11.12,7.5-17.11,.68-2.35,1.04-4.79,1.08-7.24l3.11-4.88,1.39,6.02c-.56,6.33,.81,12.81,3.9,18.36,1.18,2.13,2.65,4.64,1.56,6.82l-1.49,7.13-15.89,.44-1.27-6.55Z" fill="#f2e9d7"/></g></g><g><path d="M32.39,23.13c0,.88-.56,1.6-1.25,1.6s-1.24-.72-1.24-1.6,.56-1.6,1.24-1.6,1.25,.72,1.25,1.6Z" fill="#3e3a36"/><path d="M30.71,26.22c1.32,.57,2.03,2.23,1.51,3.54-.51,1.27-1.81,2.12-3.17,2.48-1.19,.31-2.5,.3-3.62-.2-1.12-.5-2.01-1.54-2.15-2.73-.14-1.16,.47-2.31,1.42-3.04,.46-.35,1.02-.54,1.59-.58,1.02-.07,2.96-.1,4.42,.53Z" fill="#fddcda"/></g><g><ellipse cx="48.21" cy="23.22" rx="1.24" ry="1.6" fill="#3e3a36"/><path d="M48.65,26.31c-1.32,.57-2.03,2.23-1.51,3.54,.51,1.27,1.81,2.12,3.17,2.48,1.19,.31,2.5,.3,3.62-.2,1.12-.5,2.01-1.54,2.15-2.73,.14-1.16-.47-2.31-1.42-3.04-.46-.35-1.02-.54-1.59-.58-1.02-.07-2.96-.1-4.42,.53Z" fill="#fddcda"/></g><g><path d="M46.25,30.95c-.09-1.49-9.92-.86-12.46-.25-.25,.06-.52,.15-.64,.37-.15,.3,.05,.65,.26,.9,1.4,1.72,3.49,2.86,5.69,3.11,2.2,.24,7.28-1.9,7.15-4.14Z" fill="#333549"/><g><path d="M39.35,31.6c.75,2.22,1.03,4.59,.72,6.93-.12,.58-.36,1.22-.93,1.59-1.25,.76-2.65-.54-2.77-1.78-.1-.61-.05-1.21,0-1.79,0-.12,.11-.21,.23-.2s.21,.11,.2,.23c-.09,1.12-.13,2.37,.74,3.04,.4,.33,.96,.44,1.39,.17,.43-.26,.66-.8,.78-1.34,.41-2.25,.19-4.63-.37-6.85h0Z" fill="#333549"/><path d="M39.02,32.17l1.59,6.49c.15,.52,.35,1.03,.74,1.32,1.4,1,3.16-.48,2.77-2.07-.07-.3,.41-.4,.46-.1,.47,1.97-1.72,3.8-3.48,2.49-.51-.4-.71-1.01-.84-1.55l-1.24-6.59h0Z" fill="#333549"/></g></g></g></g></svg>