<?xml version="1.0" encoding="UTF-8"?><svg id="a" xmlns="http://www.w3.org/2000/svg" viewBox="0 0 100 100"><path d="M61.61,73.39c-1.22,1.04-2.79,1.85-4.72,2.46-1.92,.61-4.15,.92-6.69,.92-3.38,0-6.17-.42-8.37-1.27-2.21-.84-3.64-2.3-4.29-4.36-2.63-8.26-4.79-14.94-6.47-20.06-1.69-5.11-3-9.59-3.94-13.44h-.7c-.28,5.54-.49,10.58-.63,15.13-.14,4.55-.24,8.99-.28,13.3-.05,4.32-.14,8.68-.28,13.09-.14,4.41-.35,9.29-.63,14.64-1.22,.47-2.82,.87-4.79,1.2-1.97,.33-3.94,.49-5.91,.49-4.13,0-7.34-.66-9.64-1.97-2.3-1.31-3.45-3.71-3.45-7.18L4.89,14.55c.75-1.22,2.39-2.53,4.93-3.94,2.53-1.41,6.1-2.11,10.7-2.11,4.97,0,8.87,.77,11.68,2.32,2.82,1.55,4.88,4.06,6.19,7.53,.84,2.25,1.76,4.83,2.74,7.74,.99,2.91,1.97,5.91,2.96,9.01,.99,3.1,1.95,6.17,2.89,9.22,.94,3.05,1.78,5.8,2.53,8.24h.7c2.25-7.88,4.5-15.51,6.76-22.87,2.25-7.36,4.31-13.53,6.19-18.51,1.41-.75,3.21-1.38,5.42-1.9,2.2-.51,4.67-.77,7.39-.77,4.6,0,8.35,.68,11.26,2.04,2.91,1.36,4.6,3.31,5.07,5.84,.37,1.88,.77,4.76,1.2,8.66,.42,3.89,.87,8.28,1.34,13.16,.47,4.88,.94,10.04,1.41,15.48,.47,5.44,.91,10.68,1.34,15.69,.42,5.02,.77,9.62,1.06,13.79,.28,4.18,.47,7.39,.56,9.64-1.6,.94-3.26,1.62-5,2.04-1.74,.42-3.97,.63-6.69,.63-3.57,0-6.57-.61-9.01-1.83-2.44-1.22-3.75-3.61-3.94-7.18-.56-10.23-.91-19.42-1.06-27.59-.14-8.16-.35-15.01-.63-20.55h-.7c-.94,3.66-2.3,8.26-4.08,13.79-1.78,5.54-3.94,12.62-6.47,21.25Z" fill="#be7b1f"/><g><path d="M31.42,12.19c2.49-1,5.02-1.9,7.58-2.69,1.43-.44,3.03-.84,4.37-.18,1.06,.52,1.73,1.61,2.1,2.73,.85,2.57,.28,5.56-1.45,7.64-1.04,1.26-2.45,2.17-3.92,2.88-2,.96-4.16,1.59-6.36,1.85" fill="#be7b1f"/><path d="M16.49,10.55c-1.7-2.01-3.46-4.07-5.82-5.24-2.36-1.16-5.49-1.18-7.36,.67-1.19,1.18-1.68,2.92-1.66,4.59,.06,3.49,2.38,6.84,5.63,8.12" fill="#be7b1f"/><path d="M24.26,17.52c2.47-1.62,5.73-2.2,8.29-.72s4.01,4.65,3.47,7.56c-.82,4.44-5.38,7.02-9.5,8.89-2.11,.96-4.34,1.92-6.65,1.74-1.84-.14-3.57-1.01-5.05-2.11-4.55-3.41-7.03-9.73-5.09-15.07,.53-1.47,1.43-2.89,2.81-3.63,3.16-1.71,6.88,.75,9.61,3.07,0,0,.82,1.13,2.11,.29Z" fill="#f2e9d7"/><g><path d="M29.12,21.69c0,.69-.43,1.24-.97,1.24s-.97-.56-.97-1.24,.43-1.24,.97-1.24,.97,.56,.97,1.24Z" fill="#3e3a36"/><path d="M28.9,26.74c1.03,.45,1.58,1.79,1.17,2.83-.4,1.02-1.4,1.7-2.46,1.98-.92,.25-1.94,.24-2.81-.16-.87-.4-1.56-1.23-1.67-2.18-.11-.93,.37-1.85,1.1-2.43,.35-.28,.79-.43,1.24-.46,.79-.06,2.29-.08,3.43,.42Z" fill="#fddcda"/></g><g><ellipse cx="16.24" cy="19.9" rx=".97" ry="1.24" fill="#3e3a36"/><path d="M16.99,24.95c1.03,.45,1.58,1.79,1.17,2.83-.4,1.02-1.4,1.7-2.46,1.98-.92,.25-1.94,.24-2.81-.16-.87-.4-1.56-1.23-1.67-2.18-.11-.93,.37-1.85,1.1-2.43,.35-.28,.79-.43,1.24-.46,.79-.06,2.29-.08,3.43,.42Z" fill="#fddcda"/></g><path d="M20.32,24.47c-.73,1.39-.24,3.66,.96,4.21,1.2,.55,2.07-.37,2.5-2.65" fill="none" stroke="#3e3a36" stroke-linecap="round" stroke-miterlimit="10" stroke-width=".64"/></g></svg>