<?xml version="1.0" encoding="UTF-8"?><svg id="a" xmlns="http://www.w3.org/2000/svg" xmlns:xlink="http://www.w3.org/1999/xlink" viewBox="0 0 100 100"><defs><clipPath id="b"><path d="M81.77,7.79l8.24-4.9c.47-.28,1.06-.21,1.45,.16h0c.43,.41,.5,1.06,.18,1.55l-5.38,8.08s-3.35-.49-4.48-4.89Z" fill="none"/></clipPath></defs><g><path d="M81.77,7.79l8.24-4.9c.47-.28,1.06-.21,1.45,.16h0c.43,.41,.5,1.06,.18,1.55l-5.38,8.08s-3.35-.49-4.48-4.89Z" fill="#d1e6ed"/><g clip-path="url(#b)"><g><path d="M84.16,5.8s1.52,3.73,4.51,4.81" fill="none" stroke="#a5d0e0" stroke-miterlimit="10" stroke-width=".74"/><path d="M86.68,3.49s1.52,3.73,4.51,4.81" fill="none" stroke="#a5d0e0" stroke-miterlimit="10" stroke-width=".74"/></g></g></g><path d="M88.31,16.43c-1.72-6.42-7.52-10.89-14.17-10.95-.26,0-.52,0-.76,.02-6.65,.1-12.28,5.06-13.46,11.6-2.46,13.8,1.13,31.81,1.13,31.81-4.68-8.01-14.98-26.36-20.21-35.71-2.27-4.03-6.55-6.52-11.18-6.38-2.95,.1-5.87,.45-8.24,.84-3.16,.52-5.7,2.91-6.34,6.05-3.66,17.78-2.41,44.35-.87,62.49,0,0-6.21,10.4-6.04,18.8,.03,1.28,1.12,2.28,2.39,2.28,2.06,.02,5.06-.13,7.99-.95,2.65-.74,5.23-2.05,6.98-4.29,.83-1.06,2.35-1.32,3.36-.43,1.33,1.17,3.45,2.6,6.66,3.75,2.18,.78,4.87,1.42,8.16,1.75,.61,.06,1.15-.42,1.15-1.04,0-3.04,1.17-12.65-7.18-20.52,.18-11.57,.21-23.43,.21-23.43,5.18,10.16,19.43,31.13,25.53,39.95,2.02,2.95,5.31,4.77,8.87,4.97h.21c5.36,.26,10.16-3.17,11.68-8.32,10.55-35.79,7.36-60.16,4.13-72.3Z" fill="#a5d0e0"/><g><path d="M76.62,18.9h0c-1.59,0-2.89-1.29-2.89-2.88v-1.85c0-1.59,1.29-2.88,2.89-2.88h0c1.59,0,2.89,1.29,2.89,2.88v1.85c0,1.59-1.29,2.88-2.89,2.88Z" fill="#fff"/><path d="M77.02,17.68h0c-1.09,0-1.97-.88-1.97-1.97v-1.3c0-1.09,.88-1.97,1.97-1.97h0c1.09,0,1.97,.88,1.97,1.97v1.3c0,1.09-.88,1.97-1.97,1.97Z"/><circle cx="77.85" cy="13.19" r="1.14" fill="#fff"/></g><path d="M73.63,28.54c-.86,1.65-1.01,3.56-1.29,5.41-.27,1.84-.75,3.77-2.07,5.08-.78,.77-1.92,1.48-1.86,2.58,.04,.87,.85,1.5,1.66,1.82,2.1,.83,4.57,.32,6.42-.97,1.52-1.07,2.7-2.64,3.45-4.33,1.07-2.42,2.11-5.16,1.66-7.88-.39-2.35-2.02-4.76-4.7-4.29-1.41,.25-2.62,1.35-3.26,2.59Z" fill="#80b2c1"/><path d="M83.27,19.02c.23,.52,.74,.91,1.31,.98s1.16-.18,1.51-.63,.43-1.09,.22-1.62" fill="none" stroke="#000" stroke-linecap="round" stroke-linejoin="round" stroke-width=".57"/></svg>