<?xml version="1.0" encoding="UTF-8"?><svg id="a" xmlns="http://www.w3.org/2000/svg" viewBox="0 0 100 100"><path d="M79.64,14.56c.35-.15,.7-.29,1.05-.45,1.47-.69,3.01-1.58,3.59-3.09,.39-1.03,.24-2.25-.39-3.15-.63-.9-1.85-1.78-2.95-1.76,1.04-.59,1.57-1.94,1.23-3.09-.35-1.14-1.54-1.97-2.73-1.89-1.08,.07-2.03,.81-2.67,1.68-.65,.87-1.07,1.89-1.58,2.84-.73,1.36-1.69,2.58-2.8,3.66-6.62-3.86-14.25-6.06-22.38-6.06s-15.75,2.21-22.38,6.06c-1.11-1.08-2.07-2.3-2.8-3.66-.52-.96-.93-1.97-1.58-2.84s-1.59-1.6-2.67-1.68c-1.19-.08-2.39,.74-2.73,1.89-.35,1.14,.19,2.49,1.23,3.09-1.1-.01-2.32,.86-2.95,1.76-.63,.9-.78,2.12-.39,3.15,.58,1.51,2.12,2.4,3.59,3.09,.34,.16,.7,.29,1.05,.45C10.41,23.33,4.08,36.43,4.08,51.07c0,26.4,20.57,47.8,45.92,47.8s45.92-21.4,45.92-47.8c0-14.64-6.33-27.74-16.28-36.51Zm-29.64,61.4c-11.77,0-21.31-9.55-21.31-21.29,0-5.33,1.94-10.19,5.19-13.92,3.85-4.48,9.55-7.32,15.9-7.39h.45c6.35,.07,12.03,2.92,15.9,7.39,3.23,3.73,5.17,8.59,5.17,13.92,0,11.75-9.53,21.29-21.29,21.29Z" fill="#2eafa3"/><g><path d="M23.74,42.2c2.11,1.86,2.72,5.22,1.4,7.7-1.28,2.4-3.91,3.7-6.37,4.85-2.23,1.04-4.47,2.08-6.7,3.13-.86,.4-1.83,.81-2.73,.49-1.2-.43-1.61-2.02-1.19-3.22,.42-1.2,1.42-2.09,2.39-2.92-1.31-.06-2.57-1.28-3.06-2.49-.49-1.21-.21-2.7,.69-3.65,.9-.95,2.37-1.31,3.61-.89-.94-1.76-.07-4.06,1.56-5.2,1.63-1.14,3.82-1.23,5.75-.71,1.92,.52,3.17,1.6,4.67,2.92Z" fill="#a1e2da"/><path d="M76.24,42.2c-2.11,1.86-2.72,5.22-1.4,7.7,1.28,2.4,3.91,3.7,6.37,4.85,2.23,1.04,4.47,2.08,6.7,3.13,.86,.4,1.83,.81,2.73,.49,1.2-.43,1.61-2.02,1.19-3.22-.42-1.2-1.42-2.09-2.39-2.92,1.31-.06,2.57-1.28,3.06-2.49,.49-1.21,.21-2.7-.69-3.65-.9-.95-2.37-1.31-3.61-.89,.94-1.76,.07-4.06-1.56-5.2-1.63-1.14-3.82-1.23-5.75-.71s-3.17,1.6-4.67,2.92Z" fill="#a1e2da"/></g><g><path d="M61.66,16.09c-5.22,0-9.7,3.14-11.66,7.65-1.96-4.51-6.44-7.65-11.66-7.65-7.05,0-12.74,5.71-12.74,12.74,0,5.47,3.44,10.14,8.28,11.92,3.85-4.48,9.55-7.32,15.9-7.39h.45c6.35,.07,12.03,2.92,15.9,7.39,4.84-1.79,8.28-6.46,8.28-11.92,0-7.03-5.69-12.74-12.74-12.74Z" fill="#a1e2da"/><path d="M55.57,35.24c1.07-1.4,.45-3.42-1.22-4.01-1.23-.43-2.73-.78-4.35-.79h0s0,0,0,0,0,0,0,0h0c-1.62,0-3.13,.36-4.35,.79-1.67,.58-2.29,2.6-1.22,4,1.74,2.28,3.58,4.46,4.65,5.7,.49,.57,1.36,.57,1.85,0,1.07-1.24,2.91-3.42,4.65-5.7Z" fill="#fed42e"/><g><path d="M44.36,28.42c0,3.88-3.14,7.02-7.02,7.02s-7.02-3.14-7.02-7.02,3.14-7.02,7.02-7.02,7.02,3.14,7.02,7.02Z" fill="#fff"/><path d="M38.7,34.26h0c-2.08,0-3.77-1.69-3.77-3.77v-1.39c0-2.08,1.69-3.77,3.77-3.77h0c2.08,0,3.77,1.69,3.77,3.77v1.39c0,2.08-1.69,3.77-3.77,3.77Z"/><path d="M38.35,26.48c0,1.18-.96,2.14-2.14,2.14s-2.14-.96-2.14-2.14,.96-2.14,2.14-2.14,2.14,.96,2.14,2.14Z" fill="#fff"/></g><g><path d="M55.64,28.42c0,3.88,3.14,7.02,7.02,7.02s7.02-3.14,7.02-7.02-3.14-7.02-7.02-7.02-7.02,3.14-7.02,7.02Z" fill="#fff"/><path d="M61.3,34.26h0c2.08,0,3.77-1.69,3.77-3.77v-1.39c0-2.08-1.69-3.77-3.77-3.77h0c-2.08,0-3.77,1.69-3.77,3.77v1.39c0,2.08,1.69,3.77,3.77,3.77Z"/><path d="M61.65,26.48c0,1.18,.96,2.14,2.14,2.14s2.14-.96,2.14-2.14-.96-2.14-2.14-2.14-2.14,.96-2.14,2.14Z" fill="#fff"/></g></g></svg>