<?xml version="1.0" encoding="UTF-8"?><svg id="a" xmlns="http://www.w3.org/2000/svg" viewBox="0 0 100 100"><path d="M77.84,13.96c3.46-2.61,5.76-5.7,6.97-7.6,.63-.99,.25-2.32-.81-2.81-9.2-4.23-20.07,1.45-23.33,3.38-1.4-.17-2.81-.28-4.25-.28-5.38,0-10.47,1.21-15,3.35-.56,.26-1.11,.54-1.65,.83-.43,.23-.83,.47-1.24,.72-.02,.01-.05,.03-.07,.04-.23,.14-.47,.28-.7,.43-.05,.03-.11,.07-.16,.1-.13,.08-.25,.17-.38,.25-.56,.37-1.11,.76-1.65,1.16-.15,.11-.31,.22-.46,.34-.01,0-.02,.02-.03,.03-.68,.53-1.34,1.09-1.97,1.67-.04,.04-.08,.07-.12,.11-.11,.1-.22,.21-.33,.31-.43,.4-.84,.81-1.24,1.23,0,0,0,0,0,0-2.81,.15-16.25,1.34-21.7,10.64-.59,1.01-.13,2.31,.95,2.76,2.45,1.02,7.05,2.51,12.38,2.22-.47,2.18-.72,4.43-.72,6.75,0,.33,0,.64,.03,.96-.29,5.3-.44,12.49-.44,21.57,0,1.91,0,3.81,.03,5.66v25.99c0,2.17,1.65,3.97,3.76,4.19,.15,.02,.28,.02,.43,.02h17.66c2.32,0,4.2-1.88,4.2-4.2v-18.22c.07-.98,.08-2,.08-3.03,0-.36,0-.69-.02-1,2.68,.67,5.48,1.01,8.37,1.01,18.86,0,34.13-14.75,34.13-32.95,0-10.37-4.97-19.6-12.72-25.64Z" fill="#f9a0cf"/><g><g><g><path d="M65.44,33.16h0c-3.17,.82-6.4-1.07-7.23-4.24l-.95-3.65c-.82-3.17,1.07-6.4,4.24-7.23h0c3.17-.82,6.4,1.07,7.23,4.24l.95,3.65c.82,3.17-1.07,6.4-4.24,7.23Z" fill="#fff"/><path d="M64.89,32.19h0c-2.21,.58-4.48-.75-5.05-2.96l-.69-2.66c-.58-2.21,.75-4.48,2.96-5.05h0c2.21-.58,4.48,.75,5.05,2.96l.69,2.66c.58,2.21-.75,4.48-2.96,5.05Z"/><path d="M62.09,21.41c.29,1.11-.38,2.24-1.48,2.53-1.11,.29-2.24-.38-2.53-1.48-.29-1.11,.38-2.24,1.48-2.53,1.11-.29,2.24,.38,2.53,1.48Z" fill="#fff"/></g><g><path d="M45.4,41.47h0c2.61-1.98,3.12-5.69,1.15-8.3l-2.28-3.01c-1.98-2.61-5.69-3.12-8.3-1.15h0c-2.61,1.98-3.12,5.69-1.15,8.3l2.28,3.01c1.98,2.61,5.69,3.12,8.3,1.15Z" fill="#fff"/><path d="M44.97,40.44h0c1.82-1.38,2.18-3.98,.8-5.8l-1.66-2.19c-1.38-1.82-3.98-2.18-5.8-.8h0c-1.82,1.38-2.18,3.98-.8,5.8l1.66,2.19c1.38,1.82,3.98,2.18,5.8,.8Z"/><path d="M38.25,31.56c.69,.91,1.99,1.09,2.9,.4,.91-.69,1.09-1.99,.4-2.9-.69-.91-1.99-1.09-2.9-.4-.91,.69-1.09,1.99-.4,2.9Z" fill="#fff"/></g></g><g><path d="M72.07,39.01c1.71,6.53-3.16,13.46-10.88,15.49-7.72,2.03-15.37-1.63-17.08-8.15s3.16-13.46,10.88-15.49c7.72-2.03,15.37,1.63,17.08,8.15Z" fill="#fc70a2"/><path d="M57,48c0,1.4-1.14,2.54-2.54,2.54s-2.54-1.14-2.54-2.54,1.14-2.54,2.54-2.54,2.54,1.14,2.54,2.54Z" fill="#6a525e"/><path d="M68.39,44.5c0,1.4-1.14,2.54-2.54,2.54s-2.54-1.14-2.54-2.54,1.14-2.54,2.54-2.54,2.54,1.14,2.54,2.54Z" fill="#6a525e"/></g></g></svg>