<?xml version="1.0" encoding="UTF-8"?><svg id="a" xmlns="http://www.w3.org/2000/svg" viewBox="0 0 100 100"><path d="M95.33,58.56c-2.08,4.78-4.92,9-8.53,12.65l7.63,10.59-18.1,11.16-7.62-10.99c-3.51,.97-7.11,1.42-10.81,1.38-7.13-.09-13.77-2.05-19.94-5.86-6.17-3.81-11.08-8.84-14.73-15.07-3.65-6.23-5.43-12.81-5.34-19.74,.09-6.99,2.04-13.5,5.85-19.54,3.81-6.04,8.86-10.81,15.16-14.32,6.3-3.51,13.04-5.23,20.24-5.13,7.12,.09,13.72,1.98,19.79,5.65,6.07,3.68,10.88,8.56,14.43,14.66,3.55,6.1,5.28,12.64,5.19,19.64-.07,5.18-1.14,10.16-3.22,14.94Zm-27.96,1.5c3.05-1.64,5.5-3.93,7.35-6.86,1.85-2.93,2.8-6.22,2.85-9.85,.05-3.49-.79-6.68-2.5-9.56-1.71-2.88-4.04-5.15-6.97-6.8-2.94-1.65-6.19-2.5-9.75-2.55-3.56-.05-6.84,.76-9.81,2.4-2.98,1.64-5.33,3.88-7.05,6.72-1.72,2.84-2.6,6-2.64,9.5-.05,3.5,.77,6.72,2.45,9.67,1.68,2.95,3.95,5.3,6.82,7.05,2.87,1.75,6.05,2.65,9.55,2.7,3.43,.04,6.67-.75,9.71-2.4Z" fill="#90a8f4"/><path d="M68.7,81.97s6.69,15.59,11.49,14.28c4.8-1.3,2.14-6.99,2.14-6.99,0,0,4.71,5.73,8.15,3.89,3.44-1.84,.12-8.99,.12-8.99,0,0,3.57,5.82,7.25,3.12,3.68-2.7-11.06-16.06-11.06-16.06l-18.09,10.76Z" fill="#90a8f4"/><path d="M31.72,39.22c0,1.16-.73,2.1-1.62,2.09-.89,0-1.6-.95-1.6-2.1,0-1.16,.73-2.1,1.62-2.09,.89,0,1.61,.95,1.6,2.11Z" fill="#231f20"/><path d="M7.88,43.81s-3.82,4.06,2.84,5.69c6.66,1.63,13.86,.86,12.59-7.2s-15.43,1.51-15.43,1.51Z" fill="#f18a2b"/><path d="M21.86,34.57s-10.32,.19-16.82,6.02c-6.5,5.82-2.85,6.1,.48,6.92,3.33,.81,17.45-.82,17.45-.82,0,0,2.61-2.05-1.11-12.11Z" fill="#fdbc2d"/><path d="M73.51,54.91s-1.08,7.58,5.42,7.33c6.49-.26,3.9-11.17,3.9-11.17,0,0,2.66,9.7,6.88,9.43,6.67-.43,4.58-10.7,4.58-10.7" fill="none" stroke="#fdbc2d" stroke-linecap="round" stroke-linejoin="round" stroke-width=".5"/><path d="M63.04,62.04s1.56,11.11,9.26,10.7c7.69-.41,7.78-7.24,7.78-7.24,0,0,1.46,6,6.09,4.52,4.63-1.48,4.17-5.75,4.17-5.75" fill="none" stroke="#fdbc2d" stroke-linecap="round" stroke-linejoin="round" stroke-width=".5"/><path d="M77.54,41.97s2.93,6.97,7.4,4.64c4.47-2.33,2.51-8.87,2.51-8.87,0,0,2.28,8.96,6.05,7.89,3.77-1.08,2.36-10.83,2.36-10.83" fill="none" stroke="#fdbc2d" stroke-linecap="round" stroke-linejoin="round" stroke-width=".5"/></svg>