<?xml version="1.0" encoding="UTF-8"?><svg id="a" xmlns="http://www.w3.org/2000/svg" viewBox="0 0 100 100"><path d="M86.91,10.11c-.41,.21-3.12,2.74-3.12,2.74,.07,1.37,2.25,1.99,3.22,1.02,.97-.97,.77-2.69-.1-3.75Z" fill="#3e3a36"/><g><path d="M38.63,73.17v24.31c-.93,.25-2.39,.51-4.37,.76-1.98,.25-3.95,.38-5.89,.38s-3.65-.15-5.13-.44c-1.48-.29-2.7-.82-3.67-1.58-.97-.76-1.71-1.81-2.22-3.16-.51-1.35-.76-3.12-.76-5.32V28.48c0-1.77,.48-3.14,1.46-4.12,.97-.97,2.3-1.75,3.99-2.34,2.87-1.01,6.2-1.75,10-2.22,3.8-.46,7.85-.7,12.15-.7,11.65,0,20.42,2.45,26.33,7.34,5.91,4.9,8.86,11.52,8.86,19.88,0,5.23-1.35,9.71-4.05,13.42-2.7,3.71-5.91,6.58-9.62,8.61,3.04,4.14,6.03,8.02,8.99,11.65,2.95,3.63,5.27,6.92,6.96,9.88-.84,2.96-2.39,5.21-4.62,6.77-2.24,1.56-4.75,2.34-7.53,2.34-1.86,0-3.46-.21-4.81-.63-1.35-.42-2.53-1.01-3.54-1.77-1.01-.76-1.94-1.69-2.79-2.79-.84-1.1-1.65-2.28-2.41-3.54l-10.63-17.09h-6.71Zm7.98-16.84c3.21,0,5.74-.82,7.6-2.47,1.86-1.65,2.79-4.07,2.79-7.28s-1.03-5.63-3.1-7.28c-2.07-1.65-5.34-2.47-9.81-2.47-1.27,0-2.28,.04-3.04,.13-.76,.08-1.6,.21-2.53,.38v18.99h8.1Z" fill="#9da5a8"/><g><path d="M53.56,11.41c-5.12-2.86-11.54-4.51-16.79-1.89-5.03,2.51-7.67,8.98-5.83,14.3,.74,2.15,2.11,4.06,3.79,5.59,3.53,3.23,9.15,4.72,13.16,2.12" fill="#9da5a8"/><path d="M66.96,26.66c1.92-2.81,2.54-6.94,2.22-10.76-.44-5.16-2.56-10.08-5.77-12.86-3.21-2.78-7.47-3.29-10.9-1.05-3.43,2.24-5.86,7.24-5.84,12.44,0,2.29,.46,4.55,1.1,6.66,1.18,3.92,3.42,7.77,6.51,8.2" fill="#9da5a8"/><path d="M64.75,13.77c1.46-1.66,4.11-1.52,6.18-.76,2.07,.77,4.02,2.02,6.23,2.19,3.67,.27,6.78-2.52,9.36-5.15,.72,5.94-1.34,11.97-4.7,16.92-3.36,4.95-7.95,8.93-12.73,12.54" fill="#9da5a8"/><g><path d="M59.83,18.87c0,.62,.39,1.12,.87,1.12s.87-.5,.87-1.12-.39-1.12-.87-1.12-.87,.5-.87,1.12Z" fill="#3e3a36"/><path d="M60.03,23.41c-.92,.41-1.42,1.61-1.05,2.55,.36,.92,1.26,1.53,2.21,1.78,.83,.23,1.74,.22,2.53-.15,.78-.36,1.4-1.11,1.5-1.96,.1-.83-.33-1.66-.99-2.19-.32-.25-.71-.39-1.11-.42-.71-.05-2.06-.07-3.08,.38Z" fill="#fddcda"/></g><path d="M49.14,16.21s-6.85-4.54-10.63,4.33" fill="none" stroke="#18181e" stroke-miterlimit="10" stroke-width=".47"/></g></g></svg>