<?xml version="1.0" encoding="UTF-8"?><svg id="a" xmlns="http://www.w3.org/2000/svg" viewBox="0 0 100 100"><path d="M92.64,33.27c-.98,2.38-4.48,2.73-6.62,1.3-2.14-1.43-3.23-3.95-4.16-6.35-.94-2.4-1.93-4.94-3.98-6.49-2.51-1.91-5.94-1.86-9.09-1.72,3.36,.57,5.45,3.95,6.63,7.14,1.18,3.19,2.04,6.74,4.58,9.01,3.6,3.21,10.08,2.17,12.49-2.01" fill="#ed222c"/><path d="M36.49,59.24c-4.34-1.48-8.28-2.98-11.83-4.51-3.55-1.53-6.61-3.37-9.17-5.54-2.56-2.17-4.56-4.76-5.99-7.76-1.43-3.01-2.14-6.68-2.14-11.01,0-8.38,3.23-15.08,9.68-20.11,6.46-5.03,15.5-7.54,27.13-7.54,4.24,0,8.18,.3,11.83,.89,3.65,.59,6.78,1.5,9.39,2.74,2.61,1.23,4.66,2.81,6.14,4.73,1.48,1.92,2.22,4.16,2.22,6.73s-.59,4.76-1.77,6.58c-1.18,1.83-2.61,3.38-4.29,4.66-2.17-1.38-5.08-2.59-8.72-3.62-3.65-1.04-7.64-1.55-11.98-1.55s-7.69,.62-9.76,1.85c-2.07,1.23-3.11,2.79-3.11,4.66,0,1.48,.64,2.69,1.92,3.62,1.28,.94,3.2,1.8,5.77,2.59l7.84,2.51c9.26,2.96,16.39,6.73,21.37,11.31,4.98,4.58,7.47,10.82,7.47,18.7,0,8.38-3.3,15.16-9.91,20.33-6.61,5.18-16.32,7.76-29.13,7.76-4.54,0-8.75-.37-12.64-1.11-3.9-.74-7.3-1.82-10.2-3.25-2.91-1.43-5.17-3.2-6.8-5.32-1.63-2.12-2.44-4.56-2.44-7.32s.84-5.3,2.51-7.32c1.67-2.02,3.5-3.57,5.47-4.66,2.76,2.17,6.14,4.04,10.13,5.62,3.99,1.58,8.35,2.37,13.09,2.37s8.23-.74,10.2-2.22c1.97-1.48,2.96-3.2,2.96-5.18s-.79-3.47-2.37-4.51c-1.58-1.04-3.8-2.05-6.65-3.03l-6.21-2.07Z" fill="#008e4e"/><g><g><path d="M61.07,14.2c0,.72,.45,1.3,1.01,1.3s1.01-.58,1.01-1.3-.45-1.3-1.01-1.3-1.01,.58-1.01,1.3Z" fill="#3e3a36"/><path d="M61.3,19.5c-1.08,.48-1.66,1.88-1.23,2.98,.42,1.07,1.48,1.78,2.58,2.08,.97,.26,2.04,.25,2.95-.17,.91-.42,1.64-1.29,1.75-2.29,.11-.97-.39-1.94-1.16-2.55-.37-.29-.83-.45-1.3-.49-.83-.06-2.41-.08-3.6,.45Z" fill="#fddcda"/></g><path d="M56.02,21.41c.54-3.29,.29-6.66-.92-9.78-.9-2.3-2.41-4.79-4.98-5.43-2.04-.5-4.43,.33-5.16,2.42-.79,2.27,.61,4.59,1.12,6.75,.29,1.23,.28,2.62-.91,3.39-1.41,.91-3.25,.36-4.54-.48s-2.38-2.05-3.57-3.06c-1.31-1.11-2.74-2.09-4.27-2.89-2.5-1.31-5.86-2.63-8.48-.89-1.76,1.17-2.62,3.49-1.38,5.34,.97,1.45,2.83,2.02,4.41,2.52s3.99,.96,4.6,2.69c1.15,3.27-4.24,4.36-6.35,4.51-1.79,.13-3.53-.05-5.29-.33-1.59-.26-3.25-.49-4.79,.12-4.04,1.61-3.88,7.43-1.25,10.21,1.92,2.03,4.91,2.72,7.6,2.69s5.47-1.1,8.26-1.25c1.24-.07,2.63,.04,3.54,.98,1.33,1.37,.78,3.46,0,4.96-1.37,2.64-4.06,4.8-3.92,8.04,.13,2.77,2.77,4.27,5.32,4.19,3.08-.1,5.65-2.06,7.81-4.08,2.69-2.52,5.16-4.88,8.82-5.88,2.51-.69,8.24-1.36,6.82,2.98-.97,2.98-4.59,3.85-6.4,6.18-1.41,1.82-1.98,4.82,.13,6.37,2.44,1.8,6.49,1.11,9.29,.93,3.15-.21,7-.36,9.47,1.96,2.21,2.07,2.53,6.1-.77,7.26-2.63,.92-5.49-.17-8.12-.5-2.46-.31-5.25-.14-6.93,1.94-1.77,2.19-1.32,5.33-.33,7.74,1.17,2.83,3.39,5.68,2.74,8.91-.26,1.31-1.01,2.6-2.36,3-1.66,.48-3.36-.57-4.44-1.76-2.24-2.47-2.54-6.11-4.71-8.65-1.65-1.93-4.33-3.19-6.77-1.95-2.56,1.31-3.41,4.27-4.03,6.85-.38,1.56-.72,3.91-2.2,4.86-1.69,1.09-3.61-1-4.35-2.33-1.67-3.03-.95-6.63-2.06-9.8-.7-2.01-2.42-4.22-4.83-3.62s-3.05,3.41-3.61,5.47c-.31,1.15-.82,2.65-1.92,3.27-1.79,1.02-3.32-1.26-3.68-2.73-.74-2.99,.9-6.19,2.59-8.54,.52-.72-.68-1.41-1.19-.69-1.65,2.29-3.04,5.14-2.94,8.03,.07,2.29,1.43,5.26,4,5.53,2.43,.26,3.78-2.2,4.37-4.19,.35-1.18,.54-2.41,1.18-3.48,.88-1.47,2.46-1.86,3.69-.48,2.23,2.51,1.47,6.65,2.3,9.69,.66,2.4,2.37,5.15,5.07,5.5,2.95,.38,4.1-3,4.68-5.26,.71-2.78,1.8-8.14,5.9-7.09,3.42,.88,4.41,4.95,5.71,7.73,1.12,2.41,3.02,4.77,5.84,5.11,2.48,.29,4.39-1.47,4.99-3.77,.72-2.75-.42-5.34-1.62-7.77-1.3-2.63-3.35-6.92-.39-9.28,2.4-1.91,5.93-.66,8.62-.24,2.29,.36,4.95,.46,6.87-1.08s2.18-4.17,1.24-6.34c-2.66-6.17-10.53-4.49-15.78-4.45-1.59,.01-4.51,.12-5.35-1.58-.74-1.49,.32-3.36,1.38-4.37,2.01-1.9,4.87-2.92,5.92-5.68,.86-2.28,.09-4.84-2.49-5.42-2.72-.61-5.94,.22-8.42,1.35-3.02,1.37-5.15,3.75-7.58,5.92-1.37,1.23-2.94,2.38-4.75,2.85-1.69,.44-4.04,.32-5.03-1.38-1.76-3.01,2.38-6.43,3.55-8.89,1.07-2.25,1.29-5.17-.98-6.77-1.95-1.37-4.65-.92-6.82-.46-2.97,.63-5.95,1.28-8.94,.35-2.73-.85-4.62-3.05-4.55-5.97,.02-1.05,.33-2.15,1.05-2.95,1.2-1.34,3.09-1.24,4.71-1,3.25,.48,6.69,.92,9.86-.24,1.98-.72,4.19-2.28,4.08-4.64-.2-4.08-5.69-4.02-8.32-5.61-.74-.45-1.36-1.09-1.41-2-.12-2.09,2.28-3.06,3.98-2.93,3.51,.26,7,2.85,9.48,5.15,1.95,1.81,4.13,3.78,7,3.37,2.28-.32,3.67-2.21,3.43-4.47s-2.18-4.9-1.3-7.07c.55-1.35,2.14-1.77,3.47-1.46,1.62,.38,2.72,1.81,3.46,3.21,1.64,3.12,2.06,6.86,1.49,10.31-.14,.87,1.18,1.24,1.33,.37h0Z" fill="#efe579"/></g></svg>