<?xml version="1.0" encoding="UTF-8"?><svg id="a" xmlns="http://www.w3.org/2000/svg" xmlns:xlink="http://www.w3.org/1999/xlink" viewBox="0 0 100 100"><defs><clipPath id="b"><path d="M13.57,25.1c-.71-1.11-1.37-2.63-1.97-4.55-.61-1.92-.91-3.95-.91-6.07,0-3.95,.88-6.78,2.66-8.5,1.77-1.72,4.07-2.58,6.91-2.58H86.43c.71,1.11,1.37,2.63,1.97,4.55,.61,1.92,.91,3.95,.91,6.07,0,3.95-.89,6.78-2.66,8.5-1.77,1.72-4.08,2.58-6.91,2.58h-16.85V95.24c-1.11,.3-2.86,.61-5.24,.91-2.38,.3-4.73,.46-7.06,.46s-4.38-.18-6.15-.53c-1.77-.35-3.26-.99-4.48-1.9-1.21-.91-2.13-2.18-2.73-3.79s-.91-3.74-.91-6.38V25.1H13.57Z" fill="none"/></clipPath></defs><path d="M13.57,25.1c-.71-1.11-1.37-2.63-1.97-4.55-.61-1.92-.91-3.95-.91-6.07,0-3.95,.88-6.78,2.66-8.5,1.77-1.72,4.07-2.58,6.91-2.58H86.43c.71,1.11,1.37,2.63,1.97,4.55,.61,1.92,.91,3.95,.91,6.07,0,3.95-.89,6.78-2.66,8.5-1.77,1.72-4.08,2.58-6.91,2.58h-16.85V95.24c-1.11,.3-2.86,.61-5.24,.91-2.38,.3-4.73,.46-7.06,.46s-4.38-.18-6.15-.53c-1.77-.35-3.26-.99-4.48-1.9-1.21-.91-2.13-2.18-2.73-3.79s-.91-3.74-.91-6.38V25.1H13.57Z" fill="#f06d21"/><g><g><path d="M32.91,9.96c0,.74-.47,1.34-1.04,1.34s-1.04-.6-1.04-1.34,.47-1.34,1.04-1.34,1.04,.6,1.04,1.34Z" fill="#3e3a36"/><path d="M32.67,15.4c1.11,.49,1.7,1.93,1.26,3.06-.43,1.1-1.52,1.83-2.65,2.14-1,.27-2.09,.26-3.03-.17-.94-.43-1.68-1.33-1.8-2.35-.11-1,.4-1.99,1.19-2.62,.38-.3,.85-.47,1.33-.5,.86-.06,2.47-.08,3.7,.46Z" fill="#fddcda"/></g><g><path d="M63.89,9.96c0,.74,.47,1.34,1.04,1.34s1.04-.6,1.04-1.34-.47-1.34-1.04-1.34-1.04,.6-1.04,1.34Z" fill="#3e3a36"/><path d="M64.13,15.4c-1.11,.49-1.7,1.93-1.26,3.06,.43,1.1,1.52,1.83,2.65,2.14,1,.27,2.09,.26,3.03-.17,.94-.43,1.68-1.33,1.8-2.35,.11-1-.4-1.99-1.19-2.62-.38-.3-.85-.47-1.33-.5-.86-.06-2.47-.08-3.7,.46Z" fill="#fddcda"/></g></g><g clip-path="url(#b)"><g><path d="M88.61,5.56c-3.77,.75-7.59,1.29-11.43,1.6,4.57,2.73,10.17,3.7,15.39,2.67" fill="#18181e"/><path d="M90.59,14.38c-4.48,1.62-9.73-.51-14.12,1.32,5.34,3.05,11.61,4.46,17.74,3.99" fill="#18181e"/><path d="M9.92,7.25c4.32,.9,8.8,1.03,13.16,.38,.22,1.06-1.06,1.75-2.09,2.04-4.49,1.28-9.07,2.27-13.7,2.93" fill="#18181e"/><path d="M9.88,15.85c4.11,.29,8.26,.11,12.34-.52,.21-.03,.44-.06,.61,.06,.42,.28,.07,.93-.33,1.24-.96,.74-2.13,1.16-3.27,1.57-3.13,1.12-6.26,2.25-9.39,3.37-1.06,.38-2.2,.77-3.3,.51" fill="#18181e"/><path d="M68.75,44.56c-6.03,.71-12.07,1.42-18.1,2.12,6.23,2.08,12.83,3.06,19.39,2.9" fill="#18181e"/><path d="M34.36,52.83c6.51,.08,13.01,.84,19.36,2.26-1.34,1.46-3.55,1.61-5.52,1.8-4.15,.38-8.24,1.34-12.12,2.84" fill="#18181e"/><path d="M45.29,62.38c4.83-.59,9.69-.92,14.55-.98-1.43,1.51-3.12,2.76-4.99,3.67-1.35,.66-2.85,1.15-4.34,.93-1.8-.27-3.28-1.52-4.59-2.79" fill="#18181e"/><path d="M67.42,69.56c-4.92,.56-9.74,1.93-14.22,4.04,5.92,.84,11.86,1.47,17.82,1.87" fill="#18181e"/><path d="M34.03,72.12c4.83-.32,9.66-.64,14.5-.96-5.04,2.66-10.09,5.32-15.13,7.98" fill="#18181e"/></g></g><path d="M39.71,33.69s18.97,1.54,20.51,0c.41-.41,.61-.9,.45-1.45-2.39-7.86-5.79-18.52-10.48-25.26-.56-.81-1.24-1.65-2.2-1.87-2.03-.46-3.41,1.98-4,3.98-2.45,8.19-3.18,16.13-4.27,24.61" fill="#f2e8da"/><path d="M60.67,32.23c-5.35-1.02-10.85-1.24-16.27-.68-1.77,.19-3.76,.6-4.68,2.13-1.23,2.05,.31,4.7,2.2,6.16,4.19,3.24,10.42,3.54,14.91,.73,1.59-1,3.01-2.42,3.57-4.21,.52-1.65,.72-2.43,.27-4.13" fill="#18181e"/></svg>