<?xml version="1.0" encoding="UTF-8"?><svg id="a" xmlns="http://www.w3.org/2000/svg" viewBox="0 0 100 100"><g><path d="M58.5,22.21c-.52-1.2-1.71-2.09-3.01-2.24-.93-.11-1.89,.14-2.69,.63-1.43,.88-2.33,2.56-2.28,4.23,.05,1.68,1.06,3.29,2.55,4.08-1.88,.48-3.35,2.39-3.28,4.34s1.62,3.73,3.53,4.07c-1.5,.92-2.32,2.94-2.08,4.68,.24,1.74,1.59,3.28,3.28,3.75-1.41,.46-2.36,2.17-2.38,3.66-.02,1.48,.85,2.92,2.11,3.69,1.26,.78,2.86,.92,4.29,.52l-.04-31.4Z" fill="#a5d0e0"/><path d="M62.53,17.72c2.7,1.01,5.53,1.71,8.39,2.08,1.63,.21,3.29,.31,4.91,.05,1.62-.26,3.22-.89,4.42-2,2.11-1.94,2.74-5.32,1.46-7.89-1.28-2.57-4.36-4.1-7.18-3.59-2.82,.52-5.15,3.05-5.43,5.9-.58-1.53-2.29-2.34-3.9-2.09-1.61,.25-2.97,1.55-3.46,3.11-.49,1.56-.06,3.03,.8,4.42Z" fill="#a5d0e0"/></g><g><path d="M74.29,17.37l4.34-11.97c.22-.61,.89-.92,1.5-.69h0c.48,.18,.78,.66,.74,1.18l-1.03,12.35s-1.6,1.07-5.55-.87Z" fill="#feef4c"/><g><path d="M63.86,19.69c.33-3.77-2.36-7.59-6.02-8.55-1.51-.4-3.31-.27-4.37,.88-.9,.98-1.03,2.46-.85,3.78,.56,4,3.88,7.54,7.89,8.08,1.21-1.31,2.14-2.87,3.36-4.18Z" fill="#fd9095"/><path d="M61.26,20.49c-.59-2.15-1.86-4.1-3.57-5.52-.52-.43-1.17-.83-1.82-.68-.66,.15-1.08,.85-1.12,1.52-.04,.68,.23,1.33,.55,1.93,1,1.91,2.52,3.54,4.34,4.68,.45-.56,1.17-1.38,1.62-1.93Z" fill="#fdcad5"/></g></g><path d="M87.67,21.58c-5.29-6.17-15.63-5.66-23.08-4.25-1.35,.26-2.6,.75-3.71,1.46-3.05,1.92-5,5.32-5,9.1v9.66c0,.87,.05,2.6,.12,5.17,.06,2.58,.11,4.93,.11,7.03,0,3.5-.12,6.55-.36,9.16-.23,2.63-.66,5.21-1.28,7.75-.63,2.55-1.58,4.52-2.85,5.9-1.26,1.37-2.88,2.07-4.84,2.07-8.18,0-12.7-6.41-13.55-19.21-.11-1.47-.15-3.03-.15-4.69,0-.4,0-.81,.01-1.23,.03-2.15-.03-4.31-.35-6.44-2.74-18.09-10.72-22.22-14.72-23.81-.02,0-.02-.02-.02-.02-.01,0-.03-.01-.05,0,0,0-1.35-.36-2.03-.53-.24-.06-.47-.12-.71-.18-2.15-.54-4.33-1.08-6.55-.98-2.21,.09-4.49,.92-5.86,2.66-1.2,1.55-1.53,3.72-.84,5.56,.35,.93,.95,1.76,1.71,2.39,.74,.63,1.62,1.07,2.57,1.25-.95,.06-1.88,.47-2.69,1.1-.92,.71-1.65,1.67-2.07,2.64-.8,1.85-.45,4.11,.84,5.65,1.29,1.53,3.48,2.24,5.42,1.76-1.91,1.25-2.06,4.18-.89,6.13,.98,1.62,2.73,2.61,4.61,2.97,1.29,30.49,12.55,45.71,33.79,45.71,7.03,0,13.05-2.07,18.07-6.25,5.02-4.18,8.68-9.57,11.01-16.17,2.31-6.62,3.48-14.06,3.48-22.33,0-2.82-.09-5.51-.27-8.08,4.85-.42,7.96-2.37,9.94-4.6,4.07-4.58,4.16-11.7,.17-16.35Z" fill="#fd9095"/><path d="M87.67,21.58s4.08,1.34,7.48,4.45c3.08,2.81,4.54,7.08,3.38,11.08-.16,.54-.35,1.09-.61,1.64-2.23,4.91-7.93,7.21-13.09,5.66-1.76-.53-3.96-1.2-6.46-1.96,0,0-5.18-17.04,9.3-20.86Z" fill="#fdcad5"/><g><path d="M67.23,25.36c0,2.58,1.72,4.67,3.83,4.67s3.83-2.09,3.83-4.67-1.72-4.67-3.83-4.67-3.83,2.09-3.83,4.67Z" fill="#fff"/><path d="M68.87,25.89c0,1.86,1.25,3.37,2.8,3.37s2.8-1.51,2.8-3.37-1.25-3.37-2.8-3.37-2.8,1.51-2.8,3.37Z"/><path d="M68.35,23.4c0,.77,.63,1.4,1.4,1.4s1.4-.63,1.4-1.4-.63-1.4-1.4-1.4-1.4,.63-1.4,1.4Z" fill="#fff"/></g></svg>