<?xml version="1.0" encoding="UTF-8"?><svg id="a" xmlns="http://www.w3.org/2000/svg" viewBox="0 0 100 100"><path d="M97.89,7.86c-1.41,2.05-2.7,5.15-1.63,8.86,.34,1.16-.17,2.4-1.17,3.07-2.67,1.76-6.86,5.61-4.87,11.36,.5,1.48,.3,3.09-.39,4.5-3.61,7.28-14.05,28.99-20.85,49.35-1.19,3.58-4.48,6.03-8.24,6.11l-10.74,.23-10.74-.23c-3.76-.08-7.05-2.53-8.24-6.11-6.8-20.36-17.24-42.06-20.85-49.35-.69-1.41-.89-3.02-.39-4.5,2-5.76-2.2-9.6-4.87-11.36-1.01-.67-1.51-1.91-1.17-3.07,1.07-3.71-.22-6.81-1.63-8.86-.92-1.34-.1-3.16,1.53-3.36,1.09-.13,2.23-.22,3.42-.3,4.77-.29,10.17-.13,14.84,.15,6.7,.4,12.35,5.09,14.03,11.56l14.07,54.01,14.07-54.01c1.68-6.48,7.33-11.16,14.03-11.56,4.67-.29,10.07-.44,14.84-.15,1.19,.08,2.33,.17,3.42,.3,1.63,.2,2.45,2.01,1.53,3.36Z" fill="#6a535c"/><g><g><path d="M33.71,67.99s-3.68-6.6-3.27-13.07c.06-.88,.79-1.57,1.67-1.53,2.34,.12,7,1.17,10.85,7.12l-9.25,7.48Z" fill="#89747c"/><path d="M66.29,67.99s3.68-6.6,3.27-13.07c-.06-.88-.79-1.57-1.67-1.53-2.34,.12-7,1.17-10.85,7.12l9.25,7.48Z" fill="#89747c"/><path d="M63.12,64.4s2.43-6.34,4.9-7.33c0,0,.8,5.34-3.1,8.68l-1.8-1.35Z" fill="#fdcad5"/><path d="M36.88,64.4s-2.43-6.34-4.9-7.33c0,0-.8,5.34,3.1,8.68l1.8-1.35Z" fill="#fdcad5"/></g><ellipse cx="50" cy="76.99" rx="22.2" ry="18.96" fill="#89747c"/><g><g><ellipse cx="50" cy="87.25" rx="7.85" ry="7.16" fill="#fdcad5"/><g><path d="M53.34,80.82c0,1.43-1.5,2.6-3.34,2.6s-3.34-1.16-3.34-2.6,1.5-2.6,3.34-2.6,3.34,1.16,3.34,2.6Z" fill="#6a535c"/><path d="M51.69,80.01c0,.57-.76,1.04-1.69,1.04s-1.69-.47-1.69-1.04,.76-1.04,1.69-1.04,1.69,.47,1.69,1.04Z" fill="#89747c"/></g></g><g><g><path d="M45.5,76.1c0,3.11-2.17,5.62-4.86,5.62s-4.86-2.52-4.86-5.62,2.17-5.62,4.86-5.62,4.86,2.52,4.86,5.62Z" fill="#fff"/><ellipse cx="41.59" cy="76.7" rx="3.42" ry="4.13" fill="#6a535c"/><path d="M40.78,73.52c0,.92-.74,1.66-1.66,1.66s-1.66-.74-1.66-1.66,.74-1.66,1.66-1.66,1.66,.74,1.66,1.66Z" fill="#fff"/></g><g><path d="M54.5,76.1c0,3.11,2.17,5.62,4.86,5.62s4.86-2.52,4.86-5.62-2.17-5.62-4.86-5.62-4.86,2.52-4.86,5.62Z" fill="#fff"/><ellipse cx="58.41" cy="76.7" rx="3.42" ry="4.13" fill="#6a535c"/><path d="M59.22,73.52c0,.92,.74,1.66,1.66,1.66s1.66-.74,1.66-1.66-.74-1.66-1.66-1.66-1.66,.74-1.66,1.66Z" fill="#fff"/></g></g></g></g></svg>