<?xml version="1.0" encoding="UTF-8"?><svg id="a" xmlns="http://www.w3.org/2000/svg" xmlns:xlink="http://www.w3.org/1999/xlink" viewBox="0 0 100 100"><defs><clipPath id="b"><path d="M86.59,10.8c-2.19,0-4.24,.56-6.04,1.53-2.44,1.35-4.39,3.47-5.51,6.02-.09,.22-.18,.46-.28,.71,0,.01-.01,.04-.01,.06-5.14,13.28-10.46,37.15-10.46,37.15-1.84-4.26-5.58-8.56-8.58-11.54-2.38-2.39-6.26-2.39-8.64-.01-3,3-6.74,7.3-8.58,11.56,0,0-.5-2.23-1.34-5.73-1.73-7.23-3.25-14.53-4.26-21.88-1.07-7.8-4.54-19.26-15.61-19.84-3.99-.21-7.99,.95-11.12,3.44-4.98,3.98-10.05,12.82,2.53,30.7h.01c5.07,16.14,11.97,36.09,17.58,45.12,.94,1.51,2.51,2.5,4.27,2.73,2.31,.29,5.77,.6,9.05,.34,2.44-.21,4.48-1.91,5.17-4.26,1.22-4.13,3.35-11.19,5.4-17.13,.4-1.15,2.01-1.15,2.41,0,2.06,5.93,4.19,13,5.41,17.13,.69,2.35,2.73,4.05,5.17,4.26,3.28,.26,6.74-.04,9.05-.34,1.76-.24,3.33-1.22,4.27-2.73,7.62-12.25,17.61-44.64,22.19-60.31,.37-1.23,.51-2.5,.47-3.72h0c.01-.22,.01-.44,.01-.65,0-6.95-5.64-12.59-12.59-12.59Z" fill="none"/></clipPath></defs><path d="M86.59,10.8c-2.19,0-4.24,.56-6.04,1.53-2.44,1.35-4.39,3.47-5.51,6.02-.09,.22-.18,.46-.28,.71,0,.01-.01,.04-.01,.06-5.14,13.28-10.46,37.15-10.46,37.15-1.84-4.26-5.58-8.56-8.58-11.54-2.38-2.39-6.26-2.39-8.64-.01-3,3-6.74,7.3-8.58,11.56,0,0-.5-2.23-1.34-5.73-1.73-7.23-3.25-14.53-4.26-21.88-1.07-7.8-4.54-19.26-15.61-19.84-3.99-.21-7.99,.95-11.12,3.44-4.98,3.98-10.05,12.82,2.53,30.7h.01c5.07,16.14,11.97,36.09,17.58,45.12,.94,1.51,2.51,2.5,4.27,2.73,2.31,.29,5.77,.6,9.05,.34,2.44-.21,4.48-1.91,5.17-4.26,1.22-4.13,3.35-11.19,5.4-17.13,.4-1.15,2.01-1.15,2.41,0,2.06,5.93,4.19,13,5.41,17.13,.69,2.35,2.73,4.05,5.17,4.26,3.28,.26,6.74-.04,9.05-.34,1.76-.24,3.33-1.22,4.27-2.73,7.62-12.25,17.61-44.64,22.19-60.31,.37-1.23,.51-2.5,.47-3.72h0c.01-.22,.01-.44,.01-.65,0-6.95-5.64-12.59-12.59-12.59Z" fill="#f28519"/><g clip-path="url(#b)"><g><path d="M8.76,41.36c-1.05,0-1.67-.05-1.7-.05-.4-.03-.7-.39-.67-.79,.04-.4,.41-.69,.79-.67,.17,.02,16.92,1.31,25.29-10.47,.23-.33,.69-.41,1.02-.17,.33,.23,.41,.69,.17,1.02-7.23,10.18-20.27,11.13-24.91,11.13Z" fill="#d66d0f"/><path d="M13.13,50.85c-1.39,0-2.23-.12-2.26-.12-.4-.06-.68-.43-.62-.83,.06-.4,.44-.68,.83-.62,.14,.02,14.05,1.92,22.9-10.94,.23-.34,.69-.42,1.02-.19,.33,.23,.42,.69,.19,1.02-7.18,10.44-17.54,11.68-22.07,11.68Z" fill="#d66d0f"/><path d="M14.33,60.67c-.39,0-.71-.31-.73-.7-.02-.4,.29-.75,.7-.77,.18,0,17.95-.99,21.1-13.42,.1-.39,.5-.64,.89-.53,.39,.1,.63,.5,.53,.89-3.42,13.48-21.68,14.48-22.46,14.52-.01,0-.02,0-.04,0Z" fill="#d66d0f"/><path d="M18.94,73.14c-.29,0-.57-.17-.68-.46-.15-.38,.03-.8,.41-.96,14.19-5.72,18.39-18.63,18.43-18.76,.12-.39,.53-.6,.92-.48,.39,.12,.6,.53,.48,.92-.17,.56-4.42,13.69-19.28,19.68-.09,.04-.18,.05-.27,.05Z" fill="#d66d0f"/><path d="M47.69,78.08s-.02,0-.03,0c-.41-.02-.72-.36-.7-.77,.69-14.63-5.29-26.73-5.35-26.85-.18-.36-.04-.8,.33-.99,.37-.18,.8-.04,.99,.33,.06,.12,6.22,12.55,5.51,27.58-.02,.39-.34,.7-.73,.7Z" fill="#d66d0f"/><path d="M33.07,91.78c-.11,0-.23-.03-.34-.08-.36-.19-.5-.63-.31-.99,6.63-12.76,5.48-34.53,5.46-34.75-.02-.4,.29-.75,.69-.77,.39-.05,.75,.29,.77,.69,.05,.91,1.19,22.39-5.63,35.51-.13,.25-.39,.4-.65,.4Z" fill="#d66d0f"/><path d="M51.15,69.65s-.07,0-.1,0c-.4-.06-.68-.43-.62-.83,.03-.19,2.62-18.7,.04-25.63-.14-.38,.05-.8,.43-.95,.38-.14,.8,.05,.95,.43,2.72,7.28,.15,25.58,.04,26.35-.05,.37-.37,.63-.73,.63Z" fill="#d66d0f"/><path d="M55.25,78.54c-.16,0-.31-.05-.45-.15-.32-.25-.38-.71-.13-1.03,7.28-9.46,3.33-29.14,3.29-29.34-.08-.4,.17-.78,.57-.87,.38-.09,.78,.17,.87,.57,.17,.83,4.13,20.54-3.56,30.53-.14,.19-.36,.29-.58,.29Z" fill="#d66d0f"/><path d="M67.14,91.93c-.06,0-.12,0-.18-.02-.39-.1-.63-.5-.53-.89,4.02-15.97-2.75-34.32-2.82-34.5-.14-.38,.05-.8,.43-.95,.38-.15,.8,.05,.95,.43,.07,.19,7.01,18.95,2.87,35.37-.08,.33-.38,.56-.71,.56Z" fill="#d66d0f"/><path d="M82.31,76.95c-.37,0-.69-.28-.73-.66-1.7-17.4-16.31-24.12-16.46-24.18-.37-.17-.54-.6-.37-.97,.16-.37,.6-.54,.97-.37,.15,.07,15.55,7.14,17.33,25.38,.04,.4-.26,.76-.66,.8-.02,0-.05,0-.07,0Z" fill="#d66d0f"/><path d="M87.77,62.67c-.34,0-.64-.24-.72-.58-3.29-15.57-19.28-16.87-19.96-16.91-.4-.03-.71-.38-.68-.78,.03-.4,.39-.71,.78-.68,.18,.01,17.78,1.41,21.3,18.08,.08,.4-.17,.79-.57,.87-.05,.01-.1,.02-.15,.02Z" fill="#d66d0f"/><path d="M92.29,49.31c-.26,0-.52-.14-.65-.39-6.69-12.77-22.09-12.12-22.24-12.12-.4,.05-.75-.29-.77-.69-.02-.41,.29-.75,.69-.77,.15-.02,16.48-.71,23.62,12.91,.19,.36,.05,.8-.31,.99-.11,.06-.23,.08-.34,.08Z" fill="#d66d0f"/><path d="M95.81,38.13c-.26,0-.5-.13-.64-.37-5.49-9.65-23.04-9.78-23.22-9.78-.41,0-.73-.33-.73-.73s.33-.73,.73-.73h0c.76,0,18.58,.12,24.5,10.52,.2,.35,.08,.8-.28,1-.11,.07-.24,.1-.36,.1Z" fill="#d66d0f"/><path d="M98.82,27.98c-.23,0-.46-.11-.61-.32-6.68-9.79-22.95-8.59-23.11-8.58-.44,.03-.76-.27-.79-.67-.03-.4,.27-.76,.67-.79,.7-.06,17.28-1.28,24.44,9.22,.23,.34,.14,.79-.19,1.02-.13,.09-.27,.13-.41,.13Z" fill="#d66d0f"/></g></g><g><path d="M2.73,19.28c.43,1.05,1.47,1.83,2.6,1.93,1.13,.11,2.3-.46,2.92-1.41" fill="none" stroke="#6a535c" stroke-linecap="round" stroke-linejoin="round" stroke-width=".78"/><g><path d="M18.14,20.4c-1.83,2.07-4.71,2.52-6.44,1-1.73-1.52-1.65-4.44,.18-6.51,1.83-2.07,4.71-2.52,6.44-1,1.73,1.52,1.65,4.44-.18,6.51Z" fill="#fff"/><path d="M16.58,19.33c-1.22,1.38-3.16,1.66-4.33,.63-1.18-1.04-1.14-3,.08-4.38,1.22-1.38,3.16-1.66,4.33-.63,1.18,1.04,1.14,3-.08,4.38Z" fill="#6a535c"/><path d="M18.81,18.15c-.51,.58-1.4,.64-1.98,.12s-.64-1.4-.12-1.98c.51-.58,1.4-.64,1.98-.12,.58,.51,.64,1.4,.12,1.98Z" fill="#fff"/></g></g></svg>