<?xml version="1.0" encoding="UTF-8"?><svg id="a" xmlns="http://www.w3.org/2000/svg" viewBox="0 0 100 100"><path d="M7.16,14.3c.52-1.45,1.24-2.89,2.17-4.35,.93-1.45,2.1-2.77,3.49-3.96,1.4-1.19,3.03-2.17,4.89-2.95,1.86-.78,3.93-1.16,6.21-1.16,3,0,5.64,.75,7.92,2.25,2.27,1.5,4.6,4.06,6.98,7.68l12.11,18.47L68.78,3.9c.83-.41,1.99-.8,3.49-1.16,1.5-.36,2.97-.54,4.42-.54,4.76,0,8.48,1.14,11.18,3.42,2.69,2.28,4.04,5.07,4.04,8.38,0,2.9-.75,5.49-2.25,7.76-1.5,2.28-3.55,5.02-6.13,8.23l-15.99,19.56,25.3,36.17c-.83,3.83-2.61,6.86-5.36,9.08-2.74,2.22-6.44,3.34-11.1,3.34-3,0-5.59-.75-7.76-2.25-2.17-1.5-4.4-4.06-6.67-7.68l-12.57-19.87-19.56,29.49c-.83,.1-1.61,.18-2.33,.23-.73,.05-1.45,.08-2.17,.08-5.9,0-10.24-1.19-13.04-3.57-2.79-2.38-4.19-5.33-4.19-8.85,0-3,.64-5.61,1.94-7.84,1.29-2.22,3.13-4.84,5.51-7.84l16.3-20.96L7.16,14.3Z" fill="#bfd7df"/><g><g><path d="M28.52,24.07c10.88,11.82,21.2,24.15,30.91,36.95,2.74,3.62,5.44,7.27,8.08,10.96,.54,.76,1.82,.03,1.27-.74-9.39-13.09-19.39-25.74-29.98-37.89-3.03-3.48-6.12-6.92-9.24-10.32-.64-.7-1.67,.34-1.04,1.04h0Z" fill="#18181e"/><path d="M30.32,34.54c1.06-2.21,2.87-4.03,4.76-5.54s4.1-2.83,6.48-3.35c.92-.2,.53-1.61-.39-1.41-2.58,.56-4.94,2-6.99,3.61s-4,3.58-5.13,5.95c-.41,.85,.86,1.59,1.27,.74h0Z" fill="#18181e"/><path d="M36.52,43.34c2.5-3.71,6.26-6.49,10.54-7.81,.9-.28,.51-1.69-.39-1.41-4.65,1.44-8.69,4.45-11.41,8.49-.53,.78,.74,1.52,1.27,.74h0Z" fill="#18181e"/><path d="M43.3,52.39c1.43-1.78,3.5-3.07,5.43-4.23s4.07-2.3,6.23-3.17c.86-.35,.49-1.76-.39-1.41-2.28,.91-4.47,2.06-6.58,3.32s-4.23,2.59-5.73,4.46c-.58,.73,.45,1.77,1.04,1.04h0Z" fill="#18181e"/><path d="M51.7,62.73c1.63-1.62,3.33-3.19,5.28-4.42,1.74-1.09,3.63-1.88,5.54-2.62,.87-.34,.49-1.75-.39-1.41-2.02,.78-4.04,1.61-5.89,2.76-2.06,1.29-3.86,2.94-5.58,4.65-.67,.67,.37,1.7,1.04,1.04h0Z" fill="#18181e"/><path d="M57.99,69.11c2.97-2.48,6.18-4.66,9.56-6.53,.83-.46,.09-1.72-.74-1.27-3.5,1.93-6.79,4.2-9.86,6.76-.72,.61,.32,1.64,1.04,1.04h0Z" fill="#18181e"/><path d="M23.5,28.06c2.7-2.38,5.4-4.77,8.1-7.15,.64-.56,1.28-1.12,1.91-1.69,.49-.44,.98-.96,.95-1.66-.03-.61-.45-1.04-.89-1.42-.61-.52-1.22-1.02-1.85-1.51-2.19-1.69-4.88-3.29-7.77-3.03-1.32,.12-2.63,.61-3.48,1.66s-1.11,2.53-1.19,3.91c-.22,3.67,.52,7.33,2.01,10.68,.38,.86,1.65,.12,1.27-.74-1.1-2.48-1.73-5.17-1.83-7.88-.09-2.36-.09-5.47,2.75-6.08,2.38-.51,4.79,.78,6.66,2.12,.5,.36,.98,.73,1.45,1.12,.23,.19,.45,.37,.68,.56,.14,.11,.63,.42,.69,.61,.12,.41-.98,1.1-1.25,1.34-.6,.53-1.2,1.06-1.8,1.59-2.48,2.18-4.95,4.37-7.43,6.55-.71,.63,.33,1.66,1.04,1.04h0Z" fill="#18181e"/></g><path d="M67.48,70.11c.43,3.27,.83,6.53,1.21,9.8,.3,2.56,.7,5.6-1.01,7.77l.92,.24c-1.53-3.69-2.32-7.64-2.26-11.63,.01-.94,.07-1.88,.18-2.81,.06-.52,.08-2.95,1.2-2.51,.36,.14,.73,.69,1,.96,.34,.35,.68,.69,1.02,1.02,.69,.67,1.41,1.31,2.15,1.93,1.39,1.17,2.85,2.25,4.37,3.24,1.29,.83,2.94,2.15,4.57,2.03,1.34-.1,2.05-1.38,1.83-2.62-.27-1.53-1.76-2.45-2.95-3.24-3.52-2.36-7.43-4.08-11.53-5.15-.68-.18-.98,.88-.29,1.06,3.59,.93,7.03,2.38,10.18,4.34,1.16,.72,3.81,2,3.51,3.69-.39,2.15-4.03-.57-4.9-1.14-1.53-1-3-2.1-4.38-3.29-.69-.59-1.36-1.21-2.01-1.85-.59-.57-1.12-1.26-1.77-1.76-3.14-2.38-3.23,4.44-3.26,5.93-.09,4.14,.71,8.27,2.3,12.09,.14,.33,.63,.61,.92,.24,1.72-2.19,1.71-4.97,1.43-7.62-.38-3.58-.85-7.16-1.32-10.73-.09-.69-1.19-.7-1.1,0h0Z" fill="#18181e"/></g></svg>