<?xml version="1.0" encoding="UTF-8"?><svg id="a" xmlns="http://www.w3.org/2000/svg" viewBox="0 0 100 100"><path d="M64.61,90.82c-1.08,.29-2.74,.59-4.99,.88-2.25,.29-4.46,.44-6.61,.44-4.5,0-7.88-.76-10.13-2.28-2.25-1.52-3.38-4.72-3.38-9.62v-19.83c-2.45-3.62-5.09-7.64-7.93-12.04-2.84-4.41-5.63-8.91-8.37-13.51-2.74-4.6-5.29-9.13-7.64-13.59-2.35-4.45-4.26-8.54-5.73-12.26,1.27-1.76,3.01-3.38,5.21-4.85,2.2-1.47,4.92-2.2,8.15-2.2,3.82,0,6.93,.78,9.33,2.35,2.4,1.57,4.67,4.51,6.83,8.81l12.19,24.53h.88c1.37-3.03,2.57-5.8,3.6-8.3,1.03-2.5,2.03-4.99,3.01-7.49,.98-2.5,2.01-5.09,3.08-7.78,1.08-2.69,2.3-5.8,3.67-9.33,1.76-.88,3.72-1.56,5.87-2.06,2.15-.49,4.21-.73,6.17-.73,3.43,0,6.34,.91,8.74,2.72,2.4,1.81,3.6,4.53,3.6,8.15,0,1.17-.25,2.59-.73,4.26-.49,1.67-1.62,4.19-3.38,7.56-1.76,3.38-4.33,7.96-7.71,13.73-3.38,5.78-7.96,13.32-13.73,22.62v29.81Z" fill="#e1ab55"/><g><g><path d="M37.3,35.3c-1.1,.56-1.91,1.56-2.6,2.58-4.18,6.19-4.87,14.57-1.78,21.36,1.18,2.59,3.03,5.08,5.7,6.08,2.67,1,6.21-.03,7.21-2.7-3.99,.04-7.89-2.46-9.52-6.09-.72-1.6-1.02-3.36-1.26-5.09-.4-2.92-.66-5.89-.21-8.8,.45-2.91,1.66-5.78,3.81-7.79" fill="#f2e8da"/><path d="M45.82,62.85c-.71,3.2-2.62,6.05-5.07,8.24-2.44,2.19-5.33,3.82-8.18,5.43-.88,.5-1.79,1-2.79,1.09s-2.13-.37-2.49-1.31c-.25-.65-.1-1.38,.16-2.03,.98-2.48,3.29-4.14,5.55-5.55,3.85-2.4,7.91-4.48,12.11-6.2,0,0,.87-.31,.72,.34Z" fill="#c48123"/></g><g><path d="M57.82,62.36c2.71-1.55,5.22-3.45,7.45-5.64,1.18-1.16,2.31-2.43,2.97-3.95,.58-1.32,.78-2.78,.85-4.22,.19-4.15-.71-8.34-2.61-12.04-.48-.93-.87-2.35,.09-2.79,.84-.38,1.66,.56,2.08,1.39,2.87,5.64,4.2,12.07,3.78,18.39-.16,2.44-.62,4.98-2.12,6.9-1.45,1.86-3.69,2.91-5.88,3.77-1.26,.5-2.58,.97-3.94,.97-1.36,0-2.79-.56-3.51-1.72" fill="#f2e8da"/><path d="M57.02,63.09c1.59,5.65,7.77,8.95,13.08,11.44,1.77,.83,4.15,1.38,5.45-.09,.95-1.07,.77-2.81-.02-4-.8-1.19-2.06-1.98-3.29-2.72-4.39-2.65-9.03-5.34-14.15-5.6,0,0-1.34-.01-1.06,.97Z" fill="#c48123"/></g><path d="M62.39,83.95c-1.87-.3-3.9,0-5.76,.49-2.84,.75-5.62,1.93-8.56,1.96-2.63,.03-5.27-.87-7.87,.09-1.2,.44-2.24,1.38-2.57,2.61-.53,1.95,.88,3.43,2.29,4.52,3.41,2.62,7.61,4.28,11.9,4.42,4.3,.14,8.68-1.28,11.91-4.11,1.65-1.45,3.05-3.36,2.81-5.73-.22-2.17-2.02-3.89-4.17-4.23Z" fill="#976116"/><g><g><path d="M56.79,72.04c-.13,.7,.22,1.35,.76,1.45,.55,.1,1.09-.39,1.22-1.1,.13-.7-.22-1.35-.76-1.45-.55-.1-1.09,.39-1.22,1.1Z" fill="#3e3a36"/><path d="M45.44,72.04c-.13,.7,.22,1.35,.76,1.45,.55,.1,1.09-.39,1.22-1.1,.13-.7-.22-1.35-.76-1.45-.55-.1-1.09,.39-1.22,1.1Z" fill="#3e3a36"/></g><g><path d="M57.24,77.33c-1.1,.41-1.75,1.76-1.39,2.88,.35,1.09,1.36,1.86,2.44,2.22,.95,.32,2.01,.37,2.93,0,.93-.37,1.7-1.19,1.87-2.17,.17-.96-.27-1.95-1-2.6-.35-.31-.79-.5-1.26-.56-.82-.11-2.38-.22-3.6,.23Z" fill="#fddcda"/><path d="M46.98,77.33c1.1,.41,1.75,1.76,1.39,2.88-.35,1.09-1.36,1.86-2.44,2.22-.95,.32-2.01,.37-2.93,0-.93-.37-1.7-1.19-1.87-2.17-.17-.96,.27-1.95,1-2.6,.35-.31,.79-.5,1.26-.56,.82-.11,2.38-.22,3.6,.23Z" fill="#fddcda"/></g></g></g></svg>