<?xml version="1.0" encoding="UTF-8"?><svg id="a" xmlns="http://www.w3.org/2000/svg" xmlns:xlink="http://www.w3.org/1999/xlink" viewBox="0 0 100 100"><defs><clipPath id="b"><path d="M50.57,24.93H12.39c-.72-1.14-1.4-2.69-2.02-4.66-.62-1.97-.93-4.04-.93-6.21,0-4.04,.9-6.93,2.72-8.69,1.81-1.76,4.16-2.64,7.06-2.64h57.89c4.55,3.72,6.83,8.69,6.83,14.9,0,2.59-.6,5.15-1.78,7.68-1.19,2.54-2.72,4.94-4.58,7.22l-35.23,42.53h39.73c.72,1.14,1.4,2.69,2.02,4.66,.62,1.97,.93,4.04,.93,6.21,0,4.03-.91,6.93-2.72,8.69-1.81,1.76-4.17,2.64-7.06,2.64H14.1c-1.76-1.45-3.21-3.41-4.35-5.9-1.14-2.48-1.71-5.33-1.71-8.54,0-2.58,.67-5.22,2.02-7.92,1.34-2.69,2.95-5.17,4.81-7.45L50.57,24.93Z" fill="none"/></clipPath><clipPath id="c"><path d="M23.61,24.93H12.39c-.72-1.14-1.4-2.69-2.02-4.66-.62-1.97-.93-4.04-.93-6.21,0-4.04,.9-6.93,2.72-8.69,1.81-1.76,4.16-2.64,7.06-2.64" fill="#18181e"/></clipPath></defs><g><path d="M77.79,4.49c1.21-.75,2.55-1.3,3.93-1.64,3.34-.83,5.74,3.35,3.36,5.84-.51,.53-1.03,1.04-1.58,1.53,1.63,1.09,3.78,.94,5.65,1.53,1.87,.59,3.61,2.84,2.41,4.4-.35,.46-.89,.74-1.4,1-1.77,.9-3.54,1.81-5.31,2.71,2.28-.1,4.95-.04,6.2,2.02,1.02,1.68,.5,3.85-.86,5.27-2.06,2.15-5.09,2.48-7.94,2.75,0,0,0,0,0,0,4.59,1.46,4.18,8.22-.47,9.32-2.01,.47-4.06,.76-6.12,.85h0c3.56,2.74,1.69,8.4-2.74,8.92-1.47,.17-2.95,.22-4.42,.14,1.08,1.79,2.16,3.57,3.24,5.36,.33,.55,.67,1.17,.52,1.79-.18,.75-.99,1.14-1.73,1.37-2.68,.83-5.62,.8-8.28-.08,.02,.02,.04,.04,.05,.06,2.88,2.99,.25,8.11-3.86,7.55-.96-.13-1.91-.36-2.83-.69,3.95,2.06,2.14,10.23-3.58,8.35-2.35-.77-4-2.98-4.26-5.44-.47-4.38,2.26-8.08,4.86-11.43,4.59-5.92,9.18-11.84,13.89-17.66,6.16-7.62,12.9-16.23,12.01-25.99-.27-2.94-1.24-5.83-1.05-8.78" fill="#18181e"/><g><path d="M50.57,24.93H12.39c-.72-1.14-1.4-2.69-2.02-4.66-.62-1.97-.93-4.04-.93-6.21,0-4.04,.9-6.93,2.72-8.69,1.81-1.76,4.16-2.64,7.06-2.64h57.89c4.55,3.72,6.83,8.69,6.83,14.9,0,2.59-.6,5.15-1.78,7.68-1.19,2.54-2.72,4.94-4.58,7.22l-35.23,42.53h39.73c.72,1.14,1.4,2.69,2.02,4.66,.62,1.97,.93,4.04,.93,6.21,0,4.03-.91,6.93-2.72,8.69-1.81,1.76-4.17,2.64-7.06,2.64H14.1c-1.76-1.45-3.21-3.41-4.35-5.9-1.14-2.48-1.71-5.33-1.71-8.54,0-2.58,.67-5.22,2.02-7.92,1.34-2.69,2.95-5.17,4.81-7.45L50.57,24.93Z" fill="#f2e8da"/><g clip-path="url(#b)"><g><path d="M13.04-.09c-1.92,2.47-1.01,6.01-.2,9.03,2.15,8,2.99,16.34,2.49,24.6-.01,.24-.03,.5,.09,.71,.24,.44,.92,.45,1.32,.14,.39-.31,.56-.83,.7-1.31,2.41-8.68-.31-17.84-.92-26.82-.06-.85-.1-1.73-.52-2.47-.48-.85-1.37-1.38-1.95-2.16-.58-.78-.67-2.12,.21-2.53" fill="#18181e"/><path d="M30.26,.7c-1.74,1.36-2.65,3.56-2.95,5.75-.29,2.19-.04,4.41,.14,6.61,.62,7.31,.51,14.69-.31,21.98,1.97-.99,3.96-2.46,4.45-4.61,.36-1.59-.16-3.23-.47-4.84-.4-2.11-.41-4.28-.43-6.43-.04-6.71-.08-13.42-.12-20.13" fill="#18181e"/><path d="M46.37-1.06c-2.3,2.56-4.72,5.38-5.02,8.81-.24,2.83,1.02,5.55,1.57,8.34,.82,4.16,0,8.62-2.26,12.21-.53,.84-1.02,2.18-.12,2.61,.69,.34,1.43-.35,1.87-.99,3.66-5.31,5.17-12.05,4.14-18.41-.38-2.36-1.1-4.75-.64-7.09,.42-2.12,1.8-4.23,1.12-6.29" fill="#18181e"/><path d="M6.71,63.5c-.28,.04-.02-.51,.21-.35,.24,.16,.18,.52,.14,.8-.57,3.45,3.86,5.91,4.11,9.4,.12,1.79-.89,3.44-1.87,4.95-3.22,4.95-6.44,9.9-9.66,14.86,1.06-5.72,4.7-10.72,5.69-16.45,.81-4.68-.21-9.52,.41-14.23" fill="#18181e"/><path d="M62.77-.35c-9.14,6.14-12.47,17.8-15.14,28.49-1.23,4.92-2.46,9.84-3.69,14.75-.63,2.53-1.27,5.08-1.4,7.68-.1,1.98,.09,3.97-.21,5.92-.43,2.76-1.8,5.27-3.05,7.77-5.37,10.76-8.76,22.51-9.95,34.48,2.08-.06,2.93-2.64,3.35-4.68,2.97-14.64,11.73-27.69,14.1-42.44,.56-3.47,.76-7,1.69-10.39,.97-3.51,2.69-6.76,3.87-10.2,3.06-8.96,2.49-19.39,8.15-26.97,1.49-1.99,3.36-4.87,1.55-6.57" fill="#18181e"/><path d="M72.25-2.8c-10.2,19.17-16.65,40.32-18.88,61.92-.1,.94-.18,1.94,.23,2.8,.47,.98,1.5,1.6,1.95,2.58,.45,.99-.43,2.57-1.37,2.03,.43-3.37,1.37-6.64,2.3-9.9,2.56-8.9,5.12-17.8,7.68-26.7,3.09-10.75,6.18-21.51,9.21-32.28" fill="#18181e"/><path d="M85.01-4.17c-3.82,3-5.64,7.91-6.41,12.71-.77,4.8-.69,9.71-1.61,14.48-.85,4.4-2.55,8.61-3.39,13.01-.83,4.41-.7,9.27,1.83,12.97,1.92-1.38,2.74-3.86,2.87-6.22s-.32-4.71-.38-7.07c-.19-6.82,2.77-13.26,4.79-19.78,2.1-6.77,3.21-13.84,3.29-20.92" fill="#18181e"/><path d="M82.72,67.45c-5.64,4.34-9.57,10.84-10.8,17.85-.2,1.16-.33,2.4,.12,3.5,.23,.57,.61,1.08,.8,1.67,.26,.8,.14,1.67,.02,2.51-.27,1.89-.55,3.77-.82,5.66,2.09-1.68,3.41-4.28,3.55-6.95,.11-2.22-.55-4.46-.23-6.66,.27-1.82,1.2-3.47,2.11-5.08,1.41-2.49,2.83-4.98,4.46-7.33,1.55-2.23,3.37-4.63,3.12-7.33-.4-.09-.8-.18-1.2-.28" fill="#18181e"/><path d="M69.37,67.19c-2.47,5.68-5,11.48-9.15,16.08-2.04,2.26-4.46,4.22-6.11,6.78-1.66,2.56-2.42,6.02-.85,8.63,1.46-3.68,3.48-7.14,5.96-10.23,1.27-1.58,2.67-3.07,3.64-4.85,.85-1.56,1.34-3.28,1.93-4.96,.96-2.71,2.2-5.32,3.69-7.77,.57-.94,1.19-1.88,1.39-2.95,.2-1.08-.13-2.34-1.08-2.88" fill="#18181e"/><path d="M52.86,70.51c-6.96,5.37-9.89,14.42-11.62,23.05-.13,.65-.25,1.37,.09,1.94,.34,.58,1.08,1.3,.55,1.72,2.4-2.17,1.83-6,2.55-9.16,.43-1.89,1.37-3.61,2.3-5.3,1.55-2.83,3.1-5.65,4.66-8.48,.99-1.8,1.99-3.65,2.28-5.69" fill="#18181e"/><path d="M29.38,41.42c-.97,10.15-2,20.52-6.26,29.79-1.71,3.71-3.95,7.34-4.21,11.42-.18,2.84,.63,5.65,.75,8.49,.12,2.84-.68,6.04-3.13,7.49-.04-8.19-.07-16.52,2.26-24.38,3.08-10.41,10.26-20.33,8.4-31.02" fill="#18181e"/></g></g></g><g><path d="M34.24,8.97c0,.76,.48,1.37,1.06,1.37s1.06-.61,1.06-1.37-.48-1.37-1.06-1.37-1.06,.61-1.06,1.37Z" fill="#3e3a36"/><path d="M34.49,14.53c-1.13,.5-1.74,1.97-1.29,3.12,.44,1.12,1.55,1.87,2.71,2.19,1.02,.28,2.14,.27,3.1-.18,.96-.44,1.72-1.36,1.84-2.41,.12-1.02-.41-2.04-1.22-2.68-.39-.31-.87-.48-1.36-.51-.87-.06-2.53-.08-3.78,.47Z" fill="#fddcda"/></g></g><g><path d="M23.61,24.93H12.39c-.72-1.14-1.4-2.69-2.02-4.66-.62-1.97-.93-4.04-.93-6.21,0-4.04,.9-6.93,2.72-8.69,1.81-1.76,4.16-2.64,7.06-2.64" fill="#18181e"/><g clip-path="url(#c)"><g><path d="M13.04-.09c-1.92,2.47-1.01,6.01-.2,9.03,2.15,8,2.99,16.34,2.49,24.6-.01,.24-.03,.5,.09,.71,.24,.44,.92,.45,1.32,.14,.39-.31,.56-.83,.7-1.31,2.41-8.68-.31-17.84-.92-26.82-.06-.85-.1-1.73-.52-2.47-.48-.85-1.37-1.38-1.95-2.16-.58-.78-.67-2.12,.21-2.53" fill="#18181e"/><path d="M28.8,2.35c-.8,1.21-1.29,2.64-1.49,4.09-.25,1.85-.11,3.72,.06,5.59,.53-3.22,1-6.44,1.43-9.68Z" fill="#18181e"/><path d="M46.47,11.09c-.85,5.76-1.83,11.5-3.05,17.2,2.91-5.02,4.06-11.04,3.13-16.77-.02-.14-.05-.28-.07-.42Z" fill="#18181e"/><path d="M6.71,63.5c-.28,.04-.02-.51,.21-.35,.24,.16,.18,.52,.14,.8-.57,3.45,3.86,5.91,4.11,9.4,.12,1.79-.89,3.44-1.87,4.95-3.22,4.95-6.44,9.9-9.66,14.86,1.06-5.72,4.7-10.72,5.69-16.45,.81-4.68-.21-9.52,.41-14.23" fill="#18181e"/><path d="M62.77-.35c-9.14,6.14-12.47,17.8-15.14,28.49-1.23,4.92-2.46,9.84-3.69,14.75-.63,2.53-1.27,5.08-1.4,7.68-.1,1.98,.09,3.97-.21,5.92-.43,2.76-1.8,5.27-3.05,7.77-5.37,10.76-8.76,22.51-9.95,34.48,2.08-.06,2.93-2.64,3.35-4.68,2.97-14.64,11.73-27.69,14.1-42.44,.56-3.47,.76-7,1.69-10.39,.97-3.51,2.69-6.76,3.87-10.2,3.06-8.96,2.49-19.39,8.15-26.97,1.49-1.99,3.36-4.87,1.55-6.57" fill="#18181e"/><path d="M72.25-2.8c-10.2,19.17-16.65,40.32-18.88,61.92-.1,.94-.18,1.94,.23,2.8,.47,.98,1.5,1.6,1.95,2.58,.45,.99-.43,2.57-1.37,2.03,.43-3.37,1.37-6.64,2.3-9.9,2.56-8.9,5.12-17.8,7.68-26.7,3.09-10.75,6.18-21.51,9.21-32.28" fill="#18181e"/><path d="M85.01-4.17c-3.82,3-5.64,7.91-6.41,12.71-.77,4.8-.69,9.71-1.61,14.48-.85,4.4-2.55,8.61-3.39,13.01-.83,4.41-.7,9.27,1.83,12.97,1.92-1.38,2.74-3.86,2.87-6.22s-.32-4.71-.38-7.07c-.19-6.82,2.77-13.26,4.79-19.78,2.1-6.77,3.21-13.84,3.29-20.92" fill="#18181e"/><path d="M82.72,67.45c-5.64,4.34-9.57,10.84-10.8,17.85-.2,1.16-.33,2.4,.12,3.5,.23,.57,.61,1.08,.8,1.67,.26,.8,.14,1.67,.02,2.51-.27,1.89-.55,3.77-.82,5.66,2.09-1.68,3.41-4.28,3.55-6.95,.11-2.22-.55-4.46-.23-6.66,.27-1.82,1.2-3.47,2.11-5.08,1.41-2.49,2.83-4.98,4.46-7.33,1.55-2.23,3.37-4.63,3.12-7.33-.4-.09-.8-.18-1.2-.28" fill="#18181e"/><path d="M69.37,67.19c-2.47,5.68-5,11.48-9.15,16.08-2.04,2.26-4.46,4.22-6.11,6.78-1.66,2.56-2.42,6.02-.85,8.63,1.46-3.68,3.48-7.14,5.96-10.23,1.27-1.58,2.67-3.07,3.64-4.85,.85-1.56,1.34-3.28,1.93-4.96,.96-2.71,2.2-5.32,3.69-7.77,.57-.94,1.19-1.88,1.39-2.95,.2-1.08-.13-2.34-1.08-2.88" fill="#18181e"/><path d="M52.86,70.51c-6.96,5.37-9.89,14.42-11.62,23.05-.13,.65-.25,1.37,.09,1.94,.34,.58,1.08,1.3,.55,1.72,2.4-2.17,1.83-6,2.55-9.16,.43-1.89,1.37-3.61,2.3-5.3,1.55-2.83,3.1-5.65,4.66-8.48,.99-1.8,1.99-3.65,2.28-5.69" fill="#18181e"/><path d="M28.48,49.86c-.4-.08-.8-.19-1.19-.32-.99,8.34-6.06,16.36-8.52,24.68-2.32,7.86-2.3,16.19-2.26,24.38,2.45-1.45,3.25-4.65,3.13-7.49-.12-2.84-.93-5.65-.75-8.49,.26-4.07,2.51-7.71,4.21-11.42,3.08-6.7,4.46-13.98,5.37-21.34Z" fill="#18181e"/></g></g></g></svg>