<svg version="1.1" id="Layer_1" xmlns="http://www.w3.org/2000/svg" x="0" y="0" viewBox="0 0 346.2 285.1" xml:space="preserve"><style>.st0{fill:#49d988}.st1{fill:#333}.st2{fill:#ffc1c2}.st3{fill:#fff}.st4{fill:#ffdbdb}</style><path class="st0" d="M172.1 91c127.6.4 130.2 190.2 2.6 194.1C47.1 284.7 44.6 94.9 172.1 91z"/><path class="st0" d="m0 193.3 49-66.6h27.8v66.6h9.3v15.9h-9.3v22.7H49v-22.7H0v-15.9zm49 0v-32.9l-22.9 32.9H49zm210.5 0 49-66.6h27.8v66.6h9.9v15.9h-9.9v22.7h-27.8v-22.7h-49v-15.9zm49.1 0v-32.9l-22.9 32.9h22.9z"/><path class="st1" d="M245 113.8c-8.6-3.6-24.3-2.4-30.9 15.9l33.4 25.3c15.5-9.9 14.6-33.6-2.5-41.2zm-6 28.8-11.7-8.9c6.5-15.2 23.2 1.1 11.7 8.9z"/><path class="st2" d="M238.2 128.2c-3-1.3-8.5-.8-10.8 5.6l11.7 8.9c5.4-3.6 5.1-11.9-.9-14.5z"/><path class="st1" d="M102.5 113.8c-17.2 7.6-18 31.3-2.5 41.2l33.4-25.3c-6.6-18.3-22.4-19.5-30.9-15.9zm6 28.8c-11.5-7.7 5.3-24 11.7-8.9 0 0-11.8 8.8-11.7 8.9z"/><path class="st2" d="M109.3 128.2c-6 2.7-6.3 10.9-.9 14.4l11.7-8.9c-2.3-6.4-7.8-6.8-10.8-5.5z"/><path class="st3" d="M218 212.5c17.2-12.9 34.2-8.4 43.5-4.1 18-118.3-192.6-118-175.5 0 30.8-16.2 67.3 13.7 58.2 47.5 19.1 3.4 40 3.4 59.1 0-2.1-11-2.6-30.4 14.7-43.4zm-44.2-8c-5.9-1.3-8.9-9.6.3-9.1 9.9 0 3 9.1-.3 9.1z"/><path class="st1" d="M174.2 195.4c-9.2-.5-6.3 7.8-.3 9.1 3.2 0 10.1-9.1.3-9.1z"/><path class="st3" d="M129.4 212.5c-17.2-12.9-34.2-8.4-43.5-4.1 4 28.2 28.8 42.3 58.2 47.5 2.2-11.1 2.6-30.4-14.7-43.4zm132.1-4.1c-30.8-16.2-67.3 13.7-58.2 47.5 29.4-5.2 54.2-19.3 58.2-47.5z"/><path class="st4" d="M129.4 212.5c-17.2-12.9-34.2-8.4-43.5-4.1 4 28.2 28.8 42.3 58.2 47.5 2.2-11.1 2.6-30.4-14.7-43.4z"/><path d="M158.8 237.6c2.3 10.1 20.3 12.7 27 4.8-7.2-5.9-19.3-8.2-27-4.8z" fill="#ff7979"/><path class="st1" d="M189 234.9c-.2-17.4-34.5-15.3-30.3 2.7 7.7-3.4 19.8-1.1 27 4.8 2.1-2 3.3-4.6 3.3-7.5z"/><path class="st4" d="M261.5 208.4c-30.8-16.2-67.3 13.7-58.2 47.5 29.4-5.2 54.2-19.3 58.2-47.5z"/><path class="st1" d="M160.7 171.2c14 19.4-34.7 54.2-48.6 34.7-14-19.4 34.8-54.2 48.6-34.7zm26 0c-14 19.4 34.7 54.2 48.6 34.7 14-19.4-34.8-54.2-48.6-34.7z"/><path class="st3" d="M203.1 182.3c-7.4-.1-7.4 11.6 0 11.5 7.5.1 7.5-11.6 0-11.5zm0 7.3c-2 .1-2-3.1 0-3 1.9 0 1.9 3 0 3zm-58.8-7.3c-7.5-.1-7.5 11.6 0 11.5 7.5.1 7.4-11.6 0-11.5zm0 7.3c-2 .1-2-3.1 0-3 1.9 0 1.9 3 0 3z"/><path d="M242.3 117.1c11.8-.6 16.5 31.9 3.8 10.6-5.9-9.4-19.1-10.4-3.8-10.6zm-137.1 0c-11.8-.6-16.5 31.9-3.8 10.6 5.9-9.4 19.1-10.4 3.8-10.6z" fill="#4d4d4d"/><path class="st1" d="M182.1 112.2c4.7-68.9 139.7 6.2 135.3-67.3C316.7 34 327-4.5 266.2.6 205.4 5.7 141.3-1 102.6.1 63.8 1.2 49.8 8.9 49.1 42.3c-.7 33.4 4.6 39.6 61.2 36.6 73.8-3.8 71.8 33.3 71.8 33.3z"/><path class="st3" d="M60.3 39.9c-1-30.6 50.8-30.5 49.8 0 1 30.4-50.9 30.3-49.8 0zm25.1 12.4c14.6 1 14.6-25.9 0-25-15.2-.7-15.5 25.7 0 25zm32.8-6c-.6-21.4 36.2-21.3 35.6 0 .7 21.4-36.4 21.5-35.6 0zm17.8 6.6c6.4.6 6.5-13.7 0-13.1-6.5-.5-6.4 13.6 0 13.1zm25.8-6.6c-.6-21.4 36.2-21.3 35.6 0 .7 21.4-36.4 21.5-35.6 0zm17.7 6.6c6.4.6 6.5-13.7 0-13.1-6.5-.5-6.4 13.6 0 13.1zm63.2-6.7c3.1 23.5-32 17.8-18 3.1 1.7 14.2 10.5-10 .2-8.8-10.5-.5-4.8 29-6.2 35.1h-12.4V31.1c21.4.4 10.1-2.7 8 12.9h1.4c1.5-19.2 27.5-18 27 2.2zm38.2 6.5c.2 13.5-24.3 10.7-31.2 4.6l4.8-7.2c6.2 3.8 14.1 5.1 14.1 2.8 0-4-16.8-3.3-16.8-12.5-2.2-13.6 26.2-10.3 28.3-6.2l-3.1 7.9c-4.4-3.3-13.3-5.2-13.3-2.5-.2 3.5 17.1 3 17.2 13.1zM291.5 17h13L303 47.1h-10L291.5 17zm1 40c-.2 6.9 11.2 6.8 11.1 0 .1-6.9-11.2-6.9-11.1 0z"/></svg>