<svg xmlns="http://www.w3.org/2000/svg" viewBox="0 0 346.19 285.12"><g fill="#49d988"><circle cx="173.39" cy="188.06" r="97.06" transform="rotate(-.78 172.823 187.026)"/><path d="m0 193.33 49.05-66.62H76.8v66.62h9.32v15.94H76.8v22.66H49.05v-22.66H0v-15.94Zm49.04 0v-32.86l-22.92 32.86h22.92Zm210.48 0 49.04-66.62h27.75v66.62h9.88v15.94h-9.88v22.66h-27.75v-22.66h-49.04v-15.94Zm49.04 0v-32.86l-22.92 32.86h22.92Z"/></g><path d="M245.01 113.81c-8.55-3.64-24.33-2.42-30.95 15.87l33.43 25.3c15.53-9.88 14.66-33.57-2.48-41.18Zm-5.97 28.75-11.7-8.85c2.32-6.4 7.84-6.83 10.83-5.55 6 2.66 6.3 10.95.87 14.41Z" fill="#333"/><path d="M238.17 128.16c-2.99-1.27-8.51-.85-10.83 5.55l11.7 8.85c5.43-3.46 5.13-11.75-.87-14.41Z" fill="#ffc1c2"/><path d="M102.48 113.81c-17.15 7.6-18.01 31.3-2.48 41.18l33.44-25.3c-6.62-18.3-22.4-19.52-30.95-15.87Zm5.97 28.75c-5.43-3.46-5.13-11.75.87-14.41 2.99-1.27 8.51-.85 10.83 5.55l-11.7 8.85Z" fill="#333"/><path d="M109.32 128.16c-6 2.66-6.3 10.95-.87 14.41l11.7-8.85c-2.32-6.4-7.84-6.83-10.83-5.55Z" fill="#ffc1c2"/><path d="M217.98 212.52c17.21-12.9 34.22-8.4 43.48-4.1.95-6.77 8.43-88.76-87.7-88.76h-.1c-95.01 0-88.66 81.99-87.71 88.76 9.26-4.3 26.27-8.8 43.48 4.1 17.31 12.98 16.83 32.33 14.73 43.44 9.53 1.71 19.54 2.49 29.5 2.54h.1c9.95-.05 19.97-.83 29.5-2.54-2.1-11.11-2.58-30.47 14.73-43.44Zm-44.15-8.01c-1.98 0-5.25-2.91-5.62-5.58-.49-3.15 3.64-3.4 5.95-3.52 9.83-.02 2.91 9.1-.33 9.1Z" fill="#fff"/><path d="M174.16 195.4c-2.31.12-6.43.36-5.95 3.52.36 2.67 3.64 5.58 5.62 5.58 3.24 0 10.15-9.12.33-9.1Z" fill="#333"/><path d="M129.43 212.52c-17.21-12.9-34.22-8.4-43.48-4.1 3.96 28.19 28.76 42.27 58.21 47.54 2.1-11.11 2.58-30.47-14.73-43.44Zm132.03-4.1c-9.26-4.3-26.27-8.8-43.48 4.1-17.31 12.98-16.83 32.33-14.73 43.44 29.45-5.28 54.25-19.36 58.21-47.54Z" fill="#fff"/><path d="M129.43 212.52c-17.21-12.9-34.22-8.4-43.48-4.1 3.96 28.19 28.76 42.27 58.21 47.54 2.1-11.11 2.58-30.47-14.73-43.44Z" fill="#ffdbdb"/><path d="M158.77 237.64c1.55 5.47 7.65 9.56 14.94 9.56 4.92 0 9.29-1.86 12.09-4.74-7.2-5.95-19.31-8.21-27.03-4.82Z" fill="#ff7979"/><path d="M189.03 234.91c0-6.79-6.86-12.29-15.32-12.29s-15.32 5.5-15.32 12.29c0 .94.14 1.85.38 2.73 7.72-3.39 19.83-1.13 27.03 4.82 2.02-2.08 3.23-4.7 3.23-7.55Z" fill="#333"/><path d="M261.46 208.42c-9.26-4.3-26.27-8.8-43.48 4.1-17.31 12.98-16.83 32.33-14.73 43.44 29.45-5.28 54.25-19.36 58.21-47.54Z" fill="#ffdbdb"/><path d="M160.69 171.24c5.9 8.26-.19 22.72-13.6 32.29s-29.06 10.64-34.96 2.38c-5.89-8.26.19-22.72 13.61-32.29 13.41-9.57 29.06-10.64 34.96-2.38Zm26.03 0c-5.9 8.26.19 22.72 13.6 32.29s29.06 10.64 34.96 2.38c5.9-8.26-.19-22.72-13.6-32.29s-29.06-10.64-34.96-2.38Z" fill="#333"/><path d="M203.11 182.31c-3.17 0-5.74 2.57-5.74 5.75s2.57 5.75 5.74 5.75a5.75 5.75 0 0 0 0-11.5Zm0 7.27a1.52 1.52 0 1 1-.001-3.039 1.52 1.52 0 0 1 .001 3.039Zm-58.81-7.27a5.75 5.75 0 0 0 0 11.5c3.18 0 5.74-2.57 5.74-5.75s-2.57-5.75-5.74-5.75Zm0 7.27a1.52 1.52 0 1 1-.001-3.039 1.52 1.52 0 0 1 .001 3.039Z" fill="#fff"/><path d="M242.29 117.06c6.67 1.83 11.68 8.41 11.67 15.08 0 3.68-3.46 5.51-7.86-4.52-3.29-7.5-11.97-7.37-10.89-9.42.86-1.65 4.61-1.82 7.08-1.14Zm-137.09 0c-6.67 1.83-11.68 8.41-11.68 15.08 0 3.68 3.46 5.51 7.86-4.52 3.29-7.5 11.97-7.37 10.89-9.42-.86-1.65-4.61-1.82-7.08-1.14Z" fill="#4d4d4d"/><path d="M182.07 112.16c5.03-40.35 53.9-31.91 91.19-32.64 30.14-.59 46.23-3.65 44.14-34.62-.74-10.92 9.55-49.45-51.24-44.31-60.8 5.14-124.89-1.57-163.6-.46C63.84 1.24 49.84 8.94 49.1 42.34c-.74 33.39 4.57 39.56 61.24 36.6 73.75-3.85 71.73 33.22 71.73 33.22Z" fill="#333"/><path d="M60.26 39.88c0-12.57 8.83-23.12 24.84-23.12s24.96 10.55 24.96 23.12-8.89 22.94-24.96 22.94-24.84-10.49-24.84-22.94Zm25.19 12.39c6.76 0 11.09-4.92 11.09-12.45s-4.33-12.51-11.09-12.51-11.68 4.86-11.68 12.51 4.68 12.45 11.68 12.45Zm32.73-5.93c0-8.95 6.58-16.12 17.73-16.12s17.84 7.17 17.84 16.12-6.46 16.18-17.84 16.18-17.73-7.23-17.73-16.18Zm17.78 6.58c3.14 0 4.86-2.55 4.86-6.58s-1.72-6.52-4.86-6.52-4.86 2.61-4.86 6.52 1.78 6.58 4.86 6.58Zm25.79-6.58c0-8.95 6.58-16.12 17.72-16.12s17.84 7.17 17.84 16.12-6.46 16.18-17.84 16.18-17.72-7.23-17.72-16.18Zm17.78 6.58c3.14 0 4.86-2.55 4.86-6.58s-1.72-6.52-4.86-6.52-4.86 2.61-4.86 6.52 1.78 6.58 4.86 6.58Zm63.14-6.76c0 10.67-5.51 16.36-12.39 16.36-5.87 0-9.07-3.97-9.07-7.59 0-3.91 1.78-5.45 3.44-5.69-.18.47-.24.95-.24 1.42 0 1.24.65 2.96 2.19 2.96 2.07 0 3.32-2.9 3.32-6.34 0-4.62-2.19-6.82-5.04-6.82-3.32 0-6.17 2.85-6.17 9.01v26.08h-12.45V31.1h11.09c1.54 0 1.66.42 1.66.89 0 2.02-4.74 5.1-4.74 12.03h1.42c0-4.74 4.27-13.81 13.28-13.81 10.2 0 13.69 9.07 13.69 15.95Zm38.18 6.52c0 6.4-5.69 9.84-14.35 9.84-6.52 0-13.1-2.67-16.84-5.22l4.8-7.17c6.17 3.85 14.05 5.1 14.05 2.79 0-3.97-16.84-3.32-16.84-12.45 0-6.4 5.69-10.26 13.69-10.26 8.89 0 14.58 4.09 14.58 4.09l-3.14 7.88c-4.39-3.26-13.28-5.16-13.28-2.49 0 3.44 17.31 2.96 17.31 12.98ZM291.52 17h13.04l-1.48 30.11H293L291.52 17Zm1.01 40.01c0 2.85 2.37 5.28 5.51 5.28s5.57-2.43 5.57-5.28-2.49-5.33-5.57-5.33-5.51 2.49-5.51 5.33Z" fill="#fff"/></svg>