<svg xmlns="http://www.w3.org/2000/svg" viewBox="0 0 2024.85 2024.85"><title>xyloAsset 1</title><rect width="2024.85" height="2024.85" fill="none"/><path d="M1416.93,950.55c-.72-242.17-12.72-490.9-13.43-733.07-264.76,1.92-533.47,3.45-798.23,5.37,2.75,229.64,5.51,509.06,8.26,738.7C880.8,958,1149.65,954.11,1416.93,950.55Z" fill="#f07642"/><path d="M995.84,1800.65c2-243.88-6.37-534-4.35-777.84-259.52-3.49-534.48-3.66-794-7.15q-6.94,394.7-13.88,789.4C479,1805.06,723.16,1812.51,995.84,1800.65Z" fill="#ffcb47"/><path d="M1829.85,1795.83c4.89-239.93,6.49-522.65,11.38-762.57-195.88-7.24-461.71-13-729.73-9.25l-7,762.09C1323.84,1784.6,1610.46,1797.33,1829.85,1795.83Z" fill="#16c172"/><path d="M1339.15,874.6c-1.87-208.19-4.46-376.78-6.33-585-220,5.78-437.27,8-657.28,13.81,4.33,198.58,8.66,386.62,13,585.21C932.84,888.74,1104.45,885.18,1339.15,874.6Z" fill="#16c172"/><path d="M913.4,1736c-5-223.9,5-414.15,0-638.06-202.57-15.05-442.74-14.86-645.67-6,1,210,1.94,433.19,2.91,643.17C375.08,1736.3,698.2,1739.9,913.4,1736Z" fill="#f07642"/><path d="M1750.25,1713.24c-4.57-205.08,4.29-401-.28-606.1-180.88-2.9-375.58-5.59-556.46-8.5-5.73,198.78-3,406-8.75,604.78C1416.93,1713.35,1539.77,1706.34,1750.25,1713.24Z" fill="#ffcb47"/><path d="M1199.9,697.1a1600.09,1600.09,0,0,0-73-204.25c-18.6-42.69-45.94-89.91-92-96.74-25.46-3.78-51.51,6.53-71.4,22.85s-34.43,38.2-47.25,60.52C870.69,558.89,844,648.1,836.48,739.25c-1.79,21.67-7.92,62.36,17,73.73,37.43,17.07,60.5-37.59,68.59-62.91,7-22,14.85-45.58,33.58-59.05,17.7-12.73,41.07-13.4,62.88-13.58,34.77-.29,75.35,2.27,95,30.93,9.1,13.25,11.74,29.72,17,44.9s15.14,30.74,30.79,34.4c19.43,4.55,38.66-12.43,43.84-31.7S1205.33,716.31,1199.9,697.1Zm-148.45-99.17c-4.9,4-11.68,4.71-18,5.08q-17.19,1-34.41.59c-7.26-.16-15.28-.85-20.3-6.1-5.5-5.75-5.31-14.77-4.16-22.64,2.52-17.21,8.42-46.35,21.7-58.91,12.82-12.13,33.78.09,43.22,11.87,8.72,10.89,13,24.6,16.46,38.12C1058.74,577,1060.27,590.7,1051.45,597.93Z" fill="#494edf"/><path d="M867.47,817.28a34.59,34.59,0,0,1-14.41-3.34c-23.55-10.74-20.3-45.8-18.15-69,.19-2,.37-4,.52-5.77,7.66-92.47,35.29-182.44,79.93-260.21,11.71-20.4,26.51-43.58,47.49-60.8,22.16-18.19,48.5-26.61,72.22-23.08,48.29,7.16,76.1,59,92.82,97.36a1605.35,1605.35,0,0,1,73,204.39h0c5.75,20.36,10.49,40.23,5.33,59.43-5.25,19.54-24.64,37.23-45.1,32.45-18.31-4.29-27.62-23.82-31.54-35.08-1.55-4.43-2.88-9-4.17-13.48-3.13-10.77-6.36-21.91-12.73-31.17-18.77-27.32-56.37-30.82-94.16-30.47-24.17.2-45.54,1.34-62.28,13.38-18.82,13.54-26.45,37.43-33.19,58.51-5,15.8-19.33,53.67-43,64.16A31.11,31.11,0,0,1,867.47,817.28Zm156.8-420.89c-20.23,0-41.61,8.23-60.08,23.39-20.72,17-35.38,40-47,60.22-44.48,77.5-72,167.17-79.66,259.33-.15,1.81-.33,3.75-.52,5.79-2.09,22.62-5.26,56.79,16.92,66.9,8.71,4,17.21,4.17,25.28.6,22.9-10.14,36.9-47.34,41.86-62.87,6.5-20.33,14.58-45.64,34-59.58,17.24-12.4,39-13.58,63.49-13.78,38.39-.34,76.59,3.25,95.92,31.38,6.56,9.55,9.84,20.85,13,31.78,1.29,4.43,2.62,9,4.14,13.38,3.78,10.85,12.71,29.66,30,33.71,19,4.47,37.69-12.73,42.58-30.94,5-18.68.35-38.24-5.32-58.31h0A1604.73,1604.73,0,0,0,1126,493.27c-34.5-79.15-68.57-92.76-91.19-96.12A71.81,71.81,0,0,0,1024.27,396.39Zm-15.46,208.38c-3.28,0-6.54,0-9.8-.11-7.37-.17-15.68-.83-21-6.43-6.12-6.4-5.46-16.49-4.43-23.52,3-20.49,9.25-47.45,22-59.53a19.36,19.36,0,0,1,15.24-5.24c11.44.78,23.33,9.48,29.54,17.22,8.87,11.08,13.24,25.06,16.65,38.52,4.1,16.21,2.51,27-4.85,33.07h0c-5.12,4.2-12,4.92-18.62,5.31C1025.32,604.53,1017,604.77,1008.81,604.77Zm.3-92.78A17,17,0,0,0,997,516.71c-12.32,11.66-18.42,38.15-21.37,58.31-1,6.59-1.62,16,3.87,21.75,4.8,5,12.62,5.62,19.57,5.78,11.39.27,22.94.06,34.31-.6,6.27-.36,12.78-1,17.41-4.83h0c6.67-5.48,8-15.59,4.14-30.92-3.34-13.23-7.63-27-16.25-37.72-5.93-7.39-17.23-15.7-28-16.44C1010.12,512,1009.61,512,1009.11,512Z" fill="#3dc5a1"/><path d="M674.85,1417.72c41.73-15,63.5-25.74,81.57-69.29s3.08-100.58-34.64-128.88c-60.44-45.36-125.38-35.56-205.36-36.9-20.36-.34-50.57,1.95-67.95,20.44-12.43,13.24-15.28,32.44-16.79,50.54q-13.19,158.13-26.35,316.26c-1.64,19.67-2.72,41.38,9.29,57,12.75,16.61,35.77,20.66,56.61,22.6,47.31,4.42,95,8.61,142.34,4.15,50.14-4.74,93.16-14.73,121-56.68,22.81-34.34,32.56-83.22,10.34-117.94S703.72,1430.91,674.85,1417.72Zm-73.61,151.41c-19.89,8-42.14,6.49-63.51,4.87-12.36-.93-27-3.32-32.28-14.53-6.31-13.29-.52-35.42.73-49.64,1.59-18.16,4.22-35.61,24.59-40.14,26-5.79,56.53,2.4,78.21,17,11.71,7.89,22.36,19,24.91,32.87C637.76,1540.66,621.13,1561.15,601.24,1569.13Zm24.06-211.82c-11,7.65-24,9.65-36.77,10.55a255.31,255.31,0,0,1-51.38-1.58c-6.87-.9-14.83-3-18-10.7-1.78-4.37-1.49-9.49-1.15-14.31q1.69-24.39,3.4-48.77c.83-11.82-1-22.85,9.1-26.71,20.76-8,51.67.36,72.17,7.49,9.53,3.31,19,7.65,26.92,15.18s14,18.73,14.56,30.91C645,1335.17,636.32,1349.65,625.3,1357.31Z" fill="#16c172"/><path d="M1430.52,1313.44c39.78-23.71,94.48-19,129.65,11.13,19.76,16.94,38.88,42.75,64.54,38.37,17-2.92,29.16-20,30.67-37.18s-5.67-34.16-15.33-48.5c-38.89-57.73-117.68-79.68-185.66-64.67-79.8,17.61-147.92,83.44-164.47,163.47s21.8,169.47,93.09,209.42,184.92,24.42,237.8-37.89c14.8-17.45,26.37-39.23,25.24-62.08s-18.35-45.8-41.19-47.31c-17.31-1.14-33.24,9.57-45.37,22s-22.15,27-36,37.44c-23.1,17.34-70.81,20.45-96.75,7.74C1352.67,1469.08,1366.86,1351.38,1430.52,1313.44Z" fill="#f07642"/><path d="M1342.47,895a15.81,15.81,0,0,1-15.81-15.44c-2.48-104.14-4.48-200-6.42-292.6-1.84-88-3.74-178.88-6-277-67.82-.78-129.61-1.11-188.4-1.05h0a15.82,15.82,0,0,1,0-31.64c63.34-.07,130.09.32,204.09,1.24A15.81,15.81,0,0,1,1345.46,294c2.48,104,4.48,199.78,6.41,292.35s3.94,188.42,6.42,292.51A15.81,15.81,0,0,1,1342.85,895Z" fill="#1a1d3f"/><path d="M820.65,905.07c-16.3,0-31.28-.11-48.46-.24-22.2-.16-47.35-.35-83.66-.37A15.81,15.81,0,0,1,672.72,889c-2.17-99.28-2.75-124.41-3.32-149.55s-1.16-50.27-3.33-149.58a15.82,15.82,0,0,1,31.63-.69c2.17,99.28,2.75,124.41,3.32,149.55.55,23.78,1.1,47.56,3,134.12,28.36.06,49.46.21,68.42.36,37,.27,63.74.47,115.75-.37h.26a15.82,15.82,0,0,1,.26,31.63C860.49,904.92,839.67,905.07,820.65,905.07Z" fill="#1a1d3f"/><path d="M568.51,1754h-.11c-35.35-.23-65.11-.37-91.49-.5-79.92-.39-128.16-.62-206.67-2.61a15.82,15.82,0,0,1-15.42-15.74c-.48-104.07-1-211.39-1.44-318.73-.49-109.25-1-218.53-1.46-324.44A15.82,15.82,0,0,1,267,1076.13c204-8.94,301.62-9.39,497.59-2.26a15.82,15.82,0,1,1-1.15,31.62c-190-6.92-287.13-6.67-479.86,1.59.47,101.15.93,205.2,1.4,309.22.45,102.08.91,204.12,1.37,303.37,69.44,1.64,116.31,1.86,190.68,2.22,26.39.13,56.17.27,91.54.5a15.82,15.82,0,0,1-.1,31.64Z" fill="#1a1d3f"/><path d="M1750.25,1729.06h-.51c-68.42-2.24-166.12-3-233.67-3.42a15.82,15.82,0,1,1,.19-31.64c62.42.37,150.55,1.06,217.84,2.94-1.83-97.16-.8-193.54.19-286.91,1-93.57,2-190.16.18-287.31-79.85-1.37-116.29-2.71-151.6-4-37.33-1.37-75.92-2.79-166.2-4.24a15.82,15.82,0,0,1,.51-31.64c90.6,1.46,129.36,2.88,166.85,4.26,37.32,1.38,75.92,2.79,166.19,4.24a15.82,15.82,0,0,1,15.56,15.47c2.29,102.8,1.2,204.87.15,303.57-1,98.45-2.14,200.25.14,302.53a15.81,15.81,0,0,1-15.82,16.17Z" fill="#1a1d3f"/><path d="M1352.84,1724.74h-.17c-54.36-.57-80.93-1.72-139.14-4.24l-29.45-1.27a15.82,15.82,0,0,1,1.36-31.61l29.46,1.27c57.86,2.51,84.26,3.65,138.1,4.22a15.82,15.82,0,0,1-.16,31.63Z" fill="#1a1d3f"/></svg>