<svg version="1.1" id="Layer_1" xmlns="http://www.w3.org/2000/svg" x="0" y="0" viewBox="0 0 2024.8 2024.8" xml:space="preserve"><style>.st1{fill:#f07642}.st2{fill:#ffcb47}.st3{fill:#6eec99}</style><path d="M0 0h2024.8v2024.8H0V0z" fill="none"/><path class="st1" d="M1416.9 950.5c-.7-242.2-12.7-490.9-13.4-733.1-264.8 1.9-533.5 3.4-798.2 5.4 2.8 229.6 5.5 509.1 8.3 738.7 267.2-3.5 536.1-7.4 803.3-11z"/><path class="st2" d="M995.8 1800.7c2-243.9-6.4-534-4.3-777.8-259.5-3.5-534.5-3.7-794-7.2l-13.9 789.4c295.4 0 539.6 7.4 812.2-4.4z"/><path class="st3" d="M1829.8 1795.8c4.9-239.9 6.5-522.7 11.4-762.6-195.9-7.2-461.7-13-729.7-9.2l-7 762.1c219.3-1.5 506 11.2 725.3 9.7zm-490.7-921.2c-1.9-208.2-4.5-376.8-6.3-585-220 5.8-437.3 8-657.3 13.8 4.3 198.6 8.7 386.6 13 585.2 244.3.1 415.9-3.4 650.6-14z"/><path class="st1" d="M913.4 1736c-5-223.9 5-414.2 0-638.1-202.6-15.1-442.7-14.9-645.7-6 1 210 1.9 433.2 2.9 643.2 104.5 1.2 427.6 4.8 642.8.9z"/><path class="st2" d="M1750.2 1713.2c-4.6-205.1 4.3-401-.3-606.1-180.9-2.9-375.6-5.6-556.5-8.5-5.7 198.8-3 406-8.8 604.8 232.3 10 355.2 2.9 565.6 9.8z"/><path d="M1199.9 697.1c-32-84.7-67.5-279.7-165-301-128.8-9.6-190.2 243-198.4 343.1-17.3 103.6 63.4 97 85.6 10.8 13.7-53.4 40.9-75.5 96.5-72.6 62.3-1.8 99.8 12.1 112 75.8 27.2 72.7 100.2 23.4 69.3-56.1zm-148.4-99.2c-14.8 8.9-35.6 4.7-52.4 5.7-7.3-.2-15.3-.9-20.3-6.1-12.9-15.4 4.1-68.6 17.5-81.6 12.8-12.1 33.8.1 43.2 11.9 8.7 10.9 13 24.6 16.5 38.1 2.7 11.1 4.3 24.8-4.5 32z" fill="#494edf"/><path class="st3" d="M867.5 817.3c-88.8-2.7 16.9-299 47.9-338.3 61.7-117.9 166.8-109.6 212.5 13.5 25.8 68.5 86 194.5 78.3 263.8-5.3 19.5-24.6 37.2-45.1 32.5-24.6-7.5-30-30.3-35.7-48.6-8.8-51.2-55.4-63.9-106.9-61.6-24.2.2-45.5 1.3-62.3 13.4-42.8 30.2-26.5 112.6-88.7 125.3zm156.8-420.9c-46.6-1.6-87.7 46-107.1 83.6-29.8 32.9-144.5 363.2-38 332.6 49-28.9 34.3-90.7 75.9-122.5 37.5-23.2 134.9-20.8 159.4 17.6 9.3 13.6 11.8 30 17.1 45.2 11.4 41 56.9 48.5 72.6 2.8 5-18.7.3-38.2-5.3-58.3-29.7-86.2-78.5-302.6-174.6-301zm-15.5 208.4c-23 1.2-40-3.3-35.2-30.1 5.3-42.2 24.8-92.2 66.8-47.5 12.4 16.9 28.1 57.1 11.8 71.6-12.3 8.2-29.3 4.9-43.4 6zm.3-92.8c-21.8-4.5-43.1 70.6-29.6 84.8 4.8 5 12.6 5.6 19.6 5.8 16.3-1 37.5 3.1 51.7-5.4 6.7-5.5 8-15.6 4.1-30.9-5.3-23.8-18-52.2-45.8-54.3zm-334.3 905.7c91.5-18.6 121.1-140.8 46.9-198.2-60.4-45.4-125.4-35.6-205.4-36.9-20.4-.3-50.6 1.9-68 20.4-12.4 13.2-15.3 32.4-16.8 50.5-8.8 105.4-17.6 210.8-26.4 316.3-7.4 50.7 14.4 77.3 65.9 79.6 86.7 4.6 205.5 27 263.3-52.5 50.5-69.6 10.3-151.9-59.5-179.2zm-73.6 151.4c-19.6 8.1-85.1 12.1-95.8-9.7-6.3-13.3-.5-35.4.7-49.6 1.6-18.2 4.2-35.6 24.6-40.1 61-15.4 154.8 54.9 70.5 99.4zm24.1-211.8c-26.3 15.8-59 11.3-88.1 9-6.9-.9-14.8-3-18-10.7-3.6-20.5 2.1-42.3 2.2-63.1.8-11.8-1-22.8 9.1-26.7 20.8-8 51.7.4 72.2 7.5 39.3 10.1 58.1 57.7 22.6 84z"/><path class="st1" d="M1430.5 1313.4c116.2-56.3 138.8 54 194.2 49.5 38.7-8.8 36.4-59.8 15.3-85.7-200.1-225.3-516.3 139.8-257 308.2 86.9 49.6 254.2 14.2 263-100-4.4-50.1-55.2-62.1-86.6-25.3-12.1 12.4-22.2 27-36 37.4-131.4 74.5-201.9-113.6-92.9-184.1z"/><path d="M1342.5 895c-8.6 0-15.6-6.9-15.8-15.4-4.8-204.3-7.7-366.3-12.4-569.6-67.8-.8-129.6-1.1-188.4-1-8.7 0-15.8-7.1-15.8-15.8s7.1-15.8 15.8-15.8c63.3-.1 130.1.3 204.1 1.2 8.5.1 15.4 7 15.5 15.5 2.5 104 4.5 199.8 6.4 292.4s3.9 188.4 6.4 292.5c.2 8.7-7 16-15.8 16zm-521.9 10.1c-47.8-.1-75.1-.6-132.1-.6-8.6 0-15.6-6.9-15.8-15.5-4.3-198.6-2.3-100.5-6.7-299.1-.1-8.7 6.9-15.9 15.7-16 8.6-.1 15.7 6.7 16 15.3 4.2 190.4 2.3 102.7 6.3 283.7 75.1.1 103.4 1.3 184.4 0 8.7.1 15.7 7.3 15.6 16.1-.1 8.4-6.9 15.3-15.3 15.6-28.2.3-49 .5-68.1.5zM568.5 1754c-110.3-.8-191.9-.3-298.3-3.1-8.5-.2-15.4-7.2-15.4-15.7-1-210-2-433.2-2.9-643.2 0-8.5 6.6-15.5 15.1-15.8 204-8.9 301.6-9.4 497.6-2.3 20.5 1 19.7 32.2-1.2 31.6-190-6.9-287.1-6.7-479.9 1.6.9 200.4 1.8 412.2 2.8 612.6 96.9 2.3 179 2 282.2 2.7 20.7.1 20.7 31.6 0 31.6zm1181.7-24.9c-68.6-2.2-166.4-3-234.2-3.4-8.7-.1-15.8-7.2-15.7-15.9.1-8.7 7.2-15.8 15.9-15.7 62.4.4 150.6 1.1 217.8 2.9-3.6-195.9 4-378.4.4-574.2-167.4-2.9-143.9-5.5-317.8-8.2-8.7-.1-15.7-7.3-15.6-16.1.1-8.7 7.3-15.7 16.1-15.6 181.6 2.9 151.6 5.6 333 8.5 8.5.1 15.4 7 15.6 15.5 2.3 102.8 1.2 204.9.2 303.6-1 98.4-2.1 200.2.1 302.5.3 8.8-6.9 16.1-15.8 16.1zm-397.4-4.4c-54.4-.6-81.1-1.7-139.3-4.2l-29.4-1.3c-20.5-1.1-19.2-32.3 1.4-31.6 62.8 2.7 108.5 5 167.6 5.5 20 .6 20 31.2-.3 31.6z" fill="#1a1d3f"/></svg>