<svg xmlns="http://www.w3.org/2000/svg" viewBox="0 0 172.2 416.2"><defs><clipPath id="a"><path d="M25.5 92.55c82.09 14.81-121.82 313.24 37.06 322.13 78.96 2.37 103.1 4.62 106.66-15.1 3.55-19.73 8.56-394.53-15.8-398.07C129.05-2.04 37.17-.42 33.11 18.5c-4.06 18.92 36.55 74.05-7.61 74.05Z" fill="none"/></clipPath></defs><path d="M25.5 92.55c82.09 14.81-121.82 313.24 37.06 322.13 78.96 2.37 103.1 4.62 106.66-15.1 3.55-19.73 8.56-394.53-15.8-398.07C129.05-2.04 37.17-.42 33.11 18.5c-4.06 18.92 36.55 74.05-7.61 74.05Z" fill="#ff9"/><path d="M85.46 346.32h-.25c-30.87 57.71-43.34 40.5-42.16-17.22-.02-19.43.66-27.01 17.44-30.6 15.5-4.81 6.32 9.83 6.54 20.32-1.62 13.16-1.8 24.51-1.98 37.91l.25.25c10.8-11.67 23.16-46.42 30.58-54.27 4.11-2.79 18.41-8.27 20.1-.37-3.34 11.23-17.52 61.13-2.07 64.31 21.45-13.92-2.17-52.15 23.32-62.82 2.85 0 4.27 5.37 4.27 16.11 2.89 54.42-56.92 96.71-56.04 26.39Z" fill="#fc6"/><g clip-path="url(#a)"><path d="M197.92 248.54c-65.71-33.8-75.7-53.18-62.04-125.86 71.49 33.93 81.91 59 62.04 125.86Z" fill="#f93"/><g fill="#2e2e4c"><path d="M135.88 122.68c20.53 40.15 42.68 85.11 62.04 125.86-20.53-40.19-42.7-85.12-62.04-125.86Z"/><path d="M133.88 135.41c6.53 6.2 12.63 12.94 18.16 20.06a179.781 179.781 0 0 1-18.16-20.06Zm-2.16 20.38a505.906 505.906 0 0 1 34.46 29.12 503.486 503.486 0 0 1-34.46-29.12Zm-.16 27.4a932.847 932.847 0 0 1 50.94 34.07 929.001 929.001 0 0 1-50.94-34.07Zm10.74 26.75a958.226 958.226 0 0 1 52.8 32.88 960.51 960.51 0 0 1-52.8-32.88Zm8.17-79.75c1.01 8 1.34 16.03.97 24.08-1.01-8-1.33-16.03-.97-24.08Zm16.82 10.26a295.638 295.638 0 0 1-5.73 34.34c1.23-11.53 3.15-23.04 5.73-34.34Z"/></g><path d="M121.51 113.88c19.96 2.42 9.17-21.7 15.47-17.09.5-6.53 4.33-4.69 2.49.91 4.17-3.9 6.15-1.04 1.44 2.09 3.95.59 4.56 3.21-.26 1.72.96 13.3-18.54 29.74-19.13 12.36Zm-38.76-2.91c-19.96 2.42-9.17-21.7-15.47-17.09-.5-6.53-4.33-4.69-2.49.91-4.17-3.9-6.15-1.04-1.44 2.09-3.95.59-4.56 3.21.26 1.72-.96 13.3 18.54 29.74 19.13 12.36Zm100.89 158.08c21.57 26.78-17.16 57.75-39.28 32.11-21.57-26.77 17.16-57.75 39.28-32.11Z" fill="#fed061"/><path d="M159.69 240.71c21.57 26.78-17.16 57.75-39.28 32.11-21.57-26.77 17.16-57.75 39.28-32.11Z" fill="#4eaf75"/><path d="M159.69 240.71c4.37 5.12 7.18 11.82 6.58 18.65-1.05 13.87-14.97 24.89-28.68 23.28-6.81-.7-12.93-4.59-17.18-9.82 9.47 10.65 24.5 12.29 35.65 3.25 11.38-9.06 12.48-24.07 3.62-35.36Z" fill="#2e2e4c"/><path d="M140.28 221.76c8.77 33.24-39.22 45.73-48.96 13.3-8.77-33.24 39.22-45.73 48.96-13.3Z" fill="#fed061"/><path d="M123.91 187.39c8.77 33.24-39.22 45.73-48.96 13.3-8.77-33.24 39.22-45.73 48.96-13.3Z" fill="#4eaf75"/><path d="M123.91 187.39c1.9 6.46 1.74 13.72-1.6 19.71-6.61 12.24-23.82 16.62-35.68 9.56-5.93-3.42-9.93-9.47-11.68-15.98 2.12 6.29 6.16 12.11 12.06 15.31 11.58 6.55 28 2.39 34.63-9.27 3.42-5.79 3.74-12.87 2.27-19.34Z" fill="#2e2e4c"/><path d="M114.37 165.33c-9.2 31.99-57 19.12-48.9-13.16 9.2-31.99 57-19.12 48.9 13.16Z" fill="#fed061"/><path d="M126.2 122.85c-2.43 33.2-51.86 30.42-50.56-2.84 2.43-33.2 51.86-30.42 50.56 2.84Z" fill="#4eaf75"/><path d="M126.2 122.85c-.41 23.46-29.37 31.61-44.64 15.71-4.61-4.95-6.48-11.92-5.92-18.55-.52 14.27 9.78 25.01 23.92 25.71 14.12.88 25.57-8.65 26.64-22.88Z" fill="#2e2e4c"/><path d="M118.03 55.78c28.03-25.26-10.07-26.37-7.42-35.48 7.54-9.26 39.47 19.2 10.15 36.43M88.97 55.7c-25.99-27.36 12.08-25.51 10.15-34.8-6.8-9.81-40.84 16.09-12.95 35.54" fill="#fed061"/><path d="M135.8 76.76c-.73 42.89-64.54 42.89-65.26 0 .73-42.89 64.54-42.89 65.26 0Z" fill="#4eaf75"/><path d="M88.56 86.58c.15 6.33-13.65 6.33-13.5 0-.15-6.33 13.65-6.33 13.5 0Zm42.89 0c.15 6.33-13.65 6.33-13.5 0-.15-6.33 13.65-6.33 13.5 0Z" fill="#f97e3a"/><path d="M75.06 79.74c-.73-4.74 2.11-10.52 7.45-10.55 5.32-.1 8.46 5.43 7.95 10.22-.31-4.41-3.09-9.31-7.93-9.22-4.88.05-7.35 5.16-7.46 9.56Zm40.45.44c-.73-4.74 2.11-10.52 7.45-10.55 5.32-.1 8.46 5.43 7.95 10.22-.31-4.41-3.09-9.31-7.93-9.22-4.88.05-7.35 5.16-7.46 9.56Zm-3.34 3.51c.17 11.57-17.99 11.56-17.82 0" fill="#2e2e4c"/><path d="M103.26 92.6c2.65 0 5.02-1.16 6.66-3-3.24-3.77-10.01-3.66-13.14.19a8.878 8.878 0 0 0 6.48 2.81Z" fill="#f97e3a"/><path d="M126.77 99.3c-8.83 10.71-25.14 13.09-37.47 7.45l-3.02-1.59-2.81-1.92-2.53-2.27c-.75-.85-1.48-1.71-2.2-2.57 12.02 13.43 35.51 13.88 48.02.91Z" fill="#2e2e4c"/><path d="M123.45 57.88c-7.82 0-14.28 5.89-15.21 13.46-4.39-2.97-8.25-1.37-10.29-.01-2.24-18.65-30.56-17.03-30.54 1.89.07 19.79 30.04 20.17 30.64.42 1.02-.94 5.15-4.14 10.08.04.65 19.73 30.57 19.3 30.64-.46 0-8.45-6.88-15.33-15.33-15.33Zm-40.7 28.74c-17.53-.09-17.53-26.73 0-26.82 17.53.09 17.53 26.73 0 26.82Zm40.7 0c-17.53-.09-17.53-26.73 0-26.82 17.53.09 17.53 26.73 0 26.82Z" fill="#fed061"/></g></svg>