<svg xmlns="http://www.w3.org/2000/svg" viewBox="0 0 272.56 180.21"><defs><clipPath id="a"><path d="M7.5 157.17S-13.58 13.49 14.95 5.6c28.52-7.89 214.74-10.01 235.28 11 20.54 21-25 113.66 22.33 122.95 0 0-27.92 3.08-31.49 15.7s-2.79 27.47-107.55 24.6C28.76 176.99 12.95 175.38 7.5 157.17Z" fill="none"/></clipPath></defs><path d="M7.5 157.17S-13.58 13.49 14.95 5.6c28.52-7.89 214.74-10.01 235.28 11 20.54 21-25 113.66 22.33 122.95 0 0-27.92 3.08-31.49 15.7s-2.79 27.47-107.55 24.6C28.76 176.99 12.95 175.38 7.5 157.17Z" fill="#f93"/><path d="m203.29 104.21-22.8-.13c-.19 24.64 25.1 8.41 37.1 1.19 10.85-8.22 3.75 11.12.38 14.21-8 6.23-24.07 12.73-35.16 13.46-67.1-2.97-5.63-107.56 37.19-82.24 15.61 13.34-4.38 34.1-19.95 33.9-11.04-.15 7.53-9.01 7.68-27.17-.86-8.13-16.52 9.39-18.24 12.02-3.85 5.42-6.82 11.54-7.81 17.84 3.33 1.15 39.39-2.91 38.85 2.82.06 4.18-12.24 15.14-17.24 14.09Z" fill="#369"/><g clip-path="url(#a)"><path d="M102.53 12.88c-29.39 10.14-8.6 28.04-27.01 29.36 0 0 6.05 7.11 12.51-.02 0 0 4.91 6.5 11.66 3.23-10.82-2.73-6.11-31.18 12.78-19.91 14.63 8.57 16.3 39.84 2.86 56.48C84.8 104 22.24 14.79-7.76 123.61c3.44 13.27-21.03 33.6-21.03 33.6l18.3 44.71c41.7 26.08 91.15 8.06 80.23-57.81 42.85-28.43 4.29-12.17-1.42-37.4 74.03 43.85 102.75-89.01 34.21-93.83Z" fill="#9cf"/><g fill="#2e2e4c"><path d="M124.42 50.68c3.32.93 6.8.4 9.76-1.29.44-.23.85-.51 1.31-.73-.32.39-.65.78-1.02 1.13-2.62 2.46-7.08 3.12-10.05.89Zm-1.11 13.86c2.55 3.31 6.27 5.23 10.4 5.12.59 0 1.17-.06 1.78-.05-.56.2-1.14.41-1.73.54-4.23.99-9.02-1.46-10.45-5.61Zm-55.06 42.27c4.89 8.64 12.67 19.34 23.93 17.36-1.28.41-2.62.64-3.98.69-9.91-.23-16.62-9.65-19.95-18.05Z"/><path d="M64.74 107.57c2.29.14 4.23-2.74 2.8-4.69 3.22 1.32-.09 6.68-2.8 4.69Z"/></g><path d="M59.34 86.15c.17 11.46-17.83 11.46-17.67 0-.17-11.46 17.83-11.46 17.67 0Z" fill="#fff1d4"/><path d="M57.42 84.23c.09 6.18-9.62 6.18-9.53 0-.09-6.18 9.62-6.18 9.53 0Z" fill="#2e2e4c"/><path d="M55.71 104.69c45.65 65.45-11.33 85.56-15 44.14-8.57 59.59-81.54 17.68-18.85-26.35 0 0-34.26 18.26-40.81 3.23-6.55-15.03 49.55-32.18 49.55-32.18" fill="#369"/><path d="M81.16 105.09c42.3 17.08 58.37-29 27.64-41.44 14.32 23.25-3.55 39.9-26.74 27.14 0 0 5.97 6.42-.9 14.29" fill="#ffdf97"/><path d="M79.94 87.8c6.05 4.16 6.96 16.05-.9 18.73 6.67-3.88 5.54-13.66.9-18.73Z" fill="#2e2e4c"/></g></svg>