<svg xmlns="http://www.w3.org/2000/svg" viewBox="0 0 279.1 212.12"><defs><clipPath id="a"><path d="M261.28 15s28.84 93.53 13.12 131.6c-15.72 38.07-107.43 60.13-162.37 64.03-54.94 3.89-78.3 2.16-93.44-29.85C3.45 148.76-11.26 46.64 12.53 30.65c23.8-16 50.51-7.23 52.51-30.65 0 0 7.66 20.95 27.09 18.86 19.43-2.08 162.32-29.27 169.15-3.87Z" fill="none"/></clipPath></defs><path d="M261.28 15s28.84 93.53 13.12 131.6c-15.72 38.07-107.43 60.13-162.37 64.03-54.94 3.89-78.3 2.16-93.44-29.85C3.45 148.76-11.26 46.64 12.53 30.65c23.8-16 50.51-7.23 52.51-30.65 0 0 7.66 20.95 27.09 18.86 19.43-2.08 162.32-29.27 169.15-3.87Z" fill="#99f"/><path d="M220.61 48.17c-7.18 6.99-10.78 13.22-12.93 22.98-1.88 11.28-2.43 33.32 12.61 34.16 19.04-3.96 26.12-30.7 14.49-46.28-5.88-7.57 2.21-11.9 7.93-15.68 23.05-12.57 16.92 36.53 10.34 46.44-7.33 15.43-21.8 27.1-38.75 27.01-16.14.06-32.73-10.31-31.98-28.23 1.36-28.81 27.72-57.6 57.08-58.33 12.04-.46 5.74 5.78.84 8.49-6.49 2.88-14.41 3.69-19.64 9.43Z" fill="#639"/><g clip-path="url(#a)"><path d="M56.63 132.58c-106.27-78.23 69.54-179.72 65.38-27.95.52 35.4 31.27 22.74 33.07 11.37 1.81-11.37-32.04-38.5-18.35-66.15 13.69-27.65 41.34-26.61 41.34-26.61-74.41 28.62 16.99 75.99-2.57 108.01-15.51 19.64-41.35 13.95-41.35 13.95 24.66 38.52 73.33-17.83 111.11 39.28l-23 14.21c-8.39-49.24-76.8 3.21-97.93-41.08-13.21 37.07 27.32 49.96 48.61 54.52l-9.43 11.36c-44.42-3.81-61.02-21.04-59.88-67.27 0 0-9.29 45.38-32.83 67.27l-17.58-4.64s28.52-26.42 33.49-62.62c0 0-20.23 37.75-44.44 33.44-24.21-4.31-18.81-60.79-49.41-56.93 32.27-26.95 40.5 49.64 62.68 37.69 15.92-7.96 16.78-23.62 1.09-37.84Z" fill="#f6f"/><path d="M57.87 37.92c-6.33 0-6.34 9.84 0 9.84s6.34-9.84 0-9.84Zm14.02-3.08c-5.55 0-5.56 8.62 0 8.62s5.56-8.62 0-8.62Zm-4.03 19.18c4.49-1.66 1.48-8.82-2.85-6.77-4.49 1.66-1.48 8.82 2.85 6.77Zm11.62-6.9c-4.77 0-4.77 7.41 0 7.41s4.77-7.41 0-7.41Zm-36.02 3.87c4.74 2.85 9.09-4.61 4.3-7.36-4.74-2.85-9.09 4.61-4.3 7.36Zm14.53 8.34c4.51-4.38-2.49-11.41-6.88-6.88-4.51 4.38 2.49 11.41 6.88 6.88Zm-23.23 3.52c4.76 2.14 7.54-5.75 2.49-7.1-4.42-1.34-6.84 5.46-2.49 7.1Zm9.49-8.41c-3.62 0-3.63 5.62 0 5.62s3.63-5.62 0-5.62Zm37.76-17.11c-4.34 0-4.35 6.75 0 6.75s4.35-6.75 0-6.75Zm-9.69 20.8c-3.88-3.95-9.96 2.16-6.02 6.02 3.88 3.95 9.96-2.16 6.02-6.02ZM49.2 64.97c-.99-1.44-3.26-1.78-4.63-.6-5.73 6.59 8.5 8.44 4.63.6Zm8.67-.74c-2.29 0-2.3 3.56 0 3.56s2.3-3.56 0-3.56Zm-21.21 1.38c-4.52 0-4.53 7.03 0 7.03s4.53-7.03 0-7.03Z" fill="#639"/><path d="M70.66 109.86c-3.3 11.8-21.76 6.35-18.12-5.35 3.3-11.8 21.76-6.35 18.12 5.35Z" fill="#fff1d4"/><path d="M69.16 109.42c-1.93 6.92-12.76 3.73-10.62-3.14 1.93-6.92 12.76-3.73 10.62 3.14Z" fill="#333"/><path d="M92.34 99.36c10.63 6.1 19.96-10.74 9.16-16.52-10.63-6.1-19.96 10.74-9.16 16.52Z" fill="#fff1d4"/><path d="M93.1 97.99c6.23 3.57 11.7-6.3 5.37-9.69-6.23-3.57-11.7 6.3-5.37 9.69Z" fill="#333"/><path d="M94.93 104.27c2.66 5.71-.69 12.27-6.53 14.18-5.75 2.19-12.48-.8-14.01-6.91 2.21 5.5 8.22 8.02 13.67 5.96 5.53-1.84 8.62-7.58 6.87-13.24Z" fill="#2e2e4c"/></g></svg>