<svg xmlns="http://www.w3.org/2000/svg" viewBox="0 0 62.7 94.5" xml:space="preserve"><path d="M0 57.1c.2-9.3 6.4-16.9 12.2-23.6 4.4-5.6 21.9-19.8 31.9-23.8-.9-.2-1.8-.3-2.4-.5l-9.6-2.4c-1.4-.6-6.5-.7-6.3-2.5.3-1.9 2.2-3.2 3.9-3.9 2.9-1.2 6.1.7 9.1 1.1 3.5.9 7.1 1.8 10.6 2.7 1.4.4 3.1.5 4 1.8 2.1 3.9-1.9 12.5-3.2 16.6-.6 1.5-1.1 3.1-1.7 4.6-.6 1.5-.8 3.2-2 4.3-1.7 2.1-8.1 4.1-5.9-.7 1.8-5.7 4.6-11.3 5.6-17.2-.8.4-1.7.7-2.6 1.1-3.5 1.5-6.6 3.8-9.7 6-6.1 4.3-12.1 8.7-16.8 14.5-3.3 3.9-6.6 7.9-8.4 12.7-2.7 8.3 0 17.7 4 25 7.3 12.3 22 21.8 35.2 11.7 12.5-9.7 7.7-32-6.7-37.2-3.5-1.2-7.8-2.1-11.5-.7-7.1 4.3-6.2 12.8-1.4 18.5 7.4 8.3 12.7-2.5 4.6-6.8-6.7 1.6-1.9-5.9 3.1-5.9 4.4-.1 8.3 4 8.4 8.3-.2 7.1-7.2 12.4-13.8 13.2-8.4.8-13.9-8.5-13.7-16 .5-6.2 5.2-11.5 10.2-14.7 5.5-3.4 12.5-3.7 18.6-1.7C57.4 44.8 64 58.1 62.3 69.7c-2.9 18-26 30.9-42.5 22C7.7 84.8 0 71.1 0 57.1z"/></svg>