<svg version="1.1" id="Layer_1" xmlns="http://www.w3.org/2000/svg" x="0" y="0" viewBox="0 0 455.4 455.1" xml:space="preserve"><style>.st0{fill:#f6e05e}.st1{fill:#ecc94b}.st2{fill:#fbb635}.st3{fill:#1a202c}.st5{fill:#9f7aea}.st6{fill:#0dac63}</style><path class="st0" d="M251.3 279.7c-.5-93.8 123.4-29.8 119.4 31.5-1.3 41-40.5 62.3-74.9 43.6-25.7-13.9-43.3-46.2-44.5-75.1z"/><path class="st0" d="M289.8 266.7c-33.1-4.7-60.1-52.1-54.4-59.6 24.6-33.3 104-78.4 145.5-80.2 66.1-2.8 92.7 60.8 61.8 95.1-34.9 38.7-102.7 51.7-152.9 44.7z"/><path class="st1" d="M352.1 265.6c-22.2-26.1-73.3-53.6-93.9-16.2 25.1 25.4 60.1 19.9 93.9 16.2z"/><path class="st0" d="M195 287.3c8.9-93.6-119.9-41-121.7 20.3-2.5 41 34.5 65.8 70.6 50.4 26.8-11.4 47.3-41.9 51.1-70.7z"/><path class="st0" d="M157.9 270.9c33.5-1.7 64.6-46.3 59.8-54.3-21.6-35.5-96.4-87.7-137.5-93.2-65.6-9-97.9 51.9-70.3 88.9 31.1 41.7 97.2 60.9 148 58.6z"/><path class="st1" d="M160.7 235.4c-21.9-.2-47.1 11.5-64.7 28.7 33.1 6.7 67.7 15.4 94.9-7.5-5.1-11.7-14.7-21-30.2-21.2z"/><path class="st2" d="M289.6 360.6c-12.7 37.3-49.8 48.9-65.3 59.4-9 6.2-2.2 32.6-7.5 35-5.3 2.5-13.3-25.6-23.3-29.1-99.4-32.6-75.3-185.9 22.8-181.6 56.6 1.2 89.1 69.2 73.3 116.3z"/><path class="st3" d="M129.9 348.3c-.9-9.9-.8-19.2.2-27.8 52.9 28.6 107.2 28.8 163.2 7.5.8 9.3.2 18.5-2.2 27.1-54.9 18.6-108.7 17.8-161.2-6.8zm150.2 30.8c-16.3 23.1-43.1 32.5-55.8 41-9 6.2-2.2 32.6-7.5 35-5.3 2.5-13.3-25.6-23.3-29.1-20.1-7.2-41.6-22.6-53.9-45.6 44.4 9.6 89.1 13.6 140.5-1.3zm-144.2-81.4c3.2-8.2 7.3-15.3 12.3-21.6 42.2 25.1 85.6 25.8 130.7 7.2 4.3 7 7.7 14.6 10.2 22.6-52.3 22-104 20.6-153.2-8.2zm34.3-82.1c-12.3 7.5-10 32.5-.3 43.1 17 18.8 86.7 16.6 99.9-5 30.4-68.6-62.6-63.3-99.6-38.1zm31-165.2c-2.4.1-4.4-2.1-4.2-4.5l3-35.6c.4-5.4 8.8-4.7 8.3.7l-3 35.6c-.1 2.2-2 3.8-4.1 3.8zm44.6 4.4c-3.1 0-5.3-3.6-3.6-6.3l21-36.1c1.2-2 3.7-2.7 5.7-1.5s2.7 3.7 1.5 5.7c-1.7 1.4-21.3 40.7-24.6 38.2z"/><path class="st2" d="M218.3 230.2c125.6-2.3 125.7-188.9 0-191.2-125.8 2.3-125.7 188.9 0 191.2z"/><path d="M218.3 39.1c123.8 1.2 107.4 183.6-8.9 182.6-123.9-1.1-107.8-183.5 8.9-182.6z" fill="#ffcb52"/><path class="st5" d="M204.2 21.5c14.1 0 14.2-21.5 0-21.5-14.1-.2-14 21.7 0 21.5zm62.6 3.8c14.1 0 14.1-21.6 0-21.6s-14.1 21.6 0 21.6z"/><path class="st3" d="M175.1 114c8.9-.2 9.1 17.2 0 17-9.1.2-8.9-17.2 0-17zm86.4 0c-8.9-.1-9.1 17 0 17 9.4.1 9.1-17.1 0-17zm-102.9-6c-13.1-4.5 7.5-17 15.4-15.8 5.2-.2 6 8 .4 8.4-9.4-.2-9.9 5.8-15.8 7.4zm119.3 0c-5.8-1.5-5.7-7.5-15.7-7.5-5.5-.2-5-8.6.4-8.4 7.9-1.2 28.2 11.2 15.3 15.9z"/><path class="st2" d="M164.6 173.8c18-.1 18.1-27.8 0-27.8-18.1.1-18 27.7 0 27.8zm107.3 0c18.2-.1 18.4-27.8 0-27.8-18.2.1-17.9 27.7 0 27.8z"/><path class="st3" d="M218.2 165.1c-9.4 0-17.5-5.4-21.3-14.1-2.2-4.9 5.5-8.3 7.6-3.4 2.5 5.8 7.7 9.2 13.9 9.1 4.8-.1 10.9-2.5 13.6-9 2-5 9.7-1.8 7.7 3.1-3.5 8.5-11.8 14.1-21.2 14.2-.1.1-.2.1-.3.1z"/><path class="st5" d="M314.9 320.1c-4.2.2-5.7-6.1-1.9-7.9.9-.5 1.7-2.1 2-4.4 1.3-9.4-4.9-26.1-17.6-37.6-4-3.6 1.6-9.9 5.6-6.2 16.8 15.2 30.3 48 11.9 56.1z"/><path class="st6" d="M349.7 92.6c11.4 4.5-.2 28.8-10.8 23.1-11.4-4.8-.1-28.9 10.8-23.1z"/><path d="M347.2 168.5c-1-2.6 9.3-62.9 3.5-62.7l-12-5.5c-1.2-5.4-52.2 46.5-46.9 47.7 10.3 19 2.7 20.5 25.2 14.1l5.7 12.3c.8 2 3 2.8 5 2.3l16.5-4.5c1.7-.2 2.8-1.9 3-3.7z" fill="#c3c2dd"/><path d="M340.7 101.2c-2.1-1-5.1-2.1-6.8 0-.9 2.8-46.9 43.3-42.1 46.9l7.2 15.3c.8 2 2.8 2.8 4.8 2.3.5.1 36.6-64.4 36.9-64.5z" fill="#dddbee"/><path class="st6" d="m297.2 142.3 47.4 22.3c2.2 1 3 3.5 2 5.5l-89.1 189.8c-1 2.2-3.5 3-5.5 2l-47.4-22.1c-2.2-1-3-3.5-2-5.7l89.1-189.8c1-2 3.5-2.8 5.5-2z"/><path d="m311.9 149.2 18.3 8.6-92.7 197.3-18.3-8.5 92.7-197.4z" fill="#6eec99"/><path class="st5" d="M199.3 314.1c-50.9.4-71.7-45.9-34.6-77.5 1.8-1.5 4.4-1.2 5.9.6 5.6 7.8-27.5 19.7-13.3 48.5 8.4 15.7 33.6 26.6 71.1 15.6 2.2-.7 4.5.6 5.2 2.8 2.8 9.1-30.7 9.7-34.3 10zm112.7 6.7c-10.7 0-25.4-15.1-42.1-43.5-2.8-4.6 4.5-9 7.2-4.2 21.3 36.2 33.4 40.6 35.9 39.2 8.8-2.4 7.5 9.3-1 8.5z"/><path class="st5" d="M282.4 293.5c-9.8-1.3 1-12.7 2.7-16.6 2.8-4.7 10-.2 7.1 4.3-2 2.1-6 12.9-9.8 12.3zm-54.6 30.6c-1.8.7-14.8-10.2-16.3-11-1.3-1-2-2.7-1.6-4.3l3.2-13.7c1.2-5.2 9.4-3.4 8.1 1.9l-2.5 11 11.6 8.5c3.3 2.3 1.3 7.7-2.5 7.6z"/></svg>