<svg xmlns="http://www.w3.org/2000/svg" viewBox="0 0 455.4 455.1" xml:space="preserve">
    <g>
        <path fill="#F6E05E"
            d="M251.3 279.7c-1-20.8 10.7-50.9 39-48.4 37.6 3.2 81.6 42.1 80.4 79.9-1.3 41-40.5 62.3-74.9 43.6-25.7-13.9-43.3-46.2-44.5-75.1z" />
        <path fill="#F6E05E"
            d="M289.8 266.7c-33.1-4.7-60.1-52.1-54.4-59.6 24.6-33.3 104-78.4 145.5-80.2 66.1-2.8 92.7 60.8 61.8 95.1-34.9 38.7-102.7 51.7-152.9 44.7z" />
        <path fill="#ECC94B"
            d="M352.1 265.6c-16-18.7-40-32.6-61.8-34.4-15.4-1.4-25.9 7-32.1 18.2 9 8.7 19.9 15.6 31.6 17.3 19.1 2.7 40.8 2.4 62.3-1.1z" />
    </g>
    <g>
        <path fill="#F6E05E"
            d="M195 287.3c2.8-20.6-6-51.6-34.3-51.9-37.8-.3-85.1 34.6-87.4 72.2-2.5 41 34.5 65.8 70.6 50.4 26.8-11.4 47.3-41.9 51.1-70.7z" />
        <path fill="#F6E05E"
            d="M157.9 270.9c33.5-1.7 64.6-46.3 59.8-54.3-21.6-35.5-96.4-87.7-137.5-93.2-65.6-9-97.9 51.9-70.3 88.9 31.1 41.7 97.2 60.9 148 58.6z" />
        <path fill="#ECC94B"
            d="M160.7 235.4c-21.9-.2-47.1 11.5-64.7 28.7 21 5.4 42.6 7.6 61.9 6.8 11.8-.6 23.3-6.5 33-14.3-5.1-11.7-14.7-21-30.2-21.2z" />
    </g>
    <g>
        <path fill="#FBB635"
            d="M289.6 360.6c-12.7 37.3-49.8 48.9-65.3 59.4-9 6.2-2.2 32.6-7.5 35-5.3 2.5-13.3-25.6-23.3-29.1-28.5-10.2-59.4-36.5-63.6-77.9-7.2-69.6 42.3-104.5 86.4-103.7 56.6 1.2 89.1 69.2 73.3 116.3z" />
        <path fill="#1A202C"
            d="M129.9 348.3v-.3c-1-9.8-.8-19 .2-27.5 26.3 14.2 53.1 21.5 80.6 22.5 27 .8 54.4-4.3 82.6-15 .8 9.3.2 18.5-2.2 27.1-27.5 9.3-54.6 13.7-81.2 12.8-27.2-1-53.8-7.3-80-19.6zm150.2 30.8c-16.3 23.1-43.1 32.5-55.8 41-9 6.2-2.2 32.6-7.5 35-5.3 2.5-13.3-25.6-23.3-29.1-20.1-7.2-41.6-22.6-53.9-45.6 44.4 9.6 89.1 13.6 140.5-1.3zm-144.2-81.4c3.2-8.2 7.3-15.3 12.3-21.6 21 12.5 42.5 19 64.3 20 21.6 1 43.8-3.5 66.4-12.8 4.3 7 7.7 14.6 10.2 22.6-26.3 11-52.1 16.1-77.7 15-25.7-1.3-51-8.8-75.5-23.2z" />
    </g>
    <path fill="#1A202C"
        d="M170.2 215.6c-12.3 7.5-10 32.5-.3 43.1 17 18.8 86.7 16.6 99.9-5 8.8-14.5 7.5-44.1-8.5-50.1-28.5-11-64.8-3.8-91.1 12z" />
    <path fill="#1A202C"
        d="M201.2 50.4h-.4c-2.3-.2-4-2.2-3.8-4.5l3-35.6c.2-2.3 2.3-4 4.5-3.8 2.3.2 4 2.2 3.8 4.5l-3 35.6c-.1 2.2-2 3.8-4.1 3.8zm44.6 4.4c-.7 0-1.4-.2-2.1-.6-2-1.2-2.7-3.7-1.5-5.7l21-36.1c1.2-2 3.7-2.7 5.7-1.5 2 1.2 2.7 3.7 1.5 5.7l-21 36.1c-.8 1.3-2.2 2.1-3.6 2.1z" />
    <path fill="#FBB635"
        d="M218.3 230.2c52.6 0 95.6-42.9 95.6-95.6C313.9 82 271 39 218.3 39c-52.8 0-95.7 42.9-95.7 95.6 0 52.7 43 95.6 95.7 95.6z" />
    <path fill="#FFCB52"
        d="M218.3 39.1c23.6 0 45.4 8.7 62.1 23 15.3 17 24.6 39.5 24.6 63.9 0 52.9-42.8 95.7-95.6 95.7-23.8 0-45.4-8.7-62.3-23-15.3-17-24.6-39.5-24.6-64.1.1-52.7 42.9-95.5 95.8-95.5z" />
    <path fill="#9f7aea"
        d="M204.2 21.5c6 0 10.8-4.8 10.8-10.8C215 4.8 210.2 0 204.2 0c-6 0-10.8 4.8-10.8 10.7 0 5.9 4.8 10.8 10.8 10.8zm62.6 3.8c6 0 10.8-4.8 10.8-10.8 0-6-4.8-10.8-10.8-10.8S256 8.5 256 14.5c0 6 4.8 10.8 10.8 10.8z" />
    <path fill="#1A202C"
        d="M175.1 114c3.7 0 6.5 3 6.5 6.7v3.8c0 3.5-2.8 6.5-6.5 6.5s-6.5-3-6.5-6.5v-3.8c0-3.7 2.8-6.7 6.5-6.7zm86.4 0c-3.5 0-6.5 3-6.5 6.7v3.8c0 3.5 3 6.5 6.5 6.5 3.7 0 6.7-3 6.7-6.5v-3.8c-.1-3.7-3.1-6.7-6.7-6.7z" />
    <path fill="#1A202C"
        d="M158.6 108c-.8 0-1.7-.3-2.4-.8-1.9-1.3-2.3-4-.9-5.8 4.1-5.7 10.4-8.8 18.7-9.2 2 0 4.2 1.6 4.4 4 .1 2.3-1.7 4.2-4 4.4-5.7.3-9.7 2.2-12.3 5.8-1 1-2.2 1.6-3.5 1.6zm119.3 0c-1.3 0-2.6-.6-3.4-1.7-2.6-3.6-6.6-5.5-12.3-5.8-2.3-.1-4.1-2.1-4-4.4.1-2.3 2.2-4 4.4-4 8.2.4 14.5 3.5 18.6 9.2 1.3 1.9.9 4.5-.9 5.8-.7.7-1.5.9-2.4.9z" />
    <path fill="#FBB635"
        d="M164.6 173.8c7.7 0 13.8-6.3 13.8-14s-6.2-13.8-13.8-13.8c-7.7 0-13.8 6.2-13.8 13.8-.1 7.7 6.1 14 13.8 14zm107.3 0c7.7 0 14-6.3 14-14s-6.3-13.8-14-13.8-13.8 6.2-13.8 13.8c0 7.7 6.2 14 13.8 14z" />
    <path fill="#1A202C"
        d="M218.2 165.1c-9.4 0-17.5-5.4-21.3-14.1-.9-2.1 0-4.6 2.1-5.5 2.1-.9 4.6 0 5.5 2.1 2.5 5.7 7.6 9.1 13.7 9.1h.2c4.8-.1 10.9-2.5 13.6-9 .9-2.1 3.3-3.1 5.4-2.3 2.1.9 3.1 3.3 2.3 5.4-3.5 8.5-11.8 14.1-21.2 14.2-.1.1-.2.1-.3.1z" />
    <path fill="#9f7aea"
        d="M314.9 320.1c-1.5 0-3-.8-3.7-2.3-1-2-.2-4.6 1.8-5.6.9-.5 1.7-2.1 2-4.4 1.3-9.4-4.9-26.1-17.6-37.6-1.7-1.5-1.8-4.2-.3-5.9 1.6-1.7 4.2-1.8 5.9-.3 15.3 14 21.8 33.2 20.2 44.9-.9 6.5-4 9.4-6.5 10.7-.5.4-1.2.5-1.8.5z" />
    <path fill="#0DAC63"
        d="M349.7 92.6c4.3 2 6.2 7.2 4.2 11.5l-3.5 7.3c-2 4.3-7.2 6.3-11.5 4.3-4.3-2.2-6.3-7.3-4.2-11.7l3.3-7.3c2.2-4.3 7.4-6.1 11.7-4.1z" />
    <path fill="#C3C2DD"
        d="M347.2 168.5 353 110c.2-1.7-.8-3.3-2.3-4.2l-12-5.5c-1.7-.8-3.7-.5-4.8.8l-41.3 42.1c-1.3 1.2-1.5 3.2-.8 4.8l7.2 15.3c.8 2 2.8 2.8 4.8 2.3l13.2-3.5 5.7 12.3c.8 2 3 2.8 5 2.3l16.5-4.5c1.7-.2 2.8-1.9 3-3.7z" />
    <path fill="#DDDBEE"
        d="m340.7 101.2-2-.8c-1.7-.8-3.7-.5-4.8.8l-41.3 42.1c-1.3 1.2-1.5 3.2-.8 4.8l7.2 15.3c.8 2 2.8 2.8 4.8 2.3l.3-.2 36.6-64.3z" />
    <path fill="#0DAC63"
        d="m297.2 142.3 47.4 22.3c2.2 1 3 3.5 2 5.5l-89.1 189.8c-1 2.2-3.5 3-5.5 2l-47.4-22.1c-2.2-1-3-3.5-2-5.7l89.1-189.8c1-2 3.5-2.8 5.5-2z" />
    <path fill="#6EEC99" d="m311.9 149.2 18.3 8.6-92.7 197.3-18.3-8.5z" />
    <path fill="#9f7aea"
        d="M199.3 314.1c-26.2 0-42.5-11.8-49.3-24.6-9.1-17.2-3.3-37.9 14.7-52.9 1.8-1.5 4.4-1.2 5.9.6 1.5 1.8 1.2 4.4-.6 5.9-15.1 12.5-20 28.9-12.7 42.6 8.4 15.7 33.6 26.6 71.1 15.6 2.2-.7 4.5.6 5.2 2.8.6 2.2-.6 4.5-2.8 5.2-11.7 3.3-22.2 4.8-31.5 4.8zm112.7 6.7c-10.7 0-25.4-15.1-42.1-43.5-1.2-2-.5-4.5 1.5-5.7 2-1.2 4.5-.5 5.7 1.5 21.3 36.2 33.4 40.6 35.9 39.2 2-1.1 4.6-.3 5.6 1.7 1.1 2 .3 4.6-1.8 5.6-1.5.8-3.1 1.2-4.8 1.2z" />
    <path fill="#9f7aea"
        d="M282.4 293.5c-.7 0-1.5-.2-2.2-.6-2-1.2-2.6-3.8-1.4-5.7l6.3-10.3c1.2-2 3.8-2.6 5.7-1.4 2 1.2 2.6 3.8 1.4 5.7l-6.3 10.3c-.7 1.3-2.1 2-3.5 2zm-54.6 30.6c-.9 0-1.7-.3-2.5-.8l-13.8-10.2c-1.3-1-2-2.7-1.6-4.3l3.2-13.7c.5-2.2 2.8-3.6 5-3.1s3.6 2.8 3.1 5l-2.5 11 11.6 8.5c1.9 1.4 2.2 4 .9 5.8-.8 1.2-2.1 1.8-3.4 1.8z" />
</svg>