<svg xmlns="http://www.w3.org/2000/svg" viewBox="0 0 450.06 462.06"><defs><clipPath id="a"><path d="M447.03 38.5c-7.39 176.47 36.9 173.09-99.64 170.24V13.19h73.85c14.25 0 25.79 11.33 25.79 25.31Z" fill="none"/></clipPath><clipPath id="b"><path d="M247.75 38.5c7.39 176.47-36.9 173.09 99.64 170.24V13.19h-73.85c-14.25 0-25.79 11.33-25.79 25.31Z" fill="none"/></clipPath><clipPath id="c"><path d="M447.03 278.63c-7.39 176.47 36.9 173.09-99.64 170.24V253.32h73.85c14.25 0 25.79 11.33 25.79 25.31Z" fill="none"/></clipPath><clipPath id="d"><path d="M247.75 278.63c7.39 176.47-36.9 173.09 99.64 170.24V253.32h-73.85c-14.25 0-25.79 11.33-25.79 25.31Z" fill="none"/></clipPath><clipPath id="e"><path d="M202.31 278.63c-7.39 176.47 36.9 173.09-99.64 170.24V253.32h73.85c14.25 0 25.79 11.33 25.79 25.31Z" fill="none"/></clipPath><clipPath id="f"><path d="M3.03 278.63c7.39 176.47-36.9 173.09 99.64 170.24V253.32H28.82c-14.25 0-25.79 11.33-25.79 25.31Z" fill="none"/></clipPath><clipPath id="g"><path d="M3.03 36.1c7.39 176.47-36.9 173.09 99.64 170.24V10.79H28.82c-14.25 0-25.79 11.33-25.79 25.31Z" fill="none"/></clipPath><clipPath id="h"><path d="M202.31 38.5c-7.39 176.47 36.9 173.09-99.64 170.24V13.19h73.85c14.25 0 25.79 11.33 25.79 25.31Z" fill="none"/></clipPath></defs><rect x="247.75" y="13.19" width="199.28" height="195.55" rx="27.3" ry="27.3" fill="#fff3f0" stroke="#936" stroke-miterlimit="10" stroke-width="6.06"/><g clip-path="url(#a)"><path d="M389.24 77.69c6.36 6.52 12.91 20.95 14.77 4.35 6.81-.5 17.37 4.17 18.31-4.13-4.79-6.12-14.29-21.1-22.72-21.41-7.33 2.37-3.33 16.12-10.35 21.19Zm-83.71 0c-6.36 6.52-12.91 20.95-14.77 4.35-6.81-.5-17.37 4.17-18.31-4.13 4.79-6.12 14.29-21.1 22.72-21.41 7.33 2.37 3.33 16.12 10.35 21.19Z" fill="#d15e6f"/><path d="M418.49 117.69c-3.71-99.36-173.4-72.99-137.13 24.91 25.54 53.08 140.73 42.85 137.13-24.91Z" fill="#ff99a8"/><path d="M310.02 120.69c-.1-6.62 10.5-6.62 10.4 0 .1 6.62-10.5 6.62-10.4 0Zm64.34 0c-.1-6.62 10.5-6.62 10.4 0 .1 6.62-10.5 6.62-10.4 0Z" fill="#261816"/><path d="M301.15 132.89c-.19-8.56 17.94-8.56 17.74 0 .19 8.56-17.94 8.56-17.74 0Zm74.74 0c-.19-8.56 17.94-8.56 17.74 0 .19 8.56-17.94 8.56-17.74 0Zm-10.07 9.15c-13.43 14.68-51.72 4.44-34.5-18.92 13.18-14.25 44.35-1.81 34.5 18.92Z" fill="#ea7a8d"/><path d="M335.92 132.68c-.07-5.45 7.41-5.45 7.34 0 .07 5.45-7.41 5.45-7.34 0Zm15.6 0c-.07-5.45 7.41-5.45 7.34 0 .07 5.45-7.41 5.45-7.34 0Z" fill="#261816"/><path d="M295.05 86.04c-2.07 14.58-24.05-.68-22.55-8.82 6.08-6.73 12.33-16.22 20.27-20.8-5.13 6.51 3.04 21.49 2.28 29.62Zm104.68 0c2.07 14.58 24.05-.68 22.55-8.82-6.08-6.73-12.33-16.22-20.27-20.8 5.13 6.51-3.04 21.49-2.28 29.62Z" fill="#ea7a8d"/></g><g clip-path="url(#b)"><path d="M257.1 100.88c.39-23.28 33.87-23.28 34.26 0-.39 23.28-33.87 23.28-34.26 0Z" fill="#d1885e"/><path d="M265.1 100.88c.07-14.14 20.85-14.14 20.91 0-.07 14.14-20.85 14.14-20.91 0Z" fill="#ff99a8"/><path d="M437.68 100.88c-.39-23.28-33.87-23.28-34.26 0 .39 23.28 33.87 23.28 34.26 0Z" fill="#d1885e"/><path d="M429.68 100.88c-.07-14.14-20.85-14.14-20.91 0 .07 14.14 20.85 14.14 20.91 0Z" fill="#ff99a8"/><path d="M418.49 113.69c-6.09-99.21-171.84-74.98-137.13 24.9 25.54 53.08 140.73 42.85 137.13-24.9Z" fill="#de9266"/><path d="M388.89 82.72c-13.84-15.79-30.36-4.47-41.83-2.6-7.55 0-18.61-10.12-32.24-3.85-14.61 7.58-23.51 24.9-22.83 40.66 6.76 78.16 159.61 39.21 96.91-34.21Z" fill="#f2cdb8"/><path d="M310.02 116.69c-.1-6.62 10.5-6.62 10.4 0 .1 6.62-10.5 6.62-10.4 0Zm64.34 0c-.1-6.62 10.5-6.62 10.4 0 .1 6.62-10.5 6.62-10.4 0Zm-17.88-2.74c-1.46 10.72-19.99 8.97-17.65-1.74 3.28-3.78 16.62-4.34 17.65 1.74Z" fill="#261816"/><g fill="none" stroke="#261816" stroke-miterlimit="10" stroke-width="2.42"><path d="M338.48 124.26c3.69 7.22 10.35 2.2 8.88-4.61"/><path d="M356.3 124.26c-3.69 7.22-10.35 2.2-8.88-4.61"/></g><path d="M301.15 128.89c-.19-8.56 17.94-8.56 17.74 0 .19 8.56-17.94 8.56-17.74 0Zm74.74 0c-.19-8.56 17.94-8.56 17.74 0 .19 8.56-17.94 8.56-17.74 0Z" fill="#ff99a8"/></g><path fill="none" stroke="#c69" stroke-linecap="round" stroke-miterlimit="10" stroke-width="6.06" d="M347.39 3.03V218.9"/><rect x="247.75" y="253.32" width="199.28" height="195.55" rx="27.3" ry="27.3" fill="#fff3f0" stroke="#936" stroke-miterlimit="10" stroke-width="6.06"/><g clip-path="url(#c)"><path d="M257.1 341.01c.39-23.28 33.87-23.28 34.26 0-.39 23.28-33.87 23.28-34.26 0Z" fill="#d1885e"/><path d="M265.1 341.01c.07-14.14 20.85-14.14 20.91 0-.07 14.14-20.85 14.14-20.91 0Z" fill="#ff99a8"/><path d="M437.68 341.01c-.39-23.28-33.87-23.28-34.26 0 .39 23.28 33.87 23.28 34.26 0Z" fill="#d1885e"/><path d="M429.68 341.01c-.07-14.14-20.85-14.14-20.91 0 .07 14.14 20.85 14.14 20.91 0Z" fill="#ff99a8"/><path d="M418.49 353.81c-6.09-99.21-171.84-74.98-137.13 24.9 25.54 53.08 140.73 42.85 137.13-24.9Z" fill="#de9266"/><path d="M388.89 322.85c-13.84-15.79-30.36-4.47-41.83-2.6-7.55 0-18.61-10.12-32.24-3.85-14.61 7.58-23.51 24.9-22.83 40.66 6.76 78.16 159.61 39.21 96.91-34.21Z" fill="#f2cdb8"/><path d="M310.02 356.82c-.1-6.62 10.5-6.62 10.4 0 .1 6.62-10.5 6.62-10.4 0Zm64.34 0c-.1-6.62 10.5-6.62 10.4 0 .1 6.62-10.5 6.62-10.4 0Zm-17.88-2.74c-1.46 10.72-19.99 8.97-17.65-1.74 3.28-3.78 16.62-4.34 17.65 1.74Z" fill="#261816"/><g fill="none" stroke="#261816" stroke-miterlimit="10" stroke-width="2.42"><path d="M338.48 364.39c3.69 7.22 10.35 2.2 8.88-4.61"/><path d="M356.3 364.39c-3.69 7.22-10.35 2.2-8.88-4.61"/></g><path d="M301.15 369.01c-.19-8.56 17.94-8.56 17.74 0 .19 8.56-17.94 8.56-17.74 0Zm74.74 0c-.19-8.56 17.94-8.56 17.74 0 .19 8.56-17.94 8.56-17.74 0Z" fill="#ff99a8"/></g><g clip-path="url(#d)"><path d="M311.49 307.53c-14.99 22.09-44.35 4-25.78-17.13 12.39-12.75 35.51.43 25.78 17.13Z" fill="#898f91"/><path d="M305.88 313.17c-12.37 13.36-28.69-14.65-10.09-14.69 5.8-11.37 18.17 2.29 10.09 14.69Z" fill="#ff99a8"/><path d="M383.29 307.53c14.99 22.09 44.35 4 25.78-17.13-12.39-12.75-35.51.43-25.78 17.13Z" fill="#898f91"/><path d="M388.89 313.17c12.37 13.36 28.69-14.65 10.09-14.69-5.8-11.37-18.17 2.29-10.09 14.69Z" fill="#ff99a8"/><path d="M418.49 359.01c-3.71-99.36-173.4-72.99-137.13 24.91 25.54 53.08 140.73 42.85 137.13-24.91Z" fill="#9ca3a6"/><path d="M310.02 350.37c-.1-6.62 10.5-6.62 10.4 0 .1 6.62-10.5 6.62-10.4 0Zm64.34 0c-.1-6.62 10.5-6.62 10.4 0 .1 6.62-10.5 6.62-10.4 0Z" fill="#261816"/><path d="M296.97 362.08c-.19-8.56 17.94-8.56 17.74 0 .19 8.56-17.94 8.56-17.74 0Zm83.09 0c-.19-8.56 17.94-8.56 17.74 0 .19 8.56-17.94 8.56-17.74 0Z" fill="#ff99a8"/><path d="M376.01 381.01c-.51 22.75-56.75 22.76-57.25 0-1.24-45.78 58.5-45.74 57.25 0Z" fill="#ebeded"/><path d="M356.48 357.54c-1.38 10.74-19.93 8.94-17.65-1.74 3.28-3.78 16.62-4.34 17.65 1.74Z" fill="#261816"/><g fill="none" stroke="#261816" stroke-miterlimit="10" stroke-width="2.42"><path d="M338.48 366.87c3.69 7.22 10.35 2.2 8.88-4.61"/><path d="M356.3 366.87c-3.69 7.22-10.35 2.2-8.88-4.61"/></g></g><path fill="none" stroke="#c69" stroke-linecap="round" stroke-miterlimit="10" stroke-width="6.06" d="M347.39 243.16v215.87"/><rect x="3.03" y="253.32" width="199.28" height="195.55" rx="27.3" ry="27.3" fill="#fff3f0" stroke="#936" stroke-miterlimit="10" stroke-width="6.06"/><g clip-path="url(#e)"><path d="M76.72 312.86c-15.7 5.27-31.58 15.77-39.13 30.54-.06-.14.02-.35-.16.55-18.46-44.11 1.05-84.1 39.29-31.1Z" fill="#f4b569"/><path d="M69.41 315.65c-9.97 4.43-19.94 11.47-26.58 19.63-9.97-12.8-3.33-57.45 4.2-32.91 6.72-12.85 16.22 9.48 22.38 13.28Z" fill="#ff99a8"/><path d="M128.63 312.86c15.7 5.27 31.58 15.77 39.13 30.54.06-.14-.02-.35.16.55 18.46-44.11-1.05-84.1-39.29-31.1Z" fill="#f4b569"/><path d="M135.93 315.65c9.97 4.43 19.94 11.47 26.58 19.63 9.97-12.8 3.33-57.45-4.2-32.91-6.72-12.85-16.22 9.48-22.38 13.28Z" fill="#ea7a8d"/><path d="M173.77 358.61c-3.71-99.36-173.4-72.99-137.13 24.91 25.54 53.08 140.73 42.85 137.13-24.91Z" fill="#f7ca89"/><path d="M102.73 311.43c-.09.05-.12.04-.12-.06.04.02.09.04.12.06Z" fill="#f7ca89"/><path d="M168.71 383.62c-41.02 82.82-190.3-14.25-107.33-5.34 18.99 3.95 22.8-21.02 41.29-19.45 18.46-1.57 22.31 23.4 41.27 19.46 8.2-1.89 22.86-6.94 24.78 5.33Z" fill="#f5e3c4"/><path d="M65.3 361.61c-.1-6.62 10.5-6.62 10.4 0 .1 6.62-10.5 6.62-10.4 0Zm64.34 0c-.1-6.62 10.5-6.62 10.4 0 .1 6.62-10.5 6.62-10.4 0Zm-17.87-2.74c-1.38 10.74-19.93 8.94-17.65-1.74 3.28-3.78 16.62-4.34 17.65 1.74Z" fill="#261816"/><g fill="none" stroke="#261816" stroke-miterlimit="10" stroke-width="2.42"><path d="M93.76 369.19c3.69 7.22 10.35 2.2 8.88-4.61"/><path d="M111.58 369.19c-3.69 7.22-10.35 2.2-8.88-4.61"/></g><path d="M56.43 373.81c-.19-8.56 17.94-8.56 17.74 0 .19 8.56-17.94 8.56-17.74 0Zm74.74 0c-.19-8.56 17.94-8.56 17.74 0 .19 8.56-17.94 8.56-17.74 0Z" fill="#ff99a8"/></g><g clip-path="url(#f)"><path d="M144.53 313.82c6.36 6.52 12.91 20.95 14.77 4.35 6.81-.5 17.37 4.17 18.31-4.13-4.79-6.12-14.29-21.1-22.72-21.41-7.33 2.37-3.33 16.12-10.35 21.19Zm-83.71 0c-6.36 6.52-12.91 20.95-14.77 4.35-6.81-.5-17.37 4.17-18.31-4.13 4.79-6.12 14.29-21.1 22.72-21.41 7.33 2.37 3.33 16.12 10.35 21.19Z" fill="#d15e6f"/><path d="M173.77 353.81c-3.71-99.36-173.4-72.99-137.13 24.91 25.54 53.08 140.73 42.85 137.13-24.91Z" fill="#ff99a8"/><path d="M65.3 356.82c-.1-6.62 10.5-6.62 10.4 0 .1 6.62-10.5 6.62-10.4 0Zm64.34 0c-.1-6.62 10.5-6.62 10.4 0 .1 6.62-10.5 6.62-10.4 0Z" fill="#261816"/><path d="M56.43 369.01c-.19-8.56 17.94-8.56 17.74 0 .19 8.56-17.94 8.56-17.74 0Zm74.74 0c-.19-8.56 17.94-8.56 17.74 0 .19 8.56-17.94 8.56-17.74 0Zm-10.06 9.15c-13.43 14.68-51.72 4.44-34.5-18.92 13.18-14.25 44.35-1.81 34.5 18.92Z" fill="#ea7a8d"/><path d="M91.2 368.81c-.07-5.45 7.41-5.45 7.34 0 .07 5.45-7.41 5.45-7.34 0Zm15.6 0c-.07-5.45 7.41-5.45 7.34 0 .07 5.45-7.41 5.45-7.34 0Z" fill="#261816"/><path d="M50.33 322.17c-2.07 14.58-24.05-.68-22.55-8.82 6.08-6.73 12.33-16.21 20.27-20.8-5.13 6.51 3.04 21.49 2.28 29.62Zm104.68 0c2.07 14.58 24.05-.68 22.55-8.82-6.08-6.73-12.33-16.21-20.27-20.8 5.13 6.51-3.04 21.49-2.28 29.62Z" fill="#ea7a8d"/></g><path fill="none" stroke="#c69" stroke-linecap="round" stroke-miterlimit="10" stroke-width="6.06" d="M102.67 243.16v215.87"/><rect x="3.03" y="13.19" width="199.28" height="195.55" rx="27.3" ry="27.3" fill="#fff3f0" stroke="#936" stroke-miterlimit="10" stroke-width="6.06"/><g clip-path="url(#g)"><path d="M76.72 70.33c-15.7 5.27-31.58 15.77-39.13 30.54-.06-.14.02-.35-.16.55-18.46-44.11 1.05-84.1 39.29-31.1Z" fill="#f4b569"/><path d="M69.41 73.12c-9.97 4.43-19.94 11.47-26.58 19.63-9.97-12.8-3.33-57.45 4.2-32.91 6.72-12.85 16.22 9.48 22.38 13.28Z" fill="#ea7a8d"/><path d="M128.63 70.33c15.7 5.27 31.58 15.77 39.13 30.54.06-.14-.02-.35.16.55 18.46-44.11-1.05-84.1-39.29-31.1Z" fill="#f4b569"/><path d="M135.93 73.12c9.97 4.43 19.94 11.47 26.58 19.63 9.97-12.8 3.33-57.45-4.2-32.91-6.72-12.85-16.22 9.48-22.38 13.28Z" fill="#ff99a8"/><path d="M173.77 116.08C170.07 16.71.38 43.09 36.65 140.99c25.54 53.08 140.73 42.85 137.13-24.91Z" fill="#f7ca89"/><path d="M170.71 144.09c-41.02 82.82-190.3-14.26-107.33-5.34 18.99 3.95 22.8-21.02 41.29-19.45 18.46-1.57 22.31 23.4 41.27 19.46 8.2-1.89 22.86-6.94 24.78 5.33Z" fill="#f5e3c4"/><path d="M65.3 119.08c-.1-6.62 10.5-6.62 10.4 0 .1 6.62-10.5 6.62-10.4 0Zm64.34 0c-.1-6.62 10.5-6.62 10.4 0 .1 6.62-10.5 6.62-10.4 0Zm-17.87-2.74c-1.38 10.74-19.93 8.94-17.65-1.74 3.28-3.78 16.62-4.34 17.65 1.74Z" fill="#261816"/><g fill="none" stroke="#261816" stroke-miterlimit="10" stroke-width="2.42"><path d="M93.76 126.66c3.69 7.22 10.35 2.2 8.88-4.61"/><path d="M111.58 126.66c-3.69 7.22-10.35 2.2-8.88-4.61"/></g><path d="M56.43 131.28c-.19-8.56 17.94-8.56 17.74 0 .19 8.56-17.94 8.56-17.74 0Zm74.74 0c-.19-8.56 17.94-8.56 17.74 0 .19 8.56-17.94 8.56-17.74 0Z" fill="#ff99a8"/></g><g clip-path="url(#h)"><path d="M66.77 67.4c-14.99 22.09-44.35 4-25.78-17.13 12.39-12.75 35.51.43 25.78 17.13Z" fill="#898f91"/><path d="M61.17 73.05C48.8 86.41 32.48 58.4 51.08 58.36c5.8-11.37 18.17 2.29 10.09 14.69Z" fill="#ff99a8"/><path d="M138.57 67.4c14.99 22.09 44.35 4 25.78-17.13-12.39-12.75-35.51.43-25.78 17.13Z" fill="#898f91"/><path d="M144.18 73.05c12.37 13.36 28.69-14.65 10.09-14.69-5.8-11.37-18.17 2.29-10.09 14.69Z" fill="#ff99a8"/><path d="M173.77 118.88C170.07 19.52.38 45.89 36.65 143.79c25.54 53.08 140.73 42.85 137.13-24.91Z" fill="#9ca3a6"/><path d="M65.3 110.24c-.1-6.62 10.5-6.62 10.4 0 .1 6.62-10.5 6.62-10.4 0Zm64.34 0c-.1-6.62 10.5-6.62 10.4 0 .1 6.62-10.5 6.62-10.4 0Z" fill="#261816"/><path d="M52.26 121.95c-.19-8.56 17.94-8.56 17.74 0 .19 8.56-17.94 8.56-17.74 0Zm83.08 0c-.19-8.56 17.94-8.56 17.74 0 .19 8.56-17.94 8.56-17.74 0Z" fill="#ff99a8"/><path d="M131.3 140.88c-.51 22.75-56.75 22.76-57.25 0-1.24-45.78 58.5-45.74 57.25 0Z" fill="#ebeded"/><path d="M111.77 117.41c-1.38 10.74-19.93 8.94-17.65-1.74 3.28-3.78 16.62-4.34 17.65 1.74Z" fill="#261816"/><g fill="none" stroke="#261816" stroke-miterlimit="10" stroke-width="2.42"><path d="M93.76 126.74c3.69 7.22 10.35 2.2 8.88-4.61"/><path d="M111.58 126.74c-3.69 7.22-10.35 2.2-8.88-4.61"/></g></g><path fill="none" stroke="#c69" stroke-linecap="round" stroke-miterlimit="10" stroke-width="6.06" d="M102.67 3.03V218.9"/></svg>