<svg xmlns="http://www.w3.org/2000/svg" viewBox="0 0 450.05 450.05"><defs><clipPath id="a"><path d="M312.14 308.58c-8.29 14.85-48.83-17.41-41.93-27.41 11.27-10.41 51.22 8.73 41.93 27.41Z" fill="none"/></clipPath><clipPath id="b"><path d="M383.15 308.58c8.29 14.85 48.83-17.41 41.93-27.41-11.27-10.41-51.22 8.73-41.93 27.41Z" fill="#ff8e00"/></clipPath><clipPath id="c"><path d="M290.53 373.28c-2.85 82.15 117.19 82.15 114.34 0 5.93-112.78-117.47-109.61-114.34 0Z" fill="none"/></clipPath><clipPath id="d"><path d="M159.15 371.63c-.44 59.22-114.44 58.07-113.84-1.75 3.67-73.02 111.5-71.64 113.84 1.75Z" fill="none"/></clipPath><clipPath id="e"><path d="M180.86 366.97c16.82 78.63-176.63 76.55-156.79-2.05 20.35-95.87 139.71-93.96 156.79 2.05Z" fill="none"/></clipPath><clipPath id="f"><path d="M67.14 59.73c-8.29 14.85-48.83-17.41-41.93-27.41 11.27-10.41 51.22 8.73 41.93 27.41Z" fill="none"/></clipPath><clipPath id="g"><path d="M138.15 59.73c8.29 14.85 48.83-17.41 41.93-27.41-11.27-10.41-51.22 8.73-41.93 27.41Z" fill="#ff8e00"/></clipPath><clipPath id="h"><path d="M45.53 124.43c-2.85 82.15 117.19 82.15 114.34 0 5.93-112.78-117.47-109.61-114.34 0Z" fill="none"/></clipPath></defs><path d="M247.74 419.83V279.4c0-15.02 12.22-27.19 27.3-27.19h144.69c15.07 0 27.3 12.17 27.3 27.19v140.43c0 15.02-12.22 27.19-27.3 27.19H275.04c-15.07 0-27.3-12.17-27.3-27.19Z" fill="#fff3f0" stroke="#fc9" stroke-miterlimit="10" stroke-width="6.05"/><path d="M312.14 308.58c-8.29 14.85-48.83-17.41-41.93-27.41 11.27-10.41 51.22 8.73 41.93 27.41Z" fill="#ffcb6b"/><g clip-path="url(#a)"><path d="M306.66 316.49c-9 15.97-64.61-16.66-54.95-32.24 9-15.97 64.61 16.66 54.95 32.24Z" fill="#ffeccc"/></g><path d="M383.15 308.58c8.29 14.85 48.83-17.41 41.93-27.41-11.27-10.41-51.22 8.73-41.93 27.41Z" fill="#ffcb6b"/><path d="M383.15 308.58c8.29 14.85 48.83-17.41 41.93-27.41-11.27-10.41-51.22 8.73-41.93 27.41Z" fill="#ff8e00"/><g clip-path="url(#b)"><path d="M388.63 316.49c9 15.97 64.61-16.66 54.95-32.24-9-15.97-64.61 16.66-54.95 32.24Z" fill="#ffeccc"/></g><path d="M333.58 292.31c7.53 25.98-3.77 29.27-11.47 3.34-7.53-25.98 3.77-29.27 11.47-3.34Z" fill="#ffcb6b"/><path d="M326.38 268.61c2.19 7.09-9.03 10.36-11.02 3.21-2.19-7.09 9.03-10.36 11.02-3.21Z" fill="#ac5923"/><path d="M363.64 292.31c-7.53 25.98 3.77 29.27 11.47 3.34 7.53-25.98-3.77-29.27-11.47-3.34Z" fill="#ffcb6b"/><path d="M370.84 268.61c-2.19 7.09 9.03 10.36 11.02 3.21 2.19-7.09-9.03-10.36-11.02-3.21Z" fill="#ac5923"/><path d="M290.53 373.28c-2.85 82.15 117.19 82.15 114.34 0 5.93-112.78-117.47-109.61-114.34 0Z" fill="#ffcb6b"/><g clip-path="url(#c)"><path d="M412.68 434.73c-.12-66.76-131.86-66.76-131.97 0 .12 66.76 131.86 66.75 131.97 0Z" fill="#ffeccc"/><g fill="#ff8e00"><path d="M353.91 276.83c-38.25 41.2 20.78 74.1 51.28 37.87 1.76-7.05-29.18-44.04-51.28-37.87Zm-51.27 30.83c21.13 1.14 28.54 25.87 8.84 39.64-39.71 24.01-35.37-18.79-8.84-39.64Z"/><path d="M328.18 289.18c-20.07-10.38-26.9 17.54-4.33 21.12 17.99 3.56 15.05-14.94 4.33-21.12Z"/></g><path d="M315.9 390.89c-.49 28.37-42.84 28.36-43.32 0 .49-28.36 42.84-28.36 43.32 0Zm107.86 0c-.49 28.37-42.84 28.36-43.32 0 .49-28.36 42.84-28.36 43.32 0Z" fill="#ffb583"/></g><path d="M323.78 361.04c.12 8.49-13.26 8.49-13.14 0-.12-8.49 13.26-8.49 13.14 0Z" fill="#0a0907"/><path d="M317.41 358.38c.05 3.07-4.8 3.07-4.75 0-.05-3.07 4.8-3.07 4.75 0Z" fill="#fff"/><path d="M385.74 361.04c.12 8.49-13.26 8.49-13.14 0-.12-8.49 13.26-8.49 13.14 0Z" fill="#0a0907"/><path d="M379.37 358.38c.05 3.07-4.8 3.07-4.75 0-.05-3.07 4.8-3.07 4.75 0Z" fill="#fff"/><path d="M336.23 405.42c.1 12.58-10.71 12.58-10.61 0-.1-12.58 10.71-12.58 10.61 0Zm34.48 0c.1 12.58-10.71 12.58-10.61 0-.1-12.58 10.71-12.58 10.61 0Z" fill="#ee9652"/><path d="M3.02 419.83V279.4c0-15.02 12.22-27.19 27.3-27.19h144.69c15.07 0 27.3 12.17 27.3 27.19v140.43c0 15.02-12.22 27.19-27.3 27.19H30.32c-15.07 0-27.3-12.17-27.3-27.19Z" fill="#fff3f0" stroke="#fc9" stroke-miterlimit="10" stroke-width="6.05"/><path d="M180.86 366.97c16.82 78.63-176.63 76.55-156.79-2.05 20.35-95.87 139.71-93.96 156.79 2.05Z" fill="#ff8e00"/><path d="M159.15 371.63c-.44 59.22-114.44 58.07-113.84-1.75 3.67-73.02 111.5-71.64 113.84 1.75Z" fill="#fae8bf"/><path d="M66.75 288.11c15.64 25.45-15.62 45.19-32.05 20.24-15.64-25.45 15.62-45.19 32.05-20.24Z" fill="#ff8e00"/><path d="M57.53 293.32c7.87 16.27-7.78 23.86-15.78 7.66-7.87-16.27 7.78-23.86 15.78-7.66Z" fill="#fae8bf"/><path d="M137.71 288.11c-15.64 25.45 15.62 45.19 32.05 20.24 15.64-25.45-15.62-45.19-32.05-20.24Z" fill="#ff8e00"/><path d="M146.93 293.32c-7.87 16.27 7.78 23.86 15.78 7.66 7.87-16.27-7.78-23.86-15.78-7.66Z" fill="#fae8bf"/><path fill="#ff8e00" d="M88.47 309.03h31.44v60.49H88.47z"/><path d="M122.08 372.76c0 7.16-18.97 12.96-18.97 12.96-49.21-14.51 11.96-42.61 18.97-12.96Z" fill="#c75938"/><path d="M78.99 357.91c.12 8.08-12.63 8.08-12.51 0-.12-8.08 12.63-8.08 12.51 0Z" fill="#0a0907"/><path d="M72.92 355.38c.04 2.92-4.57 2.92-4.52 0-.04-2.92 4.57-2.92 4.52 0Z" fill="#fff"/><path d="M137.98 357.91c.12 8.08-12.63 8.08-12.51 0-.12-8.08 12.63-8.08 12.51 0Z" fill="#0a0907"/><path d="M131.91 355.38c.04 2.92-4.57 2.92-4.52 0-.04-2.92 4.57-2.92 4.52 0Z" fill="#fff"/><path d="M124.31 380.75c.62 14.62-20.48 21.06-28.94 9.55" fill="none" stroke="#0a0907" stroke-linecap="round" stroke-linejoin="round" stroke-width="2"/><g fill="#fd9d58" clip-path="url(#d)"><path d="M72.41 379.78c-.09 19.07-29.19 19.07-29.27 0 .09-19.07 29.19-19.07 29.27 0Zm88.91 0c-.09 19.07-29.19 19.07-29.27 0 .09-19.07 29.19-19.07 29.27 0Z"/></g><g clip-path="url(#e)" fill="#561b18"><path d="M91.75 289.77c15 54 9.16 50.68 25.97 0 0 0 5.7 30.06 5.7 28.01s8.87-28.69 8.87-28.69l-59.55-1.37c12.27 21.83 9.1 44.98 19 2.05ZM13.2 381.32c50.18-28.29 32.01-17.88 11.4 16.4l34.23-11.96-12.06 26.3c-7.09-.6-28.7-26.06-33.58-30.74Zm178.04 2.05c-48.49-27.41-32.9-19.09-15.86 19.13-25.13-8.81-39.64-31.75-17.71 11.61 7.09-.6 28.7-26.06 33.57-30.74Z"/></g><path d="M247.74 170.64V30.22c0-15.02 12.22-27.19 27.3-27.19h144.69c15.07 0 27.3 12.17 27.3 27.19v140.42c0 15.02-12.22 27.19-27.3 27.19H275.04c-15.07 0-27.3-12.17-27.3-27.19Z" fill="#fff3f0" stroke="#fc9" stroke-miterlimit="10" stroke-width="6.05"/><path d="M346.98 86.81c29.01-19.14-6.03-43.73-16.61-13.12l-21-9.13c17.67-61.1 113.32-13.74 59.36 32.14-12.4 11.15-14.21 11.32-12.98 20.73h-21.76c-5.27-12.75-.5-19.45 12.98-30.62Zm-1.34 43.55c23.33-.13 23.3 35.63 0 35.37-23.52.21-23.56-35.46 0-35.37Z" fill="#f93"/><path d="M3.02 170.64V30.22c0-15.02 12.23-27.2 27.3-27.2h144.69c15.07 0 27.3 12.17 27.3 27.19v140.43c0 15.02-12.22 27.19-27.3 27.19H30.32c-15.07 0-27.3-12.17-27.3-27.19Z" fill="#fff3f0" stroke="#fc9" stroke-miterlimit="10" stroke-width="6.05"/><path d="M67.14 59.73c-8.29 14.85-48.83-17.41-41.93-27.41 11.27-10.41 51.22 8.73 41.93 27.41Z" fill="#ffcb6b"/><g clip-path="url(#f)"><path d="M61.66 67.64c-9 15.97-64.61-16.66-54.95-32.24 9-15.97 64.61 16.66 54.95 32.24Z" fill="#ffeccc"/></g><path d="M138.15 59.73c8.29 14.85 48.83-17.41 41.93-27.41-11.27-10.41-51.22 8.73-41.93 27.41Z" fill="#ffcb6b"/><path d="M138.15 59.73c8.29 14.85 48.83-17.41 41.93-27.41-11.27-10.41-51.22 8.73-41.93 27.41Z" fill="#ff8e00"/><g clip-path="url(#g)"><path d="M143.63 67.64c9 15.97 64.61-16.66 54.95-32.24-9-15.97-64.61 16.66-54.95 32.24Z" fill="#ffeccc"/></g><path d="M88.58 43.46c7.53 25.98-3.77 29.27-11.47 3.34-7.53-25.98 3.77-29.27 11.47-3.34Z" fill="#ffcb6b"/><path d="M81.38 19.77c2.19 7.09-9.03 10.36-11.02 3.21-2.19-7.09 9.03-10.36 11.02-3.21Z" fill="#ac5923"/><path d="M118.64 43.46c-7.53 25.98 3.77 29.27 11.47 3.34 7.53-25.98-3.77-29.27-11.47-3.34Z" fill="#ffcb6b"/><path d="M125.84 19.77c-2.19 7.09 9.03 10.36 11.02 3.21 2.19-7.09-9.03-10.36-11.02-3.21Z" fill="#ac5923"/><path d="M45.53 124.43c-2.85 82.15 117.19 82.15 114.34 0 5.93-112.78-117.47-109.61-114.34 0Z" fill="#ffcb6b"/><g clip-path="url(#h)"><path d="M167.68 185.88c-.12-66.76-131.86-66.76-131.97 0 .12 66.76 131.86 66.75 131.97 0Z" fill="#ffeccc"/><g fill="#ff8e00"><path d="M108.91 27.98c-38.08 42.49 20.12 73.63 51.28 37.87 1.77-7.05-29.18-44.04-51.28-37.87ZM57.64 58.81c21.74 1.81 28.48 25.09 8.84 39.64-41.51 23.62-34.94-18.1-8.84-39.64Z"/><path d="M83.18 40.33c-20.07-10.38-26.9 17.54-4.33 21.12 17.99 3.56 15.05-14.94 4.33-21.12Z"/></g><path d="M70.9 142.04c-.49 28.37-42.84 28.36-43.32 0 .49-28.36 42.84-28.36 43.32 0Zm107.86 0c-.49 28.37-42.84 28.36-43.32 0 .49-28.36 42.84-28.36 43.32 0Z" fill="#ffb583"/></g><path d="M78.78 112.19c.12 8.49-13.26 8.49-13.14 0-.12-8.49 13.26-8.49 13.14 0Z" fill="#0a0907"/><path d="M72.41 109.53c.05 3.07-4.8 3.07-4.75 0-.05-3.07 4.8-3.07 4.75 0Z" fill="#fff"/><path d="M140.74 112.19c.12 8.49-13.26 8.49-13.14 0-.12-8.49 13.26-8.49 13.14 0Z" fill="#0a0907"/><path d="M134.37 109.53c.05 3.07-4.8 3.07-4.75 0-.05-3.07 4.8-3.07 4.75 0Z" fill="#fff"/><path d="M91.23 156.58c.1 12.58-10.71 12.58-10.61 0-.1-12.58 10.71-12.58 10.61 0Zm34.48 0c.1 12.58-10.71 12.58-10.61 0-.1-12.58 10.71-12.58 10.61 0Z" fill="#ee9652"/></svg>