<svg xmlns="http://www.w3.org/2000/svg" viewBox="0 0 750 500.24"><path d="M750 124.71v161.04C500.53 298.27 249.42 310.88 0 323.4V217.77c14.55-2.76 29.67-5.11 43.98-6.53 18.83-1.26 24.09 1.01 40.9-17.53 27-28.86 54.49-69.79 79.97-96.78 77.58-84.26 48.53 96.5 89.13 110.98 51 12.81 108.37-2.07 157.78-14.82 23.52-8.44 47.67-1.74 64.69 11.28 12.87 7.08 32.87 29.29 47.02 15.28 21.01-24.04 31.28-55.76 50.81-81.12 46.17-68.55 117.9-67.98 175.72-13.81Z" fill="#9c9"/><path d="M750 219.29v277.73c-248.74-8.97-501.31-18.03-750-27.01V293.64c134.49-128.38 179.2 14.49 249.54-12.98 33.98-30.77 59.51-159.21 121.57-94.34 11.07 13 18.08 28.91 26.84 43.38 9.76 17.88 19.46 18.88 35.4 7.65 18.25-17.58 41.26-10.42 55.96 7.33 5.9 6.09 19.63 11.59 33.23 11.01 19.08 0 45.38 3.65 66.33 5.6 35.05 2.98 46.62 4.66 62.01-13.45 25.37-21.37 67.84-52 99.13-28.55Z" fill="#696"/><path d="M718.76 320.64c10.13 2.8 20.66 6.21 31.24 9.66v92.89H499.67c4.68 6.28-499.75.29-499.67 2.3v-91.25c87.54-11.57 64.26 37.61 159.61 5.97 34.91-9.59 82.54-32.88 115.57-20.38 144.58 52.67 297.46-2.5 443.57.81Z" fill="#363"/><g fill="#030"><path d="M750 418.25v81.98H0v-81.98c11.9-.33 27.2-1.64 32.34-1.64 11.6-2.04 24.37-8.36 37.17-10.8 17.22-5.44 28.44 4.19 44.68.46 26.35-3.9 51.05-32.15 78.72-25.67 52.78 25.23 52.35 1.97 97.93-3.99 33.44 12.1 38.25 11.77 75.97 9.55 35.46-.54 93.58 1.77 132.86 4.6v1.79c54.11 4.83 49.51-32.31 106.74 2.06 14.37 8.57 34.39 16.29 51.3 10.67 5.4-1.79 11.31-1.4 17.06-.55 14.83 1.97 29.21 9.25 42.9 11.89 8.47.19 20.42 1.31 32.34 1.64Z"/><path d="M64.33.24c-3.35 61.03-6.24 130.94-10.67 191.72-9.42 1.94-43.24-24.53-53.65-30.58v23.94c12.33 8.12 40.86 27.53 49.66 33.3 3.89 65.84-6.52 144.9-9.99 212.67 19.36-3.46 55.56-9.92 74.62-13.33.41-130.58-.62-290.13-7.98-417.72H64.35ZM750 131.32v38.03c-24.12 11.95-77.61 39.14-97.07 49.26-3.78 68.69 6.46 143.44 9.99 212.67-22.3-3.99-52.27-9.34-74.62-13.33-.35-134.07.5-285.78 7.98-417.72h41.97c2.9 56.27 5.97 117.39 9.35 174.05 1.54 24.66-1.55 21.39 22.2 8.58 23.26-14.59 55.4-35.54 80.19-51.55ZM424.38.24l8 387.15.36 17.23s-57.96 10-66.63-4c3.52-71.79 16.07-330.35 26.7-400.38h31.56Zm125.97 395.68c-10.63-26.09-5.69-53.41-44.95-48.6-38.89-4.81-34.65 20.68-45.03 46.82-5.02 12.15 34.15 4.57 40.12 7.73 4.7-.88 52.39 2.29 49.87-5.95ZM127.6 421.34c-1.52 4.52 19.7-100 7.29-53.45-2.17 18.41-10.65 42.64-7.29 53.45Z"/><path d="M126.17 355.49c1.28-3.05 7.84 9.75 8.55 14.02.71 4.28-12.83-3.8-8.55-14.02Zm9.03 16.17s8.31-21.39 14.02-14.26-13.78 15.69-14.02 14.26Zm-3.8 17.59s-5.23-14.02-9.26-11.41c-4.04 2.61-1.19 4.75 1.43 6.18 2.61 1.43 7.84 7.37 7.84 5.23Zm.47 3.8s4.51-13.31 9.5-9.27c4.99 4.04-10.69 12.84-9.5 9.27Zm174.72-8.5c-.5-4.69 12.33-31 15.66-31.33 3.33-.33 32.98-2.33 33.98 1.67s9.99 32.67 6.66 34c-3.33 1.33-55.3 5-56.3-4.33Z"/></g><path d="M127.18 312.21c-5.33 3.62-16.73 7.42-22.24 7.88-4.5 0-10.49-13.97-14.99-12.48s5.5 13.47 5.99 14.97-26.98 1-28.47 1-16.49-18.96-17.98-18.46c-1.19.71 10.5 16.29 13.99 20.96 0 0-7.99-.5-9.49-1-5.7-5.36-20.2-24.69-22.48-25.45 17.97 35.07 28.29 29.23-24.98 20.96 0 0-2.75-7.93-6.52-15.2v-49c61.94-7.58 34.42-3.97 15.02 21.78 1.5 3.5 32.47-21.96 33.97-22.46 5.58.91 21.69 8.55 23.98 9.48 2 1-29.47 18.46-22.48 20.46s34.97-15.97 34.97-15.97l12.99 9.98s-13.49 8.48-12.99 9.98 18.48-5.99 20.48-6.99c4.19 1.26 14.36 14.38 18.54 18.98 3.12 4.68 8.55 6.51 2.7 10.57Z" fill="#6c6"/><path d="M749.84 234.29c-.27 12.13 2.24 39.6-5.98 48.93-2.42 1.51-23.85-2.22-27.79-3.14-3.94-.93 2.63-25.2 1.04-26.3-1.6-1.11-12.55 23.88-16.35 25.97-3.8 2.09-28.8-8.21-32.94-10.28-4.15-2.06 3.7-11.65 3.2-14.35-.49-2.7-8.56 8.79-11.68 10.59-3.11 1.8-11.31-15.76-12.06-19.47-.76-3.73 2.53-3.18 43.69-5.51 21.62-1.23 43.17-4.03 58.88-6.44Z" fill="#9f9"/><g fill="#030"><path d="M333.31 0c4.71 325.16-78.81 337.05-76.83 0h7.24c-2.16 306.35 63.13 330.31 65.57 0h4.02Z"/><path d="M330.6 39.16s17.13 9.28 12.73 13.68c-4.41 4.4-15.66-15.15-12.73-13.68Zm-1.96 37.13s13.22 1.47 9.3 9.28c-3.92 7.82-11.26-8.79-9.3-9.28Zm-3.88 63.52s11.28-.56 10.71 9.57c-.56 10.13-12.97-7.31-10.71-9.57Zm2.2-34.08s11.28-.56 10.71 9.57c-.56 10.13-12.97-7.31-10.71-9.57Zm3.31-95.27s11.28-.56 10.71 9.57c-.56 10.13-12.97-7.31-10.71-9.57Zm-11.42 190.42s15.66 11.73 10.28 14.66c-5.38 2.93-13.22-14.66-10.28-14.66Zm-7.59 34.69c5.18 2.07 8.81 12.21 3.43 14.17-5.38 1.95-5.87-15.15-3.43-14.17Zm-17.86 13.68s1.47 15.15-4.41 14.17c-5.87-.98 1.96-17.1 4.41-14.17Zm-14.39-31.73s-.88 16.02-9.03 14.89c-8.14-1.13 9.62-21.22 9.03-14.89Zm-8.61-33.6s-.22 14.47-7.39 14.05c-7.17-.42 6.28-17.62 7.39-14.05Zm-4.88-39.53s-3.41 13.48-9.28 12.76c-5.87-.72 9.11-18.08 9.28-12.76Zm-3.17-45.44s-3.76 13.83-9.08 11.04c-5.33-2.79 8.51-13.89 9.08-11.04Zm-1.87-31.67s-1.19 14.27-8.34 11.9c-7.15-2.38 7.75-13.68 8.34-11.9Zm-1.35-27.14s-2.45 10.75-7.34 10.26c-4.9-.49 6.36-13.68 7.34-10.26Zm-.98-27.85s-4.41 9.28-8.81 8.31 8.32-11.73 8.81-8.31ZM475.67 0c-11.83 23.36 12.8 38.75 13.35 63.57 3.09 37.68-16.16 50.54-2.45 92.85 3.92 11.73-.49 39.57 2.45 40.54 2.72.91 2.07-12.02 2.35-29.09 1.03-11.99-3.13-23.75-5.36-36.06H486c-1.78-9.64-1.76-20.61 3.11-31.59 21.6-52.81-26.48-73.58-8.08-100.23h-5.36Z"/><path d="M483.14 37.69s10.77 7.82 11.26 3.91c.49-3.91-12.24-7.33-11.26-3.91Zm4.4 9.29s-4.9 8.31-8.32 5.37c-3.43-2.93 7.34-10.26 8.32-5.37Zm5.88 17.59s11.26 7.82 7.34 9.28c-3.92 1.47-9.3-9.77-7.34-9.28Zm-3.43-4.89s-1.47 9.77-5.87 8.31c-4.41-1.47 4.41-11.24 5.87-8.31Zm-.98 34.2s8.32 7.82 4.41 9.77c-3.92 1.95-6.85-9.77-4.41-9.77Zm-5.38 13.19c-1.93-.77-10.28 7.82-7.34 10.26 2.94 2.44 9.79-9.28 7.34-10.26Zm.49 23.94s12.24 4.89 9.3 7.33c-2.94 2.44-12.73-7.33-9.3-7.33Zm0 11.24s-8.81 6.84-4.41 9.28c4.41 2.44 5.87-8.31 4.41-9.28Zm7.34 21.5s10.77 6.84 5.87 7.82c-4.9.98-8.81-7.82-5.87-7.82Z"/></g></svg>