<svg xmlns="http://www.w3.org/2000/svg" viewBox="0 0 2880 1800" xml:space="preserve"><path d="M747.3 360.1c5.1 5.4-42.6 35.4-44.6 38.1-4.7 1.7-22.6-13.8-26.1-16l-47.2 34.9c1.6 5.6 10.2 24.7 6.6 30.4-3.6 1.4-42.1 35.1-46.4 29.1l-49.3-168.4 2.5-4.9 53.3-39.4 5.6-1.1 145.6 97.3zm-104.2-3-39.4-29-3.5 2.6 15.8 46.5 27.1-20.1zm1434.5 472.3 16.6 30.8-1.7 5.6-131.2 70.8c-7.1 1.7-16.6-23.7-19.6-27.5-1.1-2.5 27-117.6 22.4-119.4-3.4.4-63.8 38.5-66.6 31.2-1.3-4.5-21-32.2-14.8-36.8l125.6-67.8 5.9 1.6 14.9 27.6c1.1 2.4-28.2 116.2-23.5 117.8 3.5-.4 69.3-41.9 72-33.9zm355.5-232.7 29.9-172c3.6-6.9 48.1 23.5 52 24.5l2 4.5-29 117.3 3.8 2.2 84.5-85.2 5.5-.8c3 2.9 51.1 25.1 47.2 31.9-4.3.5-132.9 117.9-138.8 113.4-1.6-1.8-60.5-31.6-57.1-35.8zM955 1466.2c102.2-19.1 116.2 128-1.9 129.2-.2 4.3 10.4 42.5 3.4 44.6-4-.3-51.2 12.1-52.6 4.8l-27.6-160.9 3.6-4.8 75.1-12.9zm5.9 84.1c33.5-6.9 21.6-53.9-22.1-37.7l6.9 40.3 15.2-2.6zm677.7-1276.9c-5.3 22.8-19.1 42.2-38.6 54.2 22.9 77.7 40.1 72-45.3 51.6l-10.1-38.9c-88.8-1-128-119.5-48.9-165.5 66-36.7 163.5 18.5 142.9 98.6zm-100.5 18.4c45.4 10.2 64.3-67.8 18.8-79.1-47.9-10-65.5 66.3-18.8 79.1zm958.7 1108c-12.7 68.2-7 171.5-107.6 154.6-99.8-14.6-70.7-120-50.3-184.3l47.6 7.6 3.7 5-15 93.3c-6.3 35.4 45.8 45.6 50.5 8.1 1.7-2.2 12.3-100.7 19.8-97l47.6 7.6 3.7 5.1zM459.4 1092.6l-4.8 3.1c-66.7-18.7-58.1 3.4-77.3-67.5l-26.2 21.2-3.9 16.4-5 3.1-47.4-11.3-3.1-5L329.5 894l5.3-3.3 47.1 11.2 3 5.3-14.2 59.5c73.1-55.6 38.3-59.3 121.4-38.5l3.3 5.1-69.4 56.5 33.4 102.8zm712.5-301c-7.5 9 37.3 39.9 42.3 56.3 17.4 30-9 70.4-43 70.3-36.7.8-80-33.4-101.7-60.6l-.8-6.9L1093 818l6.4.9c12.6 18.3 33.3 40.1 55.2 47.1 8.5 2.1 12.4-6 7-12.6-15.9-20.6-45.4-38.9-46.2-68.4 11.5-86.7 122.7-37.2 147 14.2l-24.6 33.7-5.9-.8c-7.5-8.8-50.5-55.4-60-40.5zm451.3 399.1c63.4-19.7 125.5 28.6 116.7 95-8.8 75.7-121.5 106.9-168 46.5-41.7-52.6-13.3-125.9 51.3-141.5zm13.3 45.3c-46.8 14.4-25.5 89.6 21.6 78.3 44.7-12.9 23.7-90.4-21.6-78.3z" fill="#49d988"/></svg>