<svg xmlns="http://www.w3.org/2000/svg" viewBox="0 0 847.66 1236.77"><path d="M353.76 964.81c10.26-29.81 5.49-68.72-15.43-90.4-6.62-6.86-14.5-13.19-23.12-18.51-7.22-2.01-14.61-3.42-21.47-4.69-39.3-7.25-78.74.45-112.18 21.06-27.34 16.86-49.17 53.95-82.56 57.77-34.44 3.93-67.3-31.47-90.92 14.37-14.88 28.88 8.63 70.5 29.07 91.69 82.27 85.3 265.39 10.3 316.61-71.29ZM234.74 654.94c-14.83 57.93-75.21 251.75-177.36 209.01-70.7-29.59 37.68-197.49 75.32-231.34 47.6-42.79 135.56-27.99 95.71 50.81m-44.76-582.46C166.6-19.46 5.04-23.59.11 104.13c-4.63 119.74 138.28 158.72 177.22 34.97 6.09-19.35 5.8-44.83 3.15-47.63m483.53 9.49c17.05-120.42 178.61-124.55 183.54 3.16 4.63 119.74-138.28 158.72-177.22 34.97-6.09-19.35-5.8-44.83-3.15-47.63" fill="#00000d"/><path d="M424.59 651.31c252.37 21 519.53-201.7 349.14-465.36-52.55-81.31-140.89-141.36-236.97-169.03-10.66-3.83-21.41-6.99-32.17-9.28-26.04-5.53-52.91-7.94-80-7.61-27.09-.33-53.96 2.08-80 7.61-10.77 2.29-21.52 5.45-32.17 9.28C216.34 44.59 128 104.64 75.45 185.95c-170.39 263.66 96.77 486.36 349.14 465.36Z" fill="#e9edf8"/><path d="M361.3 370.65c0 19.22 28.34 34.81 63.29 34.81s63.29-15.58 63.29-34.81-28.34-34.81-63.29-34.81-63.29 15.58-63.29 34.81Zm-230.25-143.2c53.73-92.8 211.97-63.69 193.74 51.34-13.59 85.72-140.74 210.28-219.91 113.92-39.52-48.1-8.5-147.43 38.83-181.08m567.91 28.48c-53.73-92.8-211.97-63.69-193.74 51.34 13.59 85.72 140.74 210.28 219.91 113.92 39.52-48.1 8.5-147.43-38.83-181.08" fill="#00000d"/><path d="M424.59 497.22c-2.62 0-4.75-2.12-4.75-4.75V390.42c0-2.62 2.13-4.75 4.75-4.75s4.75 2.12 4.75 4.75v102.05c0 2.62-2.13 4.75-4.75 4.75Z" fill="#00000d"/><path d="M425.9 497.22c-29.56 0-59.26-16.21-79.87-43.72a4.754 4.754 0 0 1 .95-6.65c2.09-1.56 5.07-1.15 6.64.95 19.31 25.78 47.08 40.89 74.36 39.89 26.05-.76 49.99-15.69 67.41-42.03 1.44-2.19 4.39-2.78 6.58-1.34a4.743 4.743 0 0 1 1.34 6.58c-19.17 28.99-45.82 45.43-75.05 46.29-.79.02-1.58.03-2.36.03Z" fill="#00000d"/><path d="M199.51 343.39c-18.92 0-40.82-11.32-41.74-43.48-.07-2.62 1.99-4.81 4.61-4.88 2.64 0 4.81 1.99 4.88 4.61.74 25.76 17.69 34.64 33.06 34.25 21.39-.46 43.27-16.87 42.89-43.54a4.74 4.74 0 0 1 4.68-4.81h.07c2.59 0 4.71 2.08 4.74 4.68.47 32.14-26.72 52.62-52.17 53.17h-1.02Zm435.59 0c-18.92 0-40.82-11.32-41.74-43.48-.07-2.62 1.99-4.81 4.61-4.88 2.63 0 4.81 1.99 4.88 4.61.73 25.76 17.47 34.7 33.07 34.25 21.39-.46 43.27-16.87 42.88-43.54a4.74 4.74 0 0 1 4.68-4.81c2.39.03 4.78 2.05 4.81 4.68.47 32.13-26.71 52.62-52.17 53.17h-1.02Zm-15.33 181.75c82.79 39.46 150.29 186.54 159.32 272.56 15.28 145.51-69.32 272.17-194.57 340.18-156.56 85.01-349.09 86.65-441.06-80.56-61.6-111.99-53.8-312.29 35.62-409.6 24.49-26.65 60.36-47 93.54-58.64" fill="#e9edf8"/><path d="M448.35 698.54c-14.83 57.93-75.21 251.75-177.36 209.01-70.7-29.59 37.68-197.49 75.32-231.34 47.6-42.79 135.56-27.99 95.71 50.81m237.89 209.61c97.05-32.55 115.79 133.65 12.66 142.57-98.05 8.48-96.91-165.54 7.19-146.62m-170.25 225.43c14.46-28.01 15.38-67.21-2.19-91.68-5.56-7.75-12.44-15.15-20.2-21.66-6.85-3.04-13.96-5.5-20.56-7.74-37.83-12.86-77.98-10.95-114.04 4.62-29.49 12.73-56.45 46.27-90.05 45.22-34.65-1.09-62.04-40.87-92.04 1.06-18.9 26.42-1.66 71.01 15.5 94.93 69.07 96.31 261.11 48.58 323.59-24.74Z" fill="#00000d"/></svg>