<svg xmlns="http://www.w3.org/2000/svg" viewBox="0 0 750 500"><defs><clipPath id="a"><path fill="none" d="M0 0h750v500H0z"/></clipPath><clipPath id="b"><path d="M41.29 408.68c16.73-11-.44-33.93-17.59-51.09 29.4 20.65 76.21 47.02 86.66 14.34 9.9-30.96-38.15-39.08-74.15-40.91 21.51-2.41 43.41-9.07 37.82-26.56C63.6 271.86-.66 326.65-.66 326.65c-2.32 4.24 9.07 99.8 41.95 82.04Z" fill="#696"/></clipPath></defs><g clip-path="url(#a)"><g fill="#030"><path d="m232.85 184.89-38.86-26.45c-33.18-19.8 198.45-95.6 342.84-158.66h-39.1C347.25 44.88 141.32 125.38-.66 199.97v62.91s130.91-107.8 172.73-95.06l57.96 23.98c3.96 1.49 6.14-4.75 2.82-6.9Z"/><path d="M188.17 390.38c-41.24 3.38-37.14-230.24-36.15-252.6l2.13.09c.89.36-8.92 243.71 34.01 250.05 11.72 0 27.61-23.74 36.74-136.81 5.5-68.13 5.8-137.15 5.8-137.84h2.14c.91 15.78-4.26 284.4-44.68 277.11Z"/><path d="M166.2 350.65c-.82 6.99 2.08 13.21 2.08 13.21 5.26-5.14 6.62-19.3 2.96-25.31 0 0-4.23 5.11-5.04 12.1Zm48.68-99.69c-5.26 3.61-7.68 10.09-7.68 10.09 7.77 1.4 17.21-6.45 19.05-13.07 0 0-6.1-.63-11.36 2.98Zm-63.7 10c-4.2-5.13-10.22-6.44-10.22-6.44.15 6.9 7.49 17.54 15.22 18.57 0 0-.79-7-4.99-12.13Z"/></g><g fill="#030"><path d="M864.6 190.65c-196.57 5.44-520.49-92.21-631.01-217.94l5.12-4.59C349.7 93.15 668.79 188.73 864.81 183.78l-.21 6.86Z"/><path d="M533.1 144.98c-8.46 5.04-12.36 14.09-12.36 14.09 11.72 1.63 26.56-7.29 30.65-18.24 0 0-9.82-.88-18.29 4.15Zm-121.07-77.5c-8.46 5.04-12.36 14.09-12.36 14.09 11.72 1.63 26.56-7.29 30.65-18.24 0 0-9.82-.88-18.29 4.15Z"/></g><g fill="#696"><path d="M425.24-.22s29.04 183.78 325.42 188.87v-13.2s-262.3-4.6-299.8-175.67h-25.62Zm145.82 229.96c-.67 5.7 1.7 10.77 1.7 10.77 4.25-4.03 5.4-15.9 2.41-20.64 0 0-3.45 4.17-4.11 9.87Zm-18.64-62.44c-4.29 2.94-6.27 8.23-6.27 8.23 6.18 1.22 14.16-5.37 15.54-10.66 0 0-4.98-.52-9.27 2.43Z"/><path d="M558.81 156.58c-3.43-4.18-8.34-5.26-8.34-5.26.04 5.49 6.24 14.42 12.41 15.15 0 0-.65-5.71-4.07-9.89Z"/><path d="M618.19 157.44c-16.08 175.61-56.77 92.26-56.17-9.28l-1.79-.3c1.24 129.2 47.16 168.5 59.68 9.86l-1.72-.28Z"/></g><path d="M16.86-.22c5.91 6.4 18.5 11.52 34.4 14.01C49.3 32.95 63.34 46.8 84.02 42.05c-3 20.23 17.19 24.29 36.02 9 8.3 21.21 44.35 13.75 67.07-8-13.17 40.47 33.04 28.04 47.38 2.38 14.68 30.64 70.33-2.72 85.36-29.99 26.49-.07 49.02-6.57 57.67-15.66H16.86Z" fill="#030"/><g fill="#696"><path d="M628.14 51.08c-1.85 0-3.65-.18-5.41-.5-20.62 36.41-79.27 16.06-72.17-25.8-24.07 5.29-28.83-31.84-4.15-32.72 21.09-.23 59.4-.28 81.72 0 38.8.65 38.84 58.37 0 59.03Z"/><path d="M538.96 43.96c-.87-5.41 2.97-10.52 2.97-10.52 6.59 4.04 8.1 13.74 3.15 19.59 0 0-5.25-3.65-6.12-9.06Zm79.82 15.97c-1.42-5.29 1.87-10.77 1.87-10.77 6.96 3.35 9.46 12.84 5.14 19.16 0 0-5.6-3.1-7.01-8.39Z"/><path d="M626.44 55.87c-3.39-1.88-4.56-6.26-4.56-6.26 4.97-1.95 11.33 1.62 12.29 6.82 0 0-4.33 1.32-7.73-.56Zm174.43 20.19c-2.63 0-5.19-.25-7.68-.71-29.31 51.75-112.66 22.82-102.57-36.67-34.21 7.52-40.97-45.26-5.9-46.51 29.97-.32 84.42-.39 116.15 0 55.15.92 55.21 82.96 0 83.89Z"/><path d="M674.12 65.93c-1.24-7.69 4.22-14.96 4.22-14.96 9.54 6.26 11.52 18.99 4.48 27.84 0 0-7.46-5.19-8.7-12.88Z"/><path d="M736.28 132.86c-1.85 0-3.65-.18-5.41-.5-20.62 36.41-79.27 16.06-72.17-25.8-24.07 5.29-28.83-31.84-4.15-32.72 21.09-.23 59.4-.28 81.72 0 38.8.65 38.84 58.37 0 59.03Z"/><path d="M647.09 125.73c-.87-5.41 2.97-10.52 2.97-10.52 6.59 4.04 8.1 13.74 3.15 19.59 0 0-5.25-3.65-6.12-9.06Zm79.82 15.98c-1.42-5.29 1.87-10.77 1.87-10.77 6.97 3.35 9.46 12.84 5.14 19.16 0 0-5.6-3.1-7.01-8.39Z"/><path d="M734.57 137.64c-3.39-1.88-4.56-6.26-4.56-6.26 4.97-1.95 11.33 1.62 12.29 6.82 0 0-4.33 1.32-7.73-.56Zm-16.68-51.79c-2.93 0-5.79-.28-8.57-.8-32.68 57.69-125.59 25.44-114.34-40.88-38.13 8.39-45.67-50.45-6.57-51.84 33.41-.36 94.1-.44 129.48 0 61.47 1.03 61.54 92.48 0 93.52ZM578.4 98.36c-4.95-7.13-2.97-17.07-2.97-17.07 12.78 1.87 20.64 13.32 17.92 25.83 0 0-10-1.63-14.95-8.77Z"/><path d="M703.05 99.87c-2.25-8.38 2.97-17.07 2.97-17.07 11.3 5.85 14.94 19.74 8.14 30.36 0 0-8.86-4.91-11.11-13.29Z"/><path d="M715.19 93.43c-5.38-2.98-7.23-9.91-7.23-9.91 8.36-2.93 17.57 2.24 19.48 10.81 0 0-6.87 2.09-12.25-.89Z"/></g><g fill="#030"><path d="M679.58 36.88c-1.4 0-2.78-.14-4.11-.38-15.68 27.69-60.28 12.21-54.88-19.62-18.16 4.24-21.85-24.46-3.15-24.88 16.03-.17 45.16-.21 62.14 0 29.5.49 29.54 44.38 0 44.88Z"/><path d="M611.77 31.46c-.66-4.11 2.26-8 2.26-8 4.95 2.9 6.15 10.63 2.4 14.89 0 0-3.99-2.78-4.65-6.89Zm60.69 12.15c-1.08-4.02 1.43-8.19 1.43-8.19 5.22 2.38 7.21 9.94 3.91 14.57 0 0-4.25-2.36-5.33-6.38Z"/><path d="M678.29 40.52c-2.58-1.43-3.47-4.76-3.47-4.76 3.78-1.48 8.62 1.23 9.35 5.19 0 0-3.3 1-5.88-.43Zm132.64 15.35c-2 0-3.95-.19-5.84-.54-22.29 39.35-85.67 17.36-78-27.89-26.01 5.72-31.16-34.41-4.48-35.36 22.79-.24 64.19-.3 88.32 0 41.94.7 41.98 63.08 0 63.79Z"/><path d="M714.54 48.17c-.94-5.85 3.21-11.37 3.21-11.37 7.19 4.58 8.76 14.63 3.41 21.17 0 0-5.67-3.95-6.61-9.8Z"/><path d="M761.81 99.06c-1.4 0-2.78-.14-4.11-.38-15.68 27.69-60.28 12.21-54.88-19.62-18.16 4.24-21.85-24.46-3.15-24.88 16.03-.17 45.16-.21 62.14 0 29.5.49 29.54 44.38 0 44.88Z"/><path d="M694 93.64c-.66-4.11 2.26-8 2.26-8 4.95 2.9 6.15 10.63 2.4 14.89 0 0-3.99-2.78-4.65-6.89Z"/><path d="M747.83 63.32c-2.23 0-4.4-.21-6.51-.6-24.85 43.87-95.5 19.35-86.95-31.09-29 6.38-34.73-38.36-5-39.42 25.41-.27 71.56-.33 98.46 0 46.75.78 46.8 70.32 0 71.11Zm-106.07 9.51c-3.76-5.42-2.26-12.98-2.26-12.98 9.44 1.14 15.86 10.49 13.63 19.64 0 0-7.61-1.24-11.37-6.67Z"/><path d="M736.55 73.98c-1.71-6.37 2.26-12.98 2.26-12.98 8.5 4.26 11.38 15.22 6.19 23.09 0 0-6.74-3.73-8.45-10.11Z"/><path d="M745.78 69.08c-4.09-2.27-5.5-7.54-5.5-7.54 6.19-2.28 13.49 1.82 14.81 8.22 0 0-5.22 1.59-9.31-.68Z"/></g><path d="M41.29 408.68c16.73-11-.44-33.93-17.59-51.09 29.4 20.65 76.21 47.02 86.66 14.34 9.9-30.96-38.15-39.08-74.15-40.91 21.51-2.41 43.41-9.07 37.82-26.56C63.6 271.86-.66 326.65-.66 326.65c-2.32 4.24 9.07 99.8 41.95 82.04Z" fill="#696"/><g clip-path="url(#b)" fill="#030"><path d="m-12.32 334.12.16-1.21c.81.11 81.23 10.96 137.55 48.38l-.68 1.02c-56.08-37.26-136.23-48.08-137.03-48.18Z"/><path d="m-4.86 335.18.83-.89c17.35 13.15 48.45 59.44 42.12 83.98l-1.19-.25c.08-.37 6.95-37.28-41.76-82.85Z"/><path d="M-16.58 335.18c40.62-4.76 98.12-36.81 98.69-37.13l.6 1.06c-.58.32-58.28 32.49-99.15 37.28l-.14-1.21Z"/></g><g fill="#030"><path d="M645.12 456.03c-1.59 0-3.15.15-4.66.43-17.77-31.36-68.28-13.83-62.17 22.23-20.73-4.56-24.83 27.43-3.57 28.19 18.16.19 51.16.24 70.4 0 33.42-.56 33.46-50.28 0-50.84Z"/><path d="M568.3 462.17c-.75 4.66 2.56 9.06 2.56 9.06 5.67-3.48 6.98-11.83 2.72-16.87 0 0-4.52 3.15-5.27 7.81Zm68.75-13.77c-1.22 4.56 1.61 9.28 1.61 9.28 6-2.88 8.15-11.06 4.43-16.51 0 0-4.82 2.67-6.04 7.23Z"/><path d="M643.65 451.91c-2.92 1.62-3.93 5.39-3.93 5.39 4.28 1.68 9.76-1.39 10.59-5.88 0 0-3.73-1.14-6.66.49Zm150.26-17.4c-2.26 0-4.47.22-6.62.61-25.25-44.58-97.05-19.66-88.36 31.59-29.47-6.48-35.3 38.99-5.08 40.06 25.82.28 72.72.34 100.05 0 47.5-.79 47.56-71.46 0-72.27Z"/><path d="M684.73 443.24c-1.07 6.62 3.63 12.88 3.63 12.88 8.15-5.19 9.92-16.57 3.86-23.98 0 0-6.43 4.47-7.49 11.1Z"/><path d="M738.27 385.59c-1.59 0-3.15.15-4.66.43-17.77-31.36-68.28-13.83-62.17 22.23-20.73-4.56-24.83 27.43-3.57 28.19 18.16.19 51.16.24 70.4 0 33.42-.56 33.46-50.28 0-50.84Z"/><path d="M661.45 391.73c-.75 4.66 2.56 9.06 2.56 9.06 5.67-3.48 6.98-11.83 2.72-16.87 0 0-4.52 3.15-5.27 7.81Zm68.75-13.76c-1.22 4.56 1.61 9.28 1.61 9.28 6-2.88 8.15-11.06 4.43-16.51 0 0-4.82 2.67-6.04 7.23Z"/><path d="M736.8 381.47c-2.92 1.62-3.93 5.39-3.93 5.39 4.28 1.68 9.76-1.39 10.59-5.88 0 0-3.73-1.14-6.66.49Zm-14.36 44.61c-2.52 0-4.98.24-7.38.69-28.15-49.69-108.18-21.92-98.49 35.21-32.85-7.22-39.34 43.46-5.66 44.66 28.78.31 81.06.38 111.53 0 52.95-.89 53.01-79.66 0-80.56Z"/><path d="M600.72 435.8c-1.19 7.38 4.05 14.36 4.05 14.36 9.16-6.01 11.07-18.23 4.3-26.73 0 0-7.16 4.99-8.35 12.37ZM709.65 414c-1.94 7.22 2.56 14.7 2.56 14.7 9.73-5.04 12.87-17 7.01-26.15 0 0-7.64 4.23-9.57 11.45Z"/><path d="M720.11 419.55c-4.63 2.57-6.23 8.54-6.23 8.54 7.01 2.58 15.29-2.06 16.78-9.31 0 0-5.91-1.8-10.55.77Z"/></g><path d="M-91.3 500.22c5.91-10.08 18.5-18.14 34.4-22.06-2.22-22.43 8.59-53.28 32.76-44.52-3.6-25.72 14.14-42.02 36.02-14.17 8.51-34.68 45.84-19.82 67.07 12.61-12.84-59.6 29.82-49.13 47.38-3.75 17.84-51.85 74.38 12.95 85.36 47.24 26.49.11 49.02 10.35 57.67 24.66H-91.3Z" fill="#696"/><path d="M-65 500.22c5.07-6.94 15.88-12.49 29.53-15.2-2-17.75 9.09-36.48 28.13-30.66-3.04-19.61 13.72-27.72 30.92-9.76 7.2-23.42 38.68-14.32 57.58 8.68-11.15-42.47 26.98-32.16 40.68-2.58 13.92-34.54 62.15 5.96 73.28 32.53 22.74.08 42.09 7.13 49.51 16.99H-65Zm390.66-15.31c11.26 3.31 30.49 6.9 36.76-1.55-6.36-1.63-12.59-3.48-17.82-5.51-37.09-14.39-46.59-35.22-18.77-25.61 14.63 5.05 28.2 3.71 38.52.85 8.36-2.12 8.25-11.37 8.15-18.38-6.49-1.48-13.16-3.28-18.5-5.33-28.45-10.94-35.66-26.97-14.31-19.68 8.72 2.98 16.96 2.98 23.93 1.78 4.55-.79 7.73-4.98 7.33-9.58-1.97-22.93-4.66-43.78-.97-56.53-10.22 7.23-29.1 11.46-49.93 16.68-8.27 2.17-8.39 11.87-2.86 17.09 15.83 20.79-8.71 12.46-25.15-9.31-25.88 6.33-25.25 16.21-10.52 36.35 21.78 28.82-14.21 13.75-33.92-13.72-16.01 11.25-9.68 30.57 1.19 43.8 16.34 20.71-.32 21.14-22.51-.82-1.07 36.19 28.98 71.13 28.98 71.13s48.26 19 82.81 1.31c-31.72-14.12-38.55-31.99-12.4-22.96Zm21.42-41.2c5.02 3.5 1.77 8.06-3.19 4.48-5.02-3.5-1.77-8.06 3.19-4.48Zm-57.77-45.06c-12.03-8.42-6.39-16.35 5.52-7.76 12.03 8.41 6.38 16.35-5.52 7.76Z" fill="#030"/><g fill="#030"><path d="M677.67 549.26c-1.38-.31-138.32-32.6-181.15-151.5l-3.63 1.31c43.56 120.92 182.53 153.64 183.93 153.96l.85-3.77Z"/><path d="M592.95 514.31s-11.68-10.8.66-51.3c0 0 14.69 30.25-.66 51.3Zm-29.56-21.14s-9.35-12.87-51.06-5.43c0 0 28.32 18.16 51.06 5.43Z"/><path d="M561.5 493.14s11.46-11.03-1.7-51.28c0 0-14.07 30.54 1.7 51.28Zm-22.71-25.9s-9.35-12.87-51.06-5.43c0 0 28.32 18.16 51.06 5.43Z"/><path d="M536.49 469.75s11.46-11.03-1.7-51.28c0 0-14.07 30.54 1.7 51.28Zm-21.2-32.97s-9.35-12.87-51.06-5.43c0 0 28.32 18.16 51.06 5.43Zm-19.47-33.15s11.2-11.29-2.87-51.23c0 0-13.37 30.86 2.87 51.23Z"/><path d="M514.17 438.23s13.5-8.42 8.97-50.52c0 0-20.1 26.97-8.97 50.52Z"/></g><path d="M654.52 279.15c-44.14-4.27-100.83 15.43-81.37 78.24 7.91-18.27 19.37-29.55 31.67-36.38L598 315.2c6.16.28 11.28.9 15.62 1.7 28.16-10.91 57.42-2.3 57.42-2.3l-16.52-35.45Z" fill="#030"/><path d="M678.8 326.97c9.11-.11 19.26.47 30.33 2.19l-21.71 6.25c42.96 39.19 89.73 39.2 89.73 39.2-4.85-29.46-22.65-62.86-48.37-85.83-2.03 5.14-4.4 10.48-7.18 15.98l.73-21.38c-15.74-12.34-34.03-20.72-53.89-22.31.15 4.69.13 9.6-.11 14.74l-6.14-15.03c-25.28-.18-52.86 10.78-80.78 38.49 0 0 43.36-28.55 97.4 27.69Z" fill="#696"/><path d="m463.41 478.1 32.33-33c-5.78-5.81-12.49-10.66-19.86-14.43l-12.9 28.56 7.19-31.25c-2.01-.83-4.06-1.58-6.14-2.25l-1.61 7.26.15-7.69c-12.62-3.88-27.39-4.32-40.3-1.11l.17 8.8-1.85-8.37c-2.12.55-4.19 1.17-6.24 1.89l7.53 32.71-13.68-30.28a78.24 78.24 0 0 0-22.29 15.09l21.06 21.49-25.18-17.15c-12.26 13.8-19.77 31.91-19.77 51.82H518.5c0-18.22-6.29-34.94-16.75-48.23l-38.35 26.11Z" fill="#030"/></g></svg>