<svg xmlns="http://www.w3.org/2000/svg" viewBox="0 0 798.95 1287.96"><path d="M138.55 1054.15c-22.94-2.75-45.57.42-66.34 8.25-30.4 17.85-56.39 47.58-72.22 77.1v136.35c13.42 11.81 34.74 16.12 66.83 7.76 58.09-15.14 144.8-62.8 163.38-122.98 18.39-59.54-38.39-100.1-91.65-106.48Z" fill="#00000d"/><path d="M154.87 506.64C98.57 495.94 46.23 503.72 0 524.57v618.02c74.09 29.35 157.29 32.13 224.73-5.58 113.05-63.21 197.91-258.04 169.68-389.76 52.22-90.1-173.05-227.98-239.54-240.62Z" fill="#e9edf8"/><path d="M236.26 134.48C280.95 26.37 149.11-55.95 82.65 47.46 20.34 144.41 119.7 246.5 212.41 162.99c14.49-13.06 26.7-34.31 25.87-37.92m395.99 244.01c72.94-91.45 208.81-15.97 150.53 92.26-54.65 101.47-192.09 63.98-163.92-57.58 4.4-19 17.09-39.98 20.65-41" fill="#00000d"/><path d="M683.67 493.08c-3.83-93.03-47.7-185.93-113.79-255.78-6.96-8.38-14.32-16.25-22.13-23.4-18.88-17.3-39.96-32.42-62.57-45.38-22.28-13.51-45.73-24.63-70-32.77-10.04-3.37-20.49-5.99-31.19-8.03-93.12-23.99-195.64-17.38-278.89 24.32C59.65 174.83 25.08 202.72 0 233.83V557.6c39.29 62.86 97.87 117.12 167.12 150.54 198.85 140.65 528.96 86.61 516.56-215.06Z" fill="#e9edf8"/><path d="M251.75 444.69c-9.39 15.93 6.48 42.68 35.44 59.75 28.96 17.07 60.05 18 69.44 2.07s-6.48-42.68-35.44-59.75c-28.96-17.07-60.05-18-69.44-2.07Zm-120.84-231.1c89.84-50.65 206.73 50.75 135.45 137.15-53.12 64.39-219.31 105.5-237.84-13.01-9.25-59.16 64.96-126.3 120.61-131.07m456.62 300.95c.81-103.13-144.52-156.29-185.59-52.08-30.61 77.66 13.91 242.96 126.57 201.79 56.24-20.55 79.04-118 56.26-169" fill="#00000d"/><path d="M169.91 280.12c-6.37-.06-13.72 3.18-19.2 6.84-12.6 8.41-20.83 26.47-16.68 41.25 4.82 17.17 21 20.6 32.88 7.87 9.65-10.33 19.08-29.6 16.03-44.23-1.79-8.6-6.96-11.66-13.04-11.72Zm349.76 220.3c-6.37-.06-13.72 3.18-19.2 6.84-12.6 8.41-20.83 26.47-16.68 41.25 4.82 17.17 21 20.6 32.88 7.87 9.65-10.33 19.08-29.6 16.03-44.23-1.79-8.6-6.96-11.66-13.04-11.72Z" fill="#e9edf8"/><path d="M244.68 581.1c-.79 0-1.59-.2-2.31-.63a4.565 4.565 0 0 1-1.61-6.25l49.84-84.56c1.28-2.17 4.07-2.91 6.25-1.61a4.565 4.565 0 0 1 1.61 6.25l-49.84 84.56a4.57 4.57 0 0 1-3.94 2.25Z" fill="#00000d"/><path d="M284.04 591.99c-13.72 0-26.79-3.25-38.61-9.75-25.57-14.07-43.06-42.62-46.8-76.36-.28-2.5 1.53-4.76 4.04-5.04 2.48-.27 4.76 1.53 5.04 4.04 3.41 30.79 19.16 56.72 42.13 69.36 21.96 12.09 49.09 11.41 76.38-1.91 2.27-1.11 5-.17 6.1 2.1 1.11 2.27.17 5-2.1 6.1-15.63 7.63-31.29 11.45-46.18 11.45Zm117.53 192.72c46.46 58.48 73.7 192.19 60.18 265.02-9 48.42-48.01 88.34-95.44 52.56-27.41-20.68-44.65-87.03-53.05-119.5-14.68-56.77 1.2-207.97 89.39-193.91" fill="#00000d"/></svg>