<svg version="1.1" id="Layer_1" xmlns="http://www.w3.org/2000/svg" x="0" y="0" viewBox="0 0 750.5 501" xml:space="preserve"><style>.st0{fill:#030}</style><path class="st0" d="M750.5 418.9V501H0v-82.1c29.8.4 43.6-4.7 69.5-12.5 17.2-5.4 28.5 4.2 44.7.5 26.4-3.9 51.1-32.2 78.8-25.7 52.8 25.3 52.4 2 98-4 64.3 21.8 138.3 3.5 209 14.2v1.8c54.1 4.8 49.5-32.4 106.8 2.1 20.4 15.9 45.1 10.8 68.4 10.1 27 6.4 46.1 14.7 75.3 13.5z"/><path class="st0" d="M64.4 0C61 61.2 58.1 131.2 53.7 192.1 44 193.9 10.6 167.6 0 161.5v24c12.3 8.1 40.9 27.6 49.7 33.4 3.9 66-6.5 145.2-10 213.1 19.4-3.5 55.6-9.9 74.7-13.4.4-130.9-.6-290.7-8-418.5l-42-.1zm686.1 131.4v38.1c-24.1 12-77.7 39.2-97.1 49.4-3.8 68.8 6.5 143.7 10 213.1-22.3-4-52.3-9.4-74.7-13.4-.3-134.3.5-286.4 8-418.6h42c23.7 195.1-40.2 236.4 111.8 131.4zM424.7 0l8 387.9.4 17.3s-58 10-66.7-4c3.5-71.9 16.1-331 26.7-401.2h31.6zm126 396.5c-11.1-26.8-5-52.9-45-48.7h-.6c-13.2 1.5-27.3-.1-29.4 4.4-1.5 7.9-28.1 55.6-6.3 48.5l31.3 1.8v.5c2.3-.2 7-.2 9.3 0v-.5c5.1-2.3 44.5 2.4 40.7-6zm-243.9-11.4c-.5-4.7 12.3-31.1 15.7-31.4 3.3-.3 33-2.3 34 1.7s10 32.7 6.7 34.1-55.4 4.9-56.4-4.4z"/></svg>