<svg xmlns="http://www.w3.org/2000/svg" viewBox="0 0 750.5 501.01"><g fill="#cd9047"><path d="M750.5 418.86v82.15H0v-82.15c11.91-.33 27.22-1.64 32.36-1.64 1.64 0 4.67-.86 8.59-2.15 1.63-.53 3.41-1.13 5.31-1.77 6.83-2.32 15.17-5.12 23.29-6.9 8.49-1.88 16.75-2.64 22.81-.54 6.87 2.39 14.48 2.36 21.9 1 5.18-.96 10.27-2.56 14.96-4.44h.01c.76-.3 1.5-.61 2.23-.92 4.66-2.01 8.84-4.25 12.23-6.33 12-7.34 35.34-18.69 49.34-14.03 14 4.68 29.33 13.37 42 12.03 12.66-1.33 44.66-17.37 56-16.03 5.31.63 10.45 3.01 16.14 5.37h.01c6.48 2.67 13.65 5.32 22.51 5.32s22.2-.57 34.17-1l3.19-.12c9.13-.3 17.14-.5 21.31-.21 3.91.26 22.65.72 44.31 1.43 5.88.19 11.98.4 18.06.64 3.99.15 7.97.3 11.87.47 14.78.63 28.46 1.39 37.4 2.28v1.79c6.32.11 12.05-.3 15.47.06 9.58 1.01 20.67-3.7 31.56-8.09 3.52-1.42 7.02-2.8 10.44-3.94 8.57-2.85 20.64.29 31.46 4.85 6.86 2.88 13.22 6.33 17.88 9.18 3.39 2.08 7.57 4.32 12.23 6.33.73.31 1.47.62 2.23.92 4.69 1.88 9.79 3.48 14.97 4.44 7.42 1.36 15.03 1.39 21.9-1 1.02-.35 2.1-.62 3.24-.82 2.19-.39 4.57-.51 7.08-.41 2.17.08 4.43.32 6.75.68 1.89.29 3.81.66 5.74 1.09 8.12 1.78 16.46 4.58 23.29 6.9 1.9.64 3.68 1.24 5.31 1.77.69.23 1.36.44 1.99.64 2.96.93 5.25 1.51 6.6 1.51.7 0 1.58.02 2.61.07 6.61.27 19.45 1.28 29.75 1.57Z"/><path d="M64.37 0c-.33 6.62-.79 15.44-1.31 25.68-.05.89-.09 1.79-.14 2.71-.01 0-.01.01-.01.01-.03.82-.08 1.64-.12 2.48-.47 9.21-1 19.36-1.55 29.97-.09 1.62-.17 3.25-.26 4.89-.11 2.16-.23 4.34-.34 6.53l-.15 2.8c-.17 3.22-.34 6.44-.5 9.68l-.12 2.03c-.19 3.77-.39 7.55-.6 11.3-.05 1.06-.11 2.13-.16 3.2-.15 2.72-.29 5.42-.44 8.11-.49 9.27-.99 18.32-1.45 26.81-.08 1.37-.16 2.73-.23 4.07-.13 2.39-.27 4.75-.4 7.03-.58 10.45-1.12 19.73-1.58 27.09-.13 2.07-.25 3.99-.37 5.74-.44 6.78-.77 11.07-.95 11.96-.41 2.05-6.77-.83-15.37-5.81-2.72-1.57-5.66-3.36-8.71-5.26-9.24-5.76-19.45-12.62-27.41-18.05-.76-.52-1.49-1.03-2.2-1.52v23.99c.7.47 1.41.95 2.14 1.44 5.13 3.45 10.93 7.34 16.68 11.2 2.89 1.94 5.77 3.88 8.54 5.74 10.86 7.29 20.13 13.51 22.33 14.98.84.56 1.25 5.17 1.33 12.67.07 6.33-.1 14.75-.43 24.55-.61 17.57-1.77 39.58-3.11 62.02l-.27 4.35c-.23 3.8-.47 7.62-.7 11.41-.16 2.42-.31 4.85-.47 7.26-.15 2.45-.31 4.89-.47 7.31-.32 4.96-.64 9.84-.96 14.6-.29 4.23-.57 8.37-.84 12.38-.27 3.87-.53 7.62-.79 11.21-.17 2.49-.34 4.89-.5 7.22-.58 8.14-1.1 15.35-1.53 21.25-.09 1.21-.18 2.37-.26 3.48-.32 4.35-.58 7.78-.75 10.07-.16 2.14-.25 3.3-.25 3.3l42.42-7.59 6.28-1.12 25.97-4.65s-.05-4.11-.1-11.7c-.06-7.38-.12-18.08-.16-31.47l-.03-12.8v-30.79c.01-1.55.01-3.13.01-4.71.01-1.43.01-2.89.01-4.35.01-1.46.01-2.95.02-4.44 0-1.78.01-3.59.02-5.41 0-1.41.01-2.85.02-4.28 0-3.65.03-7.35.05-11.12 0-1.02.01-2.05.01-3.09l.03-4.4c0-2.74.03-5.51.05-8.31l.06-8.12c0-.44.01-.87.01-1.31.1-12.61-.01-27.58-.26-43.96-.18-11.75-.43-24.24-.74-37.09-.88-35.9-2.18-74.7-3.46-108.66-1.38-36.02-2.73-66.62-3.53-82.51h-42ZM750.5 131.35v38.11c-11.73 5.89-25.47 12.82-38.87 19.6-1.7.87-3.4 1.73-5.09 2.58-7.94 4.02-15.64 7.93-22.61 11.47-17.17 8.73-29.87 15.24-30.56 15.71-.84.56-1.25 5.17-1.33 12.66-.03 2.74-.02 5.86.04 9.31.06 4.55.2 9.67.39 15.24.19 5.31.42 11.03.69 17.04.25 5.37.53 10.98.82 16.75.4 7.56.84 15.4 1.31 23.33.09 1.63.19 3.27.29 4.91l.27 4.35c.23 3.79.47 7.61.7 11.41.16 2.42.31 4.85.47 7.26.15 2.46.31 4.89.47 7.32.02.37.05.73.07 1.09.3 4.59.59 9.1.89 13.51.25 3.68.5 7.29.74 10.81.03.53.06 1.05.1 1.57.27 3.87.53 7.62.79 11.22.17 2.48.34 4.89.5 7.22.28 3.98.55 7.74.8 11.22.16 2.2.31 4.3.46 6.27.09 1.31.18 2.56.27 3.76.09 1.22.18 2.38.26 3.48l.03.33c.3 4.2.55 7.51.72 9.74.16 2.14.25 3.3.25 3.3l-6.89-1.23-6.57-1.18-28.96-5.18-6.28-1.12-25.97-4.65s.05-4.11.1-11.7c.04-5.32.09-12.35.13-20.87 0-3.31.02-6.86.03-10.61v-1.57l.03-11.22V331.8c-.01-1.56-.01-3.13-.01-4.71-.01-1.44-.01-2.89-.01-4.35 0-.69-.01-1.38-.01-2.08v-2.36c0-1.78-.01-3.59-.02-5.41 0-1.41-.01-2.85-.02-4.28 0-3.65-.03-7.36-.05-11.12 0-1.02-.01-2.06-.01-3.09l-.03-4.4c0-2.73-.03-5.51-.05-8.3l-.06-8.12v-1.31c-.07-8.47-.04-18 .06-28.3.05-5.05.12-10.28.2-15.66.08-5.51.18-11.18.3-16.97.13-6.57.28-13.3.44-20.13.88-35.9 2.18-74.7 3.46-108.65.22-5.82.44-11.5.66-16.99 1.14-28.57 2.2-52.24 2.87-65.57h42c.33 6.62.79 15.44 1.31 25.68.05.89.09 1.8.14 2.71.01 0 .01.01.01.01.03.82.08 1.64.12 2.48.11 2.2.23 4.46.34 6.76.38 7.33.79 15.14 1.21 23.21.09 1.63.17 3.25.26 4.89.11 2.17.23 4.34.34 6.54l.15 2.79c.17 3.22.34 6.44.5 9.68l.12 2.03c.16 3.22.33 6.45.51 9.66l.09 1.65c.05 1.06.11 2.13.16 3.19.15 2.72.29 5.42.44 8.11.28 5.32.57 10.56.85 15.67.12 2.24.24 4.45.36 6.63.02.47.05.94.08 1.4.05 1.05.1 2.08.16 3.11.08 1.38.16 2.73.23 4.07.13 2.4.27 4.75.4 7.04.38 6.92.75 13.33 1.09 19 .17 2.9.33 5.6.49 8.09.02.37.05.73.07 1.09.1 1.6.19 3.1.29 4.49 0 .06.01.11.01.16.44 6.79.77 11.07.95 11.97.41 2.05 6.77-.84 15.37-5.82 1.2-.69 2.44-1.42 3.71-2.19.59-.36 1.2-.72 1.81-1.1.7-.42 1.41-.86 2.12-1.3.36-.22.71-.45 1.07-.67 1.7-1.06 5.88-3.73 11.62-7.41 8.48-5.44 20.36-13.1 32.67-21.05 10.38-6.71 21.08-13.63 30.3-19.61.83-.55 1.66-1.08 2.46-1.61ZM424.66 0l8.01 387.93.36 17.26s-58 10.02-66.67-4.01c0 0 .24-5.22.69-14.48 3.12-64.46 16.16-324.96 26.03-386.7h31.58Zm126.06 396.48c-.09-.54-.24-1.14-.49-1.79-.79-2.06-2.2-6.49-3.9-11.79-2.9-8.99-6.61-20.47-9.51-27.19-.61-1.42-1.19-2.63-1.71-3.55h-.01c-.66-1.19-1.24-1.91-1.71-2.04-2.05-.55-15.9-1.71-27.64-2.31v-.03c-.1 0-.19 0-.29.01-.1 0-.19 0-.29-.01v.03c-11.74.6-25.59 1.76-27.64 2.31-.47.13-1.06.85-1.71 2.04h-.01c-.53.93-1.1 2.14-1.71 3.56-2.91 6.72-6.62 18.2-9.51 27.19-1.7 5.3-3.11 9.73-3.9 11.79-.25.65-.4 1.25-.49 1.79-.87 5.52 6.1 5.68 9.32 4.21l31.31 1.75-.04.52 4.67-.26 4.67.26-.04-.52 31.31-1.75c3.22 1.47 10.19 1.31 9.32-4.21ZM306.8 385.09c-.5-4.7 12.33-31.06 15.67-31.4 3.33-.33 33-2.34 34 1.67s10 32.73 6.67 34.07c-3.33 1.34-55.33 5.01-56.33-4.34Z"/></g></svg>