<svg xmlns="http://www.w3.org/2000/svg" viewBox="0 0 750 500"><defs><clipPath id="a"><path fill="none" d="M0 0h750v500H0z"/></clipPath></defs><g clip-path="url(#a)"><path fill="#696" d="M-26.5 378.86h806.14v129.21H-26.5z"/><path d="M528.56 355.84 521.89 366c3.5-11.78-2-17.8-8-23.51l-6.89 6.17c-1.05-2.74-1.12-8.31-.62-11.17 1.05-.86-24.96-9.88-23.31-10.55-.6 9.71-5.62 28.02 7.44 30.56-.23.19-12.25-.71-11.78-.43-.1 25.63 8.57 12.14 17.22 25.95-28.87-1.4 9.35 21.98 21.86 9.91l.07.13s-.01-.1-.02-.15c3.22-1.2 6.24-2.27 6.63-2.2 7.31-5.79 14.93-26.36 4.06-34.88Zm-35.78-18.04c2.55-5.77 8.61 7.5 6.62 10.13-3.23-1.2-5.98-6.63-6.62-10.13Zm-3.69 31.23c-2.3-1.49-4.26-4.62-4.53-7.38 6.76-2.73 18.52 11.3 4.53 7.38Zm25.8-2.02c-6.03-2.43-6.28-9.93-2.37-14.75 5.12 2.44 8.22 11.73 2.37 14.75Zm-186.15-80.3c-42.16-108.09-81.51-220.3-69.3-338.41 67.59 33.36 36.51 209.41 83.21 285.71 8.02-84.5 16.03-168.99 24.05-253.49 71.55 2.73-24.03 346.48-17.27 415.37-23.35-6.82-7.23-31.72-10.23-49.15-.62-20.35-4.66-40.56-10.46-60.04Zm282.29 119.65c14.05-3.22 28.1-6.43 42.15-9.65-6.01-142.3-52.51-291.66-16.05-431.59-46.79 68.95-19.87 340.41-26.1 441.24Z" fill="#696"/><g fill="#696"><path d="M410.98 175.19c-6.72 75.65-13.44 151.46-13.45 227.51 17.18-4.82 34.35-9.65 51.53-14.47-26.15-62.15 31.91-421.35-19.79-405.63-10.99 61.61-10.17 129.15-18.29 192.59Z"/><path d="M492.63 116.33c19.38-36.59 28.52-80.47 25.72-123.4 8.45-1.11 16.91-2.21 25.36-3.32 3.79 130.02-35.97 162.03-106.77 263.35-14.77-54.26 34.61-91.41 55.68-136.63Z"/></g><g fill="#696"><path d="M195.98 175.19c6.72 75.65 13.44 151.46 13.45 227.51-17.18-4.82-34.35-9.65-51.53-14.47 26.15-62.15-31.91-421.35 19.79-405.63 10.99 61.61 10.17 129.15 18.29 192.59Z"/><path d="M114.33 116.33C94.95 79.74 85.81 35.86 88.61-7.07c-8.45-1.11-16.91-2.21-25.36-3.32-3.79 130.02 35.97 162.03 106.77 263.35 14.77-54.26-34.61-91.41-55.68-136.63Z"/></g><path d="M750 23.14c-10.18 34.11-67.74 43.92-106.06 42.77 15.62-26.03 66.58-47.72 73.99-72.08l-31.82-6.75s-14.46 27.96-24.54 40.74c-29.92 20.46-87.32 22.73-113.61-9.53 1.24-3.12 10.2-16.4 7.98-17.83-3.21 5.25-6.57 10.4-10.09 15.41-12.37-14.66-17.54-27.82-17.54-27.82-104.93 23.25-80.1-6.64-8.5 58.02-52.44 51.74-144.13 54.26-204.73 11.57 5.05-11.72 8.66-24.01 11.07-36.51 47.45 5.31 93.76-11.52 122.35-58.55 23.18-36.88 7.93-29.17 7.93-29.17C428.97-50.37 314.05 7 278.81 1.35c25.45-9.34 65.4-32.27 84.85-69.23l-95.89 34.46c.22 41.84-74.17 71.2-124.29 65.63-43.8 3.82-70.73 47.39-88.34 19.67S34.26-44.74 34.26-44.74l-105.17-5.14C55.41 87.83-34.25 342.63-69.62 470.79L68.89 324.97c-1.98-41.84-34.54-200.88 39.65-252.2 16.81 10.53 10.67 50.18 30.06 39.12 1.92 1.96 2.64 9.28 5.8 7.01 3.15 15.62 11.32 4.78 11.12-7.02 10.05 5.03 20.7 8.91 31.72 11.44-2.18 36.98-1.41 74.08.47 111.06 4.71-34.22 2.67-74.46 1.51-110.6 17.92 3.9 37.05 4.03 54.94-.74-.86 22.67-2.82 49.51 1.76 70.23 1.86-23.59 2.55-47.33.71-70.93 29.16-8.18 52.49-30.86 65.3-57.82 42.31 32.24 101.27 42.29 151.72 25.09 2.64 18.26 8.09 15.52 13.68 3.6 3.76 3.52 6.08-5.73 9.05-8.03 20.39 16.38 21.6-19.29 31.33-28.18-.37 21.29-2.44 46.83 2.08 66.18 1.83-22.96 2.47-46.07.87-69.06 1.15-1.11 3.43-3.44 4.48-4.63 61.19 59.48 149.47 8.83 183.59 95.37 9.21 26.4-1.49 288.77 0 290.18 1.49 1.4 45.85 12.18 45.85 12.18-.99-52.81 30.38-383.54-4.57-424.07ZM314.66 44.3a194.3 194.3 0 0 1-4.58 9.67c-9.15-7.05-17.44-15.44-23.31-25.45 11.96-3.53 24.08-6.1 36.39-7.18-2.46 7.82-5.24 15.5-8.49 22.95Zm-11.42 21.83c-42.01 72.03-139.84 59.89-190.73 4.59 7.88-3.46 18.28-4.82 33.61-3.67 62.55 6.62 84.71-22.56 136.93-37.41 5.27 11.91 13.92 22.09 23.69 30.58-.62 1.2-2.76 4.7-3.5 5.9Z" fill="#030"/><path d="M7.42 576.48S121.5 426.53 219.04 415.79c0 0-104.21 133.47-211.62 160.69Z" fill="#093"/><path d="M48.8 545.86s52.03-181.08 139.07-226.41c0 0-48.81 162.15-139.07 226.41Z" fill="#030"/><path d="M60.88 563.92s-6.24-188.31 62.61-258.23c0 0 3.48 169.3-62.61 258.23Zm655.99 26.36s-30.98-152.65 15.54-219.11c0 0 26.11 137.53-15.54 219.11Z" fill="#093"/><path d="M720.41 547.86s-84.15-131.07-64.86-209.87c0 0 74.14 118.74 64.86 209.87Z" fill="#030"/><path d="M738.21 550.21s-120.42-98.8-126.32-179.71c0 0 107.1 90.15 126.32 179.71Z" fill="#093"/><g fill="#363"><path d="m62.07 451.45-30.65-15.98c34.34 6.55 49.82-10.74 64.28-29.33l-19.44-17.73c7.45-3.76 23.2-5.54 31.44-4.93 2.77 2.64 20.9-73.35 23.22-68.97.96-.91-76.3 1.39-72.19 4.85-2.16 1.22-12.2 24.92-12.2 24.92-.66-1.16-1.39-34.22-2.15-33.47-7.23 1.69-43.25 7.02-48.6 15.93-1.97 8.63-3.45 36.64-19.95 40.2l-.84-9.99c-.84-10-4.52-21.92-4.52-21.92-30.67 15.69-34.4 50.28-27.67 74.39 0 0 19.6 38 19.39 40.49 18.57 18.91 78.38 34.96 99.88 1.56Zm-43.26-89.62c-17.06-6.31.33-32.51 14.28-33.27 4.94 9.25-3.8 30.36-14.28 33.27Zm63.31 4.98c-21.08 5.17 20.24-29.63 24.83-19.97 1.98 10.71-15.87 18.83-24.83 19.97ZM47.67 422.7c-46.99 3.02-1.47-38.14 19.97-17.66-4 8.26-11.06 15.44-19.97 17.66Z"/><path d="M107.7 331.86c-63.14 14.77-95.1 80.34-154.04 100"/></g><g fill="#030"><path d="m383.4 540.55-29.94-6.07c30.77-2.85 39.68-21.32 47.4-40.64l-20.84-10.3c5.41-5.01 18.34-10.38 25.49-11.88 3.03 1.45-.33-67.2 2.83-64.25.59-1.01-64.45 19.85-60.11 21.78-1.53 1.56-4.26 24.15-4.26 24.15-.86-.87-9.54-28.67-10.02-27.9-5.73 3.21-35.01 16.54-37.37 25.42.44 7.81 6.04 31.96-7.1 39.02.26-1.76-12.4-27.7-12.36-25.78-22.21 20.83-16.9 51.11-5.29 69.94 0 0 25.94 27.47 26.37 29.64 20.4 11.51 75.11 10.5 85.2-23.12Zm-58.67-65.52c-16.03-1.18-7.67-27.69 3.98-31.75 6.46 6.65 4.21 26.71-3.98 31.75Zm54.98-11.26c-16.63 9.54 9.94-30.11 16.2-23.03 4.31 8.61-8.87 19.87-16.2 23.03Zm-15.57 55.89c-39.17 14.06-10.58-32.02 12.64-19.88-1.37 8-5.62 15.82-12.64 19.88Z"/><path d="M392.88 427.83c-50 27.99-61.09 91.49-106.33 122.61"/></g><path d="m538.42 473.47-23.27 29.19c14.03-35.05-1.1-55.02-17.82-74.18l-22.8 16.94c-2.44-8.67-1.08-25.73 1.26-34.34 3.22-2.51-73.29-37.16-68.31-38.84-.77-1.21-14.27 81.16-9.76 77.51.84 2.54 23.89 18.08 23.89 18.08-.98.49-36.95-5.61-35.92-4.63.3 8.02-1.49 47.29 6.85 54.8 8.74 3.87 38.13 11.22 38.49 29.44-2.02-1.22-36.6-1.98-34.92-.9 10.29 35.75 46.19 46.83 73.13 44.68 0 0 44.32-12.93 46.92-12.19 23.88-15.78 53.23-75.86 22.26-105.54ZM434.5 500.83c-10.17 16.82-34.43-7.12-32.32-22 10.26-3.61 31.85 10.69 32.32 22Zm18.35-66.07c1.23 23.62-27.24-27.7-16.04-30.44 11.31-.47 16.93 21.22 16.04 30.44Zm52.12 48.04c-6.5 50.43-40.72-6.31-14.59-24.81 7.93 5.94 14.08 14.91 14.59 24.81Z" fill="#363"/><path d="M421.08 400.42c2.62 69.97 65.53 117.37 74.2 183.9" fill="none" stroke="#053325" stroke-miterlimit="10"/><path d="M427.11 271.1c-10.2 8.9-7.91 41.63-2.06 54.24 5.91-5.97 14.55-53.65 2.06-54.24ZM283.49 124.89c-2.93 9.26 6.1 23.6 12.34 30.52-2.28-2.28-5.85-35.58-12.34-30.52Z" fill="#cfc"/><path d="M661.46 140.14c.16 10.7-16.66 10.7-16.5 0-.16-10.7 16.66-10.7 16.5 0ZM87.18 234.46c.16 10.7-16.66 10.7-16.5 0-.16-10.7 16.66-10.7 16.5 0Zm-7.93-41.16c.06 4.03-6.27 4.03-6.21 0-.06-4.03 6.27-4.03 6.21 0Zm559.63-89.63c.07 4.81-7.49 4.81-7.42 0-.07-4.81 7.49-4.81 7.42 0Z" fill="#030"/><path d="M215.06 475.48c10.2 1.23 19.24 9.23 21.7 19.21 3.48-12.1 6.96-24.2 10.43-36.3 9.42 9.38 14.12 23.28 12.35 36.45 65.47-62.74-9.4 94.62-44.48-19.36Z" fill="#f96"/><path d="M464.33 487.01c7.5-1.95 16.05 1.17 20.53 7.49l-2.7-28.35c9.2 3.98 16.33 12.43 18.72 22.17 28.18-62.69 20.44 68.97-36.55-1.31Zm-368.1-72c-43.15 14.53-64.28 54.08-68.1 96.79-94.62-25.18 23.22-94.89 68.1-96.79Zm591.09 16.71c26.74 23.52 47.28 54.02 59.03 87.63 64.15-27.65-23.78-82.52-59.03-87.63Z" fill="#ffc"/></g></svg>