<svg xmlns="http://www.w3.org/2000/svg" viewBox="0 0 1200 493.37"><path d="M144.32 207.89c-.68-38.55-14.83-77.06-40.27-109.56-2.17-2.78-4.9-5.77-8.81-6.21-14.55-1.62-25.2 21.73-29.85 30-16.76 29.59-31.09 60.74-31.89 94.15C32.67 251 44.28 286 66.43 315.7c5.33 7.13 13.17 14.77 23.08 14.08 8.24-.57 14-6.73 18.39-12.56 24.3-32.36 37.1-70.79 36.42-109.33Z" fill="#16c172"/><path d="M116.16 234.15c-5.83 6.69-11.9 13.25-18.06 19.63-.69.72-1.4 1.42-2.12 2.13 0-7.68 0-15.36-.1-23a3.19 3.19 0 0 0 0-1.86q-.17-14.13-.63-28.25c3.75-1.71 6.19-6.56 8.28-9.86a92.6 92.6 0 0 0 7.29-14.05c3.91-9.35 7.48-20.94 6.18-31.2-.27-2.13-3.19-2.82-3.91-.53-3.07 9.75-4.69 19.48-9.22 28.8A90.72 90.72 0 0 1 96.76 188a31.85 31.85 0 0 1-2 2.58c-.47-8.79-1.27-17.51-2.15-26.28-.46-4.65-.9-9.3-1.57-13.93a77.07 77.07 0 0 0-3.68-14.86.94.94 0 0 0-1.79 0 67.28 67.28 0 0 0-2.44 11.07c-.48 4.59-.76 9.18-1 13.79-.43 8.52-1.16 17.06-1.28 25.59-.16 10.28-.16 20.55-.16 30.83-.15-.15-.31-.3-.46-.46A106 106 0 0 1 66 199a1.9 1.9 0 0 0-3.28 1.92 98.9 98.9 0 0 0 12.18 19.6 83.26 83.26 0 0 0 5.8 6.37v12.23c-.1 20.05-.45 40.1-.93 60.14a66.74 66.74 0 0 1-4.13-4.11c-5.86-6.41-9.37-14.15-12-22.34-.26-.8-1.6-.71-1.55.21.55 8.91 4 17.44 8.76 24.92a58.27 58.27 0 0 0 8.72 10.78q-.45 17.38-1 34.78-.44 14.76-1 29.52-.3 7.38-.61 14.76a56.69 56.69 0 0 0 1.29 15.54c1.48 6.69 10.88 5.89 12.77 0 2.77-8.62 2.6-17.36 3-26.36q.49-12.8.89-25.59.82-26.58 1-53.16c.07-11.56.16-23.13.2-34.7 2.07-2.41 4-4.89 5.93-7.22a171.88 171.88 0 0 0 14.92-21.65c.09-.38-.49-.85-.8-.49Z" fill="#0e8750"/><path d="M1197.32 266.89c-.68-38.55-14.83-77.06-40.27-109.56-2.17-2.78-4.9-5.77-8.81-6.21-14.55-1.62-25.2 21.73-29.85 30-16.76 29.63-31.09 60.78-31.89 94.19-.83 34.7 10.78 69.74 32.93 99.43 5.33 7.13 13.17 14.77 23.08 14.08 8.24-.57 14-6.73 18.39-12.56 24.3-32.4 37.1-70.83 36.42-109.37Z" fill="#16c172"/><path d="M1169.16 293.15c-5.83 6.69-11.9 13.25-18.06 19.63-.69.72-1.4 1.42-2.12 2.13 0-7.68 0-15.36-.1-23a3.19 3.19 0 0 0 0-1.86q-.16-14.13-.63-28.25c3.75-1.71 6.19-6.56 8.28-9.86a92.6 92.6 0 0 0 7.29-14.05c3.91-9.35 7.48-20.94 6.18-31.2-.27-2.13-3.19-2.82-3.91-.53-3.07 9.75-4.69 19.48-9.22 28.8a90.72 90.72 0 0 1-7.09 12.08 31.85 31.85 0 0 1-2 2.58c-.47-8.79-1.27-17.51-2.15-26.28-.46-4.65-.9-9.3-1.57-13.93a77.07 77.07 0 0 0-3.68-14.86.94.94 0 0 0-1.79 0 67.28 67.28 0 0 0-2.44 11.07c-.48 4.59-.76 9.18-1 13.79-.43 8.52-1.16 17.06-1.28 25.59-.16 10.28-.16 20.55-.16 30.83-.15-.15-.31-.3-.46-.46A106 106 0 0 1 1119 258a1.9 1.9 0 0 0-3.28 1.92 98.9 98.9 0 0 0 12.18 19.6 83.26 83.26 0 0 0 5.8 6.37v12.23c-.1 20.05-.45 40.1-.93 60.14a66.74 66.74 0 0 1-4.13-4.11c-5.86-6.41-9.37-14.15-12-22.34-.26-.8-1.6-.71-1.55.21.55 8.91 4 17.44 8.76 24.92a58.27 58.27 0 0 0 8.72 10.78q-.45 17.38-1 34.78-.43 14.76-1 29.52-.3 7.38-.61 14.76a56.69 56.69 0 0 0 1.29 15.54c1.48 6.69 10.88 5.89 12.77 0 2.77-8.62 2.6-17.36 3-26.36q.49-12.8.89-25.59.83-26.58 1-53.16c.07-11.56.16-23.13.2-34.7 2.07-2.41 4-4.89 5.93-7.22a171.88 171.88 0 0 0 14.92-21.65c.09-.38-.49-.85-.8-.49Z" fill="#0e8750"/><path d="M556.42 295.39a53 53 0 0 0-11.59-31.55 4 4 0 0 0-2.54-1.79c-4.19-.47-7.26 6.26-8.6 8.63-4.83 8.53-9 17.5-9.18 27.12a46.26 46.26 0 0 0 9.49 28.64c1.54 2.05 3.79 4.25 6.65 4.05 2.37-.16 4-1.94 5.29-3.61a51 51 0 0 0 10.48-31.49Z" fill="#41e799"/><path d="M548.31 303c-1.68 1.93-3.42 3.82-5.2 5.66l-.61.61v-6.64a1 1 0 0 0 0-.53q0-4.08-.18-8.14c1.08-.49 1.78-1.89 2.38-2.84a26.69 26.69 0 0 0 2.1-4c1.13-2.7 2.16-6 1.78-9a.58.58 0 0 0-1.13-.15c-.88 2.81-1.35 5.61-2.65 8.29a25.76 25.76 0 0 1-2 3.48c-.18.25-.38.5-.59.74-.13-2.53-.36-5-.62-7.56-.13-1.34-.26-2.68-.45-4a22.51 22.51 0 0 0-1.06-4.28.27.27 0 0 0-.51 0 19.34 19.34 0 0 0-.71 3.19 74.49 74.49 0 0 0-.29 4c-.12 2.46-.33 4.92-.37 7.37v8.88l-.13-.13a29.76 29.76 0 0 1-4.1-5 .55.55 0 0 0-1 .56 28.3 28.3 0 0 0 3.51 5.64 24.11 24.11 0 0 0 1.67 1.84v3.52c0 5.77-.13 11.55-.26 17.32a16.58 16.58 0 0 1-1.19-1.18 17.16 17.16 0 0 1-3.47-6.44c-.07-.23-.46-.2-.44.06a15.24 15.24 0 0 0 2.52 7.18 16.5 16.5 0 0 0 2.51 3.1q-.13 5-.28 10c-.09 2.83-.18 5.67-.29 8.5l-.25 4.15a16.43 16.43 0 0 0 .37 4.48c.43 1.93 3.14 1.69 3.68 0a27.6 27.6 0 0 0 .85-7.59q.14-3.69.26-7.37.23-7.67.28-15.31c0-3.33 0-6.66.06-10 .59-.69 1.16-1.4 1.7-2.08a49.26 49.26 0 0 0 4.3-6.23c.07-.1-.1-.25-.19-.1Zm134.99-8.57a53 53 0 0 0-11.59-31.55 4 4 0 0 0-2.54-1.79c-4.19-.47-7.26 6.26-8.6 8.63-4.83 8.53-9 17.5-9.18 27.12a46.26 46.26 0 0 0 9.48 28.64c1.54 2 3.79 4.25 6.65 4 2.37-.16 4-1.94 5.29-3.61a51 51 0 0 0 10.49-31.44Z" fill="#16c172"/><path d="M675.19 302c-1.68 1.93-3.42 3.82-5.2 5.66-.2.2-.4.41-.61.61v-6.64a1 1 0 0 0 0-.53q0-4.08-.18-8.14c1.08-.49 1.78-1.89 2.38-2.84a26.69 26.69 0 0 0 2.1-4c1.13-2.7 2.16-6 1.78-9a.58.58 0 0 0-1.13-.15c-.88 2.81-1.35 5.61-2.65 8.29a25.76 25.76 0 0 1-2 3.48c-.18.25-.38.5-.59.74-.13-2.53-.36-5-.62-7.56-.13-1.34-.26-2.68-.45-4a22.51 22.51 0 0 0-1.06-4.28.27.27 0 0 0-.51 0 19.34 19.34 0 0 0-.71 3.19 74.49 74.49 0 0 0-.29 4c-.12 2.46-.33 4.92-.37 7.37v8.88l-.13-.13a29.76 29.76 0 0 1-4.1-5 .55.55 0 0 0-1 .56 28.3 28.3 0 0 0 3.51 5.64 24.11 24.11 0 0 0 1.67 1.84v3.52c0 5.77-.13 11.55-.26 17.32a16.58 16.58 0 0 1-1.19-1.18 17.16 17.16 0 0 1-3.47-6.44c-.07-.23-.46-.2-.44.06a15.24 15.24 0 0 0 2.52 7.18 16.5 16.5 0 0 0 2.51 3.1l-.28 10c-.09 2.83-.18 5.67-.29 8.5l-.18 4.25a16.43 16.43 0 0 0 .37 4.48c.43 1.93 3.14 1.69 3.68 0a27.6 27.6 0 0 0 .85-7.59l.26-7.37q.23-7.67.28-15.31c0-3.33 0-6.66.06-10 .59-.69 1.16-1.4 1.7-2.08a49.26 49.26 0 0 0 4.3-6.23c0-.2-.17-.31-.26-.2Z" fill="#0e8750"/><path d="M520.3 300.43a53 53 0 0 0-11.59-31.55 4 4 0 0 0-2.54-1.79c-4.19-.47-7.26 6.26-8.6 8.63-4.83 8.53-8.95 17.5-9.18 27.12a46.26 46.26 0 0 0 9.48 28.64c1.54 2 3.79 4.25 6.65 4 2.37-.16 4-1.94 5.29-3.61a51 51 0 0 0 10.49-31.44Z" fill="#16c172"/><path d="M512.19 308c-1.68 1.93-3.42 3.82-5.2 5.66l-.61.61v-6.64a1 1 0 0 0 0-.53q0-4.08-.18-8.14c1.08-.49 1.78-1.89 2.38-2.84a26.69 26.69 0 0 0 2.1-4c1.13-2.7 2.16-6 1.78-9a.58.58 0 0 0-1.13-.15c-.88 2.81-1.35 5.61-2.65 8.29a25.76 25.76 0 0 1-2 3.48c-.18.25-.38.5-.59.74-.13-2.53-.36-5-.62-7.56-.13-1.34-.26-2.68-.45-4a22.51 22.51 0 0 0-1.06-4.28.27.27 0 0 0-.51 0 19.34 19.34 0 0 0-.71 3.19 74.49 74.49 0 0 0-.29 4c-.12 2.46-.33 4.92-.37 7.37v8.88l-.13-.13a29.76 29.76 0 0 1-4.1-5 .55.55 0 0 0-.95.56 28.3 28.3 0 0 0 3.51 5.64 24.11 24.11 0 0 0 1.67 1.84v3.52c0 5.77-.13 11.55-.26 17.32a16.58 16.58 0 0 1-1.19-1.18 17.16 17.16 0 0 1-3.47-6.44c-.07-.23-.46-.2-.44.06a15.24 15.24 0 0 0 2.52 7.18 16.5 16.5 0 0 0 2.51 3.1q-.13 5-.28 10c-.09 2.83-.18 5.67-.29 8.5l-.18 4.25a16.43 16.43 0 0 0 .37 4.48c.43 1.93 3.14 1.69 3.68 0a27.6 27.6 0 0 0 .85-7.59q.14-3.69.26-7.37.22-7.67.28-15.31c0-3.33.05-6.66.06-10 .59-.69 1.16-1.4 1.7-2.08a49.26 49.26 0 0 0 4.3-6.23c-.05-.2-.22-.31-.31-.2Z" fill="#0e8750"/><path d="M720.42 301.39a53 53 0 0 0-11.59-31.55 4 4 0 0 0-2.54-1.79c-4.19-.47-7.26 6.26-8.6 8.63-4.83 8.53-9 17.5-9.18 27.12a46.26 46.26 0 0 0 9.49 28.64c1.54 2.05 3.79 4.25 6.65 4.05 2.37-.16 4-1.94 5.29-3.61a51 51 0 0 0 10.48-31.49Z" fill="#41e799"/><path d="M712.31 309c-1.68 1.93-3.42 3.82-5.2 5.66l-.61.61v-6.64a1 1 0 0 0 0-.53q0-4.08-.18-8.14c1.08-.49 1.78-1.89 2.38-2.84a26.69 26.69 0 0 0 2.1-4c1.13-2.7 2.16-6 1.78-9a.58.58 0 0 0-1.13-.15c-.88 2.81-1.35 5.61-2.65 8.29a25.76 25.76 0 0 1-2 3.48c-.18.25-.38.5-.59.74-.13-2.53-.36-5-.62-7.56-.13-1.34-.26-2.68-.45-4a22.51 22.51 0 0 0-1.06-4.28.27.27 0 0 0-.51 0 19.34 19.34 0 0 0-.71 3.19 74.49 74.49 0 0 0-.29 4c-.12 2.46-.33 4.92-.37 7.37v8.88l-.13-.13a29.76 29.76 0 0 1-4.1-5 .55.55 0 0 0-1 .56 28.3 28.3 0 0 0 3.51 5.64 24.11 24.11 0 0 0 1.67 1.84v3.52c0 5.77-.13 11.55-.26 17.32a16.58 16.58 0 0 1-1.19-1.18 17.16 17.16 0 0 1-3.47-6.44c-.07-.23-.46-.2-.44.06a15.24 15.24 0 0 0 2.52 7.18 16.5 16.5 0 0 0 2.51 3.1q-.13 5-.28 10c-.09 2.83-.18 5.67-.29 8.5l-.25 4.15a16.43 16.43 0 0 0 .37 4.48c.43 1.93 3.14 1.69 3.68 0a27.6 27.6 0 0 0 .85-7.59q.14-3.69.26-7.37.23-7.67.28-15.31c0-3.33 0-6.66.06-10 .59-.69 1.16-1.4 1.7-2.08a49.26 49.26 0 0 0 4.3-6.23c.07-.1-.1-.25-.19-.1Z" fill="#16c172"/><path fill="#f8cc13" d="M648.91 356.44h-90.2l4.18-42.15 3.55-35.75 3.13-31.45 2.83-28.49 6.15-61.82h45.22l3.25 25.82 3.51 27.81 2.87 22.82 4.19 33.28v.01l4.64 36.86 1.32 10.43 3.21 25.54v.01l2.15 17.08z"/><path fill="#f9ae1c" d="M586.5 9.6h4.5v59.69h-4.5z"/><circle cx="588.75" cy="5.98" r="5.89" fill="#7b381e"/><path fill="#f9ae1c" d="M613.93 9.51h4.5v52.56h-4.5z"/><circle cx="616.18" cy="5.89" r="5.89" fill="#7b381e"/><path d="M637.59 266.51a21.55 21.55 0 0 1-4.19-33.28Zm-63.22 28.73a21.54 21.54 0 0 1-11.48 19.05l3.55-35.75a21.5 21.5 0 0 1 7.93 16.7Z" fill="#7b381e"/><circle cx="600.65" cy="344.09" r="9.2" fill="#7b381e"/><ellipse cx="540.11" cy="48.37" rx="10.81" ry="37.03" transform="rotate(-37.96 540.108 48.373)" fill="#f9ae1c"/><ellipse cx="659.89" cy="48.37" rx="37.03" ry="10.81" transform="rotate(-52.04 659.895 48.357)" fill="#f9ae1c"/><path d="M668.46 127c0 17.33-3.05 32.48-8.57 44.92-.47 1-.95 2.08-1.46 3.08-.17.36-.35.7-.52 1.05-.29.56-.59 1.12-.89 1.67-.18.34-.36.66-.55 1s-.49.86-.75 1.29-.5.84-.76 1.26c-.13.2-.25.41-.39.61-.26.42-.52.83-.8 1.23-.13.21-.27.41-.4.61-.81 1.19-1.65 2.34-2.52 3.46-.1.13-.2.27-.31.39a1.24 1.24 0 0 1-.18.22c-.09.13-.19.25-.29.37-.63.79-1.28 1.55-1.94 2.3l-.46.51a60.44 60.44 0 0 1-4.4 4.37c-.27.25-.54.49-.82.72q-.94.83-1.92 1.59l-.61.48c-.76.59-1.54 1.16-2.33 1.7l-.48.33q-.36.26-.72.48c-.35.24-.71.46-1.07.69s-.94.58-1.42.85c-.22.14-.44.27-.67.39-.4.23-.81.46-1.23.67-.26.15-.53.29-.79.42l-1.45.72-.32.14c-.38.19-.76.36-1.15.53q-1.72.76-3.51 1.41l-.95.34-.36.12c-.42.15-.85.28-1.28.41-1 .33-2.09.62-3.16.89-1.5.38-3 .69-4.58.95l-.85.14-.85.12a4.58 4.58 0 0 1-.55.07c-.47.07-1 .13-1.43.18-.67.07-1.35.13-2 .18h-1.47l-1.11.05h-4.75l-1.13-.05a60.4 60.4 0 0 1-15.17-2.71l-.61-.2c-.58-.18-1.15-.38-1.72-.59l-1-.38-1-.39c-.29-.12-.59-.24-.87-.37l-.62-.26c-.84-.37-1.67-.76-2.48-1.17-.45-.22-.89-.46-1.33-.69l-.23-.13c-.4-.21-.79-.43-1.18-.65h-.07c-.42-.23-.84-.48-1.25-.74l-1-.59-.87-.57c-1.1-.73-2.18-1.5-3.24-2.32l-.74-.58c-.94-.75-1.87-1.53-2.77-2.36-.6-.54-1.2-1.1-1.78-1.67l-.91-.91c-.29-.3-.58-.6-.86-.91-.58-.61-1.14-1.23-1.69-1.87-.28-.32-.55-.64-.82-1s-.54-.65-.8-1-.62-.79-.93-1.19l-.63-.85c-.25-.33-.49-.66-.73-1l-.29-.42c-.41-.58-.8-1.17-1.19-1.76-.61-.93-1.2-1.87-1.77-2.84l-.33-.58-.66-1.16c-.22-.4-.44-.8-.64-1.2s-.32-.61-.48-.91c-.07-.13-.14-.26-.2-.39s-.26-.5-.38-.75c-.47-.95-.92-1.91-1.35-2.89-.29-.65-.57-1.29-.84-2a95.14 95.14 0 0 1-4.83-15.41 123.05 123.05 0 0 1-2.89-25.3v-2.26c0-1.57 0-3.13.08-4.68a132 132 0 0 1 2.21-20.52c2.91-15.45 8.52-29 16.26-39.71C569.05 46.43 585 37 603.81 37A52.8 52.8 0 0 1 634 46.39c12.7 8.61 22.49 22.81 28.34 40.46a128 128 0 0 1 6.12 40.15Z" fill="#f8cc13"/><path d="M659.89 171.9c-10.74 24.15-30.83 38.1-56.08 38.1s-45.34-14-56.08-38.11c15.23-10.21 34.35-16.11 56.08-16.11s40.84 5.91 56.08 16.12Zm-91.32-75.28c-5.1 7.17-15.87 8.83-27.13 5.16 2.91-15.45 8.52-29 16.26-39.71 12.46 10.65 17.35 25.46 10.87 34.55Zm93.77-9.77c-11.75 1.24-23-3.49-28.59-13.19-4.83-8.37-4.37-18.51.29-27.27 12.66 8.61 22.45 22.81 28.3 40.46Zm-120.28 67.69a123.05 123.05 0 0 1-2.89-25.3v-2.26c0-1.57 0-3.13.08-4.68a25.81 25.81 0 0 1 3.35 4.55c4.89 8.5 4.33 18.84-.54 27.69Z" fill="#7b381e"/><circle cx="630.88" cy="136.7" r="4.52" transform="rotate(-67.5 630.885 136.702)" fill="#0b0b0b"/><circle cx="576.73" cy="136.7" r="4.52" fill="#0b0b0b"/><circle cx="597.45" cy="169.63" r="2.26" transform="rotate(-67.5 597.446 169.625)" fill="#0b0b0b"/><circle cx="610.17" cy="169.63" r="2.26" transform="rotate(-13.28 610.263 169.644)" fill="#0b0b0b"/><path d="M592.36 180.24s10.08 12 22.89 0" fill="none" stroke="#0b0b0b" stroke-miterlimit="10" stroke-width="6.2"/><path fill="#eb7e23" d="M874.6 376.06H728.81l8.97-43.85 1.75-8.53.96-4.69.35-1.67 2.14-10.44 3.46-16.9.23-1.12 2.12-10.36.99-4.84.13-.64 2.87-14.01 1.9-9.27h87.16l1.88 7.25 2.36 9.09 1.83 7.07.56 2.15.77 2.97 1.4 5.4 1.61 6.22v.01l7.52 28.99.5 1.94.63 2.39 1.87 7.22 3.12 12.05 1.71 6.59 7 26.98z"/><path fill="#0b0b0b" d="m778.93 280.79-32.49 9.19.23-1.12 2.12-10.36.99-4.84.13-.64 29.02 7.77zm-13.13 43.35-28.02 8.07 1.75-8.53.96-4.69.35-1.67 24.96 6.82zm86.45-34.25-33.5-9.17 29.16-7.57.56 2.15.77 2.97 1.4 5.4 1.61 6.22zm10.52 40.55-21.75-6.35 18.75-5.2.5 1.94.63 2.39 1.87 7.22z"/><path d="M847.82 360.38a41.31 41.31 0 0 1-3.09 15.68h-86a41.13 41.13 0 0 1-3.1-15.68c0-24 20.64-43.44 46.12-43.44s46.07 19.45 46.07 43.44Z" fill="#fbc597"/><path d="M758.08 152.55a11.47 11.47 0 0 1-15.57-.62l-13.33-13.36a10.5 10.5 0 0 1-2.21-3.11 15.39 15.39 0 0 1 5.61-19.32 15.42 15.42 0 0 1 20 2.7 10.73 10.73 0 0 1 1.93 3.26l6.85 17.56a11.48 11.48 0 0 1-3.28 12.89Zm76.29 0a11.46 11.46 0 0 0 15.56-.62l13.34-13.36a10.5 10.5 0 0 0 2.21-3.11 15.42 15.42 0 0 0-5.61-19.32 15.42 15.42 0 0 0-20 2.7 11 11 0 0 0-1.87 3.26l-6.84 17.56a11.45 11.45 0 0 0 3.21 12.89Z" fill="#c56128"/><path d="M867.05 206.43c0 3-.12 5.95-.34 8.73a85.428 85.428 0 0 1-.94 7.57c0 .18-.06.36-.1.54a62.66 62.66 0 0 1-3.43 12.3 49.95 49.95 0 0 1-1.42 3.23 44.33 44.33 0 0 1-7.05 10.59c-11.82 13.18-31.33 13.83-57.54 13.83-24.56 0-43.24 0-55.23-11.42a43.28 43.28 0 0 1-7.4-9.31 57.16 57.16 0 0 1-6.94-19.85c0-.26-.09-.52-.13-.78q-.54-3.37-.82-7t-.31-7.59v-.81c0-2.51.07-5 .24-7.55s.39-5.28.72-7.92c4.81-38.56 27.46-70.16 64.82-73.16 1.65-.13 3.33-.2 5.05-.2a64 64 0 0 1 6.71.35c36.18 3.92 58.19 34.67 63.07 72.45 0 .2.06.4.08.6.35 2.82.61 5.65.76 8.48.07 1.11.11 2.21.15 3.31s0 2 0 3.05c.05.13.05.36.05.56Z" fill="#eb7e23"/><circle cx="827.79" cy="175.31" r="4.7" transform="rotate(-80.78 827.817 175.294)" fill="#0b0b0b"/><circle cx="766.8" cy="175.31" r="4.7" transform="rotate(-13.28 766.933 175.301)" fill="#0b0b0b"/><path d="m747.36 200.32-20.7 22.32c0-.26-.09-.52-.13-.78q-.54-3.37-.82-7t-.31-7.59Zm2.86 28.23L741 251.8a43.28 43.28 0 0 1-7.4-9.31ZM867 205.84l-24.7-15.67 23.71.23c0 .2.06.4.08.6.35 2.82.61 5.65.76 8.48.07 1.11.11 2.21.15 3.31s0 2.03 0 3.05Zm-1.33 17.43a62.66 62.66 0 0 1-3.43 12.3l-12.74-21.94Z" fill="#0b0b0b"/><path d="m796.22 199.88.07 22.77s4 5.65 10.9 0m-10.97-22.77-.06 22.77s-4 5.65-10.9 0" fill="none" stroke="#0f0f10" stroke-miterlimit="10" stroke-width="9.06"/><path d="m810.77 207.6-.21.13-10.34 6.19a8.19 8.19 0 0 1-8.18.13l-10.36-5.76 8.54-90.39q3-.24 6.07-.24a73.65 73.65 0 0 1 8.08.43Z" fill="#fbc597"/><path d="m810.77 208.28-.21.12-9.65 5.3a10.34 10.34 0 0 1-9.57.15l-9.66-4.93 1.9-18.51h25.8Z" fill="#0b0b0b"/><path fill="#f9ae1c" d="M461.82 376.06H338.67l27.44-142.07h70.88l24.83 142.07z"/><path d="m338.72 132.48-16.63 16.63-23-23a11.78 11.78 0 0 1 0-16.64 11.78 11.78 0 0 1 16.64 0Zm122.56-5.54 16.63 16.64 23-23a11.76 11.76 0 0 0 0-16.63 11.78 11.78 0 0 0-16.64 0Z" fill="#e48d25"/><ellipse cx="402.54" cy="174.02" rx="101" ry="90.55" fill="#e67925"/><path d="M465.79 178.18c0 37.82-25.43 61.94-63.25 61.94s-63.25-24.12-63.25-61.94 25.43-55.41 63.25-55.41 63.25 17.59 63.25 55.41Z" fill="#f9ae1c"/><path d="M438.07 358.07a95.78 95.78 0 0 1-1.68 18H364.1a95.79 95.79 0 0 1-1.67-18c0-33.63 16.93-60.89 37.82-60.89s37.82 27.26 37.82 60.89Z" fill="#e48d25"/><circle cx="371.38" cy="181.4" r="4.11" fill="#0b0b0b"/><circle cx="431.42" cy="181.4" r="4.11" fill="#0b0b0b"/><path d="m410.28 191.29-.13.11-.1.07a13.77 13.77 0 0 1-17 .36l1-14.19 4-54.76a35.55 35.55 0 0 1 3.6-.19 34.16 34.16 0 0 1 4.78.33l3 54.71Z" fill="#e48d25"/><path d="m401.42 192.4.05 5.46s3.41 4.8 9.25 0m-9.3-5.46-.07 5.46s-3.41 4.8-9.25 0" fill="none" stroke="#0f0f10" stroke-miterlimit="10" stroke-width="7.54"/><path d="m410.52 192.07-.14.08-.1.06a18.27 18.27 0 0 1-17.51.27l1.07-10.85a37.74 37.74 0 0 1 7.8-.8 37 37 0 0 1 8.1.87Z" fill="#56371c"/><path fill="none" stroke="#a95b26" stroke-miterlimit="10" stroke-width="9.42" d="m416.75 123.63 4.81-38.26M384.15 238.2l-3.27 24.08m39.29-24.08 7.14 23.38m26.65-44.3 31.51 2.68m-20.04-34.17 37.57-2.46m-37.21-19.19 32.7-14.99M450.2 137.9l25.6-25.32m-136.28 71.67-37.14 1.26m38.04-20.36-33.25-20.47m44.4 72.84-29.47 10.39m32.79-90.01-25.61-25.32m59.47 11.05-13.26-36.58"/><path d="M980.08 150.11a3.25 3.25 0 0 0-3.73 1.64l-3.49 6.5a.9.9 0 0 1-1.68-.28l-5.7-35.88a3.88 3.88 0 0 0-4.24-3.31 3.77 3.77 0 0 0-3.24 4.32l1.28 8.08a.89.89 0 0 1-1.12 1l-5.39-1.48a3.23 3.23 0 0 0-3.76 1.57 3.13 3.13 0 0 0 2 4.45l9.59 2.64 8.65 54.42 7.41-1.18-3.46-21.77 8.8-16.22a3.15 3.15 0 0 0-1.92-4.5Zm33.92 3.98a3.61 3.61 0 0 1 4.19 1.85l3.94 7.32a1 1 0 0 0 1.89-.32l6.43-40.42a4.37 4.37 0 0 1 4.78-3.74 4.25 4.25 0 0 1 3.64 4.88l-1.45 9.09a1 1 0 0 0 1.27 1.14l6.07-1.67A3.63 3.63 0 0 1 1049 134a3.54 3.54 0 0 1-2.21 5l-10.79 3-9.75 61.32-8.35-1.32 3.9-24.53-9.82-18.27a3.55 3.55 0 0 1 2.02-5.11Z" fill="#cb9866"/><path d="m1036.91 219.72 19.38 15.09a1.83 1.83 0 0 0 2.57-.31l13-16.73a14.11 14.11 0 0 0-2.46-19.81 14.12 14.12 0 0 0-19.81 2.46l-13 16.72a1.85 1.85 0 0 0 .32 2.58Z" fill="#7d4a1f"/><path d="m1042.34 221.72 11.08 8.62a1.36 1.36 0 0 0 1.91-.23l12.6-16.17a8.39 8.39 0 0 0-1.47-11.77 8.38 8.38 0 0 0-11.76 1.47l-12.6 16.16a1.38 1.38 0 0 0 .24 1.92Z" fill="#cb9866"/><path d="m961.84 219.72-19.38 15.09a1.83 1.83 0 0 1-2.57-.31l-13-16.73a14.12 14.12 0 0 1 2.43-19.77 14.12 14.12 0 0 1 19.81 2.46l13 16.72a1.84 1.84 0 0 1-.29 2.54Z" fill="#7d4a1f"/><path d="m956.41 221.72-11.07 8.62a1.37 1.37 0 0 1-1.92-.23l-12.59-16.17a8.39 8.39 0 0 1 1.46-11.77 8.39 8.39 0 0 1 11.77 1.47l12.59 16.16a1.36 1.36 0 0 1-.24 1.92Z" fill="#cb9866"/><path d="M1092.61 426.06H907.39l24.86-185.75a63.79 63.79 0 0 1 63.44-57.15h8.62a63.79 63.79 0 0 1 63.44 57.15Z" fill="#7d4a1f"/><path d="M1068.87 426.06H929.2l2.08-20a63.79 63.79 0 0 1 63.44-57.16h8.62a63.78 63.78 0 0 1 63.44 57.16Z" fill="#cb9866"/><circle cx="970.66" cy="249.4" r="3.26" fill="#0b0b0b"/><circle cx="1029.34" cy="249.4" r="3.26" transform="rotate(-72.22 1029.416 249.372)" fill="#0b0b0b"/><path d="M1024.62 303.17c0 17.26-12 25.81-24.62 25.81s-24.62-8.55-24.62-25.81 12-38.51 24.62-38.51 24.62 21.25 24.62 38.51Z" fill="#cb9866"/><path d="M990.87 282.52h16.32s-6.72 22.57-16.32 0Z" fill="#0b0b0b"/><path d="m999 287.78.05 16.29s2.87 4 7.8 0M999 287.78v16.29s-2.88 4-7.8 0" fill="none" stroke="#0f0f10" stroke-miterlimit="10" stroke-width="8.27"/><path d="M276.5 235.85H260l16.39 3c-1.62 32.19-10.94 72-33.85 118.07-.14 0-5.66-2.71-8.32-4.18-9.24-5.15-17.44-13.4-23.48-20.61a132.31 132.31 0 0 1-10.64-14.55l-3.5-8.45-4.33-10.47-1.84-4.46-5.73-13.81-7.94-19.19V108.29s36.44-2.07 61 14.5c-5.52 30.05-7.59 43-7.59 43L249.79 134s16.92 20.39 23.91 59.59l-19.93 10.69 21.09-3.28a203.22 203.22 0 0 1 1.64 34.85Z" fill="#0b0b0b"/><ellipse cx="221.64" cy="207.56" rx="42.02" ry="12.27" transform="rotate(-52.04 221.644 207.56)" fill="#0b0b0b"/><path d="M253.77 426.06H142.92c.78-64.91 25.3-117 55.43-117 16.26 0 30.88 15.19 41 39.37 1.83 4.34 3.5 9 5 13.85a196.47 196.47 0 0 1 5.91 24.72q.69 3.94 1.24 8a250.31 250.31 0 0 1 2.27 31.06Z" fill="#f4f4f4"/><path d="M210.5 426.06h-61.15c1.87-47.43 14.84-84.15 30.57-84.15s28.7 36.72 30.58 84.15Z" fill="#d7d7d7"/><path d="M245.28 255.34c0 17.94-2.68 33.11-7.61 45.38-9.86 24.53-28.75 37.4-53.36 37.4S140.8 325.25 131 300.7c-4.93-12.26-7.6-27.43-7.6-45.36a164.2 164.2 0 0 1 .79-16.41q.54-5.56 1.46-10.81c3.39-19.55 10.56-35.71 20.69-47a55.13 55.13 0 0 1 11.12-9.55 48.68 48.68 0 0 1 26.9-7.87 49.79 49.79 0 0 1 6.51.42 47.74 47.74 0 0 1 15.05 4.44c16.62 8 28.86 25.61 35 49.38.76 2.93 1.42 5.95 2 9.06a159 159 0 0 1 2.36 28.34Z" fill="#f4f4f4"/><path d="M237.67 300.72c-9.85 24.53-28.75 37.4-53.36 37.4s-43.5-12.87-53.31-37.42c1.06-1 2.15-2 3.27-2.92a71.19 71.19 0 0 1 14.66-9.55 79.69 79.69 0 0 1 35.43-7.87c2.93 0 5.77.14 8.57.42a78.46 78.46 0 0 1 19.83 4.44 72 72 0 0 1 24.91 15.5Z" fill="#fad1d6"/><circle cx="162.81" cy="253.11" r="5.73" fill="#0b0b0b"/><circle cx="205.81" cy="253.11" r="5.73" fill="#0b0b0b"/><path d="M205.87 168.61 193.55 192l-2.73-27.81a47.74 47.74 0 0 1 15.05 4.42Zm38.51 193.64-22.74.93 17.73-14.78c1.83 4.34 3.5 8.97 5.01 13.85ZM251.5 395h-23.14l21.9-8q.74 3.92 1.24 8Zm-88.24-200.45-17-13.38a54.91 54.91 0 0 1 11.13-9.55Zm82.93 32.5c.77 2.93 1.43 5.95 2 9.06l-26.55-1.2m-77.72.45-19.78 3.57q.54-5.56 1.46-10.81Z" fill="#0b0b0b"/><circle cx="177.5" cy="296.49" r="2.42" fill="#0b0b0b"/><circle cx="191.13" cy="296.49" r="2.42" fill="#0b0b0b"/><path d="M1200 493.37H0v-82.53c125.62-37.3 331.83-85.07 592.5-86 268.45-.93 480.44 48.24 607.5 86Z" fill="#105738"/><path d="M611 378.2c3.66 2.41 1.53 12.13-4.76 21.7s-14.37 15.39-18 13-1.53-12.13 4.76-21.7 14.35-15.4 18-13Zm388 51c3.66 2.41 1.53 12.13-4.76 21.7s-14.37 15.39-18 13-1.53-12.13 4.76-21.7 14.35-15.4 18-13Zm-765.35-6.03c2.2-3.8 12-2.23 21.94 3.5s16.2 13.45 14 17.25-12 2.23-21.93-3.5-16.2-13.42-14.01-17.25Z" fill="#0e8750"/></svg>