<svg xmlns="http://www.w3.org/2000/svg" viewBox="0 0 1200 493.37"><title>footAsset 1</title><path d="M144.32,207.89c-.68-38.55-14.83-77.06-40.27-109.56-2.17-2.78-4.9-5.77-8.81-6.21-14.55-1.62-25.2,21.73-29.85,30C48.63,151.71,34.3,182.86,33.5,216.27,32.67,251,44.28,286,66.43,315.7c5.33,7.13,13.17,14.77,23.08,14.08,8.24-.57,14-6.73,18.39-12.56C132.2,284.86,145,246.43,144.32,207.89Z" fill="#16c172"/><path d="M116.16,234.15c-5.83,6.69-11.9,13.25-18.06,19.63-.69.72-1.4,1.42-2.12,2.13,0-7.68,0-15.36-.1-23a3.19,3.19,0,0,0,0-1.86q-.17-14.13-.63-28.25c3.75-1.71,6.19-6.56,8.28-9.86a92.6,92.6,0,0,0,7.29-14.05c3.91-9.35,7.48-20.94,6.18-31.2-.27-2.13-3.19-2.82-3.91-.53-3.07,9.75-4.69,19.48-9.22,28.8A90.72,90.72,0,0,1,96.76,188a31.85,31.85,0,0,1-2,2.58c-.47-8.79-1.27-17.51-2.15-26.28-.46-4.65-.9-9.3-1.57-13.93a77.07,77.07,0,0,0-3.68-14.86.94.94,0,0,0-1.79,0,67.28,67.28,0,0,0-2.44,11.07c-.48,4.59-.76,9.18-1,13.79-.43,8.52-1.16,17.06-1.28,25.59-.16,10.28-.16,20.55-.16,30.83-.15-.15-.31-.3-.46-.46A106,106,0,0,1,66,199a1.9,1.9,0,0,0-3.28,1.92,98.9,98.9,0,0,0,12.18,19.6,83.26,83.26,0,0,0,5.8,6.37q0,6.12,0,12.23c-.1,20.05-.45,40.1-.93,60.14-1.44-1.32-2.83-2.69-4.13-4.11-5.86-6.41-9.37-14.15-12-22.34-.26-.8-1.6-.71-1.55.21.55,8.91,4,17.44,8.76,24.92a58.27,58.27,0,0,0,8.72,10.78q-.45,17.38-1,34.78-.44,14.76-1,29.52-.3,7.38-.61,14.76a56.69,56.69,0,0,0,1.29,15.54c1.48,6.69,10.88,5.89,12.77,0,2.77-8.62,2.6-17.36,3-26.36q.49-12.8.89-25.59.82-26.58,1-53.16c.07-11.56.16-23.13.2-34.7,2.07-2.41,4-4.89,5.93-7.22a171.88,171.88,0,0,0,14.92-21.65C117.05,234.26,116.47,233.79,116.16,234.15Z" fill="#0e8750"/><path d="M1197.32,266.89c-.68-38.55-14.83-77.06-40.27-109.56-2.17-2.78-4.9-5.77-8.81-6.21-14.55-1.62-25.2,21.73-29.85,30-16.76,29.63-31.09,60.78-31.89,94.19-.83,34.7,10.78,69.74,32.93,99.43,5.33,7.13,13.17,14.77,23.08,14.08,8.24-.57,14-6.73,18.39-12.56C1185.2,343.86,1198,305.43,1197.32,266.89Z" fill="#16c172"/><path d="M1169.16,293.15c-5.83,6.69-11.9,13.25-18.06,19.63-.69.72-1.4,1.42-2.12,2.13,0-7.68,0-15.36-.1-23a3.19,3.19,0,0,0,0-1.86q-.16-14.13-.63-28.25c3.75-1.71,6.19-6.56,8.28-9.86a92.6,92.6,0,0,0,7.29-14.05c3.91-9.35,7.48-20.94,6.18-31.2-.27-2.13-3.19-2.82-3.91-.53-3.07,9.75-4.69,19.48-9.22,28.8a90.72,90.72,0,0,1-7.09,12.08,31.85,31.85,0,0,1-2,2.58c-.47-8.79-1.27-17.51-2.15-26.28-.46-4.65-.9-9.3-1.57-13.93a77.07,77.07,0,0,0-3.68-14.86.94.94,0,0,0-1.79,0,67.28,67.28,0,0,0-2.44,11.07c-.48,4.59-.76,9.18-1,13.79-.43,8.52-1.16,17.06-1.28,25.59-.16,10.28-.16,20.55-.16,30.83-.15-.15-.31-.3-.46-.46A106,106,0,0,1,1119,258a1.9,1.9,0,0,0-3.28,1.92,98.9,98.9,0,0,0,12.18,19.6,83.26,83.26,0,0,0,5.8,6.37q0,6.12,0,12.23c-.1,20.05-.45,40.1-.93,60.14-1.44-1.32-2.83-2.69-4.13-4.11-5.86-6.41-9.37-14.15-12-22.34-.26-.8-1.6-.71-1.55.21.55,8.91,4,17.44,8.76,24.92a58.27,58.27,0,0,0,8.72,10.78q-.45,17.38-1,34.78-.43,14.76-1,29.52-.3,7.38-.61,14.76a56.69,56.69,0,0,0,1.29,15.54c1.48,6.69,10.88,5.89,12.77,0,2.77-8.62,2.6-17.36,3-26.36q.49-12.8.89-25.59.83-26.58,1-53.16c.07-11.56.16-23.13.2-34.7,2.07-2.41,4-4.89,5.93-7.22a171.88,171.88,0,0,0,14.92-21.65C1170.05,293.26,1169.47,292.79,1169.16,293.15Z" fill="#0e8750"/><path d="M556.42,295.39a53,53,0,0,0-11.59-31.55,4,4,0,0,0-2.54-1.79c-4.19-.47-7.26,6.26-8.6,8.63-4.83,8.53-9,17.5-9.18,27.12A46.26,46.26,0,0,0,534,326.44c1.54,2.05,3.79,4.25,6.65,4.05,2.37-.16,4-1.94,5.29-3.61A51,51,0,0,0,556.42,295.39Z" fill="#41e799"/><path d="M548.31,303c-1.68,1.93-3.42,3.82-5.2,5.66l-.61.61c0-2.21,0-4.43,0-6.64a1,1,0,0,0,0-.53q0-4.08-.18-8.14c1.08-.49,1.78-1.89,2.38-2.84a26.69,26.69,0,0,0,2.1-4c1.13-2.7,2.16-6,1.78-9a.58.58,0,0,0-1.13-.15c-.88,2.81-1.35,5.61-2.65,8.29a25.76,25.76,0,0,1-2,3.48c-.18.25-.38.5-.59.74-.13-2.53-.36-5-.62-7.56-.13-1.34-.26-2.68-.45-4a22.51,22.51,0,0,0-1.06-4.28.27.27,0,0,0-.51,0,19.34,19.34,0,0,0-.71,3.19c-.14,1.32-.22,2.65-.29,4-.12,2.46-.33,4.92-.37,7.37,0,3,0,5.92,0,8.88l-.13-.13a29.76,29.76,0,0,1-4.1-5,.55.55,0,0,0-1,.56,28.3,28.3,0,0,0,3.51,5.64,24.11,24.11,0,0,0,1.67,1.84c0,1.17,0,2.35,0,3.52,0,5.77-.13,11.55-.26,17.32a16.58,16.58,0,0,1-1.19-1.18,17.16,17.16,0,0,1-3.47-6.44c-.07-.23-.46-.2-.44.06a15.24,15.24,0,0,0,2.52,7.18,16.5,16.5,0,0,0,2.51,3.1q-.13,5-.28,10c-.09,2.83-.18,5.67-.29,8.5L537,347.2a16.43,16.43,0,0,0,.37,4.48c.43,1.93,3.14,1.69,3.68,0a27.6,27.6,0,0,0,.85-7.59q.14-3.69.26-7.37.23-7.67.28-15.31c0-3.33,0-6.66.06-10,.59-.69,1.16-1.4,1.7-2.08a49.26,49.26,0,0,0,4.3-6.23C548.57,303,548.4,302.85,548.31,303Z" fill="#16c172"/><path d="M683.3,294.43a53,53,0,0,0-11.59-31.55,4,4,0,0,0-2.54-1.79c-4.19-.47-7.26,6.26-8.6,8.63-4.83,8.53-9,17.5-9.18,27.12a46.26,46.26,0,0,0,9.48,28.64c1.54,2,3.79,4.25,6.65,4,2.37-.16,4-1.94,5.29-3.61A51,51,0,0,0,683.3,294.43Z" fill="#16c172"/><path d="M675.19,302c-1.68,1.93-3.42,3.82-5.2,5.66-.2.2-.4.41-.61.61,0-2.21,0-4.43,0-6.64a1,1,0,0,0,0-.53q0-4.08-.18-8.14c1.08-.49,1.78-1.89,2.38-2.84a26.69,26.69,0,0,0,2.1-4c1.13-2.7,2.16-6,1.78-9a.58.58,0,0,0-1.13-.15c-.88,2.81-1.35,5.61-2.65,8.29a25.76,25.76,0,0,1-2,3.48c-.18.25-.38.5-.59.74-.13-2.53-.36-5-.62-7.56-.13-1.34-.26-2.68-.45-4a22.51,22.51,0,0,0-1.06-4.28.27.27,0,0,0-.51,0,19.34,19.34,0,0,0-.71,3.19c-.14,1.32-.22,2.65-.29,4-.12,2.46-.33,4.92-.37,7.37,0,3,0,5.92,0,8.88l-.13-.13a29.76,29.76,0,0,1-4.1-5,.55.55,0,0,0-1,.56,28.3,28.3,0,0,0,3.51,5.64,24.11,24.11,0,0,0,1.67,1.84c0,1.17,0,2.35,0,3.52,0,5.77-.13,11.55-.26,17.32a16.58,16.58,0,0,1-1.19-1.18,17.16,17.16,0,0,1-3.47-6.44c-.07-.23-.46-.2-.44.06a15.24,15.24,0,0,0,2.52,7.18,16.5,16.5,0,0,0,2.51,3.1q-.14,5-.28,10c-.09,2.83-.18,5.67-.29,8.5l-.18,4.25a16.43,16.43,0,0,0,.37,4.48c.43,1.93,3.14,1.69,3.68,0a27.6,27.6,0,0,0,.85-7.59q.13-3.69.26-7.37.23-7.67.28-15.31c0-3.33,0-6.66.06-10,.59-.69,1.16-1.4,1.7-2.08a49.26,49.26,0,0,0,4.3-6.23C675.45,302,675.28,301.89,675.19,302Z" fill="#0e8750"/><path d="M520.3,300.43a53,53,0,0,0-11.59-31.55,4,4,0,0,0-2.54-1.79c-4.19-.47-7.26,6.26-8.6,8.63-4.83,8.53-8.95,17.5-9.18,27.12a46.26,46.26,0,0,0,9.48,28.64c1.54,2,3.79,4.25,6.65,4,2.37-.16,4-1.94,5.29-3.61A51,51,0,0,0,520.3,300.43Z" fill="#16c172"/><path d="M512.19,308c-1.68,1.93-3.42,3.82-5.2,5.66l-.61.61c0-2.21,0-4.43,0-6.64a1,1,0,0,0,0-.53q0-4.08-.18-8.14c1.08-.49,1.78-1.89,2.38-2.84a26.69,26.69,0,0,0,2.1-4c1.13-2.7,2.16-6,1.78-9a.58.58,0,0,0-1.13-.15c-.88,2.81-1.35,5.61-2.65,8.29a25.76,25.76,0,0,1-2,3.48c-.18.25-.38.5-.59.74-.13-2.53-.36-5-.62-7.56-.13-1.34-.26-2.68-.45-4a22.51,22.51,0,0,0-1.06-4.28.27.27,0,0,0-.51,0,19.34,19.34,0,0,0-.71,3.19c-.14,1.32-.22,2.65-.29,4-.12,2.46-.33,4.92-.37,7.37,0,3,0,5.92,0,8.88l-.13-.13a29.76,29.76,0,0,1-4.1-5,.55.55,0,0,0-.95.56,28.3,28.3,0,0,0,3.51,5.64,24.11,24.11,0,0,0,1.67,1.84c0,1.17,0,2.35,0,3.52,0,5.77-.13,11.55-.26,17.32a16.58,16.58,0,0,1-1.19-1.18,17.16,17.16,0,0,1-3.47-6.44c-.07-.23-.46-.2-.44.06a15.24,15.24,0,0,0,2.52,7.18,16.5,16.5,0,0,0,2.51,3.1q-.13,5-.28,10c-.09,2.83-.18,5.67-.29,8.5l-.18,4.25a16.43,16.43,0,0,0,.37,4.48c.43,1.93,3.14,1.69,3.68,0a27.6,27.6,0,0,0,.85-7.59q.14-3.69.26-7.37.22-7.67.28-15.31c0-3.33.05-6.66.06-10,.59-.69,1.16-1.4,1.7-2.08a49.26,49.26,0,0,0,4.3-6.23C512.45,308,512.28,307.89,512.19,308Z" fill="#0e8750"/><path d="M720.42,301.39a53,53,0,0,0-11.59-31.55,4,4,0,0,0-2.54-1.79c-4.19-.47-7.26,6.26-8.6,8.63-4.83,8.53-9,17.5-9.18,27.12A46.26,46.26,0,0,0,698,332.44c1.54,2.05,3.79,4.25,6.65,4.05,2.37-.16,4-1.94,5.29-3.61A51,51,0,0,0,720.42,301.39Z" fill="#41e799"/><path d="M712.31,309c-1.68,1.93-3.42,3.82-5.2,5.66l-.61.61c0-2.21,0-4.43,0-6.64a1,1,0,0,0,0-.53q0-4.08-.18-8.14c1.08-.49,1.78-1.89,2.38-2.84a26.69,26.69,0,0,0,2.1-4c1.13-2.7,2.16-6,1.78-9a.58.58,0,0,0-1.13-.15c-.88,2.81-1.35,5.61-2.65,8.29a25.76,25.76,0,0,1-2,3.48c-.18.25-.38.5-.59.74-.13-2.53-.36-5-.62-7.56-.13-1.34-.26-2.68-.45-4a22.51,22.51,0,0,0-1.06-4.28.27.27,0,0,0-.51,0,19.34,19.34,0,0,0-.71,3.19c-.14,1.32-.22,2.65-.29,4-.12,2.46-.33,4.92-.37,7.37,0,3,0,5.92,0,8.88l-.13-.13a29.76,29.76,0,0,1-4.1-5,.55.55,0,0,0-1,.56,28.3,28.3,0,0,0,3.51,5.64,24.11,24.11,0,0,0,1.67,1.84c0,1.17,0,2.35,0,3.52,0,5.77-.13,11.55-.26,17.32a16.58,16.58,0,0,1-1.19-1.18,17.16,17.16,0,0,1-3.47-6.44c-.07-.23-.46-.2-.44.06a15.24,15.24,0,0,0,2.52,7.18,16.5,16.5,0,0,0,2.51,3.1q-.13,5-.28,10c-.09,2.83-.18,5.67-.29,8.5L701,353.2a16.43,16.43,0,0,0,.37,4.48c.43,1.93,3.14,1.69,3.68,0a27.6,27.6,0,0,0,.85-7.59q.14-3.69.26-7.37.23-7.67.28-15.31c0-3.33,0-6.66.06-10,.59-.69,1.16-1.4,1.7-2.08a49.26,49.26,0,0,0,4.3-6.23C712.57,309,712.4,308.85,712.31,309Z" fill="#16c172"/><polygon points="648.91 356.44 558.71 356.44 562.89 314.29 566.44 278.54 569.57 247.09 572.4 218.6 578.55 156.78 623.77 156.78 627.02 182.6 630.53 210.41 633.4 233.23 637.59 266.51 637.59 266.52 642.23 303.38 643.55 313.81 646.76 339.35 646.76 339.36 648.91 356.44" fill="#f8cc13"/><rect x="586.5" y="9.6" width="4.5" height="59.69" fill="#f9ae1c"/><circle cx="588.75" cy="5.98" r="5.89" fill="#7b381e"/><rect x="613.93" y="9.51" width="4.5" height="52.56" fill="#f9ae1c"/><circle cx="616.18" cy="5.89" r="5.89" fill="#7b381e"/><path d="M637.59,266.51a21.55,21.55,0,0,1-4.19-33.28Z" fill="#7b381e"/><path d="M574.37,295.24a21.54,21.54,0,0,1-11.48,19.05l3.55-35.75A21.5,21.5,0,0,1,574.37,295.24Z" fill="#7b381e"/><circle cx="600.65" cy="344.09" r="9.2" fill="#7b381e"/><ellipse cx="540.11" cy="48.37" rx="10.81" ry="37.03" transform="translate(84.51 342.46) rotate(-37.96)" fill="#f9ae1c"/><ellipse cx="659.89" cy="48.37" rx="37.03" ry="10.81" transform="translate(215.86 538.9) rotate(-52.04)" fill="#f9ae1c"/><path d="M668.46,127c0,17.33-3.05,32.48-8.57,44.92-.47,1-.95,2.08-1.46,3.08-.17.36-.35.7-.52,1.05-.29.56-.59,1.12-.89,1.67-.18.34-.36.66-.55,1s-.49.86-.75,1.29-.5.84-.76,1.26c-.13.2-.25.41-.39.61-.26.42-.52.83-.8,1.23-.13.21-.27.41-.4.61-.81,1.19-1.65,2.34-2.52,3.46-.1.13-.2.27-.31.39a1.24,1.24,0,0,1-.18.22c-.09.13-.19.25-.29.37-.63.79-1.28,1.55-1.94,2.3l-.46.51a60.44,60.44,0,0,1-4.4,4.37c-.27.25-.54.49-.82.72q-.94.83-1.92,1.59l-.61.48c-.76.59-1.54,1.16-2.33,1.7l-.48.33q-.36.26-.72.48c-.35.24-.71.46-1.07.69s-.94.58-1.42.85c-.22.14-.44.27-.67.39-.4.23-.81.46-1.23.67-.26.15-.53.29-.79.42l-1.45.72-.32.14c-.38.19-.76.36-1.15.53q-1.72.76-3.51,1.41l-.95.34-.36.12c-.42.15-.85.28-1.28.41-1,.33-2.09.62-3.16.89-1.5.38-3,.69-4.58.95l-.85.14-.85.12a4.58,4.58,0,0,1-.55.07c-.47.07-1,.13-1.43.18-.67.07-1.35.13-2,.18l-.55,0-.92,0-1.11.05c-.78,0-1.57,0-2.36,0s-1.6,0-2.39,0l-1.13-.05a60.4,60.4,0,0,1-15.17-2.71l-.61-.2c-.58-.18-1.15-.38-1.72-.59l-1-.38-1-.39c-.29-.12-.59-.24-.87-.37l-.62-.26c-.84-.37-1.67-.76-2.48-1.17-.45-.22-.89-.46-1.33-.69l-.23-.13c-.4-.21-.79-.43-1.18-.65l-.07,0c-.42-.23-.84-.48-1.25-.74l-1-.59,0,0-.87-.57c-1.1-.73-2.18-1.5-3.24-2.32l-.74-.58c-.94-.75-1.87-1.53-2.77-2.36-.6-.54-1.2-1.1-1.78-1.67l-.91-.91c-.29-.3-.58-.6-.86-.91-.58-.61-1.14-1.23-1.69-1.87-.28-.32-.55-.64-.82-1s-.54-.65-.8-1-.62-.79-.93-1.19l-.63-.85c-.25-.33-.49-.66-.73-1l-.29-.42c-.41-.58-.8-1.17-1.19-1.76-.61-.93-1.2-1.87-1.77-2.84l-.33-.58-.66-1.16c-.22-.4-.44-.8-.64-1.2s-.32-.61-.48-.91c-.07-.13-.14-.26-.2-.39s-.26-.5-.38-.75c-.47-.95-.92-1.91-1.35-2.89-.29-.65-.57-1.29-.84-2a95.14,95.14,0,0,1-4.83-15.41,123.05,123.05,0,0,1-2.89-25.3c0-.75,0-1.5,0-2.26,0-1.57,0-3.13.08-4.68a132,132,0,0,1,2.21-20.52c2.91-15.45,8.52-29,16.26-39.71C569.05,46.43,585,37,603.81,37A52.8,52.8,0,0,1,634,46.39C646.7,55,656.49,69.2,662.34,86.85A128,128,0,0,1,668.46,127Z" fill="#f8cc13"/><path d="M659.89,171.9C649.15,196.05,629.06,210,603.81,210s-45.34-14-56.08-38.11c15.23-10.21,34.35-16.11,56.08-16.11S644.65,161.69,659.89,171.9Z" fill="#7b381e"/><path d="M568.57,96.62c-5.1,7.17-15.87,8.83-27.13,5.16,2.91-15.45,8.52-29,16.26-39.71C570.16,72.72,575.05,87.53,568.57,96.62Z" fill="#7b381e"/><path d="M662.34,86.85c-11.75,1.24-23-3.49-28.59-13.19-4.83-8.37-4.37-18.51.29-27.27C646.7,55,656.49,69.2,662.34,86.85Z" fill="#7b381e"/><path d="M542.06,154.54a123.05,123.05,0,0,1-2.89-25.3c0-.75,0-1.5,0-2.26,0-1.57,0-3.13.08-4.68a25.81,25.81,0,0,1,3.35,4.55C547.49,135.35,546.93,145.69,542.06,154.54Z" fill="#7b381e"/><circle cx="630.88" cy="136.7" r="4.52" transform="translate(263.16 667.25) rotate(-67.5)" fill="#0b0b0b"/><circle cx="576.73" cy="136.7" r="4.52" fill="#0b0b0b"/><circle cx="597.45" cy="169.63" r="2.26" transform="translate(212.1 656.68) rotate(-67.5)" fill="#0b0b0b"/><circle cx="610.17" cy="169.63" r="2.26" transform="translate(-22.65 144.72) rotate(-13.28)" fill="#0b0b0b"/><path d="M592.36,180.24s10.08,12,22.89,0" fill="none" stroke="#0b0b0b" stroke-miterlimit="10" stroke-width="6.2"/><polygon points="874.6 376.06 728.81 376.06 737.78 332.21 739.53 323.68 740.49 318.99 740.84 317.32 742.98 306.88 746.44 289.98 746.67 288.86 748.79 278.5 749.78 273.66 749.91 273.02 752.78 259.01 754.68 249.74 841.84 249.74 843.72 256.99 846.08 266.08 847.91 273.15 848.47 275.3 849.24 278.27 850.64 283.67 852.25 289.89 852.25 289.9 859.77 318.89 860.27 320.83 860.9 323.22 862.77 330.44 865.89 342.49 867.6 349.08 874.6 376.06" fill="#eb7e23"/><polygon points="778.93 280.79 746.44 289.98 746.67 288.86 748.79 278.5 749.78 273.66 749.91 273.02 778.93 280.79" fill="#0b0b0b"/><polygon points="765.8 324.14 737.78 332.21 739.53 323.68 740.49 318.99 740.84 317.32 765.8 324.14" fill="#0b0b0b"/><polygon points="852.25 289.89 818.75 280.72 847.91 273.15 848.47 275.3 849.24 278.27 850.64 283.67 852.25 289.89" fill="#0b0b0b"/><polygon points="862.77 330.44 841.02 324.09 859.77 318.89 860.27 320.83 860.9 323.22 862.77 330.44" fill="#0b0b0b"/><path d="M847.82,360.38a41.31,41.31,0,0,1-3.09,15.68h-86a41.13,41.13,0,0,1-3.1-15.68c0-24,20.64-43.44,46.12-43.44S847.82,336.39,847.82,360.38Z" fill="#fbc597"/><path d="M758.08,152.55h0a11.47,11.47,0,0,1-15.57-.62l-13.33-13.36a10.5,10.5,0,0,1-2.21-3.11,15.39,15.39,0,0,1,5.61-19.32h0a15.42,15.42,0,0,1,20,2.7,10.73,10.73,0,0,1,1.93,3.26l6.85,17.56A11.48,11.48,0,0,1,758.08,152.55Z" fill="#c56128"/><path d="M834.37,152.55h0a11.46,11.46,0,0,0,15.56-.62l13.34-13.36a10.5,10.5,0,0,0,2.21-3.11,15.42,15.42,0,0,0-5.61-19.32h0a15.42,15.42,0,0,0-20,2.7A11,11,0,0,0,838,122.1l-6.84,17.56A11.45,11.45,0,0,0,834.37,152.55Z" fill="#c56128"/><path d="M867.05,206.43c0,3-.12,5.95-.34,8.73-.07.83-.14,1.64-.23,2.45-.19,1.76-.43,3.47-.71,5.12,0,.18-.06.36-.1.54a62.66,62.66,0,0,1-3.43,12.3c-.44,1.11-.92,2.19-1.42,3.23a44.33,44.33,0,0,1-7.05,10.59c-11.82,13.18-31.33,13.83-57.54,13.83-24.56,0-43.24,0-55.23-11.42a43.28,43.28,0,0,1-7.4-9.31,57.16,57.16,0,0,1-6.94-19.85c0-.26-.09-.52-.13-.78q-.54-3.37-.82-7t-.31-7.59v-.81c0-2.51.07-5,.24-7.55s.39-5.28.72-7.92c4.81-38.56,27.46-70.16,64.82-73.16,1.65-.13,3.33-.2,5.05-.2a64,64,0,0,1,6.71.35c36.18,3.92,58.19,34.67,63.07,72.45,0,.2.06.4.08.6.35,2.82.61,5.65.76,8.48.07,1.11.11,2.21.15,3.31s0,2,0,3.05C867.05,206,867.05,206.23,867.05,206.43Z" fill="#eb7e23"/><circle cx="827.79" cy="175.31" r="4.7" transform="translate(522.15 964.33) rotate(-80.78)" fill="#0b0b0b"/><circle cx="766.8" cy="175.31" r="4.7" transform="translate(-19.76 180.86) rotate(-13.28)" fill="#0b0b0b"/><path d="M747.36,200.32l-20.7,22.32c0-.26-.09-.52-.13-.78q-.54-3.37-.82-7t-.31-7.59Z" fill="#0b0b0b"/><path d="M750.22,228.55,741,251.8a43.28,43.28,0,0,1-7.4-9.31Z" fill="#0b0b0b"/><path d="M867,205.84,842.3,190.17l23.71.23c0,.2.06.4.08.6.35,2.82.61,5.65.76,8.48.07,1.11.11,2.21.15,3.31S867,204.82,867,205.84Z" fill="#0b0b0b"/><path d="M865.67,223.27a62.66,62.66,0,0,1-3.43,12.3L849.5,213.63Z" fill="#0b0b0b"/><path d="M796.22,199.88l.07,22.77s4,5.65,10.9,0" fill="none" stroke="#0f0f10" stroke-miterlimit="10" stroke-width="9.06"/><path d="M796.22,199.88l-.06,22.77s-4,5.65-10.9,0" fill="none" stroke="#0f0f10" stroke-miterlimit="10" stroke-width="9.06"/><path d="M810.77,207.6l-.21.13-10.34,6.19a8.19,8.19,0,0,1-8.18.13l-10.36-5.76,8.54-90.39q3-.24,6.07-.24a73.65,73.65,0,0,1,8.08.43Z" fill="#fbc597"/><path d="M810.77,208.28l-.21.12-9.65,5.3a10.34,10.34,0,0,1-9.57.15l-9.66-4.93,1.9-18.51h25.8Z" fill="#0b0b0b"/><polygon points="461.82 376.06 338.67 376.06 366.11 233.99 436.99 233.99 461.82 376.06" fill="#f9ae1c"/><path d="M338.72,132.48l-16.63,16.63-23-23a11.78,11.78,0,0,1,0-16.64h0a11.78,11.78,0,0,1,16.64,0Z" fill="#e48d25"/><path d="M461.28,126.94l16.63,16.64,23-23a11.76,11.76,0,0,0,0-16.63h0a11.78,11.78,0,0,0-16.64,0Z" fill="#e48d25"/><ellipse cx="402.54" cy="174.02" rx="101" ry="90.55" fill="#e67925"/><path d="M465.79,178.18c0,37.82-25.43,61.94-63.25,61.94S339.29,216,339.29,178.18s25.43-55.41,63.25-55.41S465.79,140.36,465.79,178.18Z" fill="#f9ae1c"/><path d="M438.07,358.07a95.78,95.78,0,0,1-1.68,18H364.1a95.79,95.79,0,0,1-1.67-18c0-33.63,16.93-60.89,37.82-60.89S438.07,324.44,438.07,358.07Z" fill="#e48d25"/><circle cx="371.38" cy="181.4" r="4.11" fill="#0b0b0b"/><circle cx="431.42" cy="181.4" r="4.11" fill="#0b0b0b"/><path d="M410.28,191.29l-.13.11-.1.07a13.77,13.77,0,0,1-17,.36l1-14.19,4-54.76a35.55,35.55,0,0,1,3.6-.19,34.16,34.16,0,0,1,4.78.33l3,54.71Z" fill="#e48d25"/><path d="M401.42,192.4l.05,5.46s3.41,4.8,9.25,0" fill="none" stroke="#0f0f10" stroke-miterlimit="10" stroke-width="7.54"/><path d="M401.42,192.4l-.07,5.46s-3.41,4.8-9.25,0" fill="none" stroke="#0f0f10" stroke-miterlimit="10" stroke-width="7.54"/><path d="M410.52,192.07l-.14.08-.1.06a18.27,18.27,0,0,1-17.51.27l1.07-10.85a37.74,37.74,0,0,1,7.8-.8,37,37,0,0,1,8.1.87Z" fill="#56371c"/><line x1="416.75" y1="123.63" x2="421.56" y2="85.37" fill="none" stroke="#a95b26" stroke-miterlimit="10" stroke-width="9.42"/><line x1="384.15" y1="238.2" x2="380.88" y2="262.28" fill="none" stroke="#a95b26" stroke-miterlimit="10" stroke-width="9.42"/><line x1="420.17" y1="238.2" x2="427.31" y2="261.58" fill="none" stroke="#a95b26" stroke-miterlimit="10" stroke-width="9.42"/><line x1="453.96" y1="217.28" x2="485.47" y2="219.96" fill="none" stroke="#a95b26" stroke-miterlimit="10" stroke-width="9.42"/><line x1="465.43" y1="185.79" x2="503" y2="183.33" fill="none" stroke="#a95b26" stroke-miterlimit="10" stroke-width="9.42"/><line x1="465.79" y1="164.14" x2="498.49" y2="149.15" fill="none" stroke="#a95b26" stroke-miterlimit="10" stroke-width="9.42"/><line x1="450.2" y1="137.9" x2="475.8" y2="112.58" fill="none" stroke="#a95b26" stroke-miterlimit="10" stroke-width="9.42"/><line x1="339.52" y1="184.25" x2="302.38" y2="185.51" fill="none" stroke="#a95b26" stroke-miterlimit="10" stroke-width="9.42"/><line x1="340.42" y1="165.15" x2="307.17" y2="144.68" fill="none" stroke="#a95b26" stroke-miterlimit="10" stroke-width="9.42"/><line x1="351.57" y1="217.52" x2="322.1" y2="227.91" fill="none" stroke="#a95b26" stroke-miterlimit="10" stroke-width="9.42"/><line x1="354.89" y1="137.9" x2="329.28" y2="112.58" fill="none" stroke="#a95b26" stroke-miterlimit="10" stroke-width="9.42"/><line x1="388.75" y1="123.63" x2="375.49" y2="87.05" fill="none" stroke="#a95b26" stroke-miterlimit="10" stroke-width="9.42"/><path d="M980.08,150.11a3.25,3.25,0,0,0-3.73,1.64l-3.49,6.5a.9.9,0,0,1-1.68-.28l-5.7-35.88a3.88,3.88,0,0,0-4.24-3.31A3.77,3.77,0,0,0,958,123.1l1.28,8.08a.89.89,0,0,1-1.12,1l-5.39-1.48a3.23,3.23,0,0,0-3.76,1.57,3.13,3.13,0,0,0,2,4.45l9.59,2.64,0,0,8.65,54.42h0l7.41-1.18s0,0,0,0l-3.46-21.77h0L982,154.61A3.15,3.15,0,0,0,980.08,150.11Z" fill="#cb9866"/><path d="M1014,154.09a3.61,3.61,0,0,1,4.19,1.85l3.94,7.32a1,1,0,0,0,1.89-.32l6.43-40.42a4.37,4.37,0,0,1,4.78-3.74,4.25,4.25,0,0,1,3.64,4.88l-1.45,9.09a1,1,0,0,0,1.27,1.14l6.07-1.67A3.63,3.63,0,0,1,1049,134a3.54,3.54,0,0,1-2.21,5L1036,142s0,0,0,0l-9.75,61.32h0l-8.35-1.32s0,0,0,0l3.9-24.53h0l-9.82-18.27A3.55,3.55,0,0,1,1014,154.09Z" fill="#cb9866"/><path d="M1036.91,219.72l19.38,15.09a1.83,1.83,0,0,0,2.57-.31l13-16.73a14.11,14.11,0,0,0-2.46-19.81h0a14.12,14.12,0,0,0-19.81,2.46l-13,16.72A1.85,1.85,0,0,0,1036.91,219.72Z" fill="#7d4a1f"/><path d="M1042.34,221.72l11.08,8.62a1.36,1.36,0,0,0,1.91-.23l12.6-16.17a8.39,8.39,0,0,0-1.47-11.77h0a8.38,8.38,0,0,0-11.76,1.47l-12.6,16.16A1.38,1.38,0,0,0,1042.34,221.72Z" fill="#cb9866"/><path d="M961.84,219.72l-19.38,15.09a1.83,1.83,0,0,1-2.57-.31l-13-16.73A14.12,14.12,0,0,1,929.32,198h0a14.12,14.12,0,0,1,19.81,2.46l13,16.72A1.84,1.84,0,0,1,961.84,219.72Z" fill="#7d4a1f"/><path d="M956.41,221.72l-11.07,8.62a1.37,1.37,0,0,1-1.92-.23l-12.59-16.17a8.39,8.39,0,0,1,1.46-11.77h0a8.39,8.39,0,0,1,11.77,1.47l12.59,16.16A1.36,1.36,0,0,1,956.41,221.72Z" fill="#cb9866"/><path d="M1092.61,426.06H907.39l24.86-185.75a63.79,63.79,0,0,1,63.44-57.15h8.62a63.79,63.79,0,0,1,63.44,57.15Z" fill="#7d4a1f"/><path d="M1068.87,426.06H929.2l2.08-20a63.79,63.79,0,0,1,63.44-57.16h8.62a63.78,63.78,0,0,1,63.44,57.16Z" fill="#cb9866"/><circle cx="970.66" cy="249.4" r="3.26" fill="#0b0b0b"/><circle cx="1029.34" cy="249.4" r="3.26" transform="translate(477.61 1153.47) rotate(-72.22)" fill="#0b0b0b"/><path d="M1024.62,303.17c0,17.26-12,25.81-24.62,25.81s-24.62-8.55-24.62-25.81,12-38.51,24.62-38.51S1024.62,285.91,1024.62,303.17Z" fill="#cb9866"/><path d="M990.87,282.52h16.32S1000.47,305.09,990.87,282.52Z" fill="#0b0b0b"/><path d="M999,287.78l.05,16.29s2.87,4,7.8,0" fill="none" stroke="#0f0f10" stroke-miterlimit="10" stroke-width="8.27"/><path d="M999,287.78l0,16.29s-2.88,4-7.8,0" fill="none" stroke="#0f0f10" stroke-miterlimit="10" stroke-width="8.27"/><path d="M276.5,235.85H260l16.39,3c-1.62,32.19-10.94,72-33.85,118.07-.14,0-5.66-2.71-8.32-4.18-9.24-5.15-17.44-13.4-23.48-20.61a132.31,132.31,0,0,1-10.64-14.55l-3.5-8.45-4.33-10.47-1.84-4.46-5.73-13.81-7.94-19.19V108.29s36.44-2.07,61,14.5c-5.52,30.05-7.59,43-7.59,43L249.79,134s16.92,20.39,23.91,59.59l-19.93,10.69L274.86,201A203.22,203.22,0,0,1,276.5,235.85Z" fill="#0b0b0b"/><ellipse cx="221.64" cy="207.56" rx="42.02" ry="12.27" transform="translate(-78.34 254.64) rotate(-52.04)" fill="#0b0b0b"/><path d="M253.77,426.06H142.92c.78-64.91,25.3-117,55.43-117,16.26,0,30.88,15.19,41,39.37,1.83,4.34,3.5,9,5,13.85A196.47,196.47,0,0,1,250.26,387q.69,3.94,1.24,8A250.31,250.31,0,0,1,253.77,426.06Z" fill="#f4f4f4"/><path d="M210.5,426.06H149.35c1.87-47.43,14.84-84.15,30.57-84.15S208.62,378.63,210.5,426.06Z" fill="#d7d7d7"/><path d="M245.28,255.34c0,17.94-2.68,33.11-7.61,45.38-9.86,24.53-28.75,37.4-53.36,37.4S140.8,325.25,131,300.7c-4.93-12.26-7.6-27.43-7.6-45.36a164.2,164.2,0,0,1,.79-16.41q.54-5.56,1.46-10.81c3.39-19.55,10.56-35.71,20.69-47a55.13,55.13,0,0,1,11.12-9.55,48.68,48.68,0,0,1,26.9-7.87,49.79,49.79,0,0,1,6.51.42,47.74,47.74,0,0,1,15.05,4.44c16.62,8,28.86,25.61,35,49.38.76,2.93,1.42,5.95,2,9.06A159,159,0,0,1,245.28,255.34Z" fill="#f4f4f4"/><path d="M237.67,300.72c-9.85,24.53-28.75,37.4-53.36,37.4S140.81,325.25,131,300.7c1.06-1,2.15-2,3.27-2.92a71.19,71.19,0,0,1,14.66-9.55,79.69,79.69,0,0,1,35.43-7.87c2.93,0,5.77.14,8.57.42a78.46,78.46,0,0,1,19.83,4.44A72,72,0,0,1,237.67,300.72Z" fill="#fad1d6"/><circle cx="162.81" cy="253.11" r="5.73" fill="#0b0b0b"/><circle cx="205.81" cy="253.11" r="5.73" fill="#0b0b0b"/><path d="M205.87,168.61,193.55,192l-2.73-27.81A47.74,47.74,0,0,1,205.87,168.61Z" fill="#0b0b0b"/><path d="M244.38,362.25l-22.74.93,17.73-14.78C241.2,352.74,242.87,357.37,244.38,362.25Z" fill="#0b0b0b"/><path d="M251.5,395H228.36l21.9-8Q251,390.92,251.5,395Z" fill="#0b0b0b"/><path d="M163.26,194.55l-17-13.38a54.91,54.91,0,0,1,11.13-9.55Z" fill="#0b0b0b"/><path d="M246.19,227.05c.77,2.93,1.43,5.95,2,9.06l-26.55-1.2" fill="#0b0b0b"/><path d="M143.92,235.36l-19.78,3.57q.54-5.56,1.46-10.81Z" fill="#0b0b0b"/><circle cx="177.5" cy="296.49" r="2.42" fill="#0b0b0b"/><circle cx="191.13" cy="296.49" r="2.42" fill="#0b0b0b"/><path d="M1200,493.37H0V410.84c125.62-37.3,331.83-85.07,592.5-86,268.45-.93,480.44,48.24,607.5,86Z" fill="#105738"/><path d="M611,378.2c3.66,2.41,1.53,12.13-4.76,21.7s-14.37,15.39-18,13-1.53-12.13,4.76-21.7S607.35,375.8,611,378.2Z" fill="#0e8750"/><path d="M999,429.2c3.66,2.41,1.53,12.13-4.76,21.7s-14.37,15.39-18,13-1.53-12.13,4.76-21.7S995.35,426.8,999,429.2Z" fill="#0e8750"/><path d="M233.65,423.17c2.2-3.8,12-2.23,21.94,3.5s16.2,13.45,14,17.25-12,2.23-21.93-3.5S231.46,427,233.65,423.17Z" fill="#0e8750"/></svg>