<svg version="1.1" id="Layer_1" xmlns="http://www.w3.org/2000/svg" x="0" y="0" viewBox="0 0 1200 493.4" xml:space="preserve"><style>.st0{fill:#16c172}.st1{fill:#0e8750}.st2{fill:#41e799}.st3{fill:#f8cc13}.st4{fill:#f9ae1c}.st5{fill:#7b381e}.st6{fill:#0b0b0b}.st8{fill:#eb7e23}.st9{fill:#fbc597}.st12{fill:#e48d25}.st17{fill:#cb9866}.st18{fill:#7d4a1f}.st20{fill:#f4f4f4}</style><path class="st0" d="M144.3 207.9C131.7 51.3 47.8 79.7 33.5 216.3c6.1 153.3 109.3 131.6 110.8-8.4z"/><path class="st1" d="M116.2 234.1c-6.5 7.4-13.2 14.8-20.2 21.8 0-17.8-.1-35.4-.7-53.1 7.8-5.4 11.5-15.7 15.6-23.9 2.5-2.5 11.9-40.4 2.3-31.7-4.2 15.2-7.9 31-18.3 43.4-.8-13.4-2-26.9-3.7-40.2-1.1-3.9-1.6-13.7-4.9-15.5-3.8 7.5-3.3 17.1-4 25.5-1.4 18.8-1.5 37.6-1.4 56.4-5.5-5.4-10.5-11.3-14.7-17.8-11.9-5.4 11.8 26.5 14.7 27.9.1 24-.4 48.4-.9 72.4-8-7-13-16.4-16.1-26.5-.3-.8-1.6-.7-1.6.2 1 13.5 8 26.2 17.5 35.7-.6 21.4-1.2 42.9-2 64.3-.2 10.1-1.7 20.4.7 30.3 1.5 6.7 10.9 5.9 12.8 0 7-45.6 3.7-93.6 5.1-139.8 7.7-9.1 14.9-18.5 20.8-28.9-.2-.3-.7-.8-1-.5z"/><path class="st0" d="M1197.3 266.9c-15.4-159.5-94-129.8-110.8 8.4 6.2 153.5 109.3 131.6 110.8-8.4z"/><path class="st1" d="M1169.2 293.1c-6.5 7.4-13.2 14.8-20.2 21.8 0-17.8-.1-35.4-.7-53.1 7.8-5.4 11.5-15.7 15.6-23.9 2.5-2.5 11.9-40.4 2.3-31.7-4.2 15.2-7.9 31-18.3 43.5-.8-13.4-2-26.9-3.7-40.2-1.1-3.9-1.6-13.7-4.9-15.5-3.8 7.5-3.3 17.1-4 25.5-1.4 18.8-1.5 37.6-1.4 56.4-5.5-5.4-10.5-11.4-14.7-17.8-11.9-5.4 11.8 26.5 14.7 27.9.1 24-.4 48.4-.9 72.4-8-7-13-16.4-16.1-26.5-.3-.8-1.6-.7-1.6.2 1 13.5 8 26.2 17.5 35.7-.6 21.4-1.2 42.9-2 64.3-.2 10.1-1.7 20.4.7 30.3 1.5 6.7 10.9 5.9 12.8 0 7-45.7 3.7-93.5 5.1-139.8 7.7-9.1 14.9-18.5 20.8-28.9-.1-.4-.7-.9-1-.6z"/><path class="st2" d="M556.4 295.4c-3.7-45.5-28-36.5-31.9 2.4 1 43.6 32.3 37 31.9-2.4z"/><path class="st0" d="M548.3 303c-14.8 15.8 1.2-18.6-.3-25.4-2.2 3.8-2.3 9.4-5.8 12.9-1.4-26.2-5.2-7.2-4 7.6-8.5-10.7-5-2.1-.1 2.9-.3 7.4 1.8 30.1-4.9 13.2 4.8 11.1 4.5 24.4 4.1 37.5 10.1 5.3.2-44.4 11-48.7zm135-8.6c-3.7-45.5-28-36.5-31.9 2.4 1 43.6 32.2 37 31.9-2.4z"/><path class="st1" d="M675.2 302c-14.8 15.8 1.2-18.6-.3-25.4-2.2 3.8-2.3 9.4-5.8 12.9-1.4-26.2-5.2-7.2-4 7.6-8.5-10.7-5-2.1-.1 2.9-.3 7.4 1.8 30.1-4.9 13.2 4.8 11 4.5 24.7 4.2 37.6 12.1-1.1-1.9-39.8 10.9-48.8z"/><path class="st0" d="M520.3 300.4c-3.7-45.5-27.9-36.5-31.9 2.4 1 43.6 32.2 37 31.9-2.4z"/><path class="st1" d="M512.2 308c-18.4 21.2 11.7-48.2-6.1-12.5-1.4-26.2-5.2-7.2-4 7.6-1.1-.4-5.1-7.6-5.2-4.6 1 3.2 4.2 5.4 5.2 8.3-.4 7.9 1.8 28.5-5 12.6 5.6 11.3 3.9 25 4.5 37.7 9.3 4 .4-45.2 10.6-49.1z"/><path class="st2" d="M720.4 301.4c-15.6-95.5-55 46.3-10.5 31.5 6.9-9.1 10.6-20.1 10.5-31.5z"/><path class="st0" d="M712.3 309c-14.8 15.8 1.2-18.6-.3-25.4-2.2 3.8-2.3 9.4-5.8 12.9-1.4-26.2-5.2-7.2-4 7.6-8.5-10.7-5-2.1-.1 2.9-.3 7.4 1.8 30.1-4.9 13.2 4.8 11.1 4.5 24.4 4.1 37.5 10.1 5.3.2-44.4 11-48.7z"/><path class="st3" d="M648.9 356.4h-90.2c6.3-63.3 13.5-136.2 19.8-199.7h45.2c8.3 65.3 17 134.5 25.2 199.7z"/><path class="st4" d="M586.5 9.6h4.5v59.7h-4.5V9.6z"/><path class="st5" d="M588.8.1c7.6-.1 7.6 11.9 0 11.8-7.7.1-7.7-11.9 0-11.8z"/><path class="st4" d="M613.9 9.5h4.5v52.6h-4.5V9.5z"/><path class="st5" d="M616.2 0c7.6-.1 7.6 11.9 0 11.8-7.7.1-7.7-11.9 0-11.8zm21.4 266.5c-11.6-7-13.7-23.6-4.2-33.3l4.2 33.3zm-63.2 28.7c0 8-4.4 15.3-11.5 19l3.5-35.8c5.1 4.2 8 10.4 8 16.8zm26.3 39.7c11.9-.2 11.9 18.6 0 18.4-12 .2-12-18.6 0-18.4z"/><path class="st4" d="M517.3 19.2c10.1-9.6 57.4 50.9 45.6 58.4-10.2 9.6-57.4-50.9-45.6-58.4zm134.1 22.5c30-38.2 46.8-25.1 17 13.3-30 38.2-46.8 25.1-17-13.3z"/><path class="st3" d="M668.5 127c-.1 35-12.4 69-46.3 80.3-52.9 14-83.1-29.6-83-78.2C537.1 8.8 668 5.5 668.5 127z"/><path class="st5" d="M659.9 171.9c-19.6 50.4-92.6 50.4-112.2 0 29.4-21.3 82.8-21.3 112.2 0zm-91.3-75.3c-32.4 25.5-27.5-17.7-10.9-34.5 12.5 10.6 17.3 25.4 10.9 34.5zm93.7-9.8c-22.9 3.5-40-20.5-28.3-40.5 12.7 8.7 22.5 22.9 28.3 40.5zm-120.2 67.7c-2.4-10.6-3.2-21.4-2.8-32.2 8.1 8.7 8.6 21.8 2.8 32.2z"/><path class="st6" d="M626.7 135c2.2-5.5 10.7-1.9 8.4 3.5-2.2 5.4-10.7 1.9-8.4-3.5zm-50-2.8c5.9-.1 5.9 9.1 0 9-5.8.1-5.8-9.1 0-9zm18.7 36.6c1.1-2.7 5.3-1 4.2 1.7-1.1 2.7-5.4 1-4.2-1.7zm14.3-1.3c2.8-.7 3.9 3.8 1 4.4-2.9.7-3.9-3.8-1-4.4z"/><path d="M592.4 180.2s10.1 12 22.9 0" fill="none" stroke="#0b0b0b" stroke-width="6.2" stroke-miterlimit="10"/><path class="st8" d="M874.6 376.1H728.8c8.3-40.4 17.6-86.1 25.9-126.3h87.2c10.6 41 22 85.1 32.7 126.3z"/><path class="st6" d="m778.9 280.8-32.5 9.2c.9-4.2 2.6-12.8 3.5-17l29 7.8zm-13.1 43.3-28 8.1c.8-3.9 2.3-11.1 3.1-14.9l24.9 6.8zm86.4-34.2-33.5-9.2 29.2-7.6c1.3 5.1 3 11.7 4.3 16.8zm10.6 40.5L841 324l18.8-5.2c.7 2.9 2.2 8.8 3 11.6z"/><path class="st9" d="M847.8 360.4c0 5.4-1 10.7-3.1 15.7h-86C736 310.8 845 293 847.8 360.4z"/><path d="M758.1 152.6c-15.5 10.9-45.5-24.8-25.5-36.4 18.4-12.9 36.5 24.2 25.5 36.4zm76.3 0c15.5 10.9 45.4-24.8 25.5-36.4-18.4-13-36.4 24.2-25.5 36.4z" fill="#c56128"/><path class="st8" d="M867 206.4c.5 44.4-23.2 59.7-70.8 56.8-52.2 3.7-73.5-16-70.6-64.3C731.8 85.4 869.4 95 867 206.4z"/><path class="st6" d="M823.2 174.6c.9-6 10.3-4.5 9.3 1.5-.9 6-10.4 4.5-9.3-1.5zm-57.5-3.8c5.9-1.5 8.1 7.8 2.2 9.1-5.9 1.5-8.1-7.8-2.2-9.1zm-18.3 29.5-20.7 22.3c-.9-5-1.2-10.1-1.3-15.4l22-6.9zm2.8 28.3-9.2 23.2c-2.9-2.7-5.4-5.9-7.4-9.3l16.6-13.9zM867 205.8l-24.7-15.7 23.7.2c.7 5.2 1.1 10.4 1 15.5zm-1.3 17.5c-.7 4.2-1.9 8.3-3.4 12.3l-12.7-21.9 16.1 9.6z"/><path d="M796.2 199.9c2.3 6.3-7 34.2 11 22.8m-11-22.8c-2.3 6.3 7.1 34.2-11 22.8" fill="none" stroke="#0f0f10" stroke-width="9.06" stroke-miterlimit="10"/><path class="st9" d="M810.8 207.6c-15.1 9.4-13.6 9.8-29.1.7l8.5-90.4c4.7-.4 9.5-.3 14.2.2l6.4 89.5z"/><path class="st6" d="M810.8 208.3c-14.1 8.4-14.6 8.7-29.1.6l1.9-18.5h25.8l1.4 17.9z"/><path class="st4" d="M461.8 376.1H338.7L366.1 234H437l24.8 142.1z"/><path class="st12" d="m338.7 132.5-16.6 16.6c-5.9-8.8-36.8-26.7-23-39.6 12.8-13.8 30.9 17.1 39.6 23zm122.6-5.6 16.6 16.6c5.9-8.8 36.8-26.7 23-39.6-12.8-13.8-30.9 17.2-39.6 23z"/><path d="M402.5 83.5c132.8 2.2 132.8 178.9 0 181.1-132.8-2.2-132.8-179 0-181.1z" fill="#e67925"/><path class="st4" d="M465.8 178.2c3.3 82.2-129.8 82.2-126.5 0-5.3-74.4 131.8-74.4 126.5 0z"/><path class="st12" d="M438.1 358.1c0 6-.6 12.1-1.7 18h-72.3c-15.7-82.3 68.7-116.7 74-18z"/><path class="st6" d="M371.4 177.3c5.3-.1 5.3 8.3 0 8.2-5.4.1-5.4-8.3 0-8.2zm60 0c5.3-.1 5.3 8.3 0 8.2-5.3.1-5.3-8.3 0-8.2z"/><path class="st12" d="M410.3 191.3c-4.9 4.2-12.1 4.4-17.2.5.6-9.2 4.3-58.7 5-68.9 2.8-.3 5.6-.3 8.4.1.5 10.1 3.1 59.3 3.8 68.3z"/><path d="M401.4 192.4c-.2 4.7-.3 11 9.3 5.5m-9.3-5.5c.2 4.7.3 11-9.3 5.5" fill="none" stroke="#0f0f10" stroke-width="7.54" stroke-miterlimit="10"/><path d="M410.5 192.1c-5.4 3.2-12.2 3.3-17.8.4l1.1-10.9c5.2-1.1 10.7-1.1 15.9.1l.8 10.4z" fill="#56371c"/><path d="m416.8 123.6 4.8-38.3m-37.5 152.9-3.3 24.1m39.4-24.1 7.1 23.4m26.7-44.3 31.5 2.7m-20.1-34.2 37.6-2.5m-37.2-19.2 32.7-15m-48.3-11.2 25.6-25.3m-136.3 71.6-37.1 1.3m38-20.4-33.2-20.5m44.4 72.9-29.5 10.4m32.8-90-25.6-25.3m59.5 11L375.5 87" fill="none" stroke="#a95b26" stroke-width="9.42" stroke-miterlimit="10"/><path class="st17" d="M980.1 150.1c-3.8-1.3-5.6 6.1-7.2 8.1-2.9 4.8-6.6-36.6-7.4-36.2-.6-4.8-8.2-4-7.5.9.8 6.3 3.7 11.5-5.2 7.7-11.8 2.7 3.5 8.4 7.8 8.7l8.6 54.4 7.4-1.2-3.5-21.8c.4-3.1 14.1-18.7 7-20.6zm33.9 4c4.3-1.5 6.3 6.8 8.1 9.2 3.1 5.7 7.5-41.4 8.3-40.7.7-5.5 9.2-4.5 8.4 1 .4 1-3.2 11.1-.2 10.3 16.2-5.3 13.3 6.5-2.7 8.1l-9.7 61.3-8.3-1.3 3.9-24.5c-.3-3.6-15.6-21.1-7.8-23.4z"/><path class="st18" d="M1036.9 219.7c26 18 15.1 23 34.9-1.9 11.3-14.6-10.9-31.9-22.3-17.3-.2 1.6-16 17.5-12.6 19.2z"/><path class="st17" d="M1042.3 221.7c17.3 13.2 8.8 11.5 25.6-7.8 6.8-8.5-6.7-19-13.2-10.3-.1 1.1-15.3 17.2-12.4 18.1z"/><path class="st18" d="M961.8 219.7c-26 18-15.1 23-34.9-1.9-11.2-14.6 10.8-31.8 22.2-17.3.4 1.6 16.1 17.5 12.7 19.2z"/><path class="st17" d="M956.4 221.7c-17.3 13.2-8.8 11.5-25.6-7.8-6.8-8.5 6.7-19 13.2-10.3.1 1.1 15.3 17.2 12.4 18.1z"/><path class="st18" d="M1092.6 426.1H907.4l24.9-185.8c3.5-36.1 36.6-60.5 72.1-57.1 32.7 0 60 24.7 63.4 57.1l24.8 185.8z"/><path class="st17" d="M1068.9 426.1H929.2c-4.4-103.4 144.1-103 139.7 0z"/><path class="st6" d="M970.7 246.1c4.2-.1 4.2 6.6 0 6.5-4.3.1-4.3-6.5 0-6.5zm55.6 2.4c1.2-4 7.6-2 6.2 2-1.2 4-7.5 2-6.2-2z"/><path class="st17" d="M1024.6 303.2c.3 34.4-49.5 34.4-49.2 0 3.9-50.4 45.3-50.3 49.2 0z"/><path class="st6" d="M990.9 282.5h16.3s-6.7 22.6-16.3 0z"/><path d="M999 287.8c1.6 4.5-5 24.4 7.8 16.3m-7.8-16.3c-1.6 4.5 5.1 24.4-7.8 16.3" fill="none" stroke="#0f0f10" stroke-width="8.27" stroke-miterlimit="10"/><path class="st6" d="M276.5 235.9H260l16.4 3c-1.6 32.2-10.9 72-33.9 118.1-39.4-16-50.7-60.2-65.8-95.7V108.4s36.4-2.1 61 14.5c-5.5 30-7.6 43-7.6 43l19.6-31.8s16.9 20.4 23.9 59.6l-19.9 10.7 21.1-3.3c1.6 11.4 2.2 23.1 1.7 34.8z"/><path class="st20" d="M253.8 426.1H142.9c10.1-175.8 111.3-133.9 110.9 0z"/><path d="M210.5 426.1h-61.1c3.9-110.2 57.2-110.2 61.1 0z" fill="#d7d7d7"/><path class="st20" d="M245.3 255.3c0 17.9-2.7 33.1-7.6 45.4-17.3 49.8-89.4 49.8-106.7 0-6.7-15.7-9-41.4-6.8-61.8 12.6-113.8 125.2-90.9 121.1 16.4z"/><path d="M237.7 300.7c-17.3 49.8-89.4 49.8-106.7 0 28.4-27.2 78.4-27.3 106.7 0z" fill="#fad1d6"/><path class="st6" d="M162.8 247.4c7.4-.1 7.4 11.6 0 11.5-7.4 0-7.4-11.6 0-11.5zm43 0c7.4-.1 7.4 11.6 0 11.5-7.4 0-7.4-11.6 0-11.5zm.1-78.8L193.6 192l-2.7-27.8c5.1.6 10.2 2.1 15 4.4zm38.5 193.6-22.7.9c12.6-7.3 17.3-25.2 22.7-.9zm7.1 32.8h-23.1l21.9-8c.5 2.6.9 5.3 1.2 8zm-88.2-200.4c-9.7-9.8-25.8-11.3-5.9-22.9 0-.1 5.9 22.9 5.9 22.9zm82.9 32.5c.8 2.9 1.4 5.9 2 9.1l-26.6-1.2m-77.7.4-19.8 3.6c-.6-18.8 9.8-5.6 19.8-3.6zm33.6 58.7c3.1 0 3.1 4.9 0 4.8-3.1.1-3.1-4.9 0-4.8zm13.6 0c3.1 0 3.1 4.9 0 4.8-3.1.1-3.1-4.9 0-4.8z"/><path d="M1200 493.4H0v-82.5c234.1-106.6 970.6-105.1 1200 0v82.5z" fill="#105738"/><path class="st1" d="M611 378.2c8.8 5.4-14.4 40.6-22.8 34.7-8.7-5.4 14.4-40.6 22.8-34.7zm388 51c8.8 5.4-14.4 40.6-22.8 34.7-8.7-5.4 14.4-40.6 22.8-34.7zm-765.3-6c4.9-9.1 41.4 12 35.9 20.8-4.9 9-41.4-12.1-35.9-20.8z"/></svg>