<svg xmlns="http://www.w3.org/2000/svg" viewBox="0 0 1700.8 1700.8" xml:space="preserve"><circle fill="#EB7700" cx="849" cy="850.1" r="704.1"/><circle fill="#FACA56" cx="807" cy="841.1" r="662.2"/><path fill="#261539" d="M1469.1 841.1h-12.8c0 179.4-72.7 341.6-190.3 459.2-117.6 117.6-279.8 190.3-459.1 190.3s-341.6-72.7-459.2-190.3c-117.4-117.5-190.1-279.8-190.1-459.2S230.3 499.5 347.9 382s279.8-190.2 459.2-190.3c179.4 0 341.6 72.7 459.2 190.3 117.6 117.6 190.2 279.9 190.3 459.2h25.5c0-186.4-75.6-355.2-197.7-477.3-122.2-122.2-291-197.8-477.3-197.8-372.8 0-675.1 302.2-675.1 675 0 186.4 75.6 355.2 197.7 477.3 122.1 122.2 291 197.8 477.4 197.7 186.4 0 355.2-75.6 477.3-197.7s197.7-291 197.7-477.3h-13z"/><path fill="#261539" d="M1093.9 1078.5c0 91.5-123.7 244.9-286.8 244.9S503.4 1170 503.4 1078.5c0-61.8 123.5 28.8 295.3 28.8 200.6 0 295.2-83.4 295.2-28.8z"/><path fill="#F56565" d="M806.4 1291.7c50.9 0 87.2-14 122.9-35.4-13.2-21.2-53.2-68.6-130.8-30.1 0 0-52.5-31-88.3-6.5-16.2 11-27.4 23.6-34.8 34 38.9 23 76.2 38.1 131 38z"/><path fill="#FFF" d="M500 364.8c-8 11.5-24.2 10-30.5-1-6.4-10.9-.4-27.8 13-35.4 13.3-7.6 27.5-2.9 32.2 8.3 4.9 11.1-5.8 15.4-14.7 28.1zm-70.5 13.5c1.3-.1-44.8 20.3-78.2 61.8-34.6 38.7-56.5 98.3-34.5 113 18.1 12.7 31.4-21.1 52.2-57.9 19.7-37.6 46.6-78.1 69.2-98.5 10.6-9.8 3.3-24.2-8.7-18.4z"/><path fill="#F56565" d="M726.7 748.7c18.6-20.8 29.9-48.3 29.9-78.3 0-64.9-52.5-117.4-117.4-117.4-39 0-73.5 19-94.9 48.4-21.4-29.3-56-48.4-94.9-48.4-64.9 0-117.4 52.7-117.4 117.5 0 36.8 16.9 69.6 43.4 91.1l170.8 136.5 165.7-135.5c5.3-4.2 10.2-8.7 14.8-13.9z"/><path fill="#261539" d="m726.7 748.7 9.5 8.5c20.7-23.1 33.3-53.5 33.3-86.8 0-35.9-14.6-68.6-38.1-92.1s-56.1-38.1-92.1-38.1c-43.2 0-81.6 21.1-105.3 53.5l10.4 7.5 10.4-7.5c-23.6-32.4-62-53.5-105.3-53.5-35.9 0-68.6 14.6-92.1 38.1s-38.1 56.1-38.1 92.1c0 40.8 18.8 77.2 48.2 101.1l.1.1 170.8 136.5c4.8 3.8 11.5 3.8 16.1-.1L720 772.6l-8.1-9.9 8 10.1c5.9-4.7 11.4-9.8 16.4-15.4l-9.6-8.7 5.7 11.5c1.4-.7 2.8-1.7 3.8-2.9l-9.5-8.6-5.7-11.5c-1.4.7-2.8 1.7-3.8 2.9-4 4.6-8.5 8.6-13.2 12.4l-.2.2-157.6 129-162.8-130.1.1.1c-23.6-19.3-38.7-48.4-38.7-81.2 0-28.9 11.7-55 30.6-74 19-19 45-30.6 74-30.6 34.8 0 65.5 16.9 84.5 43 2.4 3.3 6.3 5.2 10.4 5.2 4.1 0 8-2 10.4-5.2 19.1-26.1 49.8-43 84.5-43 28.9 0 55 11.7 73.9 30.6 19 19 30.6 45 30.6 74 0 26.9-10.1 51.2-26.7 69.7l9.7 8.5-5.7-11.5 5.7 11.5z"/><path fill="#F56565" d="M1256.2 748.7c18.6-20.8 29.9-48.3 29.9-78.3 0-64.9-52.5-117.4-117.4-117.4-39 0-73.5 19-94.9 48.4-21.4-29.3-56-48.4-94.9-48.4-64.9 0-117.4 52.6-117.4 117.4 0 36.8 16.9 69.6 43.4 91.1l170.8 136.6 165.6-135.5c5.4-4.2 10.4-8.7 14.9-13.9z"/><path fill="#261539" d="m1256.2 748.7 9.5 8.5c20.6-23 33.3-53.5 33.3-86.8 0-35.9-14.6-68.6-38.1-92.1s-56.1-38.1-92.1-38.1c-43.2 0-81.6 21.1-105.3 53.5l10.4 7.5 10.4-7.5c-23.6-32.4-62-53.5-105.3-53.5-35.9 0-68.6 14.6-92.1 38.1s-38.1 56.1-38.1 92.1c0 40.8 18.8 77.2 48.2 101.1l.1.1 170.8 136.5c4.7 3.8 11.5 3.8 16.1-.1l165.6-135.5-8.2-9.9 8 10.1c5.9-4.7 11.5-9.8 16.4-15.4l-9.6-8.6 5.7 11.5c1.4-.7 2.8-1.7 3.9-2.9l-9.6-8.6-5.7-11.5c-1.4.7-2.8 1.7-3.8 2.9-4 4.6-8.5 8.6-13.2 12.4l-.2.2-157.6 129-162.8-130.1.1.1c-23.6-19.3-38.7-48.4-38.7-81.2 0-28.9 11.7-55 30.6-74 19-19 45-30.6 73.9-30.6 34.8 0 65.5 16.9 84.5 43 2.4 3.3 6.3 5.2 10.4 5.2s8-2 10.4-5.2c19.1-26.1 49.8-43 84.6-43 28.9 0 55 11.7 73.9 30.6 19 19 30.6 45 30.6 74 0 26.9-10.1 51.2-26.7 69.7l9.7 8.5-5.7-11.5 5.7 11.5z"/></svg>