<svg version="1.1" id="Layer_1" xmlns="http://www.w3.org/2000/svg" x="0" y="0" viewBox="0 0 1700.8 1700.8" xml:space="preserve"><style>.st2{fill:#261539}.st3{fill:#f56565}</style><path d="M849 146c925.5 15.8 925.4 1392.5 0 1408.2C-76.5 1538.4-76.4 161.7 849 146z" fill="#eb7700"/><path d="M807 178.9c870.5 14.9 870.3 1309.7 0 1324.4-870.5-14.9-870.3-1309.7 0-1324.4z" fill="#faca56"/><path class="st2" d="M1469.1 841.1h-12.8c-26.7 858.4-1272.2 858.4-1298.7 0 26.8-858.3 1272.4-858.1 1299 .1h25.5C1459.5-49.1 154.5-49 132 841.1c16.1 910 1368.5 867.1 1337.1 0z"/><path class="st2" d="M1093.9 1078.5c-51.6 328.9-534.1 309.1-590.5 0 0-61.8 123.5 28.8 295.3 28.8 200.6 0 295.2-83.4 295.2-28.8z"/><path class="st3" d="M806.4 1291.7c50.9 0 87.2-14 122.9-35.4-13.2-21.2-53.2-68.6-130.8-30.1-33-19.3-84.8-30.3-123.1 27.5 38.9 23 76.2 38.1 131 38z"/><path d="M500 364.8c-25.7 26.6-49.4-18.2-17.5-36.4 13.3-7.6 27.5-2.9 32.2 8.3 4.9 11.1-5.8 15.4-14.7 28.1zm-70.5 13.5C265.3 459.4 294.1 654.2 369 495.2c19.7-37.6 46.6-78.1 69.2-98.5 10.6-9.8 3.3-24.2-8.7-18.4z" fill="#fff"/><path class="st3" d="M726.7 748.7c104.6-124.9-83-275.6-182.4-147.3-109.3-137.2-299.9 44-168.9 160.2l170.8 136.5c6.4-6 181.6-146.6 180.5-149.4z"/><path class="st2" d="m726.7 748.7 9.5 8.5C851.9 617.8 645.5 452.1 534 593.7l10.4 7.5 10.4-7.5c-122.9-151.1-332.1 47-187.3 177.8 224.8 171.1 129 179.3 352.5 1.1l-8.1-9.9 8 10.1c5.9-4.7 11.4-9.8 16.4-15.4l-9.6-8.7 5.7 11.5c1.4-.7 2.8-1.7 3.8-2.9-10.4-9.2-9.2-7.6-15.2-20.1-5.7 7-164 135.5-174.8 144.5L383.4 751.6l.1.1c-118.8-117.2 59.6-260.6 160.8-137.6 94.2-115.7 266.2 3.8 172.7 126.1l9.7 8.5-5.7-11.5 5.7 11.5z"/><path class="st3" d="M1256.2 748.7c104.6-124.9-83-275.6-182.4-147.3-109.3-137.1-299.9 43.9-168.9 160.1l170.8 136.6c7.9-7.4 179.7-144.9 180.5-149.4z"/><path class="st2" d="m1256.2 748.7 9.5 8.5c115.6-139.4-90.6-305.1-202.2-163.5l10.4 7.5 10.4-7.5c-122.9-151.1-332.1 47-187.3 177.8 224.9 171.3 129.1 179.2 352.6 1l-8.2-9.9 8 10.1c5.9-4.7 11.5-9.8 16.4-15.4l-9.6-8.6 5.7 11.5c1.4-.7 2.8-1.7 3.9-2.9-10.5-9.2-9.3-7.5-15.3-20.1-5.7 7-164 135.5-174.8 144.5L912.9 751.6l.1.1c-118.8-117.2 59.5-260.6 160.7-137.6 94.2-115.7 266.3 3.7 172.8 126.1l9.7 8.5-5.7-11.5 5.7 11.5z"/></svg>