<svg version="1.1" id="Layer_1" xmlns="http://www.w3.org/2000/svg" x="0" y="0" viewBox="0 0 1700.8 1700.8" xml:space="preserve"><style>.st2{fill:#261539}</style><path d="M1673.5 683.2c-12-103.1-438.8-98.3-503.8-125.9-279.1-608.7-294.1-657.1-550.8.1-644.3 77.9-642.8 84.2-170.2 523.9 13.8 91.6-179 538.6 18.9 536 20.8 13.8 402-204 426.7-212.1 567 315.7 569.5 309.7 445.6-323.8 37.9-62.2 383.4-306.2 333.6-398.2z" fill="#eb7700"/><path d="m773.4 87.9 232.1 470.5 519.1 75.4L1149 999.9l88.6 517.1-464.2-244.1L309 1517l88.7-517.1L22.1 633.8l519.1-75.4L773.4 87.9z" fill="#faca56"/><path class="st2" d="M773.4 87.9 760 94.5c260.1 526.1 134.3 478.6 732.5 549.8-420.1 398.9-379.2 277.2-274.7 845.3-501.6-274.8-388.5-273.5-888.9 0 105.5-569.7 143.9-447.1-274.6-845.3 599.6-70.9 472.9-25.7 732.5-549.7l-13.4-6.7-13.4 6.6 13.4-6.6-13.4-6.6-228.8 463.4C-136.2 652.6-91 527.9 381.6 1005.2c-103.7 668.2-208.2 586.5 391.8 284.6 603.3 304.9 493.6 379.4 391.8-284.6 476.3-479.5 513.4-352.2-149.6-460.5-17.7-.9-220.5-522.5-255.6-463.4l13.4 6.6z"/><path class="st2" d="M1254.6 571.6c-204.1-13.3-203-8.5-330.4 146.1 2.5-24.5-18.7-47.5-43.4-47H828c6.6-40 27.7-99-33.6-104.7C689 568.8 643 537.7 634.2 670.6h-21.9c6.7-39.9 27.9-99.1-33.5-104.6-105.3 2.9-151.9-28.6-160.2 104.6-34.8 2.7-103.3-14.4-111 36.2-1.2 40-51.2 155.3 24.8 156.3h51.9l-4.2 23.5c-34.5 2.7-102.2-14.2-110.2 35.7-1.6 40.1-53 155.5 23.6 156.8h52.8c-9.5 34.6-16.2 93.6 35.5 94 91.2-3.9 154 29.5 158.4-94.1h22c-9.5 34.6-16.2 93.6 35.5 94 91.2-3.8 153.7 29.3 158.1-94.1 34.7-2.8 102.9 14.4 111-35.9 1.5-40.1 52.5-155.5-24-156.6H790l4-23.5c24.3-2.7 85.4 9.4 101.8-15.2 40.8 27.8 75.2 78.1 124.7 80 .6 281.5-59 244.7 229.5 245.3 23.8 0 43.3-19.2 43.5-43-20.9-92.3 55.9-533.2-38.9-558.4z"/><path d="M338.3 1080.3h105.5l16.2-94.1h110.4l-16.2 94.1h105.1l16.2-94.1h104.8l18.9-105.4H694.8l19.1-110.6h105.3l18.1-105.4H732.7l18-104.7H645.6l-18.4 104.7H516.9l18.4-104.7H429.7l-18 104.7H306.9l-18.1 105.4h104L373 880.9H269.2L250 986.3h104.5l-16.2 94zm159.6-310h110.4l-19.8 110.6H478.9l19-110.6zm526.9 5.4c-5.2 98.5-7.7 200.1-7.5 304.6h189.1c1.9-162.2 3-333.7 3.2-514.6-64.6-2.2-124-2.5-178.2-1l-166.7 187c34.9 31.1 70.1 59 105.5 83.9l54.6-59.9z" fill="#16c172"/><path d="M1108.9 817c10.4 30.4-44.8 32.4-44.6.1 2.2-29.3 39.4-33.3 44.6-.1zm-34.3 41.4s-43.3 164 6.3 160.7c35.1 24.7 32.9-205.1-6.3-160.7zm-650.4-34.2c-7.6-31.2 47.4-28.3 44.3 3.9-4.9 28.9-42.1 29.8-44.3-3.9zm37.8-38c77.4-149.6-40.5-258-21.2-3.5 0 12.7 17.3 14.7 21.2 3.5z" fill="#fff"/></svg>