<svg xmlns="http://www.w3.org/2000/svg" viewBox="0 0 1700.8 1700.8" xml:space="preserve"><path fill="#EB7700" d="M1673.5 683.2c-11-33.8-40.2-58.5-75.4-63.6l-428.4-62.3L966 135.1C950.3 103.2 917.8 83 882.2 83s-68.1 20.2-83.8 52.1L618.9 557.4l-428.4 62.3c-35.2 5.1-64.4 29.8-75.4 63.6s-1.8 71 23.6 95.8l310 302.2-73.2 426.7c-6 35 8.4 70.5 37.2 91.4 16.3 11.8 35.6 17.9 54.9 17.9 14.9 0 29.8-3.6 43.5-10.7l383.2-201.4 383.2 201.4c31.5 16.5 69.6 13.8 98.4-7.1s43.2-56.3 37.2-91.4l-73.2-426.7 310-302.2c25.4-25 34.6-62.1 23.6-96z"/><path fill="#FACA56" d="m773.4 87.9 232.1 470.5 519.1 75.4L1149 999.9l88.6 517.1-464.2-244.1L309 1517l88.7-517.1L22.1 633.8l519.1-75.4z"/><path fill="#261539" d="M773.4 87.9 760 94.5 992.1 565c2.2 4.4 6.4 7.5 11.3 8.2l489.1 71.1-353.9 345c-3.5 3.4-5.1 8.4-4.3 13.2l83.5 487.1-437.5-230c-4.3-2.3-9.6-2.3-13.9 0l-437.5 230 83.6-487.1c.8-4.8-.8-9.8-4.3-13.2l-353.9-345 489.1-71.1c4.9-.7 9.1-3.8 11.3-8.2L786.8 94.6l-13.4-6.7-13.4 6.6 13.4-6.6-13.4-6.6-228.8 463.4L19.9 619c-5.6.8-10.3 4.8-12.1 10.2s-.3 11.4 3.8 15.3l370 360.7-87.4 509.3c-1 5.6 1.4 11.3 6 14.6 4.6 3.3 10.7 3.8 15.8 1.1l457.4-240.4 457.3 240.4c5 2.6 11.2 2.2 15.8-1.1s6.9-9 6-14.6l-87.3-509.3 370-360.7c4.1-4 5.5-9.9 3.8-15.3-1.8-5.4-6.5-9.4-12.1-10.2l-511.3-74.3L786.8 81.3c-2.5-5.1-7.7-8.3-13.4-8.3s-10.9 3.3-13.4 8.3l13.4 6.6z"/><path fill="#261539" d="M1254.6 571.6c-38.2-1.3-75.1-1.9-109.7-1.9-24.5 0-48.5.3-71.3 1-12 .3-23.3 5.6-31.3 14.5L924.2 717.7c.9-11.4-2.7-22.7-10.1-31.5-8.3-9.8-20.4-15.5-33.3-15.5H828l9.3-53.7c2.2-12.7-1.4-25.6-9.6-35.5-8.3-9.8-20.5-15.5-33.3-15.5H689.2c-21.2 0-39.2 15.2-42.9 36l-12.1 68.6h-21.9l9.4-53.6c2.2-12.7-1.3-25.7-9.5-35.5-8.3-9.9-20.5-15.5-33.4-15.5H473.3c-21.2 0-39.3 15.3-42.9 36.1l-11.8 68.5h-68.1c-21.2 0-39.3 15.3-42.9 36.2l-18.1 105.4c-2.2 12.6 1.3 25.6 9.6 35.4 8.3 9.8 20.5 15.5 33.3 15.5h51.9l-4.2 23.5h-67.4c-21 0-39.1 15-42.8 35.7l-19.2 105.4c-2.3 12.7 1.1 25.8 9.4 35.7 8.3 9.9 20.5 15.7 33.4 15.7h52.8l-7.4 43.1c-2.2 12.6 1.3 25.6 9.6 35.4 8.3 9.8 20.5 15.5 33.3 15.5h105.5c21.2 0 39.3-15.3 42.9-36.2l10-57.9h22l-7.4 43.1c-2.2 12.6 1.3 25.6 9.6 35.4s20.5 15.5 33.3 15.5h105.2c21.2 0 39.3-15.3 42.9-36.2l10-57.9h68.1c21.1 0 39.1-15.1 42.9-35.9l18.9-105.4c2.3-12.7-1.2-25.7-9.5-35.6-8.3-9.9-20.5-15.6-33.4-15.6H790l4-23.5h68.7c13.1 0 25-5.8 33.1-15.2 30.7 26.4 61.9 50.8 92.9 72.6 9.6 6.7 21 9.1 31.8 7.4-2.2 66-3.2 133.5-3.1 201.8 0 24 19.5 43.5 43.5 43.5H1250c23.8 0 43.3-19.2 43.5-43 1.9-161.8 3-335.1 3.2-515.1 0-23.3-18.6-42.5-42.1-43.3z"/><path fill="#16C172" d="M338.3 1080.3h105.5l16.2-94.1h110.4l-16.2 94.1h105.1l16.2-94.1h104.8l18.9-105.4H694.8l19.1-110.6h105.3l18.1-105.4H732.7l18-104.7H645.6l-18.4 104.7H516.9l18.4-104.7H429.7l-18 104.7H306.9l-18.1 105.4h104L373 880.9H269.2L250 986.3h104.5l-16.2 94zm159.6-310h110.4l-19.8 110.6H478.9l19-110.6zm526.9 5.4c-5.2 98.5-7.7 200.1-7.5 304.6h189.1c1.9-162.2 3-333.7 3.2-514.6-64.6-2.2-124-2.5-178.2-1l-166.7 187c34.9 31.1 70.1 59 105.5 83.9l54.6-59.9z"/><path fill="#FFF" d="M1108.9 817c6.5 12-5.9 23.9-19.6 23.9-13.7.1-24.9-10.6-25-23.8s10.9-24 24.6-24.1c13.8 0 13 11 20 24zm-34.3 41.4s-43.3 164 6.3 160.7c41.9-2.8 20-106.8 15.2-159.1-1.2-12.7-18.6-13.2-21.5-1.6zm-650.4-34.2c-5.4-12.6 8-23.2 21.6-22.1 13.6 1.2 23.8 12.8 22.7 26-1.1 13.2-13.1 22.9-26.7 21.8s-11.8-12-17.6-25.7zm37.8-38s57.8-159.4 8.2-160.6c-42-1-29.5 104.5-29.4 157.1 0 12.7 17.3 14.7 21.2 3.5z"/></svg>