<svg xmlns="http://www.w3.org/2000/svg" viewBox="0 0 1700.8 1700.8" xml:space="preserve"><path fill="#C53030" d="M1442.4 636.6c-31.8-123.4-144.3-213.9-275.9-213.9-26.6 0-52.9 3.7-78.3 11-48.9-90.4-144.3-149.3-250.7-149.3-103.7 0-198.6 57.5-248.4 145.4-20.7-4.7-42-7.1-63.7-7.1-140.9 0-258.3 102.8-281 237.4C127.6 696.7 44.6 806 44.6 932.1c0 127.3 84.5 237.4 203 272.9 29.1 127.2 143.2 221.2 277.8 221.2 44.7 0 87.7-10.1 126.8-29.6 51.2 44 116.4 68.5 185.3 68.5 69.3 0 134.7-24.7 186-69 39.3 19.9 82.7 30.2 127.9 30.2 137.3 0 252.3-97.6 279.1-227.1C1569 1179.9 1676 1060.7 1676 917c-.2-139.6-101-256-233.6-280.4z"/><path fill="#F56565" d="M1347.3 674.8h-.6c-8-120.2-108-215.3-230.3-215.3-41.9 0-81.1 11.2-115 30.7-25.7-99.5-116.1-173.1-223.6-173.1-104.6 0-192.9 69.6-221.3 165-30.2-14.5-64.1-22.6-99.8-22.6-127.5 0-230.9 103.4-230.9 230.9v1.9c-113.7 14.4-201.6 111.4-201.6 229 0 117.7 88.1 214.8 202 229 7.1 121.1 107.5 217.1 230.4 217.1 52.8 0 101.4-17.7 140.2-47.5 42.3 53.3 107.6 87.5 180.9 87.5 73.7 0 139.3-34.6 181.6-88.4 39.1 30.3 88.1 48.4 141.4 48.4 127.5 0 230.9-103.4 230.9-230.9v-.6c5.2.3 10.4.6 15.6.6 127.5 0 230.9-103.4 230.9-230.9.1-127.4-103.2-230.8-230.8-230.8z"/><path fill="#261539" d="M1347.3 674.8v-15h-.6v15l14.9-1c-4.3-64-33.1-121.4-77-162.6-43.9-41.3-103.2-66.6-168.3-66.6-44.6 0-86.4 12-122.5 32.7l7.5 13 14.5-3.7c-13.7-53-44.6-99.1-86.4-131.9-41.8-32.8-94.6-52.4-151.8-52.4-55.6 0-107.1 18.5-148.3 49.8-41.2 31.2-72.2 75.1-87.4 125.9l14.3 4.3 6.5-13.5c-32.2-15.4-68.2-24.1-106.3-24.1-67.8 0-129.4 27.6-173.8 72-44.5 44.5-72 106-72 173.9v2.4l15-.4-1.9-14.8c-60.5 7.7-114.2 37.4-152.7 80.7C32.8 801.6 9.3 858.8 9.3 921.4s23.5 119.9 62.1 163.3 92.4 73 153 80.6l1.9-14.8-14.9.9c3.8 64.5 32.4 122.3 76.5 164 44 41.7 103.5 67.3 168.9 67.3 56.1 0 108-18.9 149.4-50.6L597 1320l-11.7 9.3c45 56.7 114.6 93.1 192.6 93.1 78.5 0 148.4-36.9 193.4-94.1l-11.8-9.2-9.2 11.8c41.6 32.3 93.9 51.6 150.6 51.6 67.8 0 129.4-27.5 173.9-72s72-106 72-173.9v-.6h-15l-1 14.9c5.3.4 10.9.6 16.6.6 67.9 0 129.4-27.5 173.9-72 44.5-44.4 72-106 72-173.8 0-67.9-27.5-129.4-72-173.9-44.4-44.5-106-72-173.9-72l-.1 15 .1 15c59.7 0 113.6 24.1 152.7 63.2 39.1 39.1 63.2 93 63.3 152.7 0 59.7-24.1 113.6-63.3 152.7-39.1 39.1-93 63.2-152.7 63.2-4.8 0-9.7-.2-14.6-.6-4.2-.3-8.2 1.2-11.2 4s-4.7 6.8-4.7 10.9v.6c0 59.7-24.1 113.6-63.2 152.7s-93 63.2-152.7 63.3c-49.9 0-95.6-16.9-132.2-45.3-6.5-5-15.9-3.9-20.9 2.6-39.6 50.3-100.9 82.6-169.8 82.7-68.6 0-129.5-32-169.1-81.8-5.1-6.4-14.3-7.5-20.8-2.6-36.4 27.9-81.7 44.4-131.1 44.4-57.5 0-109.6-22.4-148.4-59.1-38.7-36.6-63.8-87.4-67.2-144-.4-7.2-5.9-13.1-13.1-14-53.2-6.7-100.4-32.7-134.4-70.8-33.9-38.2-54.5-88.3-54.5-143.4 0-55 20.5-105.1 54.4-143.2 33.9-38.1 81-64.2 134.1-70.9 7.7-1 13.3-7.6 13.1-15.3v-1.5c0-59.7 24.1-113.6 63.2-152.7s93-63.2 152.7-63.3c33.5 0 65.1 7.6 93.3 21.2 4 1.9 8.5 2 12.5.2s7-5.2 8.3-9.4c13.3-44.6 40.5-83.2 76.8-110.6 36.2-27.4 81.2-43.7 130.2-43.7 50.3 0 96.5 17.2 133.3 46 36.7 28.8 63.9 69.3 75.9 115.8 1.2 4.6 4.4 8.2 8.7 10.1 4.3 1.8 9.2 1.5 13.3-.8 31.7-18.3 68.3-28.7 107.5-28.7 57.2 0 109.1 22.2 147.8 58.5 38.6 36.3 63.9 86.6 67.6 142.8.5 7.8 7.1 14 14.9 14h.6v-14.9h-.4z"/><path fill="#261539" d="M1454.5 675.7c0-20.7-16.8-37.4-37.4-37.4h-89.8c-1.8 0-3.6.2-5.4.4-1.8-.3-3.5-.4-5.3-.4h-81.3c-12.3 0-23.4 6-30.2 15.4-6.8-9.4-17.9-15.4-30.2-15.4H1063c-11.9 0-22.7 5.6-29.6 14.5-6.9-8.9-17.6-14.5-29.6-14.5h-89.2c-10.7 0-20.9 4.6-28 12.6-1.2 1.3-2.2 2.7-3.1 4.2-21.9-12.6-52.1-20.9-93.8-20.9-41.8 0-72.2 8.2-94.2 20.7-.9-1.4-1.9-2.7-3-3.9-7.1-8.1-17.3-12.7-28.1-12.7H583c-12.3 0-23.4 6-30.2 15.4-6.9-9.4-17.9-15.4-30.2-15.4H410.4c-11.9 0-22.7 5.6-29.6 14.5-6.9-8.9-17.6-14.5-29.6-14.5H262c-10.7 0-20.9 4.6-28 12.6s-10.4 18.7-9.1 29.4l56.1 452c2.3 18.7 18.3 32.8 37.1 32.8h101.3c15.5 0 28.9-9.4 34.6-23.2 5.7 13.7 19.2 23.2 34.6 23.2h117.6c18.8 0 34.7-14 37.1-32.7l4.3-33.7c14.9 34.7 51.9 70.5 141.2 70.5 41.1 0 75.6-9.3 102.7-27.7 17-11.6 29.6-26.3 37.6-43.5l4.3 34.3c2.3 18.7 18.3 32.8 37.1 32.8h101.3c15.5 0 28.9-9.4 34.6-23.2 5.7 13.7 19.2 23.2 34.6 23.2h117.6c15.3 0 28.6-9.2 34.4-22.6 5.7 13.3 19 22.6 34.3 22.6h89.8c20.7 0 37.4-16.8 37.4-37.4v-65.9c0-3.4-.5-6.8-1.3-9.9.9-3.2 1.3-6.5 1.3-9.9V675.7z"/><path fill="#B794F4" d="m622.6 675.7-58 451.9H447l-35.6-249.3-33.6 249.3H276.5l-56.1-451.9h89.2l25 208.6 34.2-208.6h111.9l27.1 208.6 33.4-208.6zm11.3 374.7V759.5c0-58.6 38-87.9 113.9-87.9 74.9 0 112.4 29.1 112.4 87.3v290.9c0 26.3-10.4 46.5-31.3 60.7-20.9 14.2-48.1 21.3-81.7 21.3-75.5-.1-113.3-27.2-113.3-81.4zm129.5 4.8v-308c0-9-5.4-13.6-16.1-13.6-11.1 0-16.7 4.5-16.7 13.6v307.9c0 9 5.6 13.6 16.7 13.6 10.8 0 16.1-4.5 16.1-13.5zM1275 675.7l-58 451.9h-117.6l-35.6-249.3-33.6 249.3H928.9l-56.1-451.9h89.3L987 884.3l34.3-208.6h111.8l27.1 208.6 33.4-208.6zm100.5 366.2h-89.8V675.7h89.8v366.2zm0 85.7h-89.8v-65.9h89.8v65.9z"/><path fill="#261539" d="M1180.9 374.2s179.1-85.1 145.6-121.7c-28.3-30.9-111.6 61.8-157.3 103.7-11.1 10.1-.8 24.1 11.7 18zm-21.4-53s134.1-167.2 84.3-187c-42.1-16.8-79.4 112.7-104.2 175-6 15.1 10.6 23.8 19.9 12zm-1007.2 918s-135.5 144.7-91 166.5c37.6 18.4 81.2-98.3 108.5-154 6.7-13.5-8-22.7-17.5-12.5zm39.3 41.5s-63.6 204.7-10 204.9c45.3.2 32.7-134 32.9-201 .1-16.2-18.5-18.3-22.9-3.9z"/><path fill="#FFF" d="M306.3 868.6c5.9 9.5-1.6 20.6-11.4 21.8-9.7 1.3-18.8-6.7-20.3-17.8s5.2-21.2 14.9-22.4c9.9-1.3 10.4 8 16.8 18.4zm-20 37.8s-13.4 141.6 21.4 134.4c29.5-6.1 2.9-91.5-6-135-2.1-10.6-14.5-9.4-15.4.6zm669.8-50.3c5.9 9.5-1.6 20.6-11.4 21.8-9.7 1.3-18.8-6.7-20.3-17.8s5.2-21.2 14.9-22.4c9.9-1.3 10.4 8 16.8 18.4zm-20 37.8s-13.4 141.6 21.4 134.4c29.5-6.1 2.9-91.5-6-135-2.1-10.6-14.5-9.4-15.4.6zm395.4-66.8c-4.2-7.6 2.1-15.9 9.7-16.4 7.6-.6 14.3 6 15 14.6.7 8.7-4.9 16.2-12.5 16.8-7.7.6-7.7-6.7-12.2-15zm17-28.4s16.3-109.2-11-105.1c-23.1 3.5-6.1 70.7-1 104.9 1.3 8.3 10.9 7.9 12 .2zM807 842.8c-4.2-7.6 2.1-15.9 9.7-16.4 7.6-.6 14.3 6 15 14.6.7 8.7-4.9 16.2-12.5 16.8-7.7.6-7.7-6.7-12.2-15zm17-28.4s16.3-109.2-11-105.1c-23.1 3.5-6.1 70.7-1 104.9 1.3 8.3 10.9 7.9 12 .2z"/></svg>