<svg xmlns="http://www.w3.org/2000/svg" viewBox="0 0 1700.8 1700.8" xml:space="preserve"><path fill="#261539" d="M1551.5 580 204.1 511.8c-1.1-.1-2.1-.1-3.2-.1-75.8 0-137.4 63.4-137.4 141.2v558.2c0 77.3 60.6 140.2 135.6 141.2l882.2 44.6c-31.3 68.7-70.9 121.6-71.4 122.4-15.5 20.5-17 48.2-3.8 70.2 11.5 19.2 32.1 30.6 53.9 30.6 3.3 0 6.6-.3 9.9-.8 147.9-23.5 258.6-120 330.3-206.3l146.3 7.4c1.1.1 2.1.1 3.2.1 75.8 0 137.4-63.4 137.4-141.2V721.2c0-77.3-60.6-140.2-135.6-141.2z"/><path fill="#B794F4" d="M1519.4 592.8 105.5 521.3c-43.1 0-78.1 36.8-78.1 82.1v585.2c0 45.4 35 82.1 78.1 82.1l1015.3 51.3c-32.1 120.5-114.6 229.4-114.6 229.4 151.4-24 262.5-135.4 326.1-218.7l187.2 9.5c43.1 0 78.1-36.8 78.1-82.1V674.9c-.1-45.4-35-82.1-78.2-82.1z"/><path fill="#261539" d="m1519.4 592.8.8-14.9-1413.9-71.5h-.8c-25.9 0-49.4 11.1-66.1 28.7-16.8 17.6-27 41.8-27 68.4v585.2c0 26.6 10.3 50.8 27 68.4s40.2 28.7 66.1 28.7v-15l-.8 14.9L1120 1337l.8-14.9-14.5-3.9c-15.5 58.3-43.6 114.6-67.8 156.2-12.1 20.8-23.2 37.9-31.3 49.7-4 5.9-7.3 10.5-9.5 13.7-1.1 1.6-2 2.7-2.6 3.5l-.6.9-.2.2c-3.7 4.9-4 11.5-.9 16.7s9.2 8 15.2 7.1c78.7-12.5 146.6-47.6 202.6-90 56.1-42.4 100.6-92 133-134.4l-11.9-9.1-.8 14.9 187.2 9.5h.8c25.9 0 49.4-11.1 66.1-28.7 16.8-17.6 27-41.8 27-68.4V674.9c0-26.6-10.3-50.8-27-68.4-16.7-17.6-40.2-28.7-66.1-28.7l-.1 15 .9-14.9-.9 14.9v15c17.3 0 32.8 7.3 44.4 19.4 11.5 12.1 18.8 28.9 18.8 47.8v585.2c0 18.8-7.2 35.6-18.8 47.8-11.6 12.1-27.1 19.4-44.4 19.4v15l.8-15-187.2-9.5c-4.9-.3-9.6 1.9-12.7 5.9-31.2 40.8-74 88.5-127.2 128.7s-116.6 72.8-189.3 84.3l2.3 14.8 11.9 9c.3-.4 21.2-28 46.3-71 25.1-43 54.3-101.3 70.9-163.5 1.2-4.3.3-9-2.4-12.7-2.6-3.6-6.8-5.9-11.3-6.1L106.2 1256h-.8c-17.3 0-32.8-7.3-44.4-19.4-11.5-12.1-18.8-29-18.8-47.8V603.4c0-18.8 7.2-35.6 18.8-47.8 11.6-12.1 27.1-19.4 44.4-19.4v-15l-.8 14.9 1413.9 71.5h.8l.1-14.8z"/><path fill="#FFF" d="M722.8 315.1c0 155.6-88 281.7-196.6 281.7S329.6 470.7 329.6 315.1 417.7 79.9 526.2 79.9c108.6 0 196.6 79.7 196.6 235.2z"/><path fill="#261539" d="M722.8 315.1h-15c0 75-21.3 142.6-54.9 190.6-16.8 24-36.5 43.1-58 56.1s-44.6 20-68.8 20-47.3-7-68.8-20c-32.2-19.5-60.6-52.8-80.7-95.6-20.2-42.8-32.2-94.9-32.2-151.1 0-37.5 5.3-70 14.7-97.6 14.1-41.4 37.1-71.7 65.7-92 28.7-20.3 63.3-30.6 101.3-30.7 25.3 0 49.2 4.6 70.7 13.7 32.3 13.6 59.6 37.1 79.4 71.2 19.7 34.1 31.6 79.1 31.6 135.3h30c0-40.3-5.7-76.1-16.2-107.2-15.8-46.6-42.7-82.7-76.8-106.8-34.1-24-75.2-36.1-118.6-36-29 0-56.9 5.3-82.3 16-38.3 16-71 44.4-93.7 83.9-22.8 39.5-35.6 89.8-35.6 150.3 0 80.6 22.7 153.8 60.3 207.7 18.8 26.9 41.4 49.1 67 64.6s54.2 24.3 84.3 24.3c30.1 0 58.7-8.8 84.3-24.3 38.4-23.3 70.1-61.4 92.3-108.5s35-103.4 35-163.9h-15z"/><path fill="#261539" d="M682.9 433.1c0 90.4-51.2 163.7-114.3 163.7s-114.3-73.3-114.3-163.7 51.2-163.7 114.3-163.7c63.2 0 114.3 73.3 114.3 163.7z"/><path fill="#FFF" d="M584.7 333.7c0 56.3-31.9 102-71.2 102s-71.2-45.6-71.2-102 31.9-102 71.2-102c39.4 0 71.2 45.7 71.2 102zm683.9-18.6c0 155.6-88 281.7-196.6 281.7S875.4 470.7 875.4 315.1s88-235.2 196.6-235.2 196.6 79.7 196.6 235.2z"/><path fill="#261539" d="M1268.6 315.1h-15c0 75-21.3 142.6-54.9 190.6-16.8 24-36.5 43.1-58 56.1s-44.6 20-68.8 20c-24.2 0-47.3-7-68.8-20-32.2-19.5-60.6-52.8-80.7-95.6-20.2-42.8-32.2-94.9-32.2-151.1 0-37.5 5.3-70 14.7-97.6 14.1-41.4 37.1-71.7 65.7-92 28.7-20.3 63.3-30.6 101.3-30.7 25.3 0 49.2 4.6 70.7 13.7 32.3 13.6 59.7 37.1 79.3 71.2 19.7 34.1 31.6 79.1 31.6 135.3h30.1c0-40.3-5.7-76.1-16.2-107.2-15.8-46.6-42.7-82.7-76.8-106.8-34.1-24-75.2-36.1-118.6-36-29 0-56.8 5.3-82.3 16-38.3 16-71 44.4-93.7 83.9-22.8 39.5-35.6 89.8-35.6 150.3 0 80.6 22.7 153.8 60.3 207.7 18.8 26.9 41.4 49.1 67 64.6s54.2 24.3 84.3 24.3 58.7-8.8 84.3-24.3c38.4-23.3 70.1-61.4 92.3-108.5 22.2-47.1 35-103.4 35-163.9h-15z"/><path fill="#261539" d="M1157 433.1c0 90.4-51.2 163.7-114.3 163.7-63.1 0-114.3-73.3-114.3-163.7s51.2-163.7 114.3-163.7c63.1 0 114.3 73.3 114.3 163.7z"/><path fill="#FFF" d="M1185.1 333.7c0 56.3-31.9 102-71.2 102-39.3 0-71.2-45.6-71.2-102s31.9-102 71.2-102c39.3 0 71.2 45.7 71.2 102z"/><path fill="#261539" d="M1454.2 695.2c-9.9-8.9-23.2-13.1-36.5-11.6-41.4 4.6-86.8 7.8-134.8 9.5-23.5.8-42.3 18.8-44.9 41.5-6.3-9.8-12.1-19.5-17.1-28.9-9-16.7-27.2-26.3-46-24.3l-149 15.4c-3.9.4-7.6 1.3-11.1 2.6-5.2-2.4-10.8-3.9-16.7-4.3l-133.8-8.4c-11.8-.7-23.2 3-32.3 10.2-7.8-6.1-17.4-9.6-27.5-9.9-44.1-1.2-103.6 2.8-177.1 12-8.6-10.4-21.5-17-36-17.1h-11.2c-129.3 0-237.9 5.4-322.9 16-23.3 2.9-40.9 22.6-41 46.1-.4 50.4.3 98.6 2.2 143.3.5 12.6 6.1 24.5 15.5 32.9 9 8.1 20.8 12.4 32.9 12 .2 208.4 1.6 216.7 2.8 223.5 3.7 21.4 21.6 37.4 43.2 38.7 14.8.9 30.1 1.4 45.4 1.4 29.2 0 59.8-1.7 90.9-5.1 24.1-2.6 42.2-23.2 41.8-47.5-.5-24.3-.7-47.4-.6-69.3 10.8-.3 21.7-.6 32.6-.9 24-.6 43.7-19.2 45.6-43.1 3.6-45.3 5.3-79.5 5.2-104 4.2.1 8.4.3 12.6.5 6.9.3 13.5-.9 19.5-3.4.5 15 1.6 31.9 3.5 50.9l.3 2.1c16.8 116.1 65.9 188.9 146 216.4 1.5.5 3.1 1 4.7 1.3 19.6 4.5 39.2 6.8 58.3 6.8 25.1 0 50-3.9 73.9-11.7.7-.2 1.3-.5 2-.7 44.9-16.8 97.3-51.5 129.3-122.7-.4 29.2-.9 57.2-1.7 83.6-.4 13.2 4.8 25.9 14.2 35.1 8.8 8.5 20.5 13.2 32.6 13.2 1 0 1.9 0 2.9-.1 41-2.5 82.2-3 122.4-1.3 12.9.5 25.3-4.2 34.5-13.2 9.2-8.9 14.4-21.3 14.2-34.1l-.3-32.9c16.5 20.8 31.7 41 45.6 60.5 9.2 13 24.4 20.4 40.2 19.7 36.4-1.6 67-2.4 90.8-2.4 25.5 0 46.3-20.4 46.8-45.9 2.4-120.9 3.7-261.4 3.8-417.6-.1-13.2-5.8-25.9-15.7-34.8z"/><path fill="#FFE977" d="M532.2 721.3c3.3 69.3 2.3 120.8-3.1 154.2-51.6-2.1-102.2-2.1-151.9-.2l1.7 35.4c37-1.7 66.1-2.4 87.1-2.2 1.1 22.8-.5 61.8-4.9 117-26.9.6-53.4 1.5-79.6 2.7-.7 35.2-.7 74.6.2 117.9-46 5-89.7 6.2-131.2 3.6-1.5-8.4-2.2-99-2.2-271.5l-49.6 3.3c-1.9-45.1-2.6-93.1-2.2-144.2 87.8-11 199.7-16.3 335.7-16zm25.3 147.8c-.3-54.3 2-97.4 6.9-129.4 77.9-10.1 139.4-14.5 184.6-13.3-3.6 19.3-7.1 57-10.2 113-3.2 56.1-.2 97.8 9 125.2 6.6 15.3 16.1 23.5 28.5 24.6 15.2-.3 25.1-8 29.6-23.1C817.4 913 818.3 833 808.6 726l136.9 8.6c11.7 79.1 14.9 150.4 9.7 213.8-9.8 103.2-53 169.2-129.5 197.9-35 11.4-71.6 12.7-109.7 3.9-63.8-21.9-103-82.8-117.5-182.8-4.6-46.8-4.9-80.7-.8-101.5l-40.2 3.2zm424.2-133 152.4-15.8c24.9 46.1 62.4 95.8 112.5 149.2-1.5-26.2-3.2-71.8-5.2-137 50.6-1.8 97.8-5.1 141.6-10-.1 160.3-1.4 302.3-3.9 426.2-25.1 0-56.8.8-94.9 2.5-36.8-51.8-81.8-107.1-135-166l1.7 166c-43-1.8-86.3-1.3-130.1 1.4 2.5-83 2.9-178.3 1.2-285.8l-43.5 3.6 3.2-134.3z"/><path fill="#FFF" d="M328.4 799.3c5.6 12.2-5 24.3-16.8 24.4-11.8.1-21.5-10.7-21.6-24.2s9.3-24.5 21.1-24.6c11.9-.1 11.2 11.1 17.3 24.4zM299 841.5s-36.7 167.1 6 163.6c36-2.9 16.9-108.7 12.5-162-1-13-16-13.3-18.5-1.6zm815.5-32.2c5.7 12.2-5 24.3-16.8 24.4-11.8.1-21.5-10.7-21.6-24.2s9.3-24.5 21.1-24.6c11.9-.1 11.2 11.1 17.3 24.4zm-29.4 42.2s-36.7 167.1 6 163.6c36-2.9 16.9-108.8 12.5-162-1.1-13-16-13.4-18.5-1.6z"/><path fill="#3E2E5A" d="M236.6 422s-54.7-184.7-94.8-158.1c-33.9 22.5 42.5 116.4 75.8 166.6 8 12.2 23 4.4 19-8.5zm-54.1 12.5S42.2 280.6 15.7 325.4C-6.7 363.3 112 418.6 168 451.8c13.6 8 24.5-6.6 14.5-17.3zm1149.6 19.9s54.7-184.7 94.8-158.1c33.9 22.5-42.5 116.4-75.8 166.6-7.9 12.3-22.9 4.5-19-8.5zm54.1 12.5S1526.5 313 1553 357.8c22.4 37.9-96.2 93.2-152.2 126.4-13.6 8.1-24.5-6.5-14.6-17.3z"/></svg>