<svg version="1.1" id="Layer_1" xmlns="http://www.w3.org/2000/svg" x="0" y="0" viewBox="0 0 1700.8 1700.8" xml:space="preserve"><style>.st2{fill:#261539}</style><path d="M1442.4 636.6c-36-150.3-202.8-248.9-354.2-202.9-95.3-194-399.9-196-499.1-3.9-157.8-38.1-320.7 73.4-344.7 230.3-488.2 163.8 73.5 897.3 407.8 736.5 101.4 90.8 270.3 90.5 371.3-.5 161.4 86.2 375.6-20.1 407-196.9 315-39.7 323.8-509.8 11.9-562.6z" fill="#c53030"/><path d="M1347.3 674.8c-7.4-164.4-203.7-271.6-345.9-184.6-51.8-222.6-385.2-228.4-444.9-8.1-148-74.9-336.2 43-330.7 210.2-264.2 30.6-263.8 427.9.4 458 4.3 179.6 232.7 282.7 370.6 169.6 82.9 115.1 280.2 114.5 362.5-.9 142.8 118.1 378.9 4.7 372.3-183.1 313.2 14.7 329.3-454.5 15.7-461.1z" fill="#f56565"/><path class="st2" d="M1347.3 674.8c-.5-.1 1-16.1-.6-15-.8 17.9-1 15.2 14.9 14 9.9-172.5-269.9-309.9-360.3-183.5 7.6-224-404-261.1-459.4-12.3 16.4 5.9 14.2 5 20.8-9.2-145.4-92.5-403 81.3-337.1 223.8-261.6-28.7-301.1 447.7-1.2 472.7l1.9-14.8c-55.3 163 243.3 313.7 379.9 181.6L597 1320c20.9 130.5 303.8 132.4 374.3 8.3l-11.8-9.2c90.5 153.3 409.9 16.9 387.3-183.1h-15c302.4 75.7 373.2-476.2 15.6-476.2-.1 7.5-.1 22.5 0 30 322.4 32.5 253.2 433.1-30.5 446.7-2.2 208-224.9 253-369 173.3-99.3 133.1-260.1 77.7-359.7-1.7-128.9 105.3-342.4 10.1-346.7-158.7-268.1-74.6-264.7-381.5-.4-457.6-.9-119.9 96-217.4 215.9-217.5 39.1-4 71.7 18.3 105.8 21.4C600.3 407 671.4 329.4 778.1 332c99-.1 184.7 67.3 209.2 161.8 2.2 9.4 13.7 14.2 22 9.3 131.7-80.5 317 17.1 322.9 172.6 3.6 16.6 20.6 20.5 15.1-.9z"/><path class="st2" d="M1454.5 675.7c1.8-57.3-95-32.3-127.2-37.4-28.7 5.1-102.7-13.3-122.2 15.4-5.6-23.8-164.3-23.2-171.7-.9-8.9-22.3-143.2-22.9-149.9 2.3-38.6-27.3-149.4-27.2-188-.2-9.4-25.6-133.4-24.1-142.7-1.2-14.8-28.8-117.9-10.5-142.4-15.4-11.9 0-22.7 5.6-29.6 14.5-15.3-26.1-95.1-10.5-118.8-14.5-89.1-18.5 33.1 464.3 19 494 2.3 18.7 18.3 32.8 37.1 32.8 30-6.5 123.4 17.6 135.9-23.2 10.2 41.8 124.4 16.8 152.2 23.2 37.6-.6 38.4-38.3 41.4-66.4 22.3 84.7 238.2 102.4 281.5-.7 3.1 28.3 3.4 66.4 41.4 67.1 27.5-6.5 125.1 17.6 135.9-23.2 5.7 13.7 19.2 23.2 34.6 23.2 26.9-7.3 141.6 18.7 152-22.6 11.6 38.2 96.8 17.7 124.1 22.6 20.7 0 37.4-16.8 37.4-37.4 3.1-54.9-2.3-389.6 0-452z"/><path d="m622.6 675.7-58 451.9H447l-35.6-249.3-33.6 249.3H276.5l-56.1-451.9h89.2l25 208.6 34.2-208.6h111.9l27.1 208.6 33.4-208.6h81.4zm11.3 374.7c24.1-94.2-76.8-403 113.9-378.8 188.5-24.5 88.7 285.6 112.4 378.2 2.9 115.2-239.9 105.7-226.3.6zm129.5 4.8c-9.8-10.1 21.6-335.3-16.1-321.6-39.1-14.8-6.6 311.9-16.7 321.5-2 18 34.8 18.6 32.8.1zM1275 675.7l-58 451.9h-117.6l-35.6-249.3-33.6 249.3H928.9l-56.1-451.9h89.3L987 884.3l34.3-208.6h111.8l27.1 208.6 33.4-208.6h81.4zm100.5 366.2h-89.8V675.7h89.8v366.2zm0 85.7c-84.2-8.4-95.2 33.8-89.8-65.9 84.2 8.4 95.2-33.8 89.8 65.9z" fill="#b794f4"/><path class="st2" d="M1180.9 374.2c183.9-62.9 199.8-235.9-11.7-18-11.1 10.1-.8 24.1 11.7 18zm-21.4-53c149.2-147.8 83.3-323.7-19.9-12-6 15.1 10.6 23.8 19.9 12zm-1007.2 918c-148 125.8-99.8 292.6 17.5 12.5 6.7-13.5-8-22.7-17.5-12.5zm39.3 41.5c-84.8 192.2 41 331.7 22.9 3.9.1-16.2-18.5-18.3-22.9-3.9z"/><path d="M306.3 868.6c10.5 24.9-28.5 31-31.7 4-1.4-25.1 24.7-31.3 31.7-4zm-20 37.8s-13.4 141.6 21.4 134.4c27.7 17.5 1-177.1-21.4-134.4zm669.8-50.3c10.5 24.9-28.5 31-31.7 4-1.4-25.1 24.7-31.3 31.7-4zm-20 37.8s-13.4 141.6 21.4 134.4c27.7 17.5 1-177.1-21.4-134.4zm395.4-66.8c-7.2-19.9 23.5-22.5 24.7-1.8.1 19.5-20.5 23.3-24.7 1.8zm17-28.4c28-104.5-46.9-165.7-12-.2 1.3 8.3 10.9 7.9 12 .2zM807 842.8c-7.2-19.9 23.5-22.5 24.7-1.8.1 19.5-20.5 23.3-24.7 1.8zm17-28.4c28-104.5-46.9-165.7-12-.2 1.3 8.3 10.9 7.9 12 .2z" fill="#fff"/></svg>