<svg version="1.1" id="Layer_1" xmlns="http://www.w3.org/2000/svg" x="0" y="0" viewBox="0 0 1700.8 1700.8" xml:space="preserve"><style>.st0{fill:#261539}.st2{fill:#fff}</style><path class="st0" d="M1551.5 580c-3.2-.1-1347.6-68.3-1350.6-68.3-75.8 0-137.4 63.4-137.4 141.2-2.8 944.4-112.3 637.5 1017.8 744-31.3 68.7-70.9 121.6-71.4 122.4-15.5 20.5-17 48.2-3.8 70.2 79.8 111.2 361.7-118.8 394.1-176.5 121 7.1 275.4 37.3 286.9-133.7V721.2c0-77.3-60.6-140.2-135.6-141.2z"/><path d="M1519.4 592.8 105.5 521.3c-43.1 0-78.1 36.8-78.1 82.1v585.2c0 45.4 35 82.1 78.1 82.1l1015.3 51.3c-32.1 120.5-114.6 229.4-114.6 229.4 151.4-24 262.5-135.4 326.1-218.7l187.2 9.5c43.1 0 78.1-36.8 78.1-82.1V674.9c-.1-45.4-35-82.1-78.2-82.1z" fill="#b794f4"/><path class="st0" d="m1519.4 592.8.8-14.9c-.2-.1-1414.4-71.5-1414.7-71.5-52.8.2-93.2 44.8-93.1 97.1v585.2c-.1 52.4 40.3 96.9 93.1 97.1v-15l-.8 14.9L1120 1337l.8-14.9-14.5-3.9c-24.6 87.4-65.9 159.1-112 224.2-8.2 10.2 1.4 26.2 14.3 23.8 140.1-20.8 260.2-124.3 335.6-224.4l-11.9-9.1-.8 14.9c89-5 276.6 58.4 281.1-87.6V674.9c.1-52.4-40.3-96.9-93.1-97.1l-.1 15 .9-14.9c-.7 7.4-1.1 22.4-.9 29.9 35.9.2 63.2 31.1 63.2 67.2v585.2c.1 36-27.3 67.1-63.2 67.2v15l.8-15c-8.1 2.7-199.2-17.5-199.9-3.6-71.1 94.5-185.4 193.8-316.5 213l2.3 14.8 11.9 9c25.8-35.4 119.3-179.3 114.8-247.2-7.3-16.2-1015.4-51.5-1027.4-57.4-17.3 0-32.8-7.3-44.4-19.4-39.3.4-10.5-609.1-18.8-633.2-.1-36 27.3-67.1 63.2-67.2v-15l-.8 14.9c.1 0 1414.5 71.6 1414.7 71.5l.1-14.8z"/><path class="st2" d="M722.8 315.1c-5.1 370.8-388.2 370.7-393.2 0-8.4-313.8 401.7-313.7 393.2 0z"/><path class="st0" d="M722.8 315.1h-15c4.3 140.5-100.1 328.2-250.5 246.7-158.3-97.2-164.5-466.9 68.8-467 118.7-.6 184.3 100.7 181.7 220.2h30C743 185.4 660.6 61.4 526.2 65c-263.1-2.4-268.6 411.4-84.3 522.5C611.5 684 746.6 474.4 737.8 315.1h-15z"/><path class="st0" d="M682.9 433.1c-3 215.4-225.6 215.4-228.6 0 3-215.5 225.7-215.4 228.6 0z"/><path class="st2" d="M584.7 333.7c-1.9 134.2-140.6 134.3-142.4 0 1.9-134.3 140.6-134.2 142.4 0zm683.9-18.6c-5.1 370.8-388.2 370.7-393.2 0-8.5-313.8 401.7-313.7 393.2 0z"/><path class="st0" d="M1268.6 315.1h-15c4.3 140.5-100.1 328.2-250.5 246.7-158.3-97.2-164.5-466.9 68.8-467 118.8-.6 184.2 100.7 181.6 220.2h30.1c5.2-129.6-77.2-253.6-211.6-250-263.1-2.4-268.6 411.4-84.3 522.5 169.6 96.5 304.7-113.1 295.9-272.4h-15z"/><path class="st0" d="M1157 433.1c-3 215.4-225.6 215.4-228.6 0 3-215.4 225.6-215.4 228.6 0z"/><path class="st2" d="M1185.1 333.7c-1.9 134.2-140.6 134.3-142.4 0 1.9-134.3 140.6-134.2 142.4 0z"/><path class="st0" d="M1454.2 695.2c-9.9-8.9-23.2-13.1-36.5-11.6-41.4 4.6-86.8 7.8-134.8 9.5-23.5.8-42.3 18.8-44.9 41.5-15.7-25.2-27.6-57.5-63.1-53.2-6.7 1.6-157.5 14.3-160.1 18-4.5-6.5-140.8-11-150.5-12.7-11.8-.7-23.2 3-32.3 10.2-33.1-22.8-134.5-3.6-204.6 2.1-10.7-14-29.7-18.6-47.2-17.1-129.3 0-237.9 5.4-322.9 16-23.3 2.9-40.9 22.6-41 46.1-.4 50.4.3 98.6 2.2 143.3.5 25 23.4 46.2 48.4 44.9 6.6 233.7-19.9 241.1 46 262.2 45.5 2.8 89.5 1.4 136.3-3.7 57.7-7.1 38.5-77.8 41.2-116.8 34.9.7 73.3-.8 78.2-44 3.6-45.3 5.3-79.5 5.2-104 10.7.4 22.3 1.7 32.1-2.9-14.8 273 287.2 392.9 418 142.4 3.7 47.2-23 127.6 45.1 131.9 41.9-2.4 84.2-3.2 125.3-1.4 47.6-.2 51.5-42.8 48.4-80.2 81.4 109.4 51.5 74.7 176.6 77.8 25.5 0 46.3-20.4 46.8-45.9 2.4-120.9 3.7-261.4 3.8-417.6-.1-13.2-5.8-25.9-15.7-34.8z"/><path d="M532.2 721.3c3.3 69.3 2.3 120.8-3.1 154.2-51.6-2.1-102.2-2.1-151.9-.2l1.7 35.4c37-1.7 66.1-2.4 87.1-2.2 1.1 22.8-.5 61.8-4.9 117-26.9.6-53.4 1.5-79.6 2.7-.7 35.2-.7 74.6.2 117.9-46 5-89.7 6.2-131.2 3.6-1.5-8.4-2.2-99-2.2-271.5l-49.6 3.3c-1.9-45.1-2.6-93.1-2.2-144.2 87.8-11 199.7-16.3 335.7-16zm25.3 147.8c-.3-54.3 2-97.4 6.9-129.4 77.9-10.1 139.4-14.5 184.6-13.3-7.3 37.9-19.8 198.7-1.2 238.2 6.6 15.3 16.1 23.5 28.5 24.6 57.2 2.9 37-174.4 32.3-263.2l136.9 8.6c116.6 473.9-371.8 601.7-347.8 131.3l-40.2 3.2zm424.2-133 152.4-15.8c24.9 46.1 62.4 95.8 112.5 149.2-1.5-26.2-3.2-71.8-5.2-137 50.6-1.8 97.8-5.1 141.6-10-.1 160.3-1.4 302.3-3.9 426.2-25.1 0-56.8.8-94.9 2.5-36.8-51.8-81.8-107.1-135-166l1.7 166c-43-1.8-86.3-1.3-130.1 1.4 2.5-83 2.9-178.3 1.2-285.8l-43.5 3.6 3.2-134.3z" fill="#ffe977"/><path class="st2" d="M328.4 799.3c8.8 31.3-38.6 32.9-38.4.2-.1-13.5 9.3-24.5 21.1-24.6 11.9-.1 11.2 11.1 17.3 24.4zM299 841.5s-36.7 167.1 6 163.6c36-2.9 16.9-108.7 12.5-162-1-13-16-13.3-18.5-1.6zm815.5-32.2c9 31.1-38.5 33.1-38.4.2-.1-13.5 9.3-24.5 21.1-24.6 11.9-.1 11.2 11.1 17.3 24.4zm-29.4 42.2s-36.7 167.1 6 163.6c36-2.9 16.9-108.8 12.5-162-1.1-13-16-13.4-18.5-1.6z"/><path d="M236.6 422s-54.7-184.7-94.8-158.1c-33.9 22.5 42.5 116.4 75.8 166.6 8 12.2 23 4.4 19-8.5zm-54.1 12.5S42.2 280.6 15.7 325.4C-6.7 363.3 112 418.6 168 451.8c13.6 8 24.5-6.6 14.5-17.3zm1149.6 19.9s54.7-184.7 94.8-158.1c33.9 22.5-42.5 116.4-75.8 166.6-7.9 12.3-22.9 4.5-19-8.5zm54.1 12.5S1526.5 313 1553 357.8c22.4 37.9-96.2 93.2-152.2 126.4-13.6 8.1-24.5-6.5-14.6-17.3z" fill="#3e2e5a"/></svg>