<svg version="1.1" id="Layer_1" xmlns="http://www.w3.org/2000/svg" x="0" y="0" viewBox="0 0 900 900" xml:space="preserve"><style>.st0{fill:#c99}.st5{fill:#c66}.st6{fill:#fff}.st7{fill:#333}.st8{fill:#6f9}</style><path class="st0" d="M866.4 579.2c-274.7-34.3-349.2-57.3-575.7-325.9l11-104.2-16.3 1.4-11.1 83.7c-32.7-38.1-54.2-64.6-54.2-64.6l-10.9 6.8s144.2 347 419.1 424.6 238.1-21.8 238.1-21.8z"/><path d="M563.9 508.1s-16.8-31.8-29-33.1-27.7 38.1-27.7 54.4 15.9-19.5 15.9-19.5-10.9 21.8-2.3 24.5 13.2-23.6 13.2-23.6-8.6 25.9 6.3 25.4 23.6-28.1 23.6-28.1z" fill="#300"/><path d="M463.7 648s71.4-169.4 117.7-141.5c46.3 27.9-52.4 104.1-29.9 144.9 22.5 40.8 51-139.5 95.9-121.1 44.9 18.4 22.5 236.1-60.5 268.7-83 32.7-221.1-14.3-222.5-94.6-1.4-80.2 99.3-56.4 99.3-56.4z" fill="#633"/><path d="M169 310.5c1.2-18.5.8-40.3-9-36.5-13.6 5.4-13.5 37.1-13.1 47.9-.1 0-.2.1-.2.1-1.6-11.5-8-47.1-23.9-40.6-11.3 4.6-2.8 31.2 5.9 52C-119.5 512 88.9 860.9 367.5 733 659.4 581.5 471.3 181.6 169 310.5z" fill="#966"/><path d="M464.7 429C416.9 324 271.8 304.9 217 403.6 104.8 383 27.4 509.6 80.7 613.1c101.1 213.7 490.9 21.7 384-184.1z" fill="#fcc"/><path class="st0" d="M385.1 553.6c33.6 69.6-110.9 139.4-144.6 69.9-33.6-69.5 110.9-139.4 144.6-69.9z"/><path class="st5" d="M123.6 495.7c98.6-44.2 161 85 65.2 134.8-98.7 44.1-161.1-85-65.2-134.8zm327.8-78.4c40.1 90.4-101.1 158.7-147 71.1-40.1-90.5 101.1-158.7 147-71.1z"/><path class="st6" d="M199.4 539.9c24.4 52.8-53.4 90.4-79.6 38.5-24.5-52.8 53.4-90.4 79.6-38.5zm220.5-109.6c24.4 52.8-53.5 90.4-79.6 38.5-24.4-52.8 53.4-90.4 79.6-38.5z"/><path class="st7" d="M180.1 545.2c21.6 38-16 60-38.6 22.6-21.5-38 16-60 38.6-22.6z"/><path class="st6" d="M157.5 545.5c8.2 14.1-10 24.7-18.3 10.7-8.1-14.1 10-24.8 18.3-10.7zm9.8 29c4.6 7.7-5.9 13.9-10.4 6.1-4.7-7.8 5.9-14 10.4-6.1zm-9.4-41.3c1.7 2.8-2.7 5.4-4.3 2.5-1.7-2.8 2.7-5.3 4.3-2.5z"/><path class="st7" d="M361.5 453.3c16.4 40.5 57 24.8 41.7-16.2-16.4-40.5-57-24.7-41.7 16.2z"/><path class="st6" d="M375.7 435.8c6 15.1 25.6 7.5 19.7-7.7-5.9-15.2-25.5-7.6-19.7 7.7zm16.7 25.6c3.2 8.4 14.6 4 11.2-4.4-3.1-8.4-14.6-4-11.2 4.4zm-26.5-32.9c1.1 3.1 5.9 1.2 4.6-1.8-1.1-3.1-5.9-1.3-4.6 1.8z"/><path class="st5" d="M305.3 555.9c30.4-15.2 14.9-47.5-16-33.1-27.7 13.2-17.7 44.8 11.9 34.8l18.8 38.9c-5.1.7-10.6-.3-15.2-2.4-1.6-.7-2.5 1.8-.9 2.6 13.8 6.5 34.6 1.5 32.1-17-.2-1.7-2.9-1.2-2.7.5 1.1 7.6-3.2 13.8-10.6 15.7l-19-39.3c.6-.2 1.1-.4 1.6-.7z"/><path class="st8" d="M293.5 175c-55.8-46.7-35-110.9 27.2-133.4C342 87.1 336.4 139 293.5 175z"/><path class="st8" d="M290 191.4c38-62.1 104.6-50.9 135.9 7.3-41.8 27.7-93.9 29.9-135.9-7.3zm312.3 346.5c-28.5-67 19.3-114.7 84.9-106.4-1.7 50.1-30.3 93.8-84.9 106.4zm132 32.6c-28.5-67 19.3-114.7 84.9-106.4-1.7 50.1-30.2 93.8-84.9 106.4z"/></svg>