<svg xmlns="http://www.w3.org/2000/svg" viewBox="0 0 900 900"><path d="M866.4 579.2s-253.12-21.77-360.62-106.14c-64.14-50.34-153.46-148.62-215.09-219.73l10.96-104.15-16.33 1.36-11.08 83.7C241.58 196.11 220 169.59 220 169.59l-10.89 6.8S353.36 523.4 628.25 600.97 866.4 579.2 866.4 579.2Z" fill="#c99"/><path d="M563.91 508.06s-16.78-31.75-29.03-33.11c-12.25-1.36-27.67 38.1-27.67 54.43s15.87-19.5 15.87-19.5-10.89 21.77-2.27 24.49c8.62 2.72 13.15-23.59 13.15-23.59s-8.62 25.85 6.35 25.4c14.97-.45 23.59-28.12 23.59-28.12Z" fill="#300"/><path d="M463.69 648.04s71.43-169.4 117.69-141.5c46.26 27.89-52.38 104.09-29.93 144.91 22.45 40.82 51.02-139.46 95.92-121.1 44.9 18.37 22.45 236.07-60.55 268.72-83 32.66-221.1-14.29-222.46-94.56-1.36-80.28 99.33-56.47 99.33-56.47Z" fill="#633"/><path d="M169 310.52c1.24-18.47.77-40.34-9.02-36.51-13.65 5.35-13.52 37.06-13.07 47.92-.08.05-.16.09-.24.14-1.62-11.51-7.98-47.08-23.92-40.64-11.3 4.56-2.81 31.2 5.9 52-99.27 68.26-139.21 194.36-88.78 298.69 56.1 116.05 202.78 161.19 327.62 100.84 124.84-60.35 180.57-203.35 124.47-319.4-55.4-114.6-199.15-160.05-322.96-103.04Z" fill="#966"/><path d="M464.67 429.02c-47.76-104.99-192.95-124.08-247.74-25.37C104.78 383.09 27.37 509.64 80.6 613.19c101.18 213.65 491.03 21.58 384.07-184.16Z" fill="#fcc"/><path d="M385.1 553.64c33.58 69.59-110.91 139.43-144.57 69.89-33.58-69.58 110.91-139.43 144.57-69.89Z" fill="#c99"/><ellipse cx="156.13" cy="563.07" rx="81.65" ry="74.85" transform="rotate(-25.8 156.13 563.065)" fill="#c66"/><path d="M451.44 417.28c17.99 37.22-.34 83.3-40.94 102.92-40.6 19.63-88.1 5.37-106.09-31.85-17.99-37.22.34-83.3 40.93-102.92 40.6-19.63 88.1-5.37 106.09 31.85Z" fill="#c66"/><path d="M199.35 539.9c24.41 52.77-53.45 90.4-79.64 38.5-24.41-52.77 53.45-90.4 79.64-38.5Zm220.57-109.65c24.41 52.77-53.45 90.4-79.64 38.5-24.41-52.77 53.45-90.4 79.64-38.5Z" fill="#fff"/><path d="M180.14 545.19c21.61 38-15.96 60.03-38.57 22.62-21.61-38 15.96-60.03 38.57-22.62Z" fill="#333"/><path d="M157.53 545.45c8.17 14.09-9.96 24.72-18.27 10.71-8.17-14.09 9.96-24.72 18.27-10.71Zm9.74 29.02c4.65 7.71-5.91 13.91-10.38 6.08-4.65-7.71 5.91-13.91 10.38-6.08Zm-9.34-41.26c1.7 2.81-2.66 5.37-4.29 2.51-1.7-2.81 2.66-5.37 4.29-2.51Z" fill="#fff"/><path d="M361.47 453.31c16.36 40.54 56.96 24.78 41.69-16.18-16.36-40.54-56.96-24.78-41.69 16.18Z" fill="#333"/><path d="M375.72 435.75c5.97 15.15 25.56 7.55 19.74-7.66-5.97-15.16-25.56-7.55-19.74 7.66Zm16.69 25.66c3.16 8.44 14.58 4.01 11.21-4.35-3.16-8.44-14.57-4.01-11.21 4.35Zm-26.53-32.95c1.14 3.08 5.86 1.25 4.63-1.8-1.15-3.08-5.87-1.25-4.63 1.8Z" fill="#fff"/><path d="M305.34 555.93c30.43-15.24 14.85-47.46-15.99-33.08-27.74 13.16-17.7 44.75 11.9 34.76l18.81 38.9c-5.13.72-10.63-.31-15.2-2.4-1.6-.73-2.48 1.85-.89 2.57 6.85 3.13 15.04 3.69 22.12 1.01 7.63-2.89 11-10.13 9.99-17.96-.22-1.75-2.9-1.24-2.68.49 1.1 7.63-3.2 13.8-10.59 15.71l-19-39.31c.52-.22 1.03-.45 1.54-.7Z" fill="#c66"/><path d="M293.49 175.03c-55.8-46.69-34.98-110.93 27.22-133.36 21.27 45.39 15.69 97.29-27.22 133.36Z" fill="#6f9"/><path d="M289.96 191.43c37.96-62.07 104.57-50.94 135.92 7.27-41.76 27.72-93.91 29.86-135.92-7.27Zm312.37 346.45c-28.46-66.96 19.31-114.7 84.9-106.39-1.71 50.1-30.28 93.78-84.9 106.39Zm132.01 32.66c-28.46-66.96 19.31-114.7 84.9-106.39-1.71 50.1-30.28 93.78-84.9 106.39Z" fill="#6f9"/></svg>