<svg xmlns="http://www.w3.org/2000/svg" viewBox="0 0 120.91 97.53"><title>Asset 4</title><path d="M115.56,41.15c3.73-6.51,7-13.93,4.42-21.47-2.36-6.85-9.17-10.87-16.21-8.67-5.49,1.71-8.69,6-12,10.26a22.34,22.34,0,0,0-4-13.93C83.3,1.2,74.75-2.21,67.68,1.6,59.5,6,57.78,16.47,57.85,24.9a94.19,94.19,0,0,0,4.73,28.19A91.67,91.67,0,0,0,77.11,80.83l.15.37c.8,2,3.73,3.1,5.45,1.49A179.88,179.88,0,0,0,115.56,41.15Z" fill="#e83758"/><path d="M48.89,97.53c1.63,0,2.62-1.89,2.14-3.27L50.94,94a63.64,63.64,0,0,0-5.19-21A65.31,65.31,0,0,0,35.29,56.27c-3.82-4.39-9.5-9-15.74-7.54-5.41,1.26-8.27,6.94-7.79,12.18a15.43,15.43,0,0,0,4.33,9c-3.65-.69-7.27-1.45-10.9.18C.54,72.19-1.14,77.39.78,82c2.1,5.09,7.21,7.41,12.11,9.07A124.27,124.27,0,0,0,48.89,97.53Z" fill="#eb5556"/><path d="M38.23,37.79a1.63,1.63,0,0,0,2.09-1.52,1.09,1.09,0,0,0,0-.18,42,42,0,0,0,1.73-14.23A43,43,0,0,0,39.52,9c-1.33-3.62-3.76-7.81-8-8.38C27.9.17,24.8,3,23.86,6.37a10.23,10.23,0,0,0,.55,6.6c-2.1-1.28-4.16-2.61-6.79-2.45a5.94,5.94,0,0,0-5.54,6.33c.11,3.65,2.72,6.29,5.37,8.48A82.3,82.3,0,0,0,38.23,37.79Z" fill="#eb5556"/></svg>