<svg xmlns="http://www.w3.org/2000/svg" viewBox="0 0 151.46 107.55"><title>Asset 5</title><path d="M69,43.13c-4.68-7.64-10.57-15.37-20-17-8.54-1.46-16.68,3.37-18.42,12-1.36,6.75,1.31,12.58,3.87,18.48C29.37,53.7,23.68,52,17.6,52.79,8.56,54,.07,61,0,70.6-.08,81.71,9.89,89.52,18.77,94.3A112.68,112.68,0,0,0,51,105.56a109.87,109.87,0,0,0,37.46.72l.47,0c2.51.29,5.4-2.13,4.69-4.85A215.11,215.11,0,0,0,69,43.13Z" fill="#eb5556"/><path d="M144.84,38.93c3.88-4.77,7.53-10.33,6.42-16.78-1-5.86-6-10-12-9.17-4.67.67-7.83,3.73-11.06,6.72a18.22,18.22,0,0,0-1.37-11.79C124,2.34,117.56-1.55,111.34.6c-7.21,2.48-10,10.71-11,17.55a77.59,77.59,0,0,0,.09,23.42A75.18,75.18,0,0,0,108.48,66c0,.1,0,.21.07.31.38,1.69,2.61,3,4.21,1.93A147.3,147.3,0,0,0,144.84,38.93Z" fill="#e83758"/></svg>