<svg xmlns="http://www.w3.org/2000/svg" viewBox="0 0 495.22 493.74">
    <title>Asset 2</title>
    <path
        d="M210.7,487a45.71,45.71,0,0,1,10.17,2.15c2.29.82,2.8,1.28,5.32,1.28s4.69,1,7.14,1.42c4.77.82,9.75.31,14.57.88,4.09.49,7.8,1.37,11.92.93,5-.53,9.8-4.84,13.62-7.8,26.47-20.48,41.21-54.8,56-84.22l39-77.52c2.88-5.73,5.84-11.85,5.2-18.23-1.26-12.65-15.32-19.47-27.64-22.57s-26.56-6-32.79-17.1c-3.91-6.94-3.85-16.07-9.45-21.74-8.63-8.73-23.49-3.31-35.41-6.24-17.15-4.22-30.28-26.17-47-20.4-3.38,1.17-6.5,3.49-10.07,3.45-4.31,0-7.73-3.43-11.49-5.52-12.59-7-29,1.35-37,13.32s-10.51,26.67-15.63,40.13c-4.07,10.73-13.19,27.17-26.15,28.83-12.34,1.58-20.37-8.18-32.73,2.28-5.36,4.53-9,11-12.42,17.14-10.07,18-15.84,36.38-9.39,56.76,7.07,22.32,22.41,41.3,40.35,56.35s38.52,26.56,59,38c14.27,8,30.68,9.44,44.45,17a19.84,19.84,0,0,0,10.41,1.68,37.6,37.6,0,0,0,4.65-1.38c2.36-.63,4.92-.27,7.2-1.19"
        fill="#f1ecb2" />
    <path
        d="M385.72,260.86A9.2,9.2,0,0,1,382.6,264c-3.73,2.68-10.59,7-8.8,12.48,3.84,11.75,11.74,15.33,23.55,11q16.22-6,32.33-12.21c8.53-3.29,17.08-6.66,25-11.29a89.28,89.28,0,0,0,39.12-48.2c1.43-4.26,2.43-9.28-.12-13-3.49-5-11.13-4.4-16.93-2.38-26.08,9.13-43.65,33.4-67.27,47.74-10.41,6.32-22.32,11-30,20.39"
        fill="#efe9a9" />
    <path
        d="M316.52,222.36c.87,1.19,14.17,7.1,17.36,6.28,14.71-3.79,34.9-42.47,43.43-54.65,16.22-23.16,30.82-47.61,41.1-74,3.06-7.86,5.77-16.12,5.21-24.53s-5.07-17-12.86-20.25c-8.05-3.31-17.6,0-24.05,5.8s-10.46,13.84-14.32,21.64L317.25,194c-4.06,8.18-9.64,21.13-.73,28.36"
        fill="#efe9a9" />
    <path
        d="M305.15,22.76c6.63-7.14,17.57-11,26.44-7,8.68,3.91,13.07,14.15,12.91,23.67s-4,18.55-7.7,27.3c-17.55,41-31.56,88.47-54.22,126.59-5.78,9.74-15.61,6-24.62.58-2.95-1.76-3.34-5.81-3.27-9.25a151.13,151.13,0,0,1,16.15-65.16c5.56-11,12.5-21.39,16.31-33.11,3.89-11.93,4.36-24.66,6.58-37C295.47,39.78,298.48,30,305.15,22.76Z"
        fill="#efe9a9" />
    <path
        d="M177.8,186.75c-1.07-1.84-.8-10.84-1.27-12.95-3.16-14,1.62-30.62,2.7-45.2q2.33-31.38,4.64-62.74c1.13-15.34,2.33-30.94,8-45.25,2.85-7.22,7.1-14.32,13.84-18.16s16.4-3.34,21.18,2.77c4,5.07,3.63,12.17,3.07,18.59q-6.4,72.56-19.41,144.33c-1.07,5.93-2.3,12.12-6.1,16.81C197.3,193.73,186.82,188.67,177.8,186.75Z"
        fill="#efe9a9" />
    <path
        d="M54.15,298.18c10.36,14.1,30.16-6.55,31.82-18,2.2-15.33-12.75-32.57-17.14-46.62-2.44-7.81-4.62-15.72-7.6-23.34-4.41-11.28-11-22.33-21.38-28.57s-25.22-6.2-33.48,2.66c-9.72,10.43-6.69,27.15-1.62,40.47,9.16,24.08,28.55,64.32,52.06,77.57"
        fill="#efe9a9" />
    <path
        d="M278.61,349.47c3.36-6.64,4.93-15,1.62-22-3.66-7.72-11.92-10.68-20-10.36-12.15.48-24,5.54-34.21,12.63.53-9-.51-18.28-4.54-25.79-6.7-12.48-22.58-16.23-32.37-4.92-8.55,9.87-12.35,25.4-14.41,38a2.13,2.13,0,0,0,0,.25,114.75,114.75,0,0,0-2.36,19.2c-.47,10.91-.17,21.86.2,32.76.21,5.86.68,11.71,1.17,17.55s.8,12.12,2.95,17.51a3.23,3.23,0,0,0,2.92,2.14,6.69,6.69,0,0,0,7.16-.22c16.84-12.54,33.49-25.35,50.22-38C251.42,377.24,270.13,366.22,278.61,349.47Z"
        fill="rgba(229,62,62,0.18)" />
</svg>