<svg xmlns="http://www.w3.org/2000/svg" viewBox="0 0 2024.85 2024.85">
    <title>dinoAsset 3</title>
    <rect width="2024.85" height="2024.85" fill="none" />
    <path
        d="M667.22,312.69c-11.87-11.06-28-18.62-44.08-16.42-29.24,4-44.76,36.1-53.51,64.29a793.17,793.17,0,0,0-26,115.19c0,1.39,193.6-52.09,193.6-52.09C723.7,400.3,709.06,375.33,695.53,352,687.4,338,679.08,323.72,667.22,312.69Z"
        fill="#ffcb47" />
    <path
        d="M1044.13,327.78c-17-7.48-36.52,1.07-52.12,11.1A274.33,274.33,0,0,0,906.32,428l166.38,63.79a592.27,592.27,0,0,0-1.53-110.92C1068.92,360.14,1063.17,336.22,1044.13,327.78Z"
        fill="#ffcb47" />
    <path
        d="M1327.87,661.23c13.78-22.43,25.07-52.14,10.07-73.74-13.62-19.57-41.47-21.59-65.24-19.79A457,457,0,0,0,1165.43,589l61.27,183.79A407.71,407.71,0,0,0,1327.87,661.23Z"
        fill="#ffcb47" />
    <path
        d="M1420.81,924.18c-3.42-17.24-19-30-35.8-35.21s-34.8-4.29-52.35-3.29c-29.32,1.64-58.71,3.3-88,5-5,72.39,23.84,132.6,67.94,187.25q41.1-47.21,82.16-94.41C1409.46,966.56,1425.16,946.16,1420.81,924.18Z"
        fill="#ffcb47" />
    <path
        d="M1458,1206.74a458.26,458.26,0,0,0-79.26,14.91l81.37,155,50.1-76.35c14.17-21.61,28.7-49.2,16-71.69C1513.74,1206.58,1483.19,1204.26,1458,1206.74Z"
        fill="#ffcb47" />
    <path
        d="M1698.5,1511.82c-3.27-23.56-13.58-49.52-36.06-57.29-21.46-7.4-44.28,4.87-63.68,16.72q-17.65,10.76-35.29,21.55L1698.19,1568A197.93,197.93,0,0,0,1698.5,1511.82Z"
        fill="#ffcb47" />
    <path
        d="M482.19,1411c0-61.63-34.84-85-74.61-88.92s-77.3,24.32-95.89,59.7S292.13,1460.75,291,1500.7c-1.12,38.55,9.41,131.86,25.57,166.87,43.25,93.7,144.76,47.72,196.3,46.78,226.77-4.16,859.57-34.56,1202.39-19.25,146.17,6.52,121-75.1,22.94-114.08-63.29-25.15-187-89.06-231.21-139.1-59-66.78-251.08-458.55-266.32-572.19s-29.92-244.53-110.81-325.79C1040.4,454.08,967.61,428.64,841,422.12,722.14,416,597.89,435,499.42,501.81s-165,188.58-142.71,305.48,156.2,182.32,263.25,192c-37.76,76.71-92.1,274.3-77.05,412.2Z"
        fill="#6eec99" />
    <path
        d="M807.48,581.94l-3.57-1.28C778.67,573,750,599,755.11,624.88s41.6,38.93,62,22.21S831.85,592.05,807.48,581.94Z"
        fill="#1a1d3f" />
    <path
        d="M809.06,1278.92a128.47,128.47,0,0,1-38.8-5.82c-49.08-15.56-82.25-65.45-74-111.21,6.82-37.64,36.57-64.24,61.73-83.21,4-3,8.08-6,12.16-9,21.13-15.51,41.08-30.15,53.2-50.1a15.82,15.82,0,0,1,27,16.43c-15.38,25.31-38.84,42.52-61.52,59.17-4,2.92-7.93,5.82-11.84,8.76-20.55,15.51-44.77,36.75-49.64,63.6-5.47,30.15,18.52,64.68,52.38,75.41,31.82,10.09,70.91,2.53,104.56-20.21s58.14-56.44,77.66-86.41a15.82,15.82,0,1,1,26.51,17.26c-21.24,32.63-48.13,69.47-86.46,95.37C873,1268.59,840.18,1278.92,809.06,1278.92Z"
        fill="#1a1d3f" />
    <path
        d="M542.91,1427.34a15.82,15.82,0,0,1-.19-31.64c14.37-.18,27.43-.44,40.06-.69,30.43-.6,59.17-1.17,103.26-.59a15.82,15.82,0,0,1-.2,31.63h-.21c-43.57-.57-72.06,0-102.22.6-12.69.25-25.82.51-40.3.68Z"
        fill="#1a1d3f" />
</svg>