<svg xmlns="http://www.w3.org/2000/svg" viewBox="0 0 2024.8 2024.8" xml:space="preserve"><path d="M0 0h2024.8v2024.8H0V0z" fill="none"/><path d="M667.2 312.7c-93.4-70.6-111.7 103.5-123.6 163.1 0 1.4 193.6-52.1 193.6-52.1-23.4-36.5-40.5-79.1-70-111zm376.9 15.1C993 313.1 930.9 389 906.3 428l166.4 63.8c.2-42.3 13.2-141.5-28.6-164zm283.8 333.4c71.6-125.2-94.1-96.2-162.4-72.2l61.3 183.8c40.3-30.6 74.6-68.4 101.1-111.6zm92.9 263c-16.7-63.4-126.8-31.2-176.2-33.5-5 72.4 23.8 132.6 67.9 187.2 26-37.2 117.4-112.4 108.3-153.7zm37.2 282.5c-26.8 2.6-53.3 7.6-79.3 14.9l81.4 155c18.4-37.1 88.2-104.7 66.1-148-12.5-22-43-24.3-68.2-21.9zm240.5 305.1c-17.2-95.2-79.8-55.1-135-19l134.7 75.2c2.8-18.6 2.9-37.5.3-56.2z" fill="#ffcb47"/><path d="M482.2 1411c.7-115.7-132.8-110.4-170.5-29.2-35.7 82.5-22 202.1 4.9 285.8 43.3 93.7 144.8 47.7 196.3 46.8 226.8-4.2 859.6-34.6 1202.4-19.2 146.2 6.5 121-75.1 22.9-114.1-63.3-25.2-187-89.1-231.2-139.1-59-66.8-251.1-458.5-266.3-572.2s-29.9-244.5-110.8-325.8c-158.4-167.7-444.1-154.5-630.4-42.1C262.8 665.4 323.7 977.3 620 999.3c-37.8 76.7-92.1 274.3-77 412.2l-60.8-.5z" fill="#6eec99"/><path d="M807.5 581.9c-25.8-11.3-57.8 15.7-52.4 42.9 5.1 25.9 41.6 38.9 62 22.2s14.7-54.9-9.6-65.1zm1.6 697c-63.1 3.5-124.5-57.3-112.8-117 13.9-71.8 92.6-89.4 127.1-142.3 4.9-7.2 14.7-9.2 22-4.3 33.6 46-117.2 96.5-118 152.2-5.5 30.1 18.5 64.7 52.4 75.4 72 24.8 149.4-48.4 182.2-106.6 11.2-17.4 37.6-1.1 26.9 16.7-34.3 58.4-104.2 128.9-179.8 125.9zm-266.2 148.4c-20.6 0-20.9-31.4-.2-31.6 52.3-.7 81.6-2.1 143.3-1.3 20.3.7 19.9 31.5-.4 31.6-61.3-.7-90.5.7-142.7 1.3z" fill="#1a1d3f"/></svg>