<svg xmlns="http://www.w3.org/2000/svg" viewBox="0 0 2024.85 2024.85"><path fill="none" d="M0 0h2024.85v2024.85H0z"/><path d="M667.22 312.69c-11.87-11.06-28-18.62-44.08-16.42-29.24 4-44.76 36.1-53.51 64.29a793.17 793.17 0 0 0-26 115.19c0 1.39 193.6-52.09 193.6-52.09-13.53-23.36-28.17-48.33-41.7-71.66-8.13-14-16.45-28.28-28.31-39.31Zm376.91 15.09c-17-7.48-36.52 1.07-52.12 11.1A274.33 274.33 0 0 0 906.32 428l166.38 63.79a592.27 592.27 0 0 0-1.53-110.92c-2.25-20.73-8-44.65-27.04-53.09Zm283.74 333.45c13.78-22.43 25.07-52.14 10.07-73.74-13.62-19.57-41.47-21.59-65.24-19.79a457 457 0 0 0-107.27 21.3l61.27 183.79a407.71 407.71 0 0 0 101.17-111.56Zm92.94 262.95c-3.42-17.24-19-30-35.8-35.21s-34.8-4.29-52.35-3.29c-29.32 1.64-58.71 3.3-88 5-5 72.39 23.84 132.6 67.94 187.25q41.1-47.21 82.16-94.41c14.7-16.96 30.4-37.36 26.05-59.34Zm37.19 282.56a458.26 458.26 0 0 0-79.26 14.91l81.37 155 50.1-76.35c14.17-21.61 28.7-49.2 16-71.69-12.47-22.03-43.02-24.35-68.21-21.87Zm240.5 305.08c-3.27-23.56-13.58-49.52-36.06-57.29-21.46-7.4-44.28 4.87-63.68 16.72q-17.65 10.76-35.29 21.55l134.72 75.2a197.93 197.93 0 0 0 .31-56.18Z" fill="#ffcb47"/><path d="M482.19 1411c0-61.63-34.84-85-74.61-88.92s-77.3 24.32-95.89 59.7-19.56 78.97-20.69 118.92c-1.12 38.55 9.41 131.86 25.57 166.87 43.25 93.7 144.76 47.72 196.3 46.78 226.77-4.16 859.57-34.56 1202.39-19.25 146.17 6.52 121-75.1 22.94-114.08-63.29-25.15-187-89.06-231.21-139.1-59-66.78-251.08-458.55-266.32-572.19s-29.92-244.53-110.81-325.79C1040.4 454.08 967.61 428.64 841 422.12 722.14 416 597.89 435 499.42 501.81s-165 188.58-142.71 305.48 156.2 182.32 263.25 192c-37.76 76.71-92.1 274.3-77.05 412.2Z" fill="#6eec99"/><path d="m807.48 581.94-3.57-1.28C778.67 573 750 599 755.11 624.88s41.6 38.93 62 22.21 14.74-55.04-9.63-65.15Zm1.58 696.98a128.47 128.47 0 0 1-38.8-5.82c-49.08-15.56-82.25-65.45-74-111.21 6.82-37.64 36.57-64.24 61.73-83.21 4-3 8.08-6 12.16-9 21.13-15.51 41.08-30.15 53.2-50.1a15.82 15.82 0 0 1 27 16.43c-15.38 25.31-38.84 42.52-61.52 59.17-4 2.92-7.93 5.82-11.84 8.76-20.55 15.51-44.77 36.75-49.64 63.6-5.47 30.15 18.52 64.68 52.38 75.41 31.82 10.09 70.91 2.53 104.56-20.21s58.14-56.44 77.66-86.41a15.82 15.82 0 1 1 26.51 17.26c-21.24 32.63-48.13 69.47-86.46 95.37-29 19.63-61.82 29.96-92.94 29.96Zm-266.15 148.42a15.82 15.82 0 0 1-.19-31.64c14.37-.18 27.43-.44 40.06-.69 30.43-.6 59.17-1.17 103.26-.59a15.82 15.82 0 0 1-.2 31.63h-.21c-43.57-.57-72.06 0-102.22.6-12.69.25-25.82.51-40.3.68Z" fill="#1a1d3f"/></svg>