<svg xmlns="http://www.w3.org/2000/svg" viewBox="0 0 225 150"><path d="M112.5 52.03c-32.6 0-53.65 13.9-53.65 35.45 0 25.95 27.85 42.05 53.65 42.05s53.65-16.1 53.65-42.05c0-21.55-21.05-35.45-53.65-35.45Zm0 67.5c-21.05 0-43.65-12.9-43.65-32.05s23.5-25.45 43.65-25.45 43.65 6.65 43.65 25.45-22.6 32.05-43.65 32.05Zm61.88-90.62c0 4.66-5.04 8.44-11.25 8.44s-11.25-3.78-11.25-8.44 5.04-8.44 11.25-8.44 11.25 3.78 11.25 8.44Zm-112.5-8.44c6.21 0 11.25 3.78 11.25 8.44s-5.04 8.44-11.25 8.44-11.25-3.78-11.25-8.44 5.04-8.44 11.25-8.44Zm70.33 54.06c-7.55 0-13.45 7.15-13.45 16.25s5.9 16.25 13.45 16.25 13.4-7.15 13.4-16.25-5.9-16.25-13.4-16.25Zm0 22.5c-1.4 0-3.45-2.45-3.45-6.25s2.05-6.25 3.45-6.25 3.4 2.45 3.4 6.25-2 6.25-3.4 6.25Zm-39.4-22.5c-7.5 0-13.4 7.15-13.4 16.25s5.9 16.25 13.4 16.25 13.45-7.15 13.45-16.25-5.9-16.25-13.45-16.25Zm0 22.5c-1.4 0-3.4-2.45-3.4-6.25s2-6.25 3.4-6.25 3.45 2.45 3.45 6.25-2.05 6.25-3.45 6.25Z"/></svg>