<svg xmlns="http://www.w3.org/2000/svg" viewBox="0 0 225 150"><path d="M172.5 24.95c0 5.52-5.97 10-13.33 10s-13.33-4.48-13.33-10 5.97-10 13.33-10 13.33 4.48 13.33 10Zm-120 0c0 5.52 5.97 10 13.33 10s13.33-4.48 13.33-10-5.97-10-13.33-10-13.33 4.48-13.33 10Zm48.94 50.94a3.21 3.21 0 0 0 0-4.55l-20-20a3.21 3.21 0 0 0-4.55 0 3.21 3.21 0 0 0 0 4.55l20 20c.63.63 1.45.94 2.27.94s1.64-.31 2.27-.94Zm26.67 0 20-20a3.21 3.21 0 0 0 0-4.55 3.21 3.21 0 0 0-4.55 0l-20 20a3.21 3.21 0 0 0 0 4.55c.63.63 1.45.94 2.27.94s1.64-.31 2.27-.94Zm57.49 19.39c0-3.55-2.88-6.43-6.43-6.43s-6.43 2.88-6.43 6.43c0 12.73-24.74 26.9-60.24 26.9S52.26 108 52.26 95.28c0-3.55-2.88-6.43-6.43-6.43s-6.43 2.88-6.43 6.43c0 22.3 32.11 39.76 73.09 39.76s73.09-17.47 73.09-39.76Z"/></svg>