<svg xmlns="http://www.w3.org/2000/svg" viewBox="0 0 276 276"><title>Asset 7</title><path d="M119.2,195.9l-13,4.25,8.73-2.84-8.82,2.58.09.26,8.73-2.84-8.82,2.58,1.75-.51-1.77.46,0,0,1.75-.51-1.77.46a13.33,13.33,0,0,1,.41,3.56,20.31,20.31,0,0,1-.77,5.45A28.9,28.9,0,0,1,99,220.35c-4,4.44-10.32,9.51-20.43,14.54L85,246.35l13.74-1.26h0c0-.25-.09-1.22-.09-2.68a51.19,51.19,0,0,1,.76-8.79,42.33,42.33,0,0,1,2.21-8,27.77,27.77,0,0,1,6.91-10.48,24.07,24.07,0,0,1,5.54-3.82,31.87,31.87,0,0,1,8-2.7L119.2,195.9l-13,4.25,13-4.25-2.93-12.67a56.46,56.46,0,0,0-24.72,11.34,51.18,51.18,0,0,0-11.3,13,61.56,61.56,0,0,0-7.67,19.87,75.62,75.62,0,0,0-1.51,15c0,3,.19,4.86.22,5.21a12.94,12.94,0,0,0,7.21,10.16,14.55,14.55,0,0,0,13,0,105.68,105.68,0,0,0,21.05-13.48c8.48-7.09,14-14.7,17.28-21.88a46.12,46.12,0,0,0,4.25-19,35,35,0,0,0-1.83-11.75c-2.29-6.21-9.13-9.82-16-8.42Z" fill="#f4efb5"/><path d="M130.34,196.14l-5,12.08,2.5-6-2.78,5.9.28.1,2.5-6-2.78,5.9.17.07a20.59,20.59,0,0,1,3.25,2,28.28,28.28,0,0,1,8,9.3c2.55,4.68,4.72,11.26,4.74,21a85.73,85.73,0,0,1-2.53,19.67L152.15,263,160,252.39l-5.29,7.13,5.34-7.11-.05,0-5.29,7.13,5.34-7.11-.42.55.42-.54h0l-.42.55.42-.54a65.49,65.49,0,0,1-11.8-10.79A49,49,0,0,1,141,230.54a30.27,30.27,0,0,1-3-12.73,30.93,30.93,0,0,1,4.49-15.53l-12.17-6.14-5,12.08,5-12.08L118.18,190a55.63,55.63,0,0,0-7.76,27.8A55,55,0,0,0,116,241.52,80.57,80.57,0,0,0,133.53,265a83.35,83.35,0,0,0,10.72,8.7,14.49,14.49,0,0,0,12.9,1.45,13.22,13.22,0,0,0,8.47-9.26,109.58,109.58,0,0,0,3.19-25.32,71.06,71.06,0,0,0-4.72-26.38,55.82,55.82,0,0,0-17-23.17,45.19,45.19,0,0,0-11.71-6.92A14.21,14.21,0,0,0,118.18,190Z" fill="#f4efb5"/><path d="M142.64,131.34l13.56,2.38L150,132.64l6.13,1.22,0-.14L150,132.64l6.13,1.22a37,37,0,0,1,3.09-7.74,57.52,57.52,0,0,1,8.42-12.07c6-6.61,14.85-13.7,28.56-19.32s32.4-9.73,58-9.73c2.43,0,4.93,0,7.48.11l.44-13L249.6,66.84,254,68.68l-4.35-1.86v0L254,68.68l-4.35-1.86a124.29,124.29,0,0,1-21.1,29,96.47,96.47,0,0,1-24.81,18.71,71.43,71.43,0,0,1-33,8.06,84.17,84.17,0,0,1-24-3.66l-4.14,12.38,13.56,2.38-13.56-2.38-4.15,12.37a113.52,113.52,0,0,0,32.25,4.85A100.52,100.52,0,0,0,217.52,137,120,120,0,0,0,243,119.09,151.84,151.84,0,0,0,266.7,91.26a121.52,121.52,0,0,0,8.09-13.81,12.27,12.27,0,0,0-.89-12.18,14,14,0,0,0-11.26-6.09q-4.27-.12-8.37-.12c-26.4,0-47.63,3.93-64.58,10.15a113.94,113.94,0,0,0-31.1,17,87.64,87.64,0,0,0-23.82,28,58,58,0,0,0-5.7,14.82c-1.29,6.47,2.75,12.79,9.42,14.76Z" fill="#f4efb5"/><path d="M104.34,121l13,4.41c.4-1,3.31-8.91,3.32-21.24a81.7,81.7,0,0,0-3.06-21.92C114.15,70,107.26,56.09,94.92,42.2s-30-27.79-55-40.6a14.52,14.52,0,0,0-13-.13A13,13,0,0,0,19.6,11.54a110.45,110.45,0,0,0-.55,11.65,148.06,148.06,0,0,0,2.26,25.63A125.39,125.39,0,0,0,28.08,73a98,98,0,0,0,24.59,36.42,94.49,94.49,0,0,0,21,14.59,112.8,112.8,0,0,0,27.5,9.67c6.82,1.49,13.71-2,16.09-8.22l-13-4.41,3.11-12.64c-14.15-3.1-24.49-8.44-32.55-15A66.84,66.84,0,0,1,60.3,76.64a89.88,89.88,0,0,1-11.16-29,122.13,122.13,0,0,1-2.48-24.49c0-2.87.1-5.16.2-6.68,0-.77.1-1.34.14-1.69l0-.38v0l-5.23-.53,5.23.55v0l-5.23-.53,5.23.55L33.32,13,26.7,24.35C41.64,32,53.2,39.89,62.15,47.53,75.57,59,83.14,70,87.5,79.64A59.52,59.52,0,0,1,93,104.19a47.6,47.6,0,0,1-1,9.75c-.23,1.09-.46,1.89-.6,2.34-.07.23-.11.38-.13.43v0l5.87,1.85-5.82-2,0,.13,5.87,1.85-5.82-2,13,4.42,3.11-12.64Z" fill="#f4efb5"/><path d="M167.57,116.28l-9.76-9.18A108.86,108.86,0,0,1,137,122.71a51.19,51.19,0,0,1-8.16,3.75,14.11,14.11,0,0,1-4,.9h0l0,1.56.29-1.53-.24,0,0,1.56.29-1.53-.9,4.68,2.21-4.25a5.59,5.59,0,0,0-1.31-.43l-.9,4.68,2.21-4.25-3.05,5.87,4.9-4.62a6.64,6.64,0,0,0-1.85-1.25l-3.05,5.87,4.9-4.62-4.68,4.41,6.3-2a6.45,6.45,0,0,0-1.61-2.37l-4.69,4.41,6.3-2L126,132.7l4.08-.57a5.58,5.58,0,0,0-.19-.69L126,132.7l4.08-.57-1.74.24,1.75-.12v-.12l-1.74.24,1.75-.12-.28,0H130l-.28,0H130v0a12.51,12.51,0,0,1,1-3.75,55,55,0,0,1,7.14-12.27,112.64,112.64,0,0,1,13.44-15,109.19,109.19,0,0,1,20.81-15.6,49.93,49.93,0,0,1,8.16-3.75,14.82,14.82,0,0,1,4-.91h0l.06-1.56-.3,1.53.24,0,.06-1.56-.3,1.53.91-4.67L183,80.55a5.25,5.25,0,0,0,1.31.42l.91-4.67L183,80.55l3.06-5.87-4.91,4.62A7.45,7.45,0,0,0,183,80.55l3.06-5.87-4.91,4.62,4.69-4.41-6.3,2a6.27,6.27,0,0,0,1.61,2.38l4.69-4.41-6.3,2,3.89-1.25-4.08.57a3.32,3.32,0,0,0,.19.68l3.89-1.25-4.08.57,1.74-.24-1.75.11v.13l1.74-.24-1.75.11.29,0h-.29l.29,0h-.29v0a12.58,12.58,0,0,1-1,3.75,55,55,0,0,1-7.14,12.26,114.1,114.1,0,0,1-13.44,15l9.76,9.17,9.76,9.16a129.4,129.4,0,0,0,20.81-24.66,70.32,70.32,0,0,0,6.22-12.11A35.16,35.16,0,0,0,207,76.13a22,22,0,0,0-1.3-7.64,19.58,19.58,0,0,0-5-7.54,21.13,21.13,0,0,0-8-4.67,26.18,26.18,0,0,0-8.12-1.22,41.82,41.82,0,0,0-13.35,2.45,87.92,87.92,0,0,0-19.42,9.8,144,144,0,0,0-19.7,15.61,130.47,130.47,0,0,0-20.82,24.66A69.27,69.27,0,0,0,105,119.7a35.16,35.16,0,0,0-2.6,12.54,22.16,22.16,0,0,0,1.29,7.63,19.57,19.57,0,0,0,5,7.55,21.43,21.43,0,0,0,8,4.67,26.83,26.83,0,0,0,8.12,1.22,42,42,0,0,0,13.35-2.45,88.7,88.7,0,0,0,19.43-9.81,143.17,143.17,0,0,0,19.7-15.6Z" fill="#f4efb5"/><path d="M93.31,186.08l-9.76-9.17a108.35,108.35,0,0,1-20.81,15.6,50.31,50.31,0,0,1-8.16,3.75,14.34,14.34,0,0,1-4,.91h0l-.05,1.56.29-1.53-.24,0-.05,1.56.29-1.53-.9,4.67,2.21-4.24a5.14,5.14,0,0,0-1.31-.43l-.9,4.67,2.21-4.24-3.06,5.86L54,198.88a6.64,6.64,0,0,0-1.85-1.25l-3.06,5.86L54,198.88l-4.68,4.41,6.3-2A6.29,6.29,0,0,0,54,198.88l-4.68,4.41,6.3-2-3.89,1.26,4.07-.58a4.1,4.1,0,0,0-.18-.68l-3.89,1.26,4.07-.58-1.73.25,1.75-.12,0-.13-1.73.25,1.75-.12-.28,0h.28l-.28,0h.28v0a12.51,12.51,0,0,1,1-3.75A55,55,0,0,1,63.89,186a112.64,112.64,0,0,1,13.44-15,109.19,109.19,0,0,1,20.81-15.6,49.93,49.93,0,0,1,8.16-3.75,14.74,14.74,0,0,1,4-.91h0l.06-1.56-.3,1.53.24,0,.06-1.56-.3,1.53.91-4.68-2.22,4.26a5.25,5.25,0,0,0,1.31.42l.91-4.68-2.22,4.26,3.06-5.87-4.91,4.61a6.91,6.91,0,0,0,1.85,1.26l3.06-5.87-4.91,4.61h0l4.69-4.41-6.3,2a6.27,6.27,0,0,0,1.61,2.38l4.69-4.41-6.3,2,3.89-1.25-4.08.57a3.32,3.32,0,0,0,.19.68l3.89-1.25-4.08.57,1.74-.24-1.75.11v.13l1.74-.24-1.75.11.29,0h-.29l.29,0h-.3v0a12.58,12.58,0,0,1-1,3.75A55.24,55.24,0,0,1,97,162a113.43,113.43,0,0,1-13.44,15l9.76,9.17,9.76,9.17a130.39,130.39,0,0,0,20.81-24.66,70.32,70.32,0,0,0,6.22-12.11,35.16,35.16,0,0,0,2.6-12.54,22,22,0,0,0-1.3-7.64,19.58,19.58,0,0,0-5-7.54h0a21.06,21.06,0,0,0-8-4.67,26.18,26.18,0,0,0-8.12-1.22,41.77,41.77,0,0,0-13.35,2.45,87.92,87.92,0,0,0-19.42,9.8,144,144,0,0,0-19.7,15.61A130.47,130.47,0,0,0,37,177.39a69.55,69.55,0,0,0-6.21,12.11,35.21,35.21,0,0,0-2.6,12.55,22.16,22.16,0,0,0,1.29,7.63,19.46,19.46,0,0,0,5,7.54,21.33,21.33,0,0,0,8,4.68,26.5,26.5,0,0,0,8.12,1.21,42,42,0,0,0,13.35-2.44,88.7,88.7,0,0,0,19.43-9.81,143.88,143.88,0,0,0,19.7-15.61Z" fill="#f4efb5"/><path d="M141.84,186.08l9.76-9.18A104.56,104.56,0,0,1,135,157.35a45,45,0,0,1-4-7.67,12.51,12.51,0,0,1-1-3.75v0l-1.65-.06,1.62.28,0-.22-1.65-.06,1.62.28-5-.85,4.52,2.08a4.28,4.28,0,0,0,.45-1.23l-5-.85,4.52,2.08-6.25-2.87,4.92,4.61a6.56,6.56,0,0,0,1.33-1.74l-6.25-2.87,4.92,4.61-4.69-4.4,2.16,5.92a6.85,6.85,0,0,0,2.53-1.52l-4.69-4.4,2.16,5.92L124.37,147l.61,3.83a4,4,0,0,0,.72-.17L124.37,147l.61,3.83-.26-1.64.12,1.66.14,0-.26-1.64.12,1.66,0-.27v.27h0l0-.27v.27h0a14.34,14.34,0,0,1,4,.91,60.54,60.54,0,0,1,13.05,6.71,116.49,116.49,0,0,1,15.92,12.63,104.56,104.56,0,0,1,16.6,19.55,45,45,0,0,1,4,7.67,12.51,12.51,0,0,1,1,3.75v0l1.66,0-1.63-.27,0,.22,1.66,0-1.63-.27,5,.85-4.52-2.08a4.61,4.61,0,0,0-.45,1.23l5,.85-4.52-2.08,6.24,2.87-4.91-4.61a6.56,6.56,0,0,0-1.33,1.74l6.24,2.87-4.91-4.61,4.69,4.4-2.16-5.92a6.93,6.93,0,0,0-2.53,1.52l4.69,4.4-2.16-5.92,1.33,3.65-.6-3.82a3.86,3.86,0,0,0-.73.17l1.33,3.65-.6-3.82.25,1.63-.12-1.65-.13,0,.25,1.63-.12-1.65,0,.26v-.26h0l0,.26v-.26h0a14.77,14.77,0,0,1-4-.91,60.77,60.77,0,0,1-13-6.71A117.1,117.1,0,0,1,151.6,176.9l-9.76,9.18-9.75,9.17a136,136,0,0,0,26.24,19.56,79.53,79.53,0,0,0,12.89,5.84,42,42,0,0,0,13.34,2.44,26.24,26.24,0,0,0,8.13-1.22,21.1,21.1,0,0,0,8-4.67,19.5,19.5,0,0,0,5-7.54A22.16,22.16,0,0,0,207,202a35.21,35.21,0,0,0-2.6-12.55,79.79,79.79,0,0,0-10.44-18.25,139.26,139.26,0,0,0-16.6-18.52,136.37,136.37,0,0,0-26.25-19.56,78.3,78.3,0,0,0-12.89-5.84,42,42,0,0,0-13.34-2.44,26.24,26.24,0,0,0-8.13,1.22,21.1,21.1,0,0,0-8,4.67,19.61,19.61,0,0,0-5,7.54,22.16,22.16,0,0,0-1.29,7.63,35.26,35.26,0,0,0,2.6,12.55,79.79,79.79,0,0,0,10.44,18.25,138.67,138.67,0,0,0,16.61,18.52Z" fill="#f4efb5"/><path d="M67.56,116.29l9.76-9.17A104.69,104.69,0,0,1,60.71,87.56a45.41,45.41,0,0,1-4-7.67,12,12,0,0,1-1-3.74v0l-1.66-.05,1.63.28,0-.23-1.66-.05,1.63.28-5-.85,4.52,2.08a4.88,4.88,0,0,0,.46-1.23l-5-.85,4.52,2.08L49,74.7l4.91,4.62a6.56,6.56,0,0,0,1.33-1.74L49,74.7l4.91,4.62h0l-4.7-4.41,2.17,5.92A6.89,6.89,0,0,0,54,79.32l-4.7-4.41,2.17,5.92-1.34-3.65L50.69,81a4.32,4.32,0,0,0,.73-.18l-1.34-3.65L50.69,81l-.26-1.64L50.56,81h.13l-.26-1.64L50.56,81l0-.28V81h0l0-.28V81h0a14.77,14.77,0,0,1,4,.91,61.24,61.24,0,0,1,13,6.71,116.65,116.65,0,0,1,15.92,12.63,104.69,104.69,0,0,1,16.61,19.56,45.79,45.79,0,0,1,4,7.67,12,12,0,0,1,1,3.74v0l1.66,0-1.63-.28,0,.23,1.66,0-1.63-.28,5,.85-4.51-2.08a4.88,4.88,0,0,0-.46,1.23l5,.85-4.51-2.08,6.23,2.87-4.91-4.6a6.48,6.48,0,0,0-1.32,1.73l6.23,2.87-4.91-4.6h0l4.69,4.41-2.17-5.92a6.86,6.86,0,0,0-2.52,1.51l4.69,4.41-2.17-5.92,1.34,3.65-.61-3.83a4.56,4.56,0,0,0-.73.18l1.34,3.65-.61-3.83.26,1.63-.12-1.64h-.14l.26,1.63-.12-1.64,0,.26v-.26h0l0,.26v-.26h0a14.77,14.77,0,0,1-4-.91,61.47,61.47,0,0,1-13.05-6.71,117.26,117.26,0,0,1-15.92-12.63l-9.76,9.17-9.76,9.17A136.21,136.21,0,0,0,84,145a77.84,77.84,0,0,0,12.89,5.84,42,42,0,0,0,13.35,2.45,26.52,26.52,0,0,0,8.12-1.22,21.16,21.16,0,0,0,8-4.68h0a19.44,19.44,0,0,0,5-7.54,21.94,21.94,0,0,0,1.3-7.63,35.6,35.6,0,0,0-2.6-12.54,79.63,79.63,0,0,0-10.44-18.26,139.32,139.32,0,0,0-16.61-18.51A135.8,135.8,0,0,0,76.81,63.37a77.84,77.84,0,0,0-12.89-5.84,41.72,41.72,0,0,0-13.35-2.45,26.22,26.22,0,0,0-8.12,1.22,21.29,21.29,0,0,0-8,4.68h0a19.46,19.46,0,0,0-5,7.55,22.18,22.18,0,0,0-1.3,7.63,35.39,35.39,0,0,0,2.61,12.54A79.57,79.57,0,0,0,41.19,107,139.32,139.32,0,0,0,57.8,125.46Z" fill="#f4efb5"/><path d="M170.09,156.18v-.62l.24-12.35h-.24v12.35l.24-12.35h-.26a129.7,129.7,0,0,1-17.89-1.2,85.83,85.83,0,0,1-10.82-2.18,46.77,46.77,0,0,1-5.91-2,14.6,14.6,0,0,1-3.91-2.19h0l-1.29,1.12,1.45-.93-.16-.19-1.29,1.12,1.45-.93-4.2,2.71,4.8-1.54a5,5,0,0,0-.6-1.17l-4.2,2.71,4.8-1.54-6.59,2.11h6.95a6.17,6.17,0,0,0-.36-2.11l-6.59,2.11h-.08l6.77,1.81a6.38,6.38,0,0,0,.26-1.81h-7l6.77,1.81L128,139.72l3.57,2.81a4.48,4.48,0,0,0,.84-1.63L128,139.72l3.57,2.81-.61-.48.59.5,0,0-.61-.48.59.5,0,0a14.32,14.32,0,0,1,3.61-2.05,62.69,62.69,0,0,1,14.27-3.89A125,125,0,0,1,170.09,135h.5l-.48-12.37V135h.48l-.48-12.37V135a128.16,128.16,0,0,1,17.89,1.2,86,86,0,0,1,10.81,2.18,46.77,46.77,0,0,1,5.91,2,14.78,14.78,0,0,1,3.92,2.18v0l1.29-1.12-1.44.93.15.19,1.29-1.12-1.44.93,4.19-2.71-4.8,1.53a4.67,4.67,0,0,0,.61,1.18l4.19-2.71-4.8,1.53,6.59-2.1h-6.95a6.31,6.31,0,0,0,.36,2.1l6.59-2.1h.08l-6.76-1.81a6.37,6.37,0,0,0-.27,1.81h7l-6.76-1.81,4.4,1.18-3.57-2.81a4.55,4.55,0,0,0-.83,1.63l4.4,1.18-3.57-2.81.61.48-.59-.5,0,0,.61.48-.59-.5,0,0a14.48,14.48,0,0,1-3.62,2.05,63.44,63.44,0,0,1-14.27,3.89,126.06,126.06,0,0,1-20.64,1.63v25.94a157.85,157.85,0,0,0,22-1.49,117.15,117.15,0,0,0,14.48-2.94,75.4,75.4,0,0,0,9.52-3.27,40.66,40.66,0,0,0,12.15-7.56,23.48,23.48,0,0,0,4.77-6.24,18.75,18.75,0,0,0,2.13-8.58,19.05,19.05,0,0,0-2.89-9.92,25.32,25.32,0,0,0-5.23-6,43.15,43.15,0,0,0-11.18-6.57A94.09,94.09,0,0,0,195.12,111a155.66,155.66,0,0,0-25-1.94h-.53l.5,13V109a157.7,157.7,0,0,0-22,1.49,115.87,115.87,0,0,0-14.49,2.94,75.4,75.4,0,0,0-9.52,3.27,40.49,40.49,0,0,0-12.14,7.56,23.46,23.46,0,0,0-4.78,6.24,18.74,18.74,0,0,0-2.12,8.58,19,19,0,0,0,2.88,9.92,25.1,25.1,0,0,0,5.24,6,43,43,0,0,0,11.17,6.58,93.65,93.65,0,0,0,20.73,5.63,154.39,154.39,0,0,0,25,2V156.79l-.24,12.36h.24V156.79l-.24,12.36h.26Z" fill="#f4efb5"/><path d="M65.05,156.2v-.62l.24-12.35h-.24v12.35l.24-12.35H65A129.7,129.7,0,0,1,47.14,142a87.46,87.46,0,0,1-10.81-2.18,48.64,48.64,0,0,1-5.92-2,14.8,14.8,0,0,1-3.91-2.19h0l-1.28,1.12,1.44-.93-.16-.19-1.28,1.12,1.44-.93-4.2,2.7,4.8-1.53a4.62,4.62,0,0,0-.6-1.17l-4.2,2.7,4.8-1.53-6.58,2.1H27.6a6.11,6.11,0,0,0-.36-2.1l-6.58,2.1h-.08l6.76,1.82a6.11,6.11,0,0,0,.26-1.82h-7l6.76,1.82-4.4-1.18,3.56,2.81a4.32,4.32,0,0,0,.84-1.63l-4.4-1.18,3.56,2.81-.61-.48.6.5v0l-.61-.48.6.5,0,0a14.19,14.19,0,0,1,3.61-2.06,63.71,63.71,0,0,1,14.28-3.89A125.88,125.88,0,0,1,65.05,135h.5l-.48-12.37V135h.48l-.48-12.37V135A129.7,129.7,0,0,1,83,136.16a87.46,87.46,0,0,1,10.81,2.18,48.64,48.64,0,0,1,5.92,2,15,15,0,0,1,3.91,2.19h0l1.28-1.11-1.44.93.16.18,1.28-1.11-1.44.93,4.2-2.71-4.8,1.53a4.93,4.93,0,0,0,.6,1.18l4.2-2.71-4.8,1.53,6.58-2.1h-7a6.06,6.06,0,0,0,.37,2.1l6.58-2.1h.08l-6.76-1.82a6.44,6.44,0,0,0-.27,1.82h7l-6.76-1.82,4.4,1.18-3.57-2.81a4.55,4.55,0,0,0-.83,1.63l4.4,1.18-3.57-2.81.61.48-.59-.5,0,0,.61.48-.59-.5,0,0a14.9,14.9,0,0,1-3.61,2.05,63.71,63.71,0,0,1-14.28,3.89,126,126,0,0,1-20.64,1.63v25.94a157.81,157.81,0,0,0,22-1.49,115.3,115.3,0,0,0,14.48-3,77,77,0,0,0,9.52-3.26,40.69,40.69,0,0,0,12.15-7.57,23.37,23.37,0,0,0,4.77-6.23,18.65,18.65,0,0,0,2.13-8.58,18.9,18.9,0,0,0-2.89-9.92,24.93,24.93,0,0,0-5.23-6,42.87,42.87,0,0,0-11.18-6.57A93.4,93.4,0,0,0,90.08,111a155.62,155.62,0,0,0-25-2h-.53l.51,13V109a160.93,160.93,0,0,0-22,1.49,115.3,115.3,0,0,0-14.48,2.95,76.45,76.45,0,0,0-9.52,3.26A40.69,40.69,0,0,0,6.9,124.29a23.27,23.27,0,0,0-4.77,6.24A18.58,18.58,0,0,0,0,139.1,19,19,0,0,0,2.88,149a25.33,25.33,0,0,0,5.24,6,43,43,0,0,0,11.17,6.57A93.64,93.64,0,0,0,40,167.22a155.53,155.53,0,0,0,25,1.95V156.81l-.24,12.36H65V156.81l-.24,12.36h.26Z" fill="#f4efb5"/><path d="M99.38,188.45l13.8-.24-12.48.21h12.48v-.21l-12.48.21h12.48a106.48,106.48,0,0,1,1.28-16.81,72.21,72.21,0,0,1,2.32-10.16,42.21,42.21,0,0,1,2.13-5.56,14,14,0,0,1,2.33-3.68h0L120.07,151l1,1.35.2-.14L120.07,151l1,1.35-2.88-3.94,1.63,4.51a5.21,5.21,0,0,0,1.25-.57l-2.88-3.94,1.63,4.51-2.24-6.18v6.52a7.18,7.18,0,0,0,2.24-.34l-2.24-6.18v-.08L115.64,153a7.65,7.65,0,0,0,1.93.25v-6.6L115.64,153l1.25-4.14-3,3.36a5,5,0,0,0,1.74.78l1.25-4.14-3,3.36.52-.58-.54.56,0,0,.52-.58-.54.56,0,0a13.89,13.89,0,0,1,2.18,3.4A54.23,54.23,0,0,1,120.24,169a104.55,104.55,0,0,1,1.73,19.4h11.87L122,188.36v.08h11.87L122,188.36v.11a107.83,107.83,0,0,1-1.27,16.81,74,74,0,0,1-2.32,10.16,41.1,41.1,0,0,1-2.14,5.55,13.76,13.76,0,0,1-2.33,3.68h0l1.19,1.21-1-1.35-.21.14,1.19,1.21-1-1.35,2.88,3.94L115.35,224a5.21,5.21,0,0,0-1.25.57l2.88,3.94L115.35,224l2.23,6.19v-6.53a7.46,7.46,0,0,0-2.23.34l2.23,6.19v.08l1.93-6.36a7.71,7.71,0,0,0-1.93-.25v6.61l1.93-6.36L118.26,228l3-3.36a5.21,5.21,0,0,0-1.73-.78L118.26,228l3-3.36-.52.58.54-.56,0,0-.52.58.54-.56,0,0a13.33,13.33,0,0,1-2.18-3.39,54.42,54.42,0,0,1-4.15-13.42,104.55,104.55,0,0,1-1.73-19.4v-.23l-13.8.24H85.58a131.59,131.59,0,0,0,1.58,20.67,99.24,99.24,0,0,0,3.13,13.61,67.23,67.23,0,0,0,3.48,8.94,37.93,37.93,0,0,0,8,11.42,24.69,24.69,0,0,0,6.64,4.48,21.87,21.87,0,0,0,19.68-.71,25.7,25.7,0,0,0,6.37-4.92,39.71,39.71,0,0,0,7-10.5,80,80,0,0,0,6-19.48,128.56,128.56,0,0,0,2.08-23.49H137.74l11.84.08v-.08H137.74l11.84.08v-.11A131.59,131.59,0,0,0,148,167.76a96.56,96.56,0,0,0-3.13-13.6,65.52,65.52,0,0,0-3.48-8.95,37.89,37.89,0,0,0-8-11.42,25.24,25.24,0,0,0-6.64-4.48,22,22,0,0,0-9.13-2A22.25,22.25,0,0,0,107,130a26.13,26.13,0,0,0-6.37,4.92,39.68,39.68,0,0,0-7,10.5,80.18,80.18,0,0,0-6,19.48,128.7,128.7,0,0,0-2.07,23.5v.26l13.8-.23h0Z" fill="#f4efb5"/><path d="M99.36,89.74l13.8-.19-11.73.16h11.73v-.16l-11.73.16h11.73a107.68,107.68,0,0,1,1.28-16.81,73.64,73.64,0,0,1,2.32-10.16,41.28,41.28,0,0,1,2.14-5.56,13.51,13.51,0,0,1,2.32-3.67l0,0-1.19-1.2,1,1.35.2-.15-1.19-1.2,1,1.35-2.88-3.94,1.63,4.51a5.42,5.42,0,0,0,1.25-.57l-2.88-3.94,1.63,4.51L117.55,48v6.53a7.81,7.81,0,0,0,2.24-.34L117.55,48v-.08l-1.93,6.36a7.71,7.71,0,0,0,1.93.25V47.94l-1.93,6.36,1.26-4.14-3,3.35a4.8,4.8,0,0,0,1.73.79l1.26-4.14-3,3.35.51-.57-.53.55,0,0,.51-.57-.53.55,0,0a13.2,13.2,0,0,1,2.18,3.39,54.19,54.19,0,0,1,4.14,13.42A104.39,104.39,0,0,1,122,89.73h12.58L122,89.62v.11h12.58L122,89.62v.13a107.58,107.58,0,0,1-1.28,16.81,73.8,73.8,0,0,1-2.32,10.17,41.1,41.1,0,0,1-2.14,5.55,13.76,13.76,0,0,1-2.33,3.68v0l1.19,1.2-1-1.35-.2.15,1.19,1.2-1-1.35,2.88,3.94-1.63-4.51a5.21,5.21,0,0,0-1.25.57l2.88,3.94-1.63-4.51,2.24,6.19v-6.53a7.46,7.46,0,0,0-2.23.34l2.24,6.19v.08l1.93-6.36a7.71,7.71,0,0,0-1.93-.25v6.61l1.93-6.36-1.26,4.14,3-3.35a4.8,4.8,0,0,0-1.73-.79l-1.26,4.14,3-3.35-.51.57.53-.56h0l-.51.57.53-.56,0,0a12.91,12.91,0,0,1-2.18-3.39,54,54,0,0,1-4.14-13.42,104.5,104.5,0,0,1-1.74-19.4v-.18l-13.8.19H85.56a130.37,130.37,0,0,0,1.59,20.67A96.38,96.38,0,0,0,90.28,124,66.68,66.68,0,0,0,93.75,133a38,38,0,0,0,8,11.42,24.69,24.69,0,0,0,6.64,4.48,21.89,21.89,0,0,0,19.69-.71,25.89,25.89,0,0,0,6.37-4.92,39.68,39.68,0,0,0,7-10.5,80,80,0,0,0,6-19.48,129.5,129.5,0,0,0,2.07-23.5H137l12.55.11v-.11H137l12.55.11v-.13A131.56,131.56,0,0,0,148,69.06a96.38,96.38,0,0,0-3.13-13.61,66.83,66.83,0,0,0-3.47-9,38.06,38.06,0,0,0-8.05-11.41,24.87,24.87,0,0,0-6.64-4.49,21.93,21.93,0,0,0-19.69.72,26.3,26.3,0,0,0-6.37,4.91,39.84,39.84,0,0,0-7,10.5,80.18,80.18,0,0,0-6,19.48,129.59,129.59,0,0,0-2.07,23.5v.21l13.8-.18h0Z" fill="#f4efb5"/><path d="M151.12,103.73l-12.74-5c-4,9.07-9,16.82-13.33,21.68a28.58,28.58,0,0,1-5.29,4.86,7,7,0,0,1-.68.4l-.19.09.07.16-.07-.16h0l.07.16-.07-.16,1.56,3.84v-4.05a4.81,4.81,0,0,0-1.56.21l1.56,3.84v3l2.86-6.46a7.78,7.78,0,0,0-2.86-.55v7l2.86-6.46h0l-2.79,6.28,5.57-4.4a7.41,7.41,0,0,0-2.78-1.88l-2.79,6.28,5.57-4.4-3,2.39,3.62-1.57a4,4,0,0,0-.59-.82l-3,2.39,3.62-1.57-.66.29.67-.26v0l-.66.29.67-.26-.1-.29a15.73,15.73,0,0,1-.4-4,51.93,51.93,0,0,1,1.72-12.1,96,96,0,0,1,5.47-15.7c4-9.08,9-16.82,13.33-21.69a28.6,28.6,0,0,1,5.3-4.86,7.11,7.11,0,0,1,.67-.4l.2-.09-.08-.16.07.16h0l-.08-.16.07.16-1.56-3.84v4a4.81,4.81,0,0,0,1.56-.21l-1.56-3.84v-3l-2.87,6.47a7.9,7.9,0,0,0,2.87.55v-7l-2.87,6.47h0l2.78-6.28-5.56,4.41a7.44,7.44,0,0,0,2.78,1.87l2.78-6.28-5.56,4.41,3-2.4-3.61,1.57a3.54,3.54,0,0,0,.59.83l3-2.4-3.61,1.57.65-.28-.67.26,0,0,.65-.28-.67.26.1.29a15.63,15.63,0,0,1,.4,4A51.86,51.86,0,0,1,143.85,83a95.74,95.74,0,0,1-5.47,15.71l12.74,5,12.75,5a122.39,122.39,0,0,0,6.87-19.8,76.35,76.35,0,0,0,2.44-18,36.06,36.06,0,0,0-2.29-13.44,22.73,22.73,0,0,0-4.11-6.67,20.38,20.38,0,0,0-7.71-5.36h0A21.25,21.25,0,0,0,151.32,44a24.72,24.72,0,0,0-8.42,1.54A36.82,36.82,0,0,0,132,52.12,75.09,75.09,0,0,0,118.92,67a122.74,122.74,0,0,0-11,19.85,120.49,120.49,0,0,0-6.87,19.8,75.87,75.87,0,0,0-2.45,18,35.84,35.84,0,0,0,2.3,13.44,22.52,22.52,0,0,0,4.1,6.68,20.21,20.21,0,0,0,7.72,5.35h0a21.1,21.1,0,0,0,7.74,1.44,24.48,24.48,0,0,0,8.42-1.54,36.61,36.61,0,0,0,10.9-6.56,75,75,0,0,0,13.08-14.83,124.07,124.07,0,0,0,11-19.86Z" fill="#f4efb5"/><path d="M114.49,186.38l-12.74-5c-4,9.07-9,16.82-13.33,21.68a28.24,28.24,0,0,1-5.3,4.86c-.29.19-.52.32-.67.4l-.2.1.07.15-.06-.16h0l.07.15-.06-.16,1.56,3.84v-4a5.09,5.09,0,0,0-1.56.21l1.56,3.84v3l2.85-6.46a8,8,0,0,0-2.85-.55v7l2.85-6.46h0L83.9,215l5.56-4.4a7.44,7.44,0,0,0-2.78-1.88L83.9,215l5.56-4.4-3,2.4,3.62-1.58a4,4,0,0,0-.59-.82l-3,2.4,3.62-1.58-.65.29.66-.26v0l-.65.29.66-.26L90,211.2a15.48,15.48,0,0,1-.41-3.95,52.64,52.64,0,0,1,1.73-12.11,96.83,96.83,0,0,1,5.46-15.7c4-9.08,9-16.82,13.34-21.69a28.3,28.3,0,0,1,5.29-4.86c.29-.19.52-.32.67-.4l.2-.09-.07-.16.07.16h0l-.07-.16.07.16-1.57-3.83v4a4.84,4.84,0,0,0,1.57-.21l-1.57-3.83v-3l-2.87,6.47a8,8,0,0,0,2.87.55v-7l-2.87,6.47h0l2.78-6.28L109,150.19a7.44,7.44,0,0,0,2.78,1.87l2.78-6.28L109,150.19l3-2.4-3.61,1.57a3.54,3.54,0,0,0,.59.83l3-2.4-3.61,1.57.64-.28-.65.26v0l.64-.28-.65.26a5.93,5.93,0,0,1,.28,1.14,20,20,0,0,1,.22,3.1,52,52,0,0,1-1.73,12.1,96.59,96.59,0,0,1-5.46,15.71l12.74,5,12.74,5a120.59,120.59,0,0,0,6.87-19.81,75.83,75.83,0,0,0,2.44-18,35.86,35.86,0,0,0-2.29-13.44,22.6,22.6,0,0,0-4.1-6.67,20.21,20.21,0,0,0-7.72-5.35h0a21.47,21.47,0,0,0-7.76-1.45,24.46,24.46,0,0,0-8.41,1.55,36.64,36.64,0,0,0-10.91,6.55,75.37,75.37,0,0,0-13.07,14.84A126.48,126.48,0,0,0,64.4,189.26a75.84,75.84,0,0,0-2.44,18,35.77,35.77,0,0,0,2.29,13.43,22.52,22.52,0,0,0,4.1,6.68,20.36,20.36,0,0,0,7.72,5.35h0a21,21,0,0,0,7.74,1.44,24.57,24.57,0,0,0,8.42-1.54,36.72,36.72,0,0,0,10.9-6.55,75,75,0,0,0,13.07-14.84,122.43,122.43,0,0,0,11-19.85Z" fill="#f4efb5"/><path d="M155.2,170.62l5.31-12c-9.66-3.76-17.9-8.46-23.08-12.53a27.89,27.89,0,0,1-5.17-5,5.59,5.59,0,0,1-.42-.63l-.1-.19-.18.07.18-.06h0l-.18.07.18-.06-4.09,1.47H132a4.13,4.13,0,0,0-.22-1.47l-4.09,1.47h-3.17l6.89,2.7a6.68,6.68,0,0,0,.59-2.7h-7.48l6.89,2.7h0l-6.69-2.61,4.69,5.22a7,7,0,0,0,2-2.61l-6.69-2.61,4.69,5.22-2.55-2.84,1.68,3.4a4.67,4.67,0,0,0,.87-.56l-2.55-2.84,1.68,3.4-.31-.62.28.63h0l-.31-.62.28.63.31-.09a18,18,0,0,1,4.2-.38,62,62,0,0,1,12.88,1.62A112.32,112.32,0,0,1,162.59,154c9.65,3.76,17.89,8.45,23.07,12.52a28.23,28.23,0,0,1,5.17,5,6.69,6.69,0,0,1,.42.63l.1.19.18-.07-.18.06h0l.18-.07-.18.06,4.08-1.47h-4.3a4.07,4.07,0,0,0,.22,1.47l4.08-1.47h3.15l-6.87-2.68a6.66,6.66,0,0,0-.58,2.68h7.45l-6.87-2.68h0l6.68,2.62-4.69-5.23a6.92,6.92,0,0,0-2,2.61l6.68,2.62-4.69-5.23,2.55,2.84L194.59,165a3.61,3.61,0,0,0-.88.55l2.55,2.84L194.59,165l.3.61-.28-.63,0,0,.3.61-.28-.63-.3.09a18.21,18.21,0,0,1-4.21.38,62.48,62.48,0,0,1-12.88-1.61,112.32,112.32,0,0,1-16.72-5.14l-5.3,12-5.31,12A141.61,141.61,0,0,0,171,189.05a91.22,91.22,0,0,0,19.14,2.3,42.87,42.87,0,0,0,14.3-2.16,24.92,24.92,0,0,0,7.1-3.85,19.39,19.39,0,0,0,5.7-7.25h0a17.84,17.84,0,0,0,1.53-7.28,20.64,20.64,0,0,0-1.64-7.91,34,34,0,0,0-7-10.24,78,78,0,0,0-15.78-12.29A136.27,136.27,0,0,0,173.2,130a140.52,140.52,0,0,0-21.07-6.46A91.25,91.25,0,0,0,133,121.26a42.82,42.82,0,0,0-14.3,2.15,24.71,24.71,0,0,0-7.1,3.86,19.13,19.13,0,0,0-5.7,7.25h0a17.8,17.8,0,0,0-1.54,7.29,20.6,20.6,0,0,0,1.64,7.91A33.79,33.79,0,0,0,113,160a77.34,77.34,0,0,0,15.78,12.29,137.18,137.18,0,0,0,21.13,10.36Z" fill="#f4efb5"/><path d="M67.24,136.19l5.31-12c-9.65-3.76-17.9-8.45-23.07-12.53a28.76,28.76,0,0,1-5.18-5c-.2-.28-.33-.49-.42-.64l-.1-.18-.16.06.16-.06h0l-.16.06.16-.06-4.08,1.47H44a3.81,3.81,0,0,0-.23-1.47l-4.08,1.47H36.53l6.89,2.7a6.61,6.61,0,0,0,.59-2.7H36.53l6.89,2.7h0l-6.68-2.61,4.69,5.22a6.84,6.84,0,0,0,2-2.61l-6.68-2.61,4.69,5.22-2.55-2.84,1.67,3.4a4.27,4.27,0,0,0,.88-.56l-2.55-2.84,1.67,3.4-.3-.61.28.62h0l-.3-.61.28.62.3-.09a18.07,18.07,0,0,1,4.21-.38,62,62,0,0,1,12.88,1.62,111.86,111.86,0,0,1,16.71,5.14c9.66,3.76,17.9,8.45,23.08,12.53a28.27,28.27,0,0,1,5.17,5,6.69,6.69,0,0,1,.42.63l.1.19.18-.07-.18.06h0l.18-.07-.18.06,4.08-1.46h-4.31a4.17,4.17,0,0,0,.23,1.46l4.08-1.46h3.14l-6.86-2.69a6.87,6.87,0,0,0-.59,2.69h7.45l-6.86-2.69h0l6.68,2.62-4.68-5.23a7.12,7.12,0,0,0-2,2.61l6.68,2.62-4.68-5.23,2.55,2.85-1.68-3.4a4.34,4.34,0,0,0-.87.55l2.55,2.85-1.68-3.4.3.61-.27-.62h0l.3.61-.27-.62-.31.09a19.3,19.3,0,0,1-4.21.38,63.3,63.3,0,0,1-12.87-1.62,112,112,0,0,1-16.72-5.14l-5.31,12-5.3,12A140.09,140.09,0,0,0,83,154.62a91.21,91.21,0,0,0,19.13,2.3,42.79,42.79,0,0,0,14.3-2.16,25,25,0,0,0,7.11-3.85,19.29,19.29,0,0,0,5.69-7.25h0a18,18,0,0,0,1.53-7.27,20.75,20.75,0,0,0-1.64-7.91,34.14,34.14,0,0,0-7-10.25,77.84,77.84,0,0,0-15.79-12.29A137.05,137.05,0,0,0,85.25,95.58a142.05,142.05,0,0,0-21.07-6.46A91.25,91.25,0,0,0,45,86.83,42.82,42.82,0,0,0,30.74,89a24.83,24.83,0,0,0-7.1,3.86,19.29,19.29,0,0,0-5.7,7.25h0a18,18,0,0,0-1.53,7.29,20.56,20.56,0,0,0,1.64,7.91,33.93,33.93,0,0,0,7,10.25,77.74,77.74,0,0,0,15.79,12.28,136.28,136.28,0,0,0,21.13,10.36Z" fill="#f4efb5"/><path d="M79.81,170.48l-5.26-12a112.45,112.45,0,0,1-16.63,5,62.7,62.7,0,0,1-12.86,1.59,15.86,15.86,0,0,1-4.63-.48h0L39,167.89l2.45-2.59a3.78,3.78,0,0,0-1-.65L39,167.89l2.45-2.59-4.87,5.15,6.75-2.61a6.94,6.94,0,0,0-1.88-2.54l-4.87,5.15,6.75-2.61-6.9,2.66h7.48a7,7,0,0,0-.58-2.67l-6.9,2.67h3.17l4.07,1.5a3.94,3.94,0,0,0,.24-1.5H39.57l4.07,1.5-.23-.09.23.09h0l-.23-.09.23.09a11.66,11.66,0,0,1,2-2.52,53,53,0,0,1,10.28-7.71,108.9,108.9,0,0,1,16.55-8,112.56,112.56,0,0,1,16.63-5.06A63.33,63.33,0,0,1,102,147.14a16.78,16.78,0,0,1,4.63.48h0l1.45-3.24L105.62,147a4.49,4.49,0,0,0,1,.66l1.45-3.24L105.62,147l4.87-5.14-6.75,2.61a6.89,6.89,0,0,0,1.88,2.53l4.87-5.14-6.75,2.61,6.9-2.67h-7.48a6.79,6.79,0,0,0,.58,2.67l6.9-2.67h-3.17l-4.08-1.49a4.18,4.18,0,0,0-.23,1.49h4.31l-4.08-1.49.24.08-.23-.09h0l.24.08-.23-.09a11.29,11.29,0,0,1-2,2.53,52.71,52.71,0,0,1-10.29,7.7,107.81,107.81,0,0,1-16.54,8l5.26,12,5.25,12C97,177.84,107.3,172.21,115.28,166a53.33,53.33,0,0,0,10.24-10.1,29.13,29.13,0,0,0,3.59-6.22,20.71,20.71,0,0,0,1.66-7.93,18.06,18.06,0,0,0-1.51-7.21,19.29,19.29,0,0,0-5.72-7.31,23.81,23.81,0,0,0-5.35-3.17,33.22,33.22,0,0,0-8.06-2.28,51.2,51.2,0,0,0-8.15-.6,92.11,92.11,0,0,0-19,2.25,140.41,140.41,0,0,0-21,6.35c-11.93,4.63-22.24,10.27-30.22,16.45a53.92,53.92,0,0,0-10.24,10.1,29.2,29.2,0,0,0-3.59,6.23,20.62,20.62,0,0,0-1.66,7.92,18.07,18.07,0,0,0,1.51,7.22A19.29,19.29,0,0,0,23.5,185a24,24,0,0,0,5.34,3.17,33.31,33.31,0,0,0,8.06,2.27,51.24,51.24,0,0,0,8.16.6,90.84,90.84,0,0,0,19-2.25,140.77,140.77,0,0,0,21-6.35Z" fill="#f4efb5"/><path d="M120.45,186.39l12.76-4.94a96,96,0,0,1-5.38-15.63,52.93,52.93,0,0,1-1.69-12.08,13.48,13.48,0,0,1,.51-4.35v0L123.21,148l2.75,2.31a4.26,4.26,0,0,0,.7-.95L123.21,148l2.75,2.31-5.48-4.58,2.78,6.34a7.38,7.38,0,0,0,2.7-1.76l-5.48-4.58,2.78,6.34-2.84-6.48v7a8.16,8.16,0,0,0,2.85-.55l-2.85-6.48v3l-1.59,3.84a5.06,5.06,0,0,0,1.59.22v-4.06l-1.59,3.84.1-.23-.1.22h0l.1-.23-.1.22a12.24,12.24,0,0,1,2.68,1.9,50.82,50.82,0,0,1,8.21,9.67,97.13,97.13,0,0,1,8.49,15.54,96.37,96.37,0,0,1,5.38,15.63,52.45,52.45,0,0,1,1.69,12.09,13.13,13.13,0,0,1-.51,4.34v0l3.44,1.36-2.75-2.3a3.49,3.49,0,0,0-.69.94l3.44,1.36-2.75-2.3,5.48,4.58-2.79-6.35a7.64,7.64,0,0,0-2.69,1.77l5.48,4.58-2.79-6.35h0l2.84,6.48v-7a7.9,7.9,0,0,0-2.84.54l2.84,6.48v-3l1.59-3.83a4.67,4.67,0,0,0-1.59-.22v4l1.59-3.83-.1.22.11-.22h0l-.1.22.11-.22a12,12,0,0,1-2.69-1.9,50.35,50.35,0,0,1-8.2-9.66,97.25,97.25,0,0,1-8.5-15.55l-12.76,4.94-12.76,4.94a111.21,111.21,0,0,0,17.5,28.4,54.31,54.31,0,0,0,10.75,9.61,32.68,32.68,0,0,0,6.62,3.39,24.83,24.83,0,0,0,8.44,1.55,21.32,21.32,0,0,0,7.67-1.41h0a20.46,20.46,0,0,0,7.79-5.38,22.35,22.35,0,0,0,3.37-5,28.69,28.69,0,0,0,2.42-7.57,43.36,43.36,0,0,0,.64-7.66,76.61,76.61,0,0,0-2.4-17.9,121.45,121.45,0,0,0-6.75-19.7,111.15,111.15,0,0,0-17.51-28.39,53.78,53.78,0,0,0-10.75-9.62,31.9,31.9,0,0,0-6.62-3.38,24.59,24.59,0,0,0-8.44-1.56,21.3,21.3,0,0,0-7.67,1.42,20.29,20.29,0,0,0-7.78,5.37,22.41,22.41,0,0,0-3.38,5,28.81,28.81,0,0,0-2.42,7.57,43.39,43.39,0,0,0-.64,7.67,76.53,76.53,0,0,0,2.4,17.89,120.57,120.57,0,0,0,6.76,19.7Z" fill="#f4efb5"/><path d="M119.2,195.9S129.64,224.15,85,246.35C85,246.35,80.6,203.79,119.2,195.9Z" fill="#48bb78"/><path d="M118.78,195.65l-29.9,44a.45.45,0,0,0,.15.65.52.52,0,0,0,.69-.14l29.91-44a.45.45,0,0,0-.16-.65.52.52,0,0,0-.69.15" fill="#5c8225"/><path d="M96.16,229.16l1,7.75a.48.48,0,0,0,.56.41.47.47,0,0,0,.43-.52l-1-7.75a.5.5,0,0,0-.56-.41.47.47,0,0,0-.44.52" fill="#5c8225"/><path d="M101.62,221.18l1,7.76a.5.5,0,0,0,.56.41.48.48,0,0,0,.43-.53l-1-7.75a.49.49,0,0,0-.56-.41.47.47,0,0,0-.43.52" fill="#5c8225"/><path d="M91.14,227.84l8-2a.46.46,0,0,0,.36-.57.5.5,0,0,0-.61-.34l-8.05,2a.46.46,0,0,0-.35.57.5.5,0,0,0,.61.34" fill="#5c8225"/><path d="M96.44,220l8-2a.48.48,0,0,0,.36-.58.51.51,0,0,0-.62-.33l-8,2a.48.48,0,0,0-.36.58.51.51,0,0,0,.61.34" fill="#5c8225"/><path d="M130.34,196.14S165,208.88,152.15,263C152.15,263,108.5,234.41,130.34,196.14Z" fill="#48bb78"/><path d="M129.78,196.31l19,58.44a.6.6,0,0,0,.73.37.55.55,0,0,0,.39-.69L130.9,196a.59.59,0,0,0-.73-.36.55.55,0,0,0-.39.69" fill="#5c8225"/><path d="M144.33,240.67l8.11,5a.61.61,0,0,0,.81-.15.54.54,0,0,0-.16-.77l-8.11-5a.62.62,0,0,0-.82.15.54.54,0,0,0,.17.77" fill="#5c8225"/><path d="M140.92,230l8.11,5a.62.62,0,0,0,.82-.15.55.55,0,0,0-.17-.77l-8.11-5a.63.63,0,0,0-.82.16.53.53,0,0,0,.17.76" fill="#5c8225"/><path d="M139.26,243.86l4.25-8.22a.53.53,0,0,0-.27-.73.61.61,0,0,0-.79.25l-4.24,8.22a.55.55,0,0,0,.27.74.6.6,0,0,0,.78-.26" fill="#5c8225"/><path d="M135.84,233.45l4.24-8.22a.54.54,0,0,0-.27-.74.6.6,0,0,0-.78.25L134.78,233a.54.54,0,0,0,.27.74.62.62,0,0,0,.79-.25" fill="#5c8225"/><path d="M132.27,222.58l4.25-8.21a.54.54,0,0,0-.27-.74.6.6,0,0,0-.79.25l-4.24,8.22a.54.54,0,0,0,.27.74.6.6,0,0,0,.78-.26" fill="#5c8225"/><path d="M137.51,219.42l8.12,5a.6.6,0,0,0,.81-.16.53.53,0,0,0-.17-.76l-8.11-5a.6.6,0,0,0-.81.16.52.52,0,0,0,.16.76" fill="#5c8225"/><path d="M142.64,131.34s12.42-62.42,119.55-59.19C262.19,72.15,222.66,155,142.64,131.34Z" fill="#48bb78"/><path d="M143.13,132.22l104.5-51.6a1,1,0,0,0,.45-1.35,1.1,1.1,0,0,0-1.44-.42l-104.5,51.6a1,1,0,0,0-.45,1.35,1.1,1.1,0,0,0,1.44.42" fill="#5c8225"/><path d="M222.4,92.82l6.81-15.3a1,1,0,0,0-.57-1.31,1.09,1.09,0,0,0-1.39.54l-6.81,15.3a1,1,0,0,0,.57,1.31,1.09,1.09,0,0,0,1.39-.54" fill="#5c8225"/><path d="M203.4,102.13l6.81-15.3a1,1,0,0,0-.57-1.31,1.09,1.09,0,0,0-1.4.53l-6.81,15.31a1,1,0,0,0,.57,1.31,1.1,1.1,0,0,0,1.4-.54" fill="#5c8225"/><path d="M230.18,100.23l-17-4.33a1.07,1.07,0,0,0-1.31.7,1,1,0,0,0,.75,1.23l17,4.33a1.07,1.07,0,0,0,1.31-.7,1,1,0,0,0-.75-1.23" fill="#5c8225"/><path d="M211.57,109.5l-17-4.34a1.09,1.09,0,0,0-1.31.71,1,1,0,0,0,.75,1.23l17,4.33a1.07,1.07,0,0,0,1.31-.7,1,1,0,0,0-.75-1.23" fill="#5c8225"/><path d="M184.39,111.44l6.81-15.3a1,1,0,0,0-.57-1.31,1.08,1.08,0,0,0-1.39.53l-6.81,15.3A1,1,0,0,0,183,112a1.08,1.08,0,0,0,1.39-.53" fill="#5c8225"/><path d="M104.34,121s23-59.71-71-108C33.32,13,22.61,103.21,104.34,121Z" fill="#48bb78"/><path d="M105.24,120.49,43.1,26.17a1.1,1.1,0,0,0-1.47-.32,1,1,0,0,0-.34,1.37l62.14,94.32a1.11,1.11,0,0,0,1.47.33,1,1,0,0,0,.34-1.38" fill="#5c8225"/><path d="M58.54,50l2.4-16.43A1,1,0,0,0,60,32.49a1,1,0,0,0-1.2.85l-2.4,16.43a1,1,0,0,0,.91,1.13,1.05,1.05,0,0,0,1.2-.86" fill="#5c8225"/><path d="M69.88,67.13l2.4-16.43a1,1,0,0,0-.91-1.13,1.06,1.06,0,0,0-1.2.86l-2.4,16.43A1,1,0,0,0,68.68,68a1.06,1.06,0,0,0,1.2-.86" fill="#5c8225"/><path d="M45.16,54.37l17,4.4a1.08,1.08,0,0,0,1.31-.7,1,1,0,0,0-.75-1.23l-17-4.4a1.09,1.09,0,0,0-1.31.7,1,1,0,0,0,.75,1.23" fill="#5c8225"/><path d="M56.18,71.24l17,4.4a1.08,1.08,0,0,0,1.31-.71,1,1,0,0,0-.74-1.23l-17-4.39a1.07,1.07,0,0,0-1.31.7,1,1,0,0,0,.74,1.23" fill="#5c8225"/><path d="M167.57,116.28c-20,18.81-42,28.64-49.1,22s3.35-27.34,23.36-46.15,42-28.64,49.1-22S187.58,97.47,167.57,116.28Z" fill="#ca4543"/><path d="M93.31,186.08c-20,18.81-42,28.65-49.1,22s3.35-27.34,23.36-46.15,42-28.65,49.1-22S113.32,167.27,93.31,186.08Z" fill="#ca4543"/><path d="M141.84,186.08c-20-18.81-30.48-39.47-23.37-46.15s29.09,3.15,49.11,22S198.06,201.35,191,208,161.86,204.88,141.84,186.08Z" fill="#ca4543"/><path d="M67.56,116.29c-20-18.8-30.48-39.46-23.38-46.14S73.28,73.3,93.29,92.1s30.48,39.46,23.38,46.14S87.58,135.09,67.56,116.29Z" fill="#ca4543"/><path d="M170.09,156.18c-28.3,0-51.25-7.65-51.25-17.09S141.78,122,170.08,122s51.25,7.65,51.25,17.09S198.39,156.18,170.09,156.18Z" fill="#ca4543"/><path d="M65.05,156.2c-28.3,0-51.25-7.65-51.25-17.1S36.74,122,65.05,122s51.25,7.65,51.25,17.1S93.36,156.19,65.05,156.2Z" fill="#ca4543"/><path d="M99.38,188.45c0-26.6,8.14-48.17,18.19-48.17s18.2,21.56,18.21,48.16-8.14,48.16-18.19,48.16S99.38,215,99.38,188.45Z" fill="#ca4543"/><path d="M99.36,89.74c0-26.6,8.14-48.16,18.19-48.16s18.2,21.55,18.21,48.15-8.14,48.16-18.19,48.16S99.37,116.33,99.36,89.74Z" fill="#ca4543"/><path d="M174.37,88.57a105.33,105.33,0,0,1-10.53,11.85c-3.78,3.74-7.78,7.28-11.91,10.68s-8.43,6.62-12.86,9.69-9,6-13.58,8.79a1.2,1.2,0,0,1-1.59-.32,1,1,0,0,1,.33-1.5h0l0,0c4.67-2.63,9.3-5.34,13.78-8.26s8.86-6,13.12-9.19,8.34-6.64,12.24-10.24A104.79,104.79,0,0,0,174.37,88.57Z" fill="#e26060"/><path d="M200.57,141.23a118,118,0,0,1-16.39,1.09c-5.49,0-11-.23-16.44-.66s-10.93-1.12-16.35-2-10.8-1.92-16.16-3.1a1.08,1.08,0,0,1-.86-1.3,1.15,1.15,0,0,1,1.38-.8h.06c5.26,1.34,10.55,2.59,15.9,3.6s10.73,1.85,16.15,2.51,10.86,1,16.33,1.19A117.91,117.91,0,0,0,200.57,141.23Z" fill="#e26060"/><path d="M62.63,82A105.54,105.54,0,0,0,73,93.94c3.72,3.76,7.65,7.33,11.7,10.77s8.29,6.67,12.64,9.76,8.82,6,13.35,8.88h0a1,1,0,0,1,.32,1.5,1.2,1.2,0,0,1-1.6.3l0,0c-4.47-3-8.88-6.11-13.12-9.39s-8.38-6.7-12.36-10.25-7.76-7.3-11.35-11.2A104.78,104.78,0,0,1,62.63,82Z" fill="#e26060"/><path d="M118.43,61.91a97.8,97.8,0,0,1,1.68,15.36c.21,5.15.11,10.31-.17,15.47s-.84,10.29-1.59,15.41-1.71,10.21-2.79,15.28a1.16,1.16,0,0,1-1.35.85,1.08,1.08,0,0,1-.9-1.27V123c1.25-5,2.42-10,3.32-15s1.63-10.13,2.15-15.24.76-10.24.75-15.38A97.78,97.78,0,0,0,118.43,61.91Z" fill="#e26060"/><path d="M114.3,213a97.54,97.54,0,0,0,2-15.29c.31-5.13.32-10.27.14-15.4s-.63-10.24-1.28-15.33-1.49-10.15-2.45-15.19v0a1.09,1.09,0,0,1,.92-1.26,1.16,1.16,0,0,1,1.34.87v0c.78,5.12,1.48,10.25,1.9,15.4s.67,10.31.71,15.47-.21,10.32-.71,15.46A99.91,99.91,0,0,1,114.3,213Z" fill="#e26060"/><path d="M173.72,196.82a105.45,105.45,0,0,0-10.34-11.95c-3.72-3.77-7.66-7.33-11.71-10.77s-8.29-6.68-12.64-9.77-8.82-6-13.35-8.87h0a1,1,0,0,1-.31-1.5,1.19,1.19,0,0,1,1.59-.3l0,0c4.47,3,8.88,6.1,13.13,9.39s8.37,6.7,12.35,10.25,7.77,7.3,11.36,11.2A105.72,105.72,0,0,1,173.72,196.82Z" fill="#e26060"/><path d="M35.46,138.26a117.88,117.88,0,0,1,16.38-1.09c5.49,0,11,.22,16.45.66s10.92,1.11,16.34,2,10.81,1.93,16.16,3.1a1.08,1.08,0,0,1,.86,1.3,1.16,1.16,0,0,1-1.38.81h-.06c-5.26-1.33-10.54-2.59-15.89-3.59s-10.74-1.86-16.15-2.51-10.87-1-16.33-1.19A116.34,116.34,0,0,0,35.46,138.26Z" fill="#e26060"/><path d="M56.11,190.94a108.23,108.23,0,0,0,13-9.33c4.13-3.37,8-7,11.83-10.65s7.37-7.58,10.79-11.56,6.7-8.09,9.87-12.26v0a1.22,1.22,0,0,1,1.61-.25,1,1,0,0,1,.26,1.51l0,0c-3.35,4.1-6.78,8.15-10.41,12s-7.39,7.65-11.29,11.27-8,7.07-12.28,10.31A109.16,109.16,0,0,1,56.11,190.94Z" fill="#e26060"/><path d="M151.12,103.73C141.25,126,126.43,141.38,118,138.09s-7.23-24,2.64-46.29,24.69-37.66,33.11-34.36S161,81.46,151.12,103.73Z" fill="#e26060"/><path d="M114.49,186.38c-9.87,22.27-24.7,37.65-33.11,34.36s-7.24-24,2.63-46.29,24.7-37.66,33.12-34.36S124.36,164.11,114.49,186.38Z" fill="#e26060"/><path d="M155.2,170.62c-23.7-9.28-40.07-23.21-36.57-31.11s25.56-6.8,49.26,2.47S208,165.19,204.46,173.1,178.9,179.9,155.2,170.62Z" fill="#e26060"/><path d="M67.24,136.19c-23.7-9.27-40.07-23.2-36.56-31.11s25.56-6.8,49.26,2.47S120,130.76,116.5,138.67,90.94,145.47,67.24,136.19Z" fill="#e26060"/><path d="M167.9,136.38c-23.73,9.19-45.79,10.22-49.27,2.3s13-21.8,36.7-31,45.8-10.21,49.27-2.29S191.64,127.19,167.9,136.38Z" fill="#e26060"/><path d="M79.81,170.48c-23.74,9.19-45.8,10.22-49.27,2.29s13-21.79,36.69-31,45.8-10.21,49.27-2.29S103.55,161.29,79.81,170.48Z" fill="#e26060"/><path d="M120.45,186.39c-9.78-22.31-10.87-43-2.44-46.3s23.19,12.18,33,34.48,10.86,43,2.44,46.3S130.23,208.7,120.45,186.39Z" fill="#e26060"/><path d="M84.16,103.6c-9.78-22.31-10.87-43-2.44-46.3s23.19,12.18,33,34.49,10.87,43,2.44,46.29S93.94,125.91,84.16,103.6Z" fill="#e26060"/><path d="M157.67,154.78c1.61-3.65-5.94-10.07-16.88-14.36-1.23-.48-2.45-.91-3.65-1.3,1.2-.38,2.42-.8,3.66-1.28,10.95-4.24,18.53-10.64,16.93-14.3S146,120.36,135,124.6c-1.24.48-2.43,1-3.56,1.51.56-1.07,1.1-2.18,1.61-3.34,4.56-10.28,5.1-19.84,1.22-21.36S123.54,107,119,117.27c-.51,1.15-1,2.3-1.38,3.43-.41-1.13-.86-2.28-1.37-3.44C111.73,107,104.92,99.84,101,101.35s-3.39,11.07,1.12,21.36c.51,1.16,1,2.28,1.61,3.35-1.14-.53-2.33-1-3.56-1.52-10.93-4.29-21.11-4.8-22.73-1.15s5.94,10.08,16.87,14.36c1.24.48,2.46.92,3.66,1.3q-1.81.57-3.66,1.29c-11,4.24-18.54,10.64-16.93,14.29s11.78,3.19,22.73-1c1.24-.48,2.42-1,3.56-1.51-.56,1.07-1.1,2.18-1.62,3.34-4.55,10.27-5.1,19.84-1.21,21.36s10.72-5.58,15.28-15.86c.51-1.15,1-2.3,1.38-3.43.41,1.13.86,2.28,1.37,3.44,4.51,10.29,11.32,17.41,15.21,15.91s3.39-11.07-1.13-21.37c-.5-1.16-1-2.27-1.6-3.34,1.14.53,2.32,1,3.55,1.52C145.87,157.92,156.05,158.43,157.67,154.78Zm-40.31-15.23-.21-.07-.07-.2-.11-.19.11-.19.07-.21.22-.06.2-.1.2.1.22.06.07.21.1.19-.1.19-.07.2-.22.07-.2.1Z" fill="#fff3dc"/><path d="M157.67,154.78l.3.12a2.78,2.78,0,0,0,.25-1.18c0-2.06-1.88-4.43-4.94-6.83a50.17,50.17,0,0,0-12.36-6.76c-1.24-.48-2.46-.92-3.67-1.3l-.11.29.11.3c1.21-.38,2.43-.81,3.67-1.29a50,50,0,0,0,12.4-6.72c3.07-2.39,4.94-4.76,5-6.82a2.92,2.92,0,0,0-.24-1.17c-.85-1.86-3.47-2.65-7-2.65a47.47,47.47,0,0,0-16.16,3.54c-1.24.48-2.44,1-3.58,1.52l.15.28.3.14c.56-1.08,1.11-2.2,1.62-3.36,2.53-5.71,3.83-11.19,3.84-15.26,0-3.28-.84-5.72-2.8-6.51a3.35,3.35,0,0,0-1.26-.23c-2.19,0-4.71,1.77-7.27,4.64a46,46,0,0,0-7.19,11.61c-.52,1.17-1,2.32-1.39,3.45l.32.11.31-.11c-.4-1.13-.86-2.29-1.37-3.45a46.07,46.07,0,0,0-7.15-11.65c-2.55-2.88-5.07-4.64-7.26-4.66a3.45,3.45,0,0,0-1.24.22c-2,.8-2.82,3.27-2.83,6.59,0,4.06,1.28,9.51,3.77,15.19q.76,1.76,1.62,3.36l.3-.13.14-.29q-1.71-.8-3.57-1.53c-6.07-2.37-11.9-3.6-16.23-3.6-3.5,0-6.09.78-6.94,2.63a3,3,0,0,0-.24,1.18c0,2.06,1.88,4.43,4.94,6.84A50.17,50.17,0,0,0,94.22,138c1.23.49,2.46.92,3.67,1.31l.11-.3-.11-.3c-1.21.39-2.44.82-3.68,1.3a50.35,50.35,0,0,0-12.4,6.71c-3.06,2.4-4.93,4.76-5,6.82a2.76,2.76,0,0,0,.24,1.17c.84,1.87,3.47,2.65,7,2.66a47.76,47.76,0,0,0,16.16-3.54c1.24-.48,2.43-1,3.58-1.52l-.15-.28-.3-.14c-.57,1.07-1.11,2.19-1.63,3.36-2.52,5.7-3.83,11.18-3.83,15.25,0,3.29.83,5.72,2.8,6.52a3.51,3.51,0,0,0,1.25.23c2.2,0,4.72-1.77,7.28-4.64A46.16,46.16,0,0,0,116.46,161c.51-1.16,1-2.31,1.39-3.45l-.32-.1-.32.1c.41,1.14.87,2.29,1.38,3.46a45.5,45.5,0,0,0,7.15,11.65c2.54,2.88,5.06,4.64,7.26,4.66a3.45,3.45,0,0,0,1.24-.23c2-.8,2.82-3.26,2.82-6.59,0-4.06-1.28-9.51-3.77-15.19-.51-1.16-1-2.28-1.61-3.36l-.3.14-.15.28c1.14.53,2.34,1,3.57,1.53,6.08,2.38,11.91,3.6,16.24,3.6,3.5,0,6.09-.78,6.93-2.63l-.3-.12-.31-.12c-.61,1.42-2.9,2.25-6.32,2.24-4.2,0-10-1.2-16-3.55-1.22-.48-2.4-1-3.53-1.51l-.39.06-.06.36c.55,1.06,1.09,2.17,1.59,3.32,2.47,5.62,3.72,11,3.72,14.95,0,3.26-.88,5.44-2.41,6a2.62,2.62,0,0,1-1,.17c-1.79,0-4.27-1.59-6.75-4.42a45.47,45.47,0,0,1-7-11.49c-.51-1.16-1-2.3-1.36-3.42l-.32-.22-.32.22c-.41,1.12-.86,2.26-1.37,3.41a45,45,0,0,1-7.09,11.45c-2.49,2.83-5,4.44-6.76,4.42a2.77,2.77,0,0,1-1-.18c-1.51-.57-2.39-2.72-2.38-5.94,0-3.94,1.28-9.37,3.78-15,.51-1.15,1-2.26,1.61-3.32l-.06-.37-.39-.06q-1.69.79-3.54,1.5a46.78,46.78,0,0,1-15.9,3.5c-3.47,0-5.79-.83-6.39-2.27a2.21,2.21,0,0,1-.19-.93c0-1.67,1.7-4,4.71-6.33a49.6,49.6,0,0,1,12.23-6.62c1.22-.48,2.44-.9,3.63-1.28l.23-.3-.23-.3q-1.78-.57-3.63-1.29a49.44,49.44,0,0,1-12.19-6.66c-3-2.34-4.71-4.67-4.69-6.35a2.32,2.32,0,0,1,.19-.94c.6-1.42,2.9-2.24,6.32-2.24,4.2,0,10,1.21,16,3.56,1.23.47,2.41,1,3.54,1.51l.38-.06.07-.36c-.56-1.07-1.09-2.18-1.6-3.33-2.46-5.61-3.72-11-3.72-15,0-3.26.89-5.44,2.41-6a2.72,2.72,0,0,1,1-.18c1.79,0,4.26,1.59,6.74,4.43a45,45,0,0,1,7.05,11.49c.5,1.15,1,2.29,1.36,3.42l.32.21.31-.21c.41-1.12.87-2.27,1.38-3.41a45.56,45.56,0,0,1,7.08-11.46c2.49-2.82,5-4.43,6.76-4.41a2.73,2.73,0,0,1,1,.18c1.51.56,2.39,2.72,2.39,5.93,0,4-1.28,9.38-3.79,15-.5,1.15-1.05,2.26-1.61,3.32l.07.36.38.06q1.71-.78,3.54-1.5A47.08,47.08,0,0,1,151,121.4c3.47,0,5.79.83,6.39,2.26a2.24,2.24,0,0,1,.19.93c0,1.68-1.7,4-4.71,6.34a49.93,49.93,0,0,1-12.23,6.62c-1.23.47-2.44.9-3.64,1.27l-.23.3.23.3q1.8.59,3.63,1.29a49.73,49.73,0,0,1,12.19,6.66c3,2.34,4.72,4.67,4.7,6.35a2.43,2.43,0,0,1-.19.94Zm-40.31-15.23.11-.3-.06,0,0,0v0l0,0,0-.05v0l0-.05.06,0h0l0,0,.05,0h0l.06,0,0,.06,0,0,0,.05,0,0,0,0,0,0-.06,0,0,0-.05,0-.06,0,0,0-.11.3-.15.28.21.1h.3l.18-.09.19-.06.21-.2.07-.18.09-.17V139l-.09-.17-.06-.18-.21-.2-.2-.07-.18-.08h-.3l-.18.08-.2.06-.21.2-.06.18-.1.18v.28l.09.17.07.18.21.2.22.07.1-.3-.15.28Z" fill="#fff"/><path d="M132.81,145.05c-3.51,7.91-13.17,11.65-21.59,8.36s-12.4-12.38-8.89-20.29,13.17-11.65,21.59-8.35S136.31,137.14,132.81,145.05Z" fill="#282a37"/></svg>