<?xml version="1.0" encoding="utf-8"?>
<!-- Generator: Adobe Illustrator 22.0.1, SVG Export Plug-In . SVG Version: 6.00 Build 0)  -->
<svg version="1.1" id="Layer_1" xmlns="http://www.w3.org/2000/svg" xmlns:xlink="http://www.w3.org/1999/xlink" x="0px" y="0px"
	 viewBox="0 0 190 190" enable-background="new 0 0 190 190" xml:space="preserve">
<g>
	<path fill="#F4EFB5" d="M112.7,74.5l9.7,0.9c0.4-4.5,1-8.9,2.2-12.9c1.1-3.9,2.8-7.3,4.8-9.7c2.1-2.5,4.4-4.2,6.8-5.3
		c2.4-1.1,5-1.6,7.7-1.6c4.8,0,10,1.8,14.2,5c2.1,1.6,4,3.5,5.5,5.7c1.5,2.2,2.7,4.6,3.4,7.3c0.5,1.7,0.7,3.6,0.7,5.4
		c0,2.5-0.4,5.1-1.3,7.4c-0.8,2.3-2.1,4.3-3.6,5.9c-0.4,0.4-1.3,1.1-2.7,1.8c-2.2,1-5.5,1.9-9.2,2.7c-1.8,0.4-3.8,0.8-5.7,1.2
		c-2,0.4-3.9,0.9-5.9,1.5c-4.9,1.5-7.8,6.5-6.8,11.5c1.1,5,5.8,8.4,10.9,7.7c4.5-0.6,8.5-1.2,11.6-1.1c2.2,0,3.9,0.2,5.4,0.6
		c1.4,0.4,2.6,1,3.9,2c2.2,1.8,3.6,3.9,4.7,6.6c1,2.7,1.6,5.9,1.6,9.5c0,3.2-0.5,6.7-1.3,9.9c-0.8,3.3-2.1,6.1-3.8,8.5
		c-2.5,3.7-5.8,6.5-9.6,8.6c-3.8,2.1-7.9,3.2-11.8,3.5c-0.3,0-0.6,0-0.9,0c-2.4,0-5.6-0.7-8.7-2.1c-3.1-1.4-6-3.3-8.1-5.3
		c-2.1-1.9-3.4-3.4-4.1-4.5c-0.6-0.9-0.9-1.5-1.1-2.2c-0.4-1.1-0.6-2.5-0.7-4.8c-0.1-2.3-0.1-5.3-0.2-9.2l-9.7,0.3l-9.6,1.9
		c0.6,3.4,1,6.5,1,9.4c0,3.2-0.4,6.2-1.3,9.2c-1.4,4.7-4.2,8.6-7.6,11.3c-3.5,2.7-7.6,4.3-12.2,4.3l-0.2,0h0.1
		c-4.5,0-9.4-0.9-13.7-2.5c-4.3-1.7-7.9-4.1-10.4-7c-1-1.2-1.7-2.5-2.2-3.9c-0.5-1.4-0.7-3-0.7-4.8c0-3.5,1-7.5,2.8-11.2
		c2.8-5.7,6.1-11.1,9.9-16.2l-7.8-5.9l-9.5-2.4c0,0.1,0,0.1-0.1,0.3c-0.2,0.2-0.6,0.8-1.5,1.4c-0.9,0.6-2.2,1.3-3.6,2l0.2,0.4
		l-0.2-0.4l0,0l0.2,0.4l-0.2-0.4c0,0-0.4,0.2-1,0.3c-0.8,0.2-2.1,0.4-3.5,0.5c-1.4,0.1-2.8,0.2-4.2,0.2c-1.2,0-2.4-0.1-3.2-0.1
		c-0.4,0-0.7-0.1-0.9-0.1l-0.1,0l-0.6,2.4l0.8-2.3l-0.2-0.1l-0.6,2.4l0.8-2.3l0,0c-2-0.7-3.9-1.9-5.6-3.6c-1.7-1.7-3.2-3.9-4.2-6.2
		c-1.4-3.2-2.1-7-2.1-10.9c0-1.9,0.2-3.8,0.4-5.7c1.1-7.2,4.1-14,8.6-19c2.2-2.5,4.9-4.6,7.8-6.2c2.9-1.6,6-2.6,9.1-2.9
		c0.7-0.1,1.5-0.1,2.1-0.1c1.4,0,2.6,0.2,3.6,0.5c0.9,0.3,1.7,0.8,2.6,1.4c1.3,1,2.6,2.5,3.7,4.4c1.1,1.9,2,4.2,2.5,6.4
		c1.3,5.3,6.6,8.5,11.8,7.2c5.2-1.3,8.4-6.6,7.1-11.9c-0.7-2.9-1.8-4.9-2.5-6.5c-0.8-1.6-1.3-2.7-1.4-3.1c-0.5-1.8-1.4-3.4-2.1-4.4
		c-0.5-0.8-0.9-1.3-1.1-1.6c-0.3-0.5-0.5-0.8-0.9-1.6c-0.3-0.8-0.8-2.1-1.4-4.2c-0.3-1.2-0.5-2.4-0.5-3.6c0-1.4,0.2-2.9,0.7-4.4
		c0.7-2.2,1.9-4.5,3.6-6.7c1.7-2.2,3.8-4.3,6.1-6c1-0.8,2.3-1.4,3.8-1.8c1.5-0.4,3.2-0.7,5.1-0.7c2.7,0,5.7,0.5,8.4,1.5
		c2.7,0.9,5.2,2.3,6.9,3.7c0.8,0.7,1.4,1.4,2,2.1c0.8,1.1,1.3,2.4,1.7,4.1c0.4,1.6,0.6,3.6,0.6,5.8c0,3.5-0.5,7.5-1.1,11.6
		c-0.6,4.3-1.5,8.6-2.4,13c-0.3,1.2-0.3,2.3-0.3,3.2c0,1,0.1,1.7,0.1,2.2c0,0.2,0,0.4,0,0.4l0,0l0.6,0l-0.6,0l0,0l0.6,0l-0.6,0
		l2.9-0.1l-2.9,0l0,0.1l2.9-0.1l-2.9,0h6.5l-6-2.4c-0.5,1.3-0.5,2.2-0.5,2.4h6.5l-6-2.4l7,2.9l-5.9-4.8c-0.5,0.6-0.9,1.3-1.1,1.9
		l7,2.9l-5.9-4.8l5.6,4.6l-4.2-6c-0.5,0.3-1,0.8-1.5,1.4l5.6,4.6l-4.2-6L112.7,74.5l9.7,0.9L112.7,74.5l5.6,8
		c0.9-0.6,1.8-1.4,2.5-2.4c1.1-1.4,1.9-3.1,2.2-4.5c0.4-1.4,0.4-2.6,0.4-3.5c0-1-0.1-1.7-0.1-2.1c0-0.2,0-0.3,0-0.4l0-0.1l-1,0h1.1
		l0,0l-1,0h1.1h-4.2l4.1,0.9c0.1-0.5,0.1-0.8,0.1-0.9h-4.2l4.1,0.9c1-4.6,1.9-9.3,2.6-14.1c0.7-4.3,1.4-9.3,1.4-14.6
		c0-4.5-0.5-9.2-2.2-14c-0.9-2.4-2-4.8-3.6-7c-1.5-2.2-3.4-4.3-5.7-6.2c-3.8-3.1-8.2-5.5-12.8-7.1C98.2,5.9,93.2,5,88.1,5
		c-3.5,0-7,0.4-10.5,1.5c-3.5,1-6.9,2.6-10,5c-4.8,3.7-9.2,8.2-12.6,13.7c-1.7,2.7-3.1,5.7-4,8.9c-1,3.2-1.5,6.6-1.5,10.2
		c0,2.9,0.4,5.8,1.1,8.7c0.7,2.6,1.4,4.7,2.2,6.5c0.6,1.3,1.2,2.5,1.7,3.5c0.9,1.5,1.6,2.5,1.8,2.8l0.1,0.1l0.7-0.4l-0.7,0.4l0,0
		l0.7-0.4l-0.7,0.4l1.5-0.8l-1.7,0.5l0.1,0.3l1.5-0.8l-1.7,0.5c0.8,2.6,1.8,4.5,2.5,5.9c0.7,1.4,1.1,2.4,1.1,2.5
		c0.6,2.5,2.2,4.7,4.4,6.1c2.2,1.3,4.9,1.7,7.4,1.1c2.5-0.6,4.7-2.3,6-4.5c1.3-2.2,1.7-4.9,1.1-7.4c-1.3-5.3-3.5-10.5-7-15.2
		c-1.7-2.3-3.8-4.5-6.2-6.4c-2.4-1.9-5.2-3.5-8.4-4.5c-3.3-1.1-6.6-1.5-9.7-1.5c-1.5,0-2.9,0.1-4.3,0.2C37.5,42.5,32,44.3,27.1,47
		c-4.9,2.7-9.3,6.2-13.1,10.4C6.6,65.6,2.3,75.9,0.7,86.5C0.2,89.3,0,92.2,0,95.2c0,6.2,1.1,12.7,3.7,18.8c2,4.6,4.8,8.8,8.4,12.4
		c3.6,3.6,8,6.5,13.1,8.2l0,0c1,0.3,1.8,0.5,2.6,0.7c1.2,0.2,2.4,0.4,3.7,0.4c1.3,0.1,2.6,0.1,3.9,0.1c2.7,0,5.5-0.2,8.3-0.5
		c1.4-0.2,2.8-0.4,4.1-0.8c1.4-0.3,2.8-0.8,4.3-1.5c2.8-1.3,5.9-2.9,8.9-5.5c1.5-1.3,3-2.8,4.3-4.7c1.3-1.9,2.3-4.1,2.9-6.6
		c1.1-4.6-1.1-9.2-5.3-11.3c-4.2-2-9.2-0.8-12,3c-4.5,6-8.4,12.5-11.8,19.2c-2.9,6-4.9,12.8-4.9,20c0,3.6,0.5,7.3,1.7,11
		c1.2,3.6,3.1,7.2,5.8,10.4c5,6,11.5,10.1,18.2,12.7c6.7,2.6,13.8,3.8,20.6,3.8h0.1l0.2,0c9.1,0,17.5-3.2,24.2-8.4
		c6.7-5.3,11.7-12.6,14.3-21c1.6-5.1,2.2-10.1,2.2-15c0-4.5-0.5-8.9-1.3-13.2c-1-5-5.6-8.5-10.6-7.9c-5.1,0.6-8.8,4.9-8.7,10
		c0.1,3.1,0.1,5.9,0.2,8.7c0.1,2.1,0.3,4.2,0.6,6.5c0.6,3.4,1.8,6.9,3.8,10.3c2,3.3,4.7,6.3,8,9.3c3.8,3.4,8.3,6.4,13.3,8.6
		c5,2.2,10.6,3.8,16.5,3.8c0.7,0,1.5,0,2.3-0.1c8.9-0.7,17.9-3.9,25.7-9.8c3.9-2.9,7.4-6.6,10.3-10.9c2.9-4.3,5.2-9.3,6.6-14.8
		c1.2-4.7,1.9-9.7,1.9-14.7c0-5.5-0.8-11.2-2.9-16.6c-2.1-5.4-5.6-10.6-10.5-14.7c-3.3-2.7-7.1-4.6-10.8-5.7
		c-3.7-1.1-7.4-1.4-10.8-1.4c-5.1,0-9.8,0.7-14.3,1.3l1.3,9.7l2.8,9.4c1.6-0.5,3.8-1,6.3-1.5c3.7-0.8,8.1-1.7,12.6-3.1
		c2.2-0.7,4.5-1.7,6.7-2.9c2.2-1.2,4.5-2.8,6.5-4.9c3.5-3.7,6.1-8.1,7.8-12.7c1.7-4.6,2.5-9.4,2.5-14.2c0-3.5-0.4-7.1-1.4-10.5
		c-1.3-5-3.5-9.5-6.2-13.5c-4.1-6-9.6-10.7-15.7-13.9c-6.1-3.3-13-5.1-20-5.1c-5.3,0-10.7,1.1-15.8,3.4c-5.1,2.3-9.8,5.9-13.7,10.6
		c-4.3,5.2-6.9,11-8.6,16.8c-1.7,5.8-2.5,11.5-2.9,16.7c-0.3,3.8,1.6,7.5,4.8,9.4c3.3,1.9,7.4,1.7,10.5-0.5L112.7,74.5z"/>
	<path fill="#F9C146" d="M111.3,76c0.8-9,2.7-18.9,8.5-25.9c15.4-18.6,44.6-8.4,50.4,13.6c2.3,8.9,0.3,19.2-6.1,26
		c-5.7,6-17.9,6.7-25.7,9.1c9.8-1.4,18.9-2.6,26.2,3.4c9.6,7.9,10.6,21.7,7.7,33.3c-4.1,16.3-18.3,25-31.3,25.9
		c-8.1,0.6-17.3-3.9-23-9.1c-9.3-8.5-8.3-13.6-8.7-25.7c1.4,7.4,1.7,14.5-0.6,21.7c-3.7,12.1-14.4,20.9-27.1,20.8
		c-10.5-0.1-22.1-3.8-29.1-12.1c-6.8-8.1-5.6-19.4-1.2-28.3c2.8-5.7,6.2-11.2,10-16.4c-1.2,4.7-5.5,7.4-9.9,9.4
		c-4.3,2-14.9,2.2-18.2,1.1c-6.5-2.2-11.7-7.6-14.5-14c-2.7-6.4-3.2-13.6-2.2-20.4c1.2-8.2,4.6-16.1,10.1-22.3
		c5.5-6.2,13.1-10.5,21.3-11.4c3.1-0.3,6.2-0.2,9.1,0.8c7.4,2.5,12.2,10.1,14.1,17.7c-0.7-2.8-2.6-5.5-3.5-8.3
		c-1-3.1-2.9-3-5.1-11.2C59.6,42.4,66.3,31.7,75.1,25c9.4-7.1,24.8-4.4,33.4,2.7c9,7.5,7.7,19.8,6.1,30.3c-0.6,4.2-1.4,8.3-2.3,12.5
		C111.8,72.6,113.1,74.8,111.3,76z"/>
	<path fill="#F68E1F" d="M109.6,80.6c0.6-7.2,2.2-15.2,6.9-20.9c12.4-15,35.9-6.8,40.6,11c1.9,7.1,0.3,15.5-4.9,20.9
		c-4.6,4.8-14.4,5.4-20.7,7.3c7.9-1.1,15.2-2.1,21.1,2.7c7.8,6.4,8.5,17.4,6.2,26.8c-3.3,13.1-14.8,20.1-25.2,20.9
		c-6.5,0.5-13.9-3.1-18.5-7.3c-7.5-6.9-6.7-11-7-20.7c1.1,5.9,1.3,11.7-0.4,17.4c-3,9.8-11.6,16.8-21.8,16.8
		c-8.4,0-17.8-3.1-23.4-9.7c-5.5-6.5-4.5-15.6-1-22.8c2.3-4.6,5-9,8.1-13.2c-0.9,3.8-4.5,6-8,7.6c-3.5,1.6-12,1.8-14.7,0.9
		c-5.3-1.8-9.4-6.2-11.6-11.3c-2.2-5.1-2.6-10.9-1.7-16.5c1-6.6,3.7-13,8.2-17.9c4.4-5,10.6-8.4,17.1-9.2c2.5-0.3,5-0.2,7.3,0.6
		c6,2,9.8,8.1,11.3,14.3c-0.6-2.2-2.1-4.4-2.8-6.7c-0.8-2.5-2.3-2.4-4.1-9c-2.5-9.2,2.9-17.8,10-23.2c7.5-5.7,20-3.5,26.9,2.2
		c7.3,6,6.2,16,4.9,24.4c-0.5,3.4-1.2,6.7-1.9,10.1C109.9,77.9,111,79.6,109.6,80.6z"/>
	<path fill="#E66521" d="M108.2,84.2c0.5-5.9,1.8-12.3,5.6-17c10.1-12.2,29.2-5.5,33,8.9c1.5,5.8,0.2,12.6-4,17
		c-3.7,3.9-11.7,4.4-16.9,6c6.4-0.9,12.4-1.7,17.2,2.2c6.3,5.2,6.9,14.2,5,21.8c-2.7,10.7-12,16.4-20.5,17c-5.3,0.4-11.3-2.5-15.1-6
		c-6.1-5.6-5.5-8.9-5.7-16.8c0.9,4.8,1.1,9.5-0.4,14.2c-2.5,7.9-9.4,13.7-17.8,13.6c-6.8,0-14.5-2.5-19-7.9
		c-4.4-5.3-3.7-12.7-0.8-18.5c1.9-3.8,4.1-7.3,6.6-10.7c-0.8,3.1-3.6,4.9-6.5,6.2c-2.8,1.3-9.8,1.4-11.9,0.7c-4.3-1.4-7.7-5-9.5-9.2
		c-1.8-4.2-2.1-8.9-1.4-13.4c0.8-5.4,3-10.5,6.6-14.6c3.6-4,8.6-6.8,13.9-7.4c2-0.2,4.1-0.1,6,0.5c4.9,1.6,8,6.6,9.2,11.6
		c-0.4-1.8-1.7-3.6-2.3-5.4c-0.6-2-1.9-1.9-3.4-7.4c-2-7.5,2.4-14.5,8.1-18.9c6.1-4.6,16.2-2.8,21.9,1.8c5.9,4.9,5,13,4,19.8
		c-0.4,2.7-0.9,5.5-1.5,8.2C108.5,81.9,109.3,83.4,108.2,84.2z"/>
	<path fill="#E37628" d="M97.6,88.3c-0.1-2.2-0.1-4.5-0.1-6.7c0-2.2,0.1-4.5,0.2-6.7c0.1-2.2,0.3-4.4,0.5-6.7
		c0.2-2.2,0.4-4.4,0.8-6.7c0-0.3,0.3-0.5,0.6-0.4c0.2,0,0.4,0.2,0.4,0.5c0.1,2.2,0.1,4.5,0.1,6.7c0,2.2-0.1,4.5-0.2,6.7
		c-0.1,2.2-0.3,4.4-0.5,6.7c-0.2,2.2-0.4,4.4-0.8,6.7c0,0.3-0.3,0.5-0.6,0.4C97.8,88.8,97.6,88.6,97.6,88.3z"/>
	<path fill="#E37628" d="M96.5,90.4c-1.2-1.8-2.3-3.7-3.4-5.6C92,82.8,91,80.9,90,78.9c-1-2-2-3.9-2.9-5.9c-0.9-2-1.8-4-2.6-6
		c-0.1-0.3,0-0.6,0.3-0.7c0.2-0.1,0.5,0,0.6,0.2c1.2,1.8,2.3,3.7,3.4,5.6c1.1,1.9,2.1,3.8,3.1,5.8c1,2,2,3.9,2.9,5.9
		c0.9,2,1.8,4,2.6,6c0.1,0.3,0,0.6-0.3,0.7C96.9,90.7,96.6,90.6,96.5,90.4z"/>
	<path fill="#E37628" d="M96.5,94.1c-0.5-2.2-0.9-4.4-1.3-6.6c-0.4-2.2-0.7-4.4-1-6.6c-0.3-2.2-0.5-4.4-0.7-6.6
		c-0.2-2.2-0.4-4.4-0.4-6.7c0-0.3,0.2-0.5,0.5-0.5c0.2,0,0.5,0.2,0.5,0.4c0.5,2.2,0.9,4.4,1.3,6.6c0.4,2.2,0.7,4.4,1,6.6
		c0.3,2.2,0.5,4.4,0.7,6.6c0.2,2.2,0.4,4.4,0.4,6.7c0,0.3-0.2,0.5-0.5,0.5C96.7,94.5,96.5,94.3,96.5,94.1z"/>
	<path fill="#E37628" d="M109.1,95.7c2-1.1,4-2,6-2.9c2-0.9,4-1.8,6.1-2.7c2-0.8,4.1-1.7,6.2-2.4c2.1-0.8,4.2-1.5,6.3-2.1
		c0.3-0.1,0.6,0.1,0.6,0.4c0.1,0.2,0,0.5-0.3,0.6c-2,1.1-4,2-6,2.9c-2,0.9-4,1.8-6.1,2.6c-2.1,0.8-4.1,1.7-6.2,2.4
		c-2.1,0.8-4.2,1.5-6.3,2.1c-0.3,0.1-0.6-0.1-0.6-0.4C108.8,96.1,108.9,95.8,109.1,95.7z"/>
	<path fill="#E37628" d="M106.8,95.6c1.1-1.9,2.4-3.7,3.6-5.5c1.2-1.8,2.5-3.6,3.9-5.3c1.3-1.7,2.7-3.5,4.1-5.1
		c1.4-1.7,2.8-3.4,4.3-5c0.2-0.2,0.5-0.2,0.7,0c0.2,0.2,0.2,0.4,0.1,0.7c-1.1,1.9-2.4,3.7-3.6,5.5c-1.2,1.8-2.5,3.6-3.9,5.3
		c-1.3,1.7-2.7,3.5-4.1,5.1c-1.4,1.7-2.8,3.4-4.3,5c-0.2,0.2-0.5,0.2-0.7,0C106.7,96.1,106.7,95.8,106.8,95.6z"/>
	<path fill="#E37628" d="M103.4,97.1c1.7-1.4,3.5-2.7,5.3-4c1.8-1.3,3.7-2.5,5.5-3.7c1.9-1.2,3.7-2.4,5.6-3.5
		c1.9-1.1,3.8-2.2,5.8-3.2c0.3-0.1,0.6,0,0.7,0.2c0.1,0.2,0,0.5-0.1,0.6c-1.7,1.4-3.5,2.7-5.3,4c-1.8,1.3-3.7,2.5-5.5,3.7
		c-1.9,1.2-3.7,2.4-5.6,3.5c-1.9,1.1-3.8,2.2-5.8,3.2c-0.3,0.1-0.6,0-0.7-0.2C103.2,97.5,103.3,97.3,103.4,97.1z"/>
	<path fill="#E37628" d="M104.9,104.1c1.7,1.4,3.3,2.9,5,4.5c1.6,1.5,3.2,3.1,4.8,4.7c1.5,1.6,3.1,3.2,4.6,4.8
		c1.5,1.6,3,3.3,4.3,5.1c0.2,0.2,0.1,0.6-0.1,0.7c-0.2,0.2-0.5,0.2-0.7,0c-1.7-1.4-3.3-2.9-5-4.4c-1.6-1.5-3.2-3.1-4.7-4.7
		c-1.5-1.6-3.1-3.2-4.6-4.8c-1.5-1.6-3-3.3-4.4-5.1c-0.2-0.2-0.1-0.6,0.1-0.7C104.4,103.9,104.7,103.9,104.9,104.1z"/>
	<path fill="#E37628" d="M104.1,101.9c2.2,0.3,4.3,0.8,6.4,1.3c2.1,0.5,4.2,1,6.3,1.6c2.1,0.6,4.2,1.2,6.3,1.8
		c2.1,0.7,4.1,1.3,6.2,2.1c0.3,0.1,0.4,0.4,0.3,0.7c-0.1,0.2-0.3,0.4-0.6,0.3c-2.2-0.3-4.3-0.8-6.4-1.3c-2.1-0.5-4.2-1-6.3-1.6
		c-2.1-0.6-4.2-1.2-6.3-1.8c-2.1-0.7-4.1-1.3-6.2-2.1c-0.3-0.1-0.4-0.4-0.3-0.7C103.6,102,103.9,101.9,104.1,101.9z"/>
	<path fill="#E37628" d="M101.4,99.3c1.9,1.1,3.8,2.3,5.7,3.5c1.9,1.2,3.7,2.5,5.5,3.7c1.8,1.3,3.6,2.6,5.4,3.9
		c1.8,1.3,3.5,2.7,5.2,4.2c0.2,0.2,0.2,0.5,0.1,0.7c-0.2,0.2-0.4,0.2-0.6,0.1c-1.9-1.1-3.8-2.3-5.7-3.5c-1.9-1.2-3.7-2.5-5.5-3.7
		c-1.8-1.3-3.6-2.6-5.3-3.9c-1.8-1.3-3.5-2.7-5.2-4.2c-0.2-0.2-0.2-0.5-0.1-0.7C100.9,99.3,101.2,99.2,101.4,99.3z"/>
	<path fill="#E37628" d="M92.2,105.5c-1.1,2-2.2,3.9-3.4,5.8c-1.2,1.9-2.4,3.8-3.6,5.6c-1.2,1.8-2.5,3.7-3.8,5.5
		c-1.3,1.8-2.6,3.6-4.1,5.3c-0.2,0.2-0.5,0.2-0.7,0.1c-0.2-0.2-0.2-0.4-0.1-0.6c1-2,2.2-3.9,3.4-5.8c1.2-1.9,2.4-3.8,3.6-5.6
		c1.3-1.8,2.5-3.7,3.8-5.5c1.3-1.8,2.6-3.6,4.1-5.3c0.2-0.2,0.5-0.3,0.7-0.1C92.2,105,92.3,105.2,92.2,105.5z"/>
	<path fill="#E37628" d="M94.1,104.3c0.1,2.2,0,4.4,0,6.6c0,2.2-0.2,4.4-0.3,6.6c-0.2,2.2-0.3,4.4-0.6,6.6c-0.2,2.2-0.5,4.4-0.9,6.5
		c0,0.3-0.3,0.5-0.6,0.4c-0.2,0-0.4-0.3-0.4-0.5c-0.1-2.2,0-4.4,0-6.6c0-2.2,0.2-4.4,0.3-6.6c0.2-2.2,0.3-4.4,0.6-6.6
		c0.2-2.2,0.5-4.4,0.9-6.5c0-0.3,0.3-0.5,0.6-0.4C94,103.8,94.1,104,94.1,104.3z"/>
	<path fill="#E37628" d="M96.1,101.1c-0.7,2.1-1.5,4.2-2.3,6.3c-0.8,2.1-1.7,4.1-2.5,6.2c-0.9,2-1.8,4.1-2.8,6.1c-1,2-2,4-3.1,5.9
		c-0.1,0.3-0.5,0.3-0.7,0.2c-0.2-0.1-0.3-0.4-0.2-0.6c0.7-2.1,1.5-4.2,2.3-6.3c0.8-2.1,1.7-4.1,2.6-6.2c0.9-2,1.8-4.1,2.8-6.1
		c1-2,2-4,3.1-5.9c0.1-0.3,0.5-0.3,0.7-0.2C96.1,100.6,96.2,100.9,96.1,101.1z"/>
	<path fill="#E37628" d="M89.7,98.6c-2-0.9-4-2-5.9-3c-2-1-3.9-2.1-5.8-3.3c-1.9-1.1-3.8-2.3-5.7-3.5c-1.9-1.2-3.7-2.4-5.5-3.7
		c-0.2-0.2-0.3-0.5-0.1-0.7c0.1-0.2,0.4-0.3,0.6-0.2c2,0.9,4,2,5.9,3c2,1,3.9,2.1,5.8,3.3c1.9,1.1,3.8,2.3,5.7,3.5
		c1.9,1.2,3.7,2.4,5.5,3.7c0.2,0.2,0.3,0.5,0.1,0.7C90.2,98.6,89.9,98.7,89.7,98.6z"/>
	<path fill="#E37628" d="M91,100.5c-2.2,0.2-4.3,0.3-6.5,0.4c-2.2,0.1-4.3,0.1-6.5,0.1c-2.2,0-4.3,0-6.5-0.1
		c-2.2-0.1-4.3-0.2-6.5-0.4c-0.3,0-0.5-0.3-0.5-0.6c0-0.3,0.2-0.4,0.5-0.5c2.2-0.2,4.3-0.3,6.5-0.4c2.2-0.1,4.3-0.1,6.5-0.1
		c2.2,0,4.3,0,6.5,0.1c2.2,0.1,4.3,0.2,6.5,0.4c0.3,0,0.5,0.3,0.5,0.6C91.4,100.3,91.2,100.5,91,100.5z"/>
	<path fill="#E37628" d="M94.2,102.2c-2.2-0.5-4.3-1.2-6.4-1.9c-2.1-0.7-4.2-1.4-6.3-2.1c-2.1-0.8-4.1-1.5-6.2-2.4
		c-2-0.8-4.1-1.7-6.1-2.7c-0.3-0.1-0.4-0.4-0.2-0.7c0.1-0.2,0.4-0.3,0.6-0.3c2.2,0.5,4.3,1.2,6.4,1.9c2.1,0.7,4.2,1.4,6.3,2.2
		c2.1,0.8,4.1,1.5,6.2,2.4c2,0.8,4.1,1.7,6.1,2.7c0.3,0.1,0.4,0.4,0.2,0.7C94.7,102.2,94.5,102.3,94.2,102.2z"/>
	<path fill="#EFECE4" d="M117.7,98.2c0,10.9-8.8,19.8-19.6,19.8c-10.8,0-19.6-8.8-19.6-19.8c0-10.9,8.8-19.8,19.6-19.8
		C108.9,78.4,117.7,87.3,117.7,98.2z"/>
</g>
</svg>
