<svg xmlns="http://www.w3.org/2000/svg" viewBox="0 0 166.11 492.68"><defs><clipPath id="a"><path d="M155.43 319.68c-10.19-28.79-34-50.65-42.39-80.13-.84-31.71-1.03-63.47-.97-95.3 0-3.54-2.88-6.04-6.26-6.26-11.84-.76-23.67-1.53-35.51-2.29-3.54-.23-6.04 3.06-6.26 6.26-2.46 35.69-5.03 71.34-8.25 106.91-6.36 12.4-13.93 24.12-22.99 34.76C6.5 308.86-1.72 319.87.29 357.68c-.62 40.09 7.63 79.16 22.74 116.12 5.1 15.74 32.69 25.93 42.66 9.73 4.88-9.51-2.27-23.89-3.78-33.85-1.92-12.62-6.31-30.75-1.9-43.04 5.31-14.83 24.8-19 35.78-7.99 18.43 19.38-12.52 57.55 1.52 83.64 5.31 9.97 17.27 12.01 27.35 9.28 11.84-2.86 15.85-5.65 16.04-18.32 7.68-50.28 30.83-102.86 14.74-153.57Z" fill="none"/></clipPath></defs><path d="M155.43 319.68c-10.19-28.79-34-50.65-42.39-80.13-.84-31.71-1.03-63.47-.97-95.3 0-3.54-2.88-6.04-6.26-6.26-11.84-.76-23.67-1.53-35.51-2.29-3.54-.23-6.04 3.06-6.26 6.26-2.46 35.69-5.03 71.34-8.25 106.91-6.36 12.4-13.93 24.12-22.99 34.76C6.5 308.86-1.72 319.87.29 357.68c-.62 40.09 7.63 79.16 22.74 116.12 5.1 15.74 32.69 25.93 42.66 9.73 4.88-9.51-2.27-23.89-3.78-33.85-1.92-12.62-6.31-30.75-1.9-43.04 5.31-14.83 24.8-19 35.78-7.99 18.43 19.38-12.52 57.55 1.52 83.64 5.31 9.97 17.27 12.01 27.35 9.28 11.84-2.86 15.85-5.65 16.04-18.32 7.68-50.28 30.83-102.86 14.74-153.57Z" fill="#ff9"/><g clip-path="url(#a)"><path d="M30.68 244.46c-8.96-4.83-1.9-24.02.81-31.64 5.43-15.25 6.81-19.21 24.56-20.03 20.83-.96 25.88 35.67 7.36 43.57-6.02 1.49-27.8 10.75-32.73 8.1Zm111.38 48.55c12.23 1.05 10.9-5.12 11.67-15.43 1.03-13.76.24-18.87-5.54-30.92-4.7-9.8-9.42-28.74-20.48-33.41-7.18-3.03-18.92-.54-21.66 7.97-1.55 4.82 2.63 11.92 2.11 17.03-1.14 11.17-11.61 19.46-4.47 32.39 5.57 10.09 21.99 4.25 24.91 11.93 4.07 7.05 4.89 9.69 13.46 10.43ZM21.67 449.48c27.45-2.64 6.98-49.6-27.41-24.39-7.26 7.26-7.93 23.06 2.55 27.49 6.83 2.88 17.61-1.39 24.86-3.09ZM7.79 335.25c3.9 9.32 13.43 22.41 24.53 14.04 13.53-10.2-3.69-21.34-5.42-31.77-2.48-14.89 14.42-32.8.65-46.59-7.82-7.83-21.52-5.86-29.06.95-4.74 4.28-18.2 25.1-17.44 31.89 1.27 11.32 12.35 8.6 18.32 13.73 3.94 3.39 6.2 13.08 8.41 17.75Zm58.69-55.08c-2.32 6.96-3.8 18.25.73 24.79 5.58 8.05 13.64 7.15 16.52-2.1 2.89-9.31-6.23-35.51-17.24-22.69Zm86.88 127.06c4 39.64 18.67 23.35 26.75-1.83 1.78-14.61-6-35.28-9.17-49.79-2.23-10.18-4.97-20.87-9.74-30.2-9.25-19.04-26.1-21.17-26.15 4.03-9.83 23.06-22.27 32.24 6.9 45.83 11.68 6.93 11.23 19.39 11.41 31.97 1.18 4.26-.11-7.68 0 0Zm-55.92 37.22c18.88 16.84 22.72-15.8 21.56-28.77-1.56-19.45-28.23-44.27-36.11-17.32-2.93 10.02-4.4 17.57-2.5 27.49 2.8 14.64 3.09 14.79 17.05 18.59Zm6.64-94.54c.74-7.85-10-11.68-16.05-12.9-20.42-4.1-29.98 13.23-39.88 27.7-3.89 5.68-15.51 13.84-17.9 19.59-4.04 9.72 5.44 12.18 13.38 9.06 19.15-7.51 15.62-33.93 40.6-36.46 6.42-.65 18.91 3.01 19.85-6.99Zm-24.7-233.4c-1.6 14.38-5.86 26.98 5.46 37.56 5 4.68 9.55 3.47 12.22 10.91 2.45 6.84-1.38 12.24 5.64 17.5 19.16 10.96 51.35-10.37 48.27-32.54-.83-7.69-8.06-14.46-6.64-22.4l-64.96-11.03Z" fill="#f96"/></g><path fill="#1d1d1b" d="m93.99 472.68 46.22 4.84-2.97 15.16h-40.5l-2.75-20zm-70.4 2.69 43.4-4.41.36 21.72H28.99l-5.4-17.31z"/><g fill="#fe9"><path d="M74.58 35.9C63.97 43.71 55.84 70.27 46.5 88.14c-3.62 6.92-7.28 13.98-8.71 21.66-1.43 7.68-.32 16.22 4.75 22.16 6.82 7.98 18.52 9.23 29.01 9.65 13.07.52 26.15.64 39.23.35 4.81-.11 9.74-.29 14.2-2.1 9.92-4.02 15.24-15.38 15.38-26.08.14-10.7-3.87-20.96-7.82-30.91-3.03-7.65-6.07-15.29-9.1-22.94-3.39-8.54-7.06-17.47-14.19-23.27-7.14-5.79-28.87-5.04-34.67-.77Z"/><path d="M71.43 30.51c-8.27 6.18-12.89 16.11-17.08 25.28-4.79 10.49-9.09 21.16-14.39 31.41-6.23 12.04-12.09 26.14-7.25 39.75 2.33 6.54 6.72 12 12.85 15.36 5.71 3.13 12.06 4.37 18.47 5.05s12.97.74 19.44.87c7.45.16 14.9.18 22.35.08s15.49-.03 22.65-3.18c5.52-2.43 10.02-7.01 13.01-12.18 6.85-11.88 5.89-25.9 1.93-38.57-2.13-6.81-4.94-13.41-7.57-20.04s-5.17-13.22-7.87-19.78-5.5-12.42-9.86-17.8c-3.4-4.21-7.52-7.22-12.73-8.74-4.73-1.38-9.84-1.8-14.75-1.74-4.65.06-9.51.5-13.96 1.88-1.8.56-3.69 1.25-5.24 2.35-1.36.97-2.41 2.07-2.87 3.74-.41 1.5-.23 3.49.63 4.82 1.7 2.63 5.71 4.28 8.55 2.24.52-.37 1.06-.64 1.63-.93.48-.24 1.06-.23-.84.35.2-.06.4-.16.6-.23.4-.14.8-.27 1.2-.39.85-.25 1.71-.45 2.58-.63.45-.09.89-.17 1.34-.25l.55-.09c1.58-.24-1.34.15-.24.03 4.29-.48 8.62-.56 12.91-.08.3.03.6.08.9.11-1.95-.22-1.2-.17-.77-.1.48.08.97.16 1.45.25 1.05.2 2.1.44 3.13.75.42.12.84.26 1.25.41.2.07.4.15.59.22 1 .37-1.52-.73-.59-.25.75.38 1.45.77 2.16 1.22.42.26.56.76-.77-.6.27.28.62.51.91.77.49.44.97.89 1.44 1.36s.91.95 1.34 1.45c.22.25.43.5.63.75 1 1.22-.61-.88.11.14 1.61 2.29 3.05 4.66 4.31 7.17.6 1.2 1.17 2.42 1.71 3.65l.48 1.11c.47 1.07-.18-.34-.16-.38-.13.19.8 1.93.92 2.24 1.25 3.11 2.48 6.23 3.71 9.34 2.55 6.43 5.14 12.85 7.65 19.3 2.37 6.07 4.58 12.25 5.71 18.69.08.46.15.91.22 1.37.24 1.51-.1-1.04-.01-.06.07.84.17 1.68.23 2.53a38.136 38.136 0 0 1-.11 6.43c-.03.23-.07.47-.08.71.13-1.94.09-.71.01-.25a33.902 33.902 0 0 1-1.44 5.54c-.17.47-1.08 2.28-.15.5-.6 1.15-1.09 2.35-1.76 3.47-.3.5-.61 1-.94 1.48-.18.26-.48.56-.61.85.03-.08.99-1.21.34-.44-.82.97-1.66 1.91-2.61 2.76-.26.23-.52.45-.78.67-.76.65.37-.31.45-.34-.54.24-1.06.75-1.57 1.06-.54.33-1.1.64-1.67.92-.21.1-.43.19-.63.3 1.72-.93.29-.13-.21.04-1.5.52-3.02.83-4.58 1.11-.52.09-.74.38.32-.04-.36.14-.96.11-1.35.14-.9.08-1.81.13-2.72.17-13.93.62-27.97.31-41.9-.23-2.68-.1-5.36-.25-8.02-.53-.52-.05-2.64-.47-.6-.05-.62-.13-1.25-.18-1.87-.29-1.36-.23-2.7-.52-4.04-.87-1.19-.31-2.36-.68-3.51-1.11-.4-.15-1.54-.72.14.09-.22-.1-.44-.19-.66-.3-.65-.3-1.3-.63-1.92-.99-.52-.29-1.03-.61-1.53-.94-.27-.18-.58-.49-.88-.62 1.16.5.79.63.28.2-.46-.39-.91-.79-1.34-1.22-.22-.22-.43-.43-.63-.66-.17-.18-.33-.37-.49-.55-.33-.41-.33-.4 0 .03l.25.33c-.16-.21-.31-.42-.46-.63-.22-.32-.43-.64-.64-.97-.34-.55-.65-1.11-.93-1.69-.11-.23-.22-.46-.33-.7-.59-1.25.5 1.37.04.07-.26-.73-.51-1.46-.71-2.21-.17-.63-.31-1.26-.44-1.9-.05-.26-.09-.51-.14-.77-.26-1.39.13 1.52.02.11s-.2-2.88-.15-4.33c.02-.66.06-1.31.12-1.97.03-.33.07-.65.11-.98.1-.9-.28 1.64-.03.3.3-1.58.62-3.15 1.07-4.7.41-1.44.89-2.86 1.42-4.26.16-.42.32-.84.49-1.26.03-.08.62-1.45.2-.5s.19-.42.22-.5c.18-.41.37-.82.56-1.23 2.45-5.31 5.33-10.41 7.79-15.71 2.28-4.93 4.41-9.94 6.58-14.92s4.34-9.89 6.8-14.69c1.08-2.1 2.21-4.18 3.45-6.19.54-.88 1.1-1.75 1.69-2.6.28-.4.56-.8.86-1.2s1.02-1.19-.28.36c.18-.21.35-.44.52-.65.56-.68 1.15-1.34 1.77-1.96.29-.29.59-.58.9-.85.18-.16.37-.31.55-.47.76-.69-1.34 1.01-.53.4 1.35-1.01 2.41-2.04 2.87-3.74.41-1.5.23-3.49-.63-4.82-1.67-2.58-5.75-4.33-8.55-2.24Z"/></g><g fill="#fe9"><path d="M80.35 29.4c-1.93-4.34-3.86-8.67-5.79-13.01"/><path d="M85.76 26.24c-1.93-4.34-3.86-8.67-5.79-13.01-.6-1.34-2.39-2.5-3.74-2.88-1.5-.41-3.49-.23-4.82.63s-2.51 2.14-2.88 3.74l-.22 1.66c0 1.13.29 2.18.85 3.16 1.93 4.34 3.86 8.67 5.79 13.01.6 1.34 2.39 2.5 3.74 2.88 1.5.41 3.49.23 4.82-.63s2.51-2.14 2.88-3.74l.22-1.66c0-1.13-.29-2.18-.85-3.16Z"/></g><g fill="#fe9"><path d="M106.14 28.69c2.3-4.35 4.61-8.7 6.91-13.06"/><path d="M111.54 31.84c2.3-4.35 4.61-8.7 6.91-13.06.78-1.47 1.08-3.19.63-4.82-.4-1.45-1.52-3.03-2.88-3.74-1.45-.77-3.21-1.15-4.82-.63-1.52.49-2.97 1.43-3.74 2.88-2.3 4.35-4.6 8.7-6.91 13.06-.78 1.47-1.08 3.19-.63 4.82.4 1.45 1.52 3.03 2.88 3.74 1.45.77 3.21 1.15 4.82.63 1.52-.49 2.97-1.43 3.74-2.88Z"/></g><circle cx="72.7" cy="8.94" r="8.94" fill="#f96"/><circle cx="116.27" cy="8.94" r="8.94" fill="#f96"/><path d="M103.88 41.08c8.77-4.84 63.52-29.8 62.2-1.9-1.02 21.49-49.96 10.86-59.54 2.14l-2.66-.24Z" fill="#fe9"/><path d="M144.77 45.79c-9.11 0-19.29-2.31-26.31-4.9 10.02-4.15 23.55-8.72 33-8.72 3.62 0 6.27.69 7.47 1.95.88.92 1.26 2.52 1.16 4.77-.28 6-9.72 6.9-15.32 6.9Z" fill="#f5afa5"/><path d="M81.71 41.08c-8.77-4.84-63.52-29.8-62.2-1.9 1.02 21.49 49.96 10.86 59.54 2.14l2.66-.24Z" fill="#fe9"/><path d="M40.82 45.79c-5.6 0-15.03-.9-15.32-6.9-.11-2.25.28-3.86 1.16-4.77 1.2-1.25 3.85-1.95 7.47-1.95 9.45 0 22.98 4.57 33 8.72-7.03 2.58-17.2 4.9-26.31 4.9Z" fill="#f5afa5"/><circle cx="70.91" cy="77.6" r="7.1" fill="#1d1d1b"/><ellipse cx="66.64" cy="97.46" rx="12.12" ry="7.1" fill="#fbca63"/><circle cx="106.68" cy="77.6" r="7.1" fill="#1d1d1b"/><ellipse cx="110.95" cy="97.46" rx="12.12" ry="7.1" fill="#fbca63"/><ellipse cx="88.79" cy="121.02" rx="51.37" ry="23.56" fill="#fff"/><path d="M128.19 37.61a77.26 77.26 0 0 1 22.88-4.74c2.02-.11 4.12-.12 6 .63 1.88.76 3.51 2.46 3.59 4.49M26.4 37.3c-.57-1.32.77-2.68 2.04-3.17 1.66-.63 3.45-.71 5.22-.73 2.21-.02 4.42.03 6.6.45 1.41.27 2.79.69 4.16 1.1 2.85.86 5.7 1.72 8.55 2.59" fill="none" stroke="#1d1d1b" stroke-linecap="round" stroke-miterlimit="10" stroke-width="4.27"/><path d="M68.78 116.41c-12.65 10.19-20.49 25.01-27.79 39.2-1.23 2.39-1.74 5.07-1.01 7.71.64 2.32 2.43 4.83 4.6 5.98 4.58 2.42 11.13 1.38 13.68-3.59 4.62-8.97 9.29-17.98 15.44-26.02l-1.56 2.02c3.18-4.11 6.73-7.89 10.78-11.16 1.87-1.51 2.93-4.78 2.93-7.07 0-2.45-1.09-5.38-2.93-7.07s-4.41-3.05-7.07-2.93l-2.66.36c-1.69.48-3.16 1.33-4.41 2.57Z" fill="#f56565"/><ellipse cx="88.79" cy="119.39" rx="38.19" ry="17.51" fill="#fff"/><path d="M60.46 108.06c4.14-3.92 11.02 3.19 10.69 7.04m45.12-7.04c-4.14-3.92-11.02 3.19-10.69 7.04" fill="none" stroke="#1d1d1b" stroke-linecap="round" stroke-miterlimit="10" stroke-width="4.27"/></svg>