<svg version="1.1" id="Layer_1" xmlns="http://www.w3.org/2000/svg" xmlns:xlink="http://www.w3.org/1999/xlink" x="0" y="0" viewBox="0 0 166.1 492.7" xml:space="preserve"><style>.st2{fill:#f96}.st3{fill:#1d1d1b}.st4{fill:#fe9}.st5{fill:#f5afa5}.st6{fill:#fbca63}.st7{fill:#fff}.st8{fill:none;stroke:#1d1d1b;stroke-width:4.27;stroke-linecap:round;stroke-miterlimit:10}</style><path d="M155.4 319.7c-10.2-28.8-34-50.6-42.4-80.1-4.6-20.5 7.3-94.6-7.2-101.6-11.1 2-38.1-9.3-41.8 4-2.5 35.7-5 71.3-8.2 106.9-19 42-63.7 57-55.5 108.8-.6 40.1 7.6 79.2 22.7 116.1 5.1 15.7 32.7 25.9 42.7 9.7 4.9-9.5-2.3-23.9-3.8-33.9-8.4-26.4-3.8-75 33.9-51 21 20.3-31.6 101.9 28.9 92.9 11.8-2.9 15.8-5.7 16-18.3 7.7-50.2 30.8-102.8 14.7-153.5z" fill="#ff9"/><defs><path id="SVGID_1_" d="M155.4 319.7c-10.2-28.8-34-50.6-42.4-80.1-4.6-20.5 7.3-94.6-7.2-101.6-11.1 2-38.1-9.3-41.8 4-2.5 35.7-5 71.3-8.2 106.9-19 42-63.7 57-55.5 108.8-.6 40.1 7.6 79.2 22.7 116.1 5.1 15.7 32.7 25.9 42.7 9.7 4.9-9.5-2.3-23.9-3.8-33.9-8.4-26.4-3.8-75 33.9-51 21 20.3-31.6 101.9 28.9 92.9 11.8-2.9 15.8-5.7 16-18.3 7.7-50.2 30.8-102.8 14.7-153.5z"/></defs><clipPath id="SVGID_00000078751076377133190770000014230979380367583397_"><use xlink:href="#SVGID_1_" overflow="visible"/></clipPath><g clip-path="url(#SVGID_00000078751076377133190770000014230979380367583397_)"><path class="st2" d="M30.7 244.5c-9-4.8-1.9-24 .8-31.6 20.4-59.7 88.2 26.3-.8 31.6zM142.1 293c28.8 2.8 1.3-74.1-14.3-79.8-19.4-5.6-24.9 8.4-19.5 25-1.1 11.2-11.6 19.5-4.5 32.4 5.6 10.1 22 4.2 24.9 11.9 4 7.1 4.8 9.7 13.4 10.5zM21.7 449.5c27.5-2.6 7-49.6-27.4-24.4-16.7 23.3 6.1 34.6 27.4 24.4zM7.8 335.2c3.9 9.3 13.4 22.4 24.5 14 13.5-10.2-3.7-21.3-5.4-31.8-2.5-14.9 14.4-32.8.6-46.6-20.8-18.1-43.7 14.4-46.5 33 5.3 17.5 20.5 2.4 26.8 31.4zm58.7-55c-2.3 7-3.8 18.2.7 24.8 24 25.5 19.8-43.5-.7-24.8zm86.9 127c4 39.6 18.7 23.4 26.8-1.8-.4-25.8-9.7-55.7-18.9-80-9.3-19-26.1-21.2-26.2 4-33.5 56.3 24.9 29.1 18.3 77.8zm-56 37.2c18.9 16.8 22.7-15.8 21.6-28.8-1.6-19.5-28.2-44.3-36.1-17.3-4.6 17-8.1 43.6 14.5 46.1zm6.7-94.5c.7-7.9-10-11.7-16.1-12.9-20.4-4.1-30 13.2-39.9 27.7-9.2 8.5-34.9 34.3-4.5 28.7 19.1-7.5 15.6-33.9 40.6-36.5 6.4-.7 18.9 3 19.9-7zM79.4 116.5c-5.3 32.1-1.8 28.4 17.7 48.5-.3 42.7 74.3 14.7 47.3-37.4-.1-.1-65-11.1-65-11.1z"/></g><path class="st3" d="m94 472.7 46.2 4.8-3 15.2H96.7l-2.7-20zm-70.4 2.7L67 471l.4 21.7H29l-5.4-17.3z"/><path class="st4" d="M74.6 35.9c-16.4 23.1-71 107.4-3 105.7 74.8 8.9 81.6-19.1 51.9-81.7-5.4-23.6-28.4-34.2-48.9-24z"/><path class="st4" d="M71.4 30.5C49.6 58.8-1.5 141 64 147.4c60.8 6.9 103.7-2.5 71.8-73-5.4-12.7-9.1-26.7-17.7-37.6-7.1-12.4-42.8-15.1-49.6-2.5-1.7 6.3 6.2 10.4 10.8 6.1.5-.2 1.1-.2-.8.4 6.7-2.3 11.5-2.3 19.8-1.5-3.9-.6 4.9.9 5.6 1.5 1 .4-1.5-.7-.6-.3.8.1 4.1 2.9 1.4.6 16.2 21.4 28 51.7 29 76.6.5-3-.8 4.5-1.4 5.3-.2.5-1.1 2.3-.1.5-1 2-2 4-3.3 5.8 1.4-1.7-1.5 1.8-2.3 2.3-.6.5-1.6 1.3-.3.3-1.2.8-2.5 1.7-3.9 2.3 1.7-.9.3-.1-.2 0-.7.3-6.4 1.6-4.3 1.1-20.6 1-50.4 1.7-63.9-2.7-1.8-.7-3.4-1.7-5-2.9 2.6 2.2-4.1-3.9-1.9-1.9-13.1-16.6 21.3-73.2 31-87 4.3-.9 3.3-14.7-6.7-10.3z"/><path class="st4" d="M80.3 29.4c-1.9-4.3-3.9-8.7-5.8-13"/><path class="st4" d="M85.8 26.2c-3.2-5.1-3.6-13.4-9.5-15.9-14.5-.8-4.2 15.4-1.3 22.2 3.9 7.1 14.9.7 10.8-6.3zm20.3 2.5c2.3-4.4 4.6-8.7 6.9-13.1"/><path class="st4" d="M111.5 31.8c2.3-5.9 8.1-11.4 7.5-17.9-1.3-5.2-8.9-6.2-11.4-1.5-2.2 5.9-8.1 11.4-7.5 17.9 1.2 5.2 8.9 6.3 11.4 1.5z"/><path class="st2" d="M72.7 0c11.6-.2 11.6 18.1 0 17.9C61.1 18 61.1-.2 72.7 0zm43.6 0c11.6-.2 11.6 18.1 0 17.9-11.6.1-11.6-18.1 0-17.9z"/><path class="st4" d="M103.9 41.1c83.9-47.8 82.3 40.2 2.7.2-.1 0-2.7-.2-2.7-.2z"/><path class="st5" d="M144.8 45.8c-9.1 0-19.3-2.3-26.3-4.9 38.3-19.9 58.5 1.7 26.3 4.9z"/><path class="st4" d="M81.7 41.1c-83.8-47.8-82.3 40.1-2.6.2l2.6-.2z"/><path class="st5" d="M40.8 45.8C8.6 42.6 28.7 21 67.1 40.9c-7 2.6-17.2 4.9-26.3 4.9z"/><path class="st3" d="M70.9 70.5c9.2-.1 9.2 14.3 0 14.2-9.2.1-9.2-14.3 0-14.2z"/><path class="st6" d="M66.6 90.4c15.9.1 15.9 14.1 0 14.2-15.8-.1-15.8-14.2 0-14.2z"/><path class="st3" d="M106.7 70.5c9.2-.1 9.2 14.3 0 14.2-9.2.1-9.2-14.3 0-14.2z"/><path class="st6" d="M110.9 90.4c15.9.1 15.9 14.1 0 14.2-15.8-.1-15.8-14.2 0-14.2z"/><path class="st7" d="M88.8 97.5c67.6.6 67.6 46.6 0 47.1-67.6-.6-67.6-46.6 0-47.1z"/><path class="st8" d="M128.2 37.6c7.2-2.1 29.9-10.3 32.5.4m-134.3-.7c1.3-8.7 21-1.3 26.6.2"/><path d="M68.8 116.4c-8.5 6.5-40.2 45.3-24.2 52.9 17.2 6.6 19-21 29.1-29.6l-1.6 2c3.8-6.7 13.4-10 13.7-18.2.3-8.6-11.1-13.4-17-7.1z" fill="#f56565"/><path class="st7" d="M88.8 101.9c50.2.4 50.2 34.6 0 35-50.3-.4-50.3-34.6 0-35z"/><path class="st8" d="M60.5 108.1c4.1-3.9 11 3.2 10.7 7m45.1-7c-4.1-3.9-11 3.2-10.7 7"/></svg>