<svg xmlns="http://www.w3.org/2000/svg" viewBox="0 0 2200 2276.5" xml:space="preserve"><path fill="#FAF089" d="M0 0h2200v2276.5H0z"/><ellipse fill="#F6E05E" cx="1148.7" cy="1167.3" rx="827.5" ry="593.8"/><path fill="none" d="m1233.1 2244.6 158.2-32.7s-1.8-36.7-4.9-99.8c-1.8-63.9-4.9-155.7-.9-265 3.1-109.4 11.7-237.1 28.7-372 17-134.1 41.2-274.6 74.4-408.7 16.6-67.1 34.5-133.3 54.7-195.6 4.9-16 9.9-31.1 14.8-47.1 4.9-15.2 10.8-30.3 15.7-45.5 5.4-15.2 10.3-29.5 15.7-44.7 5.4-14.4 10.8-28.7 16.1-42.3 22-55.1 44.4-106.2 67.2-150.9 22.9-44.7 45.7-83 68.1-114.9s43.5-58.3 63.2-78.2c2.2-2.4 4.9-4.8 7.2-7.2 2.2-2.4 4.9-4 7.2-6.4 4.5-4 9-8 13.4-12 8.5-7.2 16.6-12.8 23.8-19.2 7.2-4.8 13.9-8.8 19.7-12.8l8.1-4.8c2.7-1.6 4.5-2.4 6.7-3.2 8.1-4 12.1-6.4 12.1-6.4L1864.5 0s-6.3 3.2-17.9 8.8c-3.1 1.6-6.3 3.2-9.9 4.8-3.6 1.6-7.6 4-11.7 6.4-8.1 5.6-17.9 11.2-28.2 18.4-10.3 8-22 16-34.1 26.3-5.8 5.6-12.1 11.2-18.8 16.8-3.1 3.2-6.7 5.6-9.9 8.8-3.1 3.2-6.3 6.4-9.9 10.4-26.9 27.1-55.1 62.3-83.8 103.8-28.7 41.5-57.8 90.2-85.6 144.5s-54.7 114.1-79.8 178.8c-6.3 16-12.5 32.7-18.8 48.7-5.8 16.8-11.7 33.5-17.9 50.3-5.8 16.8-12.1 33.5-17.9 51.1-5.4 17.6-11.2 35.1-17 52.7-22.4 71-42.6 145.3-61.4 220.3-37.2 150.9-65 309.7-83.8 460.6s-28.7 294.5-32.3 418.3c-4.5 123.7-.9 227.5.9 299.3 4.2 74 6.4 115.5 6.4 115.5z"/><path fill="#3AC07C" d="M1725.6 413.5c36.3-53.5 73.5-91.8 104-113.3 7.6-4.8 14.8-8.8 21.5-13.6 6.7-3.2 13-5.6 18.4-8 2.7-.8 5.4-2.4 8.1-3.2 2.7-.8 4.9-.8 7.2-1.6 4.5-.8 8.1-.8 10.8-.8 3.1 0 5.8-6.4 4.5-13.6l-33.6-248.2c-.9-7.2-6.3-10.4-10.3-6.4-3.6 3.2-8.1 7.2-13.9 11.2-2.7 2.4-5.8 4-9 7.2-3.1 2.4-6.7 5.6-10.3 8.8-7.2 5.6-15.2 12.8-24.2 19.2-8.5 8-17.9 16-27.8 24.7-39.4 36.7-85.1 90.2-129.5 156.5-2.7 4-5.4 8-8.5 12-2.7 4-5.4 8.8-8.1 12.8-5.4 8-10.3 16.8-15.7 24.7-9.9 16.8-19.7 32.7-28.7 48.7-17.9 31.9-34.1 62.3-48.4 89.4-14.3 27.1-26 51.1-35.8 70.2-9.9 19.2-17.5 33.5-22.9 42.3-3.1 4.8-3.1 14.4.4 18.4 0 0 31.4 33.5 63.2 67.1 31.4 34.3 62.7 67.8 62.7 67.8 3.1 4 8.1 2.4 9-4 2.2-10.4 5.8-25.5 11.7-43.9 2.7-9.6 6.3-19.2 9.9-30.3 4-10.4 8.1-22.4 13-34.3 9.4-23.9 21.1-51.1 35-78.2 6.7-13.6 14.3-27.1 22-41.5 4-6.4 8.1-13.6 12.5-20.8 2.2-3.2 4-7.2 6.3-10.4 1.6-2.5 3.8-5.7 6.5-8.9zm-251.4 641.7c10.3-40.7 20.6-79.8 32.3-115.7 5.8-17.6 11.2-35.1 16.6-51.9 5.8-16 11.7-31.1 17-45.5 2.7-7.2 5.4-14.4 8.1-20.8 2.7-6.4 4.9-12.8 7.6-19.2 4.9-12 9.9-22.4 14.3-31.9 9-19.2 15.7-32.7 20.6-39.9 3.1-4 2.2-12.8-.9-16.8 0 0-31.8-32.7-63.6-66.3-31.8-32.7-63.6-64.7-63.6-64.7-3.6-4-8.1-.8-9.4 6.4-2.2 12-6.7 30.3-13 53.5-3.1 11.2-6.7 23.9-10.8 38.3-3.6 14.4-8.1 29.5-12.5 45.5-4.5 16-9.4 33.5-14.8 51.1-4.9 18.4-9.9 37.5-15.2 57.5-11.2 39.1-21.1 83-32.7 127.7-3.1 11.2-5.4 22.4-8.1 33.5-2.7 11.2-4.9 22.4-7.6 32.7-4.9 21.6-10.3 42.3-14.3 63.1-4.5 20.8-9 39.9-13 59.1-2.2 9.6-4 18.4-6.3 27.1-1.8 8.8-3.6 17.6-5.4 26.3-3.6 16.8-6.7 32.7-9.9 47.1-3.1 14.4-6.3 27.9-8.5 39.9-4.9 23.9-9.4 42.3-13 53.5-2.2 6.4 0 15.2 3.6 16.8 0 0 35 20 69.9 39.9 35 19.2 69.9 38.3 69.9 38.3 4 1.6 7.6-3.2 7.6-10.4 0-22.4 2.7-75 11.7-142.1 4-34.3 10.3-71 17-110.2 3.1-20 7.6-39.9 12.1-59.9 2.2-10.4 4.5-20 6.7-30.3 2.7-10.9 4.9-21.3 7.6-31.7zm-104.4 775.9c.9-22.4 2.2-43.9 3.1-63.9 1.3-20.8 2.2-40.7 4.5-59.1 1.8-19.2 3.6-36.7 5.4-53.5.9-8.8 1.8-16.8 2.7-24.7 1.3-8 2.2-15.2 3.1-23.1 4.5-29.5 8.5-55.1 12.5-75 4.5-20 8.1-35.9 11.2-45.5 1.8-6.4-.4-13.6-4.5-15.2 0 0-35.4-18.4-70.4-36.7-35.4-19.2-70.4-37.5-70.4-37.5-4-1.6-7.6 4-7.6 12 .4 50.3-13.9 213.9-20.6 410.3-.4 24.7-1.3 48.7-1.8 71.8-.4 12-.9 23.1-.9 34.3 0 11.2-.4 22.3-.4 33.5-.4 22.3-.4 43.1-.9 63.1v57.5c0 18.4 0 35.1-.4 50.3v43.1c0 25.5-.9 45.5-1.8 58.3-.4 8 2.7 14.4 6.7 13.6l142.5-29.5c4-.8 6.7-8 5.4-14.4-2.2-10.4-4.9-27.9-7.6-50.3-1.3-11.2-2.7-23.9-4-37.5-.9-13.6-1.8-28.7-3.1-45.5-.9-16-2.2-33.5-2.7-51.9s-.9-37.5-1.3-56.7c0-9.6-.4-20-.4-30.3 0-10.4 0-20.8.4-31.1.4-22.5.8-44 1.3-66.4z"/><path fill="#0BB25E" d="M1430.6 37.5c-30.7 27.1-55.3 66-71.2 109.6-15.9 44-23 92.7-21.5 140.8 1.5 47.6 10.8 94.2 26.6 136.2 15.9 42 37.4 79.9 63.5 111.1 17.4-37.4 28.7-78.8 34.8-121.9 6.7-43 8.2-86.5 7.2-129.5-1.5-43-5.6-85-12.3-126-6.1-40.4-15.3-80.9-27.1-120.3z"/><path fill="#0BB25E" d="M970.4 273.5c32.3 28.7 66 54.8 100.4 79.9 34.3 25.1 69.6 49.2 105 71.7 17.9 11.3 35.3 23 53.8 33.8 4.6 2.6 9.2 5.6 13.8 8.2 4.6 2.6 9.2 5.6 13.3 8.2 9.2 5.6 18.4 10.8 27.6 16.4 37.9 22 79.9 43 121.9 52.2-9.7-41.5-23.6-83.5-48.1-124.9-6.1-10.2-13.3-21-21-30.7-4.1-5.1-8.2-10.2-12.3-14.8-4.1-4.6-8.7-9.7-13.3-14.3-18.4-18.4-38.4-35.3-60.9-49.7-44-28.7-94.7-47.1-143.9-53.2-49.3-5.8-96.9.8-136.3 17.2zm64 242.2c46.1 27.1 101.9 43 158.2 49.7 56.3 6.1 114.2 3.6 165.4-12.3-35.8-39.4-94.2-66-155.6-73.2-61-7.2-124 5.6-168 35.8zm862.3 580.4c5.6-35.2 2.5-73.5-7.4-111.8-10.5-38.3-27.8-76.6-51.3-110.6-23.5-34-52.5-64.3-85.3-87.1-32.1-22.9-67.3-39.5-101.9-47 16.1 69.8 50 137.8 92.7 198.9 42 61.9 93.9 118.1 153.2 157.6zm-266.9-56.8c43.9-68.6 43.9-179.8 0-248.4-43.9 68.6-43.9 179.8 0 248.4zm467.1-310.8c-53.1-44.5-130.4-71.1-209.5-74.8-78.5-3.7-158.2 14.8-215.6 54.4 59.9 35.2 134.7 53.8 210.1 57.5 75.9 3.7 151.9-8.1 215-37.1z"/><path fill="#171923" d="M633.7 1428.1S487 1307.2 385 1101.8c0 0-32-79.9-96.9-49-65 30.9 57.5 425.7 257.2 554.2l88.4-178.9zm392.5-1.3 69.7 181.3s452.5-211.6 357.5-423.2c0 0-39.2-45.2-154.7 85.1-115.6 130.4-272.5 156.8-272.5 156.8zM628.6 867.9s-45.1-122.2-127.3-77.7c-82.2 44.5-39.6 173.1 7.9 221.1l119.4-143.4zM997 852.4l163.8 139.4s95.9-133.9-17.9-195.6c-87.6-47.5-145.9 56.2-145.9 56.2zm-395.2 971.7s-96.8 199.8-167.4 282.1c-70.6 82.3-38.5 139.6 51.8 110.2C576.6 2187 696 2089.3 777 1938.8m326.3-93.2s60.6 212.6 115.7 305.4c55.1 92.8 13.8 143.5-69.8 99.1-83.6-44.4-183.9-160.7-237.5-322.2"/><path fill="#FFF" d="M1160.2 1707.1c1.1 19.6 1.3 38 .9 54.6-1.6 62.2-21.2 122.2-57.3 169.8-178.4 235.9-547.3 133.2-597.5-111.2-17.3-84.2-11.9-158.4 3.8-220.7 34.7-137.7 119.4-217.1 119.4-217.1l387.6 14.7c107.3 83.1 137.5 211.8 143.1 309.9z"/><path fill="#171923" d="M1160.2 1707.1C939.3 1426.8 510 1599.5 510 1599.5c34.7-137.7 119.4-217.1 119.4-217.1l387.6 14.7c107.4 83.2 137.6 211.9 143.2 310z"/><path fill="#FFF" d="M1055.4 850.4S940 734.6 824.2 748.3C708.3 762 520.3 896.3 451 1081.4s24.7 404.5 380.9 390.4c356.2-14.1 483.7-202.5 425.5-367.7-58.4-165.1-202-253.7-202-253.7z"/><path fill="#171923" d="M702.5 1282.3s-30.9-1.3-39.4-37.5 107.2-51.9 110.1 1.7c2.9 53.7-70.7 35.8-70.7 35.8z"/><path fill="#FFBCBE" d="M561 1085.7s-101.2 81.2-55.4 155 138.9-75.5 130.1-116.2l-74.7-38.8zm360.6 121.1 110-77.6s125.1 109.5 34.4 195.8-144.4-118.2-144.4-118.2z"/><path fill="#FF8186" d="M715.7 1359.1s99.9 10.3 142.3-85.5c0 0 77.9 90-6.6 138.8-79.6 46-135.7-53.3-135.7-53.3z"/><path fill="#171923" d="M724.8 1009.1s-16.1-73.6-81.4-73.4c-25 .1-48.5 11.7-65.1 30.3-20.4 22.8-44.9 62.7-33.8 115.1 0 0 20.8 105.5 129.1 64.2 70.5-26.9 51.2-136.2 51.2-136.2zm286.2-3.6c-80.1-73.4-134.5-34.6-162.4 1-16.4 20.8-25.3 46.4-26.2 72.8-3.3 104.9 73.4 138.1 73.4 138.1 120.5 58.8 237.4-99.9 115.2-211.9z"/><path fill="#FFF" d="M659.4 1058.7c-2.9.3-5.8-1.5-6.9-4.4-5.1-14.1-12.1-22.5-20.8-24.9-14.3-4-29.9 8.6-30.1 8.7-2.8 2.3-7 1.9-9.3-.9-2.3-2.8-1.9-7 .9-9.3.8-.7 21-17.1 42-11.3 13.2 3.6 23.2 14.8 29.8 33.2 1.2 3.5-.6 7.3-4 8.5-.5.2-1 .4-1.6.4zm253.3 50.9c-.7.1-1.4 0-2.1-.2-3.6-.8-5.8-4.4-4.9-8 .3-1.4 8.3-34.4 33.6-44.3 15.1-5.9 32.6-2.3 51.9 10.7 3 2 3.9 6.2 1.8 9.2-2 3-6.2 3.9-9.2 1.8-15.5-10.4-28.8-13.6-39.6-9.4-18.8 7.3-25.5 34.7-25.6 35-.7 3-3.2 5-5.9 5.2z"/></svg>