<svg version="1.1" id="Layer_1" xmlns="http://www.w3.org/2000/svg" x="0" y="0" viewBox="0 0 2200 2276.5" xml:space="preserve"><style>.st3{fill:#0bb25e}.st4{fill:#171923}.st5{fill:#fff}</style><path d="M0 0h2200v2276.5H0V0z" fill="#faf089"/><path d="M1148.7 573.5c1089 15.3 1088.9 1172.4 0 1187.6-1089-15.3-1088.9-1172.4 0-1187.6z" fill="#f6e05e"/><path d="M1725.6 413.5c198.6-266.3 195.8 6.1 140.9-402.3-172.3 68.6-299.2 349.2-393.1 521.3-21.8 12.9 124.1 143.2 126.3 153.3 3.1 4 8.1 2.4 9-4 21.8-91.1 63.2-187.6 116.9-268.3zm-251.4 641.7c22-118.9 82.7-235.3 115.6-341.7-6.6 6.4-133.6-162.3-136.6-124.6-67.9 244.1-132.3 507.2-185.1 755.9-17.9 20.4 137.1 86.3 143.4 95 19.7-86.3 26.8-275.9 62.7-384.6zm-104.4 775.9c-2.6-118.7 30.8-252.2 38-360-.4.4-141.1-74.4-140.8-74.2-4-1.6-7.6 4-7.6 12-3.8 143.8-41.6 630-20.1 835.8l142.5-29.5c.1-116.3-22.6-259.6-12-384.1z" fill="#3ac07c"/><path class="st3" d="M1430.6 37.5c-132.9 124.7-113.9 365-2.6 497.7 66.7-155.4 46.4-338.5 2.6-497.7z"/><path class="st3" d="M970.4 273.5c132.3 106 273.8 216.9 435.8 270.4-28.7-190.7-250.6-347-435.8-270.4zm64 242.2c92.5 52.9 221.3 67.6 323.6 37.4-71.6-81.1-235.2-100.3-323.6-37.4zm862.3 580.4c21.4-152.6-95.9-321.8-245.9-356.5 34.4 137.8 129.4 275.7 245.9 356.5zm-266.9-56.8c43.9-68.6 43.9-179.8 0-248.4-43.9 68.6-43.9 179.8 0 248.4zm467.1-310.8c-106.3-90.8-310.1-101-425.1-20.4 119.8 69.4 299.4 77.6 425.1 20.4z"/><path class="st4" d="M633.7 1428.1S487 1307.2 385 1101.8c0 0-32-79.9-96.9-49-91.3-2.8 212.6 864.1 345.6 375.3zm392.5-1.3 69.7 181.3c447.5-181.8 461.6-616.3 202.8-338.1-115.6 130.4-272.5 156.8-272.5 156.8zM628.6 867.9c-92.3-207.9-259.4-1.4-119.4 143.4l119.4-143.4zM997 852.4l163.8 139.4c108.4-132.7-46.3-307.9-163.8-139.4zm-395.2 971.7s-96.8 199.8-167.4 282.1c-147.6 275.3 292.1 9.6 342.6-167.4m326.3-93.2s60.6 212.6 115.7 305.4c97.4 295.3-288.2-40.9-307.3-223.1"/><path class="st5" d="M1160.2 1707.1c43.4 422.4-574.4 475.1-653.9 113.2-48.9-164.5 59.2-390.9 123.2-437.8l387.6 14.7c107.3 83.1 137.5 211.8 143.1 309.9z"/><path class="st4" d="M1160.2 1707.1C939.3 1426.8 510 1599.5 510 1599.5c34.7-137.7 119.4-217.1 119.4-217.1l387.6 14.7c107.4 83.2 137.6 211.9 143.2 310z"/><path class="st5" d="M1055.4 850.4c-180.5-205.8-478-65-604.4 231-186.9 708.7 1387 363.8 604.4-231z"/><path class="st4" d="M702.5 1282.3c-112.9-33.7 43.7-121.5 70.7-35.8 2.9 53.7-70.7 35.8-70.7 35.8z"/><path d="M561 1085.7c-161.4 127.4 12 297.6 74.7 38.8l-74.7-38.8zm360.6 121.1 110-77.6c164.2 122.5-29.1 372-110 77.6z" fill="#ffbcbe"/><path d="M715.7 1359.1s99.9 10.3 142.3-85.5c106.7 127.8-78.5 213.5-142.3 85.5z" fill="#ff8186"/><path class="st4" d="M724.8 1009.1c-20.9-123.8-208.5-73.1-180.3 72 30.4 136.5 220.7 64.3 180.3-72zm286.2-3.6c-104.8-94.7-181.8-9-188.6 73.8 16.8 286.8 372.5 109.1 188.6-73.8z"/><path class="st5" d="M659.4 1058.7c-10.1 1.2-9.4-25-27.7-29.3-22.7-5.3-29.2 16.9-39.4 7.8-8.1-9 19.9-25.8 42.9-20.6 9.9.5 41.9 30.8 24.2 42.1zm253.3 50.9c-16.8 1.3.4-41.5 26.6-52.5 7.6-12.6 81 15.1 44.5 21.7-46.2-32.4-55.5 11.8-71.1 30.8z"/></svg>