<svg xmlns="http://www.w3.org/2000/svg" viewBox="0 0 136.95 149.22"><path d="M119.65 36.18c.33-.54.64-1.1.92-1.67 6.08-12.09 1.85-26.51-9.43-32.21a21.43 21.43 0 0 0-9.73-2.3 24.69 24.69 0 0 0-20.94 12.47 69.85 69.85 0 0 0-27.52 0A24.7 24.7 0 0 0 32 0a21.4 21.4 0 0 0-9.73 2.3C11 8 6.78 22.42 12.85 34.51c.28.55.58 1.09.89 1.62A61.79 61.79 0 0 0 0 75c0 26.89 17.68 51 44 60.12 5.61 2.47 12.36 3.63 22.42 3.89h1.79a52.87 52.87 0 0 0 20.47-3.71c26.72-9 44.64-33.15 44.64-60.32a61.77 61.77 0 0 0-13.67-38.8Z"/><path d="M45.48 17.74C49.34 25.43 46.9 34.45 40 37.9s-15.56 0-19.42-7.66-1.43-16.71 5.44-20.16 15.6-.02 19.46 7.66Z" fill="#804323"/><path d="M40.55 20.22A8.69 8.69 0 0 1 37.07 32a8.69 8.69 0 0 1-11.53-4.23A8.69 8.69 0 0 1 29 16a8.69 8.69 0 0 1 11.55 4.22Z" fill="#f4cc9c"/><path d="M87.42 17.74C83.56 25.43 86 34.45 92.86 37.9s15.56 0 19.42-7.66 1.43-16.71-5.44-20.16-15.56-.02-19.42 7.66Z" fill="#804323"/><path d="M92.34 20.22A8.68 8.68 0 0 0 95.83 32a8.69 8.69 0 0 0 11.53-4.23A8.69 8.69 0 0 0 103.87 16a8.7 8.7 0 0 0-11.53 4.22Z" fill="#f4cc9c"/><ellipse cx="66.41" cy="74.77" rx="57.69" ry="54.94" fill="#804323"/><path d="M66.2 77.21c-16.53 0-36.56 32.6-27 43.43 6 6.85 13.68 8.82 27.21 9.16 11.81.29 21.22-2.76 26.42-8.15 9.31-9.65-9.37-44.44-26.63-44.44Z" fill="#f4cc9c"/><path d="M38.31 96.16c0 2.84-3.63 5.15-8.11 5.15s-8.11-2.31-8.11-5.15S25.72 91 30.2 91s8.11 2.31 8.11 5.16Zm70.69 0c0 2.84-3.63 5.15-8.11 5.15s-8.08-2.31-8.08-5.15S96.44 91 100.92 91s8.08 2.31 8.08 5.16Z" fill="#f59188"/><path d="M50.3 77.35a7.82 7.82 0 1 1-7.82-7.82 7.82 7.82 0 0 1 7.82 7.82Z" fill="#5d260f"/><path d="M45.92 76a4.34 4.34 0 1 1-4.33-4.33A4.33 4.33 0 0 1 45.92 76ZM48 80.3a1.3 1.3 0 1 1-1.32-1.3A1.3 1.3 0 0 1 48 80.3Zm-3.38 1.79a1.29 1.29 0 0 1-1.29 1.29 1.3 1.3 0 1 1 1.29-1.29Z" fill="#fff"/><path d="M98.1 77.35a7.82 7.82 0 1 1-7.82-7.82 7.82 7.82 0 0 1 7.82 7.82Z" fill="#5d260f"/><path d="M93.72 76a4.33 4.33 0 1 1-4.33-4.33A4.33 4.33 0 0 1 93.72 76Zm2.06 4.3a1.3 1.3 0 1 1-1.3-1.3 1.3 1.3 0 0 1 1.3 1.3Zm-3.35 1.79a1.3 1.3 0 1 1-1.3-1.3 1.3 1.3 0 0 1 1.3 1.3Z" fill="#fff"/><path d="M80.63 116.72c-2.58 3.82-8 6.45-14.32 6.45-6.64 0-12.33-2.92-14.71-7.07" fill="none" stroke="#804323" stroke-linecap="round" stroke-linejoin="round" stroke-width="1.68"/><path d="M50.56 96.9c-3.44 5.41 7.39 14.94 15.84 14.94s19.67-9.54 15.85-14.94c-4.05-5.73-27.58-6.47-31.69 0Z" fill="#804323"/></svg>