<svg xmlns="http://www.w3.org/2000/svg" viewBox="0 0 142.24 136.45"><path d="M103.26 0a29.91 29.91 0 0 0-22.6 10.43A72.7 72.7 0 0 0 53.47 10 29.8 29.8 0 0 0 5.55 45 55.82 55.82 0 0 0 0 69.25c0 33.26 29.61 60.32 66 60.32s66-27.06 66-60.32a55.68 55.68 0 0 0-4.58-22.09A29.76 29.76 0 0 0 103.26 0Z"/><path d="M120.22 66.84c0 26.52-24 48-53.72 48s-53.72-21.5-53.72-48 24-48 53.72-48 53.72 21.47 53.72 48Z" fill="#77bf43"/><path d="M121.26 27.39a17.52 17.52 0 1 1-17.52-17.52 17.51 17.51 0 0 1 17.52 17.52Z" fill="#77bf43"/><path d="M114.61 27.14a9.89 9.89 0 1 1-9.89-9.89 9.89 9.89 0 0 1 9.89 9.89Z" fill="#5d260f"/><path d="M108.76 25.59a5.07 5.07 0 1 1-5.07-5.07 5.07 5.07 0 0 1 5.07 5.07Zm2.41 5.02a1.52 1.52 0 1 1-1.52-1.52 1.52 1.52 0 0 1 1.52 1.52Zm-3.92 2.09a1.52 1.52 0 1 1-1.52-1.51 1.52 1.52 0 0 1 1.52 1.51Z" fill="#fff"/><path d="M49.19 27.39A17.52 17.52 0 1 1 31.68 9.87a17.51 17.51 0 0 1 17.51 17.52Z" fill="#77bf43"/><path d="M41.3 27.14a9.89 9.89 0 1 1-9.89-9.89 9.89 9.89 0 0 1 9.89 9.89Z" fill="#5d260f"/><path d="M35.45 25.59a5.08 5.08 0 1 1-5.08-5.07 5.07 5.07 0 0 1 5.08 5.07Zm2.4 5.02a1.52 1.52 0 1 1-1.51-1.52 1.52 1.52 0 0 1 1.51 1.52Zm-3.92 2.09a1.52 1.52 0 1 1-1.52-1.51 1.52 1.52 0 0 1 1.52 1.51Z" fill="#fff"/><path d="M86.18 58.78C82.92 63.63 76 67 68 67c-8.42 0-15.63-3.71-18.65-9" fill="none" stroke="#5d260f" stroke-linecap="round" stroke-linejoin="round" stroke-width="3.47"/><path d="M105.91 46.92c0 3.35-4.28 6.07-9.55 6.07s-9.55-2.72-9.55-6.07 4.27-6.08 9.55-6.08 9.55 2.72 9.55 6.08Zm-58.72 0c0 3.35-4.27 6.07-9.55 6.07s-9.55-2.72-9.55-6.07 4.28-6.08 9.55-6.08 9.55 2.72 9.55 6.08Z" fill="#f59188"/><path d="M65.2 54.76c0 1.69-.93 3.05-2.08 3.05S61 56.45 61 54.76s1-3.06 2.12-3.06 2.08 1.37 2.08 3.06Zm7.8 0c0 1.69-.93 3.05-2.08 3.05s-2.08-1.36-2.08-3.05.93-3.06 2.08-3.06S73 53.07 73 54.76Z" fill="#5d260f"/></svg>