<svg xmlns="http://www.w3.org/2000/svg" viewBox="0 0 160.55 166.78">
    <g>
        <path
            d="M156.56,81.73a20.54,20.54,0,0,0-6.17-14.5A20.28,20.28,0,0,0,152,58.31a21,21,0,0,0-10-16.63,20,20,0,0,0-2-14.32C136.25,20.88,129.24,17,121.14,17q-.61,0-1.23,0A19.64,19.64,0,0,0,102,5.81a22.46,22.46,0,0,0-8.48,1.72A20.53,20.53,0,0,0,78.19,0H78A20.15,20.15,0,0,0,63.6,6.11a20.54,20.54,0,0,0-16.35-.25A20.19,20.19,0,0,0,37,16.12H36.1a20.59,20.59,0,0,0-16.29,7.53,20.35,20.35,0,0,0-4,16.18A21.13,21.13,0,0,0,4.61,57.1,20.25,20.25,0,0,0,6.16,66a20.11,20.11,0,0,0-.82,28.13,20.66,20.66,0,0,0-.1,15.25,20.38,20.38,0,0,0,7.43,9.28,19.89,19.89,0,0,0,2.22,13.25c3.65,6.48,10.66,10.35,18.75,10.35q.61,0,1.23,0a19.67,19.67,0,0,0,17.87,11.23,22.45,22.45,0,0,0,8.48-1.71,20.59,20.59,0,0,0,15.38,7.52h.22a20.18,20.18,0,0,0,14.37-6.11,20.51,20.51,0,0,0,16.34.25,20.19,20.19,0,0,0,10.27-10.26A20.8,20.8,0,0,0,135,135.65a20.06,20.06,0,0,0,4.28-13.89,21,21,0,0,0,12.39-14.55,20.37,20.37,0,0,0-.73-11.5A20.45,20.45,0,0,0,156.56,81.73Z" />
        <path
            d="M145.12,81.43c0-5.26-3.61-9.79-8.81-11.86a12.46,12.46,0,0,0,4.43-10c-.34-6.19-5.48-11.1-12.08-12.09,3.21-4.34,4-9.77,1.56-14.12-3.21-5.7-10.91-7.58-18-4.72a12.33,12.33,0,0,0-5.46-10.24c-5.08-3.23-12-1.82-16.82,3-1.82-5.93-6.52-10.19-12.1-10.25-5.16-.06-9.65,3.49-11.84,8.67-4-4.15-9.71-5.8-14.56-3.7-4.43,1.92-7,6.48-7.27,11.67-5.92-2.46-12.42-1.43-16,3.06C24.85,35,25,41.12,28.22,46.2c-7,.72-12.49,5.76-12.84,12.18a12.44,12.44,0,0,0,4.43,10C14.61,70.5,11,75,11,80.28c0,4.78,3,9,7.41,11.23C15,95.27,13.65,100.42,15.47,105a12.65,12.65,0,0,0,9.51,7.6c-2.53,4.12-3,9-.77,12.94,3.22,5.71,10.91,7.58,17.95,4.72a12.37,12.37,0,0,0,5.46,10.25c5.08,3.23,12,1.82,16.82-3,1.82,5.93,6.52,10.18,12.1,10.24,5.16.06,9.65-3.48,11.84-8.67,4.05,4.15,9.72,5.8,14.57,3.7,4.43-1.91,7-6.48,7.26-11.66,5.92,2.45,12.42,1.42,16-3.06,3.12-3.91,3.2-9.39.71-14.2,6.58,0,12.36-3.91,13.72-9.88a12.6,12.6,0,0,0-3.19-11.24C142,90.55,145.12,86.31,145.12,81.43Zm-43.5,27.08a11.26,11.26,0,0,0-2.3,5.4,11.35,11.35,0,0,0-14.63,5.7A11.31,11.31,0,0,0,69,119.5a11.46,11.46,0,0,0-4.46-5.5,12.42,12.42,0,0,0-11.68-.55,11.26,11.26,0,0,0-1.2-3.31,12.19,12.19,0,0,0-9.22-5.89A12.34,12.34,0,0,0,43,94.18a12,12,0,0,0-4.87-5.77,11.93,11.93,0,0,0,3.3-8.13,12.24,12.24,0,0,0-4.57-9.34A12.92,12.92,0,0,0,44.89,60a11.81,11.81,0,0,0-1-5.29,11.92,11.92,0,0,0,8.87-4.33A11.38,11.38,0,0,0,55.12,45a11.35,11.35,0,0,0,14.62-5.69,11.33,11.33,0,0,0,15.74.1,11.46,11.46,0,0,0,4.46,5.5,12.37,12.37,0,0,0,11.68.55,11.26,11.26,0,0,0,1.2,3.31,12.37,12.37,0,0,0,9.9,6,12,12,0,0,0-1.49,6.41,12.89,12.89,0,0,0,8.07,10.93,12.26,12.26,0,0,0-4.56,9.35,11.91,11.91,0,0,0,3.23,8,12.33,12.33,0,0,0-6.16,8,11.92,11.92,0,0,0,.44,6.7A12.34,12.34,0,0,0,101.62,108.51Z"
            fill="#f26b2d" />
        <path d="M61,39.8c3,6,1.12,13.13-4.28,15.84s-12.22,0-15.26-6-1.12-13.13,4.28-15.84S58,33.77,61,39.8Z"
            fill="#f89f2b" />
        <path d="M57.13,41.75a6.62,6.62,0,1,1-11.8,5.93,6.62,6.62,0,1,1,11.8-5.93Z" fill="#f6ca70" />
        <path d="M96.85,41.25c-3,6-1.12,13.12,4.27,15.83s12.23,0,15.26-6,1.12-13.12-4.27-15.83S99.88,35.21,96.85,41.25Z"
            fill="#f89f2b" />
        <path d="M100.72,43.19a6.61,6.61,0,1,0,11.79,5.93,6.61,6.61,0,1,0-11.79-5.93Z" fill="#f6ca70" />
        <path
            d="M123.08,81.73c0,23.84-20.3,43.17-45.34,43.17S32.4,105.57,32.4,81.73,52.7,38.56,77.74,38.56,123.08,57.89,123.08,81.73Z"
            fill="#f89f2b" />
        <path
            d="M99.87,115.75c-4.25-5.6-11.25-12.36-22-12.29-10.32.07-19.2,5.33-24.64,14.58a47.24,47.24,0,0,0,48.5.32C101.13,117.48,100.53,116.61,99.87,115.75Z"
            fill="#f6ca70" />
        <path d="M55.65,98.54c0,2.23-2.85,4-6.37,4s-6.37-1.81-6.37-4,2.86-4.06,6.37-4.06S55.65,96.3,55.65,98.54Z"
            fill="#f59188" />
        <path d="M111.23,98.54c0,2.23-2.85,4-6.37,4s-6.37-1.81-6.37-4,2.85-4.06,6.37-4.06S111.23,96.3,111.23,98.54Z"
            fill="#f59188" />
        <path d="M102.64,84a6.15,6.15,0,1,1-6.14-6.15A6.14,6.14,0,0,1,102.64,84Z" fill="#5d260f" />
        <path d="M98.89,83.07a3,3,0,1,1-3-3A3,3,0,0,1,98.89,83.07Z" fill="#fff" />
        <path d="M100.31,86a.9.9,0,1,1-.9-.9A.9.9,0,0,1,100.31,86Z" fill="#fff" />
        <path d="M98,87.27a.9.9,0,1,1-.89-.9A.89.89,0,0,1,98,87.27Z" fill="#fff" />
        <path d="M67.35,84a6.14,6.14,0,1,1-6.14-6.15A6.14,6.14,0,0,1,67.35,84Z" fill="#5d260f" />
        <path d="M63.6,83.07a3,3,0,1,1-3-3A3,3,0,0,1,63.6,83.07Z" fill="#fff" />
        <path d="M65,86a.9.9,0,1,1-.89-.9A.89.89,0,0,1,65,86Z" fill="#fff" />
        <path d="M62.71,87.27a.9.9,0,1,1-.9-.9A.89.89,0,0,1,62.71,87.27Z" fill="#fff" />
        <path d="M89.05,114.91c-2,3-6.3,5.07-11.25,5.07-5.21,0-9.68-2.29-11.55-5.55" fill="none" stroke="#5d260f"
            stroke-linecap="round" stroke-linejoin="round" stroke-width="1.48" />
        <path
            d="M71.82,91.55s1.61,14.59-3.22,19.06l19,.12s-4.75-7.12-2.34-19.18c0,0-1.18-3-6.62-3.1A8.22,8.22,0,0,0,71.82,91.55Z"
            fill="#f6ca70" />
        <path d="M69.62,102.27c-1.83,2.89,3.94,8,8.45,8s10.48-5.08,8.44-8C84.35,99.22,71.81,98.83,69.62,102.27Z"
            fill="#5d260f" />
    </g>
</svg>