<svg xmlns="http://www.w3.org/2000/svg" viewBox="0 0 141.24 219.68">
    <g>
        <path
            d="M67.42,211.81c37.17,0,67.41-29,67.41-64.66A63.14,63.14,0,0,0,116,102.32C133,58.09,137.51,28,129.57,12.79A22,22,0,0,0,114.72,1.14a29,29,0,0,0-6.47-.77c-20.08,0-25.3,22.09-27,29.34C78,43.28,76.57,61.64,75.05,82.9a71,71,0,0,0-15.9.07c-1.54-21.44-3-40-6.22-53.62C51.21,22.09,46,0,25.91,0a28.34,28.34,0,0,0-6.46.78A22,22,0,0,0,4.59,12.44c-8,15.3-3.32,45.66,13.86,90.27A63.17,63.17,0,0,0,0,147.15C0,182.8,30.24,211.81,67.42,211.81Z" />
        <path d="M36,119.34S-9.8,17.74,21.69,10.41c26-6.07,24.58,41.67,30.06,105.86Z" fill="#dbdcdd" />
        <path d="M37.62,112.61s-30.81-74.3-11.15-79c16.26-3.86,16.29,30.6,21,77.08Z" fill="#f59188" />
        <path d="M98.19,119.71S144,18.11,112.47,10.77c-26-6.06-24.58,41.68-30.06,105.87Z" fill="#dbdcdd" />
        <path d="M96.54,113s30.81-74.31,11.15-79c-16.26-3.86-16.29,30.59-21,77.08Z" fill="#f59188" />
        <path
            d="M124.94,147.15c0,30.25-25.75,54.77-57.52,54.77S9.89,177.4,9.89,147.15,35.64,92.37,67.42,92.37,124.94,116.9,124.94,147.15Z"
            fill="#dbdcdd" />
        <path d="M47.54,176c0,2.48-3.16,4.49-7.06,4.49s-7.06-2-7.06-4.49,3.16-4.48,7.06-4.48S47.54,173.5,47.54,176Z"
            fill="#f59188" />
        <path d="M102.56,176c0,2.48-3.16,4.49-7.06,4.49s-7.06-2-7.06-4.49,3.16-4.48,7.06-4.48S102.56,173.5,102.56,176Z"
            fill="#f59188" />
        <path d="M54.65,161.68a6.81,6.81,0,1,1-6.81-6.81A6.81,6.81,0,0,1,54.65,161.68Z" fill="#5d260f" />
        <path d="M50.84,160.51a3.78,3.78,0,1,1-3.78-3.78A3.77,3.77,0,0,1,50.84,160.51Z" fill="#fff" />
        <path d="M52.63,164.24a1.13,1.13,0,1,1-1.13-1.13A1.13,1.13,0,0,1,52.63,164.24Z" fill="#fff" />
        <path d="M49.71,165.8a1.13,1.13,0,1,1-1.13-1.13A1.12,1.12,0,0,1,49.71,165.8Z" fill="#fff" />
        <path d="M96.27,161.68a6.81,6.81,0,1,1-6.81-6.81A6.81,6.81,0,0,1,96.27,161.68Z" fill="#5d260f" />
        <path d="M92.46,160.51a3.78,3.78,0,1,1-3.77-3.78A3.77,3.77,0,0,1,92.46,160.51Z" fill="#fff" />
        <path d="M94.25,164.24a1.13,1.13,0,1,1-1.13-1.13A1.13,1.13,0,0,1,94.25,164.24Z" fill="#fff" />
        <path d="M91.33,165.8a1.13,1.13,0,1,1-1.13-1.13A1.13,1.13,0,0,1,91.33,165.8Z" fill="#fff" />
        <path d="M75.75,188.63c-1.39,2.06-4.33,3.48-7.73,3.48-3.58,0-6.65-1.58-7.94-3.82" fill="none" stroke="#5d260f"
            stroke-linecap="round" stroke-linejoin="round" stroke-width="0.86" />
        <path d="M59.52,177.93c-1.86,2.92,4,8.06,8.55,8.06s10.62-5.15,8.56-8.06C74.44,174.83,61.74,174.43,59.52,177.93Z"
            fill="#5d260f" />
    </g>
</svg>