<svg xmlns="http://www.w3.org/2000/svg" viewBox="0 0 139.09 138.75">
    <g>
        <path
            d="M129.45,11.25a11.86,11.86,0,0,0-12.78-8.1,67.49,67.49,0,0,0-27.4,9.38A67.45,67.45,0,0,0,71.2,8.3C69,8.08,66.78,8,64.63,8h-.24a67.16,67.16,0,0,0-20.63,3.19A62.12,62.12,0,0,0,16.87.17a11.84,11.84,0,0,0-13,7.33c-.38.95-8.32,21.55-.07,41.21a58.53,58.53,0,0,0-2.42,8.51A60.21,60.21,0,0,0,0,70,59.61,59.61,0,0,0,4,91.51,62.17,62.17,0,0,0,19.71,115,11.8,11.8,0,0,0,22,116.71a66.48,66.48,0,0,0,87.62-2.19.46.46,0,0,0,.07-.07,64.4,64.4,0,0,0,5.36-5.69l.22-.27a62.46,62.46,0,0,0,6.6-9.79l.08-.16a60.74,60.74,0,0,0,4.65-11.17l0-.16a59.51,59.51,0,0,0,2.52-17.1,60.86,60.86,0,0,0-2.68-18.39C136.19,32.69,129.75,12.2,129.45,11.25Z" />
        <path d="M83.35,33s8.09-17,35.29-20.43c0,0,8.79,27.08-12,43.1Z" fill="#58595b" />
        <path d="M94,34.49s1.85-11.64,17.3-13.61c0,0,5.11,15.42-6.92,23.9Z" fill="#d7d8da" />
        <path d="M48.67,32.53s-6.26-18.45-33.3-23c0,0-11,27.85,9.09,44.7Z" fill="#58595b" />
        <path d="M38,33.58s-1.37-11.71-16.73-14.3c0,0-5.74,15.19,5.95,24.16Z" fill="#d7d8da" />
        <path
            d="M117.8,67.72c0,27.73-23.61,50.21-52.74,50.21S12.32,95.45,12.32,67.72,35.94,17.5,65.06,17.5,117.8,40,117.8,67.72Z"
            fill="#d7d8da" />
        <path
            d="M101.64,74.86c-5.41-3-10.94-6.19-17.28-3.75-6.17,2.37-9.19,8.5-7.8,15C79.4,99.27,90.7,101.51,102,103.53a49.75,49.75,0,0,0,13.75-22A81.25,81.25,0,0,1,101.64,74.86Z"
            fill="#58595b" />
        <path
            d="M28.65,75.37c5.41-3.06,10.94-6.2,17.28-3.76,6.17,2.38,9.19,8.51,7.8,15C50.9,99.77,39.59,102,28.28,104A49.79,49.79,0,0,1,14.53,82,81.18,81.18,0,0,0,28.65,75.37Z"
            fill="#58595b" />
        <path
            d="M117.8,67.72s-11-14.06-30.1-5.92C67.44,70.42,73,89.81,65.22,90c-9.27.19,1-22-27.89-29.77-13.14-3.56-24.84,6.72-24.84,6.72,0-27.73,23.45-49.53,52.57-49.43C94.76,17.6,118,39.35,117.8,67.72Z"
            fill="#58595b" />
        <path d="M44.79,99.47c0,2.6-3.32,4.71-7.41,4.71S30,102.07,30,99.47s3.32-4.72,7.41-4.72S44.79,96.86,44.79,99.47Z"
            fill="#f59188" />
        <path d="M97.64,99.47c0,2.6-3.32,4.71-7.42,4.71s-7.4-2.11-7.4-4.71,3.31-4.72,7.4-4.72S97.64,96.86,97.64,99.47Z"
            fill="#f59188" />
        <path d="M49.85,85.23a7.15,7.15,0,1,1-7.14-7.15A7.14,7.14,0,0,1,49.85,85.23Z" fill="#201d22" />
        <path d="M45.85,84a4,4,0,1,1-4-4A4,4,0,0,1,45.85,84Z" fill="#fff" />
        <path d="M47.73,87.92a1.19,1.19,0,1,1-1.19-1.18A1.19,1.19,0,0,1,47.73,87.92Z" fill="#fff" />
        <path d="M44.67,89.56a1.19,1.19,0,1,1-1.19-1.19A1.18,1.18,0,0,1,44.67,89.56Z" fill="#fff" />
        <path d="M93.55,85.23a7.15,7.15,0,1,1-7.15-7.15A7.15,7.15,0,0,1,93.55,85.23Z" fill="#201d22" />
        <path d="M89.54,84a4,4,0,1,1-4-4A4,4,0,0,1,89.54,84Z" fill="#fff" />
        <path d="M91.43,87.92a1.19,1.19,0,1,1-1.19-1.18A1.19,1.19,0,0,1,91.43,87.92Z" fill="#fff" />
        <path d="M88.36,89.56a1.19,1.19,0,1,1-1.18-1.19A1.18,1.18,0,0,1,88.36,89.56Z" fill="#fff" />
        <path
            d="M71.8,91.8c0,2.42-2.23,4.38-5,4.38H62.9c-2.75,0-5-2-5-4.38h0c0-2.42,2.23-4.38,5-4.38h3.91c2.76,0,5,2,5,4.38Z"
            fill="#201d22" />
        <path d="M76.88,104.38c-2.35,3.49-7.33,5.9-13.09,5.9-6.07,0-11.26-2.67-13.44-6.46" fill="none" stroke="#201d22"
            stroke-linecap="round" stroke-linejoin="round" stroke-width="2.31" />
    </g>
</svg>