<svg xmlns="http://www.w3.org/2000/svg" viewBox="0 0 142.54 146.43"><path d="M134.68 71.08c0-.22-.05-.45-.09-.67a63.06 63.06 0 0 0-13.24-33.47c.22-.39.43-.78.63-1.18a26.22 26.22 0 0 0 2-18.64 23.12 23.12 0 0 0-11.82-14.73A22.39 22.39 0 0 0 102 0a25.54 25.54 0 0 0-21.3 12.32c-1.08-.2-2.17-.39-3.26-.54a27.94 27.94 0 0 0-5.25-.54c-.68-.05-1.37-.08-2.06-.11a10.55 10.55 0 0 0-1.49-.08h-.66c-1.42-.05-2.89 0-4.58.11h-.26a9.83 9.83 0 0 0-1.08.09c-1.06.08-2.1.18-3.11.3-.27 0-.53 0-.8.06-1.56.19-2.9.42-4 .63A25.51 25.51 0 0 0 32.86 0a22.39 22.39 0 0 0-10.12 2.39C11 8.27 6.62 23.25 12.92 35.76c.19.38.38.75.59 1.12A62.71 62.71 0 0 0 .05 73.73v1.99a62 62 0 0 0 1 11l.37 2.45A10 10 0 0 0 2 91.51c.09 1.41.53 3.39 2.24 8a9.68 9.68 0 0 0 1.85 3.1c11 23 34.69 37.77 61.3 37.77 27.11 0 51.11-15.18 61.82-38.87A9.73 9.73 0 0 0 130.6 99a34.81 34.81 0 0 0 2.2-7.52c.1-.38.19-.75.28-1.12a10.18 10.18 0 0 0 .43-1.73l.09-.64a62.72 62.72 0 0 0 1.18-10.2 46.68 46.68 0 0 0-.1-6.71Z"/><path d="M46.54 18.87C50.39 26.52 48 35.52 41.11 39s-15.51 0-19.36-7.68-1.42-16.65 5.43-20.09 15.51-.02 19.36 7.64Z" fill="#f46831"/><path d="M41.63 21.33a8.67 8.67 0 0 1-3.48 11.74 8.66 8.66 0 0 1-11.49-4.21 8.67 8.67 0 0 1 3.48-11.74 8.66 8.66 0 0 1 11.49 4.21Z" fill="#ffefe1"/><path d="M88.36 18.87c-3.85 7.65-1.42 16.65 5.42 20.13s15.52 0 19.37-7.64 1.42-16.65-5.43-20.09-15.51-.06-19.36 7.6Z" fill="#f46831"/><path d="M93.27 21.33a8.4 8.4 0 1 0 15 7.53 8.4 8.4 0 1 0-15-7.53Z" fill="#ffefe1"/><path d="M124.94 75.72c0 30.25-25.76 54.78-57.53 54.78S9.89 106 9.89 75.72 35.64 21 67.41 21s57.53 24.47 57.53 54.72Z" fill="#f46831"/><path d="M51.35 78.3a7.8 7.8 0 1 1-7.8-7.8 7.8 7.8 0 0 1 7.8 7.8Z" fill="#5d260f"/><path d="M47 77a4.32 4.32 0 1 1-4.32-4.32A4.31 4.31 0 0 1 47 77Zm2 4.24A1.29 1.29 0 1 1 47.74 80 1.29 1.29 0 0 1 49 81.24ZM45.69 83a1.29 1.29 0 1 1-1.29-1.29A1.29 1.29 0 0 1 45.69 83Z" fill="#fff"/><circle cx="91.21" cy="78.3" r="7.79" fill="#5d260f"/><path d="M94.64 77a4.32 4.32 0 1 1-4.32-4.32A4.31 4.31 0 0 1 94.64 77Zm2.05 4.24A1.29 1.29 0 1 1 95.4 80a1.29 1.29 0 0 1 1.29 1.24ZM93.35 83a1.29 1.29 0 1 1-1.29-1.29A1.29 1.29 0 0 1 93.35 83Z" fill="#fff"/><path d="M60.12 82.84s1.94 17.6-3.88 23l22.91.14s-5.73-8.59-2.82-23.14c0 0-1.43-3.65-8-3.74a9.92 9.92 0 0 0-8.21 3.74Z" fill="#ffefe1"/><ellipse cx="67.69" cy="109.67" rx="18.84" ry="11.64" fill="#ffefe1"/><path d="M57.47 95.77c-2.21 3.48 4.75 9.61 10.19 9.61s12.65-6.13 10.19-9.61c-2.61-3.68-17.74-4.15-20.38 0Z" fill="#5d260f"/><path d="M79.67 110c-2.14 3.18-6.68 5.38-11.94 5.38-5.53 0-10.27-2.44-12.26-5.9" fill="none" stroke="#5d260f" stroke-linecap="round" stroke-linejoin="round" stroke-width="1.33"/><path d="M56.62 46.09a2.75 2.75 0 0 1-2.75-2.74V22.47a38.75 38.75 0 0 1 5.48-1v21.88a2.74 2.74 0 0 1-2.73 2.74Zm9.52-3.02a2.75 2.75 0 0 1-2.75-2.74V21.08l5.5-.14v19.39a2.75 2.75 0 0 1-2.75 2.74Zm8.74 3.02a2.74 2.74 0 0 1-2.74-2.74v-22.2a38.74 38.74 0 0 1 5.5.68v21.52a2.75 2.75 0 0 1-2.76 2.74Zm26.23 24.58a2.74 2.74 0 0 1 3.18-2.22l20.55 3.64a38.12 38.12 0 0 1 0 5.57l-21.55-3.81a2.74 2.74 0 0 1-2.18-3.18Zm1.31 9.9a2.74 2.74 0 0 1 3.18-2.22l19 3.36-.82 5.44-19.09-3.39a2.75 2.75 0 0 1-2.27-3.19Zm-4.51 8.08a2.75 2.75 0 0 1 3.19-2.22l21.9 3.86a37.8 37.8 0 0 1-1.63 5.29l-21.19-3.74a2.76 2.76 0 0 1-2.27-3.19ZM33.76 71.18A2.75 2.75 0 0 0 30.58 69L10 72.61a38.12 38.12 0 0 0 0 5.57l21.55-3.81a2.75 2.75 0 0 0 2.21-3.19Zm-1.31 9.91a2.75 2.75 0 0 0-3.19-2.23l-19 3.37.82 5.43 19.09-3.39a2.74 2.74 0 0 0 2.28-3.18ZM37 89.17a2.75 2.75 0 0 0-3.18-2.23L11.9 90.8a39 39 0 0 0 1.64 5.29l21.19-3.74A2.74 2.74 0 0 0 37 89.17Z" fill="#3a2127"/><path d="M39.39 97.05c0 2.83-3.62 5.14-8.08 5.14s-8.09-2.31-8.09-5.14 3.62-5.14 8.09-5.14 8.08 2.3 8.08 5.14Zm70.51 0c0 2.83-3.62 5.14-8.08 5.14s-8.08-2.31-8.08-5.14 3.62-5.14 8.08-5.14 8.08 2.3 8.08 5.14Z" fill="#f59188"/></svg>