<svg xmlns="http://www.w3.org/2000/svg" viewBox="0 0 692 540" xml:space="preserve"><ellipse fill="#FFF" opacity=".35" cx="350" cy="483.1" rx="296.5" ry="47.6"/><path fill="#FFF" d="M240.2 212.3c-8.7 0-16.9 2.1-24.1 5.9-10.6-26.4-36.4-45.1-66.5-45.1-26.4 0-49.5 14.3-61.9 35.6-8.5-4.9-18.2-7.7-28.7-7.7-31.8 0-57.7 25.8-57.7 57.7H292c-2.8-26-24.9-46.4-51.8-46.4zm412-105.8c-6.5 0-12.6 1.6-18 4.4-7.9-19.7-27.2-33.7-49.8-33.7-19.8 0-37 10.7-46.3 26.7-6.3-3.6-13.6-5.7-21.5-5.7-23.8 0-43.1 19.3-43.1 43.1H691c-2.1-19.5-18.7-34.8-38.8-34.8z"/><path fill="#66599C" d="M193.2 477.5h6.3c3.4 0 6.7.1 10.1.2 4.9.1 9.8.3 14.7.4 5.5.1 11 .3 16.4.2 2.1 0 4.2-.1 6.3-.2 12.6-.9 25.3-4.6 33.7-15.9 8.9-12 8.8-27 9.5-41.3 1-20.8 6.4-43.1-.4-63.5-7.3-21.7-40.6-20.2-57.8-21.4-3.8-.3-7.8-.6-11.8-.8-18-.9-37.4-.4-53.4 7.5-10.1 5-18 12.7-20.5 25.2-3.5 17.1-2 36.2-2.4 53.6-.3 14.8-2.1 34.5 8.2 46.1 1.8 2 3.8 3.6 6 4.9.4.3.9.5 1.3.7 10.1 5.3 23.3 4.4 33.8 4.3z"/><path fill="#876BA5" d="M169.3 477.7h6.3c3.4 0 6.7.1 10.1.2 4.9.1 9.8.3 14.7.4 5.5.1 11 .3 16.4.2 2.1 0 4.2-.1 6.3-.2 12.6-.9 25.3-4.6 33.7-15.9 8.9-12 8.8-27 9.5-41.3 1-20.8 6.4-43.1-.4-63.5-7.3-21.7-40.6-20.2-57.8-21.4-3.8-.3-7.8-.6-11.8-.8-18-.9-37.4-.4-53.4 7.5-10.1 5-18 12.7-20.5 25.2-3.5 17.1-2 36.2-2.4 53.6-.3 14.8-2.1 34.5 8.2 46.1 1.8 2 3.8 3.6 6 4.9.4.3.9.5 1.3.7 10 5.3 23.2 4.5 33.8 4.3z"/><path fill="#8288C2" d="M177 456.2h4.4c2.3 0 4.7.1 7 .1l10.3.3c3.8.1 7.7.2 11.5.2 1.5 0 2.9-.1 4.4-.2 8.9-.6 17.7-3.2 23.6-11.2 6.2-8.4 6.1-18.9 6.6-28.9.7-14.6 4.5-30.2-.3-44.4-5.1-15.2-28.4-14.1-40.4-15-2.7-.2-5.5-.4-8.3-.5-12.6-.6-26.2-.3-37.4 5.2-7.1 3.5-12.6 8.9-14.4 17.6-2.4 11.9-1.4 25.3-1.7 37.5-.2 10.4-1.5 24.2 5.7 32.3 1.3 1.4 2.7 2.5 4.2 3.5.3.2.6.4.9.5 7.3 3.7 16.6 3.1 23.9 3z"/><path fill="#455BA5" d="M207.4 404c4.7-4.2 7.4-9.9 6.2-17.3-1.1-6.4-6.8-10.5-12.4-12.8-7.4-3-16.6-1.6-24 .5-3.5-.1-6.9 2-6.7 6.5.7 17.2.9 34.4.9 51.7 0 .5 0 1 .1 1.4.3 2.3 1.7 3.9 3.5 4.7.4.2.9.5 1.3.6 7 2.8 15.7 2.1 22.9 1 8.4-1.2 16.7-5.6 18.7-14.4 2.6-10.8-2.6-17.9-10.5-21.9zm-11.3-17.5c1.4.4 2.5 1.1 3 1.5 1.2 1 1.1 1.1 1.4 2.4-.3-1.2-.2-.4-.1.3-.1 0-.5 1.6-.1.8-.9 1.9-1.5 2.3-3.2 3.8-3.2 2.7-8.2 3.9-12.7 4.7-.1-4.5-.2-9-.4-13.4 4.1-.9 8.2-1.2 12.1-.1zm8.6 37c-.2 1.1-.9 1.4-2.9 2.4s-4.9 1.5-7.3 1.7c-3.4.3-6.7.5-9.8.1 0-4.7 0-9.5-.1-14.2.2 0 .4 0 .6-.1 3.6-.6 9.9 0 14.4 1.5 4.3 1.4 6.2 4.1 5.1 8.6z"/><path fill="#FFF" d="M222.5 362.9c10.3 3 11.9 11 13.9 20.9 1.4 7 4 19.8 12 14.1.7-.5 1.4-1.1 2.2-1.9 7.1-7.1 3.7-17.4 3.7-26.1 0-5.4.9-9.7-2.5-14.4-4.7-6.4-19.4-5.7-26.8-5.2-8 .5-11.7 4.4-9.8 7.9 1 1.9 3.4 3.6 7.3 4.7z"/><path fill="#ED6E9F" d="M356.9 481.2h6.3c3.4 0 6.7.1 10.1.2 4.9.1 9.8.3 14.7.4 5.5.1 11 .3 16.4.2 2.1 0 4.2-.1 6.3-.2 12.6-.9 25.3-4.6 33.7-15.9 8.9-12 8.8-27 9.5-41.3 1-20.8 6.4-43.1-.4-63.5-7.3-21.7-40.6-20.2-57.8-21.4-3.8-.3-7.8-.6-11.8-.8-18-.9-37.4-.4-53.4 7.5-10.1 5-18 12.7-20.5 25.2-3.5 17.1-2 36.2-2.4 53.6-.3 14.8-2.1 34.5 8.2 46.1 1.8 2 3.8 3.6 6 4.9.4.3.9.5 1.3.7 10 5.4 23.2 4.5 33.8 4.3z"/><path fill="#EF88AE" d="M332.9 481.5h6.3c3.4 0 6.7.1 10.1.2 4.9.1 9.8.3 14.7.4 5.5.1 11 .3 16.4.2 2.1 0 4.2-.1 6.3-.2 12.6-.9 25.3-4.6 33.7-15.9 8.9-12 8.8-27 9.5-41.3 1-20.8 6.4-43.1-.4-63.5-7.3-21.7-40.6-20.2-57.8-21.4-3.8-.3-7.8-.6-11.8-.8-18-.9-37.4-.4-53.4 7.5-10.1 5-18 12.7-20.5 25.2-3.5 17.1-2 36.2-2.4 53.6-.3 14.8-2.1 34.5 8.2 46.1 1.8 2 3.8 3.6 6 4.9.4.3.9.5 1.3.7 10.1 5.3 23.2 4.4 33.8 4.3z"/><path fill="#F4AECE" d="M340.7 459.9h4.4c2.3 0 4.7.1 7 .1l10.3.3c3.8.1 7.7.2 11.5.2 1.5 0 2.9-.1 4.4-.2 8.9-.6 17.7-3.2 23.6-11.2 6.2-8.4 6.1-18.9 6.6-28.9.7-14.6 4.5-30.2-.3-44.4-5.1-15.2-28.4-14.1-40.4-15-2.7-.2-5.5-.4-8.3-.5-12.6-.6-26.2-.3-37.4 5.2-7.1 3.5-12.6 8.9-14.4 17.6-2.4 11.9-1.4 25.3-1.7 37.5-.2 10.4-1.5 24.2 5.7 32.3 1.3 1.4 2.7 2.5 4.2 3.5.3.2.6.4.9.5 7.3 3.8 16.5 3.2 23.9 3z"/><path fill="#EB616E" d="M345.9 437.8c9.2 8.2 21.1 7 31.6 2.4 3.6-1.6 4.5-6.9 2.6-10-2.2-3.7-6.3-4.2-10-2.6-3.6 1.6-5.9 2-9.6 1.8 1.7.1-3.1-1.1-2.3-.7-.6-.3-1.2-.6-1.7-1-.2-.1-.3-.2-.4-.2-.3-.2-.5-.5-.8-.7-.4-.4-.8-.8-1.2-1.3.4.5-.7-1-.9-1.3-.4-.7-.8-1.4-1.1-2.1-.1-.1-.1-.2-.1-.3-.1-.3-.2-.5-.3-.8-.6-1.6-1-3.2-1.3-4.9-.1-.5-.1-.7-.2-.9v-.4c-.1-1.1-.2-2.2-.2-3.3-.1-4.4.1-5.1 1.2-9.1.2-.8.5-1.6.8-2.4.1-.1.1-.3.1-.3.1-.3.2-.5.4-.8.4-.7.8-1.5 1.2-2.2.2-.3.4-.7.7-1 .1-.1.2-.2.2-.3l.1-.1c.5-.6 1.1-1.2 1.6-1.7.3-.2.5-.5.8-.7.6-.5 1.3-.8 2-1.2.1-.1.2-.1.3-.2.2-.1.4-.2.7-.2 3.1-1 5.1-.8 9 .3 9.1 2.6 12.9-11.5 3.9-14.1-10.2-2.9-20.9-.9-28.2 7.1-6.8 7.4-9.5 17.9-9.3 27.7.2 9.1 3.3 19.2 10.4 25.5z"/><path fill="#FFF" d="M386.1 366.7c10.3 3 11.9 11 13.9 20.9 1.4 7 4 19.8 12 14.1.7-.5 1.4-1.1 2.2-1.9 7.1-7.1 3.7-17.4 3.7-26.1 0-5.4.9-9.7-2.5-14.4-4.7-6.4-19.4-5.7-26.8-5.2-8 .5-11.7 4.4-9.8 7.9 1.1 1.8 3.4 3.5 7.3 4.7z"/><path fill="#2DAF80" d="M280.2 343h6.3c3.4 0 6.7.1 10.1.2 4.9.1 9.8.3 14.7.4 5.5.1 11 .3 16.4.2 2.1 0 4.2-.1 6.3-.2 12.6-.9 25.3-4.6 33.7-15.9 8.9-12 8.8-27 9.5-41.3 1-20.8 6.4-43.1-.4-63.5-7.3-21.7-40.6-20.2-57.8-21.4-3.8-.3-7.8-.6-11.8-.8-18-.9-37.4-.4-53.4 7.5-10.1 5-18 12.7-20.5 25.2-3.5 17.1-2 36.2-2.4 53.6-.3 14.8-2.1 34.5 8.2 46.1 1.8 2 3.8 3.6 6 4.9.4.3.9.5 1.3.7 10.1 5.3 23.3 4.5 33.8 4.3z"/><path fill="#88C380" d="M256.2 343.2h6.3c3.4 0 6.7.1 10.1.2 4.9.1 9.8.3 14.7.4 5.5.1 11 .3 16.4.2 2.1 0 4.2-.1 6.3-.2 12.6-.9 25.3-4.6 33.7-15.9 8.9-12 8.8-27 9.5-41.3 1-20.8 6.4-43.1-.4-63.5-7.3-21.7-40.6-20.2-57.8-21.4-3.8-.3-7.8-.6-11.8-.8-18-.9-37.4-.4-53.4 7.5-10.1 5-18 12.7-20.5 25.2-3.5 17.1-2 36.2-2.4 53.6-.3 14.8-2.1 34.5 8.2 46.1 1.8 2 3.8 3.6 6 4.9.4.3.9.5 1.3.7 10.1 5.4 23.3 4.5 33.8 4.3z"/><path fill="#A9D2A3" d="M264 321.7h4.4c2.3 0 4.7.1 7 .1l10.3.3c3.8.1 7.7.2 11.5.2 1.5 0 2.9-.1 4.4-.2 8.9-.6 17.7-3.2 23.6-11.2 6.2-8.4 6.1-18.9 6.6-28.9.7-14.6 4.5-30.2-.3-44.4-5.1-15.2-28.4-14.1-40.4-15-2.7-.2-5.5-.4-8.3-.5-12.6-.6-26.2-.3-37.4 5.2-7.1 3.5-12.6 8.9-14.4 17.6-2.4 11.9-1.4 25.3-1.7 37.5-.2 10.4-1.5 24.2 5.7 32.3 1.3 1.4 2.7 2.5 4.2 3.5.3.2.6.4.9.5 7.3 3.7 16.5 3.1 23.9 3z"/><path fill="#258C60" d="M287.8 235.7c-2.2-6.3-11.6-4.3-11.2 1.4-.2.3-.3.6-.4.9-3.7 10.1-7.1 20.4-10.7 30.5-2.2 6.1-4.4 12.3-6.7 18.4-.4 1.1-.8 2.2-1.3 3.3-.2.5-.4 1-.6 1.4-.1.3-.2.4-.2.5 0 0 0 .1-.1.2-.3.6-.6 1.2-.9 1.9l-.3.6c-.1.1-.1.2-.2.3.7-1.1 1.7-1.9 3-2.3h.9c-5.6 1-7.3 9.8-.9 10.9 6.1 1 7.8-4.7 9.6-9.2.9-2.1 1.7-4.3 2.5-6.5 7.3 0 14.8.7 21.9-1.5 1.6 5 3.3 10 5 14.9 2.4 6.8 13.4 3.9 10.9-3-7.3-20.6-12.9-41.9-20.3-62.7zm-13.3 41.2c.1-.3.2-.6.3-.8 2.5-7.1 5-14.3 7.5-21.4 2.2 7 4.4 14.1 6.6 21.2-4.7 1.3-9.6 1.2-14.4 1z"/><path fill="#FFF" d="M309.5 228.5c10.3 3 11.9 11 13.9 20.9 1.4 7 4 19.8 12 14.1.7-.5 1.4-1.1 2.2-1.9 7.1-7.1 3.7-17.4 3.7-26.1 0-5.4.9-9.7-2.5-14.4-4.7-6.4-19.4-5.7-26.8-5.2-8 .5-11.7 4.4-9.8 7.9 1 1.8 3.3 3.5 7.3 4.7z"/><path fill="#ED845F" d="m595.1 325.4-10.2 7.2-10.9 14-51.2-25.7 3.7-11.3-24.1-8.6h10.8s8.2-38 8.9-84.8c2.2-2.5 3.8-5.7 4.4-9.3 1.1-6.3-.9-12.3-4.8-16-.8-15.4-2.5-31.2-5.8-46.5-3.4-20.8-13.4-43.7-39.5-54.3-38.6-15.7-74-7.6-74-7.6-30.9 4.5-46.4 24.9-54.1 46.9v.1c-4.6 13.1-6.4 26.8-7 37.9-.7 7-1.3 14.9-1.7 23.9-8.1 1.9-12.9 10.9-10.8 20.2 1.4 6.3 5.6 11.1 10.7 13 .6 21.1 2.5 45.9 6.5 74.7h25.9l5.9-11.2 11.1 11.1h8.4l-43.5 40 3.3 5.1-45.7 50.9c-.5-.9-.8-1.5-.8-1.5l-20-2.7-12.4 2c-6.5 1 .5 8.3 4.7 9.9 14.4 5.5 19.6 7.8 27.4 7.9.4 0 2.8-.2 4.8-.8l.6.6 56.7-42.5 7.3 11.3 10.7-9.8c.1 4.2.1 8.8.3 13.7.2 4.9.3 13.5 2.1 20.1-3.2 10.3-7.9 19.7-16.6 28-10.6 10.1-23.1 23.5-26.6 29.3-14.4 23.5 3.6 33.8 25.6 38.6 4 19.5 35.1 25.8 66.5 20.2 25.3-4.6 60-9.4 80.9-17 .3-1.4.6-2.8.8-4.3l6.6-1.2.4.6 7.1 1.1c.1.4.2.7.3 1 .1.4.5.5.9.4.3-.1.5-.5.4-.9 0-.1-.1-.2-.1-.3l2.3.3c0 .3.1.6.2.9.1.4.5.6.8.5s.4-.3.5-.5l1.7 1.2c0 .3.1.5.2.8.1.4.5.5.8.4.2 0 .3-.2.4-.3l2.2 1.5c.1.3.2.5.3.7.2.3.6.4.9.3 0 0 .1 0 .1-.1l4.5 3.1s2.6 2.2 5.6-.2l-.1-.1 3.1-2.4-25.5-33-3.1 2.4.1.1-9.8 7.2c-.3-9.1-1.7-15.6-1.7-15.6-13.7-.8-26.4-2.8-39.8-3.4 3 0 5.9-.3 9-1.7 11.2-5 15.8-18 14.5-30.8s-6.5-24.7-12.6-35.8c.9-20.2-.2-36.8-2.8-50.5l22.4 5.8.8-2.3 66 18.6 1.2-2.7c1.6-.9 3.2-2.2 3.4-2.4 5.4-5.6 7.6-10.8 14-24.8 1.9-4.3 1.9-14.4-3.5-10.6zm-107.9-29.9 5-7.7 4.7 11.2-9.7-3.5zm-14.4 166.8c1.7-.1 3.4 0 5 0h-5z"/><path fill="#562806" d="M341.2 190.8h1.2c.3 0 .6.1.9.3 4 2.4 7.9 16.8 7.9 16.8v-.1c2.6-48.4 18.1-65.7 30.9-71.7 5-2.4 9.7-2.9 12.9-3 .4-5.8 2-12.9 1.7-16.7.4 1.1.7 2.5 1 4 .8 3.8 1.4 8.7 2.1 13.1v-.1s91.2-18.5 99.1 39.8c0 0 1.1 6.3 5.6 28.4.2 1.2.5 2.4.8 3.7 0 0 .4-13.5 5.9-18.2.1-.1.3-.2.4-.3h1.8c.5 0 .9.1 1.4.2 2.7.5 5.1 1.8 7.1 3.6-.8-15.4-2.5-31.2-5.8-46.5-3.4-20.8-13.4-43.7-39.5-54.3-38.6-15.7-74-7.6-74-7.6-30.9 4.5-46.4 24.9-54.1 46.9v.1c-4.6 13.1-6.4 26.8-7 37.9-.7 7-1.3 14.9-1.7 23.9h.2c.3 0 .7-.1 1.2-.2zm57.9 104.6c1-6.7 4.4-7.6 14.7-12.3 1.3-1.2 2.6-2.3 4-3.3l-.3-11.9c-28.5-3.5-52.4-22.2-62.6-47.6l-.2.2-.6.6-.4.4-.6.6c-.2.1-.3.3-.5.4-.2.2-.5.3-.7.5-.2.1-.3.2-.5.3-.3.2-.5.3-.8.4-.2.1-.3.2-.5.2-.3.1-.6.3-.9.4-.1.1-.3.1-.4.2-.5.2-.9.3-1.4.4-2.7.6-5.3.3-7.8-.6.6 21.1 2.5 45.9 6.5 74.7H372l5.9-11.2 11.1 11.1h8.4l1.5-1.4c0-.7.1-1.4.2-2.1zm109.6-74.1c-.5-.1-1-.2-1.4-.3-.2 0-.3-.1-.5-.2l-.9-.3-.6-.3c-.2-.1-.5-.2-.7-.4l-.6-.3c-.2-.1-.4-.3-.7-.4-.2-.1-.4-.3-.5-.4-.2-.2-.4-.3-.6-.5l-.5-.5c-.2-.2-.4-.3-.5-.5l-.2-.2c-2.3 6.7-5.6 13-9.7 18.7-.1.1-.1.2-.2.3-.7 1-1.5 2-2.3 3-.1.1-.2.2-.2.3-.9 1.1-1.8 2.2-2.8 3.3l-.3.3c-.8.9-1.7 1.8-2.5 2.7l-.8.8c-.7.7-1.5 1.4-2.2 2.1-.3.3-.6.6-.9.8-.8.7-1.6 1.3-2.4 2-.3.2-.6.5-.9.7-1 .8-2 1.5-3.1 2.3-.1.1-.2.1-.3.2-1.2.8-2.4 1.6-3.6 2.3-.2.2-.5.3-.7.4-.9.6-1.9 1.1-2.9 1.7l-1.2.6c-.9.5-1.7.9-2.6 1.3-.4.2-.9.4-1.3.6l-2.7 1.2c-.4.2-.8.3-1.2.5-1.2.5-2.4.9-3.7 1.3-.1 0-.2.1-.3.1-1.4.4-2.7.9-4.1 1.2l-1.2.3c-1 .3-2 .5-3 .7l-1.5.3c-.6.1-1.1.2-1.7.3v1.4l.2 10.2v.7s4.4.3 10.6 3.1c4.1-.9 9.3 2.7 14.5 4.9-.2-.1-.4 0-.7.1l21.9 7.9 5-7.7 4.7 11.2 5.5 2h10.8s8.2-38 8.9-84.8c-3.4 3.7-8.4 5.8-13.4 5z"/><path fill="#DB7A58" d="m528.9 491.3 3.7.3s1.7-.6.4-2.2c0 0-2.4-4.7-5.9-3.6 0 0-1.3 0-2.8-.1 0 3.9-.3 8-1 12.2l6.6-1.2-2.6-3.4c0 .1-1.9-2.2 1.6-2z"/><path fill="#215483" d="M527 485.8c3.5-1 5.9 3.6 5.9 3.6 1.4 1.6-.4 2.2-.4 2.2l-3.7-.3c-3.5-.2-1.5 2.1-1.5 2.1l2.6 3.4.4.6 7.1 1.1c-.2-.9-.3-1.9-.3-2.9 0-.7.1-1.5.2-2.2.1-.4.4-.6.8-.5.4.1.6.4.5.8-.1.6-.2 1.3-.2 1.9 0 1.2.2 2.3.4 3.1l2.3.3c-.1-.6-.1-1.2-.1-1.7 0-1 .1-1.9.3-2.7.1-.4.4-.6.8-.5.4.1.6.4.5.8-.1.7-.2 1.6-.2 2.5 0 .8.1 1.7.3 2.3v.3l1.7 1.2c-.1-.4-.1-.8-.1-1.3 0-1.3.3-2.7.5-3.6.1-.4.5-.6.8-.5.4.1.6.5.5.8-.2.9-.5 2.1-.5 3.3 0 .6.1 1.2.2 1.7.1.2 0 .4-.1.6l2.2 1.5c-.2-.7-.3-1.4-.3-2.1 0-1 .1-1.9.3-2.6.1-.4.5-.6.8-.5.4.1.6.5.5.8-.2.6-.3 1.4-.3 2.3 0 .8.1 1.7.4 2.2.2.3.1.6-.2.8l4.5 3.1s2.6 2.2 5.6-.2l-.1-.1-25.1-33.1-9.8 7.2c0 1.3.1 2.7.1 4.1 1.4.2 2.7.2 2.7.2z"/><path fill="#1B4269" d="m559.4 507.2 3.1-2.3-25.5-33-3.1 2.4h.1z"/><path fill="#242340" d="M538.7 493.5c.1-.4-.2-.7-.5-.8-.4-.1-.7.2-.8.5-.1.7-.2 1.4-.2 2.2 0 1 .1 2 .3 2.9.1.4.2.7.3 1 .1.4.5.5.9.4.3-.1.5-.5.4-.9 0-.1-.1-.2-.1-.3-.2-.8-.4-2-.4-3.1-.1-.7 0-1.3.1-1.9zm3.8 3.6c0-.9.1-1.8.2-2.5.1-.4-.2-.7-.5-.8-.4-.1-.7.2-.8.5-.2.8-.3 1.8-.3 2.7 0 .6.1 1.2.1 1.7 0 .3.1.6.2.9.1.4.5.6.8.5s.4-.3.5-.5v-.3c-.2-.5-.2-1.3-.2-2.2zm3.4 4.2c-.2-.5-.2-1.1-.2-1.7 0-1.2.3-2.4.5-3.3.1-.4-.1-.7-.5-.8-.4-.1-.7.1-.8.5-.3 1-.5 2.3-.5 3.6 0 .4 0 .8.1 1.3 0 .3.1.5.2.8.1.4.5.5.8.4.2 0 .3-.2.4-.3 0-.1.1-.3 0-.5zm3.6 2.2c-.3-.5-.4-1.3-.4-2.2 0-.8.1-1.7.3-2.3.1-.4-.1-.7-.5-.8-.4-.1-.7.1-.8.5-.2.7-.3 1.6-.3 2.6 0 .7.1 1.4.3 2.1.1.3.2.5.3.7.2.3.6.4.9.3 0 0 .1 0 .1-.1.2-.1.3-.5.1-.8z"/><path fill="#3C6C95" d="M381.5 474.3c3.6-5.8 16-19.2 26.6-29.3 6.9-6.5 11.8-19 15.3-30.9-6-.1-13.6-.8-23.9-2.3-3.5-.5-5.6-4.1-6.9-8.7-3.2 10.3-7.9 19.7-16.6 28-10.6 10.1-23.1 23.5-26.6 29.3C335 483.9 353 494.2 375 499c-1.2-6.7.5-14.9 6.5-24.7z"/><path fill="#2F80A3" d="M468.6 400.6c-.4-6.8-1.7-14.5-2.1-16.4-1.8-9.1-1.2-30.9-.8-47 .2-6 .3-11.3.3-14.7 0-7.4-3.4-11.3-8.8-12.9.5-4.8 1.2-9.5 2.4-14.4.4-1.6.7-3.2 1.7-4.6.5-.6 2.6-2.6 4-3 .3-.1.6-.1.7-.1-5.2-2.2-10.5-5.7-14.5-4.9-1.8.4-3.4 1.7-4.7 4.4 0 .1-.1.2-.1.3-1.8 4.1-4.4 12.6-5.5 21.2-2.9 0-5.8 0-8.7.1-4.2 0-8.3.1-12.5 0h-3.8c-.2-8.1 1.3-18.5-2.5-25.5-10.3 4.7-13.7 5.6-14.7 12.3-.1.7-.2 1.3-.2 2.1-.1 1.7-.1 3.6 0 5.5.1 2.2.3 4.4.5 6.4-2.4.8-3.9 2.2-4.9 4.4-.4 1-.7 2.1-1 3.3-.6 2.5-.9 5.7-1.5 9.6 0 0-2 13.4-1.7 42.6.1 4.2.1 8.8.3 13.7.2 4.9.3 13.5 2.1 20.1 1.3 4.6 3.4 8.2 6.9 8.7 10.3 1.5 17.8 2.2 23.9 2.3-3.4 11.9-8.4 24.4-15.2 30.9-10.6 10.1-23.1 23.5-26.6 29.3-6 9.8-7.8 18-6.4 24.6 4 19.5 35.1 25.8 66.5 20.2 25.3-4.6 60-9.4 80.9-17 .3-1.4.6-2.8.8-4.3.7-4.2.9-8.4 1-12.2 0-1.4 0-2.8-.1-4.1-.3-9.1-1.7-15.6-1.7-15.6-13.7-.8-26.4-2.8-39.8-3.4 3 0 5.9-.3 9-1.7 11.2-5 15.8-18 14.5-30.8s-6.5-24.7-12.6-35.8c0 .4 0 .8-.1 1.3 0 0-7.8 3.5-25 5.1zm-62.2-49c-.3-.7-.6-1.3-.9-1.8 0-.9.3-7 .5-12.7.2-5.8.3-11.4 0-11.4 3.2 0 6.3-.5 9.4-.8 1.5-.1 3-.3 4.5-.3 7.1 0 13.5 0 20.3-1.5.3-.1.7-.2 1-.2 3.1-.7 5.4-1.1 6.2 2.5.4 1.8.6 3.6.6 5.5s-.1 3.8-.1 5.7l1.1 16c-7.4-.1-9.7-.1-23.3.5-7.1.2-12.7.9-19.3-1.5zm66.4 110.7c1.7-.1 3.4 0 5 0h-5z"/><path fill="#DB7A58" d="M311.4 394.8c-.5-.9-.8-1.5-.8-1.5l-20-2.7-12.4 2c-6.5 1 .5 8.3 4.7 9.9 14.4 5.5 19.6 7.8 27.4 7.9.4 0 2.8-.2 4.8-.8l.6.6 56.7-42.5-15.3-23.8-45.7 50.9z"/><path fill="#16C172" d="M429.4 283.8c-11.2.5-11.7-3.7-11.7-3.7v-.4c-1.4 1.1-2.7 2.2-4 3.3 3.8 7.1 2.4 17.4 2.5 25.5h16.3c2.9 0 5.8 0 8.7-.1 1.1-8.5 3.7-17.1 5.5-21.2 0-.1.1-.2.1-.3 1.2-2.7 2.8-4 4.7-4.4-6.3-2.8-10.6-3.1-10.6-3.1-2.1 4.6-11.5 4.4-11.5 4.4zM392 326.7c.5-3.9.9-7 1.5-9.6.3-1.3.6-2.4 1-3.3 1-2.2 2.4-3.6 4.9-4.4-.2-2-.4-4.2-.5-6.4-.1-1.9-.1-3.8 0-5.5l-1.5 1.4-43.5 40 3.3 5.1 15.3 23.8 7.3 11.3 10.7-9.8c-.5-29.2 1.5-42.6 1.5-42.6z"/><path fill="#DB7A58" d="M347.3 224.9c.5-.1 1-.2 1.4-.4.1 0 .3-.1.4-.2.3-.1.6-.2.9-.4.2-.1.3-.2.5-.2.3-.1.5-.3.8-.4.2-.1.3-.2.5-.3.2-.2.5-.3.7-.5.2-.1.3-.2.5-.4l.6-.6.4-.4.6-.6c.1-.1.1-.2.2-.2 10.2 25.5 34 44.1 62.6 47.6 3.8.5 7.7.7 11.6.6 1.5 0 3-.1 4.5-.2.5 0 .9-.1 1.4-.1l3-.3c.5-.1 1.1-.2 1.6-.2.9-.1 1.9-.3 2.8-.5l1.5-.3c1-.2 2-.5 3-.7l1.2-.3c1.4-.4 2.8-.8 4.1-1.2.1 0 .2-.1.3-.1 1.2-.4 2.5-.9 3.7-1.3.4-.2.8-.3 1.2-.5l2.7-1.2c.4-.2.9-.4 1.3-.6.9-.4 1.7-.9 2.6-1.3l1.2-.6c1-.5 1.9-1.1 2.9-1.7.2-.1.5-.3.7-.4 1.2-.8 2.4-1.5 3.6-2.3.1-.1.2-.1.3-.2 1-.7 2.1-1.5 3.1-2.3.3-.2.6-.5.9-.7.8-.6 1.6-1.3 2.4-2 .3-.3.6-.6.9-.8.8-.7 1.5-1.4 2.2-2.1l.8-.8c.9-.9 1.7-1.8 2.5-2.7l.3-.3c1-1.1 1.9-2.2 2.8-3.3.1-.1.2-.2.2-.3.8-1 1.5-2 2.3-3 .1-.1.1-.2.2-.3-13.1 12.4-30.8 20.5-50.4 20.7-60.5.6-75.5-31-76.4-71.4-.4-18.6 6.3-35.7 17.6-48.8-12.8 6-28.2 23.3-30.9 71.7.7 3.4 1.6 6.6 2.8 9.8-3 2.7-7 3.9-11.3 2.4-6.7-2.3-9.1-10-8.6-16.5.2-3.1.9-6.3 3.1-8.7 1.7-1.8 3.8-3 6.1-3.8-.3-.2-.6-.3-.9-.3h-1.2c-.5.1-.9.1-1.4.2h-.2c-8.1 1.9-12.9 10.9-10.8 20.2 1.4 6.3 5.6 11.1 10.7 13 2.6.8 5.3 1.1 7.9.5z"/><path fill="#242340" d="M347 206.4c-.2-1.8-.7-3.5-1.6-5-1.1-2-2.8-3.5-5.1-4.2-.6-.2-1.1.1-1.3.7-.2.6.1 1.1.7 1.3 1.7.5 3 1.7 3.9 3.3.6 1 1 2.2 1.2 3.5-1.2.5-2.9.7-4.4.7-.9 0-1.8-.1-2.5-.3s-1.1-.4-1.2-.6c-.4-.4-1.1-.5-1.5-.1s-.5 1.1-.1 1.5c.6.7 1.4 1 2.3 1.2s1.9.3 3 .3c1.6 0 3.2-.2 4.6-.7 0 2.7-.8 5.6-2.5 8-.3.5-.2 1.1.2 1.5.5.3 1.1.2 1.5-.2 1.9-2.7 2.9-6 2.9-9.2 0-.5 0-1.1-.1-1.7z"/><path fill="#DB7A58" d="M513.3 186.9h-1.8c-.1.1-.3.2-.4.3 2.3.8 4.5 1.8 6.3 3.6 2.3 2.3 3.1 5.4 3.5 8.5.8 6.5-1.2 14.2-7.8 16.9-4.2 1.7-8.3.6-11.4-1.9-.3.9-.5 1.8-.8 2.6.1.1.2.2.2.3.2.2.3.4.5.5l.5.5c.2.2.4.3.6.5.2.1.4.3.5.4.2.1.4.3.7.4l.6.3c.2.1.5.2.7.4l.6.3.9.3c.2.1.3.1.5.2.5.1 1 .3 1.4.3 5 .9 10-1.2 13.5-5.2 2.2-2.5 3.8-5.7 4.4-9.3 1.1-6.3-.9-12.3-4.8-16-1.9-1.9-4.4-3.2-7.1-3.6-.4-.2-.9-.2-1.3-.3z"/><path fill="#242340" d="M512.9 213.7c.5-.4.5-1 .2-1.5-1.8-2.3-2.7-5.1-2.8-7.9 1.2.3 2.5.5 3.9.5 1.2 0 2.4-.1 3.4-.4.5-.1 1-.3 1.4-.5s.8-.5 1.1-.9c.4-.5.3-1.1-.2-1.5s-1.1-.3-1.5.2c-.1.1-.2.2-.5.3-.8.4-2.3.7-3.9.7-1.4 0-2.8-.2-3.8-.6.2-1.4.6-2.7 1.2-3.8.8-1.5 2-2.6 3.6-3.2.5-.2.8-.8.6-1.4-.2-.5-.8-.8-1.4-.6-2.1.8-3.7 2.3-4.7 4.2-.9 1.6-1.3 3.4-1.5 5.3v1.1c0 3.4 1.1 6.9 3.3 9.8.5.4 1.2.5 1.6.2z"/><path fill="#ED845F" d="M424.9 274c0 1.4-.5 4.9 1.7 5.9 1.2.6 4.5.5 6 .8 2.6.5 7-.3 8.2-1.8l-.2-10.2c-4.3.6-9.6 1.3-13.6 1.7-3.1.4-2.1 2.1-2.1 3.6z"/><path fill="#DB7A58" d="M429.4 283.8s9.4.1 11.5-4.3v-.7c-1.2 1.4-5.6 2.2-8.2 1.8-1.5-.3-4.8-.2-6-.8-2.2-1-1.7-4.6-1.7-5.9 0-1.5-1-3.2 2.1-3.5 4-.4 9.3-1.1 13.6-1.7v-1.4c-.4.1-.7.1-1.1.2-.5.1-1.1.2-1.6.2l-3 .3c-.5 0-.9.1-1.4.1-1.5.1-3 .2-4.5.2-3.9.1-7.8-.1-11.6-.6l.3 11.9v.4c-.1.1.4 4.3 11.6 3.8z"/><path fill="#491316" d="M436.8 237.1zm-25.6-2.9c-1.1-.6-2.2-1.4-3.3-2.3 1 .9 2.1 1.7 3.3 2.3zm16.1 4c-2.1 0-6.6-.2-11.4-1.9 4.8 1.7 9.4 1.9 11.4 1.9z"/><path fill="#491316" d="m445.9 210.9-18.1.5-18.1.5c-11.2.3-8.1 11.2-8.1 11.2 1.4 3.9 3.7 6.7 6.2 8.9 3.9-2.9 8.2-5.3 13-3.6 3.7 1.3 6.4 3 10.2 1.6 1.8-.7 3.6-1.8 5.3-2.5 2.7-1.1 5.2-.4 7.6.9 1.4.8 2.9 1.8 4.3 3 2.7-2.3 5-5.5 6.3-9.7.1-.1 2.6-11.1-8.6-10.8zm-17.8 11.4c-18.7.6-19-10.4-19-10.4.2 0 36.4-1 36.4-1 .3 12.5-17.4 11.4-17.4 11.4zm20 9.2c-.4.4-.8.7-1.3 1 .5-.3.9-.7 1.3-1z"/><path fill="#C55D6C" d="M436.4 227.4c-1.8.8-3.5 1.9-5.3 2.5-3.9 1.4-6.6-.3-10.2-1.6-4.8-1.7-9.1.7-13 3.6 1 .9 2.1 1.6 3.3 2.3 1.6.9 3.2 1.6 4.8 2.1 4.8 1.6 9.3 1.9 11.4 1.9h2.3c.4 0 1-.1 1.7-.1h.2c.7-.1 1.4-.2 2.3-.3h.2c.8-.1 1.8-.3 2.7-.6.1 0 .2 0 .2-.1l3-.9c.1 0 .2-.1.2-.1 1-.4 2.1-.8 3.1-1.4.1 0 .2-.1.2-.1 1-.5 2-1.1 3-1.9.1-.1.2-.1.2-.2.4-.3.9-.7 1.3-1 .1 0 .1-.1.2-.1-1.4-1.2-2.9-2.2-4.3-3-2.4-1.4-4.8-2.1-7.5-1z"/><path fill="#FFF" d="M428.1 222.3s17.7 1.1 17.4-11.4c0 0-36.2 1-36.4 1 0 0 .3 11.1 19 10.4z"/><path fill="#E06F5C" d="M422.8 206.3c1.1 0 2-1 2-2.1v-.1c0-1.5 1.2-2.8 2.7-2.8h.1c1.5 0 2.8 1.2 2.8 2.7 0 1.1 1 2 2.1 2s2-1 2-2.1c-.1-3.7-3.1-6.7-6.8-6.7h-.2c-3.7.1-6.7 3.1-6.7 6.8v.2c0 1.3.9 2.2 2 2.1zm44.3-.4c-6.2.2-11.1 2.6-11.1 5.5.1 2.9 5.2 5.1 11.4 4.9 6.2-.2 11.1-2.6 11.1-5.5-.1-2.9-5.2-5.1-11.4-4.9zm-78.8 2.1c-6.2.2-11.1 2.6-11.1 5.5.1 2.9 5.2 5.1 11.3 4.9 6.2-.2 11.1-2.6 11.1-5.5-.1-2.9-5.1-5.1-11.3-4.9z"/><path fill="#63230B" d="M381.1 171.7c1.5-1.5 3-2.6 4.7-3.3 1.6-.7 3.3-1.1 5.1-1.1 1.6 0 3.3.3 5 .9 1.1.4 2.3-.2 2.7-1.3.4-1.1-.2-2.3-1.3-2.7-2.1-.7-4.2-1.1-6.3-1.1-2.3 0-4.6.5-6.8 1.4-2.2.9-4.2 2.4-6 4.2-.8.8-.8 2.2 0 3 .8.9 2.1.9 2.9 0zm77.3-5.3c1.5-.8 3.2-1.1 4.9-1.1 2 0 4.1.5 5.8 1.2 1.7.7 3.2 1.7 3.8 2.5.8.9 2.1 1 3 .2s1-2.1.2-3c-1.3-1.5-3.2-2.8-5.4-3.7-2.2-.9-4.8-1.5-7.4-1.5-2.3 0-4.6.4-6.8 1.5-1 .5-1.5 1.8-.9 2.8.5 1.2 1.8 1.7 2.8 1.1zm-64.8 16.4c-2.9.1-5.3 2.7-6.3 6.4 1.8.2 3.3 1.7 3.3 3.6 0 1.9-1.3 3.5-3.2 3.8 1.1 3.6 3.6 6.1 6.5 6.1 3.8-.1 6.8-4.6 6.7-10.1 0-5.5-3.2-9.9-7-9.8zm67.4 18.3c2.9-.1 5.3-2.7 6.3-6.4-1.8-.2-3.3-1.7-3.3-3.6 0-1.9 1.3-3.5 3.2-3.8-1.1-3.6-3.6-6.1-6.5-6.1-3.8.1-6.8 4.6-6.7 10.1 0 5.5 3.2 9.9 7 9.8z"/><path fill="#FFF" d="M390.7 192.8c0-1.9-1.5-3.4-3.3-3.6h-.5c-2.1 0-3.7 1.8-3.7 3.8 0 2.1 1.8 3.7 3.8 3.7.2 0 .3 0 .5-.1 1.8-.3 3.2-1.9 3.2-3.8zm73.2-1.7c0 1.9 1.5 3.4 3.3 3.6h.5c2.1 0 3.7-1.8 3.7-3.9 0-2.1-1.8-3.7-3.9-3.7-.2 0-.3 0-.5.1-1.8.4-3.1 2-3.1 3.9z"/><path fill="#16C172" d="m526.5 309.6-24.1-8.6-5.5-2-9.7-3.5-21.9-7.9c-1.3.4-3.5 2.4-4 3-1 1.3-1.3 3-1.7 4.6-1.2 4.8-1.9 9.6-2.4 14.4 5.4 1.7 8.8 5.5 8.8 12.9 0 3.4-.2 8.7-.3 14.7-.4 16.1-1 37.9.8 47 .4 1.9 1.6 9.6 2.1 16.4 17.2-1.6 25-5.1 25-5.1 0-.4 0-.8.1-1.3.9-20.2-.2-36.8-2.8-50.5l22.4 5.8.8-2.3 8.8-26.3 3.6-11.3z"/><path fill="#DB7A58" d="m595.1 325.4-10.2 7.2-10.9 14-51.2-25.7-8.8 26.3 66 18.6 1.2-2.7c1.6-.9 3.2-2.2 3.4-2.4 5.4-5.6 7.6-10.8 14-24.8 1.9-4.2 1.9-14.3-3.5-10.5z"/><path fill="#006896" d="m449.1 352.5-1.1-16c.1-1.9.2-3.8.1-5.7 0-1.8-.2-3.7-.6-5.5-.9-3.6-3.1-3.2-6.2-2.5-.3.1-.7.2-1 .2-6.8 1.5-13.3 1.5-20.3 1.5-1.5 0-3 .1-4.5.3-3.1.3-6.3.8-9.4.8.4 0 .2 5.6 0 11.4s-.5 11.8-.5 12.7c.3.5.6 1.1.9 1.8 6.5 2.3 12.2 1.7 19.4 1.3 13.5-.4 15.8-.4 23.2-.3z"/></svg>