<svg xmlns="http://www.w3.org/2000/svg" viewBox="0 0 692 540" xml:space="preserve"><ellipse fill="#FCF3B3" cx="350" cy="483.1" rx="296.5" ry="47.6"/><path fill="#FFF" d="M240.2 212.3c-8.7 0-16.9 2.1-24.1 5.9-10.6-26.4-36.4-45.1-66.5-45.1-26.4 0-49.5 14.3-61.9 35.6-8.5-4.9-18.2-7.7-28.7-7.7-31.8 0-57.7 25.8-57.7 57.7H292c-2.8-26-24.9-46.4-51.8-46.4zm412-105.8c-6.5 0-12.6 1.6-18 4.4-7.9-19.7-27.2-33.7-49.8-33.7-19.8 0-37 10.7-46.3 26.7-6.3-3.6-13.6-5.7-21.5-5.7-23.8 0-43.1 19.3-43.1 43.1H691c-2.1-19.5-18.7-34.8-38.8-34.8z"/><path fill="#553C9A" d="M187.3 477.2h5.4c2.9 0 5.7.1 8.6.2 4.2.1 8.3.3 12.5.3 4.7.1 9.4.3 14 .2 1.8 0 3.6-.1 5.4-.2 10.7-.8 21.5-3.9 28.7-13.5 7.6-10.2 7.5-23 8.1-35.2.9-17.7 5.4-36.7-.3-54.1-6.2-18.5-34.6-17.2-49.2-18.2-3.2-.3-6.6-.5-10-.7-15.3-.8-31.8-.3-45.5 6.4-8.6 4.3-15.3 10.8-17.4 21.5-3 14.6-1.7 30.8-2 45.6-.3 12.6-1.8 29.4 7 39.2 1.5 1.7 3.2 3.1 5.1 4.2.3.3.8.4 1.1.6 8.4 4.6 19.6 3.8 28.5 3.7z"/><path fill="#B794F4" d="M167 477.4h5.4c2.9 0 5.7.1 8.6.2 4.2.1 8.3.3 12.5.3 4.7.1 9.4.3 14 .2 1.8 0 3.6-.1 5.4-.2 10.7-.8 21.5-3.9 28.7-13.5 7.6-10.2 7.5-23 8.1-35.2.9-17.7 5.4-36.7-.3-54.1C243 356.7 214.7 358 200 357c-3.2-.3-6.6-.5-10-.7-15.3-.8-31.8-.3-45.5 6.4-8.6 4.3-15.3 10.8-17.4 21.5-3 14.6-1.7 30.8-2 45.6-.3 12.6-1.8 29.4 7 39.2 1.5 1.7 3.2 3.1 5.1 4.2.3.3.8.4 1.1.6 8.4 4.5 19.7 3.8 28.7 3.6z"/><path fill="#E9D8FD" d="M173.6 459.1h3.7c2 0 4 .1 6 .1 2.9.1 5.9.2 8.8.3 3.2.1 6.6.2 9.8.2 1.3 0 2.5-.1 3.7-.2 7.6-.5 15.1-2.7 20.1-9.5 5.3-7.2 5.2-16.1 5.6-24.6.6-12.4 3.8-25.7-.3-37.8-4.3-12.9-24.2-12-34.4-12.8-2.3-.2-4.7-.3-7.1-.4-10.7-.5-22.3-.3-31.8 4.4-6 3-10.7 7.6-12.3 15-2 10.1-1.2 21.5-1.4 31.9-.2 8.9-1.3 20.6 4.9 27.5 1.1 1.2 2.3 2.1 3.6 3 .3.2.5.3.8.4 6.1 3.1 14 2.6 20.3 2.5z"/><path fill="#322659" d="M199.4 414.7c4-3.6 6.3-8.4 5.3-14.7-.9-5.4-5.8-8.9-10.6-10.9-6.3-2.6-14.1-1.4-20.4.4-3-.1-5.9 1.7-5.7 5.5.6 14.6.8 29.3.8 44 0 .4 0 .9.1 1.2.3 2 1.4 3.3 3 4 .3.2.8.4 1.1.5 6 2.4 13.4 1.8 19.5.9 7.2-1 14.2-4.8 15.9-12.3 2.2-9.2-2.2-15.2-9-18.6zm-9.6-14.9c1.2.3 2.1.9 2.6 1.3 1 .9.9.9 1.2 2-.3-1-.2-.3-.1.3-.1 0-.4 1.4-.1.7-.8 1.6-1.3 2-2.7 3.2-2.7 2.3-7 3.3-10.8 4-.1-3.8-.2-7.7-.3-11.4 3.4-.8 6.9-1.1 10.2-.1zm7.3 31.5c-.2.9-.8 1.2-2.5 2-1.7.9-4.2 1.3-6.2 1.4-2.9.3-5.7.4-8.3.1 0-4 0-8.1-.1-12.1.2 0 .3 0 .5-.1 3.1-.5 8.4 0 12.3 1.3 3.7 1.2 5.3 3.5 4.3 7.4z"/><path fill="#FFF" d="M212.3 379.7c8.8 2.6 10.1 9.4 11.8 17.8 1.2 6 3.4 16.9 10.2 12 .6-.4 1.2-.9 1.9-1.6 6-6 3.1-14.8 3.1-22.2 0-4.6.8-8.3-2.1-12.3-4-5.4-16.5-4.9-22.8-4.4-6.8.4-10 3.7-8.3 6.7.8 1.6 2.9 3.1 6.2 4z"/><path fill="#ED6E9F" d="M326.7 480.4h5.4c2.9 0 5.7.1 8.6.2 4.2.1 8.3.3 12.5.3 4.7.1 9.4.3 14 .2 1.8 0 3.6-.1 5.4-.2 10.7-.8 21.5-3.9 28.7-13.5 7.6-10.2 7.5-23 8.1-35.2.9-17.7 5.4-36.7-.3-54.1-6.2-18.5-34.6-17.2-49.2-18.2-3.2-.3-6.6-.5-10-.7-15.3-.8-31.8-.3-45.5 6.4-8.6 4.3-15.3 10.8-17.4 21.5-3 14.6-1.7 30.8-2 45.6-.3 12.6-1.8 29.4 7 39.2 1.5 1.7 3.2 3.1 5.1 4.2.3.3.8.4 1.1.6 8.2 4.6 19.5 3.9 28.5 3.7z"/><path fill="#EF88AE" d="M306.3 480.6h5.4c2.9 0 5.7.1 8.6.2 4.2.1 8.3.3 12.5.3 4.7.1 9.4.3 14 .2 1.8 0 3.6-.1 5.4-.2 10.7-.8 21.5-3.9 28.7-13.5 7.6-10.2 7.5-23 8.1-35.2.9-17.7 5.4-36.7-.3-54.1-6.2-18.5-34.6-17.2-49.2-18.2-3.2-.3-6.6-.5-10-.7-15.3-.8-31.8-.3-45.5 6.4-8.6 4.3-15.3 10.8-17.4 21.5-3 14.6-1.7 30.8-2 45.6-.3 12.6-1.8 29.4 7 39.2 1.5 1.7 3.2 3.1 5.1 4.2.3.3.8.4 1.1.6 8.3 4.6 19.4 3.8 28.5 3.7z"/><path fill="#F4AECE" d="M312.9 462.3h3.7c2 0 4 .1 6 .1 2.9.1 5.9.2 8.8.3 3.2.1 6.6.2 9.8.2 1.3 0 2.5-.1 3.7-.2 7.6-.5 15.1-2.7 20.1-9.5 5.3-7.2 5.2-16.1 5.6-24.6.6-12.4 3.8-25.7-.3-37.8-4.3-12.9-24.2-12-34.4-12.8-2.3-.2-4.7-.3-7.1-.4-10.7-.5-22.3-.3-31.8 4.4-6 3-10.7 7.6-12.3 15-2 10.1-1.2 21.5-1.4 31.9-.2 8.9-1.3 20.6 4.9 27.5 1.1 1.2 2.3 2.1 3.6 3 .3.2.5.3.8.4 6.2 3.1 14 2.6 20.3 2.5z"/><path fill="#EB616E" d="M317.3 443.4c7.8 7 18 6 26.9 2 3.1-1.4 3.8-5.9 2.2-8.5-1.9-3.1-5.4-3.6-8.5-2.2-3.1 1.4-5 1.7-8.2 1.5 1.4.1-2.6-.9-2-.6-.5-.3-1-.5-1.4-.9-.2-.1-.3-.2-.3-.2-.3-.2-.4-.4-.7-.6-.3-.3-.7-.7-1-1.1.3.4-.6-.9-.8-1.1-.3-.6-.7-1.2-.9-1.8-.1-.1-.1-.2-.1-.3-.1-.3-.2-.4-.3-.7-.5-1.4-.9-2.7-1.1-4.2-.1-.4-.1-.6-.2-.8v-.3c-.1-.9-.2-1.9-.2-2.8-.1-3.7.1-4.3 1-7.7.2-.7.4-1.4.7-2 .1-.1.1-.3.1-.3.1-.3.2-.4.3-.7.3-.6.7-1.3 1-1.9.2-.3.3-.6.6-.9.1-.1.2-.2.2-.3l.1-.1c.4-.5.9-1 1.4-1.4.3-.2.4-.4.7-.6.5-.4 1.1-.7 1.7-1 .1-.1.2-.1.3-.2.2-.1.3-.2.6-.2 2.6-.9 4.3-.7 7.7.3 7.7 2.2 11-9.8 3.3-12-8.7-2.5-17.8-.8-24 6-5.8 6.3-8.1 15.2-7.9 23.6.1 8.1 2.8 16.7 8.8 22z"/><path fill="#FFF" d="M351.5 382.9c8.8 2.6 10.1 9.4 11.8 17.8 1.2 6 3.4 16.9 10.2 12 .6-.4 1.2-.9 1.9-1.6 6-6 3.1-14.8 3.1-22.2 0-4.6.8-8.3-2.1-12.3-4-5.4-16.5-4.9-22.8-4.4-6.8.4-10 3.7-8.3 6.7 1 1.6 2.9 3 6.2 4z"/><path fill="#2DAF80" d="M261.4 362.8h5.4c2.9 0 5.7.1 8.6.2 4.2.1 8.3.3 12.5.3 4.7.1 9.4.3 14 .2 1.8 0 3.6-.1 5.4-.2 10.7-.8 21.5-3.9 28.7-13.5 7.6-10.2 7.5-23 8.1-35.2.9-17.7 5.4-36.7-.3-54.1-6.2-18.5-34.6-17.2-49.2-18.2-3.2-.3-6.6-.5-10-.7-15.3-.8-31.8-.3-45.5 6.4-8.6 4.3-15.3 10.8-17.4 21.5-3 14.6-1.7 30.8-2 45.6-.3 12.6-1.8 29.4 7 39.2 1.5 1.7 3.2 3.1 5.1 4.2.3.3.8.4 1.1.6 8.3 4.5 19.6 3.8 28.5 3.7z"/><path fill="#88C380" d="M241 362.9h5.4c2.9 0 5.7.1 8.6.2 4.2.1 8.3.3 12.5.3 4.7.1 9.4.3 14 .2 1.8 0 3.6-.1 5.4-.2 10.7-.8 21.5-3.9 28.7-13.5 7.6-10.2 7.5-23 8.1-35.2.9-17.7 5.4-36.7-.3-54.1-6.2-18.5-34.6-17.2-49.2-18.2-3.2-.3-6.6-.5-10-.7-15.3-.8-31.8-.3-45.5 6.4-8.6 4.3-15.3 10.8-17.4 21.5-3 14.6-1.7 30.8-2 45.6-.3 12.6-1.8 29.4 7 39.2 1.5 1.7 3.2 3.1 5.1 4.2.3.3.8.4 1.1.6 8.3 4.7 19.5 3.9 28.5 3.7z"/><path fill="#A9D2A3" d="M247.6 344.6h3.7c2 0 4 .1 6 .1 2.9.1 5.9.2 8.8.3 3.2.1 6.6.2 9.8.2 1.3 0 2.5-.1 3.7-.2 7.6-.5 15.1-2.7 20.1-9.5 5.3-7.2 5.2-16.1 5.6-24.6.6-12.4 3.8-25.7-.3-37.8-4.3-12.9-24.2-12-34.4-12.8-2.3-.2-4.7-.3-7.1-.4-10.7-.5-22.3-.3-31.8 4.4-6 3-10.7 7.6-12.3 15-2 10.1-1.2 21.5-1.4 31.9-.2 8.9-1.3 20.6 4.9 27.5 1.1 1.2 2.3 2.1 3.6 3 .3.2.5.3.8.4 6.2 3.1 14 2.6 20.3 2.5z"/><path fill="#258C60" d="M267.9 271.4c-1.9-5.4-9.9-3.7-9.5 1.2-.2.3-.3.5-.3.8-3.1 8.6-6 17.4-9.1 26-1.9 5.2-3.7 10.5-5.7 15.7-.3.9-.7 1.9-1.1 2.8-.2.4-.3.9-.5 1.2-.1.3-.2.3-.2.4 0 0 0 .1-.1.2-.3.5-.5 1-.8 1.6-.1.2-.2.3-.3.5-.1.1-.1.2-.2.3.6-.9 1.4-1.6 2.6-2h.8c-4.8.9-6.2 8.3-.8 9.3 5.2.9 6.6-4 8.2-7.8.8-1.8 1.4-3.7 2.1-5.5 6.2 0 12.6.6 18.6-1.3 1.4 4.3 2.8 8.5 4.3 12.7 2 5.8 11.4 3.3 9.3-2.6-6.3-17.6-11-35.8-17.3-53.5zm-11.3 35.1c.1-.3.2-.5.3-.7 2.1-6 4.3-12.2 6.4-18.2 1.9 6 3.7 12 5.6 18-4.1 1.1-8.3 1.1-12.3.9z"/><path fill="#FFF" d="M286.3 265.3c8.8 2.6 10.1 9.4 11.8 17.8 1.2 6 3.4 16.9 10.2 12 .6-.4 1.2-.9 1.9-1.6 6-6 3.1-14.8 3.1-22.2 0-4.6.8-8.3-2.1-12.3-4-5.4-16.5-4.9-22.8-4.4-6.8.4-10 3.7-8.3 6.7.9 1.5 2.8 3 6.2 4z"/><path fill="#F2F3F4" d="M339.3 363.5s-52.7 18.8-22.1 51.1c0 0 23.4 26.7 93-18.4l-11-44.7-59.9 12z"/><path fill="#231F20" d="M379.2 359.8s-50.6 31.6-38 120.2c0 0 86 38 206.3-6.3 0 0-6.3-94.9-36.7-113.9H379.2z"/><path fill="#FFF" d="M512.4 390.6c-8.8-13.9-40.9-18.5-59.2-6.9-18.3 11.6-26 32.3-17.2 46.1 8.8 13.9 30.8 15.7 49.1 4.1s36.1-29.5 27.3-43.3z"/><ellipse fill="#231F20" cx="570.3" cy="229.4" rx="41.6" ry="43.7"/><path fill="#231F20" d="M367.8 181.1c3.9 23.8 25.4 40.1 48.1 36.4 22.7-3.7 38-26 34.1-49.8-3.9-23.8-25.4-40.1-48.1-36.4-22.7 3.7-37.9 26-34.1 49.8z"/><path fill="#FFF" d="M495.6 160.5s-146.8-51.9-178.4 101.2c-31.6 153.1 237.9 163.2 261.9 46.8 24.1-116.4-83.5-148-83.5-148zM304.4 462.4c18.4 20.8 44.8 27.5 58.9 15 14.2-12.5 10.7-39.5-7.7-60.3-18.4-20.8-44.8-27.5-58.9-15-14.1 12.5-10.7 39.5 7.7 60.3zM445.3 489c3.2 19.7 26.2 27.8 56.9 22.9 30.7-4.9 54.4-24.5 51.2-44.1-3.2-19.7-31.6-25.7-62.3-20.7-30.7 4.9-49 22.2-45.8 41.9z"/><path d="M434.2 314.9c0 22.4 24.3 37.3 44.2 37.3 20 0 34.9-12.7 34.9-35.1 0-22.4-26.7-47.2-46.7-47.2-19.8 0-32.4 22.6-32.4 45zm-41.8-28.2c1.8 17.5-15.9 31.1-31.4 32.7-15.6 1.6-28.3-7-30.1-24.5-1.8-17.5 16.9-39 32.5-40.6 15.5-1.6 27.1 15 29 32.4zm-2.9 45.5c-.7 4.5 3.1 8.9 8.6 9.8 5.5.9 10.6-2 11.3-6.5.7-4.5-3.1-8.9-8.6-9.8-5.5-.9-10.6 2-11.3 6.5z" fill="#231F20"/><path fill="none" stroke="#231F20" stroke-width="3.796" stroke-linecap="round" stroke-linejoin="round" stroke-miterlimit="10" d="M413.4 353.4s-22.8 21.5-31.6-8.9"/><path fill="#E6E7E8" d="M373.5 288.3c0 3.4-2.7 6.1-6.1 6.1-3.4 0-6.1-2.7-6.1-6.1 0-3.4 2.7-6.1 6.1-6.1 3.3 0 6.1 2.7 6.1 6.1zm91.1 18.9c0 3.4-2.7 6.1-6.1 6.1-3.4 0-6.1-2.7-6.1-6.1 0-3.4 2.7-6.1 6.1-6.1 3.3.1 6.1 2.8 6.1 6.1z"/><path fill="#553C9A" d="m395.9 129.5-5.8 35.1s45 47.5 111.7-1.5l-10.6-39.9-95.3 6.3z"/><path fill="#E9D8FD" d="M382.6 152.2c-1.6-8.3-.4-28.9-.4-29.1.1-1.2-.9-2.3-2.1-2.4-1.2-.1-2.3.9-2.4 2.1-.1.9-1.2 21.3.5 30.3.2 1 1.1 1.8 2.1 1.8h.5c1.3-.3 2.1-1.5 1.8-2.7z"/><path fill="#322659" d="m353.8 109.7.5 5.9 86.3 37.4 88.8-39.6-1-6.3-29.1-3.4-70.6-.2z"/><path fill="#B794F4" d="M388.8 156.5c.4 4.7-3.1 8.9-7.8 9.4-4.8.4-8.9-3.1-9.4-7.8-.4-4.7 3.1-8.9 7.8-9.4 4.8-.4 9 3.1 9.4 7.8zm-34.7-46.4 81.8-33.9 92.9 30.8-87.6 38.4z"/></svg>