<svg xmlns="http://www.w3.org/2000/svg" xmlns:xlink="http://www.w3.org/1999/xlink" viewBox="0 0 800.46 432.75">
    <defs>
        <clipPath id="a">
            <circle cx="360.49" cy="160.53" r="20.25" transform="translate(-19.87 265.64) rotate(-39.45)" fill="none" />
        </clipPath>
        <clipPath id="b">
            <circle cx="437.73" cy="160.53" r="20.25" transform="translate(2.49 327.7) rotate(-41.15)" fill="none" />
        </clipPath>
        <clipPath id="c">
            <path
                d="M390.31,242.87V348.52c-35.88-22.38-87.56-22.38-87.56-22.38V220.58C346,214.42,390.31,242.87,390.31,242.87Zm14.09,0V348.52C440.29,326.14,492,326.14,492,326.14V220.58C448.68,214.42,404.4,242.87,404.4,242.87Z"
                fill="none" />
        </clipPath>
    </defs>
    <title>Asset 4</title>
    <g style="isolation:isolate">
        <ellipse cx="403.84" cy="379.84" rx="350.76" ry="52.91" fill="#fde7d7" />
        <path
            d="M299.7,49.28a51.84,51.84,0,0,0-24.1,5.91,71.65,71.65,0,0,0-128.48-9.42,57.65,57.65,0,0,0-86.36,50H351.48A52.08,52.08,0,0,0,299.7,49.28Z"
            fill="#fff" />
        <path
            d="M761.72,263.5a38.8,38.8,0,0,0-18,4.42,53.59,53.59,0,0,0-96.1-7.05A43.14,43.14,0,0,0,583,298.28H800.46A39,39,0,0,0,761.72,263.5Z"
            fill="#fff" />
        <path
            d="M147.65,219.14a45.36,45.36,0,0,0-37,19.15,36.53,36.53,0,0,0-58.47,10.37A33,33,0,0,0,0,275.54H191.7a45.41,45.41,0,0,0-44-56.4Z"
            fill="#fff" />
        <path
            d="M625.58,24.56a26.82,26.82,0,0,0-16.65,5.77A39.23,39.23,0,0,0,532,45.54H651.87A27,27,0,0,0,625.58,24.56Z"
            fill="#fff" />
        <path
            d="M402,112.54c125.13,0,227.4,117.71,234.61,266.16h31.94C661.33,209,544.76,74.16,402,74.16S142.7,209,135.46,378.7h31.95C174.61,230.25,276.89,112.54,402,112.54Z"
            fill="#ec5723" />
        <path
            d="M402,112.54c-125.13,0-227.41,117.71-234.61,266.16h32C206.51,251.46,294.5,150.92,402,150.92S597.53,251.46,604.68,378.7h32C629.42,230.25,527.15,112.54,402,112.54Z"
            fill="#f5a87c" />
        <path
            d="M402,150.92c-107.52,0-195.51,100.54-202.66,227.78h32c7.09-106,80.8-189.4,170.7-189.4s163.61,83.38,170.69,189.4h32C597.53,251.46,509.53,150.92,402,150.92Z"
            fill="#ffcb47" />
        <path
            d="M402,189.3c-89.9,0-163.61,83.38-170.7,189.4h32c7-84.79,66.41-151,138.69-151s131.7,66.23,138.69,151h32C565.63,272.68,491.92,189.3,402,189.3Z"
            fill="#fff1c6" />
        <rect x="317.82" y="313.66" width="159.08" height="41.34" fill="#ffb620" />
        <path
            d="M504.22,242h25.33L523.9,171.2c.52-66.53-56.19-120.91-126.67-121.46s-128,52.93-128.56,119.46l-3.19,72.64h9.44l5.48-18.29,2,18.3,214.51.09,2-18Z"
            fill="#373131" />
        <path d="M307.32,239.29s-51.25,25.35-44.14,54.17c6.32,25.58,44.14,16.73,44.14,16.73Z" fill="#16c172" />
        <path
            d="M277.05,281.36a47,47,0,0,1,19.28-1.54,48.14,48.14,0,0,1,18.39,6,.42.42,0,0,1-.36.75,74.56,74.56,0,0,0-18.28-4.67,77.4,77.4,0,0,0-18.87.16.38.38,0,0,1-.43-.33A.37.37,0,0,1,277.05,281.36Z"
            fill="#373131" />
        <path
            d="M287.85,274.28a21.76,21.76,0,0,1,4.38,1,31.14,31.14,0,0,1,4.14,1.72,29,29,0,0,1,7.32,5.14.41.41,0,0,1,0,.59.43.43,0,0,1-.48.09c-2.67-1.27-5.2-2.64-7.79-3.91L291.53,277c-1.3-.63-2.61-1.27-3.91-2a.39.39,0,0,1,.23-.73Z"
            fill="#373131" />
        <path d="M487.39,239.29s51.25,25.35,44.14,54.17c-6.31,25.58-44.14,16.73-44.14,16.73Z" fill="#16c172" />
        <path
            d="M517.51,282.1a77.4,77.4,0,0,0-18.87-.16,74.52,74.52,0,0,0-18.29,4.67.41.41,0,0,1-.53-.24.41.41,0,0,1,.17-.51,48.25,48.25,0,0,1,18.39-6,47,47,0,0,1,19.29,1.54.38.38,0,0,1,.25.47A.38.38,0,0,1,517.51,282.1Z"
            fill="#373131" />
        <path
            d="M507.09,275c-1.3.72-2.6,1.36-3.91,2l-3.88,1.92c-2.6,1.27-5.12,2.64-7.8,3.91a.42.42,0,0,1-.48-.68,29,29,0,0,1,7.32-5.14,30.73,30.73,0,0,1,4.15-1.72,21.67,21.67,0,0,1,4.37-1,.39.39,0,0,1,.43.34A.39.39,0,0,1,507.09,275Z"
            fill="#373131" />
        <path d="M378.59,257V212.65H421.3V257s-4.3,5.09-21.35,5.21C385.67,262.26,378.59,257,378.59,257Z"
            fill="#fcc9b3" />
        <path d="M378.59,257V212.65H421.3V257s-4.3,5.09-21.35,5.21C385.67,262.26,378.59,257,378.59,257Z" fill="#fcc9b3"
            opacity="0.37" style="mix-blend-mode:multiply" />
        <path
            d="M498.77,167.25c-.44,56-46.08,86.5-102.09,86.06S295.5,221.67,295.94,165.66a101.42,101.42,0,1,1,202.83,1.59Z"
            fill="#fcc9b3" />
        <path
            d="M511.54,132c3.66,9.86.24,20.22-7.64,23.15s-17.24-2.7-20.9-12.56-4.25-41.06,3.63-44S507.88,122.1,511.54,132Z"
            fill="#373131" />
        <path
            d="M284.12,132c-3.66,9.86-.24,20.22,7.64,23.15s17.24-2.7,20.9-12.56,4.25-41.06-3.63-44S287.78,122.1,284.12,132Z"
            fill="#373131" />
        <circle cx="360.49" cy="160.53" r="20.25" transform="translate(-19.87 265.64) rotate(-39.45)" fill="#fff" />
        <g clip-path="url(#a)">
            <circle cx="361.27" cy="167.21" r="18.11" transform="translate(16.44 366.13) rotate(-54.82)"
                fill="#373131" />
        </g>
        <path
            d="M394.26,166.64a19.71,19.71,0,0,1,5.68-.7,12.22,12.22,0,0,1,3,.39,5.07,5.07,0,0,1,2.91,1.79,5.22,5.22,0,0,1,.75,3.31,14.5,14.5,0,0,1-.53,2.92,25,25,0,0,1-2.21,5.25.5.5,0,0,1-.91-.39v0a45.17,45.17,0,0,0,1.36-5.26,16.54,16.54,0,0,0,.28-2.57,3.59,3.59,0,0,0-.45-2,3.38,3.38,0,0,0-1.77-1,15,15,0,0,0-2.52-.45c-1.75-.2-3.59-.24-5.41-.3h0a.5.5,0,0,1-.12-1Z"
            fill="#373131" />
        <path d="M357.44,197.49a17.5,17.5,0,1,1-17.69-17.3A17.49,17.49,0,0,1,357.44,197.49Z" fill="#fcc9b3"
            opacity="0.37" style="mix-blend-mode:multiply" />
        <path
            d="M362.48,133.56a32.19,32.19,0,0,0-7.13.79,30,30,0,0,0-6.72,2.29,30.68,30.68,0,0,0-6,3.74c-1,.69-1.82,1.55-2.74,2.33s-1.67,1.74-2.57,2.58l0,0a.4.4,0,0,1-.58,0,.41.41,0,0,1-.05-.5c.34-.53.69-1.05,1.06-1.56a16.51,16.51,0,0,1,1.12-1.52A26.05,26.05,0,0,1,341.4,139a24.73,24.73,0,0,1,6.32-4.26,24.11,24.11,0,0,1,7.31-2.19,20.37,20.37,0,0,1,7.58.29.37.37,0,0,1,.28.45.39.39,0,0,1-.38.3Z"
            fill="#373131" />
        <circle cx="437.73" cy="160.53" r="20.25" transform="translate(2.49 327.7) rotate(-41.15)" fill="#fff" />
        <g clip-path="url(#b)">
            <circle cx="439.19" cy="165.43" r="18.11" transform="translate(-20.45 70.62) rotate(-8.98)"
                fill="#373131" />
        </g>
        <path d="M438,196.17a17.5,17.5,0,1,0,18.94-15.92A17.5,17.5,0,0,0,438,196.17Z" fill="#fcc9b3" opacity="0.37"
            style="mix-blend-mode:multiply" />
        <path
            d="M431.6,133a20.52,20.52,0,0,1,7.55-.76,24.15,24.15,0,0,1,7.43,1.72,26.84,26.84,0,0,1,9.36,6.43,15.24,15.24,0,0,1,1.21,1.45c.4.49.78,1,1.15,1.48a.41.41,0,0,1-.09.58.39.39,0,0,1-.5,0l0,0c-.95-.78-1.78-1.67-2.73-2.41s-1.86-1.53-2.88-2.16a31.56,31.56,0,0,0-13.12-5.21,32.34,32.34,0,0,0-7.16-.34h0a.4.4,0,0,1-.41-.36A.39.39,0,0,1,431.6,133Z"
            fill="#373131" />
        <path
            d="M388.73,188.69a14,14,0,0,0,5.23,4.87,12.88,12.88,0,0,0,6.75,1.58,12.75,12.75,0,0,0,6.53-2.32,13.74,13.74,0,0,0,4.62-5.44.41.41,0,0,1,.78.27,12.35,12.35,0,0,1-4.29,6.64,12.84,12.84,0,0,1-15.33.87,12.27,12.27,0,0,1-5-6.14.39.39,0,0,1,.24-.49A.38.38,0,0,1,388.73,188.69Z"
            fill="#373131" />
        <path
            d="M291,162.48c-2.47-74.08,80-128.55,147.4-97.4,38.17,16.55,66.59,56.59,64.08,98.78l-3.8,0c-1.4-52.47-49.3-97.91-101.3-97.89-38.73-.2-75.91,24.34-92.88,58.93a98.4,98.4,0,0,0-10,37.64l-3.5,0Z"
            fill="#ffb620" />
        <circle cx="299.07" cy="175.43" r="24.18" transform="translate(-45.36 215.2) rotate(-36.98)" fill="#fcc9b3" />
        <path
            d="M282.08,178.75a16.5,16.5,0,0,1,1.47-7.52,17,17,0,0,1,4.79-6.13,17.13,17.13,0,0,1,26.55,6.83,17.16,17.16,0,0,1,1.26,7.68,16.63,16.63,0,0,1-2.32,7.32.42.42,0,0,1-.57.13.41.41,0,0,1-.16-.53A16.12,16.12,0,0,0,309,167.12a15.82,15.82,0,0,0-13.12-3.37,16.24,16.24,0,0,0-6.38,2.8,15.28,15.28,0,0,0-4.62,5.32,16.77,16.77,0,0,0-2,6.89.39.39,0,0,1-.41.36A.4.4,0,0,1,282.08,178.75Z"
            fill="#373131" />
        <path
            d="M298.56,182.51a8.64,8.64,0,0,1,2.49-4.95,10.85,10.85,0,0,1,2.31-1.72,10.6,10.6,0,0,1,2.74-1,9.78,9.78,0,0,1,5.66.62,8.87,8.87,0,0,1,4.19,3.63.41.41,0,0,1-.14.57.42.42,0,0,1-.49,0h0a11.05,11.05,0,0,0-4.18-2.43,9.7,9.7,0,0,0-4.63-.24,9.85,9.85,0,0,0-4.2,1.94,11.2,11.2,0,0,0-3,3.79h0a.37.37,0,0,1-.51.17A.38.38,0,0,1,298.56,182.51Z"
            fill="#373131" />
        <circle cx="497.69" cy="175.42" r="24.18" transform="translate(-15.26 51.51) rotate(-5.84)" fill="#fcc9b3" />
        <path
            d="M513.63,180a16.78,16.78,0,0,0-1.48-7,15.5,15.5,0,0,0-4.21-5.65,16.39,16.39,0,0,0-6.16-3.28,15.9,15.9,0,0,0-13.33,2.38,16.59,16.59,0,0,0-4.66,5.2,16.4,16.4,0,0,0-.91,13.85.41.41,0,0,1-.24.53.42.42,0,0,1-.52-.19,16.43,16.43,0,0,1-1.77-7.47,17.08,17.08,0,0,1,14.12-16.7,17.49,17.49,0,0,1,7.88.4,17.1,17.1,0,0,1,11.14,10.38,16.68,16.68,0,0,1,.9,7.62.38.38,0,0,1-.42.33A.39.39,0,0,1,513.63,180Z"
            fill="#373131" />
        <path
            d="M496.93,182.69a11,11,0,0,0-2.71-4,9.73,9.73,0,0,0-4.05-2.25,9.54,9.54,0,0,0-4.63-.11,11,11,0,0,0-4.35,2.11h0a.43.43,0,0,1-.59-.08.44.44,0,0,1,0-.5,8.82,8.82,0,0,1,4.45-3.3,9.71,9.71,0,0,1,5.7-.19,10.59,10.59,0,0,1,2.65,1.15,10.36,10.36,0,0,1,2.18,1.88,8.7,8.7,0,0,1,2.12,5.12.38.38,0,0,1-.37.41.38.38,0,0,1-.37-.24Z"
            fill="#373131" />
        <polygon points="405.92 343.16 414.54 388.83 408.96 389.6 400.6 344.64 405.92 343.16" fill="#fff" />
        <polygon points="391.56 391.98 383.64 349.39 389.96 347.63 398.04 391.09 391.56 391.98" fill="#5d63ae" />
        <polygon points="380.21 393.54 372.8 352.43 383.64 349.39 391.56 391.98 380.21 393.54" fill="#fff" />
        <polygon points="400.6 344.64 408.96 389.6 402.48 390.48 394.29 346.41 400.6 344.64" fill="#5d63ae" />
        <polygon points="402.48 390.48 398.04 391.09 389.96 347.63 394.29 346.41 402.48 390.48" fill="#fff" />
        <path
            d="M381.25,391.55l2.4-42.16c-5.47-5.56-16.66-7.12-16.66-7.12l-1.77,9.67-4.55,24.88-4.55,24.89a25.31,25.31,0,0,0,25.13-10.16"
            fill="#ec5723" />
        <rect x="328.81" y="368.95" width="60.42" height="5.16" transform="translate(-71.06 657.81) rotate(-79.63)"
            fill="#fff" />
        <path
            d="M381.39,393.67l-2.51,7.68a4.59,4.59,0,0,1-.66,1.21,4.48,4.48,0,0,1-7.13-5.43,4.39,4.39,0,0,1,1-1l6.73-4.45a1.68,1.68,0,0,1,2,.07A1.7,1.7,0,0,1,381.39,393.67Zm-4.21,8.1a3,3,0,0,0,.46-.84l2.51-7.66a.4.4,0,0,0-.6-.46l-6.72,4.43a3.47,3.47,0,0,0-.7.68,3.18,3.18,0,1,0,5.05,3.85Z"
            fill="#fff" />
        <path
            d="M379.2,393.09l-7.61-2.72a4.57,4.57,0,0,1-1.19-.69,4.48,4.48,0,0,1-.67-6.3,4.49,4.49,0,0,1,6.3-.67,7.24,7.24,0,0,1,.93,1l4.26,6.85a1.71,1.71,0,0,1-1.59,2.6A2.23,2.23,0,0,1,379.2,393.09Zm-8.46-8.89a3.17,3.17,0,0,0-.69,2.33,3.22,3.22,0,0,0,1.17,2.14h0a3.15,3.15,0,0,0,.83.48l7.59,2.71a.38.38,0,0,0,.44-.12.37.37,0,0,0,0-.46l-4.22-6.8a7.31,7.31,0,0,0-.68-.76,3.18,3.18,0,0,0-4.47.48Z"
            fill="#fff" />
        <path
            d="M372.33,385.65a.64.64,0,0,1-.44-.73.29.29,0,0,1,0-.09.65.65,0,0,1,.82-.42,13,13,0,0,1,8.56,8.16q-.36.89-.78,1.74A11.84,11.84,0,0,0,372.33,385.65Z"
            fill="#fff" />
        <path d="M375,358.15a6,6,0,1,0,4.82,7A6,6,0,0,0,375,358.15Z" fill="#fff" />
        <path
            d="M378,364.29,376.3,363a.42.42,0,0,1-.18-.36l.08-2.08a.43.43,0,0,0-.68-.36l-1.7,1.2a.42.42,0,0,1-.39.06l-2-.72a.42.42,0,0,0-.55.53l.62,2a.45.45,0,0,1-.07.39l-1.29,1.64a.43.43,0,0,0,.33.69l2.09,0a.42.42,0,0,1,.35.19l1.16,1.73a.43.43,0,0,0,.76-.11l.67-2a.43.43,0,0,1,.29-.28l2-.57A.43.43,0,0,0,378,364.29Z"
            fill="#ff573c" />
        <path
            d="M367.62,389.94a.65.65,0,0,0-.82.42s0,.06,0,.09a.65.65,0,0,0,.44.73,11.68,11.68,0,0,1,7.47,6.68c.37-.24.72-.5,1.08-.76A12.94,12.94,0,0,0,367.62,389.94Z"
            fill="#fff" />
        <polygon points="405.92 343.16 414.54 388.83 425.23 386.8 410.04 342.11 405.92 343.16" fill="#fcc9b3" />
        <path
            d="M429.39,338.7,409,342.82l13,47.39,48.8-10.54c35.1-8.9,28.51-34.22,28.51-34.22C492.15,313,429.39,338.7,429.39,338.7Z"
            fill="#ffb620" />
        <path d="M309.79,216.08V321.64s51.68,0,87.57,22.38L394.1,242.87S353.08,209.92,309.79,216.08Z" fill="#fff" />
        <path d="M314.44,211.87l4.87,109.77s42.16,0,78.05,22.38V242.87S357.73,205.7,314.44,211.87Z" fill="#fff" />
        <path d="M302.75,220.58V326.14s51.68,0,87.56,22.38V242.87S346,214.42,302.75,220.58Z" fill="#ed64a6" />
        <path d="M484.92,216.08V321.64s-51.68,0-87.56,22.38l3.25-101.15S441.64,209.92,484.92,216.08Z" fill="#fff" />
        <path d="M480.27,211.87l-4.86,109.77s-42.17,0-78.05,22.38V242.87S437,205.7,480.27,211.87Z" fill="#fff" />
        <path d="M492,220.58V326.14s-51.67,0-87.56,22.38V242.87S448.68,214.42,492,220.58Z" fill="#ed64a6" />
        <rect x="390.31" y="244.37" width="15.01" height="105.65" fill="#fbb6ce" />
        <g clip-path="url(#c)">
            <circle cx="453.52" cy="224.02" r="19.34" transform="translate(165.57 639.9) rotate(-81.59)"
                fill="#702459" />
            <circle cx="423.53" cy="275.48" r="19.34" fill="#702459" />
            <circle cx="484.69" cy="268.49" r="19.34" fill="#702459" />
            <circle cx="453.52" cy="321.29" r="19.34" fill="#702459" />
            <circle cx="396.41" cy="317.2" r="19.34" transform="translate(24.22 662.5) rotate(-81.52)" fill="#702459" />
            <circle cx="502.65" cy="317.2" r="19.34" transform="translate(100.35 754.72) rotate(-79.66)"
                fill="#702459" />
            <circle cx="368.73" cy="268.49" r="19.34" fill="#702459" />
            <circle cx="322.45" cy="228.51" r="19.34" fill="#702459" />
            <circle cx="317.82" cy="280.46" r="19.34" fill="#702459" />
            <circle cx="342.59" cy="331.01" r="19.34" transform="translate(-112.83 191.26) rotate(-26.96)"
                fill="#702459" />
            <circle cx="295.83" cy="327.35" r="19.34" fill="#702459" />
        </g>
        <path
            d="M326.7,306.12a3.58,3.58,0,0,0-3.38-3.79,81.79,81.79,0,0,1-21.11-4.53c0,2.57.19,5.12.34,7.69a85.74,85.74,0,0,0,20.37,4A3.59,3.59,0,0,0,326.7,306.12Z"
            fill="#fcc9b3" />
        <path
            d="M299.12,300.11a3.67,3.67,0,0,0,1.05.39c.58.11,14.2,2.71,27.53.69a3.6,3.6,0,0,0-1.08-7.11c-12.07,1.83-24.95-.61-25.08-.63a3.59,3.59,0,0,0-2.42,6.66Z"
            fill="#fcc9b3" />
        <path
            d="M300.51,297.3a3.61,3.61,0,0,0,2.15.55,76.8,76.8,0,0,0,25.35-6.7,3.59,3.59,0,1,0-3.09-6.49,70.32,70.32,0,0,1-22.71,6,3.6,3.6,0,0,0-1.7,6.62Z"
            fill="#fcc9b3" />
        <path
            d="M322.54,279a3.59,3.59,0,0,0-5-.79,76.89,76.89,0,0,1-15.42,8.36c.9,1.76,1.73,3.55,2.46,5.4a9.24,9.24,0,0,1,.38,1.2,83.67,83.67,0,0,0,16.8-9.15A3.6,3.6,0,0,0,322.54,279Z"
            fill="#fcc9b3" />
        <path
            d="M303.07,292.09a3.48,3.48,0,0,0,2.3.4,3.59,3.59,0,0,0,3-4.05c0-.22-.3-3.2,2.16-7.62a3.6,3.6,0,0,0-1.4-4.89h0a3.59,3.59,0,0,0-4.88,1.4c-3.72,6.7-3.07,11.65-3,12.19A3.57,3.57,0,0,0,303.07,292.09Z"
            fill="#fcc9b3" />
        <path
            d="M296.53,299.22c1.73,6.46,7.79,10.46,13.54,8.93s9-8,7.29-14.49-7.79-10.46-13.54-8.92S294.81,292.76,296.53,299.22Z"
            fill="#fcc9b3" />
        <path
            d="M468,306.12a3.59,3.59,0,0,1,3.39-3.79,81.79,81.79,0,0,0,21.1-4.53c0,2.57-.18,5.12-.34,7.69a85.64,85.64,0,0,1-20.36,4A3.6,3.6,0,0,1,468,306.12Z"
            fill="#fcc9b3" />
        <path
            d="M495.6,300.11a3.73,3.73,0,0,1-1.06.39c-.57.11-14.19,2.71-27.52.69a3.6,3.6,0,0,1,1.07-7.11c12.07,1.83,25-.61,25.08-.63a3.59,3.59,0,0,1,2.43,6.66Z"
            fill="#fcc9b3" />
        <path
            d="M494.2,297.3a3.59,3.59,0,0,1-2.15.55,76.8,76.8,0,0,1-25.35-6.7,3.59,3.59,0,0,1,3.09-6.49,70.38,70.38,0,0,0,22.71,6,3.59,3.59,0,0,1,1.7,6.62Z"
            fill="#fcc9b3" />
        <path
            d="M472.18,279a3.59,3.59,0,0,1,5-.79,76.57,76.57,0,0,0,15.41,8.36c-.9,1.76-1.72,3.55-2.45,5.4a9.31,9.31,0,0,0-.39,1.2,83.94,83.94,0,0,1-16.8-9.15A3.6,3.6,0,0,1,472.18,279Z"
            fill="#fcc9b3" />
        <path
            d="M491.65,292.09a3.51,3.51,0,0,1-2.31.4,3.6,3.6,0,0,1-3-4.05c0-.22.3-3.2-2.16-7.62a3.6,3.6,0,0,1,1.4-4.89h0a3.58,3.58,0,0,1,4.88,1.4c3.73,6.7,3.07,11.65,3,12.19A3.62,3.62,0,0,1,491.65,292.09Z"
            fill="#fcc9b3" />
        <path
            d="M498.18,299.22c-1.72,6.46-7.78,10.46-13.53,8.93s-9-8-7.29-14.49,7.78-10.46,13.53-8.92S499.91,292.76,498.18,299.22Z"
            fill="#fcc9b3" />
        <polygon points="387.26 344.37 377.68 389.86 383.24 390.74 392.54 345.97 387.26 344.37" fill="#fff" />
        <polygon points="400.58 393.49 409.4 351.08 403.12 349.18 394.13 392.47 400.58 393.49" fill="#16c172" />
        <polygon points="411.9 395.29 420.17 354.34 409.4 351.08 400.58 393.49 411.9 395.29" fill="#fff" />
        <polygon points="392.54 345.97 383.24 390.74 389.7 391.76 398.82 347.88 392.54 345.97" fill="#16c172" />
        <polygon points="389.7 391.76 394.13 392.47 403.12 349.18 398.82 347.88 389.7 391.76" fill="#fff" />
        <path
            d="M410.91,393.27l-1.51-42.19c5.58-5.45,16.8-6.77,16.8-6.77l1.56,9.7,4,25,4,25a25.29,25.29,0,0,1-24.91-10.69"
            fill="#ec5723" />
        <rect x="403.34" y="371.14" width="60.42" height="5.16" transform="translate(133.65 861.27) rotate(-99.16)"
            fill="#fff" />
        <path
            d="M411.35,393.52a1.68,1.68,0,0,1,2,0l6.64,4.58a4.6,4.6,0,0,1,1,1,4.48,4.48,0,1,1-7.24,5.28,4.71,4.71,0,0,1-.63-1.22l-2.35-7.74A1.7,1.7,0,0,1,411.35,393.52Zm7.85,10.75a3.18,3.18,0,0,0,.69-4.43,3,3,0,0,0-.69-.69l-6.62-4.58a.39.39,0,0,0-.46,0,.38.38,0,0,0-.15.43l2.35,7.72a3.28,3.28,0,0,0,.44.85A3.18,3.18,0,0,0,419.2,404.27Z"
            fill="#fff" />
        <path
            d="M412.49,395a1.7,1.7,0,0,1-1.53-2.63l4.4-6.76a6.62,6.62,0,0,1,.95-1,4.48,4.48,0,0,1,7.19,4.11,4.44,4.44,0,0,1-1.71,3,4.53,4.53,0,0,1-1.2.66l-7.67,2.56A1.65,1.65,0,0,1,412.49,395Zm6.34-10a3.25,3.25,0,0,0-1.72.66,5.53,5.53,0,0,0-.7.74L412.05,393a.38.38,0,0,0,0,.46.38.38,0,0,0,.44.13l7.65-2.55a3.11,3.11,0,0,0,.83-.47h0a3.08,3.08,0,0,0,1.2-2.1,3.13,3.13,0,0,0-.63-2.35A3.19,3.19,0,0,0,418.83,384.92Z"
            fill="#fff" />
        <path
            d="M420,387.57a.66.66,0,0,0,.46-.73s0,0,0-.08a.66.66,0,0,0-.82-.44,13,13,0,0,0-8.72,8c.22.6.47,1.19.73,1.76A11.83,11.83,0,0,1,420,387.57Z"
            fill="#fff" />
        <path d="M417.85,360a6,6,0,1,1-5,6.88A6,6,0,0,1,417.85,360Z" fill="#fff" />
        <path
            d="M414.76,366.09l1.7-1.21a.44.44,0,0,0,.18-.36l0-2.08a.43.43,0,0,1,.69-.35l1.67,1.24a.41.41,0,0,0,.4.06l2-.67a.42.42,0,0,1,.54.54l-.66,2a.42.42,0,0,0,.06.39l1.25,1.67a.42.42,0,0,1-.34.68l-2.09,0a.44.44,0,0,0-.35.18l-1.2,1.71a.43.43,0,0,1-.76-.12l-.62-2a.45.45,0,0,0-.29-.28l-2-.61A.43.43,0,0,1,414.76,366.09Z"
            fill="#ec5723" />
        <path
            d="M424.56,392a.66.66,0,0,1,.82.43s0,.06,0,.09a.67.67,0,0,1-.46.73,11.71,11.71,0,0,0-7.61,6.52c-.36-.25-.71-.52-1.06-.79A12.91,12.91,0,0,1,424.56,392Z"
            fill="#fff" />
        <polygon points="387.26 344.37 377.68 389.86 367.03 387.61 383.16 343.24 387.26 344.37" fill="#fcc9b3" />
        <path
            d="M363.92,337.93l20.33,4.55-14,47.1L321.7,378c-34.91-9.64-27.79-34.82-27.79-34.82C301.71,310.92,363.92,337.93,363.92,337.93Z"
            fill="#ffb620" />
        <path
            d="M301.26,126.15h91.58l4.49-19.54,5.58,19.54h40.44V111.8l9.53,14.35h41.5S479.74,65,396.66,65,301.26,126.15,301.26,126.15Z"
            fill="#373131" />
        <path d="M451.24,77.47s-13.87-19.29-.78-40.89C450.46,36.58,464.35,52.89,451.24,77.47Z" fill="#ffb620" />
        <path d="M448.8,76.11s8.85-22.06,34.11-22.59C482.91,53.52,476.59,74,448.8,76.11Z" fill="#ffb620" />
        <path d="M465.54,74.41c-1.52,3.47-8,4-14.53,1.12s-10.55-8-9-11.43,8-4,14.53-1.12S467.05,70.94,465.54,74.41Z"
            fill="#ffb620" />
    </g>
</svg>