<?xml version="1.0" encoding="utf-8"?>
<!-- Generator: Adobe Illustrator 22.0.1, SVG Export Plug-In . SVG Version: 6.00 Build 0)  -->
<svg version="1.1" xmlns="http://www.w3.org/2000/svg" xmlns:xlink="http://www.w3.org/1999/xlink" x="0px" y="0px"
	 viewBox="0 0 692 540" enable-background="new 0 0 692 540" xml:space="preserve">
<ellipse fill="#FDE7D7" cx="350" cy="483.1" rx="296.5" ry="47.6"/>
<g>
	<g>
		<path fill="#FFFFFF" d="M240.2,212.3c-8.7,0-16.9,2.1-24.1,5.9c-10.6-26.4-36.4-45.1-66.5-45.1c-26.4,0-49.5,14.3-61.9,35.6
			c-8.5-4.9-18.2-7.7-28.7-7.7c-31.8,0-57.7,25.8-57.7,57.7H292C289.2,232.7,267.1,212.3,240.2,212.3z"/>
	</g>
	<g>
		<path fill="#FFFFFF" d="M652.2,106.5c-6.5,0-12.6,1.6-18,4.4c-7.9-19.7-27.2-33.7-49.8-33.7c-19.8,0-37,10.7-46.3,26.7
			c-6.3-3.6-13.6-5.7-21.5-5.7c-23.8,0-43.1,19.3-43.1,43.1H691C688.9,121.8,672.3,106.5,652.2,106.5z"/>
	</g>
</g>
<g>
	<g>
		<path fill="#66599C" d="M193.2,477.5c2.1,0,4.2,0,6.3,0c3.4,0,6.7,0.1,10.1,0.2c4.9,0.1,9.8,0.3,14.7,0.4c5.5,0.1,11,0.3,16.4,0.2
			c2.1,0,4.2-0.1,6.3-0.2c12.6-0.9,25.3-4.6,33.7-15.9c8.9-12,8.8-27,9.5-41.3c1-20.8,6.4-43.1-0.4-63.5
			c-7.3-21.7-40.6-20.2-57.8-21.4c-3.8-0.3-7.8-0.6-11.8-0.8c-18-0.9-37.4-0.4-53.4,7.5c-10.1,5-18,12.7-20.5,25.2
			c-3.5,17.1-2,36.2-2.4,53.6c-0.3,14.8-2.1,34.5,8.2,46.1c1.8,2,3.8,3.6,6,4.9c0.4,0.3,0.9,0.5,1.3,0.7
			C169.5,478.5,182.7,477.6,193.2,477.5z"/>
		<path fill="#876BA5" d="M169.3,477.7c2.1,0,4.2,0,6.3,0c3.4,0,6.7,0.1,10.1,0.2c4.9,0.1,9.8,0.3,14.7,0.4c5.5,0.1,11,0.3,16.4,0.2
			c2.1,0,4.2-0.1,6.3-0.2c12.6-0.9,25.3-4.6,33.7-15.9c8.9-12,8.8-27,9.5-41.3c1-20.8,6.4-43.1-0.4-63.5
			c-7.3-21.7-40.6-20.2-57.8-21.4c-3.8-0.3-7.8-0.6-11.8-0.8c-18-0.9-37.4-0.4-53.4,7.5c-10.1,5-18,12.7-20.5,25.2
			c-3.5,17.1-2,36.2-2.4,53.6c-0.3,14.8-2.1,34.5,8.2,46.1c1.8,2,3.8,3.6,6,4.9c0.4,0.3,0.9,0.5,1.3,0.7
			C145.5,478.7,158.7,477.9,169.3,477.7z"/>
		<path fill="#8288C2" d="M177,456.2c1.5,0,2.9,0,4.4,0c2.3,0,4.7,0.1,7,0.1c3.4,0.1,6.9,0.2,10.3,0.3c3.8,0.1,7.7,0.2,11.5,0.2
			c1.5,0,2.9-0.1,4.4-0.2c8.9-0.6,17.7-3.2,23.6-11.2c6.2-8.4,6.1-18.9,6.6-28.9c0.7-14.6,4.5-30.2-0.3-44.4
			c-5.1-15.2-28.4-14.1-40.4-15c-2.7-0.2-5.5-0.4-8.3-0.5c-12.6-0.6-26.2-0.3-37.4,5.2c-7.1,3.5-12.6,8.9-14.4,17.6
			c-2.4,11.9-1.4,25.3-1.7,37.5c-0.2,10.4-1.5,24.2,5.7,32.3c1.3,1.4,2.7,2.5,4.2,3.5c0.3,0.2,0.6,0.4,0.9,0.5
			C160.4,456.9,169.7,456.3,177,456.2z"/>
		<path fill="#455BA5" d="M207.4,404c4.7-4.2,7.4-9.9,6.2-17.3c-1.1-6.4-6.8-10.5-12.4-12.8c-7.4-3-16.6-1.6-24,0.5l0,0
			c-3.5-0.1-6.9,2-6.7,6.5c0.7,17.2,0.9,34.4,0.9,51.7c0,0.5,0,1,0.1,1.4c0.3,2.3,1.7,3.9,3.5,4.7c0.4,0.2,0.9,0.5,1.3,0.6
			c7,2.8,15.7,2.1,22.9,1c8.4-1.2,16.7-5.6,18.7-14.4C220.5,415.1,215.3,408,207.4,404z M196.1,386.5c1.4,0.4,2.5,1.1,3,1.5
			c1.2,1,1.1,1.1,1.4,2.4c-0.3-1.2-0.2-0.4-0.1,0.3c-0.1,0-0.5,1.6-0.1,0.8c-0.9,1.9-1.5,2.3-3.2,3.8c-3.2,2.7-8.2,3.9-12.7,4.7
			c-0.1-4.5-0.2-9-0.4-13.4C188.1,385.7,192.2,385.4,196.1,386.5z M204.7,423.5c-0.2,1.1-0.9,1.4-2.9,2.4s-4.9,1.5-7.3,1.7
			c-3.4,0.3-6.7,0.5-9.8,0.1c0-4.7,0-9.5-0.1-14.2c0.2,0,0.4,0,0.6-0.1c3.6-0.6,9.9,0,14.4,1.5C203.9,416.3,205.8,419,204.7,423.5z"
			/>
		<path fill="#FFFFFF" d="M222.5,362.9c10.3,3,11.9,11,13.9,20.9c1.4,7,4,19.8,12,14.1c0.7-0.5,1.4-1.1,2.2-1.9
			c7.1-7.1,3.7-17.4,3.7-26.1c0-5.4,0.9-9.7-2.5-14.4c-4.7-6.4-19.4-5.7-26.8-5.2c-8,0.5-11.7,4.4-9.8,7.9
			C216.2,360.1,218.6,361.8,222.5,362.9z"/>
	</g>
	<g>
		<path fill="#ED6E9F" d="M356.9,481.2c2.1,0,4.2,0,6.3,0c3.4,0,6.7,0.1,10.1,0.2c4.9,0.1,9.8,0.3,14.7,0.4c5.5,0.1,11,0.3,16.4,0.2
			c2.1,0,4.2-0.1,6.3-0.2c12.6-0.9,25.3-4.6,33.7-15.9c8.9-12,8.8-27,9.5-41.3c1-20.8,6.4-43.1-0.4-63.5
			c-7.3-21.7-40.6-20.2-57.8-21.4c-3.8-0.3-7.8-0.6-11.8-0.8c-18-0.9-37.4-0.4-53.4,7.5c-10.1,5-18,12.7-20.5,25.2
			c-3.5,17.1-2,36.2-2.4,53.6c-0.3,14.8-2.1,34.5,8.2,46.1c1.8,2,3.8,3.6,6,4.9c0.4,0.3,0.9,0.5,1.3,0.7
			C333.1,482.3,346.3,481.4,356.9,481.2z"/>
		<path fill="#EF88AE" d="M332.9,481.5c2.1,0,4.2,0,6.3,0c3.4,0,6.7,0.1,10.1,0.2c4.9,0.1,9.8,0.3,14.7,0.4c5.5,0.1,11,0.3,16.4,0.2
			c2.1,0,4.2-0.1,6.3-0.2c12.6-0.9,25.3-4.6,33.7-15.9c8.9-12,8.8-27,9.5-41.3c1-20.8,6.4-43.1-0.4-63.5
			c-7.3-21.7-40.6-20.2-57.8-21.4c-3.8-0.3-7.8-0.6-11.8-0.8c-18-0.9-37.4-0.4-53.4,7.5c-10.1,5-18,12.7-20.5,25.2
			c-3.5,17.1-2,36.2-2.4,53.6c-0.3,14.8-2.1,34.5,8.2,46.1c1.8,2,3.8,3.6,6,4.9c0.4,0.3,0.9,0.5,1.3,0.7
			C309.2,482.5,322.3,481.6,332.9,481.5z"/>
		<path fill="#F4AECE" d="M340.7,459.9c1.5,0,2.9,0,4.4,0c2.3,0,4.7,0.1,7,0.1c3.4,0.1,6.9,0.2,10.3,0.3c3.8,0.1,7.7,0.2,11.5,0.2
			c1.5,0,2.9-0.1,4.4-0.2c8.9-0.6,17.7-3.2,23.6-11.2c6.2-8.4,6.1-18.9,6.6-28.9c0.7-14.6,4.5-30.2-0.3-44.4
			c-5.1-15.2-28.4-14.1-40.4-15c-2.7-0.2-5.5-0.4-8.3-0.5c-12.6-0.6-26.2-0.3-37.4,5.2c-7.1,3.5-12.6,8.9-14.4,17.6
			c-2.4,11.9-1.4,25.3-1.7,37.5c-0.2,10.4-1.5,24.2,5.7,32.3c1.3,1.4,2.7,2.5,4.2,3.5c0.3,0.2,0.6,0.4,0.9,0.5
			C324.1,460.7,333.3,460.1,340.7,459.9z"/>
		<path fill="#EB616E" d="M345.9,437.8c9.2,8.2,21.1,7,31.6,2.4c3.6-1.6,4.5-6.9,2.6-10c-2.2-3.7-6.3-4.2-10-2.6
			c-3.6,1.6-5.9,2-9.6,1.8c1.7,0.1-3.1-1.1-2.3-0.7c-0.6-0.3-1.2-0.6-1.7-1c-0.2-0.1-0.3-0.2-0.4-0.2c-0.3-0.2-0.5-0.5-0.8-0.7
			c-0.4-0.4-0.8-0.8-1.2-1.3c0.4,0.5-0.7-1-0.9-1.3c-0.4-0.7-0.8-1.4-1.1-2.1c-0.1-0.1-0.1-0.2-0.1-0.3c-0.1-0.3-0.2-0.5-0.3-0.8
			c-0.6-1.6-1-3.2-1.3-4.9c-0.1-0.5-0.1-0.7-0.2-0.9c0,0.1,0,0,0-0.4c-0.1-1.1-0.2-2.2-0.2-3.3c-0.1-4.4,0.1-5.1,1.2-9.1
			c0.2-0.8,0.5-1.6,0.8-2.4c0.1-0.1,0.1-0.3,0.1-0.3c0.1-0.3,0.2-0.5,0.4-0.8c0.4-0.7,0.8-1.5,1.2-2.2c0.2-0.3,0.4-0.7,0.7-1
			c0.1-0.1,0.2-0.2,0.2-0.3l0.1-0.1c0.5-0.6,1.1-1.2,1.6-1.7c0.3-0.2,0.5-0.5,0.8-0.7c0.6-0.5,1.3-0.8,2-1.2
			c0.1-0.1,0.2-0.1,0.3-0.2c0.2-0.1,0.4-0.2,0.7-0.2c3.1-1,5.1-0.8,9,0.3c9.1,2.6,12.9-11.5,3.9-14.1c-10.2-2.9-20.9-0.9-28.2,7.1
			c-6.8,7.4-9.5,17.9-9.3,27.7C335.7,421.4,338.8,431.5,345.9,437.8z"/>
		<path fill="#FFFFFF" d="M386.1,366.7c10.3,3,11.9,11,13.9,20.9c1.4,7,4,19.8,12,14.1c0.7-0.5,1.4-1.1,2.2-1.9
			c7.1-7.1,3.7-17.4,3.7-26.1c0-5.4,0.9-9.7-2.5-14.4c-4.7-6.4-19.4-5.7-26.8-5.2c-8,0.5-11.7,4.4-9.8,7.9
			C379.9,363.8,382.2,365.5,386.1,366.7z"/>
	</g>
	<g>
		<path fill="#2DAF80" d="M280.2,343c2.1,0,4.2,0,6.3,0c3.4,0,6.7,0.1,10.1,0.2c4.9,0.1,9.8,0.3,14.7,0.4c5.5,0.1,11,0.3,16.4,0.2
			c2.1,0,4.2-0.1,6.3-0.2c12.6-0.9,25.3-4.6,33.7-15.9c8.9-12,8.8-27,9.5-41.3c1-20.8,6.4-43.1-0.4-63.5
			c-7.3-21.7-40.6-20.2-57.8-21.4c-3.8-0.3-7.8-0.6-11.8-0.8c-18-0.9-37.4-0.4-53.4,7.5c-10.1,5-18,12.7-20.5,25.2
			c-3.5,17.1-2,36.2-2.4,53.6c-0.3,14.8-2.1,34.5,8.2,46.1c1.8,2,3.8,3.6,6,4.9c0.4,0.3,0.9,0.5,1.3,0.7
			C256.5,344,269.7,343.2,280.2,343z"/>
		<path fill="#88C380" d="M256.2,343.2c2.1,0,4.2,0,6.3,0c3.4,0,6.7,0.1,10.1,0.2c4.9,0.1,9.8,0.3,14.7,0.4c5.5,0.1,11,0.3,16.4,0.2
			c2.1,0,4.2-0.1,6.3-0.2c12.6-0.9,25.3-4.6,33.7-15.9c8.9-12,8.8-27,9.5-41.3c1-20.8,6.4-43.1-0.4-63.5
			c-7.3-21.7-40.6-20.2-57.8-21.4c-3.8-0.3-7.8-0.6-11.8-0.8c-18-0.9-37.4-0.4-53.4,7.5c-10.1,5-18,12.7-20.5,25.2
			c-3.5,17.1-2,36.2-2.4,53.6c-0.3,14.8-2.1,34.5,8.2,46.1c1.8,2,3.8,3.6,6,4.9c0.4,0.3,0.9,0.5,1.3,0.7
			C232.5,344.3,245.7,343.4,256.2,343.2z"/>
		<path fill="#A9D2A3" d="M264,321.7c1.5,0,2.9,0,4.4,0c2.3,0,4.7,0.1,7,0.1c3.4,0.1,6.9,0.2,10.3,0.3c3.8,0.1,7.7,0.2,11.5,0.2
			c1.5,0,2.9-0.1,4.4-0.2c8.9-0.6,17.7-3.2,23.6-11.2c6.2-8.4,6.1-18.9,6.6-28.9c0.7-14.6,4.5-30.2-0.3-44.4
			c-5.1-15.2-28.4-14.1-40.4-15c-2.7-0.2-5.5-0.4-8.3-0.5c-12.6-0.6-26.2-0.3-37.4,5.2c-7.1,3.5-12.6,8.9-14.4,17.6
			c-2.4,11.9-1.4,25.3-1.7,37.5c-0.2,10.4-1.5,24.2,5.7,32.3c1.3,1.4,2.7,2.5,4.2,3.5c0.3,0.2,0.6,0.4,0.9,0.5
			C247.4,322.4,256.6,321.8,264,321.7z"/>
		<path fill="#258C60" d="M287.8,235.7c-2.2-6.3-11.6-4.3-11.2,1.4c-0.2,0.3-0.3,0.6-0.4,0.9c-3.7,10.1-7.1,20.4-10.7,30.5
			c-2.2,6.1-4.4,12.3-6.7,18.4c-0.4,1.1-0.8,2.2-1.3,3.3c-0.2,0.5-0.4,1-0.6,1.4c-0.1,0.3-0.2,0.4-0.2,0.5c0,0,0,0.1-0.1,0.2
			c-0.3,0.6-0.6,1.2-0.9,1.9c-0.1,0.2-0.2,0.4-0.3,0.6c-0.1,0.1-0.1,0.2-0.2,0.3c0.7-1.1,1.7-1.9,3-2.3c0.3,0,0.6,0,0.9,0
			c-5.6,1-7.3,9.8-0.9,10.9c6.1,1,7.8-4.7,9.6-9.2c0.9-2.1,1.7-4.3,2.5-6.5c7.3,0,14.8,0.7,21.9-1.5c1.6,5,3.3,10,5,14.9
			c2.4,6.8,13.4,3.9,10.9-3C300.8,277.8,295.2,256.5,287.8,235.7z M274.5,276.9c0.1-0.3,0.2-0.6,0.3-0.8c2.5-7.1,5-14.3,7.5-21.4
			c2.2,7,4.4,14.1,6.6,21.2C284.2,277.2,279.3,277.1,274.5,276.9z"/>
		<path fill="#FFFFFF" d="M309.5,228.5c10.3,3,11.9,11,13.9,20.9c1.4,7,4,19.8,12,14.1c0.7-0.5,1.4-1.1,2.2-1.9
			c7.1-7.1,3.7-17.4,3.7-26.1c0-5.4,0.9-9.7-2.5-14.4c-4.7-6.4-19.4-5.7-26.8-5.2c-8,0.5-11.7,4.4-9.8,7.9
			C303.2,225.6,305.5,227.3,309.5,228.5z"/>
	</g>
</g>
<g>
	<path fill="#ED845F" d="M595.1,325.4l-10.2,7.2l-10.9,14l-51.2-25.7l3.7-11.3l-24.1-8.6h10.8c0,0,8.2-38,8.9-84.8
		c2.2-2.5,3.8-5.7,4.4-9.3c1.1-6.3-0.9-12.3-4.8-16c-0.8-15.4-2.5-31.2-5.8-46.5c-3.4-20.8-13.4-43.7-39.5-54.3
		c-38.6-15.7-74-7.6-74-7.6c-30.9,4.5-46.4,24.9-54.1,46.9l0,0c0,0,0,0,0,0.1c-4.6,13.1-6.4,26.8-7,37.9c-0.7,7-1.3,14.9-1.7,23.9
		c-8.1,1.9-12.9,10.9-10.8,20.2c1.4,6.3,5.6,11.1,10.7,13c0.6,21.1,2.5,45.9,6.5,74.7h25.9l5.9-11.2l11.1,11.1h8.4l-43.5,40l3.3,5.1
		l-45.7,50.9c-0.5-0.9-0.8-1.5-0.8-1.5l-20-2.7l-12.4,2c-6.5,1,0.5,8.3,4.7,9.9c14.4,5.5,19.6,7.8,27.4,7.9c0.4,0,2.8-0.2,4.8-0.8
		l0.6,0.6l56.7-42.5l7.3,11.3l10.7-9.8c0.1,4.2,0.1,8.8,0.3,13.7c0.2,4.9,0.3,13.5,2.1,20.1c-3.2,10.3-7.9,19.7-16.6,28
		c-10.6,10.1-23.1,23.5-26.6,29.3c-14.4,23.5,3.6,33.8,25.6,38.6c4,19.5,35.1,25.8,66.5,20.2c25.3-4.6,60-9.4,80.9-17
		c0.3-1.4,0.6-2.8,0.8-4.3l6.6-1.2l0.4,0.6l7.1,1.1c0.1,0.4,0.2,0.7,0.3,1c0.1,0.4,0.5,0.5,0.9,0.4c0.3-0.1,0.5-0.5,0.4-0.9
		c0-0.1-0.1-0.2-0.1-0.3l2.3,0.3c0,0.3,0.1,0.6,0.2,0.9c0.1,0.4,0.5,0.6,0.8,0.5s0.4-0.3,0.5-0.5l1.7,1.2c0,0.3,0.1,0.5,0.2,0.8
		c0.1,0.4,0.5,0.5,0.8,0.4c0.2,0,0.3-0.2,0.4-0.3l2.2,1.5c0.1,0.3,0.2,0.5,0.3,0.7c0.2,0.3,0.6,0.4,0.9,0.3c0,0,0.1,0,0.1-0.1
		l4.5,3.1c0,0,2.6,2.2,5.6-0.2l-0.1-0.1l3.1-2.4l-25.5-33l-3.1,2.4l0.1,0.1l-9.8,7.2c-0.3-9.1-1.7-15.6-1.7-15.6
		c-13.7-0.8-26.4-2.8-39.8-3.4c3,0,5.9-0.3,9-1.7c11.2-5,15.8-18,14.5-30.8s-6.5-24.7-12.6-35.8c0.9-20.2-0.2-36.8-2.8-50.5
		l22.4,5.8l0.8-2.3l66,18.6l1.2-2.7c1.6-0.9,3.2-2.2,3.4-2.4c5.4-5.6,7.6-10.8,14-24.8C600.5,331.7,600.5,321.6,595.1,325.4z
		 M487.2,295.5l5-7.7l4.7,11.2L487.2,295.5z M472.8,462.3c1.7-0.1,3.4,0,5,0C476.2,462.3,474.5,462.3,472.8,462.3z"/>
	<g>
		<path fill="#562806" d="M341.2,190.8c0.1,0,0.2,0,0.4,0c0.1,0,0.2,0,0.2,0l0,0c0.2,0,0.4,0,0.6,0c0.3,0,0.6,0.1,0.9,0.3
			c4,2.4,7.9,16.8,7.9,16.8s0,0,0-0.1c2.6-48.4,18.1-65.7,30.9-71.7c5-2.4,9.7-2.9,12.9-3c0.4-5.8,2-12.9,1.7-16.7
			c0.4,1.1,0.7,2.5,1,4c0.8,3.8,1.4,8.7,2.1,13.1v-0.1c0,0,91.2-18.5,99.1,39.8c0,0,1.1,6.3,5.6,28.4c0.2,1.2,0.5,2.4,0.8,3.7
			c0,0,0.4-13.5,5.9-18.2c0.1-0.1,0.3-0.2,0.4-0.3l0,0c0.1,0,0.2,0,0.3,0c0.4,0,0.7,0,1.1,0c0.1,0,0.2,0,0.4,0
			c0.5,0,0.9,0.1,1.4,0.2c2.7,0.5,5.1,1.8,7.1,3.6c-0.8-15.4-2.5-31.2-5.8-46.5c-3.4-20.8-13.4-43.7-39.5-54.3
			c-38.6-15.7-74-7.6-74-7.6c-30.9,4.5-46.4,24.9-54.1,46.9c0,0,0,0,0,0.1c-4.6,13.1-6.4,26.8-7,37.9c-0.7,7-1.3,14.9-1.7,23.9
			c0.1,0,0.1,0,0.2,0C340.3,191,340.7,190.9,341.2,190.8z"/>
		<path fill="#562806" d="M399.1,295.4c1-6.7,4.4-7.6,14.7-12.3l0,0c1.3-1.2,2.6-2.3,4-3.3l-0.3-11.9c-28.5-3.5-52.4-22.2-62.6-47.6
			c-0.1,0.1-0.1,0.1-0.2,0.2c-0.2,0.2-0.4,0.4-0.6,0.6c-0.1,0.1-0.3,0.3-0.4,0.4c-0.2,0.2-0.4,0.4-0.6,0.6c-0.2,0.1-0.3,0.3-0.5,0.4
			c-0.2,0.2-0.5,0.3-0.7,0.5c-0.2,0.1-0.3,0.2-0.5,0.3c-0.3,0.2-0.5,0.3-0.8,0.4c-0.2,0.1-0.3,0.2-0.5,0.2c-0.3,0.1-0.6,0.3-0.9,0.4
			c-0.1,0.1-0.3,0.1-0.4,0.2c-0.5,0.2-0.9,0.3-1.4,0.4c-2.7,0.6-5.3,0.3-7.8-0.6c0.6,21.1,2.5,45.9,6.5,74.7H372l5.9-11.2l11.1,11.1
			h8.4l1.5-1.4C398.9,296.8,399,296.1,399.1,295.4z"/>
		<path fill="#562806" d="M508.7,221.3c-0.5-0.1-1-0.2-1.4-0.3c-0.2,0-0.3-0.1-0.5-0.2c-0.3-0.1-0.6-0.2-0.9-0.3
			c-0.2-0.1-0.4-0.2-0.6-0.3s-0.5-0.2-0.7-0.4c-0.2-0.1-0.4-0.2-0.6-0.3s-0.4-0.3-0.7-0.4c-0.2-0.1-0.4-0.3-0.5-0.4
			c-0.2-0.2-0.4-0.3-0.6-0.5s-0.3-0.3-0.5-0.5s-0.4-0.3-0.5-0.5c-0.1-0.1-0.2-0.2-0.2-0.2c-2.3,6.7-5.6,13-9.7,18.7l0,0
			c-0.1,0.1-0.1,0.2-0.2,0.3c-0.7,1-1.5,2-2.3,3c-0.1,0.1-0.2,0.2-0.2,0.3c-0.9,1.1-1.8,2.2-2.8,3.3c-0.1,0.1-0.2,0.2-0.3,0.3
			c-0.8,0.9-1.7,1.8-2.5,2.7c-0.3,0.3-0.5,0.5-0.8,0.8c-0.7,0.7-1.5,1.4-2.2,2.1c-0.3,0.3-0.6,0.6-0.9,0.8c-0.8,0.7-1.6,1.3-2.4,2
			c-0.3,0.2-0.6,0.5-0.9,0.7c-1,0.8-2,1.5-3.1,2.3c-0.1,0.1-0.2,0.1-0.3,0.2c-1.2,0.8-2.4,1.6-3.6,2.3c-0.2,0.2-0.5,0.3-0.7,0.4
			c-0.9,0.6-1.9,1.1-2.9,1.7c-0.4,0.2-0.8,0.4-1.2,0.6c-0.9,0.5-1.7,0.9-2.6,1.3c-0.4,0.2-0.9,0.4-1.3,0.6c-0.9,0.4-1.8,0.8-2.7,1.2
			c-0.4,0.2-0.8,0.3-1.2,0.5c-1.2,0.5-2.4,0.9-3.7,1.3c-0.1,0-0.2,0.1-0.3,0.1c-1.4,0.4-2.7,0.9-4.1,1.2c-0.4,0.1-0.8,0.2-1.2,0.3
			c-1,0.3-2,0.5-3,0.7c-0.5,0.1-1,0.2-1.5,0.3c-0.6,0.1-1.1,0.2-1.7,0.3v1.4l0.2,10.2l0,0v0.3v0.4c0,0,4.4,0.3,10.6,3.1
			c4.1-0.9,9.3,2.7,14.5,4.9c-0.2-0.1-0.4,0-0.7,0.1l21.9,7.9l5-7.7l4.7,11.2l5.5,2h10.8c0,0,8.2-38,8.9-84.8
			C518.7,220,513.7,222.1,508.7,221.3z"/>
		<path fill="#DB7A58" d="M528.9,491.3l3.7,0.3c0,0,1.7-0.6,0.4-2.2c0,0-2.4-4.7-5.9-3.6c0,0-1.3,0-2.8-0.1c0,3.9-0.3,8-1,12.2
			l6.6-1.2l-2.6-3.4C527.3,493.4,525.4,491.1,528.9,491.3z"/>
		<path fill="#215483" d="M527,485.8c3.5-1,5.9,3.6,5.9,3.6c1.4,1.6-0.4,2.2-0.4,2.2l-3.7-0.3c-3.5-0.2-1.5,2.1-1.5,2.1l2.6,3.4
			l0.4,0.6l7.1,1.1c-0.2-0.9-0.3-1.9-0.3-2.9c0-0.7,0.1-1.5,0.2-2.2c0.1-0.4,0.4-0.6,0.8-0.5c0.4,0.1,0.6,0.4,0.5,0.8
			c-0.1,0.6-0.2,1.3-0.2,1.9c0,1.2,0.2,2.3,0.4,3.1l2.3,0.3c-0.1-0.6-0.1-1.2-0.1-1.7c0-1,0.1-1.9,0.3-2.7c0.1-0.4,0.4-0.6,0.8-0.5
			c0.4,0.1,0.6,0.4,0.5,0.8c-0.1,0.7-0.2,1.6-0.2,2.5c0,0.8,0.1,1.7,0.3,2.3c0,0.1,0,0.2,0,0.3l1.7,1.2c-0.1-0.4-0.1-0.8-0.1-1.3
			c0-1.3,0.3-2.7,0.5-3.6c0.1-0.4,0.5-0.6,0.8-0.5c0.4,0.1,0.6,0.5,0.5,0.8c-0.2,0.9-0.5,2.1-0.5,3.3c0,0.6,0.1,1.2,0.2,1.7
			c0.1,0.2,0,0.4-0.1,0.6l2.2,1.5c-0.2-0.7-0.3-1.4-0.3-2.1c0-1,0.1-1.9,0.3-2.6c0.1-0.4,0.5-0.6,0.8-0.5c0.4,0.1,0.6,0.5,0.5,0.8
			c-0.2,0.6-0.3,1.4-0.3,2.3c0,0.8,0.1,1.7,0.4,2.2c0.2,0.3,0.1,0.6-0.2,0.8l4.5,3.1c0,0,2.6,2.2,5.6-0.2l-0.1-0.1l0,0L534,474.3
			l-9.8,7.2c0,1.3,0.1,2.7,0.1,4.1C525.7,485.8,527,485.8,527,485.8z"/>
		<polygon fill="#1B4269" points="559.4,507.2 562.5,504.9 537,471.9 533.9,474.3 534,474.3 		"/>
		<path fill="#242340" d="M538.7,493.5c0.1-0.4-0.2-0.7-0.5-0.8c-0.4-0.1-0.7,0.2-0.8,0.5c-0.1,0.7-0.2,1.4-0.2,2.2
			c0,1,0.1,2,0.3,2.9c0.1,0.4,0.2,0.7,0.3,1c0.1,0.4,0.5,0.5,0.9,0.4c0.3-0.1,0.5-0.5,0.4-0.9c0-0.1-0.1-0.2-0.1-0.3
			c-0.2-0.8-0.4-2-0.4-3.1C538.5,494.7,538.6,494.1,538.7,493.5z"/>
		<path fill="#242340" d="M542.5,497.1c0-0.9,0.1-1.8,0.2-2.5c0.1-0.4-0.2-0.7-0.5-0.8c-0.4-0.1-0.7,0.2-0.8,0.5
			c-0.2,0.8-0.3,1.8-0.3,2.7c0,0.6,0.1,1.2,0.1,1.7c0,0.3,0.1,0.6,0.2,0.9c0.1,0.4,0.5,0.6,0.8,0.5s0.4-0.3,0.5-0.5
			c0-0.1,0-0.2,0-0.3C542.5,498.8,542.5,498,542.5,497.1z"/>
		<path fill="#242340" d="M545.9,501.3c-0.2-0.5-0.2-1.1-0.2-1.7c0-1.2,0.3-2.4,0.5-3.3c0.1-0.4-0.1-0.7-0.5-0.8
			c-0.4-0.1-0.7,0.1-0.8,0.5c-0.3,1-0.5,2.3-0.5,3.6c0,0.4,0,0.8,0.1,1.3c0,0.3,0.1,0.5,0.2,0.8c0.1,0.4,0.5,0.5,0.8,0.4
			c0.2,0,0.3-0.2,0.4-0.3C545.9,501.7,546,501.5,545.9,501.3z"/>
		<path fill="#242340" d="M549.5,503.5c-0.3-0.5-0.4-1.3-0.4-2.2c0-0.8,0.1-1.7,0.3-2.3c0.1-0.4-0.1-0.7-0.5-0.8
			c-0.4-0.1-0.7,0.1-0.8,0.5c-0.2,0.7-0.3,1.6-0.3,2.6c0,0.7,0.1,1.4,0.3,2.1c0.1,0.3,0.2,0.5,0.3,0.7c0.2,0.3,0.6,0.4,0.9,0.3
			c0,0,0.1,0,0.1-0.1C549.6,504.2,549.7,503.8,549.5,503.5z"/>
		<path fill="#3C6C95" d="M381.5,474.3c3.6-5.8,16-19.2,26.6-29.3c6.9-6.5,11.8-19,15.3-30.9c-6-0.1-13.6-0.8-23.9-2.3
			c-3.5-0.5-5.6-4.1-6.9-8.7c-3.2,10.3-7.9,19.7-16.6,28c-10.6,10.1-23.1,23.5-26.6,29.3C335,483.9,353,494.2,375,499
			C373.8,492.3,375.5,484.1,381.5,474.3z"/>
		<path fill="#2F80A3" d="M468.6,400.6c-0.4-6.8-1.7-14.5-2.1-16.4c-1.8-9.1-1.2-30.9-0.8-47c0.2-6,0.3-11.3,0.3-14.7
			c0-7.4-3.4-11.3-8.8-12.9c0.5-4.8,1.2-9.5,2.4-14.4c0.4-1.6,0.7-3.2,1.7-4.6c0.5-0.6,2.6-2.6,4-3c0.3-0.1,0.6-0.1,0.7-0.1
			c-5.2-2.2-10.5-5.7-14.5-4.9c-1.8,0.4-3.4,1.7-4.7,4.4c0,0.1-0.1,0.2-0.1,0.3c-1.8,4.1-4.4,12.6-5.5,21.2c-2.9,0-5.8,0-8.7,0.1
			c-4.2,0-8.3,0.1-12.5,0c-1.3,0-2.5,0-3.8,0c-0.2-8.1,1.3-18.5-2.5-25.5l0,0c-10.3,4.7-13.7,5.6-14.7,12.3
			c-0.1,0.7-0.2,1.3-0.2,2.1c-0.1,1.7-0.1,3.6,0,5.5c0.1,2.2,0.3,4.4,0.5,6.4c-2.4,0.8-3.9,2.2-4.9,4.4c-0.4,1-0.7,2.1-1,3.3
			c-0.6,2.5-0.9,5.7-1.5,9.6c0,0-2,13.4-1.7,42.6l0,0c0.1,4.2,0.1,8.8,0.3,13.7c0.2,4.9,0.3,13.5,2.1,20.1c1.3,4.6,3.4,8.2,6.9,8.7
			c10.3,1.5,17.8,2.2,23.9,2.3C420,426,415,438.5,408.2,445c-10.6,10.1-23.1,23.5-26.6,29.3c-6,9.8-7.8,18-6.4,24.6
			c4,19.5,35.1,25.8,66.5,20.2c25.3-4.6,60-9.4,80.9-17c0.3-1.4,0.6-2.8,0.8-4.3c0.7-4.2,0.9-8.4,1-12.2c0-1.4,0-2.8-0.1-4.1
			c-0.3-9.1-1.7-15.6-1.7-15.6c-13.7-0.8-26.4-2.8-39.8-3.4c3,0,5.9-0.3,9-1.7c11.2-5,15.8-18,14.5-30.8s-6.5-24.7-12.6-35.8
			c0,0.4,0,0.8-0.1,1.3C493.6,395.5,485.8,399,468.6,400.6z M406.4,351.6c-0.3-0.7-0.6-1.3-0.9-1.8c0-0.9,0.3-7,0.5-12.7
			c0.2-5.8,0.3-11.4,0-11.4c3.2,0,6.3-0.5,9.4-0.8c1.5-0.1,3-0.3,4.5-0.3c7.1,0,13.5,0,20.3-1.5c0.3-0.1,0.7-0.2,1-0.2
			c3.1-0.7,5.4-1.1,6.2,2.5c0.4,1.8,0.6,3.6,0.6,5.5s-0.1,3.8-0.1,5.7l1.1,16c-7.4-0.1-9.7-0.1-23.3,0.5
			C418.6,353.3,413,354,406.4,351.6z M472.8,462.3c1.7-0.1,3.4,0,5,0C476.2,462.3,474.5,462.3,472.8,462.3z"/>
		<path fill="#DB7A58" d="M311.4,394.8c-0.5-0.9-0.8-1.5-0.8-1.5l-20-2.7l-12.4,2c-6.5,1,0.5,8.3,4.7,9.9
			c14.4,5.5,19.6,7.8,27.4,7.9c0.4,0,2.8-0.2,4.8-0.8l0.6,0.6l56.7-42.5l-15.3-23.8L311.4,394.8z"/>
		<path fill="#16C172" d="M429.4,283.8c-11.2,0.5-11.7-3.7-11.7-3.7v-0.4c-1.4,1.1-2.7,2.2-4,3.3c3.8,7.1,2.4,17.4,2.5,25.5
			c1.3,0,2.5,0,3.8,0c4.2,0,8.3,0,12.5,0c2.9,0,5.8,0,8.7-0.1c1.1-8.5,3.7-17.1,5.5-21.2c0-0.1,0.1-0.2,0.1-0.3
			c1.2-2.7,2.8-4,4.7-4.4c-6.3-2.8-10.6-3.1-10.6-3.1C438.8,284,429.4,283.8,429.4,283.8z"/>
		<path fill="#16C172" d="M392,326.7c0.5-3.9,0.9-7,1.5-9.6c0.3-1.3,0.6-2.4,1-3.3c1-2.2,2.4-3.6,4.9-4.4c-0.2-2-0.4-4.2-0.5-6.4
			c-0.1-1.9-0.1-3.8,0-5.5l-1.5,1.4l-43.5,40l3.3,5.1l15.3,23.8l7.3,11.3l10.7-9.8l0,0C390,340.1,392,326.7,392,326.7z"/>
		<path fill="#DB7A58" d="M347.3,224.9c0.5-0.1,1-0.2,1.4-0.4c0.1,0,0.3-0.1,0.4-0.2c0.3-0.1,0.6-0.2,0.9-0.4
			c0.2-0.1,0.3-0.2,0.5-0.2c0.3-0.1,0.5-0.3,0.8-0.4c0.2-0.1,0.3-0.2,0.5-0.3c0.2-0.2,0.5-0.3,0.7-0.5c0.2-0.1,0.3-0.2,0.5-0.4
			s0.4-0.4,0.6-0.6c0.1-0.1,0.3-0.3,0.4-0.4c0.2-0.2,0.4-0.4,0.6-0.6c0.1-0.1,0.1-0.2,0.2-0.2l0,0c10.2,25.5,34,44.1,62.6,47.6
			c3.8,0.5,7.7,0.7,11.6,0.6c1.5,0,3-0.1,4.5-0.2c0.5,0,0.9-0.1,1.4-0.1c1-0.1,2-0.2,3-0.3c0.5-0.1,1.1-0.2,1.6-0.2
			c0.9-0.1,1.9-0.3,2.8-0.5c0.5-0.1,1-0.2,1.5-0.3c1-0.2,2-0.5,3-0.7c0.4-0.1,0.8-0.2,1.2-0.3c1.4-0.4,2.8-0.8,4.1-1.2
			c0.1,0,0.2-0.1,0.3-0.1c1.2-0.4,2.5-0.9,3.7-1.3c0.4-0.2,0.8-0.3,1.2-0.5c0.9-0.4,1.8-0.8,2.7-1.2c0.4-0.2,0.9-0.4,1.3-0.6
			c0.9-0.4,1.7-0.9,2.6-1.3c0.4-0.2,0.8-0.4,1.2-0.6c1-0.5,1.9-1.1,2.9-1.7c0.2-0.1,0.5-0.3,0.7-0.4c1.2-0.8,2.4-1.5,3.6-2.3
			c0.1-0.1,0.2-0.1,0.3-0.2c1-0.7,2.1-1.5,3.1-2.3c0.3-0.2,0.6-0.5,0.9-0.7c0.8-0.6,1.6-1.3,2.4-2c0.3-0.3,0.6-0.6,0.9-0.8
			c0.8-0.7,1.5-1.4,2.2-2.1c0.3-0.3,0.5-0.5,0.8-0.8c0.9-0.9,1.7-1.8,2.5-2.7c0.1-0.1,0.2-0.2,0.3-0.3c1-1.1,1.9-2.2,2.8-3.3
			c0.1-0.1,0.2-0.2,0.2-0.3c0.8-1,1.5-2,2.3-3c0.1-0.1,0.1-0.2,0.2-0.3l0,0c-13.1,12.4-30.8,20.5-50.4,20.7
			c-60.5,0.6-75.5-31-76.4-71.4c-0.4-18.6,6.3-35.7,17.6-48.8c-12.8,6-28.2,23.3-30.9,71.7c0.7,3.4,1.6,6.6,2.8,9.8
			c-3,2.7-7,3.9-11.3,2.4c-6.7-2.3-9.1-10-8.6-16.5c0.2-3.1,0.9-6.3,3.1-8.7c1.7-1.8,3.8-3,6.1-3.8c-0.3-0.2-0.6-0.3-0.9-0.3
			c-0.2,0-0.4,0-0.6,0l0,0c-0.1,0-0.2,0-0.2,0c-0.1,0-0.2,0-0.4,0c-0.5,0.1-0.9,0.1-1.4,0.2c-0.1,0-0.1,0-0.2,0
			c-8.1,1.9-12.9,10.9-10.8,20.2c1.4,6.3,5.6,11.1,10.7,13C342,225.2,344.7,225.5,347.3,224.9z"/>
		<path fill="#242340" d="M347,206.4c-0.2-1.8-0.7-3.5-1.6-5c-1.1-2-2.8-3.5-5.1-4.2c-0.6-0.2-1.1,0.1-1.3,0.7
			c-0.2,0.6,0.1,1.1,0.7,1.3c1.7,0.5,3,1.7,3.9,3.3c0.6,1,1,2.2,1.2,3.5c-1.2,0.5-2.9,0.7-4.4,0.7c-0.9,0-1.8-0.1-2.5-0.3
			s-1.1-0.4-1.2-0.6c-0.4-0.4-1.1-0.5-1.5-0.1s-0.5,1.1-0.1,1.5c0.6,0.7,1.4,1,2.3,1.2s1.9,0.3,3,0.3c1.6,0,3.2-0.2,4.6-0.7l0,0
			c0,2.7-0.8,5.6-2.5,8c-0.3,0.5-0.2,1.1,0.2,1.5c0.5,0.3,1.1,0.2,1.5-0.2c1.9-2.7,2.9-6,2.9-9.2C347.1,207.6,347.1,207,347,206.4
			C347,206.4,347,206.4,347,206.4z"/>
		<path fill="#DB7A58" d="M513.3,186.9c-0.1,0-0.2,0-0.4,0c-0.4,0-0.7,0-1.1,0c-0.1,0-0.2,0-0.3,0c-0.1,0.1-0.3,0.2-0.4,0.3
			c2.3,0.8,4.5,1.8,6.3,3.6c2.3,2.3,3.1,5.4,3.5,8.5c0.8,6.5-1.2,14.2-7.8,16.9c-4.2,1.7-8.3,0.6-11.4-1.9c-0.3,0.9-0.5,1.8-0.8,2.6
			c0.1,0.1,0.2,0.2,0.2,0.3c0.2,0.2,0.3,0.4,0.5,0.5c0.2,0.2,0.3,0.3,0.5,0.5s0.4,0.3,0.6,0.5c0.2,0.1,0.4,0.3,0.5,0.4
			c0.2,0.1,0.4,0.3,0.7,0.4c0.2,0.1,0.4,0.2,0.6,0.3s0.5,0.2,0.7,0.4c0.2,0.1,0.4,0.2,0.6,0.3c0.3,0.1,0.6,0.2,0.9,0.3
			c0.2,0.1,0.3,0.1,0.5,0.2c0.5,0.1,1,0.3,1.4,0.3c5,0.9,10-1.2,13.5-5.2c2.2-2.5,3.8-5.7,4.4-9.3c1.1-6.3-0.9-12.3-4.8-16
			c-1.9-1.9-4.4-3.2-7.1-3.6C514.2,187,513.7,187,513.3,186.9z"/>
		<path fill="#242340" d="M512.9,213.7c0.5-0.4,0.5-1,0.2-1.5c-1.8-2.3-2.7-5.1-2.8-7.9c1.2,0.3,2.5,0.5,3.9,0.5
			c1.2,0,2.4-0.1,3.4-0.4c0.5-0.1,1-0.3,1.4-0.5s0.8-0.5,1.1-0.9c0.4-0.5,0.3-1.1-0.2-1.5s-1.1-0.3-1.5,0.2
			c-0.1,0.1-0.2,0.2-0.5,0.3c-0.8,0.4-2.3,0.7-3.9,0.7c-1.4,0-2.8-0.2-3.8-0.6c0.2-1.4,0.6-2.7,1.2-3.8c0.8-1.5,2-2.6,3.6-3.2
			c0.5-0.2,0.8-0.8,0.6-1.4c-0.2-0.5-0.8-0.8-1.4-0.6l0,0c-2.1,0.8-3.7,2.3-4.7,4.2c-0.9,1.6-1.3,3.4-1.5,5.3c0,0.1,0,0.1,0,0.2
			c0,0.3,0,0.6,0,0.9c0,3.4,1.1,6.9,3.3,9.8C511.8,213.9,512.5,214,512.9,213.7z"/>
		<path fill="#ED845F" d="M424.9,274c0,1.4-0.5,4.9,1.7,5.9c1.2,0.6,4.5,0.5,6,0.8c2.6,0.5,7-0.3,8.2-1.8l-0.2-10.2
			c-4.3,0.6-9.6,1.3-13.6,1.7C423.9,270.8,424.9,272.5,424.9,274z"/>
		<path fill="#DB7A58" d="M429.4,283.8c0,0,9.4,0.1,11.5-4.3v-0.4v-0.3l0,0c-1.2,1.4-5.6,2.2-8.2,1.8c-1.5-0.3-4.8-0.2-6-0.8
			c-2.2-1-1.7-4.6-1.7-5.9c0-1.5-1-3.2,2.1-3.5c4-0.4,9.3-1.1,13.6-1.7v-1.4c-0.4,0.1-0.7,0.1-1.1,0.2c-0.5,0.1-1.1,0.2-1.6,0.2
			c-1,0.1-2,0.2-3,0.3c-0.5,0-0.9,0.1-1.4,0.1c-1.5,0.1-3,0.2-4.5,0.2c-3.9,0.1-7.8-0.1-11.6-0.6l0.3,11.9v0.4
			C417.7,280.1,418.2,284.3,429.4,283.8z"/>
		<path fill="#491316" d="M436.8,237.1c-1,0.2-1.9,0.4-2.7,0.6C434.9,237.5,435.8,237.3,436.8,237.1z"/>
		<path fill="#491316" d="M411.2,234.2c-1.1-0.6-2.2-1.4-3.3-2.3C408.9,232.8,410,233.6,411.2,234.2z"/>
		<path fill="#491316" d="M427.3,238.2c-2.1,0-6.6-0.2-11.4-1.9C420.7,238,425.3,238.2,427.3,238.2z"/>
		<path fill="#491316" d="M445.9,210.9l-18.1,0.5l-18.1,0.5c-11.2,0.3-8.1,11.2-8.1,11.2c1.4,3.9,3.7,6.7,6.2,8.9
			c3.9-2.9,8.2-5.3,13-3.6c3.7,1.3,6.4,3,10.2,1.6c1.8-0.7,3.6-1.8,5.3-2.5c2.7-1.1,5.2-0.4,7.6,0.9c1.4,0.8,2.9,1.8,4.3,3
			c2.7-2.3,5-5.5,6.3-9.7C454.6,221.6,457.1,210.6,445.9,210.9z M428.1,222.3c-18.7,0.6-19-10.4-19-10.4c0.2,0,36.4-1,36.4-1
			C445.8,223.4,428.1,222.3,428.1,222.3z"/>
		<path fill="#491316" d="M448.1,231.5c-0.4,0.4-0.8,0.7-1.3,1C447.3,232.2,447.7,231.8,448.1,231.5z"/>
		<path fill="#C55D6C" d="M436.4,227.4c-1.8,0.8-3.5,1.9-5.3,2.5c-3.9,1.4-6.6-0.3-10.2-1.6c-4.8-1.7-9.1,0.7-13,3.6l0,0l0,0
			c1,0.9,2.1,1.6,3.3,2.3l0,0c1.6,0.9,3.2,1.6,4.8,2.1c4.8,1.6,9.3,1.9,11.4,1.9l0,0c0.5,0,0.8,0,1,0l0,0c0.1,0,0.1,0,0.1,0
			s0,0,0.1,0c0,0,0,0,0.1,0c0.2,0,0.5,0,0.9,0h0.1c0.4,0,1-0.1,1.7-0.1c0.1,0,0.1,0,0.2,0c0.7-0.1,1.4-0.2,2.3-0.3
			c0.1,0,0.1,0,0.2,0c0.8-0.1,1.8-0.3,2.7-0.6c0.1,0,0.2,0,0.2-0.1c1-0.3,2-0.6,3-0.9c0.1,0,0.2-0.1,0.2-0.1c1-0.4,2.1-0.8,3.1-1.4
			c0.1,0,0.2-0.1,0.2-0.1c1-0.5,2-1.1,3-1.9c0.1-0.1,0.2-0.1,0.2-0.2c0.4-0.3,0.9-0.7,1.3-1c0.1,0,0.1-0.1,0.2-0.1l0,0
			c-1.4-1.2-2.9-2.2-4.3-3C441.5,227,439.1,226.3,436.4,227.4z"/>
		<path fill="#FFFFFF" d="M428.1,222.3c0,0,17.7,1.1,17.4-11.4c0,0-36.2,1-36.4,1C409.1,211.9,409.4,223,428.1,222.3z"/>
		<path fill="#E06F5C" d="M422.8,206.3c1.1,0,2-1,2-2.1l0,0v-0.1c0-1.5,1.2-2.8,2.7-2.8l0,0h0.1c1.5,0,2.8,1.2,2.8,2.7
			c0,1.1,1,2,2.1,2s2-1,2-2.1c-0.1-3.7-3.1-6.7-6.8-6.7h-0.2l0,0c-3.7,0.1-6.7,3.1-6.7,6.8v0.2C420.8,205.5,421.7,206.4,422.8,206.3
			z"/>
		<path fill="#E06F5C" d="M467.1,205.9c-6.2,0.2-11.1,2.6-11.1,5.5c0.1,2.9,5.2,5.1,11.4,4.9c6.2-0.2,11.1-2.6,11.1-5.5
			C478.4,207.9,473.3,205.7,467.1,205.9z"/>
		<path fill="#E06F5C" d="M388.3,208c-6.2,0.2-11.1,2.6-11.1,5.5c0.1,2.9,5.2,5.1,11.3,4.9c6.2-0.2,11.1-2.6,11.1-5.5
			C399.5,210,394.5,207.8,388.3,208z"/>
		<path fill="#63230B" d="M381.1,171.7c1.5-1.5,3-2.6,4.7-3.3c1.6-0.7,3.3-1.1,5.1-1.1c1.6,0,3.3,0.3,5,0.9c1.1,0.4,2.3-0.2,2.7-1.3
			c0.4-1.1-0.2-2.3-1.3-2.7c-2.1-0.7-4.2-1.1-6.3-1.1c-2.3,0-4.6,0.5-6.8,1.4c-2.2,0.9-4.2,2.4-6,4.2c-0.8,0.8-0.8,2.2,0,3
			C379,172.6,380.3,172.6,381.1,171.7z"/>
		<path fill="#63230B" d="M458.4,166.4c1.5-0.8,3.2-1.1,4.9-1.1c2,0,4.1,0.5,5.8,1.2c1.7,0.7,3.2,1.7,3.8,2.5c0.8,0.9,2.1,1,3,0.2
			s1-2.1,0.2-3c-1.3-1.5-3.2-2.8-5.4-3.7c-2.2-0.9-4.8-1.5-7.4-1.5c-2.3,0-4.6,0.4-6.8,1.5c-1,0.5-1.5,1.8-0.9,2.8
			C456.1,166.5,457.4,167,458.4,166.4z"/>
		<path fill="#63230B" d="M393.6,182.8c-2.9,0.1-5.3,2.7-6.3,6.4c1.8,0.2,3.3,1.7,3.3,3.6c0,1.9-1.3,3.5-3.2,3.8
			c1.1,3.6,3.6,6.1,6.5,6.1c3.8-0.1,6.8-4.6,6.7-10.1C400.6,187.1,397.4,182.7,393.6,182.8z"/>
		<path fill="#63230B" d="M461,201.1c2.9-0.1,5.3-2.7,6.3-6.4c-1.8-0.2-3.3-1.7-3.3-3.6c0-1.9,1.3-3.5,3.2-3.8
			c-1.1-3.6-3.6-6.1-6.5-6.1c-3.8,0.1-6.8,4.6-6.7,10.1C454,196.8,457.2,201.2,461,201.1z"/>
		<path fill="#FFFFFF" d="M390.7,192.8c0-1.9-1.5-3.4-3.3-3.6c-0.2,0-0.3,0-0.5,0c-2.1,0-3.7,1.8-3.7,3.8c0,2.1,1.8,3.7,3.8,3.7
			c0.2,0,0.3,0,0.5-0.1C389.3,196.3,390.7,194.7,390.7,192.8z"/>
		<path fill="#FFFFFF" d="M463.9,191.1c0,1.9,1.5,3.4,3.3,3.6c0.2,0,0.3,0,0.5,0c2.1,0,3.7-1.8,3.7-3.9c0-2.1-1.8-3.7-3.9-3.7
			c-0.2,0-0.3,0-0.5,0.1C465.2,187.6,463.9,189.2,463.9,191.1z"/>
		<path fill="#16C172" d="M526.5,309.6l-24.1-8.6l-5.5-2l-9.7-3.5l-21.9-7.9c-1.3,0.4-3.5,2.4-4,3c-1,1.3-1.3,3-1.7,4.6
			c-1.2,4.8-1.9,9.6-2.4,14.4c5.4,1.7,8.8,5.5,8.8,12.9c0,3.4-0.2,8.7-0.3,14.7c-0.4,16.1-1,37.9,0.8,47c0.4,1.9,1.6,9.6,2.1,16.4
			c17.2-1.6,25-5.1,25-5.1c0-0.4,0-0.8,0.1-1.3c0.9-20.2-0.2-36.8-2.8-50.5l22.4,5.8l0.8-2.3l8.8-26.3L526.5,309.6z"/>
		<path fill="#DB7A58" d="M595.1,325.4l-10.2,7.2l-10.9,14l-51.2-25.7l-8.8,26.3l66,18.6l1.2-2.7c1.6-0.9,3.2-2.2,3.4-2.4
			c5.4-5.6,7.6-10.8,14-24.8C600.5,331.7,600.5,321.6,595.1,325.4z"/>
		<path fill="#006896" d="M449.1,352.5l-1.1-16c0.1-1.9,0.2-3.8,0.1-5.7c0-1.8-0.2-3.7-0.6-5.5c-0.9-3.6-3.1-3.2-6.2-2.5
			c-0.3,0.1-0.7,0.2-1,0.2c-6.8,1.5-13.3,1.5-20.3,1.5c-1.5,0-3,0.1-4.5,0.3c-3.1,0.3-6.3,0.8-9.4,0.8c0.4,0,0.2,5.6,0,11.4
			s-0.5,11.8-0.5,12.7c0.3,0.5,0.6,1.1,0.9,1.8c6.5,2.3,12.2,1.7,19.4,1.3C439.4,352.4,441.7,352.4,449.1,352.5z"/>
	</g>
</g>
</svg>
