<svg version="1.1" id="Layer_1" xmlns="http://www.w3.org/2000/svg" x="0" y="0" viewBox="0 0 692 540" xml:space="preserve"><style>.st1{fill:#fff}.st2{fill:#553c9a}.st3{fill:#b794f4}.st4{fill:#e9d8fd}.st5{fill:#322659}.st15{fill:#231f20}</style><path d="M350 435.5c387.2-.1 387.2 95.3 0 95.2-387.2.1-387.2-95.3 0-95.2z" fill="#fcf3b3"/><path class="st1" d="M240.2 212.3c-8.7 0-16.9 2.1-24.1 5.9-18.7-54.1-102-60.3-128.4-9.5-36.6-22.4-87.6 6.6-86.4 50H292c-2.8-26-24.9-46.4-51.8-46.4zm412-105.8c-6.5 0-12.6 1.6-18 4.4-14-40.4-76.4-45.1-96.1-7-27.4-16.6-65.5 5-64.6 37.4H691c-2.1-19.5-18.7-34.8-38.8-34.8z"/><path class="st2" d="M187.3 477.2c42.3.2 84.4 10.5 82.7-48.2 7-60 3.8-72.6-59.5-73-61.5-2.2-67.2 17.5-64.9 73.5-2.6 33.9 5 50.9 41.7 47.7z"/><path class="st3" d="M167 477.4c42.3.2 84.4 10.5 82.7-48.2 7-60.2 3.5-72.4-59.7-72.9-61.5-2.2-67.2 17.5-64.9 73.5-2.7 34 5.1 50.9 41.9 47.6z"/><path class="st4" d="M173.6 459.1c29.4.4 59.2 7.2 57.7-33.7 4.9-41.9 2.3-50.9-41.8-51-42.5-1.8-47.3 12.4-45.5 51.3-2.1 23.9 4 35.8 29.6 33.4z"/><path class="st5" d="M199.4 414.7c23-24.3-27.5-36.1-31.4-19.7.7 15 .6 30.1.9 45.2 3.1 8.6 16.5 6 23.6 5.4 17.6-1.1 22.8-23.9 6.9-30.9zm-9.6-14.9c2.1.7 3.4 1.5 3.8 3.3-.3-1-.2-.3-.1.3-.1 0-.4 1.4-.1.7-2.5 4.8-8.2 6.2-13.5 7.2-.1-3.8-.2-7.7-.3-11.4 3.4-.8 6.9-1.1 10.2-.1zm7.3 31.5c-3.2 4.4-12.1 3.6-17 3.5 0-4 0-8.1-.1-12.1 5.1-.7 19.6-.5 17.1 8.6z"/><path class="st1" d="M212.3 379.7c8.8 2.6 10.1 9.4 11.8 17.8 1.1 7.5 4.9 18.4 12.1 10.4 6-6 3.1-14.8 3.1-22.2 0-4.6.8-8.3-2.1-12.3-5.1-9.1-48.3-4.2-24.9 6.3z"/><path d="M326.7 480.4c42.3.2 84.4 10.5 82.7-48.2 7-60 3.8-72.6-59.5-73-61.5-2.2-67.2 17.5-64.9 73.5-2.6 33.7 5 51 41.7 47.7z" fill="#ed6e9f"/><path d="M306.3 480.6c42.3.2 84.4 10.5 82.7-48.2 7-60 3.8-72.6-59.5-73-61.5-2.2-67.2 17.5-64.9 73.5-2.6 33.8 4.9 50.9 41.7 47.7z" fill="#ef88ae"/><path d="M312.9 462.3c29.4.4 59.2 7.2 57.7-33.7 4.9-41.9 2.3-50.9-41.8-51-42.5-1.8-47.3 12.4-45.5 51.3-2.1 24 4 35.8 29.6 33.4z" fill="#f4aece"/><path d="M317.3 443.4c6 7.8 34.7 7 29.1-6.5-4.2-6.7-11 .5-16.7-.7 1.4.1-2.6-.9-2-.6-9-5.5-8.7-20.4-3.1-28.6 3.3-3.8 7.2-5 12.5-3.2 7.7 2.2 11-9.8 3.3-12-29.1-9.2-42.1 34.4-23.1 51.6z" fill="#eb616e"/><path class="st1" d="M351.5 382.9c8.8 2.6 10.1 9.4 11.8 17.8 1.1 7.5 4.9 18.4 12.1 10.4 6-6 3.1-14.8 3.1-22.2 0-4.6.8-8.3-2.1-12.3-5-9-48.1-4.4-24.9 6.3z"/><path d="M261.4 362.8c42.3.2 84.4 10.5 82.7-48.2 7-60 3.8-72.6-59.5-73-61.5-2.2-67.2 17.5-64.9 73.5-2.6 33.9 5 50.8 41.7 47.7z" fill="#2daf80"/><path d="M241 362.9c42.3.2 84.4 10.5 82.7-48.2 7-60 3.8-72.6-59.5-73-61.5-2.2-67.2 17.5-64.9 73.5-2.9 33.3 5.4 51.3 41.7 47.7z" fill="#88c380"/><path d="M247.6 344.6c29.4.4 59.2 7.2 57.7-33.7 4.9-41.9 2.3-50.9-41.8-51-42.5-1.8-47.3 12.4-45.5 51.3-2.1 24 4 35.8 29.6 33.4z" fill="#a9d2a3"/><path d="M267.9 271.4c-1.9-5.4-9.9-3.7-9.5 1.2-6.3 16.4-10.8 33.7-18.3 49.5.7-1 1.9-2.2 3.4-2-11.4 4.1 3 21.3 9.5-4 6.2 0 12.6.6 18.6-1.3 1.4 4.3 2.8 8.5 4.3 12.7 2 5.8 11.4 3.3 9.3-2.6-6.3-17.6-11-35.8-17.3-53.5zm-11.3 35.1c2.3-6.2 4.5-12.7 6.7-18.9 1.9 6 3.7 12 5.6 18-4.1 1.1-8.3 1.1-12.3.9z" fill="#258c60"/><path class="st1" d="M286.3 265.3c8.8 2.6 10.1 9.4 11.8 17.8 1.1 7.5 4.9 18.4 12.1 10.4 6-6 3.1-14.8 3.1-22.2 0-4.6.8-8.3-2.1-12.3-5-9-48.1-4.4-24.9 6.3z"/><path d="M339.3 363.5c-54.4 13.5-38.9 102.3 70.9 32.7l-11-44.7-59.9 12z" fill="#f2f3f4"/><path class="st15" d="M379.2 359.8s-50.6 31.6-38 120.2c0 0 86 38 206.3-6.3 0 0-6.3-94.9-36.7-113.9H379.2z"/><path class="st1" d="M512.4 390.6c-24.3-32-96.9-3-76.4 39.2 17.8 32.6 91-11.1 76.4-39.2z"/><path class="st15" d="M570.3 185.7c54.4.2 54.4 87.2 0 87.4-54.4-.2-54.4-87.2 0-87.4zm-202.5-4.6c10.2 56.5 90.5 43.4 82.2-13.4-10.2-56.5-90.4-43.4-82.2 13.4z"/><path class="st1" d="M495.6 160.5s-146.8-51.9-178.4 101.2 237.9 163.2 261.9 46.8c24.1-116.4-83.5-148-83.5-148zM304.4 462.4c44.5 49 94.4 4.8 51.2-45.3-44.5-49-94.3-4.8-51.2 45.3zM445.3 489c5.3 45.2 117.5 20 108.1-21.2C548 427.9 434 445.4 445.3 489z"/><path class="st15" d="M434.2 314.9c0 22.4 24.3 37.3 44.2 37.3 20 0 34.9-12.7 34.9-35.1-7-52.6-77.8-69.6-79.1-2.2zm-41.8-28.2c2.5 34.5-58.4 48.2-61.5 8.2.9-41.7 55.2-60.3 61.5-8.2zm-2.9 45.5c-1.9 10.5 18.4 13.9 19.9 3.3 1.9-10.5-18.4-13.9-19.9-3.3z"/><path d="M413.4 353.4s-22.8 21.5-31.6-8.9" fill="none" stroke="#231f20" stroke-width="3.796" stroke-linecap="round" stroke-linejoin="round" stroke-miterlimit="10"/><path d="M373.5 288.3c.1 7.9-12.4 7.9-12.2 0-.1-7.9 12.3-7.9 12.2 0zm91.1 18.9c.1 7.9-12.4 7.9-12.2 0-.1-8 12.2-7.8 12.2 0z" fill="#e6e7e8"/><path class="st2" d="m395.9 129.5-5.8 35.1s45 47.5 111.7-1.5l-10.6-39.9-95.3 6.3z"/><path class="st4" d="M382.6 152.2c-1.6-8.3-.4-28.9-.4-29.1.2-2.9-4.3-3.2-4.5-.3-.1.9-1.2 21.3.5 30.3.5 2.9 5.1 1.9 4.4-.9z"/><path class="st5" d="m353.8 109.7.5 5.9 86.3 37.4 88.8-39.6-1-6.3c-49.1-7.7-125.2-2.2-174.6 2.6z"/><path class="st3" d="M388.8 156.5c1.1 11.1-16.3 12.7-17.2 1.6-1.1-11.1 16.4-12.7 17.2-1.6zm-34.7-46.4 81.8-33.9 92.9 30.8-87.6 38.4-87.1-35.3z"/></svg>