<svg xmlns="http://www.w3.org/2000/svg" viewBox="0 0 225 150"><path d="M99.15 28.72c-4.17 0-7.55 4.01-7.55 8.96s3.38 8.96 7.55 8.96 7.55-4 7.55-8.96-3.38-8.96-7.55-8.96Zm26.71 0c-4.17 0-7.55 4.01-7.55 8.96s3.38 8.96 7.55 8.96 7.55-4 7.55-8.96-3.38-8.96-7.55-8.96Zm69.75 69c-3.98-17.99-29.14-36.16-52.87-31.73-2.22.42-3.69 2.47-3.4 4.64-.19 1.99 1.09 3.88 3.12 4.41 19.5 5.09 30.65 28.52 27.61 41.1-.54 2.24.87 4.49 3.15 5.03.33.08.66.11.98.11 1.92 0 3.66-1.28 4.13-3.21 3.23-13.33-4.1-31.75-17.68-42.8 13.49 4.06 24.65 15.11 26.67 24.23.43 1.96 2.19 3.28 4.14 3.28.3 0 .6-.03.9-.1 2.29-.48 3.74-2.7 3.25-4.96ZM82.27 65.99C58.55 61.56 33.38 79.73 29.4 97.72c-.5 2.26.96 4.48 3.25 4.96.3.07.6.1.9.1 1.96 0 3.71-1.33 4.15-3.28 2.01-9.12 13.17-20.17 26.67-24.23-13.58 11.05-20.91 29.47-17.68 42.8.46 1.93 2.2 3.21 4.12 3.21.32 0 .65-.03.98-.11 2.28-.54 3.69-2.79 3.15-5.03-3.05-12.58 8.11-36.01 27.61-41.1a4.158 4.158 0 0 0 3.12-4.42c.29-2.16-1.18-4.21-3.4-4.63Zm30.24-10.4c-11.54 0-20.9 9.08-20.9 22.17 0 9.4 9.36 13.66 20.9 13.66s20.9-6.09 20.9-13.66c0-13.09-9.36-22.17-20.9-22.17Z"/></svg>