<?xml version="1.0" encoding="UTF-8"?><svg xmlns="http://www.w3.org/2000/svg" viewBox="0 0 500 500"><g isolation="isolate"><g id="b"><g id="c"><g><path d="M250,0C111.93,0,0,111.93,0,250s111.93,250,250,250,250-111.93,250-250S388.07,0,250,0Zm158.57,170.58c12.83-3.23,32.08,4.84,38.01,18.82-.37,6.4-.73,12-5.63,15.97-7.86,6.39-15.62,4.87-22.26,4.3-6.5-.56-14.89-1.18-19.53-5.46-14.17-13.04-6.5-29.62,9.41-33.63ZM193.91,40.99c15.62-3.95,25.8,19.52,8.43,26.33-8.2,3.22-27.11-4.27-30.65-13.82-4.13-11.19,13.84-19.51,22.21-12.51Zm-60.17,31.13c12.75-2.86,30.13-2.66,35.72,8.24,2.62,5.12,.41,12.93-4.55,16.27-9.28,6.25-36.49,5.69-44.64-1.37-2.91-2.51-3.28-5.48-3.53-6.25-3.25-10.43,6.52-14.53,17-16.88ZM421.36,350.78c-20.73,27.74-50.89,51.77-88.06,66.02-31.44,12.08-66.79,17.58-98.1,14.11-29.53-3.27-66.03-11.2-83.02-41.93-8.45-15.29-7.82-30.52-3.19-43,.82-2.18,11.52-18.4,10.41-20.47-.33-.62-11.03-1.66-15.1-2.47-16.03-3.22-32.07-8.97-44.27-15.3-26.69-13.85-60.28-49.91-61.3-86.14-1.68-60.26,95.06-103.72,151.65-107.33-9.97-31.43,35.55-40.01,59.74-40.02,30.08-.01,58.6,11.69,82.8,30.16,13.56,10.36,27.39,22.23,35.72,37.48,12.42,22.74,9.06,46.68-.4,64.21,25.92,8.38,47.26,18.37,64.62,44.96,24.23,37.13,9.49,71.65-11.49,99.72Z" fill="#a0f8b5" fill-rule="evenodd"/><g><g><path d="M322.79,301.15c11.45,25.74,38.38,47.65,66.37,50.89,9.34,1.08,20.96,1.91,24.56,10.59,3.64,8.79-4.57,18.04-13.03,22.39-14.54,7.47-32.19,8.63-47.58,3.12,7.93,3.56,35.71,22.2,24.8,40.17-10.91,17.97-66.06-11.42-66.06-11.42,0,0,16.1,41.32-10.42,43.32-26.52,2-43.89-36.81-43.89-36.81,0,0-23.76,35.01-43.57,33.23-19.81-1.79-19.81-19.22-14.4-42.02-13.17,9.78-45.9,27.22-61.38,15.14-15.47-12.09,16.9-40.58,20.52-51.48-22.42,5.47-54.35,4.48-54.35-16.31s20.1-19.28,32.75-22.18c23.32-5.34,44.55-19.32,58.67-38.63h127.01" fill="#efa3b5"/><g><path d="M159.53,377.59s4.7-2.37,7.23-3.95" fill="none" stroke="#a6425a" stroke-linecap="round" stroke-linejoin="round" stroke-width="2.5"/><path d="M200.07,413.9s2.37-2.37,3.63-3.95" fill="none" stroke="#a6425a" stroke-linecap="round" stroke-linejoin="round" stroke-width="2.5"/><path d="M352.47,387.01s-3.58-2.51-5.26-3.36" fill="none" stroke="#a6425a" stroke-linecap="round" stroke-linejoin="round" stroke-width="2.5"/><path d="M311.21,415.24s-6.1-5.49-6.31-6.55" fill="none" stroke="#a6425a" stroke-linecap="round" stroke-linejoin="round" stroke-width="2.5"/><line x1="257.54" y1="423.41" x2="257.54" y2="417.32" fill="none" stroke="#a6425a" stroke-linecap="round" stroke-linejoin="round" stroke-width="2.5"/></g><g><path d="M254.37,427.75c-.37-.19-.75-.36-1.14-.51-6.87-2.7-14.63,.68-17.33,7.55-1.58,4.01-1.07,8.32,.99,11.75,7.45-6.3,13.85-14.05,17.47-18.79Z" fill="#efd5db"/><path d="M231.99,449.6c-4.19-6.08-12.52-7.6-18.59-3.41-3.21,2.22-5.14,5.59-5.63,9.17,1.81,.63,3.86,1.07,6.2,1.28,6.01,.54,12.37-2.31,18.34-6.53-.11-.17-.2-.34-.31-.51Z" fill="#efd5db"/><path d="M273.47,430.9c-3.79-3.37-8.95-4.14-13.4-2.53,2.87,5.22,8.11,13.62,15.22,20.5,4.11-5.5,3.4-13.32-1.82-17.97Z" fill="#efd5db"/><path d="M291.73,446.85c-5.3-1.77-10.91-.02-14.34,3.97,6.53,5.72,14.45,9.9,23.45,9.42,.32-5.86-3.27-11.44-9.1-13.39Z" fill="#efd5db"/><path d="M400.83,371.55c-4.08,3.96-5.07,9.89-2.97,14.82,.95-.43,1.89-.88,2.82-1.35,6.58-3.38,12.97-9.72,13.8-16.5-4.61-1.58-9.92-.59-13.66,3.03Z" fill="#efd5db"/><path d="M104.37,362.24c.13,9.37,6.83,14.66,16.19,17.12,.09-.26,.18-.51,.25-.78,1.91-7.13-2.32-14.46-9.45-16.37-2.38-.64-4.77-.58-6.98,.03Z" fill="#efd5db"/><path d="M343.94,430c1.07-7.3-3.98-14.09-11.29-15.16-5.3-.78-10.31,1.68-13.08,5.88,6.11,2.87,15.1,6.77,24.3,9.63,.02-.12,.05-.23,.07-.34Z" fill="#efd5db"/><path d="M375.86,382c-4.29,1.6-7.26,5.18-8.28,9.32,8.37,.77,16.9-.19,24.88-2.84-3.03-6-10.15-8.88-16.6-6.47Z" fill="#efd5db"/><path d="M376.36,430.22c-2.35-4.71-7.38-7.78-12.96-7.37-5.72,.43-10.3,4.4-11.81,9.6,10.32,2.39,19.88,2.66,24.77-2.23Z" fill="#efd5db"/><path d="M151.47,379.75c-2.33-6.22-8.98-9.88-15.61-8.29-4.75,1.14-8.27,4.68-9.62,9.02,7.87,1.09,16.87,.66,25.24-.73Z" fill="#efd5db"/><path d="M192.92,418.84c-5.09-5.35-13.55-5.56-18.9-.48-3.35,3.18-4.68,7.68-3.96,11.91,8.4-2.95,16.62-7.26,23.01-11.26-.05-.06-.1-.12-.15-.18Z" fill="#efd5db"/><path d="M165.53,431.72c-2.51-6.83-10.03-10.42-16.93-8.02-3.79,1.32-6.59,4.18-7.98,7.63,6.68,3.62,15.71,3.02,24.91,.4Z" fill="#efd5db"/></g></g><g><g><path d="M368.29,209.75c-24.08-87.45-109.27-83.31-109.27-83.31,0,0-85.19-4.14-109.27,83.31-24.08,87.45,61.46,102.24,109.27,102.24,47.81,0,133.35-14.79,109.27-102.24Z" fill="#efa3b5"/><g mix-blend-mode="multiply" opacity=".3"><path d="M295.62,242.58c-.85,7.8,4.78,14.81,12.58,15.66,7.8,.85,14.81-4.78,15.66-12.58,.85-7.8-4.78-14.81-12.58-15.65-7.8-.85-14.81,4.78-15.65,12.58Z" fill="#efa3b5"/><path d="M222.47,242.61c.85,7.8-4.78,14.81-12.57,15.66-7.8,.85-14.81-4.78-15.66-12.57-.85-7.8,4.78-14.81,12.57-15.66,7.8-.85,14.81,4.78,15.66,12.57Z" fill="#efa3b5"/></g><circle cx="259.02" cy="243.54" r="19.42" fill="#efd5db"/><path d="M254.66,243.54c0,2.41,1.96,4.37,4.37,4.37s4.37-1.96,4.37-4.37-1.96-4.37-4.37-4.37-4.37,1.96-4.37,4.37Z" fill="#a6425a"/><path d="M236.54,224.37c-1.2,0-2.29-.82-2.58-2.04-1.44-6.03-5.36-6.5-6.52-6.5h0c-5.23,0-6.44,6.1-6.49,6.36-.27,1.44-1.65,2.39-3.09,2.13-1.44-.26-2.39-1.63-2.14-3.07,.66-3.71,3.96-10.72,11.72-10.72h0c4.42,0,9.82,2.78,11.68,10.57,.34,1.43-.54,2.86-1.96,3.2-.21,.05-.42,.07-.62,.07Z" fill="#a6425a"/><path d="M308.68,224.37c-1.2,0-2.29-.82-2.58-2.04-1.44-6.03-5.36-6.5-6.52-6.5h0c-5.23,0-6.44,6.1-6.49,6.36-.27,1.44-1.65,2.39-3.09,2.13-1.44-.26-2.39-1.63-2.14-3.07,.66-3.71,3.96-10.72,11.71-10.72h0c4.42,0,9.81,2.78,11.68,10.57,.34,1.43-.53,2.86-1.96,3.2-.21,.05-.42,.07-.62,.07Z" fill="#a6425a"/></g><g><path d="M166.5,144.71c2.42,23.85,26.22,25.77,47.85,29.48,21.63,3.71,51.29,.39,72.23-5.87,18.58-5.55,40.67-3.1,61.18-.59,0,0,22.01-28.69-15.83-47.86,0,0,18.45-30.32-28.53-50.97,0,0,20.68-37.63-43.33-48.49,0,0,13.61,18.03-4.08,29.98-17.69,11.94-69.16,3.99-62.62,47.58,0,0-29.29,22.89-26.87,46.74Z" fill="#efd5db"/><path d="M193.37,97.97s24.55-15.89,72.33,4.71" fill="none" stroke="#a6425a" stroke-linecap="round" stroke-linejoin="round" stroke-width="2.5"/><path d="M331.92,119.87s-35.8,13.08-65.72,4.2" fill="none" stroke="#a6425a" stroke-linecap="round" stroke-linejoin="round" stroke-width="2.5"/><path d="M303.39,68.9s-16.56-9.88-33.38-12.97" fill="none" stroke="#a6425a" stroke-linecap="round" stroke-linejoin="round" stroke-width="2.5"/><path d="M213.43,135.02c2.07-.16,5.21,12.33,5.21,12.33,0,0,12.82,1.09,12.98,3.25,.17,2.16-12.33,5.21-12.33,5.21,0,0-1.56,12.85-3.25,12.98-1.69,.13-5.21-12.33-5.21-12.33,0,0-12.8-.8-12.98-3.25s12.33-5.21,12.33-5.21c0,0,1.18-12.82,3.25-12.98Z" fill="#9f7aea"/><path d="M318.68,111.82c2.03,.42,1.6,13.29,1.6,13.29,0,0,12.02,4.59,11.58,6.71-.44,2.13-13.29,1.6-13.29,1.6,0,0-5.05,11.92-6.71,11.58-1.66-.34-1.6-13.29-1.6-13.29,0,0-12.07-4.31-11.58-6.71,.49-2.4,13.29-1.6,13.29-1.6,0,0,4.68-12,6.71-11.58Z" fill="#9f7aea"/><path d="M238.87,62.83c2.07-.2,5.44,12.23,5.44,12.23,0,0,12.84,.85,13.04,3.01,.21,2.16-12.23,5.44-12.23,5.44,0,0-1.32,12.88-3.01,13.04-1.69,.16-5.44-12.23-5.44-12.23,0,0-12.81-.57-13.04-3.01-.23-2.44,12.23-5.44,12.23-5.44,0,0,.94-12.84,3.01-13.04Z" fill="#9f7aea"/><path d="M221.19,114.43c0,2.25,1.82,4.07,4.07,4.07s4.07-1.82,4.07-4.07-1.82-4.07-4.07-4.07-4.07,1.82-4.07,4.07Z" fill="#efa3b5"/><path d="M282.75,154.05c0,2.25,1.82,4.07,4.07,4.07s4.07-1.82,4.07-4.07-1.82-4.07-4.07-4.07-4.07,1.82-4.07,4.07Z" fill="#efa3b5"/><path d="M270.31,35.06c0,2.25,1.82,4.07,4.07,4.07s4.07-1.82,4.07-4.07-1.82-4.07-4.07-4.07-4.07,1.82-4.07,4.07Z" fill="#efa3b5"/></g></g><g><g><path d="M250.42,276.7c-2.91-3.58-8.01-4.87-12.55-4.08-4.55,.79-8.6,3.36-12.1,6.36-17.72,15.19-24.12,41.84-44.41,53.38l26.51,40.04c12.32-8.41,21.45-20.85,28.06-34.22,6.61-13.37,11.48-24.65,15.72-38.95,1.92-6.48,3.04-17.28-1.22-22.54Z" fill="#efa3b5"/><g><path d="M221.72,345.3c-7.38,0-13.37,5.98-13.37,13.37,0,3.97,1.74,7.52,4.48,9.96,6.87-5.69,12.62-12.66,17.4-20.27-2.31-1.91-5.28-3.06-8.52-3.06Z" fill="#efd5db"/><path d="M237.06,318.09c-7.38,0-13.37,5.98-13.37,13.37,0,5.88,3.8,10.86,9.07,12.65,1.11-1.95,2.17-3.92,3.16-5.92,3.11-6.29,5.82-12.11,8.27-18.01-2.07-1.31-4.51-2.08-7.14-2.08Z" fill="#efd5db"/><path d="M248.45,287.78c-7.38,0-13.37,5.98-13.37,13.37,0,6.73,4.97,12.28,11.44,13.21,1.83-4.8,3.52-9.75,5.11-15.13,.87-2.93,1.57-6.74,1.68-10.52-1.51-.59-3.15-.93-4.87-.93Z" fill="#efd5db"/></g><path d="M181.36,332.36c20.29-11.55,26.68-38.19,44.41-53.38,3.5-3,7.56-5.57,12.1-6.36,4.55-.79,9.65,.5,12.55,4.08,4.26,5.25,3.15,16.05,1.22,22.54-4.24,14.3-9.11,25.58-15.72,38.95-6.61,13.37-15.74,25.81-28.06,34.22" fill="none" stroke="#a6425a" stroke-linecap="round" stroke-linejoin="round" stroke-width="2.5"/></g><g><path d="M289.61,294.22c-3.93-2.41-8.34-4.31-12.95-4.37-4.61-.06-9.45,2.01-11.75,6.01-5.43,8.42-.4,22.53,2.52,28.63,6.45,13.45,9.89,17.64,18.52,29.8,8.64,12.16,22.6,23,36.09,29.36l19.85-43.72c-21.86-8.2-32.38-33.5-52.28-45.7Z" fill="#efa3b5"/><g><path d="M302.71,359.67c-3.31,.57-6.12,2.31-8.09,4.73,6.3,6.25,13.74,11.79,21.31,16.08,1.93-2.78,2.82-6.28,2.2-9.88-1.25-7.28-8.15-12.16-15.43-10.92Z" fill="#efd5db"/><path d="M266.65,307.48c-1.41,.24-2.73,.7-3.93,1.33,.71,6.14,3.05,12.2,4.72,15.68,1.73,3.6,3.23,6.53,4.69,9.13,6.74-1.66,11.15-8.27,9.96-15.22-1.25-7.28-8.15-12.16-15.43-10.92Z" fill="#efd5db"/><path d="M291.05,360.64c5.24-2.52,8.4-8.28,7.37-14.29-1.25-7.28-8.15-12.16-15.43-10.92-2.95,.51-5.5,1.96-7.42,3.97,2.83,4.42,5.9,8.58,10.38,14.88,1.54,2.17,3.26,4.29,5.1,6.36Z" fill="#efd5db"/></g><path d="M341.89,339.92c-21.86-8.2-32.38-33.5-52.28-45.7-3.93-2.41-8.34-4.31-12.95-4.37-4.61-.06-9.45,2.01-11.75,6.01-5.43,8.42-.4,22.53,2.52,28.63,6.45,13.45,9.89,17.64,18.52,29.8,8.64,12.16,22.6,23,36.09,29.36" fill="none" stroke="#a6425a" stroke-linecap="round" stroke-linejoin="round" stroke-width="2.5"/></g></g></g></g></g></g></g></svg>