<svg version="1.1" id="Layer_1" xmlns="http://www.w3.org/2000/svg" x="0" y="0" viewBox="0 0 500 500" xml:space="preserve"><style>.st1{fill:#329e5e}.st2{fill:#2e3547}.st3{fill:#9b7ce0}.st4{fill:#a0beea}.st6{fill:#f2b946}</style><path d="M250 0C111.9 0 0 111.9 0 250s111.9 250 250 250 250-111.9 250-250S388.1 0 250 0zm-23.2 80.2c2.5 5.7-1 9.8-4.7 12.5-8.7 6.5-31.1 14.1-36 4.2-8.9-18 33.8-32.2 40.7-16.7zM136.6 369c-16.8 12.9-34.3-23.2-13.2-26.5 10.3-1.5 24 18.3 13.2 26.5zm61.7 52.6c-6.1 4.2-12.3 4.5-19.1 2.2-12.1-4-35.9-22.9-33.9-39.2.9-7.5 10.6-15.4 22.2-13.4 5.4.9 21.9 13.8 30.5 23.6 7.8 8.8 9.4 20.6.3 26.8zm206.9-100.1c-21.4 3.6-40.6-4.1-58-8 21.5 42.1 27.6 81.4-5.8 103.8-20 13.4-44.3 9.5-62.2 4.3-15.1-4.4-29.2-11.3-41.5-18.4-49.5-28.6-100.3-73.9-140-126.7-25.1-33.4-51.3-81.2-35.6-114.4 5.2-11.1 16.6-21.5 29.7-27.1 20.9-9 41.7-6.2 59.1-2.4 18.3 4.1 34.2 10.1 50.3 15.4 2.2-17 13.7-34 33.9-43 17.9-8 40-8.9 56.9-7.8 40.4 2.7 81.3 20 112.3 44.5 11.5 9.1 27.8 24 23.8 42.7-2.4 11.1-10.2 19.3-24.2 25.6 18.4 19.5 45.9 55.7 36.9 84.1-4.6 14.6-18.2 24.6-35.6 27.4z" fill-rule="evenodd" clip-rule="evenodd" fill="#a0f8b5"/><path class="st1" d="M451.6 314.6c33-12.2 6.4-60.3-21.5-39.6 3.3-38.7-55.7-43.2-56.1-4.7-6.5-13.5-36.2 5.9-26 17-22.9-22.4-56.5 9.7-36.9 37.9-19 15-12.9 31.2-1 36 8.8 3.5 22-3 22-3-1.3 22.3 20.4 33.1 39.9 12-5 30.7 42.2 25.1 42.5-1 4.9 13.1 22.7 9.4 23.8-4.4 24.1 11.6 45.8-45.7 13.3-50.2z"/><path class="st2" d="M136.1 321.2c4.8-23.4-34.5 113.6 7.5 86.9 0 0 1.5 35.2 12 38.2s28.5-31.5 28.5-31.5 6.2 8.9 16.5 6.7c21.7-4.5 33.7-86.9 33.7-86.9 0 .1-98.2-13.4-98.2-13.4zm192.5-162.8c17.4 6 45.1 219.4-27.5 89.9"/><path class="st3" d="M164.9 124.5s-13-91.9 81.9-91.9c87.9 0 83.9 86.9 81.9 125.8s49.9 197.7-105.9 208.7C100.6 375.8 82 255.3 164.9 124.5z"/><path class="st2" d="M176.3 202.4c-8-37.9-26-53.9-26-53.9-88.1 59.9-61.9 295.1-38.9 133.8 0 0 4 36 16 31s18-45.9 18-45.9c16.5 62.6 42.1-30.1 30.9-65zm55-94.7c-2.7-65.1-96.4-13.7-118.8-42.2-4.9 61.4 100.5 25.3 118.8 42.2z"/><path class="st4" d="M193.3 87.5c58.3-.9 58.3 90.7 0 89.9-58.3.9-58.3-90.7 0-89.9z"/><path class="st2" d="M202.5 125c-9.3 33.3-23.8-20.1-28.4 3 21.3 48 53.7-18.8 28.4-3zm53.7-17.3c2.7-65.1 96.4-13.8 118.8-42.2 4.8 61.4-100.5 25.3-118.8 42.2z"/><path class="st4" d="M294.2 87.5c58.3-.9 58.3 90.7 0 89.9-58.3.9-58.3-90.7 0-89.9z"/><path class="st2" d="M284.5 124.5c9.3 33.3 23.8-20.1 28.4 3-21.3 48-53.7-18.8-28.4-3z"/><path class="st4" d="M334.8 260.6c-10.4-35.1-36.6-57.8-84.5-54.2-87.5 6.5-84.9 103.1-76.9 155.9 86.6 24.6 163.9-31 161.4-101.7z"/><path d="M227.8 160.9s21-14 33.4 2.5c-4.3 31.1-32.7 27.6-33.4-2.5z" fill="#faf089"/><path class="st6" d="M354.7 319.2c-41 24.1-304.5 44.3-303.9 46-2 21 13 26 13 26-9.2-9.5 261.2-28.3 289.1-49.6.1-7.4.8-14.9 1.8-22.4z"/><path class="st3" d="M204.1 335.4c22.9-6.3 39.9 68.6 7.2 34-.5 24.6-21.6 21.2-20.5.5-15 34-28.4-36.7 13.3-34.5zm77.6-6c-30.2-1.3-18.4 67.3.7 33.3 3.9 24.8 24.2 7.6 20.2-6 11.2 37.2 30.4-28.4-20.9-27.3z"/><path class="st6" d="M338.1 332.2c10.3-9.3 66.4-47.2 78.9-55.9l4 22-41.9 27 61.9 1-4 16-84.1-.5-18.8-12.5"/><path d="M297.2 248.1c-18.2 23.6-25-1-32.4 3.3-26.3 22.5-23.5-9.8-34.5.6-3.1 10.7-19.2 13.3-19.6.1 0-5.8-9-5.6-9 .1-1.5 17.6 24.7 23.7 32.9 9.7 9.2 11 23.6 9.3 32.1-.8 11.8 10.8 31.7 5.9 38.3-8.8 3.3-4.6-4.6-9-7.8-4.2zm-.9 39.9c-18.2 23.6-25-1-32.4 3.3-26.3 22.5-23.5-9.8-34.5.6-3.1 10.7-19.2 13.3-19.6.1 0-5.8-9-5.6-9 .1-1.5 17.6 24.7 23.7 32.9 9.7 9.2 11 23.6 9.3 32.1-.8 11.8 10.8 31.7 5.9 38.3-8.8 3.2-4.6-4.6-9-7.8-4.2z" fill="#6f738b"/><path class="st1" d="M371.1 251.3s-19-39.9 12-53.9c0 0 12.9 34.9-12 53.9zm65.9 8s13-26 39-12c-.1 0-16 18-39 12zm-94.9 153.8s7-28 27-22c0 0-1 22-27 22z"/></svg>