<?xml version="1.0" encoding="UTF-8"?><svg id="b" xmlns="http://www.w3.org/2000/svg" viewBox="0 0 500 500"><g id="c"><g><path d="M250,0C111.93,0,0,111.93,0,250s111.93,250,250,250,250-111.93,250-250S388.07,0,250,0Zm-23.17,80.19c2.53,5.67-.99,9.76-4.66,12.49-8.72,6.46-31.05,14.07-35.96,4.25-9.01-18.01,33.71-32.24,40.62-16.74Zm-90.24,288.86c-16.76,12.87-34.26-23.17-13.2-26.47,10.3-1.6,24.02,18.17,13.2,26.47Zm61.72,52.57c-6.07,4.19-12.34,4.48-19.12,2.21-12.09-4.03-35.89-22.94-33.87-39.23,.93-7.53,10.55-15.37,22.21-13.4,5.4,.9,21.94,13.75,30.51,23.58,7.74,8.87,9.33,20.61,.27,26.84Zm206.85-100.09c-21.38,3.56-40.59-4.07-58.01-8.01,21.55,42.06,27.65,81.38-5.79,103.79-19.98,13.39-44.32,9.51-62.16,4.33-15.09-4.39-29.19-11.27-41.46-18.38-49.46-28.61-100.28-73.85-140.02-126.7-25.08-33.35-51.26-81.19-35.57-114.4,5.25-11.11,16.61-21.48,29.68-27.12,20.91-9.01,41.71-6.25,59.11-2.36,18.3,4.08,34.17,10.05,50.29,15.44,2.18-16.96,13.68-34.01,33.89-43.04,17.92-7.98,39.96-8.94,56.87-7.8,40.37,2.7,81.3,19.95,112.33,44.5,11.45,9.06,27.77,23.96,23.76,42.69-2.4,11.08-10.16,19.32-24.16,25.55,18.35,19.48,45.91,55.7,36.94,84.06-4.62,14.6-18.28,24.57-35.68,27.46Z" fill="#a0f8b5" fill-rule="evenodd"/><g><g><path d="M414.99,192.98c11.82,3.19,17.58-10.71,11.29-19.19,1.87-1.52,3.7-2.58,4.5-4.58,2.99-7.48-4.28-15.33-9.86-16.79,1.56-3.47,3.36-6.97,2.71-10.81-.82-4.83-6.32-8.94-12.89-6.7-5.91,2.02-8.86,6.02-12.12,9.93-10.02,12.01-19.3,21.98-32.16,32.86-11.44,9.67-25.02,18.54-39.86,26.43-2.7,1.43-4.46,2.25-7.53,3.62-1.93,.86-6.68,2.25-7.27,3.85-.56,1.53,.36,2.48,.31,3.41-.09,1.69-.76,2.93-.82,4.49-.39,9.4,3.44,19.42,8.19,25.54,4.57,5.88,10.42,9.15,18.97,8.85,5.4-.18,11.02-1.71,15.92-3.15,14.24-4.18,27.42-9.1,36.14-18.72,4.9-5.41,8.83-12.64,12.77-19.08,4.16-6.8,8.33-13.32,11.71-19.96Z" fill="#1f1f1f" fill-rule="evenodd"/><path d="M395.04,208.77c-2.24-.2-3.4,2.56-4.96,4.87-1.39,2.05-3.33,4.02-2.38,6.36,.29,.72,1.68,1.5,2.35,1.51,2.22,0,3.37-2.8,4.5-4.58,.91-1.44,5.55-7.7,.49-8.15Z" fill="#e8f9f1" fill-rule="evenodd"/><path d="M381.33,211.97c-2.74-.74-3.61,2.04-5.54,3.94-1.7,1.67-3.47,2.6-3.28,4.47,.06,.59,.69,2.06,1.68,2.3,2.27,.57,4.25-1.52,5.85-3.23,1.36-1.45,5.41-6.37,1.29-7.48Z" fill="#e8f9f1" fill-rule="evenodd"/><path d="M381.26,227.45c-1.6-.24-3.79,1.2-5.69,2.23-1.39,.75-2.91,1.71-4.67,2.63-2.83,1.48-8.55,3.22-8.29,6.15,.51,5.62,9.47-.25,11.18-1.25,2.04-1.19,3.59-2.01,5.61-3.2,1.67-.99,4.31-2.35,4.3-4.07-.01-1.67-1.1-2.28-2.43-2.48Z" fill="#e8f9f1" fill-rule="evenodd"/></g><g><path d="M81.98,231.94c-11.06,5.26-19.21-7.39-14.54-16.87-2.11-1.16-4.1-1.87-5.24-3.7-4.27-6.83,1.48-15.85,6.71-18.29-2.15-3.14-4.55-6.25-4.6-10.15-.06-4.9,4.62-9.93,11.48-8.89,6.18,.93,9.79,4.34,13.7,7.61,12.01,10.02,22.91,18.18,37.51,26.58,12.99,7.47,27.93,13.77,43.94,18.89,2.91,.93,4.78,1.42,8.06,2.22,2.06,.5,6.97,1.02,7.84,2.49,.83,1.4,.1,2.51,.31,3.41,.39,1.64,1.27,2.75,1.61,4.28,2.07,9.17,.09,19.72-3.5,26.6-3.45,6.6-8.62,10.86-17.09,12.1-5.34,.78-11.14,.28-16.23-.26-14.76-1.57-28.6-4.06-38.9-11.97-5.79-4.45-10.95-10.86-15.98-16.49-5.31-5.94-10.57-11.62-15.09-17.55Z" fill="#1f1f1f" fill-rule="evenodd"/><path d="M104.43,243.91c2.16-.6,3.8,1.91,5.75,3.9,1.74,1.77,3.99,3.36,3.47,5.82-.16,.76-1.38,1.79-2.04,1.91-2.18,.4-3.82-2.15-5.24-3.7-1.15-1.25-6.83-6.58-1.94-7.93Z" fill="#e8f9f1" fill-rule="evenodd"/><path d="M118.48,244.61c2.57-1.22,3.91,1.36,6.15,2.88,1.97,1.33,3.88,1.94,4.03,3.81,.05,.6-.31,2.15-1.25,2.57-2.14,.97-4.45-.73-6.33-2.13-1.6-1.19-6.47-5.3-2.61-7.14Z" fill="#e8f9f1" fill-rule="evenodd"/><path d="M121.33,259.83c1.53-.53,3.94,.5,6,1.18,1.5,.49,3.17,1.16,5.07,1.75,3.04,.94,8.99,1.64,9.26,4.57,.51,5.62-9.37,1.44-11.23,.76-2.22-.8-3.89-1.34-6.09-2.15-1.82-.68-4.66-1.55-4.95-3.24-.29-1.65,.67-2.43,1.95-2.87Z" fill="#e8f9f1" fill-rule="evenodd"/></g><g><path d="M320.16,406.45c16.51-10.12,28.49-22.93,35.87-40.81,7.3-17.71,10.48-39.72,4.48-64.75-5-20.87-14.79-38.83-23.07-57.11-8.34-18.4-17.54-36.43-22.85-57.38,.03-.44-.28-.48-.27-.22-7.91,8.98-16.67,15.29-28.61,20.5-3.98,1.74-8.29,2.42-12.92,3.86-1.87,.59-3.47,1.74-5.45,2.21-2.58,.6-5.54,.32-8.26,.99-2.19,.54-2.97,1.77-5.2,2.19-3.56,.68-7.61,.4-11.27,.28-21.47-.7-40.41-3.5-58.99-8.69-1.07-.3-3.04-.59-4.54-1.31-1.89-.91-2.54-2.25-3.81-1.38-1.11,.76-.59,3.84-.43,6.18,.45,6.46,.49,13.57,.52,19.35,.03,8.42-.18,17.39-1,24.41-3.67,31.42-17.52,52.67-19.07,85.46-.81,17.15,3.14,34.79,9.62,46.78,3.06,5.67,7.73,10.8,12.23,15.85,4.65,5.21,9.42,9.18,15.09,12.14,11,5.76,28.1,6.9,43.27,8.63,3.84,.44,7.65,1.06,11.45,1.67,3.57,.59,7.05,1.78,10.54,2.49,7.33,1.51,14.47,3.23,22.19,3.65,21.35,1.17,37.59-7.21,40.48-25.01Z" fill="#e8f9f1" fill-rule="evenodd"/><g><path d="M191.9,244.85c-.89,1.26-1.29,3.09-2,5.09-.64,1.82-1.91,3.84-1.2,5.76,.46,1.26,2.26,1.96,3.8,1.38,1.45-.55,2.1-3.34,2.53-4.65,.89-2.73,2.89-9.57-3.14-7.58Z" fill="#1f1f1f" fill-rule="evenodd"/><path d="M184.82,269.8c-2.66-.39-3.14,2.78-3.95,5.27-.34,1.03-1.25,3.19-1.77,4.83-1.26,3.93-4.32,12.1,.37,12.25,3.48,.1,3.62-5.53,4.79-9.52,.56-1.9,1.18-3.38,1.73-5.31,.8-2.79,2.17-7.02-1.16-7.51Z" fill="#1f1f1f" fill-rule="evenodd"/><path d="M196.83,285.91c2.77-1.92,3.3-12.4-2.72-8.35-.95,2.49-2.96,9.62,2.72,8.35Z" fill="#1f1f1f" fill-rule="evenodd"/><path d="M188.29,300.19c-2.84-.31-2.92,2.3-3.42,5.71-.44,3.02-1.18,7.7,2.83,6.87,1.45-.3,2.19-2.11,2.53-4.65,.45-3.38,1.34-7.58-1.94-7.93Z" fill="#1f1f1f" fill-rule="evenodd"/><path d="M173.13,311.87c-.92,2.74-2.7,12.52,2.07,12.09,2.51-.23,2.3-2.35,2.44-5.62,.08-1.82,.57-3.97,.27-5.18-.55-2.2-2.65-3.11-4.78-1.29Z" fill="#1f1f1f" fill-rule="evenodd"/></g><g><path d="M329.32,260.62c-.81,.03-2.32,.54-2.55,2.06-.19,1.26,1.06,3.35,1.82,4.86,1.39,2.8,3.26,6.27,4.53,9.27,1.29,3.06,1.52,5.22,4.07,4.87,4.8-.67,1.12-7.21-.57-10.64-.85-1.71-1.75-3.79-2.74-5.66-1.2-2.26-2.32-4.83-4.55-4.77Z" fill="#1f1f1f" fill-rule="evenodd"/><path d="M321.02,287.98c-3.27-.28-2.93,2.22-2.67,6.09,.21,3.07,.29,6.58,3.32,6.04,2.92-.53,2.66-7.08,1.74-10.39-.26-.93-1.31-1.64-2.38-1.73Z" fill="#1f1f1f" fill-rule="evenodd"/><path d="M337.78,313.1c6.11,1.5,3.93-5.95,3.06-11.18-.17-.99-.03-2.18-.39-2.92-.88-1.82-3.73-2.11-4.85-.44-.98,1.46,.21,6.41,.5,9.15,.2,1.87,.26,4.11,1.68,5.39Z" fill="#1f1f1f" fill-rule="evenodd"/></g></g><g><path d="M332.1,399.97c-.08,2.63-.63,5.4,.46,7.82,2.01,4.47,8.7,6.06,13.97,2.43,.75,4.12,1.13,6.4,3.18,8.06,6.35,5.13,16.61-4.52,20.54-9.22,8.65-10.37,12.42-22.26,14.51-37.9,1.13-8.4,1.46-16.38,.22-24.83-1.57-10.76-6.19-20.86-11.96-26.43-3.51-3.39-10.04-6.98-16.05-6.41-8.11,.77-13.05,4.41-16.15,8.82-5.17,7.37-5.52,18.56-3.3,31.49,.62,3.61,2.5,8.61,1.61,12.38-.56,2.35-4.91,5.05-7.47,7.06-2.54,2-5.58,4.08-7.49,6.81-4.78,6.83-5.27,23.37,7.93,19.92Z" fill="#1f1f1f" fill-rule="evenodd"/><g><path d="M346.46,326.4c-3.85-.69-3.44,4.64-2.64,8.83,.53,2.8,1.91,4.56,4.05,4.05,2.71-.64,1.55-3.92,1.05-7.46-.41-2.87,.03-4.98-2.46-5.42Z" fill="#e8f9f1" fill-rule="evenodd"/><path d="M363.57,336.4c-.83-.15-1.68-.2-2.42,.46-1.94,1.75,.07,13.08,4.51,9.17,1.27-1.12,.73-7.63-.57-9.03-.26-.28-.92-.49-1.53-.6Z" fill="#e8f9f1" fill-rule="evenodd"/><path d="M353.82,348.09c-6.21-2.26-3.95,5.49-3.02,10.1,.77,3.82,1.27,7.96,4.6,7.44,4.12-.64,1.2-6.04,.34-9.85-.7-3.11-.57-6.08-1.92-7.69Z" fill="#e8f9f1" fill-rule="evenodd"/></g></g><g><path d="M309.13,428.56c8.99,1.97,16.06-4.95,12.75-13.92,.98-1.25,2.46-1.56,3.45-2.52,4.4-4.26,2.15-12.12-2.22-16.5-3.25-3.26-8.37-5.17-12.95-7.43-2.23-1.1-4.45-2.33-6.69-3.33-2.44-1.09-4.97-1.83-6.91-3.06-1.73-1.1-3.27-2.9-4.82-4.48-10.39-10.54-21.99-20.51-34.52-28.82-14.24-9.44-30.31-18.56-52.71-18.09-8.51,.18-15.06,1.89-20.78,3.83-6.13,2.08-11.35,4.49-15.75,7.81-8.25,6.21-14.99,15.99-14.75,29.81,.27,15.81,7.99,26.04,16.49,33.14,8.3,6.93,19.38,12.74,31.57,15.09,6.76,1.3,13.62,1.48,20.33,2.1,13.94,1.3,27.11,2.25,39.54,5.52,3,.8,5.9,1.82,8.83,2.65,3.18,.89,6.36,1.2,9.28,2.11,1.63,.51,3.05,1.56,4.63,2.28,4.1,1.89,10.31,4.12,16.72,2.92,5.18-.98,8.38-3.83,8.51-9.12Z" fill="#1f1f1f" fill-rule="evenodd"/><g><path d="M225.63,341.28c-1.68-.16-3.56,.58-3.45,2.52,.13,2.55,5.87,4.61,7.88,5.67,1.35,.72,2.73,1.44,4.38,2.31,1.44,.76,3.27,1.88,4.81,1.53,1.12-.26,2.23-1.77,2.22-2.66-.03-2.36-5.53-4.68-7.13-5.5-2.49-1.27-5.5-2.94-8.21-3.93-.13-.05-.35,.06-.49,.04Z" fill="#e8f9f1" fill-rule="evenodd"/><path d="M232.9,359.29c-.74-.02-2.63,.05-2.75,2.21-.14,2.64,2.99,3.58,4.6,4.74,1.51,1.09,3.52,3.54,5.69,3.17,1.13-.19,2.2-1.4,2.24-2.41,.08-1.93-2.45-3.34-3.83-4.32-2.08-1.47-3.67-3.34-5.96-3.39Z" fill="#e8f9f1" fill-rule="evenodd"/><path d="M254.61,360.28c-.83-.06-2.99,.34-2.97,2.48,.03,2.26,3.62,4.31,4.64,5.23,1.16,1.03,3.45,4.09,5.51,3.92,.96-.08,2.35-1.01,2.5-2.19,.27-2.11-2.19-4.08-3.94-5.54-1.89-1.58-3.82-3.77-5.75-3.9Z" fill="#e8f9f1" fill-rule="evenodd"/></g></g><g><g><path d="M280.19,11.69c-.49-8.1-8.19-1.6-10.9,1.71-3.16,3.88-5.53,9.12-6.17,13.32,1.14,.94,2.83,1.58,4.38,2.31,21.46,10.15,37.16,29,49.94,50.03,8.13-1.19,13.7-6.32,17.59-11.9,4.78-6.86,8.34-15.2,6.4-27.1-2.87-17.66-17.6-29.96-35.8-29.44,.19-1.87,1.95-3.59,1.18-6-.66-2.04-2.73-3.13-5.65-2.68-7.55,1.15-16.68,6.83-20.98,9.75Z" fill="#1f1f1f" fill-rule="evenodd"/><path d="M284.13,47.19c1.01,.41,2.22,0,2.63-.73,2.32,3.76,6.44,8.08,10.89,11.79,4.19,3.5,9.42,6.87,14.87,7.01,5.44,.14,13.47-3.31,10.66-9.8-1.9-4.41-9.03-5.76-14.55-6.06,2.19-3,7.41-5.63,7.12-10.95-.28-5.15-5.57-7.65-10.73-7.39-6.34,.33-14.12,4.36-17.72,7.74-2.08,1.95-4.78,5.11-3.18,8.39Z" fill="#e1947e" fill-rule="evenodd"/></g><g><path d="M161.21,38.53c-1.93-7.87,7.35-3.96,10.91-1.6,4.17,2.77,7.99,7.07,9.85,10.9-.81,1.23-2.23,2.34-3.5,3.5-17.47,16.06-26.87,38.73-32.82,62.6-8.12,1.27-14.96-1.97-20.34-6.14-6.6-5.13-12.47-12.04-14.16-23.98-2.5-17.72,7.91-33.84,25.45-38.75-.74-1.73-2.93-2.85-2.91-5.38,.02-2.14,1.67-3.8,4.59-4.24,7.55-1.14,17.95,1.57,22.93,3.08Z" fill="#1f1f1f" fill-rule="evenodd"/><path d="M168,73.6c-.85,.69-2.12,.66-2.73,.09-1.1,4.28-3.75,9.62-6.89,14.49-2.96,4.58-6.95,9.36-12.12,11.12-5.15,1.75-13.84,.84-13.09-6.19,.51-4.77,6.91-8.18,12.09-10.11-2.99-2.22-8.74-3.17-10.05-8.35-1.26-5,3.05-8.96,8.06-10.24,6.16-1.57,14.77-.03,19.22,2.12,2.57,1.24,6.08,3.46,5.53,7.07Z" fill="#e1947e" fill-rule="evenodd"/></g><path d="M326.22,86.38c-8.09-14.89-17.55-29.45-29.51-41.3-11.77-11.67-25.17-21.6-47.31-20.79-19.88,.73-36.54,4.95-52.18,9.61-15.96,4.75-28.03,12.29-35.47,23.33-2.99,4.44-5.39,9.59-7.54,14.43-5.49,12.32-8.99,26.7-10.93,42.24-.37,2.94-.27,6.25-1.13,9.19-.29,.98-.22,1.06-.82,1.79-5.61,6.84-10.55,14.08-12.58,23.97-5.2,25.38,12.65,43.86,27.04,52.09,6.38,3.65,13.41,6.03,21.32,7.66,2.46,.51,5.26,.49,7.97,1.25,2.72,.77,5.24,2.64,7.7,3.73,7.49,3.33,16.2,5.92,25.93,7,12.49,1.39,29.64-.17,42.46-3.09,23.36-5.31,41.12-15.33,54.08-29.43,.89-.97,2.07-1.88,2.92-2.97,.89-1.13,1.39-2.38,2.42-3.16,1.02-.78,2.41-1.1,3.52-1.79,7.06-4.39,13.83-10.09,18.88-16.68,5.61-7.32,10.51-15.25,12.34-26.65,1.99-12.43-1.32-24.48-6.88-32.78-5.52-8.25-12.47-13.06-22.22-17.65Z" fill="#e8f9f1" fill-rule="evenodd"/><path d="M182.28,208.88c1.01,1.82,3.64,2.45,5.47,3.44,1.9,1.02,3.69,2.4,5.69,3.17,2.38,.92,5.4,1.55,8.3,2.2,8.1,1.82,17.68,3,27.08,3.45,13.48,.65,27.23-1.18,40.13-4.35,11.49-2.83,22.7-6.86,31.68-13.66,6.18-4.69,12.01-9.9,17.26-15.55,1.85-1.99,3.93-4.1,4.86-6.09,.11-.25,.13-.13-.04-.49-.2-.03-.27-.22-.51-.2-24.56,17.25-60.76,31.99-103.72,31.93-6.69,0-13.08-.23-19.24-.97-6.04-.73-11.67-1.99-16.96-2.89Z" fill="#1f1f1f" fill-rule="evenodd"/><g><g><path d="M243.61,36.35c-1-.07-2.55,.42-2.77,1.97-.22,1.55,.97,2.73,1.86,4.25,1.3,2.24,2.6,6.32,5.68,5.88,4.26-.61,1.16-4.95-.43-7.57-1.47-2.41-2.03-4.37-4.34-4.52Z" fill="#1f1f1f" fill-rule="evenodd"/><path d="M274.11,53.25c.04-2.34-1.33-3.88-2.72-5.65-1.22-1.57-2.6-3.75-3.8-4.08-2.02-.56-3.7,1.08-3.7,2.54,0,1.22,2.34,4.2,3.18,5.36,1.86,2.56,4.86,5.24,7.04,1.82Z" fill="#1f1f1f" fill-rule="evenodd"/><path d="M240.28,51.14c-5.76-1.56-3.77,12.49,1.43,10.43,2-.79,1.19-3,.71-5.72-.46-2.63-.34-4.23-2.14-4.72Z" fill="#1f1f1f" fill-rule="evenodd"/></g><g><path d="M194.46,46.91c-2.63-.12-2.71,2.54-3.13,6.18-.31,2.75-.81,5.97,1.1,6.78,3.33,1.41,4.09-1.94,4.43-5.31,.37-3.6,.95-7.49-2.41-7.64Z" fill="#1f1f1f" fill-rule="evenodd"/><path d="M177.84,61.43c-2.81-.93-3.6,1.61-4.81,3.87-1.1,2.07-3.42,7.24,.88,7.04,2.28-.11,8.3-9.46,3.93-10.91Z" fill="#1f1f1f" fill-rule="evenodd"/><path d="M208.25,60.9c-4.78-1.51-4.99,8.16-1.47,8.24,3.48,.08,4.75-7.2,1.47-8.24Z" fill="#1f1f1f" fill-rule="evenodd"/></g><g><path d="M339.2,102.4c-1.1-.13-2.83,0-2.99,2.23-.13,1.81,1.5,3.29,2.63,4.68,1.27,1.57,2.46,2.88,4.16,2.57,1.17-.21,2.25-1.36,2.21-2.66-.03-1.26-4.17-6.38-5.29-6.89-.17-.08-.54,.09-.73,.06Z" fill="#1f1f1f" fill-rule="evenodd"/><path d="M339.72,119.06c-3.84-.58-2.9,3.25-2.02,7.55,.67,3.27,.87,6.83,4.22,6,1.81-.44,2.13-2.78,1.71-5.56-.54-3.58-1.36-7.61-3.91-7.99Z" fill="#1f1f1f" fill-rule="evenodd"/><path d="M340.08,139.41c-1.42-1.45-3.8-1.17-4.63,.42-.52,1-.27,3.99-.4,6.42-.2,3.62-1.47,8.66,2.47,8.37,4.64-.33,2.97-10.97,2.56-15.21Z" fill="#1f1f1f" fill-rule="evenodd"/></g><g><path d="M144.59,150.38c-3.34-.85-3.25,1.83-3.7,5.25-.39,2.93-1.33,6.91,1.63,7.22,3.19,.34,3.09-2.5,3.44-5.47,.38-3.31,1.59-6.25-1.37-7Z" fill="#1f1f1f" fill-rule="evenodd"/><path d="M155.49,178.62c.47-1.79-.28-3.81-.79-6.06-.31-1.39-.49-4.49-1.7-5.25-.98-.63-2.83-.51-3.65,.33-1.15,1.18-.23,5.79,.19,7.6,.93,3.96,3.1,6.42,5.96,3.39Z" fill="#1f1f1f" fill-rule="evenodd"/><path d="M163.87,184.5c-.04,1.8,.86,3.91,1.75,5.74,1.3,2.68,2.16,5.36,6.06,4.61,2.54-2.03,.48-3.79-1.1-6.78-.78-1.47-1.36-3.82-2.12-4.47-1.59-1.36-3.59-.77-4.59,.9Z" fill="#1f1f1f" fill-rule="evenodd"/></g></g><g><path d="M264.74,63.67c-11.93,.55-18.77,9.12-17.96,21.51,.83,12.6,6.52,21.71,12.95,29.29,6.62,7.79,15.14,14.43,23.15,17.07,3.6,1.19,7.9,1.89,12.16,1.36,7.7-.96,13.17-5.44,17.26-10.15,5.01-5.77,10.91-16.82,4.96-26.73-1.95-3.24-6.18-6.94-9.69-9.44-3.83-2.72-8.39-4.58-11.91-6.78-3.66-2.29-7.19-5.34-10.8-8.11-3.48-2.68-7.41-5.65-11.44-7.07-2.28-.81-5.46-1.09-8.68-.94Z" fill="#1f1f1f" fill-rule="evenodd"/><path d="M196.86,76.01c11.63-2.75,20.55,3.61,23.17,15.75,2.66,12.35-.31,22.67-4.41,31.72-4.22,9.31-10.59,18.03-17.57,22.77-3.14,2.13-7.08,3.99-11.32,4.65-7.67,1.19-14.16-1.62-19.38-5.02-6.41-4.17-15.11-13.17-12.11-24.34,.98-3.65,4.03-8.37,6.72-11.74,2.93-3.67,6.81-6.71,9.59-9.79,2.89-3.21,5.45-7.11,8.16-10.77,2.61-3.53,5.57-7.47,9.06-9.94,1.97-1.4,4.95-2.55,8.09-3.29Z" fill="#1f1f1f" fill-rule="evenodd"/><g><path d="M227.63,153.46c1.17-1.94,1.34-4,4.04-4.29,4.89-.52,4.74,6.83,7.67,8.88,3.88,2.72,10.52-.27,11.46-3.73,1.01-3.73-1.27-8.46,2.82-9.58,3.08-.85,3.42,.81,5.36,2.22,11.83,.15,6.87-17.27,.46-19.45-1.71-.58-5.46-.44-7.9-.52-9.49-.28-27.34,4.55-31.87,8.77-.38,.35-1.4,1.63-1.75,2.37-2.74,5.78,.7,19.74,9.73,15.33Z" fill="#1f1f1f" fill-rule="evenodd"/><path d="M249.11,179.28c5.59,4.54,15.28,8.08,23.83,2.77,.99-.62,2.6-1.9,3.21-2.5,2.42-2.35,6.78-8.16,5.5-12.53-.65-2.23-4.14-4.12-7.1-2.55-2.14,1.14-2.17,3.71-3.64,5.98-1.55,2.38-5.55,5.08-9.95,4.09-2.9-.66-5.72-2.96-7.35-5.23-1.84-2.58-2.17-6.12-5.97-6.34-6.45-.37-5.42,5.67-6.5,9.67-1.12,4.15-5.07,9.99-11.76,8.43-1.74-.41-3.49-1.59-4.92-2.75-1.46-1.18-2.55-2.78-4.67-2.77-2.94,.01-4.89,2.41-5.01,4.38-.23,3.7,3.45,6.32,6.13,8.05,2.89,1.86,6.39,3.21,9.87,3.28,10,.22,15.38-6.13,18.33-11.96Z" fill="#e1947e" fill-rule="evenodd"/><path d="M189.71,105.79c9.81-3.53,17.17,3.83,19.69,8.22,.98,1.71,.39,3.89-1.31,4.87-1.71,.97-3.88,.4-4.86-1.3-.2-.34-4.5-7.46-11.1-5.08h0c-1.47,.54-6.2,2.91-5.29,11.19,.22,1.96-1.19,3.73-3.15,3.94-1.96,.21-3.72-1.2-3.94-3.15-1.19-10.69,4.37-16.66,9.96-18.68h0Z" fill="#e8f9f1"/><path d="M278.08,89.71c10.4-.79,15.53,8.27,16.79,13.17,.49,1.9-.66,3.85-2.57,4.34-1.91,.48-3.84-.65-4.34-2.55-.1-.38-2.35-8.39-9.34-7.85h0c-1.56,.12-6.75,1.15-8.07,9.37-.31,1.95-2.14,3.28-4.09,2.95-1.95-.31-3.27-2.14-2.96-4.08,1.71-10.63,8.65-14.9,14.58-15.36h0Z" fill="#e8f9f1"/></g></g></g></g></g></g></svg>