<svg xmlns="http://www.w3.org/2000/svg" viewBox="0 0 500 500"><path d="M250 0C111.93 0 0 111.93 0 250s111.93 250 250 250 250-111.93 250-250S388.07 0 250 0Zm158.57 170.58c12.83-3.23 32.08 4.84 38.01 18.82-.37 6.4-.73 12-5.63 15.97-7.86 6.39-15.62 4.87-22.26 4.3-6.5-.56-14.89-1.18-19.53-5.46-14.17-13.04-6.5-29.62 9.41-33.63ZM193.91 40.99c15.62-3.95 25.8 19.52 8.43 26.33-8.2 3.22-27.11-4.27-30.65-13.82-4.13-11.19 13.84-19.51 22.21-12.51Zm-60.17 31.13c12.75-2.86 30.13-2.66 35.72 8.24 2.62 5.12.41 12.93-4.55 16.27-9.28 6.25-36.49 5.69-44.64-1.37-2.91-2.51-3.28-5.48-3.53-6.25-3.25-10.43 6.52-14.53 17-16.88Zm287.62 278.66c-20.73 27.74-50.89 51.77-88.06 66.02-31.44 12.08-66.79 17.58-98.1 14.11-29.53-3.27-66.03-11.2-83.02-41.93-8.45-15.29-7.82-30.52-3.19-43 .82-2.18 11.52-18.4 10.41-20.47-.33-.62-11.03-1.66-15.1-2.47-16.03-3.22-32.07-8.97-44.27-15.3-26.69-13.85-60.28-49.91-61.3-86.14-1.68-60.26 95.06-103.72 151.65-107.33-9.97-31.43 35.55-40.01 59.74-40.02 30.08-.01 58.6 11.69 82.8 30.16 13.56 10.36 27.39 22.23 35.72 37.48 12.42 22.74 9.06 46.68-.4 64.21 25.92 8.38 47.26 18.37 64.62 44.96 24.23 37.13 9.49 71.65-11.49 99.72Z" fill="#a0f8b5" fill-rule="evenodd"/><path d="M284.51 367.15s19.69-12.74 63.7-8.11c44.01 4.63 53.28 42.86 77.6 47.49 0 0-19.69 5.79-32.43-2.32 0 0 38.22 25.48-1.16 49.81 0 0 2.32-23.17-39.38-24.32-41.7-1.16-74.13-32.43-68.34-62.55Z" fill="#9b7ce0"/><path d="M386.93 393.76c-3.75-16.98-20-3.64-28.76-8.49-8.75-4.85-18.19-20.21-24.44-25.06-6.25-4.85 4.05-95.56-55.58-126.58-16.75-8.71-26.97-11.32-32.02-13.98v-3.58c-.3.4-1.05 1.04-2.74 2.05-1.69-1.02-2.44-1.66-2.74-2.05v3.58c-5.05 2.66-15.61 4.65-32.02 13.98-63.69 36.24-47.59 120.57-53.84 125.43-6.25 4.85-17.42 21.37-26.18 26.22-8.75 4.85-25.01-8.49-28.76 8.49s8.75 46.1 27.51 50.95c18.75 4.85 46.26-10.92 72.52-14.56 20.55-2.85 37.22-4.95 43.52-5.73 6.3.78 22.97 2.88 43.52 5.73 26.26 3.64 53.76 19.41 72.52 14.56 18.75-4.85 31.26-33.97 27.51-50.95Z" fill="#f9ecd7"/><path d="m312.31 436.07-4.05-66.6H180.27l-2.79 65.97c7.42-2.24 14.96-4.25 22.4-5.28 20.55-2.85 37.22-4.95 43.52-5.73 6.3.78 22.97 2.88 43.52 5.73 8.4 1.16 16.93 3.57 25.26 6.15.09-.15.14-.24.14-.24Z" fill="#ff9750"/><path d="M243.4 298.82c71.23.87 81.66-102.22 81.66-150.57 0-7.72 1.09-11.85 2.9-13.32 9.26-45.42 5.73-67.76-13.33-67.76-20.85 0-22.01 39.38-22.01 39.38h-92.66c-1.16-12.74-13.9-48.65-35.91-37.06-22.01 11.58-3.47 77.6-3.47 77.6s-1.44 150.7 82.82 151.73Z" fill="#f9ecd7"/><path d="M168.69 134.63s11.29-17.37 26.93-19.11c0 0-8.69-40.83-24.32-35.62-15.64 5.21-3.47 49.52-3.47 49.52m151.85 5.21s-11.29-17.37-26.93-19.11c0 0 8.69-40.83 24.32-35.62 15.64 5.21 3.47 49.52 3.47 49.52" fill="#ff9750"/><path d="M206.96 86.7s36.82-32.35 71.4-20.08l-14.5 17.85s42.39-2.23 59.13 29.01l-19.34 5.21s20.45 24.92 14.88 52.81c0 0-13.39-10.04-31.24-13.39-17.85-3.35-49.09-2.23-68.06-14.5l12.27 30.12s-18.52-7.33-33.05-26.72c-14.03-18.72-10.58-45.66 7.98-59.9.18-.14.35-.27.53-.4Z" fill="#9b7ce0"/><path d="M290.62 206.1c-1.8 0-3.43-1.23-3.87-3.05-2.16-9.04-8.04-9.75-9.78-9.75-7.85 0-9.66 9.14-9.73 9.53-.41 2.15-2.48 3.58-4.63 3.19a3.976 3.976 0 0 1-3.21-4.6c.99-5.57 5.93-16.09 17.57-16.09 6.63 0 14.72 4.17 17.52 15.85a3.978 3.978 0 0 1-3.87 4.91Zm-70 .21c-1.8 0-3.43-1.23-3.87-3.05-2.17-9.04-8.04-9.75-9.78-9.75-7.85 0-9.66 9.14-9.73 9.53-.41 2.15-2.48 3.58-4.63 3.19a3.976 3.976 0 0 1-3.21-4.6c.99-5.57 5.94-16.09 17.57-16.09 6.64 0 14.73 4.17 17.53 15.85a3.986 3.986 0 0 1-3.87 4.91Z" fill="#30261f"/><path d="M242.53 234.53c-22.74 0-43.32 9.13-58.36 23.89 12.27 22.77 30.9 40.05 59.23 40.39 28.39.35 47.1-15.84 59.36-38.48-15.18-15.88-36.53-25.8-60.23-25.8Z" fill="#ff9750"/><path d="M178.24 360.49s5.21 79.92 14.77 82.53c9.56 2.61 38.22 6.08 40.83-.87 2.61-6.95 7.82-82.53 7.82-82.53s-41.7-11.29-63.41.87Zm132.05 1.74s-5.21 79.92-14.77 82.53c-9.56 2.61-38.22 6.08-40.83-.87-2.61-6.95-7.82-82.53-7.82-82.53s41.7-11.29 63.41.87Z" fill="#f9ecd7"/><path d="M267.75 123.22 252.97 12.57c-.44-3.31-3.26-5.96-6.8-6.39-3.7-.45-7.15 1.65-8.17 4.97l-32.59 105.61s.48 16.1 29.89 19.65c29.42 3.55 32.45-13.19 32.45-13.19Z" fill="#f6b2ca"/><path d="M235.77 118.49c-1.65 0-3.29-.12-4.92-.35-15.32-2.2-24.02-14.03-24.38-14.53a4.135 4.135 0 0 1 .93-5.76 4.13 4.13 0 0 1 5.75.92c.11.14 7.16 9.57 18.96 11.22 8.6 1.2 17.75-1.93 27.22-9.3a4.124 4.124 0 0 1 5.79.72c1.4 1.8 1.07 4.39-.73 5.79-9.65 7.5-19.26 11.29-28.64 11.29Z" fill="#c93970"/><path d="M242.36 81.4c-13.3 0-23.81-10.17-24.26-10.6a4.113 4.113 0 0 1-.05-5.83c1.6-1.62 4.2-1.65 5.83-.06.09.08 8.61 8.25 18.49 8.25h.29c4.99-.08 9.44-2.22 13.59-6.53 1.59-1.64 4.2-1.69 5.83-.11a4.123 4.123 0 0 1 .11 5.83c-5.69 5.91-12.24 8.95-19.46 9.05h-.36Z" fill="#329e5e"/><path d="M245.99 42.38c-8.71 0-15.53-6.6-15.82-6.88a4.113 4.113 0 0 1-.05-5.83 4.12 4.12 0 0 1 5.82-.06c.08.07 2.72 2.57 6.28 3.83 4.24 1.5 7.74.63 11-2.75 1.59-1.64 4.2-1.69 5.83-.11a4.123 4.123 0 0 1 .11 5.83c-3.76 3.9-8.11 5.91-12.93 5.97h-.24Z" fill="#faf089"/></svg>