<svg version="1.1" id="b" xmlns="http://www.w3.org/2000/svg" x="0" y="0" viewBox="0 0 500 500" xml:space="preserve"><style>.st1{fill:#1f1f1f}.st1,.st2,.st3{fill-rule:evenodd;clip-rule:evenodd}.st2{fill:#e8f9f1}.st3{fill:#e1947e}</style><g id="c"><path d="M250 0C111.9 0 0 111.9 0 250s111.9 250 250 250 250-111.9 250-250S388.1 0 250 0zm-23.2 80.2c2.5 5.7-1 9.8-4.7 12.5-8.7 6.5-31.1 14.1-36 4.2-8.9-18 33.8-32.2 40.7-16.7zM136.6 369c-16.8 12.9-34.3-23.2-13.2-26.5 10.3-1.5 24 18.3 13.2 26.5zm61.7 52.6c-6.1 4.2-12.3 4.5-19.1 2.2-12.1-4-35.9-22.9-33.9-39.2.9-7.5 10.6-15.4 22.2-13.4 5.4.9 21.9 13.8 30.5 23.6 7.8 8.8 9.4 20.6.3 26.8zm206.9-100.1c-21.4 3.6-40.6-4.1-58-8 21.5 42.1 27.6 81.4-5.8 103.8-20 13.4-44.3 9.5-62.2 4.3-15.1-4.4-29.2-11.3-41.5-18.4-49.5-28.6-100.3-73.9-140-126.7-25.1-33.4-51.3-81.2-35.6-114.4 5.2-11.1 16.6-21.5 29.7-27.1 20.9-9 41.7-6.2 59.1-2.4 18.3 4.1 34.2 10.1 50.3 15.4 2.2-17 13.7-34 33.9-43 17.9-8 40-8.9 56.9-7.8 40.4 2.7 81.3 20 112.3 44.5 11.5 9.1 27.8 24 23.8 42.7-2.4 11.1-10.2 19.3-24.2 25.6 18.4 19.5 45.9 55.7 36.9 84.1-4.6 14.6-18.2 24.6-35.6 27.4z" fill-rule="evenodd" clip-rule="evenodd" fill="#a0f8b5"/><path class="st1" d="M415 193c11.8 3.2 17.6-10.7 11.3-19.2 10.6-5.5 2.6-19.7-5.4-21.4 10.6-20.8-12.8-23.5-22.3-7.6-21.2 26.1-47.6 48.2-79.6 62.9-10.9 3.9-5.7 3-7.8 11.8 8.7 70.4 92 17.4 103.8-26.5z"/><path class="st2" d="M395 208.8c-7.5.6-10.6 22.2-.5 8.2 1-1.5 5.6-7.8.5-8.2zm-13.7 3.2c-3.2-.4-8 5.8-8.8 8.4 1.3 7.9 15.3-6.6 8.8-8.4zm0 15.4c-5.1 1.9-16.5 6-18.7 11-.2 7.9 29.2-8.9 18.7-11z"/><path class="st1" d="M82 231.9c-11.1 5.3-19.2-7.4-14.5-16.9-11.4-3.5-6.1-18.9 1.5-22-14.2-18.6 8.4-25.4 20.6-11.4 25.6 21.9 55.4 38.9 89.5 47.7 11.4 1.9 6.2 2 9.8 10.2 4 70.9-87.5 33.6-106.9-7.6z"/><path class="st2" d="M104.4 243.9c7.5-.7 14.4 19.9 1.9 7.9-1.1-1.2-6.8-6.5-1.9-7.9zm14.1.7c2.6-1.2 3.9 1.4 6.2 2.9 14.5 13-13.8 3.5-6.2-2.9zm2.8 15.2c5.3 1 17.4 3 20.3 7.5 1.7 7.7-30.2-3.6-20.3-7.5zm198.9 146.7c86.6-52 18.3-151.2-5.8-220.3-31.7 36-89.1 33.6-130.7 21.3-5.8-.5-10.3-7.8-8.8 3.5 11.8 71.7-60.8 151.1 17.4 204 34.1 4.9 113.6 39.3 127.9-8.5z"/><path class="st1" d="M191.9 244.9c-5.3 5.3-2.1 20.1 3.1 7.6.9-2.8 2.9-9.6-3.1-7.6zm-7.1 24.9c-4.2.5-11.4 21.7-5.4 22.3 3.5.1 3.6-5.5 4.8-9.5.7-3.5 5.5-11.3.6-12.8zm12 16.1c2.8-1.9 3.3-12.4-2.7-8.4-.9 2.5-3 9.7 2.7 8.4zm-8.5 14.3c-3.9-1-6.1 14.1-.6 12.6 3-.8 4.7-12.6.6-12.6zm-15.2 11.7c-.9 2.7-2.7 12.5 2.1 12.1 3.8-.2 4.7-17.3-2.1-12.1zm156.2-51.3c-6.9 1.1 3.2 12.2 3.8 16.2 1.3 3.1 1.5 5.2 4.1 4.9 6.4-1.6-3.8-19.8-7.9-21.1zM321 288c-4.6-1.4-3.5 13.3.6 12.1 3-.2 3.9-11.6-.6-12.1zm16.8 25.1c7.3 3.6 4.4-20.6-2.2-14.5-.8 2.1.2 12.2 2.2 14.5zm-5.7 86.9c-2.3 8.8 5.4 16 14.4 10.2 32.9 40 62.6-100 10.4-96.7-21.3 3.1-22.5 20.2-19.4 40.3 6.6 13.3-5.2 18-13.4 26.2-4.7 6.9-5.2 23.4 8 20z"/><path class="st2" d="M346.5 326.4c-5.2-1.6-3.8 14.2 1.4 12.9 3.1-.4 1.6-12.4-1.4-12.9zm17.1 10c-5.9-1.9-2.8 14 2.1 9.6 1.2-1.5 1.3-9.5-2.1-9.6zm-9.8 11.7c-7.9-3.7-3.2 18.5 1.6 17.5 5-1.3-.9-14-1.6-17.5z"/><path class="st1" d="M309.1 428.6c9 2 16.1-5 12.8-13.9 19.3-15.1-13.3-27.7-25.3-32.8-30.3-40.3-128.7-86.9-143.3-9.9 4.5 56 68.8 46.9 107.9 55.8 14 .8 41.7 22.3 47.9.8z"/><path class="st2" d="M225.6 341.3c-10.9 2.7 9.6 11.6 13.6 12 7.4-5.2-9.8-10.4-13.6-12zm7.3 18c-8.9 1 8.3 15.3 9.8 7.7 0-2.5-7.6-7.6-9.8-7.7zm21.7 1c-8.3 1.6 3.9 10.7 7.2 11.6 7.5-2.2-4.2-10.8-7.2-11.6z"/><path class="st1" d="M280.2 11.7c-3.7-12.4-17.4 9.4-17.1 15 23.4 10.5 40.8 29.5 54.3 52.3 38.3-9.6 29-70.5-11.8-68.4 7-18.5-21.4-2.2-25.4 1.1z"/><path class="st3" d="M284.1 47.2c1 .4 2.2 0 2.6-.7 25.3 38.2 56.3 5.8 21.9 2.9 25.8-22.5-26.8-23.5-24.5-2.2z"/><path class="st1" d="M161.2 38.5c-.1-12.9 19.4 3.8 20.8 9.3-19.2 16.9-30.2 40.3-36.3 66.1-39.5 2.2-48.6-58.7-9.1-68.9-12.2-15.5 19.8-8.5 24.6-6.5z"/><path class="st3" d="M168 73.6c-.9.7-2.1.7-2.7.1-13 44.2-51.9 22.1-20 9.3-31.3-13.8 18.6-30.4 22.7-9.4z"/><path class="st2" d="M326.2 86.4c-43.1-102.3-184.3-71.7-184.9 38.5-24.9 22.8-10.1 66.2 14.5 76.1 48.4 23.9 120.7 30.9 159.5-12.9 37.9-22.7 62.7-78.2 10.9-101.7z"/><path class="st1" d="M182.3 208.9c42.3 24.4 112.2 13.8 140.4-27.9-30.8 22.3-93.2 40.3-140.4 27.9zm61.3-172.6c-6.5.2 1.1 12.5 4.8 12.1 5.5-.8-2-11.7-4.8-12.1zm30.5 16.9c-.1-4.1-8-14.5-10.2-7.2 1.2 3.2 6.6 12.4 10.2 7.2zm-33.8-2.1c-5.8-1.6-3.8 12.5 1.4 10.4 2.5-.7.8-9.9-1.4-10.4zm-45.8-4.2c-3.4-1.2-4.7 12.3-2 13 5.3 2.6 6.6-13.3 2-13zm-16.7 14.5c-3.9-1.7-9.7 10.9-3.9 10.9 2.3-.1 8.3-9.4 3.9-10.9zm30.4-.5c-4.8-1.5-5 8.2-1.5 8.2 3.6.1 4.8-7.2 1.5-8.2zm131 41.5c-8.7-.3 4.4 15.7 6 6.8-.3-1.3-4.3-7.4-6-6.8zm.5 16.7c-5.2-1.8-2.3 15.3 2.2 13.6 3.9-1.4 1.1-13.4-2.2-13.6zm.4 20.3c-6.7-5.7-7.3 16-2.6 15.2 4.7-.3 3-11 2.6-15.2zm-195.5 11c-4.5-1.9-5.8 12.2-2.1 12.5 4.2.8 5.5-12 2.1-12.5zm10.9 28.2c.1-3-.7-8.7-2.5-11.3-8.1-4-3.1 18.3 2.5 11.3zm8.4 5.9c.7 3.8 2.4 11.4 7.8 10.4 3.1-2.1-3.9-16.7-7.8-10.4zM264.7 63.7c-39.5 7.4-5.9 62.3 18.1 67.9 19.4 7.8 44.4-15.1 34.4-35.5-4.5-7.3-14.4-12.3-21.6-16.2-9.8-6.2-17.9-17.5-30.9-16.2zM196.9 76c40-3.8 22.8 58.3 1.2 70.2-16.7 12.8-46.6-2.1-42.8-24.7 2.3-8.2 10.4-15.8 16.3-21.5 7.8-8.5 12.4-21.6 25.3-24zm30.7 77.5c4-10.1 9 .1 11.7 4.6 17.6 7.3 6.6-22.1 19.6-11.1 12.8.1 7.8-23.2-7.4-20-11 .4-29.2 3.8-33.6 11.1-2.7 5.8.7 19.8 9.7 15.4z"/><path class="st3" d="M249.1 179.3c23 19.3 44.6-18.3 25.4-14.8-3.8 4.1-5 11.8-13.6 10.1-8.2-1.5-7.6-10.8-13.3-11.6-11.5-.7-.9 30.7-27.9 12.6-18.2 5.5 18.1 29.6 29.4 3.7z"/><path d="M189.7 105.8c13.3-7.2 29.2 18.6 13.5 11.8-.2-.3-4.5-7.5-11.1-5.1-1.5.5-6.3 3.1-5.3 11.3-10.8 14.9-8.4-18.1 2.9-18zm88.4-16.1c14.6-3.5 23.2 25.4 9.9 15-.1-.4-2.3-8.4-9.3-7.9-1.6.1-6.9 1.3-8.1 9.5-14.2 11.5-3.8-19.5 7.5-16.6z" fill="#e8f9f1"/></g></svg>