<svg version="1.1" id="Layer_1" xmlns="http://www.w3.org/2000/svg" x="0" y="0" viewBox="0 0 500 500" xml:space="preserve"><style>.st1{fill:#efa3b5}.st2{fill:none;stroke:#a6425a;stroke-width:2.5;stroke-linecap:round;stroke-linejoin:round}.st3{fill:#efd5db}</style><g id="b"><g id="c"><path d="M250 0C111.9 0 0 111.9 0 250s111.9 250 250 250 250-111.9 250-250S388.1 0 250 0zm158.6 170.6c12.8-3.2 32.1 4.8 38 18.8-.4 6.4-.7 12-5.6 16-7.9 6.4-15.6 4.9-22.3 4.3-6.5-.6-14.9-1.2-19.5-5.5-14.2-13-6.5-29.6 9.4-33.6zM193.9 41c15.6-4 25.8 19.5 8.4 26.3-8.2 3.2-27.1-4.3-30.6-13.8-4.1-11.2 13.8-19.5 22.2-12.5zm-60.2 31.1c12.8-2.9 30.1-2.7 35.7 8.2 2.6 5.1.4 12.9-4.6 16.3-9.3 6.2-36.5 5.7-44.6-1.4-2.9-2.5-3.3-5.5-3.5-6.2-3.2-10.4 6.6-14.5 17-16.9zm287.7 278.7c-20.7 27.7-50.9 51.8-88.1 66-31.4 12.1-66.8 17.6-98.1 14.1-29.5-3.3-66-11.2-83-41.9-8.4-15.3-7.8-30.5-3.2-43 .8-2.2 11.5-18.4 10.4-20.5-.3-.6-11-1.7-15.1-2.5-16-3.2-32.1-9-44.3-15.3-26.7-13.9-60.3-49.9-61.3-86.1-1.7-60.3 95.1-103.7 151.6-107.3-10-31.4 35.6-40 59.7-40 30.1 0 58.6 11.7 82.8 30.2 13.6 10.4 27.4 22.2 35.7 37.5 12.4 22.7 9.1 46.7-.4 64.2 25.9 8.4 47.3 18.4 64.6 45 24.4 37 9.6 71.5-11.3 99.6z" fill-rule="evenodd" clip-rule="evenodd" fill="#a0f8b5"/><path class="st1" d="M322.8 301.1c32.4 64.5 78.2 40.9 90.9 61.5 4.9 27.3-41.8 33.6-60.6 25.5 7.9 3.6 35.7 22.2 24.8 40.2-10.9 18-66.1-11.4-66.1-11.4s16.1 41.3-10.4 43.3-43.9-36.8-43.9-36.8-23.8 35-43.6 33.2c-19.8-1.8-19.8-19.2-14.4-42-50.9 35.3-90.8 21.1-40.9-36.3-22.4 5.5-54.4 4.5-54.4-16.3-.9-32.7 54.8-7.8 91.4-60.8l127.2-.1"/><path class="st2" d="M159.5 377.6s4.7-2.4 7.2-4m33.4 40.3s2.4-2.4 3.6-4M352.5 387s-3.6-2.5-5.3-3.4m-36 31.6s-6.1-5.5-6.3-6.5m-47.4 14.7v-6.1"/><path class="st3" d="M254.4 427.8c-11.5-6.3-24.5 8-17.5 18.8 7.4-6.4 13.8-14.1 17.5-18.8zM232 449.6c-6.4-10.1-23.1-5.9-24.2 5.8 7.5 2.8 18.8.7 24.2-5.8zm41.5-18.7c-20.6-11.5-9.4 8 1.8 18 4.1-5.5 3.4-13.4-1.8-18zm18.2 16c-25.3-3-5.4 15.8 9.1 13.4.4-5.9-3.2-11.5-9.1-13.4zm109.1-75.4c-4.1 4-5.1 9.9-3 14.8 14.5-3.4 23.9-28 3-14.8zm-296.4-9.3c.1 9.4 6.8 14.7 16.2 17.1 3.6-9.7-6.4-20.1-16.2-17.1zM343.9 430c2.5-13.8-17.2-21-24.4-9.3 5.9 2.4 16 7.8 24.4 9.3zm32-48c-20.1 12.1 6.8 10.8 16.6 6.5-3.1-6-10.2-8.9-16.6-6.5zm.5 48.2c-4.7-10.7-22-9.2-24.8 2.2 10.3 2.4 19.9 2.7 24.8-2.2zm-224.9-50.4c-15.5-24.1-43.2 10.6 0 0zm41.4 39c-8.6-9.7-25.5-1-22.9 11.4 8.2-3 17.5-7.2 22.9-11.4zm-27.4 12.9c-3.7-11.4-20.9-11.5-24.9-.4 6.7 3.6 15.8 3.1 24.9.4z"/><path class="st1" d="M368.3 209.8c-34.2-112.8-184.3-113-218.5 0-45.5 138.9 263.9 138.9 218.5 0z"/><path class="st1" d="M295.6 242.6c-1.9 18.5 26.1 21.5 28.2 3.1 2-18.5-26.1-21.5-28.2-3.1zm-73.1 0c1.9 18.5-26.1 21.5-28.2 3.1-2-18.5 26.1-21.5 28.2-3.1z" opacity=".3"/><path class="st3" d="M259 224.1c25.5.4 25.5 38.4 0 38.8-25.5-.4-25.5-38.3 0-38.8z"/><path d="M254.7 243.5c-.1 5.7 8.8 5.7 8.7 0 .1-5.6-8.8-5.6-8.7 0zm-18.2-19.1c-4.7-5.6-11.6-15-15.6-2.1-9.4 7.6-4.2-13.7 6.5-11.8 5.6-1.6 17 12 9.1 13.9zm72.2 0c-4.7-5.6-11.6-15-15.6-2.1-9.4 7.6-4.2-13.6 6.5-11.8 5.6-1.6 16.9 12 9.1 13.9z" fill="#a6425a"/><path class="st3" d="M166.5 144.7c2.4 23.9 26.2 25.8 47.9 29.5 45 8 87.7-17.4 133.4-6.5 0 0 22-28.7-15.8-47.9 0 0 18.5-30.3-28.5-51 0 0 20.7-37.6-43.3-48.5C290.5 72 181.5 41.6 193.4 98c0 0-29.3 22.9-26.9 46.7z"/><path class="st2" d="M193.4 98s24.6-15.9 72.3 4.7m66.2 17.2s-35.8 13.1-65.7 4.2m37.2-55.2s-16.6-9.9-33.4-13"/><path d="M213.4 135c2.1-.2 5.2 12.3 5.2 12.3 16.7 1.5 16.8 4.4.6 8.5-2.1 16.6-3.8 16.6-8.5.6-16.7-1-16.8-4.9-.6-8.5.1.1 1.3-12.7 3.3-12.9zm105.3-23.2c2 .4 1.6 13.3 1.6 13.3 15.7 6.1 15 8.9-1.7 8.3-6.6 15.4-8.3 14.9-8.3-1.7-15.7-5.6-14.9-9.4 1.7-8.3 0 0 4.6-12 6.7-11.6zm-79.8-49c2.1-.2 5.4 12.2 5.4 12.2 16.8 1.2 16.9 4.1.8 8.5-1.8 16.7-3.5 16.7-8.4.8-16.7-.7-16.9-4.6-.8-8.5 0 .1.9-12.8 3-13z" fill="#9f7aea"/><path class="st1" d="M221.2 114.4c-.1 5.3 8.2 5.3 8.1 0 .1-5.3-8.2-5.3-8.1 0zm61.6 39.7c-.1 5.3 8.2 5.3 8.1 0 .1-5.3-8.2-5.3-8.1 0zm-12.5-119c-.1 5.3 8.2 5.3 8.1 0 .1-5.3-8.2-5.3-8.1 0zm-19.9 241.6c-30.6-20.4-45.6 46.4-69.1 55.7l26.5 40c19.1-9.3 55.6-77.4 42.6-95.7z"/><path class="st3" d="M221.7 345.3c-12-.4-18 15.8-8.9 23.3 5.7-5.7 27-22.8 8.9-23.3zm15.4-27.2c-14.8-.4-18.2 21.8-4.3 26 2.3-7.8 19.1-26.2 4.3-26zm11.3-30.3c-16.3-.1-18 24.4-1.9 26.6 1-6.8 13.4-25.8 1.9-26.6z"/><path class="st2" d="M181.4 332.4c82.3-118.5 96.4-27.2 26.5 40.1"/><path class="st1" d="M289.6 294.2c-64.4-16.2 2.5 83.7 32.4 89.4l19.9-43.7c-21.9-8.2-32.4-33.5-52.3-45.7z"/><path class="st3" d="M302.7 359.7c-18.4 4 6.7 16.1 13.2 20.8 6.9-9.2-1.9-23.2-13.2-20.8zm-36.1-52.2c-9.8 3.6 3.7 20.3 5.5 26.1 16.4-4 11.2-29-5.5-26.1zm24.4 53.1c18.3-9.8-.4-35.7-15.5-21.2 3.9 5.6 9.9 14.8 15.5 21.2z"/><path class="st2" d="M341.9 339.9c-100.8-106.1-103.5-7.3-19.9 43.7"/></g></g></svg>