<svg version="1.1" id="b" xmlns="http://www.w3.org/2000/svg" xmlns:xlink="http://www.w3.org/1999/xlink" x="0" y="0" viewBox="0 0 500 500" xml:space="preserve"><style>.st1{fill:#c37865}.st1,.st3,.st6{fill-rule:evenodd;clip-rule:evenodd}.st3{fill:#ffdeae}.st6{fill:#f4e1f9}</style><g id="c"><path d="M250 0c-328.6 5.6-328.6 494.4 0 500 328.6-5.6 328.6-494.4 0-500zm158.6 170.6c12.8-3.2 32.1 4.8 38 18.8 1.2 17.9-14.8 23-27.9 20.3-6.5-.6-14.9-1.2-19.5-5.5-14.2-13-6.5-29.6 9.4-33.6zM193.9 41c15.6-4 25.8 19.5 8.4 26.3-8.2 3.2-27.1-4.3-30.6-13.8-4.1-11.2 13.8-19.5 22.2-12.5zm-60.2 31.1c18.6-6 50.3 4.1 31.2 24.5-9.3 6.2-36.5 5.7-44.6-1.4-10.4-11.8-.3-20.9 13.4-23.1zm287.7 278.7c-38 54.1-119.3 88.2-186.2 80.1-42.1-.7-105.9-33.1-86.2-84.9 11.9-23.3 17.5-19.8-4.7-22.9-16-3.2-32.1-9-44.3-15.3-129.9-80.1-27.6-183.7 90.3-193.5-10-31.4 35.6-40 59.7-40 62-.9 155 64.5 118.1 131.8 69 16.6 102.1 89.8 53.3 144.7z" fill-rule="evenodd" clip-rule="evenodd" fill="#a0f8b5"/><path class="st1" d="M419.7 231.6c49-8.6 90 66.1 51.4 64.5-16-4.7-5.9-38.2-45.1-40.5-26.7-.5-43.4 20-63.1 33.4-49.4 37.6-91.9-13.5-51.4-12.6 42.7 10.5 63.9-45.8 108.2-44.8zm-217.1 90.2c15.1 7.4 50.8 18.2 44 39.9-4.4 15.7-14.1 54.7-30.6 59-9.7 0-41.2-15.8-38.8-27.6 1.4-6.8 14.2-5.2 21.3-5.5-.2-20.4-3.7-46.5 4.1-65.8z"/><path d="M306.5 231.3c73 165.4-145 161.2-110.2 43.5 9-74.2-.5-24.7 94.6-43.5 5.3.4 12.4-6.2 15.6 0z" fill-rule="evenodd" clip-rule="evenodd" fill="#b1664f"/><path class="st1" d="M372.1 352.1c-30.3 24.3-71.9 21.1-89.7-16.7 5.4-21.4 21.7-38.7 42.6-22.7 15.8 12.7 35.1-3.4 52.2 2.2 15.3 12.6 35 73.9-5.1 37.2zM397.3 56c67.7 36 15.3 123.8-54.7 118.6-5.8-39.8-25.8-71.2-47.8-102 8.3-13 32.8-44.8 50.6-33.9 11.3-6.1 58.7-5 51.9 17.3z"/><path class="st3" d="M376.5 74.4c14.8-.5 42.3 21.4 11.5 22.1 19.5 7.6 28.6 50.1-2.7 36.9 13.9 22.8-10.9 25.3-26.8 16.4 6.1 26.7-28 1.8-30.6-11.2-4.3-16.5-36.1-42.3-23.2-58.2 10.8-18.4 76-36.6 71.8-6z"/><path class="st1" d="M83.3 55C15.6 91 68.1 178.8 138 173.6c5.8-39.8 25.8-71.2 47.8-102-8.3-13-32.8-44.8-50.6-33.9-11.3-6.2-58.7-5.1-51.9 17.3z"/><path class="st3" d="M104.1 73.3c-14.8-.5-42.3 21.4-11.5 22.1-19.5 7.6-28.6 50.1 2.7 36.9-13.9 22.8 10.9 25.3 26.8 16.4-6.1 26.7 28 1.8 30.6-11.2C157 121 188.8 95.2 176 79.3c-11-18.4-76-36.6-71.9-6z"/><path class="st1" d="M248.8 49.2c44.6 2.6 59.4 36.7 80.9 66.7 105.1 157.7-268.5 181.3-182.3 12 15.8-33.1 28-70.1 70.8-76.5-5.2-14 7.6-13.1 12.8-3.3 8.6-23.8 30.8-26.6 17.8 1.1z"/><path class="st3" d="M236.3 108.3c11.6-15.7 42.6-23.3 60.7-12 34.3 13 37.6 74.6 13.1 101.1-42.8 58.1-150.9 39.1-156.9-39.6-6.5-45.4 46.4-80.4 83.1-49.5z"/><path d="M207.5 153.8c-6.5-.6-3.1-12.5-13.7-12.8-8 .1-9.6 9.1-9.8 9.7-1.1 5.2-9 3.1-7.8-1.7 1.1-5.6 6-15.9 17.6-15.9 10-2.1 24.9 18.6 13.7 20.7zm34.6 53.1c-16 0-23.4-15.3-23.7-16-2.3-4.6 5-8.1 7.2-3.4.3.5 6.2 12.5 18.3 11.3 17.7-2.1 10-19.4 18.4-19.5 2.2.2 3.8 2.2 3.6 4.4-1.9 16.8-12.9 23-23.8 23.2zm46.7-56.6c-6.5-.7-3.1-12.5-13.7-12.8-8 .1-9.7 9.1-9.8 9.7-1.1 5.2-9 3.1-7.8-1.7 1.1-5.6 6-15.9 17.6-15.9 9.9-2.1 24.9 18.6 13.7 20.7z" fill="#1f1f1f"/><path d="M236.3 170.3c.1 4-6.2 4-6.1 0-.1-4 6.2-4 6.1 0zm12.7-1.9c.1 4-6.2 4-6.1 0 0-3.9 6.2-3.9 6.1 0z" fill="#e1947e"/><path class="st6" d="M118.5 250.9c10-11.1 19.6-21.6 30.4-32.2 44.2-3.9 57.5 26.2 88 50.7 14.1 16.2 66.4 53.5 67 69.1-1.6 17.2-26 37.3-38.6 50.3-15.7 15.5-27.4 10.1-40.3-4.1-23.9-22.9-48.2-47.2-71.6-69.7-26.7-25.6-31.7-25.1-34.9-64.1z"/><defs><path id="SVGID_1_" d="M118.5 250.9c10-11.1 19.6-21.6 30.4-32.2 44.2-3.9 57.5 26.2 88 50.7 14.1 16.2 66.4 53.5 67 69.1-1.6 17.2-26 37.3-38.6 50.3-15.7 15.5-27.4 10.1-40.3-4.1-23.9-22.9-48.2-47.2-71.6-69.7-26.7-25.6-31.7-25.1-34.9-64.1z"/></defs><clipPath id="SVGID_00000103236693142326056340000000459468801006057126_"><use xlink:href="#SVGID_1_" overflow="visible"/></clipPath><g clip-path="url(#SVGID_00000103236693142326056340000000459468801006057126_)"><path d="M193.3 234.1c-19.7 19.5-37 45.1-54.6 66.6 34.4 30.8 65.4 68.2 102 96.5 18.4 6.3 35.5-20.3 47.5-31.9 19.9-21.3 21.7-31.5-1.8-50.5-29.9-27.4-60.7-55.1-90.5-83.2-.9.9-1.7 1.7-2.6 2.5z" fill-rule="evenodd" clip-rule="evenodd" fill="#805ad5"/><path d="M205.1 234.6c-7.9 3.1-21.6 9.7-15.7 19.4 1.1 3.7 1.8 1.4.4 5.2-6.8 14-17 5.5-22.6 15.2-2.6 4.9 1 10.6-1 14.7-3.4 5.9-9.7.5-14.6-.1-12.3-1.9-5.6 12.3-11 18.6l-22-31.1c2.5-34.8 17.1-2.2 32.3-8.4 7-7.3-9.6-10.9 4.6-26.1 3.4-4.3 19.7-9 18.7-15.5-3.9-9.4-19.8-6.3-5-20.6.1.1 35.9 28.7 35.9 28.7z" fill-rule="evenodd" clip-rule="evenodd" fill="#b794f4"/><path class="st6" d="M147.4 314.7c7.1-30.1 12-9.8 22.3-9.7 10.5-1.5 4.5-17.6 12.1-22.6 6.1-4.2 15.8-3.5 20.7-10.2 3-3.8 1.1-5.6.6-10.1-1.1-11.5 12.9-16.4 19.8-23.1l-17.8-4.2c-7.9 3.1-21.6 9.7-15.7 19.4 1.1 3.7 1.8 1.4.4 5.2-6.8 14-17 5.5-22.6 15.2-2.6 4.9 1 10.6-1 14.7-3.4 5.9-9.7.5-14.6-.1-12.3-1.9-5.6 12.3-11 18.6l6.8 6.9z"/></g><path d="M143.5 210.8c21.2 11.1-22.2 55.9-33.3 35 14.4-2.5 30.1-21.2 33.3-35z" fill-rule="evenodd" clip-rule="evenodd" fill="#fdffff"/><path class="st6" d="M143.6 210.9c5.2 6.9-26.5 39.7-33.3 34.9-5.4-3.7 29.3-40.1 33.3-34.9z"/><defs><path id="SVGID_00000005238189333040186360000006108561175420535484_" d="M143.5 210.8c21.2 11.1-22.2 55.9-33.3 35 14.4-2.5 30.1-21.2 33.3-35z"/></defs><clipPath id="SVGID_00000162350287898864865810000011971657178112356766_"><use xlink:href="#SVGID_00000005238189333040186360000006108561175420535484_" overflow="visible"/></clipPath><g clip-path="url(#SVGID_00000162350287898864865810000011971657178112356766_)"><path d="M110.5 243.2c.6-4.9 15.3 12.4 16.4 12.1-.6 5-15.4-12.4-16.4-12.1zm3.7-4.6c.6-4.9 15.3 12.4 16.4 12.1-.6 4.9-15.4-12.5-16.4-12.1zm6.5-2.7c.6-4.9 15.3 12.4 16.4 12.1-.6 4.9-15.4-12.4-16.4-12.1zm21.2 8.8-15.1-13.5c.5-4.9 15.3 12.4 16.4 12.1-.1 0-1.3 1.4-1.3 1.4zm-8.8-19c.6-4.9 15.3 12.4 16.4 12.1-.5 4.9-15.3-12.4-16.4-12.1zm3.2-6.7c.6-4.9 15.3 12.4 16.4 12.1-.6 4.9-15.4-12.4-16.4-12.1zm4.2-5.3c.6-4.9 15.3 12.4 16.4 12.1-.6 4.9-15.4-12.4-16.4-12.1z" fill="#f4e1f9"/></g><path class="st1" d="M292.3 284c-19.9-49.2 2.1-76.3 30.1-19.7 10.9 24.3-.9 40.9-28.2 45.1-68.8 9.9-95.1-64.1-1.9-25.4zm-165.1 6.1c26.1-2.6 30.8 45.9 2.7 38.8-11.1-5.1-17.1-35.4-2.7-38.8z"/></g></svg>