<svg xmlns="http://www.w3.org/2000/svg" viewBox="0 0 225 150"><path d="M155.35 91.1c0 10.6-10.75 19.2-23.9 19.2-7.7 0-14.55-2.95-18.95-7.45-4.4 4.5-11.25 7.45-18.95 7.45-13.15 0-23.9-8.6-23.9-19.2 0-2.75 2.25-5 5-5s5 2.25 5 5c0 5 6.35 9.2 13.9 9.2s13.95-4.2 13.95-9.2c0-.65.15-1.25.35-1.85-6.7-1.5-11.55-6.15-11.55-11.7 0-6.7 7.25-12.15 16.2-12.15s16.2 5.45 16.2 12.15c0 5.55-4.85 10.2-11.55 11.7.2.6.35 1.2.35 1.85 0 5 6.4 9.2 13.95 9.2s13.9-4.2 13.9-9.2c0-2.75 2.25-5 5-5s5 2.25 5 5ZM172 47.85c0 1.45-.5 2.85-1.4 4-1.9 2.45-5.4 4.1-9.45 4.1-5.95 0-10.8-3.65-10.8-8.1 0-2.8 1.9-5.3 4.75-6.75h.05c1.75-.9 3.8-1.4 6-1.4 6 0 10.85 3.65 10.85 8.15Zm-97.35 0c0 4.45-4.85 8.1-10.8 8.1-4.05 0-7.55-1.65-9.45-4.1-.9-1.15-1.4-2.55-1.4-4 0-4.5 4.85-8.15 10.85-8.15 2.2 0 4.25.5 6 1.4h.05c2.85 1.45 4.75 3.95 4.75 6.75Z"/></svg>