<svg version="1.1" id="b" xmlns="http://www.w3.org/2000/svg" xmlns:xlink="http://www.w3.org/1999/xlink" x="0" y="0" viewBox="0 0 500 500" xml:space="preserve"><style>.st1{fill:#ef9737}.st1,.st3,.st6{fill-rule:evenodd;clip-rule:evenodd}.st3{fill:#1f1f1f}.st6{fill:#d67b21}</style><g id="c"><path d="M250 0C111.9 0 0 111.9 0 250s111.9 250 250 250 250-111.9 250-250S388.1 0 250 0zM103.5 167.7c5.7 1.7 6.5 6.8 6.2 11.2-.7 10.4-9.1 31.3-19.3 28.7-18.8-4.7-2.5-44.5 13.1-39.9zm139.9 235.9c5.3-8.2 29.5-5.3 29.1 7.5-.6 19.9-40 9.3-29.1-7.5zm109.6-2.5c-.6 6.9-4.4 11.5-10.5 14.8-10.9 5.9-40.9 10.6-52.3-1.1-5.3-5.4-5.3-17.1 3.7-24 4.2-3.2 24.8-6.7 38-6.4 11.9.1 22.1 6.4 21.1 16.7zm51.8-56.6c-13.1 7.8-27.5 13.3-40.9 17.4-54 16.5-121.8 23.5-188.5 17.8-42.1-3.6-96.2-15.5-112.1-47.6-5.3-10.7-6.2-25.2-2.2-38 6.3-20.4 21.8-33.2 36-42.9 14.9-10.2 29.7-17.6 44.2-25.4-11.9-12.3-17.8-31.1-12-51 5.2-17.6 18.6-33.7 30.3-44.8 27.9-26.6 67.6-44.3 106.6-50.5 14.4-2.3 36.5-4.3 48.5 10.4 7.1 8.7 8.6 19.3 4.5 33.1 27-.5 72.9 3.1 89.3 27.4 8.5 12.5 7.5 28.4-1.4 42.4-10.9 17.2-29.1 25.9-43.3 35.6 46.6 11.6 81.3 32.2 77.4 69.8-2.4 22.5-20.9 37.1-36.4 46.3z" fill-rule="evenodd" clip-rule="evenodd" fill="#a0f8b5"/><path class="st1" d="M474 266.6c21.5-1.1 9.8 25.8-4.3 29.2-15.3 12.1-101 19.2-76-19 28 12.1 56.9.8 80.3-10.2z"/><defs><path id="SVGID_1_" d="M474 266.6c21.5-1.1 9.8 25.8-4.3 29.2-15.3 12.1-101 19.2-76-19 28 12.1 56.9.8 80.3-10.2z"/></defs><clipPath id="SVGID_00000070840956087168845580000005237351939327188657_"><use xlink:href="#SVGID_1_" overflow="visible"/></clipPath><g clip-path="url(#SVGID_00000070840956087168845580000005237351939327188657_)"><path class="st3" d="M484.2 260.6c2.9-22 11.8 29 3.6 27.3-11.8 19-19.7-48.4-3.6-27.3zm-19 42c-13.1 7.2-24.2 9.1-21.1-12.8.4-12.5 1.6-21.4 10.9-25.2 10.8-10.1 9.7 15.3 12.4 21.6 1.2 3.2 7 33.2-2.2 16.4zM433.6 268c-.1 12.9 4.8 51.6-16.7 44.4-5.6 2-13.2 13.3-13.7-.6-1.8-6.5 17.1-60.3 14.3-33.9 3.4 1.3 3-3.6 7.3-2.6.5-7 5.1-4.9 8.8-7.3z"/></g><path class="st1" d="M240.1 221.3c272.4-9 137.2 193.7-24.8 100.5-83.2 78.9-192.4 108.6-50.4-17.5-17.5-35-133.2 100.5-127.6 47.6 33.6-54.4 141.3-153.4 202.8-130.6z"/><path d="M332.1 331.2c-46.3 13.7-87.3-44.2-117.2-9.2 45.5 29.4 122 40.4 163-4.7-12.9 7.2-27.9 12.6-45.8 13.9z" fill="#ffdeae"/><defs><path id="SVGID_00000016774299184046341500000002118642908503934092_" d="M240.1 221.3c272.4-9 137.2 193.7-24.8 100.5-86.8 78.5-197.9 116.4-50.4-17.5-17.5-35-133.2 100.5-127.6 47.6C78 292.6 169.3 203 240.1 221.3z"/></defs><clipPath id="SVGID_00000098925951515110576520000003025100998462756245_"><use xlink:href="#SVGID_00000016774299184046341500000002118642908503934092_" overflow="visible"/></clipPath><g clip-path="url(#SVGID_00000098925951515110576520000003025100998462756245_)"><path class="st3" d="M211 336.8c-24.1-77.8-34.3-44.7-17.1 12.6 2.8-6.9 9.5-12 17.1-12.6zM99.4 258c72 38.2 37.5 42-15.6 14.4 7.4-1.4 13.6-7 15.6-14.4zm-28.9 16.4C117.4 341 85 328.8 50 280.2c7.2 2 15.3-.1 20.5-5.8zm111.1 61.5c-10.5-11.6-22.1-20.4-33.7-30.4-1.3 6.7-6.7 12.5-13.1 14.6 5.9 4.7 59.6 41.6 46.8 15.8zm-36.8 9.6c-4.2-4.9-8.7-9.2-13.3-13.4-4.4 8.7-12.9 9.8-21.5 10.8 7.8 6.2 51.6 28.1 34.8 2.6zm-89.7-5.4c-4.2-4.9-8.7-9.2-13.3-13.4-4.4 8.6-12.9 9.8-21.5 10.8 7.8 6.2 51.6 28.1 34.8 2.6z"/><path class="st3" d="M106.8 314.6c4.6 4.5 9.6 8.4 14.5 12.1 3.5-9 12-10.9 20.4-12.7-8.3-5.5-53.9-23.2-34.9.6zm13.2 79.5c7.7-2.7 16.5-1.2 24.4-2-16.9-33.5-44.3-50.8-24.4 2zm-44.8-33.6c7.7-2.7 16.5-1.2 24.4-2-16.8-33.4-44.2-50.7-24.4 2zm246-204.4c-21.1 43.9-49.5 85.1-74.2 127.5-32.6 31.8 23.2-89.4 28.2-94.1 15.8-18.2 28.1 1.3 46-33.4zm32.3 11.4c-97.1 177.4-100.3 53.1 0 0zm31.3-1.1c28.5-1.6-34.7 65.7-41.8 75.1-40.4 31.1 35-83.5 41.8-75.1zm33-11.9c37.7-3.6 23.2 10.4 7.7 30.3-3.7 3.5-67.9 93.8-60.6 60.4 13.4-32.9 31.2-63.5 52.9-90.7z"/></g><path class="st6" d="M308.3 349.4c-107.6-65.4 66.9-150.8 91.2-51.9 23.7 62-82.8 80.1-125.7 91-64.9 6 12.1-36.6 34.5-39.1z"/><defs><path id="SVGID_00000008113601007371279580000015638095406702087059_" d="M308.3 349.4c-107.6-65.4 66.9-150.8 91.2-51.9 23.7 62-82.8 80.1-125.7 91-64.9 6 12.1-36.6 34.5-39.1z"/></defs><clipPath id="SVGID_00000067213537522518687210000015753791550421550778_"><use xlink:href="#SVGID_00000008113601007371279580000015638095406702087059_" overflow="visible"/></clipPath><g clip-path="url(#SVGID_00000067213537522518687210000015753791550421550778_)"><path class="st3" d="M320.5 392.1c-21 13.1 54.7-101.5 61.9-111.4 27.8-25.7-10 36.8-12 43.6-11.8 23.4-23.6 46.8-35.4 70.7-1.3 4.7-7.3 10.3-10.4 3-3.4.3-5-2.9-4.1-5.9zm-40.4 8.3c-6.7-5.1 29.1-59.5 35.7-62.3 13.4 5.4-21.8 50-25.4 61.3-1.7 6.7-12.1 10.3-10.3 1zm-29 5.4c-1-1.6-.7-5.3.2-6.8-5.8-3.7 17.2-50.4 23.9-36.7.1 8.6-12.4 50.4-24.1 43.5zm61.3-98c9.2.2-3 19.3-4.5 22.9-5.7 9.9-8.4 17.5-16.9 23-26.9 13.3 16.1-42 21.4-45.9zm45.7-92.6c29.5-4.3-35.4 67.3-41.8 75.1-38.7 27.4 34.1-82 41.8-75.1zm21.9 11.9c7.7-.5 32.4-3.2 21.4 11.8-7.3 7.6-76.4 109.6-74.3 78.8 13.4-32.8 31.1-63.5 52.9-90.6z"/></g><path class="st6" d="M120.8 124.2c25-14.5 66.3-14.9 90.9 0 20.3-44.7 60.1-2.1 24.3 22.4 6.3 7.6 14 16.3 23.1 22.6 2.6 1.8 8.1 4 7.9 7.3-1.6 6.1-13.8-.3-17.3-1.5 2.1 4.8 16.8 11.6 16.4 17.1-.9 3.1-6.9 1.2-9 .2 20 39.5-47.1 75.2-82.8 76.6-36.9 6.4-121.4-33.6-98.4-76.6-22.9 5.9 3.6-12.6 7.5-17.3-9.4 5.7-28 5.6-10-5.8 9.5-5.9 17.1-15.3 23.5-22.4-36.2-25.5 4.6-66.9 23.9-22.6z"/><path d="M161.7 145.9c48-9.2 76.1 38.9 65.3 80.5-28.8 64-152.1 32-118.3-42.9 7.2-27.4 24.9-38.4 53-37.6zm68.6-17.3c11.9 1.8.7 11-6.6 9.4-13.9-6.9 16.9-34.9 6.6-9.4zm-129.4 4.1c-17.4-12.3.2-21.2 10.5-6.4 14.9 12.8-25.4 22.3-10.5 6.4z" fill="#ffdeae" fill-rule="evenodd" clip-rule="evenodd"/><path fill="#d67b21" d="M145.4 140.3h41.5v58.6h-41.5z"/><path d="M136.4 191.2c-4.8-5.8-12-15.4-16.1-2.1-9.7 7.9-4.4-14.1 6.7-12.2 5.9-1.6 17.4 12.5 9.4 14.3zm74.5 0c-4.8-5.8-12-15.4-16.1-2.1-9.7 7.9-4.4-14.1 6.7-12.2 5.9-1.6 17.5 12.5 9.4 14.3z" fill="#1f1f1f"/><path d="M167.3 226.7c-7.4 15.4-38.4-2-21.5-7.2 11.1 12.5 13.2 3.8 20-5.3 9.3-.9 5.7 22.6 22.9 5.2 14.9 1.7-9.4 24.9-21.4 7.3z" fill-rule="evenodd" clip-rule="evenodd" fill="#e1947e"/><path class="st3" d="M181.3 212c-9.8-12.6-6.5 18.9-20.6 5.4-.8-5.9-4.7-11.9-8.8-5-11.5 2.6-11.6-19.3 2.7-19.4 9.9-1.9 26.9-2.4 32.4 3.3 3.6 4.6 3.3 17.9-5.7 15.7z"/><defs><path id="SVGID_00000076577232142240862120000016379183819291015848_" d="M120.8 124.2c25-14.5 66.3-14.9 90.9 0 20.3-44.7 60.1-2.1 24.3 22.4 5.4 10.7 55.7 42.9 13.7 28.4 2.1 4.8 16.8 11.6 16.4 17.1-.9 3.1-6.9 1.2-9 .2 20 39.5-47.1 75.2-82.8 76.6-36.9 6.4-121.4-33.6-98.4-76.6-2.3 1.1-8.6 3-9.2-.6C68.3 185 80 180.6 83.4 175c-4.1 1.1-15 7.7-17.5 1.7 7.4-10.1 24.3-18.9 31-29.9-36.2-25.5 4.6-66.9 23.9-22.6z"/></defs><clipPath id="SVGID_00000098205322542916553020000004454619159446522256_"><use xlink:href="#SVGID_00000076577232142240862120000016379183819291015848_" overflow="visible"/></clipPath><g clip-path="url(#SVGID_00000098205322542916553020000004454619159446522256_)"><path class="st3" d="M166.9 107.5c11.5-.8 9.2 9.9 8.8 18.6-2.4 12.9 3.6 33.8-5.3 43.3-7.6-1.9-11-42.4-13.4-52.1-3.1-11 1.3-8.6 9.9-9.8zm34.6 1.7c13.5-.9 3.4 48.7-5.4 49.1-6-2.8-6.7-52.2 5.4-49.1zm-74.6 6.6c10.6-8.5 16-10.7 14.9 6.8-.3 7.5 3.3 36.3-4.3 37.6-6.9-3.4-11.3-36.2-10.6-44.4zm-46.1 123c-24.2-14.8 25.9-40.2 34.8-39.1-8.5 14-22.4 27.8-34.8 39.1zm43.6-17.5c-7.5 11.1-15.2 40.6-32.9 28.4 1-4.3 29.3-30.9 32.9-28.4zm132 14.4c23.4-15.8-27.5-39-36.5-37.5 9.1 13.6 23.6 26.7 36.5 37.5zM212 220.1c8 10.8 17 39.8 34.2 26.9-1.3-4.2-30.6-29.5-34.2-26.9z"/></g></g></svg>