<?xml version="1.0" encoding="UTF-8"?><svg id="b" xmlns="http://www.w3.org/2000/svg" xmlns:xlink="http://www.w3.org/1999/xlink" viewBox="0 0 500 500"><defs><clipPath id="d"><path d="M474.05,266.65c1.43-.18,4.29-.25,6.02,.38,4.27,1.54,7.21,6.8,6.02,12.42-.81,3.82-4.08,7.28-6.58,9.78-2.85,2.85-6.32,4.94-9.78,6.58-3.68,1.75-7.42,3.51-11.48,4.89-14.87,5.05-40.31,7.25-57.19,1.51-6.49-2.21-11.83-4.79-11.85-13.17,0-3.37,1.63-11.77,4.52-12.23,.87-.14,4.95,1.65,6.21,2.07,19.41,6.42,44.26,1.81,59.45-5.64,3.38-1.66,6.45-4.01,9.97-5.45,1.42-.58,2.93-.9,4.7-1.13Z" clip-rule="evenodd" fill="none"/></clipPath><clipPath id="e"><path d="M240.11,221.32c10.49,9.96,33.29,9.45,52.11,7.52,18.1-1.85,40.13-3.6,56.63,.94,3.65,1.01,7.69,2.4,11.29,4.14,1.79,.86,3.45,1.77,5.27,2.45,9.41,3.5,16.28,9.39,21.26,17.12,4.23,6.57,7.23,13.72,7.52,23.14,.32,10.26-1.96,17.7-5.64,25.02-6.57,13.08-17.08,24.07-30.1,31.42-13.14,7.41-28.48,13.11-46.84,14.48-20.42,1.53-38.94-1.27-54.55-6.21-15.54-4.91-29.13-11.78-41.76-19.56-4.55,3.2-8.95,6.71-13.36,10.16-13.13,10.28-25.81,20.1-39.88,30.29-13.25,9.58-26.97,19.46-43.08,27.09-2.39,1.13-5.3,2.3-8.28,3.39-5.94,2.18-15.57,4.25-17.31-3.01-1.18-4.93,2.63-11.71,4.52-14.86,2.57-4.3,5.41-8.09,8.09-11.48,17.51-22.19,36.9-41.38,58.88-59.07-5.74-2.85-11.52-5.67-16.74-9.03-24.22,17.66-49.65,36.66-75.81,54.18-4.02,2.69-8.43,5.74-13.17,8.46-4.45,2.55-10.15,5.58-15.43,6.21-3.19,.38-6.15-.35-7.34-2.26-1.56-2.52-.39-6.86,.94-9.97,3.64-8.49,9.62-15.62,14.86-22.01,7.94-9.68,15.13-17.38,23.52-25.77,15.49-15.5,31.49-30.14,49.66-42.89,.56-.39,1.1-.9,1.69-1.32,.6-.42,1.41-.71,1.88-1.13,.9-.8,1.21-1.99,1.88-2.82,.67-.82,1.58-1.62,2.26-2.26,4.69-4.38,9.97-7.52,16.18-10.91,15.13-8.26,33.34-15.13,51.92-20.69,9.51-2.84,19.46-5.78,29.35-6.96,4.89-.59,11.79-.22,9.59,6.21Z" clip-rule="evenodd" fill="none"/></clipPath><clipPath id="f"><path d="M308.3,349.37c.19-.8-.89-1.04-1.32-1.32-4.11-2.73-8.46-5.44-12.42-8.47-12.39-9.49-25.82-26.02-17.87-48.53,5.8-16.41,19.55-29.08,36.31-35.18,6.07-2.21,12.86-3.59,20.51-3.95,18.6-.88,33.16,4.72,43.83,12.04,9.96,6.83,17.17,15.3,21.07,27.65,.31,.97,.56,1.84,.75,2.82,.18,.93,.14,1.92,.38,3.01,.41,1.88,1.5,3.9,2.07,6.02,1.66,6.14,1.96,14.13,.19,21.07-2.13,8.32-6.81,14.76-12.23,19.75-5.64,5.21-12.19,9.27-19.19,12.79-6.95,3.5-14.1,7.06-21.82,10.16-15.01,6.03-31.17,10.74-48.72,15.24-8.21,2.1-17.04,4.41-25.96,6.02-7.6,1.37-23.91,3.83-25.39-4.14-.61-3.27,1.63-6.4,3.57-8.28,2.22-2.14,4.65-3.64,6.77-5.08,14.21-9.68,31.75-16.21,49.48-21.63Z" clip-rule="evenodd" fill="none"/></clipPath><clipPath id="g"><path d="M120.84,124.25c5.64-3.52,12.22-6.24,19.94-8.09,7.81-1.88,16.21-2.45,25.59-2.45,4.8,0,9.36-.08,13.73,.38,12.17,1.26,23.52,4.7,31.6,10.16,2.06-4.9,4.53-9.37,8.28-12.98,3.35-3.22,8.62-6.4,14.67-6.4,9.36,0,14.78,7.66,15.43,15.99,1.01,13.15-6.89,20.48-14.11,25.77,6.32,7.59,14.03,16.26,23.14,22.57,2.59,1.8,8.11,3.96,7.9,7.34-.23,3.74-5.81,2.42-8.46,1.69-3.54-.97-6.14-1.91-8.84-3.2,2.62,3.7,8.59,7.95,13.17,11.85,1.53,1.3,3.86,2.89,3.2,5.27-.87,3.13-6.92,1.2-9.03,.19,2.91,5.13,4.29,10.23,3.76,16.56-.47,5.56-2.44,11.35-5.08,15.8-2.53,4.27-6.12,7.62-9.78,11.29-3.59,3.59-7.49,7.05-11.1,9.78-15.84,11.99-35.62,21.21-60.57,23.14-20.74,1.61-38.87-3.22-53.24-9.41-4.81-2.07-9.13-4.55-13.54-7.34-8.32-5.25-16.11-11.4-23.33-18.62-6.87-6.86-13.1-16.58-12.23-29.54,.33-4.86,2.1-8,3.95-11.66-2.29,1.09-8.61,2.98-9.22-.57-.35-2.02,1.83-3.76,3.39-5.08,4.46-3.78,10.19-7.72,13.36-11.67-2.84,.99-5.28,2.24-8.65,3.2-2.83,.8-8.3,2.11-8.84-1.5-.47-3.16,4.93-5.7,7.52-7.52,3.27-2.3,6.18-4.39,8.65-6.58,6.21-5.51,10.36-11.2,14.86-15.8-6.63-5.19-14.27-11.73-14.3-23.52-.02-9.49,5.17-17.96,14.67-18.44,6.1-.31,11.65,2.94,15.24,6.4,3.69,3.56,6.96,7.84,8.28,12.98Z" clip-rule="evenodd" fill="none"/></clipPath></defs><g id="c"><g><path d="M250,0C111.93,0,0,111.93,0,250s111.93,250,250,250,250-111.93,250-250S388.07,0,250,0ZM103.49,167.72c5.69,1.69,6.46,6.8,6.15,11.16-.74,10.35-9.14,31.3-19.33,28.74-18.68-4.69-2.38-44.55,13.18-39.91Zm139.89,235.85c5.33-8.24,29.55-5.32,29.13,7.52-.66,19.9-40.02,9.32-29.13-7.52Zm109.67-2.42c-.61,6.91-4.39,11.49-10.5,14.8-10.89,5.91-40.87,10.61-52.32-1.13-5.29-5.42-5.26-17.13,3.73-24.05,4.16-3.21,24.78-6.67,37.95-6.44,11.88,.2,22.06,6.52,21.14,16.82Zm51.73-56.67c-13.08,7.8-27.47,13.31-40.86,17.41-53.99,16.53-121.83,23.47-188.53,17.83-42.1-3.56-96.22-15.53-112.14-47.56-5.32-10.72-6.16-25.25-2.21-37.97,6.32-20.36,21.79-33.19,35.95-42.91,14.89-10.24,29.7-17.58,44.22-25.45-11.86-12.26-17.84-31.13-11.96-51.01,5.22-17.61,18.55-33.67,30.26-44.79,27.92-26.57,67.56-44.32,106.59-50.51,14.4-2.28,36.48-4.28,48.55,10.4,7.13,8.7,8.61,19.35,4.52,33.11,26.96-.5,72.88,3.13,89.3,27.38,8.46,12.49,7.51,28.37-1.36,42.4-10.89,17.23-29.14,25.85-43.34,35.57,46.64,11.55,81.27,32.19,77.4,69.81-2.32,22.48-20.91,37.08-36.37,46.29Z" fill="#a0f8b5" fill-rule="evenodd"/><g><g><g><path d="M474.05,266.65c1.43-.18,4.29-.25,6.02,.38,4.27,1.54,7.21,6.8,6.02,12.42-.81,3.82-4.08,7.28-6.58,9.78-2.85,2.85-6.32,4.94-9.78,6.58-3.68,1.75-7.42,3.51-11.48,4.89-14.87,5.05-40.31,7.25-57.19,1.51-6.49-2.21-11.83-4.79-11.85-13.17,0-3.37,1.63-11.77,4.52-12.23,.87-.14,4.95,1.65,6.21,2.07,19.41,6.42,44.26,1.81,59.45-5.64,3.38-1.66,6.45-4.01,9.97-5.45,1.42-.58,2.93-.9,4.7-1.13Z" fill="#ef9737" fill-rule="evenodd"/><g clip-path="url(#d)"><g><path d="M484.21,260.63c1.14-1.87,.44-5.58,2.82-6.21,2.37,4.58,2.47,15.47,3.76,22.2,.97,5.07,2.01,10.54-3.01,11.29-1.26,4.61-6.62,4.51-8.28,.56-1.27-3.03-1.83-7.18-2.82-11.66-.98-4.46-1.88-8.75-1.88-12.42,0-2.12,.54-5.17,1.13-6.02,1.95-2.81,7.82-1.8,8.28,2.26Z" fill="#1f1f1f" fill-rule="evenodd"/><path d="M465.21,302.58c-1.01,.98-2.25,2.49-4.14,2.63-1.02,.08-1.8-.19-2.82-.56-1.19,.8-2.2,2.57-4.14,2.82-1.26,.17-2.33-.23-3.57-.75-7.84,2.81-6.74-9.17-6.4-16.93,.35-8,1.07-16.35,3.95-20.13,.46-.36,1.57-.06,2.07-.38,.87-2.33,1.76-4.64,4.89-4.7,1.45-1.15,2.57-3.15,5.64-2.07,2.59,.91,2.9,4.63,3.57,7.9,1.06,5.12,1.91,10.08,3.2,15.8,1.06,4.68,2.37,9.98,2.82,16.37,.06,.86,.64,4.71-.75,5.08-2.17,.58-3.59-4.32-4.33-5.08Z" fill="#1f1f1f" fill-rule="evenodd"/><path d="M433.61,267.97c.47,.79,0,1.84,.19,3.01,.13,.81,.66,1.49,.75,2.07,.47,3.02-.45,6.65-.75,10.16-.56,6.59-.99,12.64-1.88,19.57-.68,5.32-1.65,10.8-7.71,9.22-.96,.18-1.69,1.29-3.01,1.51-1.67,.27-3.23-.29-4.33-1.13-1.26,.31-1.92,1.22-3.76,.94-1.54,1.9-2.15,4.78-4.7,5.27-4.14,.79-5.55-2.55-5.27-6.77,.26-3.97,1.33-8.12,2.26-12.23,1.7-7.49,3.9-15.19,6.77-22.01,.66-1.55,1.34-3.43,2.26-4.89,.93-1.49,2.28-3.23,4.33-2.45,.64,2.36-1.06,5.06-1.32,7.71,3.45,1.34,3.03-3.63,7.34-2.63,.46-3.79,2.72-7.41,7.34-5.83,.77-.23,.36-1.65,1.51-1.5Z" fill="#1f1f1f" fill-rule="evenodd"/></g></g></g><g><path d="M240.11,221.32c10.49,9.96,33.29,9.45,52.11,7.52,18.1-1.85,40.13-3.6,56.63,.94,3.65,1.01,7.69,2.4,11.29,4.14,1.79,.86,3.45,1.77,5.27,2.45,9.41,3.5,16.28,9.39,21.26,17.12,4.23,6.57,7.23,13.72,7.52,23.14,.32,10.26-1.96,17.7-5.64,25.02-6.57,13.08-17.08,24.07-30.1,31.42-13.14,7.41-28.48,13.11-46.84,14.48-20.42,1.53-38.94-1.27-54.55-6.21-15.54-4.91-29.13-11.78-41.76-19.56-4.55,3.2-8.95,6.71-13.36,10.16-13.13,10.28-25.81,20.1-39.88,30.29-13.25,9.58-26.97,19.46-43.08,27.09-2.39,1.13-5.3,2.3-8.28,3.39-5.94,2.18-15.57,4.25-17.31-3.01-1.18-4.93,2.63-11.71,4.52-14.86,2.57-4.3,5.41-8.09,8.09-11.48,17.51-22.19,36.9-41.38,58.88-59.07-5.74-2.85-11.52-5.67-16.74-9.03-24.22,17.66-49.65,36.66-75.81,54.18-4.02,2.69-8.43,5.74-13.17,8.46-4.45,2.55-10.15,5.58-15.43,6.21-3.19,.38-6.15-.35-7.34-2.26-1.56-2.52-.39-6.86,.94-9.97,3.64-8.49,9.62-15.62,14.86-22.01,7.94-9.68,15.13-17.38,23.52-25.77,15.49-15.5,31.49-30.14,49.66-42.89,.56-.39,1.1-.9,1.69-1.32,.6-.42,1.41-.71,1.88-1.13,.9-.8,1.21-1.99,1.88-2.82,.67-.82,1.58-1.62,2.26-2.26,4.69-4.38,9.97-7.52,16.18-10.91,15.13-8.26,33.34-15.13,51.92-20.69,9.51-2.84,19.46-5.78,29.35-6.96,4.89-.59,11.79-.22,9.59,6.21Z" fill="#ef9737" fill-rule="evenodd"/><path d="M332.12,331.24c-20.42,1.53-38.94-1.27-54.55-6.21-15.53-4.91-29.13-11.78-41.76-19.56-4.56,3.2-8.95,6.71-13.36,10.16-2.59,2.03-5.16,4.04-7.73,6.04,.06,.13,.11,.26,.17,.39,.13-.09,.26-.19,.4-.29,12.64,7.79,26.23,14.65,41.76,19.56,15.62,4.94,34.14,7.74,54.55,6.21,18.36-1.38,33.71-7.08,46.84-14.48,7.37-4.16,13.94-9.49,19.44-15.71-12.9,7.11-27.9,12.55-45.75,13.89Z" fill="#ffdeae"/><g clip-path="url(#e)"><g><path d="M211.03,336.76c-.2-.65-.4-1.3-.61-1.96-3.45-10.97-7.12-22.35-12.62-33.48-1.48-2.99-5.76-12.65-10.21-11.78-3.43,.67-3.27,5.39-3.14,7.97,.37,7.78,1.89,15.15,3.24,22.17,1.93,10,4.01,19.88,6.26,29.71,2.78-6.92,9.41-12.03,17.08-12.63Z" fill="#1f1f1f" fill-rule="evenodd"/><path d="M99.44,258.01c.6,.32,1.2,.64,1.81,.96,10.13,5.44,20.63,11.17,30.53,18.65,2.67,2.01,11.36,8.02,9.67,12.23-1.3,3.24-5.9,2.2-8.42,1.6-7.57-1.82-14.53-4.69-21.17-7.32-9.47-3.76-18.78-7.65-28.02-11.69,7.32-1.44,13.57-7,15.59-14.42Z" fill="#1f1f1f" fill-rule="evenodd"/><path d="M70.46,274.36c.39,.56,.78,1.11,1.18,1.68,6.58,9.43,13.35,19.28,18.81,30.43,1.47,3,6.5,12.29,3.1,15.28-2.63,2.3-6.26-.7-8.23-2.38-5.93-5.04-10.85-10.75-15.57-16.11-6.74-7.63-13.3-15.31-19.7-23.09,7.18,2.02,15.27-.11,20.43-5.82Z" fill="#1f1f1f" fill-rule="evenodd"/><path d="M181.62,335.94c-5.08-5.9-10.81-10.78-16.19-15.49-5.8-5.07-11.63-10.02-17.51-14.9-.42,2-1.16,3.96-2.25,5.82-2.48,4.23-6.42,7.25-10.87,8.77,1.12,.78,2.25,1.57,3.4,2.37,9.47,6.52,19.36,13.24,30.54,18.64,3.01,1.45,12.32,6.43,15.3,3.01,2.29-2.64-.74-6.26-2.42-8.22Z" fill="#1f1f1f" fill-rule="evenodd"/><path d="M144.82,345.49c-4.2-4.88-8.74-9.25-13.29-13.36-3.5,6.06-9.96,10.43-17.23,10.05-.59-.03-1.17-.06-1.76-.06-.67,.17-1.34,.37-2,.58-.16,.07-.32,.14-.48,.21,5.6,3.39,11.39,6.62,17.47,9.56,4.04,1.95,16.54,8.64,20.53,4.04,3.07-3.54-.99-8.4-3.25-11.03Z" fill="#1f1f1f" fill-rule="evenodd"/><path d="M55.07,340.07c-4.2-4.88-8.74-9.25-13.29-13.35-3.5,6.06-9.96,10.42-17.23,10.05-.58-.03-1.17-.06-1.75-.06-.67,.18-1.34,.37-2,.58-.16,.07-.32,.14-.48,.21,5.6,3.39,11.39,6.62,17.48,9.56,4.04,1.95,16.54,8.64,20.53,4.04,3.07-3.54-.99-8.4-3.25-11.03Z" fill="#1f1f1f" fill-rule="evenodd"/><path d="M106.82,314.65c4.64,4.47,9.56,8.4,14.48,12.07,2.92-6.36,8.96-11.3,16.23-11.61,.58-.02,1.17-.05,1.75-.1,.65-.24,1.3-.49,1.93-.76,.15-.08,.3-.17,.45-.26-5.89-2.85-11.95-5.54-18.28-7.9-4.2-1.57-17.27-7.07-20.82-2.12-2.73,3.81,1.77,8.27,4.26,10.68Z" fill="#1f1f1f" fill-rule="evenodd"/><path d="M119.99,394.08c2.29-.93,4.78-1.45,7.37-1.47,5.75-.04,11.41-.35,17.07-.5-5.74-9.14-11.74-18.75-19-27.32-2.55-3-7.26-8.4-10.92-4.32-4.75,5.29,1.46,21.89,3.25,27.24,.72,2.15,1.46,4.27,2.23,6.37Z" fill="#1f1f1f" fill-rule="evenodd"/><path d="M75.25,360.53c2.29-.93,4.78-1.46,7.37-1.47,5.75-.04,11.41-.36,17.07-.5-5.74-9.14-11.74-18.75-19-27.32-2.55-3-7.25-8.4-10.92-4.32-4.75,5.29,1.46,21.89,3.25,27.25,.72,2.15,1.47,4.27,2.23,6.37Z" fill="#1f1f1f" fill-rule="evenodd"/></g><g><path d="M321.17,156.06c.58,1.73-.66,3.33-1.35,4.78-4.9,10.33-11.45,20-17.24,29.91-6.58,11.25-13.61,22.25-20.28,33.61-9.96,16.95-19.46,34.03-29.97,50.92-1.56,2.52-3.36,5.38-5.38,8.26-1.66,2.37-4.74,6.41-7.4,6.29-5.46-.26-1.87-11.63-1.24-14.09,3.75-14.6,9.47-28.39,14.89-41.34,6.44-15.4,13.84-30.09,21.95-44.92,.9-1.64,2.71-5.43,3.65-5.9,.98-.49,2.79-.37,4.09-.63,7.68-1.57,13.93-3.77,20.79-5.9,1.13-.35,2.61-.47,3.48-.92,1.02-.54,2.45-3.17,3.45-4.72,3.51-5.43,6.52-10.59,10.18-15.29,.13-.02,.25-.04,.37-.06Z" fill="#1f1f1f" fill-rule="evenodd"/><path d="M353.46,167.52c1.35,.81-.16,2.75-.57,3.58-1.7,3.45-3.87,6.57-6.02,9.78-2.78,4.15-5.5,8.53-8.28,12.6-11.32,16.62-23.06,32.54-35.55,48.35-4.43,5.6-9.02,11.57-14.67,16.93-1.88,1.78-5.34,4.98-8.09,2.82-3.57-2.81,.96-12.35,2.26-15.43,4.84-11.43,11.07-21.64,17.12-31.41,6.49-10.48,12.52-19.54,20.13-28.41,2.51-2.92,4.75-6.07,7.52-8.65,.92-.29,.57,.69,.94,.94,5.8-2.39,12.47-5.55,19-7.34,.69-.19,1.77-.1,2.45-.38,1.51-.61,2.19-2.72,3.57-3.39h.19Z" fill="#1f1f1f" fill-rule="evenodd"/><path d="M384.8,166.42c3.85-.38,8.18-.11,8.84,3.2,.44,2.21-.97,4.8-2.07,6.77-3.09,5.56-7.02,10.97-10.35,15.8-11.83,17.17-23.34,34.44-38.19,49.29-2.3,2.3-7.28,7.74-10.72,5.64-2.99-1.82-.03-8.78,1.32-12.04,4.5-10.9,11.57-22.2,17.68-30.85,7.76-10.98,15.32-22.16,24.64-31.98,.57-.6,1.53-1.32,2.07-2.07,.71-.99,.77-1.9,1.51-2.45,1.25-.94,3.35-1.13,5.27-1.32Z" fill="#1f1f1f" fill-rule="evenodd"/><path d="M417.84,154.51c4.29-.93,9.41-.38,15.43,0,4.36,.27,7.89,.9,8.65,3.95,.59,2.35-1.27,5.71-2.63,7.9-4.14,6.62-9.23,12.67-13.73,18.44-15.55,19.92-30.42,40.24-47.97,59.26-1.85,2.01-2.71,3.16-5.27,5.46-1.15,1.03-4.46,4.34-7.15,2.82-1.98-1.12-1.12-4.47-.19-7.15,2.47-7.05,5.7-14,8.65-20.13,8.5-17.67,18.01-32.63,28.22-48.35,5.01-7.71,9.2-16.13,15.99-22.2Z" fill="#1f1f1f" fill-rule="evenodd"/></g></g></g><g><path d="M308.3,349.37c.19-.8-.89-1.04-1.32-1.32-4.11-2.73-8.46-5.44-12.42-8.47-12.39-9.49-25.82-26.02-17.87-48.53,5.8-16.41,19.55-29.08,36.31-35.18,6.07-2.21,12.86-3.59,20.51-3.95,18.6-.88,33.16,4.72,43.83,12.04,9.96,6.83,17.17,15.3,21.07,27.65,.31,.97,.56,1.84,.75,2.82,.18,.93,.14,1.92,.38,3.01,.41,1.88,1.5,3.9,2.07,6.02,1.66,6.14,1.96,14.13,.19,21.07-2.13,8.32-6.81,14.76-12.23,19.75-5.64,5.21-12.19,9.27-19.19,12.79-6.95,3.5-14.1,7.06-21.82,10.16-15.01,6.03-31.17,10.74-48.72,15.24-8.21,2.1-17.04,4.41-25.96,6.02-7.6,1.37-23.91,3.83-25.39-4.14-.61-3.27,1.63-6.4,3.57-8.28,2.22-2.14,4.65-3.64,6.77-5.08,14.21-9.68,31.75-16.21,49.48-21.63Z" fill="#d67b21" fill-rule="evenodd"/><g clip-path="url(#f)"><g><g><path d="M320.53,392.07c-1.39,.62-1.82,3.82-4.7,3.57-1.13-1.5-.31-3.47,.19-4.89,1.47-4.15,3.91-8.45,6.02-12.23,2.91-5.21,5.94-10.37,8.84-15.43,5.75-10.02,11.82-20.3,18.06-30.66,9.11-15.14,18.16-30.19,28.41-44.58,1.5-2.11,3.16-4.66,5.08-7.15,1.56-2.03,4.34-6.08,6.58-6.4,4.6-.64,4.5,4.19,3.39,7.15-1.42,3.77-4.18,8.37-6.02,11.66-4.5,8.08-8.24,15.09-12.42,22.95-1.38,2.59-2.28,5.49-3.57,8.28-2.36,5.06-5.14,10.11-7.9,15.61-9.22,18.34-18.16,36.3-27.46,55.12-1.38,2.8-2.9,7.23-7.15,6.4-1.41-.28-2.44-1.76-3.2-3.39-3.48,.16-5.11-2.9-4.14-6.02Z" fill="#1f1f1f" fill-rule="evenodd"/><path d="M280.08,400.35c.05-.56-.94-.83-1.13-1.88-.37-1.99,1.75-6.72,2.82-9.22,3.69-8.59,7.89-15.5,12.79-23.33,5.15-8.22,9.19-13.36,14.86-21.26,1.83-2.55,3.71-6.37,6.4-6.58,1.91-.16,3.39,1.17,3.76,2.26,.96,2.81-1.48,7.14-2.63,9.78-6.42,14.69-14.29,27.44-22.01,41.2-1.4,2.5-2.7,5.08-4.52,8.09-1.35,2.24-3.51,6.36-5.83,6.77-3.94,.7-5.5-2.71-4.52-5.83Z" fill="#1f1f1f" fill-rule="evenodd"/><path d="M251.11,405.81c-.97-1.65-.66-5.26,.19-6.77-.84-1.12-1.28-.96-1.51-2.07-.32-1.59,.65-3.96,1.32-5.83,3.03-8.44,7.55-16.53,12.23-23.52,1.75-2.62,3.96-7.58,6.96-8.09,2.33-.4,4.3,1,4.89,2.82,1.38,4.29-1.4,9.98-2.63,13.36-2.8,7.7-6.11,15.43-9.78,22.57-1.32,2.56-3.84,8.52-7.34,8.84-1.89,.17-2.85-.72-4.33-1.32Z" fill="#1f1f1f" fill-rule="evenodd"/><path d="M312.44,307.79c.75-.13,2.62,.09,3.2,1.5,.58,1.45-.22,4.69-.75,6.4-1.72,5.54-4.59,10.6-6.96,15.05-3.76,7.04-7.51,13.94-11.29,18.25-1.45,1.65-3.28,3.3-5.64,4.7-1.37,.81-5.29,3.07-7.9,2.07-.88-.34-1.8-1.87-1.88-2.45-.25-1.87,1.72-4.59,3.01-6.58,1.3-1.99,3-4.16,3.95-5.64,2.92-4.54,4.75-8.15,7.15-11.85,4.13-6.38,7.44-10.53,12.04-16.56,1.36-1.78,2.98-4.51,5.08-4.89Z" fill="#1f1f1f" fill-rule="evenodd"/></g><path d="M358.15,215.24c3.85-.38,8.18-.11,8.84,3.2,.44,2.21-.97,4.8-2.07,6.77-3.09,5.56-7.02,10.97-10.35,15.8-11.83,17.17-23.34,34.44-38.19,49.29-2.3,2.3-7.28,7.74-10.72,5.64-2.99-1.82-.03-8.78,1.32-12.04,4.5-10.9,11.56-22.2,17.68-30.85,7.76-10.98,15.32-22.16,24.64-31.98,.57-.6,1.53-1.32,2.07-2.07,.71-.99,.77-1.89,1.5-2.44,1.25-.94,3.34-1.13,5.27-1.32Z" fill="#1f1f1f" fill-rule="evenodd"/><path d="M379.97,227.09c4.29-.93,9.41-.38,15.43,0,4.36,.28,7.89,.9,8.65,3.95,.59,2.35-1.27,5.71-2.63,7.9-4.14,6.62-9.23,12.67-13.73,18.44-15.56,19.92-30.42,40.24-47.97,59.26-1.85,2.01-2.71,3.16-5.27,5.45-1.15,1.03-4.46,4.34-7.15,2.82-1.99-1.12-1.13-4.47-.19-7.15,2.47-7.05,5.7-14,8.65-20.13,8.5-17.67,18.01-32.63,28.22-48.35,5.01-7.71,9.2-16.13,15.99-22.2Z" fill="#1f1f1f" fill-rule="evenodd"/></g></g></g></g><g><path d="M120.84,124.25c5.64-3.52,12.22-6.24,19.94-8.09,7.81-1.88,16.21-2.45,25.59-2.45,4.8,0,9.36-.08,13.73,.38,12.17,1.26,23.52,4.7,31.6,10.16,2.06-4.9,4.53-9.37,8.28-12.98,3.35-3.22,8.62-6.4,14.67-6.4,9.36,0,14.78,7.66,15.43,15.99,1.01,13.15-6.89,20.48-14.11,25.77,6.32,7.59,14.03,16.26,23.14,22.57,2.59,1.8,8.11,3.96,7.9,7.34-.23,3.74-5.81,2.42-8.46,1.69-3.54-.97-6.14-1.91-8.84-3.2,2.62,3.7,8.59,7.95,13.17,11.85,1.53,1.3,3.86,2.89,3.2,5.27-.87,3.13-6.92,1.2-9.03,.19,2.91,5.13,4.29,10.23,3.76,16.56-.47,5.56-2.44,11.35-5.08,15.8-2.53,4.27-6.12,7.62-9.78,11.29-3.59,3.59-7.49,7.05-11.1,9.78-15.84,11.99-35.62,21.21-60.57,23.14-20.74,1.61-38.87-3.22-53.24-9.41-4.81-2.07-9.13-4.55-13.54-7.34-8.32-5.25-16.11-11.4-23.33-18.62-6.87-6.86-13.1-16.58-12.23-29.54,.33-4.86,2.1-8,3.95-11.66-2.29,1.09-8.61,2.98-9.22-.57-.35-2.02,1.83-3.76,3.39-5.08,4.46-3.78,10.19-7.72,13.36-11.67-2.84,.99-5.28,2.24-8.65,3.2-2.83,.8-8.3,2.11-8.84-1.5-.47-3.16,4.93-5.7,7.52-7.52,3.27-2.3,6.18-4.39,8.65-6.58,6.21-5.51,10.36-11.2,14.86-15.8-6.63-5.19-14.27-11.73-14.3-23.52-.02-9.49,5.17-17.96,14.67-18.44,6.1-.31,11.65,2.94,15.24,6.4,3.69,3.56,6.96,7.84,8.28,12.98Z" fill="#d67b21" fill-rule="evenodd"/><path d="M161.66,145.88c9.83-.47,20.44,.23,28.41,1.88,8.75,1.82,14.83,4.67,20.13,9.97,5.03,5.03,8.48,11.24,11.48,18.62,2.86,7.05,5.21,15,6.58,23.52,1.56,9.62,1.55,19.3-1.32,26.52-1.38,3.49-3.3,6.59-5.64,9.41-2.23,2.69-4.59,5.54-7.15,7.9-5.13,4.74-11.58,8.72-18.44,11.66-13.95,5.99-34.44,7.7-51.36,2.63-15.17-4.54-26.85-13.39-34.99-25.21-4.22-6.12-6.35-13.95-5.83-24.27,.44-8.87,2.62-17.77,5.08-25.02,5.1-15,11.49-28.85,26.52-33.67,7.35-2.36,15.91-3.95,26.15-3.95,.12,0,.25,0,.38,0Z" fill="#ffdeae" fill-rule="evenodd"/><g><path d="M230.32,128.58c3.27,.52,5.46,1.2,5.08,4.14-.43,3.36-7.45,5.91-11.66,5.27-.83-.13-2.17-.66-2.63-1.32-.7-.98-.77-3.83-.57-5.83,.46-4.51,4.65-10.67,7.34-12.23,1.83-1.06,3.93-.33,4.7,1.51,.32,3.9-1.29,5.86-2.26,8.47Z" fill="#ffdeae" fill-rule="evenodd"/><path d="M100.9,132.72c-2.83-2.06-7.94-5.51-7.15-10.72,.37-2.44,2.61-3.88,5.83-3.57,5.01,.48,8.87,4.5,11.85,7.9,1.7,1.94,3.27,3.48,2.82,6.96-.4,3.1-3.25,5.49-6.21,6.77-3.51,1.52-10.53,2.54-10.72-2.26-.11-2.66,1.92-3.76,3.57-5.08Z" fill="#ffdeae" fill-rule="evenodd"/><rect x="145.39" y="140.28" width="41.54" height="58.59" fill="#d67b21"/><path d="M136.37,191.23c-1.24,0-2.36-.85-2.67-2.1-1.49-6.23-5.54-6.71-6.74-6.71h0c-5.41,0-6.66,6.3-6.71,6.57-.28,1.48-1.71,2.47-3.19,2.2-1.48-.27-2.47-1.68-2.21-3.17,.68-3.84,4.09-11.08,12.11-11.08h0c4.57,0,10.15,2.87,12.07,10.92,.35,1.47-.56,2.95-2.03,3.31-.22,.05-.43,.08-.64,.08Z" fill="#1f1f1f"/><path d="M210.92,191.23c-1.24,0-2.36-.85-2.67-2.1-1.49-6.23-5.54-6.71-6.74-6.71h0c-5.41,0-6.66,6.3-6.71,6.57-.28,1.48-1.71,2.47-3.19,2.2-1.48-.27-2.47-1.68-2.21-3.17,.68-3.84,4.09-11.08,12.11-11.08h0c4.57,0,10.14,2.87,12.07,10.92,.35,1.47-.55,2.95-2.03,3.31-.22,.05-.43,.08-.64,.08Z" fill="#1f1f1f"/><g><path d="M167.29,226.71c-3.51,4.28-10.26,8.45-17.52,5.77-.84-.31-2.25-1.03-2.81-1.39-2.19-1.4-6.37-5.11-6.08-8.59,.15-1.78,2.48-3.75,4.96-3.02,1.79,.52,2.2,2.46,3.66,3.94,1.54,1.55,4.97,2.97,8.13,1.54,2.08-.94,3.85-3.11,4.73-5.08,.99-2.22,.69-4.95,3.52-5.7,4.8-1.28,4.96,3.43,6.39,6.28,1.49,2.96,5.37,6.75,10.17,4.53,1.25-.58,2.38-1.74,3.28-2.83,.91-1.12,1.49-2.49,3.09-2.81,2.22-.45,4.05,1.06,4.45,2.53,.75,2.76-1.62,5.29-3.37,7.01-1.89,1.85-4.32,3.41-6.93,4-7.5,1.71-12.53-2.24-15.65-6.18Z" fill="#e1947e" fill-rule="evenodd"/><path d="M181.31,211.97c-1.44-1.51-2-3.32-4.47-3.04-4.49,.51-2.88,7.06-5.1,9.5-2.93,3.21-9.48,1.86-11.01-1.06-1.64-3.14-.56-7.84-4.44-8.03-2.93-.14-2.91,1.41-4.36,3.06-10.57,2.5-9.61-14.1-4.3-17.33,1.42-.86,4.81-1.49,6.98-2.04,8.45-2.15,25.41-1.38,30.32,1.49,.41,.24,1.58,1.18,2.04,1.77,3.61,4.63,3.32,17.83-5.66,15.69Z" fill="#1f1f1f" fill-rule="evenodd"/></g></g><g clip-path="url(#g)"><g><path d="M166.93,107.51c2.73-.03,6.97,.73,8.28,3.2,1.48,2.79,.77,10.98,.56,15.43-.55,11.63-.21,19.32-1.13,31.23-.35,4.6-.32,11.94-4.14,12.04-2.22,.06-3.26-2.4-4.14-5.27-2.13-6.93-3.76-15.45-5.27-22.76-1.5-7.26-2.44-15.27-3.95-24.08-.35-2.07-1.56-6.37-.94-7.52,.55-1.04,2.54-1.32,4.7-1.69,2.34-.4,4.53-.55,6.02-.56Z" fill="#1f1f1f" fill-rule="evenodd"/><path d="M201.54,109.2c1.14-.03,3.77,.39,4.89,1.88,2.73,3.64,1.3,13.03,.57,18.25-.99,6.98-2.48,15.46-4.7,22.01-1.3,3.83-2.7,7.48-6.21,6.96-2.78-.41-3.08-4.04-3.39-8.09-.53-7.18-.41-14.77,.19-22.01,.3-3.67,1.1-7.13,1.32-9.97,.21-2.75-.1-5.88,.94-7.15,1.12-1.37,4.5-1.83,6.4-1.88Z" fill="#1f1f1f" fill-rule="evenodd"/><path d="M126.86,115.79c.99-1.64,3.19-2.62,4.89-3.58,1.87-1.05,4.38-2.72,6.21-2.82,4.93-.27,3.51,7.81,3.76,13.17,.47,9.95,.79,18.38,0,27.65-.36,4.27-.79,10.17-4.33,9.97-2.87-.17-3.99-6.2-4.89-9.03-1.37-4.28-2.35-7.96-3.01-10.72-1.9-7.94-2.85-15.85-2.63-24.64Z" fill="#1f1f1f" fill-rule="evenodd"/><path d="M80.77,238.82c-3.95-3.14-5.35-8.82-7.71-13.55,6.59-8.59,18.46-15.29,28.97-21.07,3.69-2.03,7.31-4.4,11.1-5.46,.75-.21,2.17,.15,2.45,.94,.69,1.97-2.18,4.7-3.39,6.02-4.43,4.83-8.98,9.46-13.17,14.48-2.87,3.44-5.75,6.64-8.65,9.78-2.91,3.15-5.7,6.66-9.59,8.84Z" fill="#1f1f1f" fill-rule="evenodd"/><path d="M124.41,221.32c.39,1.69-1.06,3.05-1.88,4.33-4.22,6.59-8.17,13.09-12.6,20.13-1.54,2.45-3.08,6.62-5.83,7.15-1.09,.21-2.62-.32-4.7-.75-2.14-.44-4.38-.28-5.83-.94-1-.45-1.22-1.46-2.07-1.51,.95-3.37,4.17-5.68,6.77-8.28,4.9-4.9,10.05-9.65,15.62-14.11,2.85-2.29,5.67-4.76,8.65-6.21,.55-.27,1.17-.63,1.88,.19Z" fill="#1f1f1f" fill-rule="evenodd"/><path d="M256.41,235.68c3.81-3.31,4.95-9.05,7.1-13.88-6.96-8.28-19.13-14.45-29.88-19.75-3.78-1.87-7.5-4.07-11.33-4.95-.76-.17-2.16,.25-2.4,1.05-.6,2,2.38,4.6,3.65,5.86,4.64,4.63,9.39,9.05,13.8,13.88,3.02,3.31,6.04,6.37,9.08,9.39,3.05,3.02,6,6.4,9.98,8.4Z" fill="#1f1f1f" fill-rule="evenodd"/><path d="M212.03,220.15c-.31,1.7,1.2,3,2.07,4.24,4.52,6.39,8.75,12.72,13.49,19.55,1.65,2.38,3.37,6.47,6.15,6.88,1.09,.16,2.6-.44,4.66-.96,2.12-.54,4.36-.48,5.79-1.2,.98-.5,1.15-1.52,2-1.6-1.11-3.32-4.42-5.49-7.13-7.96-5.12-4.68-10.47-9.19-16.23-13.4-2.96-2.16-5.88-4.5-8.92-5.81-.56-.24-1.2-.58-1.87,.27Z" fill="#1f1f1f" fill-rule="evenodd"/></g></g></g></g></g></g></svg>