<svg version="1.1" id="Layer_1" xmlns="http://www.w3.org/2000/svg" x="0" y="0" viewBox="0 0 540 540" xml:space="preserve"><style>.st0{fill:#faf089}.st1{fill:#1a202c}.st2{fill:#258e50}.st3{fill:#96bc53}</style><path class="st0" d="M423.1 426.4c1.1 2.2 1.9 4.8 3 7.1-2.1-10.8 7-7.7 15.7-9.4.4 7 .6 14 1 21 1.2-25.7 16.5-25.5 39.7-22.6-1.4 6.6-3.2 13.2-4.3 19.9 5.6-7.3 5.1-23.5 17.1-17.6-4.9 19.3-2.1 11.6 5 1.2 18.3 4.8 32.7 12 37.1 12.7-14.8 7.6-23.9 40-40.9 19.3 10.4 17.7 15.6 11.7-12.7 27.7-15-31.3-15.4-20.5-6.3 2.8-19.2 7.8-40.7 19.2-44.7-10.5-.1 1 2.7 20.8 2.9 22.4-11.6 1.7-22.8 2-34.2-.2-1.6-23.8-.8-27.7-5.5-1.3-10-.1-6.7-8.4-7.9-13.1l-4.3 8.9c-36.3-17.9-29.7-17.9-4.8-51.5 3.8 4.9 9 11.8 12.1 16.9-12.4-28.9 5.4-28.5 32-33.7z"/><path class="st1" d="M401.2 465.2c-114.1 31 61.6-9.5 90.6-18.1 16.6-4.7 12.7-4.6-1.2-1.7-29.7 6.5-59.6 13-89.4 19.8z"/><path class="st2" d="M468.4 368.9c9.6 7.3 2.7 18.9-2.3 27.1s4.9 16-2.7 23.5c-7.6 7.4-21.6-3.3-26.1 3.6s8.7 18.4-1.1 27.5c-9.8 9.1-26.9-6.9-30.1-.7s6.4 19.2-2.2 25.1c-8.6 5.9-22.4-11.4-26.8-6.7-4.3 4.7 8.6 23.4 1.1 31.1s-21.2-11.8-25.6-12.9c-14.4 8.5-31.5-3.6-17.7-19 3.8-4.8-11.1-21.8-3.7-30.9 7.4-9 21 4.3 25.8 2.2 4.8-2.2-1.3-13.9 5.4-20.9 6.7-7.1 20 1 25.7-2.5s-1.2-14.6 6.6-24.3 22.5 2.5 27.3-.2c6.3-20.7-3.6-30.4 27.2-18.8 6.9-1 14.1-6.5 19.2-3.2z"/><path class="st3" d="M373.9 456.5c-13.6 9.7-26.1 21.6-39.3 31.3 34.7-42.9 87.4-70.9 126.9-109.9-24.2 30.8-56.9 54.5-87.6 78.6z"/><path class="st0" d="M116.8 426.9c-1.1 2.2-1.9 4.8-3 7.1 2.1-10.8-7-7.7-15.7-9.4-.4 7-.6 14-1 21-1.2-25.7-16.5-25.5-39.7-22.6 1.4 6.6 3.2 13.2 4.3 19.9-5.6-7.3-5.1-23.5-17.1-17.6 4.9 19.3 2.1 11.6-5 1.2-18.3 4.8-32.7 12-37.1 12.7 14.8 7.6 23.9 40 40.9 19.3-10.4 17.7-15.6 11.7 12.7 27.7 15-31.3 15.4-20.5 6.3 2.8 19.2 7.8 40.7 19.2 44.7-10.5.1 1-2.7 20.8-2.9 22.4 11.6 1.7 22.8 2 34.2-.2 1.6-23.8.8-27.7 5.5-1.3 10-.1 6.7-8.4 7.9-13.1l4.3 8.9c36.3-17.9 29.7-17.9 4.8-51.5-3.8 4.9-9 11.8-12.1 16.9 12.5-28.9-5.3-28.6-32-33.7z"/><path class="st1" d="M138.8 465.7c114.1 31-61.6-9.5-90.6-18.1-16.6-4.7-12.7-4.6 1.2-1.7 29.7 6.4 59.6 13 89.4 19.8z"/><path class="st2" d="M60.2 367.8c-9.6 7.3-2.7 18.9 2.3 27.1s-4.9 16 2.7 23.5c7.6 7.4 21.6-3.3 26.2 3.6s-8.7 18.4 1.1 27.5c9.8 9.1 26.9-6.9 30.1-.7s-6.4 19.2 2.2 25.1c8.6 5.9 22.4-11.4 26.8-6.7 4.3 4.7-8.6 23.4-1.1 31.1 7.5 7.7 21.2-11.8 25.6-12.9 14.4 8.5 31.5-3.6 17.7-19-3.8-4.8 11.1-21.8 3.7-30.9-7.4-9-21 4.3-25.8 2.2-4.8-2.2 1.3-13.9-5.4-20.9s-20 1-25.7-2.5 1.2-14.6-6.6-24.3-22.5 2.5-27.3-.2c-6.3-20.7 3.6-30.4-27.2-18.8-7-1-14.2-6.5-19.3-3.2z"/><path class="st3" d="M154.7 455.4c13.6 9.7 26.1 21.6 39.3 31.3-34.7-42.9-87.4-70.9-126.9-109.9 24.2 30.8 56.9 54.5 87.6 78.6z"/><path d="M488.1 164.9c3.4-26.6-38.9-18.2-46.7-1.4 15.4 4.2 32.8 24.5 46.7 1.4z" fill="#298a00"/><path class="st0" d="M331.1 85.1c-22.9-11.9 5-47.2 24-47.3-4.7 15.9 1.9 46.4-24 47.3z"/><path d="M119.8 68.8c8.5-24.2 39.6 4.6 39.4 21.1-15-3.4-37.6 3.5-39.4-21.1z" fill="#6bb400"/><path d="M34 231.4c19.4 11.8 26.2-28.1 18.1-40.3-8.8 11.1-29.5 22.1-18.1 40.3z" fill="#4a9f00"/></svg>