<?xml version="1.0" encoding="UTF-8"?><svg id="b" xmlns="http://www.w3.org/2000/svg" xmlns:xlink="http://www.w3.org/1999/xlink" viewBox="0 0 500 500"><defs><clipPath id="d"><path d="M118.52,250.89c5.6-5.24,9.85-11.41,15.1-16.85,4.04-4.19,9.03-8.62,13.45-13.28,.65-.69,1.29-1.69,1.83-2.04,.92-.58,3.04-.2,4.52-.15,7.6,.26,14.86,1.23,22.49,2.62,3.52,.64,7.23,1.02,10.6,3.01,4.74,2.79,9.24,7.21,13.26,11.12,11.37,11.06,25.5,23.36,37.15,34.06,8.42,7.73,16.96,15.8,24.51,22.74,8.2,7.55,16.69,15.04,25.02,22.68,8.45,7.75,17.19,14.99,17.5,23.71,.3,8.69-8.17,18.06-15.73,26.78-7.06,8.15-14.82,16.28-22.86,23.49-8.13,7.28-15.75,11.91-24.67,8.4-5.39-2.11-10.84-8.02-15.63-12.52-14.74-13.84-28.43-27.85-42.88-41.81-10.19-9.85-19.46-18.83-28.76-27.94-4.43-4.34-9.44-9.27-14.51-13.95-5.26-4.86-11.71-10.58-13.96-15.83-1.11-2.58-1.65-5.48-2.29-8.28-1.54-6.76-3.11-13.77-3.67-20.96-.14-1.79-.38-3.39-.47-5Z" clip-rule="evenodd" fill="none"/></clipPath><clipPath id="e"><path d="M143.54,210.8c1.15,.86,6.01,5.41,6.48,6.49,.41,.93-.09,4.25-.49,5.63-2.89,9.83-13.37,20.3-21.45,25.52-3.01,1.95-7.67,4.65-10.43,3.85-1.69-.5-7.59-6.62-7.39-6.51,6.55-1.54,13.76-5.48,20.06-12.26,6.51-7,11.27-15.32,13.23-22.72Z" clip-rule="evenodd" fill="none"/></clipPath></defs><g id="c"><g><path d="M250,0C111.93,0,0,111.93,0,250s111.93,250,250,250,250-111.93,250-250S388.07,0,250,0Zm158.57,170.58c12.83-3.23,32.08,4.84,38.01,18.82-.37,6.4-.73,12-5.63,15.97-7.86,6.39-15.62,4.87-22.26,4.3-6.5-.56-14.89-1.18-19.53-5.46-14.17-13.04-6.5-29.62,9.41-33.63ZM193.91,40.99c15.62-3.95,25.8,19.52,8.43,26.33-8.2,3.22-27.11-4.27-30.65-13.82-4.13-11.19,13.84-19.51,22.21-12.51Zm-60.17,31.13c12.75-2.86,30.13-2.66,35.72,8.24,2.62,5.12,.41,12.93-4.55,16.27-9.28,6.25-36.49,5.69-44.64-1.37-2.91-2.51-3.28-5.48-3.53-6.25-3.25-10.43,6.52-14.53,17-16.88ZM421.36,350.78c-20.73,27.74-50.89,51.77-88.06,66.02-31.44,12.08-66.79,17.58-98.1,14.11-29.53-3.27-66.03-11.2-83.02-41.93-8.45-15.29-7.82-30.52-3.19-43,.82-2.18,11.52-18.4,10.41-20.47-.33-.62-11.03-1.66-15.1-2.47-16.03-3.22-32.07-8.97-44.27-15.3-26.69-13.85-60.28-49.91-61.3-86.14-1.68-60.26,95.06-103.72,151.65-107.33-9.97-31.43,35.55-40.01,59.74-40.02,30.08-.01,58.6,11.69,82.8,30.16,13.56,10.36,27.39,22.23,35.72,37.48,12.42,22.74,9.06,46.68-.4,64.21,25.92,8.38,47.26,18.37,64.62,44.96,24.23,37.13,9.49,71.65-11.49,99.72Z" fill="#a0f8b5" fill-rule="evenodd"/><g><g><path d="M419.69,231.55c19.75-1.46,35.19,4.96,45.93,14.22,7.23,6.24,14.14,16.11,18.04,27.34,1.47,4.24,3.05,8.56,2.73,12.3-.59,7.07-7.15,12.48-15.31,10.66-7.19-1.6-8.21-7.65-10.66-14.76-4.86-14.11-16.23-25.29-34.45-25.7-13.96-.31-25.81,5.54-35.81,12.58-9.24,6.5-18.25,14.66-27.34,20.78-11.89,7.99-35.78,19.26-55.77,10.66-5.76-2.48-10.86-6.88-11.21-12.85-.52-8.73,7.85-14.2,15.58-10.39,1.87,.92,3.1,2.18,4.92,2.46,2.78,.43,5.87-.37,8.75-.82,19.04-3,30.58-13.7,42.37-23.24,9.6-7.76,21.56-15.87,36.09-20.23,5.29-1.59,10.4-2.58,16.13-3.01Z" fill="#c37865" fill-rule="evenodd"/><path d="M202.63,321.77c4.56,.72,9.1,3.4,13.12,5.47,3.9,2,7.59,4.24,11.48,6.83,3.22,2.15,7.19,4.31,11.21,7.11,3.11,2.17,8.14,6.02,9.02,9.02,.95,3.24-.04,7.86-.82,11.48-2.19,10.23-5.64,19.74-9.02,28.7-2.08,5.52-4.71,11.68-7.93,17.22-3.07,5.27-7.14,12.35-13.67,13.12-4.61,.54-9.44-2.21-12.85-3.83-3.65-1.73-7.02-3.35-10.93-5.74-3.1-1.9-6.66-4.04-9.84-6.84-2.59-2.28-6.07-7.06-5.19-11.21,1.44-6.83,14.21-5.22,21.32-5.47,.23-10.47-1.58-22.35-1.09-33.9,.35-8.17,1.33-16.44,2.73-23.78,.5-2.6,.73-5.66,1.64-7.38,.15-.39,.43-.67,.82-.82Z" fill="#c37865" fill-rule="evenodd"/><path d="M306.51,231.28c1.93,13.37,4.5,23.57,8.2,34.17,3.61,10.35,8.99,20.34,9.02,33.35,.03,9.33-3,17.64-6.56,24.33-10.39,19.54-29.64,34.1-56.31,36.36-18.74,1.59-34.72-5.24-46.75-14.49-11.8-9.07-20.94-21.35-22.14-39.37-.82-12.22,2.06-21.59,4.37-30.89,2.25-9.06,3.94-19.15,4.37-30.89,.13-3.29-1.37-9.07,.82-10.94,1.67-1.42,8.02,.31,12.03,.55,13.35,.78,26.61,2.19,39.64,2.19,14.03,0,26.02-2.13,37.72-4.37,1.98-.38,4.12-.61,6.02-1.09,1.78-.45,3.55-1.43,5.19-1.64,2.82-.37,2.77,.8,4.37,2.73Z" fill="#b1664f" fill-rule="evenodd"/><path d="M372.12,352.11c-6.17,3.83-11.72,6.52-17.77,9.57-8.48,4.27-19.33,10.03-32.26,6.56-8.23-2.2-15.24-6.95-21.87-12.03-5.34-4.08-8.6-7.24-13.4-12.03-2.72-2.73-4.41-4.01-4.37-8.75,.03-4.68,3.4-9.24,6.01-13.67,4.21-7.13,7.2-12.92,15.58-15.04,8.33-2.1,15.44,3.03,21.05,6.02,4.19,2.23,9.23,5.01,14.22,5.47,5.2,.48,10.35-1.54,15.58-2.73,6.77-1.55,16.01-2.83,22.42-.55,3.19,1.13,5.9,6.78,7.93,10.66,4.37,8.38,7.56,14.03,10.11,25.15,1.42,6.2,.81,11.37-3.28,12.57-4.4,1.3-8.59-2.18-11.21-4.1-3.49-2.56-5.88-4.71-8.75-7.11Z" fill="#c37865" fill-rule="evenodd"/></g><g><g><path d="M397.27,56.05c15.73,8.72,29.92,21.81,31.44,44.01,1.03,15.09-3.78,26.42-9.84,36.09-14.47,23.07-39.9,38.78-76.27,38.54-2.32-21.39-10.65-39.16-18.87-55.77-8.28-16.74-18.23-31.89-28.97-46.2,8.29-13.94,21.26-28.26,38.27-35.26,4.06-1.67,10.63-3.87,12.3,1.37,10.29-4.5,26.75-4.52,38.82-.27,7.93,2.79,17.06,7.15,13.12,17.49Z" fill="#c37865" fill-rule="evenodd"/><path d="M376.5,74.36c4.82,.96,10.46,2.44,15.86,4.92,4.14,1.9,10.18,5.48,10.11,10.39-.07,5.63-7.46,6.93-14.49,6.83,1.39,1.9,3.92,2.93,6.01,4.65,5.11,4.2,11.65,11.98,12.57,20.23,.82,7.28-2.54,13.5-8.2,14.49-4.87,.85-8.71-1.05-13.12-2.46,2.35,3.96,6.53,12.44,1.91,17.77-5.98,6.91-21.82,2.25-28.7-1.36,2.17,4.35,3,12.27-5.2,11.75-5.23-.33-10.94-4.17-14.22-7.11-4.37-3.92-7.82-9.78-11.21-15.86-6.38-11.45-12.26-21.9-19.68-34.17-1.41-2.33-3.27-5.25-4.92-8.47-1.8-3.51-3.62-7.8-3-10.39,.32-1.36,2.58-3.28,4.37-5.19,4.31-4.6,10.51-9.38,15.58-12.58,8.96-5.65,18.84-8.63,29.25-9.29,7.97-.51,14.8,.55,20.78,3.01,5.8,2.38,12.28,7.18,6.29,12.85Z" fill="#ffdeae" fill-rule="evenodd"/></g><g><path d="M83.34,54.95c-15.73,8.72-29.92,21.81-31.44,44.01-1.03,15.09,3.78,26.42,9.84,36.08,14.47,23.08,39.9,38.78,76.27,38.55,2.32-21.39,10.65-39.16,18.86-55.77,8.28-16.74,18.23-31.89,28.98-46.2-8.29-13.94-21.26-28.26-38.27-35.26-4.06-1.67-10.63-3.87-12.3,1.36-10.29-4.5-26.75-4.51-38.82-.27-7.94,2.79-17.06,7.15-13.12,17.5Z" fill="#c37865" fill-rule="evenodd"/><path d="M104.12,73.27c-4.82,.95-10.46,2.44-15.85,4.92-4.14,1.9-10.18,5.48-10.12,10.39,.07,5.63,7.46,6.93,14.49,6.83-1.39,1.9-3.92,2.93-6.01,4.65-5.11,4.2-11.65,11.98-12.58,20.23-.81,7.29,2.54,13.5,8.2,14.49,4.87,.85,8.72-1.05,13.12-2.46-2.35,3.96-6.53,12.43-1.91,17.77,5.98,6.91,21.82,2.25,28.7-1.36-2.18,4.35-3,12.27,5.19,11.75,5.23-.33,10.94-4.17,14.21-7.11,4.37-3.92,7.82-9.78,11.21-15.86,6.38-11.45,12.26-21.91,19.68-34.17,1.41-2.33,3.27-5.26,4.92-8.47,1.81-3.51,3.62-7.8,3.01-10.39-.32-1.36-2.58-3.28-4.37-5.19-4.31-4.6-10.51-9.38-15.58-12.58-8.96-5.65-18.84-8.63-29.25-9.29-7.97-.51-14.8,.55-20.78,3.01-5.79,2.37-12.27,7.18-6.29,12.85Z" fill="#ffdeae" fill-rule="evenodd"/></g><g><path d="M248.83,49.22c31.06,.78,46.25,19.24,60.69,37.72,6.91,8.85,14.07,18.56,20.23,28.98,6.07,10.26,12.19,21.58,15.58,33.35,2.13,7.4,3.03,14.38,2.73,21.87-.29,7.27-2.46,13.65-4.37,20.23-3.59,12.31-12.44,21.22-21.33,27.88-18.2,13.67-43.15,23.37-71.9,26.24-38.68,3.87-76.16-6.1-96.5-24.88-4.37-4.03-7.27-8.7-10.12-14.49-2.85-5.79-5.53-11.13-6.83-17.77-4.27-21.84,3.48-43.25,10.39-60.41,4.77-11.84,10.35-22.93,16.13-33.08,11.87-20.87,25.49-39.76,54.67-43.47-2-3.43-2.06-10.12,2.73-10.66,4.85-.55,7.92,4.67,10.11,7.38,3.55-6.92,7.53-16.99,15.58-18.59,9.99-1.98,5.54,15.26,2.19,19.68Z" fill="#c37865" fill-rule="evenodd"/><g><path d="M262.5,57.69c1.87-.5,2.72,.39,4.37,2.19,1.12,1.21,2.43,2.58,2.46,3.55,.08,2.35-1.79,3.16-3.55,3-2.65-.23-8.71-7.3-3.28-8.75Z" fill="#b1664f" fill-rule="evenodd"/><path d="M225.32,59.6c5.09-1.88,6.29,7.92,2.19,8.2-3.3,.23-5.84-6.85-2.19-8.2Z" fill="#b1664f" fill-rule="evenodd"/><path d="M194.16,81.47c-.6-1.95-.19-3.88,0-5.74,.12-1.22-.04-3.82,1.09-4.92,1.93-1.87,4.73-.3,5.19,1.91,.4,1.92-.48,8.06-1.37,9.02-1.2,1.3-3.54,1.34-4.92-.27Z" fill="#b1664f" fill-rule="evenodd"/><path d="M273.44,73.82c1.74-.22,2.68,1.12,4.1,3.28,1.46,2.22,4.11,7.69-1.09,7.38-2.42-.15-9.47-9.84-3.01-10.66Z" fill="#b1664f" fill-rule="evenodd"/><path d="M249.11,74.09c3.18-.91,3.72,1.92,4.65,4.92,.9,2.92,2.13,6.66-1.37,7.11-.43,.05-1.73-.06-2.46-.55-2.17-1.43-4.57-10.41-.82-11.48Z" fill="#b1664f" fill-rule="evenodd"/><path d="M213.84,80.11c5.59-1.97,5.7,11.23,1.64,11.48-4.2,.25-5.18-10.23-1.64-11.48Z" fill="#b1664f" fill-rule="evenodd"/><path d="M146.32,167.04c.24,3.84,.08,10.15-3.56,10.39-1.4,.09-3-.82-3.28-2.46-.36-2.07,1.19-7.72,2.19-8.48,1.37-1.04,2.99-.92,4.65,.55Z" fill="#b1664f" fill-rule="evenodd"/><path d="M330.84,198.2c-1.09,.92-1.28,2.05-3.55,1.64-3.37-.61-6.64-11.6,0-9.84,2.16,.57,3.61,5.38,3.55,8.2Z" fill="#b1664f" fill-rule="evenodd"/><path d="M155.61,198.48c-.33,3.91,.3,8.65-2.73,9.29-7.48,1.58-2.78-17.37,2.73-9.29Z" fill="#b1664f" fill-rule="evenodd"/><path d="M314.99,208.59c0,4.46,.67,9.63-3.28,9.57-6.12-.1-2.21-17.08,3.28-9.57Z" fill="#b1664f" fill-rule="evenodd"/><path d="M166.27,214.33c3.23-3.47,5.16-1.49,6.29,2.73,.73,2.73,1.31,6.33-1.91,6.56-4.06,.3-4.12-5.11-4.37-9.29Z" fill="#b1664f" fill-rule="evenodd"/><path d="M442.93,242.49c2.42-.89,9.62,1.42,8.47,5.47-1,3.52-10.05,.77-10.39-2.46-.19-1.8,.91-2.63,1.91-3.01Z" fill="#b1664f" fill-rule="evenodd"/><path d="M471.36,264.63c-.75,.83-1.92,2.29-4.1,1.64-1.53-.45-2.79-4.33-4.1-6.29-1.33-1.99-4.05-4.32-4.1-6.01-.05-1.69,1.47-3.53,4.1-3.01,1.93,.38,3.68,3.64,5.19,5.74,1.77,2.46,3.5,4.51,3.01,7.93Z" fill="#b1664f" fill-rule="evenodd"/><path d="M212.2,253.15c.39,3.95,0,12.85-5.19,11.21-1.58-.5-1.69-2.79-1.37-5.2,.55-4.12,1.84-9.45,6.56-6.01Z" fill="#b1664f" fill-rule="evenodd"/><path d="M219.31,265.45c1.93,2.3,.98,11.62-2.46,12.03-5.45,.64-3.13-8.65-1.37-11.76,.73-.7,2.77-.7,3.83-.27Z" fill="#b1664f" fill-rule="evenodd"/><path d="M372.67,266c1.08-.16,3.35-.27,3.56,2.46,.18,2.42-2.24,3.48-3.83,4.65-1.44,1.05-3.24,3.14-5.2,3.01-1.76-.12-2.83-1.6-2.73-3.28,.1-1.61,1.93-2.81,3.28-3.83,1.65-1.25,2.97-2.71,4.92-3.01Z" fill="#b1664f" fill-rule="evenodd"/><path d="M355.17,279.94c2.4-.51,5-.28,4.37,3.28-.29,1.63-7.2,5.69-9.57,5.47-1.58-.15-2.86-1.22-2.73-3.28,.12-2.06,2.16-2.55,3.55-3.28,1.28-.67,2.75-1.84,4.37-2.19Z" fill="#b1664f" fill-rule="evenodd"/><path d="M205.09,282.13c3.8-.73,3.64,3,3.01,7.38-.39,2.74-.94,5.08-3.28,5.2-.74,.03-2.55-.61-3.01-1.91-.76-2.15,.62-8.95,1.37-9.84,.3-.37,1.38-.72,1.91-.82Z" fill="#b1664f" fill-rule="evenodd"/><path d="M208.65,310.28c1.18,.96,1.38,3.24,2.19,5.47,.95,2.64,3.35,7.73-1.09,7.93-2.19,.1-3.17-2.2-4.1-4.65-1.46-3.85-3.54-10.34,3.01-8.75Z" fill="#b1664f" fill-rule="evenodd"/><path d="M229.15,313.29c2.16-.5,2.41,.62,4.1,2.73,1.05,1.32,2.58,2.27,2.73,3.55,.24,1.96-.7,3.29-2.19,3.56-1.93,.35-3.26-1.04-4.64-2.73-1.12-1.36-4.18-6.14,0-7.11Z" fill="#b1664f" fill-rule="evenodd"/><path d="M219.31,324.23c2.89-.93,4.27,2.06,6.56,4.92,1.75,2.18,3.26,4,3.01,5.74-.19,1.34-1.42,2.34-2.46,2.46-1.91,.23-3.83-1.79-5.74-4.37-1.56-2.11-5.71-7.36-1.37-8.75Z" fill="#b1664f" fill-rule="evenodd"/><path d="M333.58,338.44c1.4-.31,5.17,.12,6.29,.82,1.25,.78,1.91,3.3,.82,4.65-2.14,2.64-9.08,.59-9.57-1.91-.6-3.08,1.22-3.28,2.46-3.55Z" fill="#b1664f" fill-rule="evenodd"/><path d="M251.57,351.56c-3.56,.07-4.92-.85-7.38-2.19-1.96-1.06-5.61-2.48-5.19-5.47,.63-4.6,5.97-1.16,9.02,.27,3.95,1.85,7.41,3.74,3.55,7.38Z" fill="#b1664f" fill-rule="evenodd"/><path d="M325.65,356.49c-3.21,2.14-11.18-1-11.48-4.37-.16-1.75,.76-3.07,2.46-3.28,1.52-.19,2.9,1.2,4.65,1.92,3.64,1.49,6.25,1.42,4.37,5.74Z" fill="#b1664f" fill-rule="evenodd"/><path d="M340.14,354.02c2.13,0,3.71-.03,3.83,2.46,.07,1.38-1.09,2.76-2.19,3.28-1.78,.84-7.19,1.15-7.93-1.37-1.06-3.64,2.24-4.37,6.29-4.37Z" fill="#b1664f" fill-rule="evenodd"/><path d="M228.6,382.18c1.4-.46,3.7-.44,4.1,2.19,.2,1.33-2.27,7.92-3.28,8.75-1.73,1.43-4.69,.86-5.2-1.37-.48-2.14,2.91-9.08,4.37-9.57Z" fill="#b1664f" fill-rule="evenodd"/><path d="M213.02,395.58c1.43-.36,3.48-.29,3.83,2.19,.28,2.04-2.78,6.88-6.29,5.74-3.71-1.21-.16-7.26,2.46-7.93Z" fill="#b1664f" fill-rule="evenodd"/><path d="M220.13,404.6c1.12-.26,3.1,.06,3.55,1.64,.61,2.15-2.47,7.36-3.55,8.2-1.81,1.41-5.28,.71-5.47-1.91-.06-.84,1.36-3.2,1.91-4.1,1.04-1.71,1.77-3.42,3.55-3.83Z" fill="#b1664f" fill-rule="evenodd"/></g><g><path d="M236.26,108.26c8.65-9.52,19.94-16.61,36.63-17.49,9.6-.51,17.64,2.28,24.06,5.47,19.44,9.64,30.78,29.38,29.25,58.5-.92,17.51-7.54,31.44-16.13,42.65-8.67,11.31-20.19,20.17-32.8,25.97-14.87,6.84-32.37,9.68-50.03,7.38-17.06-2.21-30.81-7.88-42.37-16.4-15.83-11.66-29.77-30.19-31.71-56.59-.62-8.43-.22-17.73,2.73-25.97,.3-.86,3.67-7.51,4.64-9.3,4.7-8.6,12.69-15.77,21.33-20.23,13.64-7.05,33.14-7.16,47.56,.55,2.49,1.33,4.29,2.89,6.84,5.47Z" fill="#ffdeae" fill-rule="evenodd"/><g><path d="M207.51,153.77c-1.8,0-3.43-1.23-3.87-3.06-2.17-9.05-8.05-9.76-9.79-9.76h0c-7.86,0-9.67,9.15-9.74,9.54-.41,2.16-2.48,3.59-4.64,3.2-2.16-.4-3.59-2.45-3.21-4.61,.99-5.57,5.94-16.1,17.59-16.1h0c6.64,0,14.74,4.17,17.55,15.87,.51,2.14-.81,4.3-2.95,4.81-.31,.08-.63,.11-.93,.11Z" fill="#1f1f1f"/><path d="M242.1,206.87c-15.96,0-23.4-15.29-23.72-15.98-.94-1.99-.1-4.36,1.89-5.31,1.99-.94,4.36-.1,5.3,1.88,.26,.53,6.23,12.54,18.3,11.34,3.81-.38,12.79-2.69,14.09-15.92,.22-2.19,2.17-3.79,4.36-3.58,2.19,.21,3.79,2.16,3.58,4.36-1.53,15.61-11.97,22.16-21.23,23.08-.88,.08-1.73,.13-2.57,.13Z" fill="#1f1f1f"/><path d="M288.82,150.29c-1.8,0-3.43-1.23-3.88-3.06-2.17-9.05-8.04-9.76-9.79-9.76h0c-7.86,0-9.67,9.15-9.75,9.54-.4,2.16-2.48,3.59-4.64,3.2-2.16-.4-3.59-2.45-3.21-4.61,.99-5.57,5.94-16.11,17.59-16.11h0c6.64,0,14.74,4.17,17.55,15.87,.51,2.14-.81,4.29-2.95,4.81-.31,.08-.62,.11-.93,.11Z" fill="#1f1f1f"/><path d="M236.32,170.29c0,1.69-1.37,3.06-3.06,3.06s-3.06-1.37-3.06-3.06,1.37-3.06,3.06-3.06,3.06,1.37,3.06,3.06Z" fill="#e1947e"/><path d="M249.04,168.44c0,1.69-1.37,3.06-3.06,3.06s-3.06-1.37-3.06-3.06,1.37-3.06,3.06-3.06,3.06,1.37,3.06,3.06Z" fill="#e1947e"/></g></g></g></g><g><g><g><path d="M118.52,250.89c5.6-5.24,9.85-11.41,15.1-16.85,4.04-4.19,9.03-8.62,13.45-13.28,.65-.69,1.29-1.69,1.83-2.04,.92-.58,3.04-.2,4.52-.15,7.6,.26,14.86,1.23,22.49,2.62,3.52,.64,7.23,1.02,10.6,3.01,4.74,2.79,9.24,7.21,13.26,11.12,11.37,11.06,25.5,23.36,37.15,34.06,8.42,7.73,16.96,15.8,24.51,22.74,8.2,7.55,16.69,15.04,25.02,22.68,8.45,7.75,17.19,14.99,17.5,23.71,.3,8.69-8.17,18.06-15.73,26.78-7.06,8.15-14.82,16.28-22.86,23.49-8.13,7.28-15.75,11.91-24.67,8.4-5.39-2.11-10.84-8.02-15.63-12.52-14.74-13.84-28.43-27.85-42.88-41.81-10.19-9.85-19.46-18.83-28.76-27.94-4.43-4.34-9.44-9.27-14.51-13.95-5.26-4.86-11.71-10.58-13.96-15.83-1.11-2.58-1.65-5.48-2.29-8.28-1.54-6.76-3.11-13.77-3.67-20.96-.14-1.79-.38-3.39-.47-5Z" fill="#f4e1f9" fill-rule="evenodd"/><g clip-path="url(#d)"><g><path d="M193.28,234.14c-.11,.1-.2,.2-.3,.28-.05,.05-.09,.09-.14,.14-1.27,1.27-2.54,2.53-3.79,3.83-2.07,2.15-4.14,4.32-6.12,6.57-9.4,10.62-17.85,22.14-26.62,33.29l-17.67,22.48c.09,.08,.18,.17,.27,.24,5.07,4.69,10.07,9.61,14.51,13.95,9.3,9.11,18.57,18.09,28.76,27.94,14.44,13.95,28.13,27.97,42.88,41.81,4.79,4.5,10.25,10.41,15.63,12.52,8.92,3.51,16.54-1.12,24.67-8.4,8.04-7.2,15.8-15.33,22.86-23.49,7.56-8.72,16.02-18.09,15.73-26.78-.3-8.72-9.04-15.96-17.5-23.71-8.32-7.64-16.82-15.13-25.02-22.68-7.55-6.94-16.09-15.01-24.51-22.74-11.65-10.7-25.78-23-37.15-34.06-1.24-1.21-2.52-2.46-3.85-3.69-.88,.83-1.77,1.66-2.65,2.51Z" fill="#805ad5" fill-rule="evenodd"/><path d="M205.08,234.59c-5.63,2.5-9.82,3.68-13.82,8.26-4.6,5.34-4.1,5.74-1.85,11.16,1.13,3.74,1.76,1.38,.39,5.2-.88,2.16-4.69,6.49-6.83,7.66-5.72,3.65-11.85,.05-15.73,7.59-2.61,4.87,1.04,10.58-.97,14.7-3.4,5.88-9.74,.48-14.6-.08-12.31-1.94-5.59,12.29-10.99,18.64l-21.96-31.1c.81-4.66,.16-10.05,3.13-13.82,3.96-5.03,7.33-1.56,12.2,1.04,3.67,2.07,12.56,7.84,16.93,4.35,4.56-3.74-.27-7.95-1.15-11.49-1.29-5.09,2.36-10.77,5.77-14.6,3.36-4.28,19.67-8.96,18.66-15.46-.34-4.75-9.85-6.11-10.84-10.55-1.13-3.74,3.43-7.48,5.86-10.05l35.79,28.54Z" fill="#b794f4" fill-rule="evenodd"/><path d="M147.43,314.66c1.11-4.01,2.54-13.07,6.56-15.6,5.72-3.65,9.26,6.87,15.75,5.86,10.53-1.49,4.49-17.63,12.1-22.64,6.11-4.16,15.77-3.49,20.66-10.23,2.97-3.77,1.15-5.61,.61-10.1-1.15-11.49,12.85-16.35,19.79-23.11l-17.83-4.24c-5.63,2.5-9.82,3.68-13.82,8.26-4.6,5.34-4.1,5.74-1.85,11.16,1.13,3.74,1.76,1.38,.39,5.2-.88,2.16-4.69,6.49-6.83,7.66-5.72,3.65-11.85,.05-15.73,7.59-2.61,4.87,1.04,10.58-.97,14.7-3.4,5.88-9.74,.48-14.6-.08-12.31-1.94-5.59,12.29-10.99,18.64l6.76,6.94Z" fill="#f4e1f9" fill-rule="evenodd"/></g></g></g><g><path d="M143.54,210.8c1.15,.86,6.01,5.41,6.48,6.49,.41,.93-.09,4.25-.49,5.63-2.89,9.83-13.37,20.3-21.45,25.52-3.01,1.95-7.67,4.65-10.43,3.85-1.69-.5-7.59-6.62-7.39-6.51,6.55-1.54,13.76-5.48,20.06-12.26,6.51-7,11.27-15.32,13.23-22.72Z" fill="#fdffff" fill-rule="evenodd"/><path d="M143.63,210.87c2.01,1.92-2.52,12.19-11.72,21.84-9.21,9.65-19.61,15.03-21.62,13.11-2.01-1.92,3.82-11.3,13.03-20.95,9.21-9.65,18.3-15.92,20.31-14Z" fill="#f4e1f9" fill-rule="evenodd"/><g clip-path="url(#e)"><g><rect x="117.74" y="239.16" width="1.85" height="20.29" transform="translate(-146.28 171.61) rotate(-48.2)" fill="#f4e1f9"/><rect x="121.43" y="234.46" width="1.85" height="20.29" transform="translate(-141.58 172.89) rotate(-48.22)" fill="#f4e1f9"/><rect x="127.94" y="231.88" width="1.85" height="20.29" transform="translate(-137.46 176.8) rotate(-48.21)" fill="#f4e1f9"/><polygon points="141.89 244.71 126.76 231.19 127.99 229.81 143.12 243.33 141.89 244.71" fill="#f4e1f9"/><rect x="140.41" y="221.62" width="1.85" height="20.29" transform="translate(-125.66 182.72) rotate(-48.21)" fill="#f4e1f9"/><rect x="143.58" y="214.95" width="1.85" height="20.29" transform="translate(-119.63 182.85) rotate(-48.22)" fill="#f4e1f9"/><rect x="147.75" y="209.64" width="1.85" height="20.29" transform="translate(-114.27 184.19) rotate(-48.21)" fill="#f4e1f9"/></g></g></g></g><path d="M292.3,284.04c.13-6.07-2.51-12.98-4.92-19.96-3.96-11.47-8.64-27.58,4.37-31.16,1.32-.36,4.1-.36,5.47,0,3.67,.97,7.61,4.97,10.66,8.2,5.77,6.1,11.08,14.75,14.49,23.24,3,7.47,6.34,19.97,1.64,28.43-5.14,9.25-16.97,14.36-29.8,16.67-23.78,4.3-46.84-3.7-57.95-16.95-2.47-2.94-4.78-7.03-4.1-11.2,.84-5.2,8.39-8.55,13.4-9.02,4.63-.44,9.3,.59,13.39,1.36,8.04,1.52,15.44,3.95,22.42,6.84,3.41,1.41,6.71,3.41,10.93,3.55Z" fill="#c37865" fill-rule="evenodd"/><path d="M127.17,290.09c6.65-.86,12.19,4,16.13,7.65,4.07,3.78,7.36,7.21,6.56,15.04-.83,8.1-6.33,15.56-12.03,16.95-2.86,.7-5.46,.39-7.93-.82-5.51-2.7-10.28-12.21-10.93-19.68-.76-8.68,1.03-18.21,8.2-19.14Z" fill="#c37865" fill-rule="evenodd"/></g></g></g></g></svg>