<svg xmlns="http://www.w3.org/2000/svg" viewBox="0 0 540 540"><path d="M423.15 426.4c.86 1.81 1.65 3.68 2.36 5.66l.68 1.47c.48.08 0-7.17-.03-7.54 4.84-.65 10.06-1.23 15.75-1.87.3 5.96.66 11.92.82 17.9l.22 3.11.72-2.08c1.68-6.44 3.05-12.96 3.91-19.56 13.57-1.51 20.54-2.85 35.04-1.01-1.35 5.82-2.6 11.66-3.91 17.49l-.38 2.42 1.31-2.38c2.64-5.57 5.2-11.18 7.62-16.85 2.78.46 5.52 1.01 8.18 1.61-.25.91-3.02 12.09-2.56 12.42.06.04.15 0 .29-.15l7.25-11.06c18.34 4.81 32.65 11.96 37.07 12.72-9.52 6.73-19.3 19.28-28.18 28.87-4.15-3.44-8.44-6.86-12.75-9.57-.08-.05-1.79-1.12-1.31-.26l10.77 13.27c-2.51 2.53-4.93 4.72-7.24 6.36-3.17 2.24-8.36 5.2-14.94 8.28-1.04-2.23-2.21-4.72-3.46-7.32-4.86-7.84-9.56-15.34-9.56-15.34l2.04 12.82c1.67 4.8 3.42 9.4 4.68 12.62-10.34 4.34-23.08 8.57-36.52 11.06-2.12-6.48-4.7-12.86-7.09-19.21-.04-.11-.78-2.29-1.06-2.35l.26 2.84 2.68 19.59c-11.6 1.71-22.84 2.03-34.19-.23-.08-6.16-.83-12.25-1.37-18.4-.01-.13-.08-1.79-.32-1.9s-.58 2.05-.58 2.05c-1.15 5.64-2.2 11.3-3.25 16.95a89.58 89.58 0 0 1-7.72-2.45c.08-1.04.54-10.59.04-10.82s-.24.16-.24.16l-4.31 8.86c-16.01-6.84-25.66-16.14-25.66-16.14s5.81-22.13 20.82-35.38c3.48 4.62 8.49 10.8 11.41 15.89.06.11.37.78.61.95s.06.03.08.04.11-1.36.11-1.36c-.45-6.16-4.07-13.9-7.11-19.4 11.55-7.45 23.88-10.63 39.03-12.8Z" fill="#faf089"/><path d="M401.24 465.2c-8.26 1.91-16.53 3.94-24.67 6.34-4.49 1.33-9.04 2.75-13.37 4.56-1.2.5-2.39 1.03-3.53 1.67-1.32.74-2.26 1.54 0 1.16 1.2-.2 2.39-.51 3.57-.81 4.7-1.19 9.39-2.46 14.1-3.62 8.17-2.02 16.37-3.93 24.57-5.84 9.53-2.22 19.08-4.34 28.63-6.46 11.46-2.55 22.9-5.2 34.3-8.01 9.04-2.23 18.07-4.51 27.03-7.07 16.62-4.75 12.71-4.6-1.16-1.68l-.54.11c-8.67 1.83-17.33 3.75-25.99 5.65-11.49 2.51-22.99 5-34.47 7.57-9.49 2.13-18.99 4.24-28.47 6.43Z" fill="#1a202c"/><path d="M468.39 368.86c9.56 7.33 2.69 18.88-2.29 27.12-4.98 8.24 4.86 16.05-2.72 23.47-7.58 7.41-21.58-3.31-26.15 3.57s8.69 18.4-1.11 27.5c-9.79 9.1-26.87-6.88-30.08-.69-3.21 6.19 6.42 19.19-2.22 25.08-8.64 5.88-22.42-11.43-26.76-6.73-4.33 4.71 8.59 23.38 1.07 31.1-7.52 7.72-21.23-11.76-25.58-12.89-4.35-1.13-11.43 8.36-18.95.18s-2.61-14.38 1.21-19.16c3.82-4.79-11.09-21.83-3.68-30.87 7.42-9.05 21.01 4.33 25.83 2.17 4.82-2.16-1.31-13.85 5.36-20.92 6.67-7.07 20.01.99 25.69-2.52s-1.19-14.64 6.57-24.3 22.49 2.5 27.26-.2c4.77-2.7-1.23-17.65 5.6-22.86 6.82-5.2 14.5 4.85 21.57 4.01 7.08-.83 14.3-6.34 19.37-3.06Z" fill="#258e50"/><path d="M373.92 456.48c-7.37 5.7-14.79 11.34-22.02 17.22-4.08 3.32-8.07 6.76-12.02 10.24-1.12.99-2.24 1.99-3.42 2.92-.25.2-1.54 1.25-1.87.94-.3-.29.32-1.44.45-1.69.7-1.33 1.56-2.53 2.45-3.69 3.42-4.46 7.5-8.4 11.59-12.14 6.9-6.3 14.27-12.11 21.65-17.8 8.55-6.58 17.12-13.11 25.57-19.82 10.29-8.17 20.5-16.43 30.52-24.94 8.15-6.93 16.14-14.06 24.11-21.2 2.46-2.21 4.92-4.42 7.46-6.54.31-.26 2.81-2.4 3.09-2.09.33.36-2.48 3.66-2.81 4.06-2.24 2.66-4.58 5.21-6.96 7.73-7.07 7.48-14.47 14.58-22.06 21.47-9.8 8.92-19.93 17.45-30.31 25.65-8.42 6.65-16.95 13.15-25.43 19.71Z" fill="#96bc53"/><path d="M116.85 426.86c-.86 1.81-1.65 3.68-2.36 5.66l-.68 1.47c-.48.08 0-7.17.03-7.54-4.84-.65-10.06-1.23-15.75-1.87-.3 5.96-.66 11.92-.82 17.9l-.22 3.11-.72-2.08c-1.68-6.44-3.05-12.96-3.91-19.56-13.57-1.51-20.54-2.85-35.04-1.01 1.35 5.82 2.6 11.66 3.91 17.49l.38 2.42-1.31-2.38c-2.64-5.57-5.2-11.18-7.62-16.85-2.78.46-5.52 1.01-8.18 1.61.25.91 3.02 12.09 2.56 12.42-.06.04-.15 0-.29-.15l-7.25-11.06c-18.34 4.81-32.65 11.96-37.07 12.72 9.52 6.73 19.3 19.28 28.18 28.87 4.15-3.44 8.44-6.86 12.75-9.57.08-.05 1.79-1.12 1.31-.26l-10.77 13.27c2.51 2.53 4.93 4.72 7.24 6.36 3.17 2.24 8.36 5.2 14.94 8.28 1.04-2.23 2.21-4.72 3.46-7.32 4.86-7.84 9.56-15.34 9.56-15.34l-2.04 12.82c-1.67 4.8-3.42 9.4-4.68 12.62 10.34 4.34 23.08 8.57 36.52 11.06 2.12-6.48 4.7-12.86 7.09-19.21.04-.11.78-2.29 1.06-2.35l-.26 2.84-2.68 19.59c11.6 1.71 22.84 2.03 34.19-.23.08-6.16.83-12.25 1.37-18.4.01-.13.08-1.79.32-1.9s.58 2.05.58 2.05c1.15 5.64 2.2 11.3 3.25 16.95a89.58 89.58 0 0 0 7.72-2.45c-.08-1.04-.54-10.59-.04-10.82s.24.16.24.16l4.31 8.86c16.01-6.84 25.66-16.14 25.66-16.14s-5.81-22.13-20.82-35.38c-3.48 4.62-8.49 10.8-11.41 15.89-.06.11-.37.78-.61.95s-.06.03-.08.04-.11-1.36-.11-1.36c.45-6.16 4.07-13.9 7.11-19.4-11.55-7.45-23.88-10.63-39.03-12.8Z" fill="#faf089"/><path d="M138.76 465.66c8.26 1.91 16.53 3.94 24.67 6.34 4.49 1.33 9.04 2.75 13.37 4.56 1.2.5 2.39 1.03 3.53 1.67 1.32.74 2.26 1.54 0 1.16-1.2-.2-2.39-.51-3.57-.81-4.7-1.19-9.39-2.46-14.1-3.62-8.17-2.02-16.37-3.93-24.57-5.84-9.53-2.22-19.08-4.34-28.63-6.46-11.46-2.55-22.9-5.2-34.3-8.01-9.04-2.23-18.07-4.51-27.03-7.07-16.62-4.75-12.71-4.6 1.16-1.68l.54.11c8.67 1.83 17.33 3.75 25.99 5.65 11.49 2.51 22.99 5 34.47 7.57 9.49 2.13 18.99 4.24 28.47 6.43Z" fill="#1a202c"/><path d="M60.23 367.76c-9.56 7.33-2.69 18.88 2.29 27.12 4.98 8.24-4.86 16.05 2.72 23.47 7.58 7.41 21.58-3.31 26.15 3.57s-8.69 18.4 1.11 27.5c9.79 9.1 26.87-6.88 30.08-.69 3.21 6.19-6.42 19.19 2.22 25.08 8.64 5.88 22.42-11.43 26.76-6.73 4.33 4.71-8.59 23.38-1.07 31.1 7.52 7.72 21.23-11.76 25.58-12.89 4.35-1.13 11.43 8.36 18.95.18s2.61-14.38-1.21-19.16c-3.82-4.79 11.09-21.83 3.68-30.87-7.42-9.05-21.01 4.33-25.83 2.17-4.82-2.16 1.31-13.85-5.36-20.92-6.67-7.07-20.01.99-25.69-2.52s1.19-14.64-6.57-24.3-22.49 2.5-27.26-.2c-4.77-2.7 1.23-17.65-5.6-22.86-6.82-5.2-14.5 4.85-21.57 4.01-7.08-.83-14.3-6.34-19.37-3.06Z" fill="#258e50"/><path d="M154.69 455.38c7.37 5.7 14.79 11.34 22.02 17.22 4.08 3.32 8.07 6.76 12.02 10.24 1.12.99 2.24 1.99 3.42 2.92.25.2 1.54 1.25 1.87.94.3-.29-.32-1.44-.45-1.69-.7-1.33-1.56-2.53-2.45-3.69-3.42-4.46-7.5-8.4-11.59-12.14-6.9-6.3-14.27-12.11-21.65-17.8-8.55-6.58-17.12-13.11-25.57-19.82-10.29-8.17-20.5-16.43-30.52-24.94-8.15-6.93-16.14-14.06-24.11-21.2-2.46-2.21-4.92-4.42-7.46-6.54-.31-.26-2.81-2.4-3.09-2.09-.33.36 2.48 3.66 2.81 4.06 2.24 2.66 4.58 5.21 6.96 7.73 7.07 7.48 14.47 14.58 22.06 21.47 9.8 8.92 19.93 17.45 30.31 25.65 8.42 6.65 16.95 13.15 25.43 19.71Z" fill="#96bc53"/><path d="M488.12 164.85c1.71-4.1.15-7.52-.15-8.2-.5-1.14-1.25-2.18-2.14-3.12-1.82-1.94-4.35-3.41-7.23-4.41-4.95-1.73-11.06-2-17.21-.21-4.29 1.24-8.32 3.44-11.79 6.01-1.75 1.29-3.34 2.71-4.84 4.17-1.3 1.26-2.57 2.61-3.15 4.08-.05.05-.09.11-.13.16-.02.05-.05.1-.07.15.1-.04.21-.06.32-.07 1.5-.37 2.85-.03 4.01.41 1.49.56 2.77 1.35 3.9 2.24 2.38 1.87 4.45 3.96 7.1 5.63 3.95 2.49 9.13 4.53 15.18 3.85 4.79-.54 9.76-2.84 13.14-6.09 1.45-1.39 2.43-3.02 3.07-4.58Z" fill="#298a00"/><path d="M331.08 85.12c-4.21-.5-6.12-3.88-6.51-4.55-.65-1.12-1.08-2.42-1.36-3.8-.58-2.86-.4-6.17.34-9.58 1.27-5.87 4.34-12.11 9.07-17.27 3.3-3.61 7.23-6.45 11.16-8.53 1.98-1.05 3.97-1.88 5.95-2.59 1.72-.62 3.48-1.16 4.97-.96.07-.02.14-.03.2-.05.05 0 .1 0 .16.01-.09.08-.16.18-.23.28-1.1 1.3-1.55 2.83-1.83 4.22-.35 1.79-.4 3.49-.3 5.1.22 3.38.79 6.57.71 10.1-.12 5.28-1.27 11.54-5.06 17.2-3.01 4.48-7.53 8.21-11.95 9.83-1.9.69-3.73.79-5.33.61Z" fill="#faf089"/><path d="M119.81 68.75c.15-4.23 2.76-6.33 3.27-6.75.86-.71 1.88-1.21 2.97-1.58 2.26-.75 4.93-.76 7.71-.23 4.79.92 9.97 3.61 14.4 8.02 3.09 3.08 5.6 6.82 7.51 10.62.96 1.91 1.74 3.84 2.43 5.77.6 1.67 1.14 3.4 1.06 4.89.02.07.03.13.05.2v.16c-.07-.08-.15-.15-.24-.21-1.11-1.02-2.37-1.38-3.5-1.57-1.46-.24-2.82-.19-4.11 0-2.7.42-5.22 1.18-8.07 1.3-4.24.19-9.34-.58-14.1-4.03-3.78-2.73-7.03-7.02-8.59-11.32-.67-1.85-.86-3.67-.8-5.27Z" fill="#6bb400"/><path d="M33.99 231.42c2.26 3 5.23 2.9 5.83 2.88.99-.02 1.99-.3 2.98-.72 2.03-.88 4-2.55 5.76-4.69 3.04-3.69 5.47-8.93 6.47-14.95.7-4.2.63-8.52.1-12.5-.27-2.01-.68-3.91-1.15-5.76-.41-1.6-.89-3.21-1.71-4.25l-.06-.18c-.03-.04-.05-.08-.08-.12-.01.1-.03.21-.06.31-.29 1.44-1.03 2.5-1.76 3.35-.94 1.1-1.97 1.92-3.01 2.58-2.19 1.39-4.42 2.43-6.57 4.13-3.2 2.54-6.54 6.31-8.28 11.84-1.38 4.38-1.59 9.57-.54 13.71.45 1.77 1.23 3.23 2.09 4.36Z" fill="#4a9f00"/></svg>