<svg xmlns="http://www.w3.org/2000/svg" viewBox="0 0 1489.49 1075.72"><g fill="#5c7f3c"><path d="m540.91 639.72 117.78-56.92c-30.21 63.84-78.08 113.05-179.79 90.44 28.81-83.94 96.35-109.92 177.61-96.45-19.28 10.47-115.6 62.93-115.6 62.93Zm651.87-14.34-109.18-72.04c21.48 67.28 62.39 122.41 166.2 113.49-17.42-87.02-80.91-121.73-163.24-119.16 17.72 12.94 106.22 77.71 106.22 77.71ZM48.69 410.63l88.73 37.63C87.37 462.51 36.86 459.89 0 392.54c60.51-24.79 107.69.02 139.69 51.59-15.16-5.6-91-33.5-91-33.5Zm223.98 146.24 37.63-88.73c14.25 50.05 11.62 100.56-55.72 137.42-24.79-60.51.02-107.69 51.59-139.69-5.6 15.16-33.5 91-33.5 91Zm248.18 344.22 95.51-12.91c-35.77 37.79-80.56 61.3-146.61 22.19 39.39-52.19 92.63-54.93 146.46-26.9-15.9 2.92-95.36 17.61-95.36 17.61Z"/><path d="M48.22 486.5c14.31-9.62 38.53-3.86 58.04-6.61 13.23-1.86 26.8-4.88 38.64-10.64 3.06-1.49 1.04-13.43.93-21.44 11.82 1.47 25.36 7.33 35.11 3.52 66.6-26.02 135.23-30.37 205.35-23.77 3.89.37 7.86-.04 18.54-.17-35.52-27.34-67.57-49.3-96.4-74.9a1545.118 1545.118 0 0 1-104.59-102.08c-16.98-18.22-29.27-20.22-49.92-5.9-47.43 32.88-95.11 27.81-134.72-11.11 44.12-49.15 84.51-52.54 158.6-10.22-16.71-25.94-26.57-48.13-60.96-47.32-33.49.8-58.85-20.85-63.07-53.99-4.99-39.13-2.24-79.24-2.84-118.93L62.84 0c30.06 33.41 62.11 65.31 89.1 101.03 9.67 12.79 15.16 38.99 8.53 51.8-16.11 31.08 3.3 41.46 24.78 57.17-32.17-62.48-.32-97.01 48.39-124.8 25.75 36.43 19.25 80.73-19.8 108.2-24.46 17.2-23.49 31.18-3.74 48.6 39.02 34.43 78.43 68.41 124.34 99.67-69.72-61.35-16.21-120.8-2.66-188.42 33.13 43.45 63.58 82.17 60.08 132.69-1.29 18.55-24.51 35.59-37.72 53.31-3.58-.54-7.17-1.09-10.75-1.63 8.49 10.59 14.98 24.24 25.78 31.28 102.87 67.11 214.82 112.54 335.37 136.46 4.22.84 8.85-.44 10.26-.53-21.79-18.04-46.7-33.67-64.65-55.13-14.02-16.77-20.11-40.49-28.42-61.64-9.42-23.95-17.39-48.47-26.1-73.07 42.96.98 129.02 63.6 137.86 102.85 3.67 16.31 3.23 35.23-1.24 51.32-8.2 29.51-3.5 42.97 28.08 45.07 63.07 4.21 126.4 7.27 189.56 6.44 41.85-.55 83.59-8.67 132.54-14.22-39.7-32.06-73.48-57.33-104.95-85.2-54.32-48.11-98.04-104.34-122.34-173.79-6.65-19.01-17.6-24.64-38.04-20.98-52.02 9.32-79.84-5.88-105.98-54.18 52.02-27.55 94.9-12.95 133.9 40.23-5.1-11.39-7.16-26.52-15.81-33.53-39.92-32.36-46.4-55.76-22.42-101.48 7.19-13.72 16.47-26.38 25.27-39.2 2.74-4 7.05-6.92 11.9-11.53 9.29 28.67 18.93 54.86 26.14 81.71 6.6 24.6 8.55 48.9-13.71 69.13-4.93 4.48-6.98 17.26-4.47 24.04 36.59 98.76 102.86 173.82 188.94 232.51 15.41 10.5 31.45 20.09 47.38 29.79 2.3 1.4 5.63 1.1 6.97 1.33-18.71-25.63-45.52-49.19-54.41-78.23-8.96-29.3-.12-64.04 1.14-103.21 24.31 30.32 47.25 49.99 57.95 74.91 9.78 22.77 5.97 51.26 8.85 77.15 1.34 12.02.32 28.69 7.51 34.66 11.22 9.3 31.29 19.18 42.78 15.13 94.57-33.42 188.98-68.09 271.59-127.2 20.03-14.33 39.72-29 58.87-44.18v62.3c-32.77 16.95-64.09 33.1-95.84 48.37-54.68 26.29-109.34 53.05-165.71 75.3-45.59 17.99-93.92 28.93-140.57 44.41-16.1 5.34-23.66 16.1-15.73 35.77 21.11 52.34 13.7 75.82-37.1 104.67-31.19 17.71-65.91 29.19-101.26 40.44 27.78-68.12 34.38-150.6 129.04-168.42-45.94-3.2-85.9 3.62-124.37 27.15-112.85 69.01-206.8 156.03-271.9 272.22-20.3 36.22-18.51 38.92 21.81 49.55 33.38 8.8 47.88 33.1 52.48 65.51-49.79 8.88-66-4.24-96.3-71.52-.45 10.07-5.23 23.31-.59 29.65 16.66 22.75 12.92 45.13 3.62 67.88-9.69 23.71-21.02 46.74-35.29 78.11-12.78-30.48-24.99-53.32-31.91-77.68-9.33-32.81 1.03-52.46 31.82-68.75 22.1-11.7 30.36-24.8 8.09-43.63 8.65-6.97 19.73-12.38 25.43-21.25 34.3-53.3 67.52-107.31 100.6-161.38 4.45-7.27 6.08-16.27 9.02-24.47l-.09.84 139.54-111.88c-43.28-3.66-79.77-2.86-114.4-10.48-75.79-16.69-151.01-36.38-225.68-57.59-24.31-6.91-37-6.49-53.59 16.81-14.1 19.81-40.27 34.78-64.15 42.85-24.45 8.26-52.62 5.53-85.25 1.27 23.04-22.2 42.73-51.27 70.1-64.6 25.96-12.65 59.95-8.8 90.6-12.23-6.21-2.99-14.47-8.58-23.58-11.12-89.15-24.81-179.47-34.77-271-15.82-27.26 5.64-53.78 15.39-80.01 24.98-5.89 2.15-12.97 11.52-12.97 17.56 0 28.28-16.64 43.91-39.06 54.9-25.98 12.73-52.74 23.87-85.27 38.44 7.16-42.92 13.46-82.6 48.22-105.98Z"/></g></svg>