<svg version="1.1" id="Layer_1" xmlns="http://www.w3.org/2000/svg" x="0" y="0" viewBox="0 0 1489.5 1075.7" xml:space="preserve"><style>.st0{fill:#5c7f3c}</style><path class="st0" d="m540.9 639.7 117.8-56.9c-30.2 63.8-78.1 113-179.8 90.4 28.8-83.9 96.3-109.9 177.6-96.5-19.3 10.6-115.6 63-115.6 63zm651.9-14.3-109.2-72c21.5 67.3 62.4 122.4 166.2 113.5-17.4-87-80.9-121.7-163.2-119.2 17.7 12.9 106.2 77.7 106.2 77.7zM48.7 410.6l88.7 37.6C87.4 462.5 36.9 459.9 0 392.5c60.5-24.8 107.7 0 139.7 51.6-15.2-5.6-91-33.5-91-33.5zm224 146.3 37.6-88.7c14.2 50.1 11.6 100.6-55.7 137.4-24.8-60.5 0-107.7 51.6-139.7-5.6 15.1-33.5 91-33.5 91zm248.1 344.2 95.5-12.9c-35.8 37.8-80.6 61.3-146.6 22.2 39.4-52.2 92.6-54.9 146.5-26.9-15.9 2.9-95.4 17.6-95.4 17.6z"/><path class="st0" d="M48.2 486.5c22.4-16.1 109.5 10.2 97.6-38.7 11.8 1.5 25.4 7.3 35.1 3.5 73.5-30.1 146.2-27.5 223.9-23.9-77.1-55.5-138.5-109.1-201-177-17-18.2-29.3-20.2-49.9-5.9C-22.8 331.8 1 118.6 177.8 223.2 106.3 105.6 41 266.5 50.9 2.9c19.6-12.3 83.3 80.6 101 98.1 34.1 47.8-29.8 75.1 33.3 109-32.2-62.5-.3-97 48.4-124.8C300.5 239.9 62.9 162 334.4 341.7c-69.7-61.4-16.2-120.8-2.7-188.4 177.5 203.3-197.6 204.8 383 351.6-80.1-49.3-90.3-106.4-119.2-189.8 63.5 8.9 164.7 82.3 136.6 154.2-37.3 90.3 293.7 41.8 350.2 37.3-96.4-76.1-186.8-141.5-227.3-259-6.7-19-17.6-24.6-38-21-176.2 8-77.7-151.6 28-14.1-5.1-11.4-7.2-26.5-15.8-33.5-64.9-41.8-28-108.8 14.8-152.2 10.8 50.4 55 106.1 12.4 150.8-9.8 106.4 147.1 245.1 238.8 287.7-58.1-60.2-65.6-96.1-53.3-181.4 93.3 97.8 48.2 85.7 74.3 186.7 63 53 315.1-106.9 373.2-156.3v62.3c-130.1 67.9-259.9 131.2-402.1 168.1-69.8 45.3 107.3 103.3-154 180.9 27.8-68.1 34.4-150.6 129-168.4C954 502.8 547.8 894.5 687.9 906.1c116.9 55.5 1.1 125.5-43.8-6-.5 10.1-5.2 23.3-.6 29.7 31.8 52.5-13.1 92-31.7 146-20.7-53-66.8-113.9-.1-146.4 22.1-11.7 30.4-24.8 8.1-43.6 59-54.7 99-135.4 135-207.1l-.1.8 139.5-111.9C792.5 587.1 531.5 458 500.6 516.2c-36.1 45.2-90.3 54.9-149.4 44.1 49.1-60.3 81.8-79.1 160.7-76.8-114.5-43.2-289.7-65-387.6 15.6C119 563 48.8 563.7 0 592.5c7.2-42.9 13.5-82.6 48.2-106z"/></svg>