<?xml version="1.0" encoding="UTF-8"?><svg xmlns="http://www.w3.org/2000/svg" viewBox="0 0 362.81 184.83"><g isolation="isolate"><g id="b"><g id="c"><path d="M140.29,8.57C94.21,55.23,62.49,113.51,24.26,166.29c-28.94-5.3-32.85,15.39-7.1,15.67,106.56,4.37,213.6,2.66,320.37,1.89,7.29-.32,23.05,3.02,25.28-6.51C289.1,158.36,233.58-43.55,140.29,8.57Zm24.17,132.69c-12.17,9.97-12.83,34.24-32.03,29.43,45.72-87.3,27.08-61.62,78.79,.38-27.51,9.76-27.2-32.23-46.75-29.81Zm57.27,29.85c-17.17-27.6-51-111.28-79-47.91-89.3,157.18,32.98-180.36,79,47.91Zm40.38,.22c-77.47-128.22-108.82-143.68-178.33-1.02,48.8-158.93,117.31-134.33,178.33,1.02ZM203.42,37.54c40.5,39.8,73.12,86.32,105.95,132.38C175.15,31.61,174.61-28.16,50.73,167.76,84.47,125.73,136.35-16.64,203.42,37.54Z" mix-blend-mode="soft-light"/></g></g></g></svg>