<?xml version="1.0" encoding="UTF-8"?><svg xmlns="http://www.w3.org/2000/svg" viewBox="0 0 269.48 256.33"><g isolation="isolate"><g id="b"><g id="c"><path d="M269.31,129.57c4.82-62.82-96.77-4.91-87.72-29.69,13.67-8.59,60.91,1.88,73.39-11.58,16.59-39.24-142.14-13.79-68.33-29.88,124.11,6.66-81.65-133.4-157.03-1.86-4.53,14.24,71.46-2.52,51.47,12.37-19.17,2.58-67.26-8.47-64.05,20.15,9.74,21.88,46.84-1.19,64.72,10.67C96.58,116.95-1.44,89.65,.31,124.03c-6.91,56.06,104.03,15.42,85.2,35.32-18.72,11.32-72.53-12.05-65.66,21.03-6.3,15.72,107.44,.16,61.94,12.15-62.48-8.25-64.99,23.46-10.89,48.37,90.07,57.55,233.86-65.4,143.72-52.31-6.44-1.1-38.34,7.77-38.5-.24,19.85-14.13,82.41,12.12,84.8-28.29-5.88-14.03-54.85,1.25-75.42-1.42-2.79-.24-3.89-3.76-1.72-5.52,16.95-13.77,81.68,9.11,85.52-23.55ZM59.77,56.77c-.26,.17-.29-.05-.4-.26,.13,.09,.63,.18,.4,.26ZM223.99,195.87c-.1,.11-.19,.22-.29,.33-.09-.28,.02-.33,.29-.33Zm20.5-33.7s-.05,.07-.08,.11c-.03-.09-.03-.13,.08-.11Z" mix-blend-mode="overlay"/></g></g></g></svg>