<?xml version="1.0" encoding="UTF-8"?><svg xmlns="http://www.w3.org/2000/svg" viewBox="0 0 310.69 180.34"><g isolation="isolate"><g id="b"><g id="c"><g mix-blend-mode="overlay"><path d="M217.32,73.06c-53.54-52.58-74.71,25.59-118.93-8.95C63.26,25.54,14.29,118.72,0,127.98c47.48-4.27,80.39-68.31,127.64-23.1,93.65-25.8,41.44,11.39,112.23,17.37,28.81-2.72,52.83-22.61,70.76-44.01,2.33-2.79-67.72,12.62-93.31-5.18Z" fill-rule="evenodd"/><path d="M201.25,133.55c-43.69-44.34-64.42,21.29-101.33-7.63-29.93-32.86-71.65,46.52-83.83,54.41,40.45-3.64,68.49-58.19,108.75-19.68,74.75-22.02,37.82,9.39,95.62,14.8,24.54-2.32,45.01-19.27,60.29-37.5,1.98-2.38-57.69,10.75-79.5-4.42Z" fill-rule="evenodd"/><path d="M208.78,14.09c-37.22-39.2-58.37,18.54-90.64-6.82C91.37-22.13,54.05,48.89,43.16,55.95c36.18-3.25,61.27-52.06,97.28-17.6,65.66-19.67,34.47,8.34,85.54,13.24,21.95-2.08,40.27-17.24,53.93-33.54,1.77-2.13-51.61,9.62-71.12-3.95Z" fill-rule="evenodd"/></g></g></g></g></svg>