<?xml version="1.0" encoding="UTF-8"?><svg xmlns="http://www.w3.org/2000/svg" viewBox="0 0 201.21 290.29"><g isolation="isolate"><g id="b"><g id="c"><g><path d="M201.02,212.56c-24.76-67.37-85.97-43.06-62.71-143.66-.01-126.3-243.85-83.53-83.97,166.35,38.73,67.32,152.18,87.03,146.67-22.68Z" fill-rule="evenodd" mix-blend-mode="soft-light" opacity=".5"/><g><path d="M105.35,75.62c-11.99-46.57-60.12-43.68-78.3-8.98-39.46,71.65,98.97,103.61,78.3,8.98Zm-52.44,28.75c-10.8-8.84-5.87-23.54,2.2-32.35,24.51-27.25,57.87,72.45-2.2,32.35Z" fill-rule="evenodd"/><path d="M164.56,195.68c-16.15-24.07-32.11-35.29-58.93-32.75-65.66,11.46-48.42,97.17,9.83,104.57,23.16,3.74,78.94-28.17,49.1-71.82Zm-47.01,45.68c-71.58-29.08,8.7-92.14,29.94-17.93,1.69,14.9-19.05,20.38-29.94,17.93Z" fill-rule="evenodd"/></g></g></g></g></g></svg>