<?xml version="1.0" encoding="UTF-8"?><svg xmlns="http://www.w3.org/2000/svg" viewBox="0 0 265.16 323.78"><g isolation="isolate"><g id="b"><g id="c"><g><g mix-blend-mode="soft-light"><path d="M113.79,323.62c72.09,1.61,159.19-60.35,150.81-136.9l-33.62,4.13c10.21,50.62-84.29,124.29-153.01,91.48-21.1-10.29-35.6-33.37-49.53-54.91L0,245.8c22.91,40.37,60.82,80.81,113.79,77.82Z"/><g><path d="M149.98,311.34l32.3-10.19c-16.25-51.51-33.04-103.69-49.93-155.08l-32.18,10.57c16.84,51.27,33.6,103.31,49.8,154.7Z"/><g><path d="M186.54,288.68c2.99-31.54,8.09-63.18,15.18-94.05l-33.01-7.58c-7.42,32.31-12.77,65.43-15.89,98.44l33.72,3.19Z"/><path d="M137.77,306.22l29.87-15.97c-17.08-31.96-42.52-58.73-73.58-77.4l-17.46,29.03c25.81,15.52,46.96,37.77,61.16,64.34Z"/></g></g></g><g opacity=".35"><path d="M7.71,92.98l15.65-27.86c60.98,35.25,143.32,23.91,192.5-26.51l22.6,22.59C179.51,121.64,80.81,135.24,7.71,92.98Z"/><g><path d="M129.12,96.71c5.78-26.89,12.66-69.37,15.66-96.71l31.77,3.49c-3.1,28.25-10.21,72.15-16.18,99.94l-31.25-6.72Z"/><path d="M46.15,25.55L71.93,6.66c17.82,24.31,39.71,56.51,55.77,82.03l-27.05,17.02c-15.45-24.55-37.34-56.76-54.49-80.16Z"/></g></g></g></g></g></g></svg>