<?xml version="1.0" encoding="UTF-8"?><svg xmlns="http://www.w3.org/2000/svg" viewBox="0 0 220.51 212.51"><g isolation="isolate"><g id="b"><g id="c"><path d="M220.14,101.26C210.29-106.72-96.79,47.96,31.12,188.38c9.13,11.11,43.47,37.62,50.44,15.72C-6.74,158.7,2.44,48.49,99.47,21.18c98.01-54.75,150.79,138.72,45.33,147.71-36.1,12.14-66.95-11.85-77.57-46.08C35.84,48.95,165.4,7.29,166.94,95.35c1.12,18.86-17.25,30.92-33.76,34.69-36.84,4.34-41.68-63.8-1.31-39.25,20.84,18.37,12.99-22.78-12.86-19.94-115.06,48.69,86.45,120.68,60.37,5.86-17.73-68.34-101.19-49.36-130.91-1.22-40.43,123.03,182.22,162.67,171.67,25.76Z" mix-blend-mode="soft-light"/></g></g></g></svg>