<svg xmlns="http://www.w3.org/2000/svg" viewBox="0 0 241.02 200.53"><path d="M181.09 178.6c-11.25-1.42-26.76-6.27-28.4-19.2-1.53-12.25 10.05-22.06 13.68-32.89l37.21 4.33c-.3 8.46 3.54 16.93 4.65 25.24 3.16 17.33-11.9 25.75-27.14 22.52Z" fill="#efd28a"/><path d="M208.22 156.08c-18.3-1.31-31.22-7.51-49.47-15.56 2.87-4.64 5.98-9.21 7.61-14l37.21 4.33c-.3 8.46 3.54 16.93 4.65 25.24Z" fill="#efd28a"/><path d="M206.66 148.51c-51.1-.51-97.48-53.01-30.23-77.98 59.56-15.01 94.45 73.29 30.23 77.98Z" fill="#f9b51f"/><path d="M239.12 104.65c-3.01-1.57-5.6-3.65-7.87-6.13-6.5 12.01-16.36 9.58-21.11-2.59-12.38 11.19-19.08 6.46-21.18-8.72-3.1.85-5.93 2.88-9.17 3.15-6.13-.56-7.7-11.33-8.78-16.28-.6-.37-1.16-.72-1.73-1.02 2.34-1.04 4.72-1.88 7.15-2.52 1.2 4.51 1.55 9.39 3.95 13.67 19.83-9.01 10.07 1.51 17.8 12.26.78.47 4.46-2.33 5.49-3.1 11.46-10.13 9.47-1.07 16.59 6.13 4.56 1.22 6.06-9.92 10.97-10.08 3.58 4.57 6.3 9.72 7.89 15.24Z" fill="#fce6a9"/><path d="M239.07 127.44c-6.2.47-11.68-3.98-15.71-8.19-6.99 12.92-17.6 10.3-22.71-2.79-13.32 12.03-20.52 6.95-22.78-9.39-3.34.92-6.38 3.1-9.87 3.39-6.59-.61-8.28-12.19-9.44-17.52-3.11-2.6-7.2-1.81-10.9-2.57 1.44-2.07 3.13-4.02 4.9-5.8 4.44-.06 10.56 1.77 12.45 6.04.05 4.68 1.76 9.01 3.63 13.24 21.33-9.69 10.84 1.62 19.15 13.19.84.5 4.8-2.51 5.91-3.33 12.32-10.9 10.19-1.15 17.85 6.59 1.84 1.06 3.06-1.03 3.98-2.37 11.64-20.43 10.59 3.18 24.95 2.35a43.13 43.13 0 0 1-1.41 7.16Z" fill="#fce6a9"/><path d="M206.66 148.51c-28.72 1.02-82.89-27.35-56.77-61.04-14.8 37.62 63.94 62.4 87.81 43.7-5.35 11.88-18.21 16.99-31.04 17.33Z" fill="#efa40c"/><path d="M122.8 187.29c-18.3-1.13-37.29 15.32-52.03-4.87-12.03-16.69-5.15-42.16-9.38-61.28l51.3-28.86c6.54 12.72 18.41 21.53 26.63 32.69 16.45 20.85 26.27 73.08-16.51 62.31Z" fill="#fce6a9"/><path d="M139.31 124.98c-11.9 9.14-26.29 12.53-40.06 16.12-7.49 1.95-22.71 6.95-36.17 7.82-.12-9.53.14-19.19-1.7-27.78l51.3-28.86c6.54 12.72 18.41 21.54 26.63 32.69Z" fill="#efd28a"/><path d="M141.25 115.33C100.38 143.57-6.86 153.93.56 79.35 6.62 22.52 69-14.13 121.93 5.21c50.07 16.76 69.19 79.23 19.31 110.12Z" fill="#f9b51f"/><path d="M147.82 20.15c-5.9.54-11.66-.07-17.32-1.57 1.45 24.03-14.62 29.55-33.46 16.18-8 28.28-21.54 27.68-39.31 7.22-3.76 4.19-6.02 9.85-10.53 13.31-8.19 5.42-22.87-9.81-28.17-15.63-1.23.03-2.38.03-3.49.14a84.53 84.53 0 0 1 8.14-10.48c2.88 1.07 3.67 4.37 5.81 6.22 3.82 3.83 8.28 7.2 12.82 10.14 21.28-32.35 15.83-7.24 37.66 1.16 1.58-.05 4.37-7.64 5.17-9.75 7.97-26.26 12.31-10.42 30.14-6.7 7.54-1.53-.15-20.9 6.66-25.2 9.55 3.33 18.38 8.33 25.89 14.94Z" fill="#fce6a9"/><path d="M169.12 53.69c-8.66 6.56-20.88 5.2-30.77 2.83 1.57 25.84-15.73 31.79-35.99 17.4-8.61 30.41-23.17 29.78-42.29 7.76C56.02 86.19 53.6 92.27 48.74 96c-8.59 5.9-24.75-10.62-30.3-16.81-7.02-.87-12.28 4.17-18.44 6.53.18-4.41.83-8.86 1.76-13.17 5.5-4.07 18.28-7.44 23.96-2.9 4.46 6.82 11.03 11.58 17.75 16.02 23.1-34.91 16.93-7.74 40.52 1.26 1.71-.06 4.7-8.23 5.56-10.49 8.57-28.25 13.24-11.21 32.42-7.2 3.73-.21 3.51-4.41 3.62-7.25-1.44-41.61 17.19-5.1 38.88-20.15 1.84 3.71 3.39 7.66 4.64 11.86Z" fill="#fce6a9"/><path d="M141.25 115.33C100.39 143.56-6.87 153.93.57 79.35c13.59 69.38 152.6 31.1 170.05-18.87 3.28 22.52-10.83 42.2-29.37 54.85Z" fill="#efa40c"/><path d="M73.98 179.42c1.12-12.5-4.51-22.35-11.36-32.41 14.32 1.91 35.07 9.89 35.34 25.81 3.8-10.56 10.23-18.65 20.83-22.34-2.54 11.75-2.23 19.39-.94 30.67 7.57-10.48 16.41-23.32 31.48-19.97-1.53 8.86-3.52 15.73 3.4 22.81 6.85-7.95 14.59-24.03 8.9-32.42 8.45 4.32 11.14 17.15 12.76 25.24 1.26-10.6 7.62-27.54 18.36-31.42-2.86 6.61-7.98 20.44-6.33 27.43 6.49-14.89 23.88-18.84 37.17-11.44-7.91 4.37-13.46 12.85-16.02 20.83 7.67-1.39 14.56-2.17 21.67 2.83-13.78 2.32-6.7 8.14-30.21 8.09-49.72.73-102.24-6.92-150.78 7.42.62-.38 1.89-.55 2.61-.45-.56-6.46-11.41-14.01-18.06-14.6 11.8-6.17 30.19-10.79 41.98-3.28 1.41-.28-.25-.86-1.05-1.57l.23-1.22Z" fill="#696"/></svg>