<svg version="1.1" id="Layer_1" xmlns="http://www.w3.org/2000/svg" x="0" y="0" viewBox="0 0 241 200.5" xml:space="preserve"><style>.st0{fill:#efd28a}.st1{fill:#f9b51f}.st2{fill:#fce6a9}.st3{fill:#efa40c}</style><path class="st0" d="M181.1 178.6c-39.7-6.8-30.3-25.5-14.7-52.1l37.2 4.3c3.3 23.6 14.7 51.8-22.5 47.8z"/><path class="st0" d="M208.2 156.1c-18.3-1.3-31.2-7.5-49.5-15.6 2.9-4.6 6-9.2 7.6-14l37.2 4.3c-.2 8.5 3.6 17 4.7 25.3z"/><path class="st1" d="M206.7 148.5c-51.1-.5-97.5-53-30.2-78 59.5-15 94.4 73.3 30.2 78z"/><path class="st2" d="M239.1 104.7c-3-1.6-5.6-3.7-7.9-6.1-6.5 12-16.4 9.6-21.1-2.6-12.4 11.2-19.1 6.5-21.2-8.7-17.8 9.2-12.8-5.3-19.7-14.1 10.2-6.6 7.1 4.7 11.1 11.2 19.8-9 10.1 1.5 17.8 12.3.8.5 4.5-2.3 5.5-3.1 11.5-10.1 9.5-1.1 16.6 6.1 10.4-3.1 7.4-24.3 18.9 5z"/><path class="st2" d="M239.1 127.4c-6.2.5-11.7-4-15.7-8.2-7 12.9-17.6 10.3-22.7-2.8-13.3 12-20.5 6.9-22.8-9.4-3.3.9-6.4 3.1-9.9 3.4-13.3-4.1-1.3-21.3-20.3-20.1 3.3-8.1 13.6-6.5 17.4.2 0 4.7 1.8 9 3.6 13.2 21.3-9.7 10.8 1.6 19.1 13.2.8.5 4.8-2.5 5.9-3.3 12.3-10.9 10.2-1.2 17.9 6.6 1.8 1.1 3.1-1 4-2.4 11.6-20.4 10.6 3.2 24.9 2.3-.3 2.6-.8 5-1.4 7.3z"/><path class="st3" d="M206.7 148.5c-28.7 1-82.9-27.3-56.8-61-14.8 37.6 63.9 62.4 87.8 43.7-5.3 11.9-18.2 16.9-31 17.3z"/><path class="st2" d="M122.8 187.3c-18.3-1.1-37.3 15.3-52-4.9-12-16.7-5.2-42.2-9.4-61.3l51.3-28.9c6.5 12.7 18.4 21.5 26.6 32.7 16.5 20.9 26.3 73.1-16.5 62.4z"/><path class="st0" d="M139.3 125c-24.5 15.3-45.8 18.4-76.2 23.9-.1-9.5.1-19.2-1.7-27.8l51.3-28.9c6.5 12.8 18.4 21.6 26.6 32.8z"/><path class="st1" d="M141.2 115.3C-36.1 212.8-47.2-26.1 121.9 5.2 172 22 191.1 84.4 141.2 115.3z"/><path class="st2" d="M147.8 20.1c-5.9.5-11.7-.1-17.3-1.6 1.4 24-14.6 29.5-33.5 16.2C89 63 75.5 62.4 57.7 42 45 65.8 33.8 55.1 19 39.7c-1.2 0-2.4 0-3.5.1 12.4-20.5 9.2-2.7 26.8 5.9 21.3-32.3 15.8-7.2 37.7 1.2 1.6 0 4.4-7.6 5.2-9.8 8-26.3 12.3-10.4 30.1-6.7 12.5-10-12.7-44 32.5-10.3z"/><path class="st2" d="M169.1 53.7c-8.7 6.6-20.9 5.2-30.8 2.8 1.6 25.8-15.7 31.8-36 17.4-8.6 30.4-23.2 29.8-42.3 7.8-4 4.5-6.5 10.6-11.3 14.3-8.6 5.9-24.8-10.6-30.3-16.8-7-.9-12.3 4.2-18.4 6.5.2-4.4.8-8.9 1.8-13.2 5.5-4.1 18.3-7.4 24-2.9 4.5 6.8 11 11.6 17.8 16 23.1-34.9 16.9-7.7 40.5 1.3 1.7-.1 4.7-8.2 5.6-10.5 8.6-28.2 13.2-11.2 32.4-7.2 3.7-.2 3.5-4.4 3.6-7.2-1.4-41.6 17.2-5.1 38.9-20.2 1.7 3.8 3.3 7.7 4.5 11.9z"/><path class="st3" d="M141.2 115.3C100.3 143.5-6.9 153.9.5 79.3c13.6 69.4 152.6 31.1 170.1-18.9 3.3 22.6-10.8 42.3-29.4 54.9z"/><path d="M74 179.4c1.1-12.5-4.5-22.4-11.4-32.4 14.3 1.9 35.1 9.9 35.3 25.8 3.8-10.6 10.2-18.6 20.8-22.3-2.5 11.8-2.2 19.4-.9 30.7 7.6-10.5 16.4-23.3 31.5-20-1.5 8.9-3.5 15.7 3.4 22.8 6.9-7.9 14.6-24 8.9-32.4 8.4 4.3 11.1 17.1 12.8 25.2 1.3-10.6 7.6-27.5 18.4-31.4-2.9 6.6-8 20.4-6.3 27.4 6.5-14.9 23.9-18.8 37.2-11.4-7.9 4.4-13.5 12.9-16 20.8 7.7-1.4 14.6-2.2 21.7 2.8-52.9 20.7-124.9-5-181 15.5 8.3-2.6-10-15.4-15.4-15.1 11.8-6.2 30.2-10.8 42-3.3 1.6-.4-2.2-.8-1-2.7z" fill="#696"/></svg>