<svg xmlns="http://www.w3.org/2000/svg" viewBox="0 0 508.38 310.69"><path d="M28.51 67.85C17 83.36 8.8 103.92 4.21 126.44c28.4 79.32 123.21 116.6 167.87 22.61-66.11-111.9 68.65-112.54 23.87-2.19 27.41 35.84 109.93 105.62 312.4 45.37 1.77-87.97-77.57-181.12-173.52-144.68-47.95 18.21-69.88 2.4-105.23-23.86C164.04-25.02 73.59 7.17 28.51 67.85Z"/><path d="M28.51 67.85c51.16-68.88-37.23 50.13 0 0Zm160.26 102.99c-.96-1.05-1.91-2.11-2.83-3.18-43.08 81.03-143.54 73.8-185.87-4.18-1.94 74.76 34.11 152.73 119.48 137.5 56.71-10.12 102.65-48.64 163.52-30.94 64.54 18.77 113.31 71.25 180.66 16.19 23.9-19.54 37.35-44.82 42.35-71.73-190.8 54.44-280.33-3-317.32-43.67Zm-12.81-85.4c-2.12 3.38-3 17.55 5.61 37.26 3.06-11.21 5.15-36.3-5.61-37.26Z"/></svg>