<svg xmlns="http://www.w3.org/2000/svg" viewBox="0 0 368.43 330.64"><path d="M289.14 213.78a104.22 104.22 0 0 0-208.41-2.32l-.33 119.18h208.2c.51-106.89.56-107.28.54-116.86Z" fill="#282828"/><path d="M247.66 330.61c-12.95-23.67-37.22-39.62-65-39.62s-52.11 16-65.06 39.65Z" fill="#fff"/><circle cx="269.77" cy="121.4" r="33.92" transform="rotate(-13.38 269.803 121.402)"/><circle cx="269.77" cy="121.4" r="24.87" fill="#282828"/><circle cx="99.72" cy="121.4" r="33.92" transform="rotate(-45 99.723 121.393)"/><circle cx="99.72" cy="121.4" r="24.87" fill="#282828"/><ellipse cx="184.75" cy="182" rx="108.09" ry="97.24" fill="#fff"/><ellipse cx="229.07" cy="166.62" rx="28.49" ry="46.58" transform="rotate(-48.9 229.07 166.628)" fill="#282828"/><path d="M105.32 197.25c10.35 11.85 34.45 7.76 53.83-9.16s26.72-40.23 16.38-52.09-34.45-7.76-53.84 9.15-26.69 40.24-16.37 52.1Z" fill="#282828"/><path d="M145.09 215.91c0 19.28 17.76 34.91 39.66 34.91s39.65-15.63 39.65-34.91S206.65 181 184.75 181s-39.66 15.62-39.66 34.91Z" fill="#fff"/><path d="M188.88 219.91c6.56 9.53 22.2 9.1 30.82 2.8a1.11 1.11 0 0 1 1.29 1.81c-9.58 7-26.66 7.22-33.91-3.32-.81-1.18 1-2.47 1.8-1.29Zm-8.26 0c-6.57 9.53-22.22 9.1-30.82 2.8a1.12 1.12 0 0 0-1.3 1.81c9.58 7 26.67 7.22 33.91-3.32.82-1.18-1-2.47-1.79-1.29Z" fill="#1e1c1b"/><path d="M194.52 202c-3.41-4.48-15.19-4.48-18.6 0-6.94 9.1 2.61 25.46 9.3 25.46s16.24-16.32 9.3-25.46Z" fill="#1e1c1b"/><circle cx="178.24" cy="206.7" r="2.32" fill="#fff"/><path d="M235.1 163.93a8.22 8.22 0 1 1-8.23-8.2 8.21 8.21 0 0 1 8.23 8.2Z"/><path d="M227.29 161.69a3.08 3.08 0 1 1-3.08-3.08 3.08 3.08 0 0 1 3.08 3.08Z" fill="#fff"/><path d="M150.82 163.93a8.22 8.22 0 1 1-8.23-8.2 8.21 8.21 0 0 1 8.23 8.2Z"/><path d="M143 161.69a3.08 3.08 0 1 1-3.09-3.08 3.09 3.09 0 0 1 3.09 3.08Z" fill="#fff"/><path d="M19.84 33.21a9.92 9.92 0 1 1-9.92-9.93 9.92 9.92 0 0 1 9.92 9.93ZM265.58 64a9.93 9.93 0 1 1-9.93-9.93 9.93 9.93 0 0 1 9.93 9.93ZM117 57a9.93 9.93 0 1 1-9.91-10A9.92 9.92 0 0 1 117 57Zm-57.48 80.94A9.92 9.92 0 1 1 49.6 128a9.92 9.92 0 0 1 9.92 9.94ZM35.63 304.16a9.93 9.93 0 1 1-9.92-9.92 9.92 9.92 0 0 1 9.92 9.92Zm302.8 0a9.93 9.93 0 1 1-9.92-9.92 9.92 9.92 0 0 1 9.92 9.92Zm-3.36-271.83a9.93 9.93 0 1 1-8.09-8.1 9.93 9.93 0 0 1 8.09 8.1Zm33.36 111.92a9.93 9.93 0 1 1-9.92-9.92 9.93 9.93 0 0 1 9.92 9.92Z" fill="#f5a87c"/><path d="M42.6 223.42a18 18 0 0 1-10.51 12.52l-1.15-2.77c6.38-2.65 10.27-9.74 8.69-15.81a9.3 9.3 0 0 0-.79-2 16.69 16.69 0 0 1-10 5.25 10.17 10.17 0 0 1-7.36-1.83 5.77 5.77 0 0 1-2.25-3.93c-.32-3 1.78-5.46 3.86-6.76a12 12 0 0 1 10.93-.67 14.88 14.88 0 0 1 4.71 3 13.93 13.93 0 0 0 1.86-6c.38-6.38-4-13-10.1-15.38a18 18 0 0 0-18.4 3.9l-2.09-2.2a20.81 20.81 0 0 1 21.56-4.53 19 19 0 0 1 12 18.36 17.15 17.15 0 0 1-2.79 8.29 12.52 12.52 0 0 1 1.71 3.74 14.56 14.56 0 0 1 .12 6.82Zm-20.3-9.76a2.66 2.66 0 0 0-.06.89 2.78 2.78 0 0 0 1.13 1.9 7.24 7.24 0 0 0 5.12 1.2A13.82 13.82 0 0 0 37 212.9a11.82 11.82 0 0 0-4-2.67 9.11 9.11 0 0 0-8.24.42 5.32 5.32 0 0 0-2.46 3.01Zm287.41 26.58v-3c5.67 0 11.53.06 16.85-1.92 5.61-2.09 9.64-6.49 10.27-11.22a8.74 8.74 0 0 0 .07-1 15.15 15.15 0 0 1-3.65 1.69 11 11 0 0 1-9.45-1.53 6.28 6.28 0 0 1-2.65-5.2c.08-3.83 3.75-6.56 7.1-6.89a9.75 9.75 0 0 1 8.06 3.2 12.37 12.37 0 0 1 2.27 3.24 12.82 12.82 0 0 0 2.76-6.79 13.05 13.05 0 0 0-6.94-12.47c-.83-.42-1.74-.78-2.65-1.15-2.84-1.14-6.06-2.44-7.34-5.65-1.16-2.9-.06-6.6 2.67-9 2.34-2.06 5.34-3 8-3.66l.76 2.9c-2.3.6-4.91 1.39-6.76 3-1.51 1.34-2.64 3.7-1.87 5.64s3.17 3 5.68 4c1 .4 2 .8 2.89 1.26a16.08 16.08 0 0 1 8.56 15.4 15.9 15.9 0 0 1-4.64 9.78 11.27 11.27 0 0 1 .12 3.66c-.78 5.81-5.56 11.16-12.19 13.63-5.83 2.13-12.25 2.1-17.92 2.08Zm21.39-25.83a6.24 6.24 0 0 0-2.53-.29c-2.09.21-4.35 1.85-4.4 4a3.25 3.25 0 0 0 1.46 2.74 8.08 8.08 0 0 0 6.76 1.06 12.5 12.5 0 0 0 3.93-2 9.61 9.61 0 0 0-2.15-3.42 7.75 7.75 0 0 0-3.07-2.09Z" fill="#fff"/><path d="M198.17 60.74a26 26 0 0 1-18-7 25.93 25.93 0 0 1-7.66-16.37 21.35 21.35 0 0 1-7.15-6 19.82 19.82 0 0 1-3.86-16.69 19.78 19.78 0 0 1 11.41-12.82A19.82 19.82 0 0 1 190 2l-1.41 2.65a16.76 16.76 0 0 0-14.5-.08 16.79 16.79 0 0 0-9.7 10.78 16.79 16.79 0 0 0 3.33 14.12 18.51 18.51 0 0 0 4.69 4.34 25.1 25.1 0 0 1 3.31-11.6c2.35-4.06 5.57-6.59 9-7.11a9.38 9.38 0 0 1 8.37 3.34A11.53 11.53 0 0 1 195.9 29c-1.65 6-8.42 10.49-15.41 10.42a17.33 17.33 0 0 1-4.72-.73 22.74 22.74 0 0 0 6.5 12.9c7.22 6.93 19.5 8.16 27.95 2.78l1.61 2.53a25.46 25.46 0 0 1-13.66 3.84Zm-22.69-25.35a14.54 14.54 0 0 0 5 1c5 .07 11-2.79 12.48-8.21a8.62 8.62 0 0 0-2.07-7.72 6.38 6.38 0 0 0-5.68-2.36c-3.45.52-5.8 3.76-6.9 5.64a22.28 22.28 0 0 0-2.83 11.65Z" fill="#92261a"/></svg>