<svg xmlns="http://www.w3.org/2000/svg" viewBox="0 0 5000 5000" xml:space="preserve"><path d="M1032.9 2315s-557.2 1012.4 319.2 1649 1122.4-360.7 447.4-561.2-812.1-719.6-766.6-1087.8zm1744.7 297.6s971.6 238.1 1306.7-637.5-553.9-857.2-569.8-247.8-418.9 840.5-736.9 885.3zm-802.4-389.5c-2.4-58.6 54.9-45.2 135.5-100.1 80.5-54.9-3.7-156.2-63.5-128.1-59.8 28.1-133 28.1-192.8 0-59.8-28.1-144 73.2-63.5 128.1 80.5 54.9 137.9 41.5 135.5 100.1-2.4 58.6-142.8 187.9-308.8 86.6 0 0 151.3 159.9 333.2-18.3 181.8 178.2 333.2 18.3 333.2 18.3-166 101.4-306.3-28-308.8-86.6zm-281.9-765.9c-49.4-148.2-169.5-154.3-284.2 12.2-112.3 163.1-276.7 230.7-288.9 311.9-12.2 81.2-2 238.2 355.2 215.8 357.3-22.4 245.2-457.9 217.9-539.9zm-181.6 384.4c-36.5 0-66.2-29.6-66.2-66.2s29.6-66.2 66.2-66.2c36.5 0 66.2 29.6 66.2 66.2-.1 36.5-29.7 66.2-66.2 66.2zm1269.7-60.3c-12.2-81.2-176.6-148.8-288.9-311.9-114.6-166.4-234.8-160.4-284.2-12.2-27.3 82-139.4 517.5 217.9 539.9 357.2 22.3 367.4-134.6 355.2-215.8zm-398.4 60.3c-36.6 0-66.2-29.6-66.2-66.2s29.6-66.2 66.2-66.2c36.5 0 66.2 29.6 66.2 66.2-.1 36.5-29.7 66.2-66.2 66.2zm-890.2-873.3c13.1 11.9 10.4 33.2-5.3 41.5-89.3 47.1-347.5 196.9-463.7 409.5 0 0-36.1 73.6-81.6 38.8-45.5-34.8-184.6-370.5 28.1-555 193.2-167.7 428.2-20.4 522.5 65.2zm905.5 0c-13.1 11.9-10.4 33.2 5.3 41.5 89.3 47.1 347.5 196.9 463.7 409.5 0 0 36.1 73.6 81.6 38.8 45.5-34.8 184.6-370.5-28.1-555-193.3-167.7-428.2-20.4-522.5 65.2zm161.1 2290.3c60.3-47.3 226-155.8 437.9-116.4 12.3 2.3 15.3 18.6 4.5 25-66.3 39.5-241.3 130-435 115.7-12.4-.9-17.2-16.6-7.4-24.3zm-4.5-204.9c10.2-60.9 49.8-215.3 197.2-307 8.6-5.3 19.2 2.8 16.3 12.4-17.9 59.5-72.9 208.3-195.8 304.9-8 6.2-19.4-.5-17.7-10.3zm-445.7-293.3c60.3 34.7 207.6 137.5 246.3 329 2.2 11.1-10.5 19.2-19.5 12.3-55.7-42.4-191.1-159-244.6-326.9-3.5-10.7 8-20.1 17.8-14.4zm-279.4 351.5c79.4-5.4 285-1.8 444 155.6 9.2 9.1 2.3 24.9-10.7 24.1-80-4.7-283.1-29.2-441-154.6-10.1-8-5.1-24.2 7.7-25.1z"/><path d="M2197 3688.3c-12-25.6-26.7-50.7-44.2-74.8 138.7-149 353.6-451.8 257.6-824.6 4.1 7.9 221 423-213.4 899.4z"/></svg>