<svg xmlns="http://www.w3.org/2000/svg" viewBox="0 0 5000 5000" xml:space="preserve"><path d="M1032.9 2315s-557.2 1012.4 319.2 1649 1122.4-360.7 447.4-561.2-812.1-719.6-766.6-1087.8zm1744.7 297.6s971.6 238.1 1306.7-637.5-553.9-857.2-569.8-247.8-418.9 840.5-736.9 885.3zm-802.4-389.5c-2.4-58.6 54.9-45.2 135.5-100.1 80.5-54.9-3.7-156.2-63.5-128.1s-133 28.1-192.8 0-144 73.2-63.5 128.1 137.9 41.5 135.5 100.1-142.8 187.9-308.8 86.6c0 0 151.3 159.9 333.2-18.3 181.8 178.2 333.2 18.3 333.2 18.3-166 101.4-306.3-28-308.8-86.6zm-281.9-765.9c-49.4-148.2-169.5-154.3-284.2 12.2-112.3 163.1-276.7 230.7-288.9 311.9 5.6 395.4 830.6 280.1 573.1-324.1zm-181.6 384.4c-85.8 1.3-85.9-133.7 0-132.4 85.9-1.3 85.8 133.6 0 132.4zm1269.7-60.3c-12.2-81.2-176.6-148.8-288.9-311.9-299.9-444.2-536.3 491.2-66.3 527.7 357.2 22.3 367.4-134.6 355.2-215.8zm-398.4 60.3c-85.9 1.3-85.9-133.7 0-132.4 85.9-1.3 85.8 133.6 0 132.4zm-890.2-873.3c53.7 48.1-377.1 219.4-469 451-240.5 269.3-301.6-1021.7 469-451zm905.5 0c-53.7 48.1 377.1 219.4 469 451 240.5 269.3 301.5-1021.8-469-451zm161.1 2290.3c60.3-47.3 226-155.8 437.9-116.4 12.3 2.3 15.3 18.6 4.5 25 35 5.4-453.9 195-442.4 91.4zm-4.5-204.9c10.2-60.9 49.8-215.3 197.2-307 8.6-5.3 19.2 2.8 16.3 12.4 23.2-16.5-161 359.9-213.5 294.6zm-445.7-293.3c60.3 34.7 207.6 137.5 246.3 329 2.2 11.1-10.5 19.2-19.5 12.3 6.8 31.1-317.7-316.5-226.8-341.3zm-279.4 351.5c79.4-5.4 285-1.8 444 155.6 9.2 9.1 2.3 24.9-10.7 24.1 26.2 25.1-503.5-97.8-433.3-179.7z"/><path d="M2197 3688.3c-117-141.4 366.7-403.3 213.4-899.4 4.1 7.9 221 423-213.4 899.4z"/></svg>