<svg version="1.1" id="Layer_1" xmlns="http://www.w3.org/2000/svg" x="0" y="0" viewBox="0 0 368.4 330.6" xml:space="preserve"><style>.st0{fill:#282828}.st1{fill:#fff}.st2{fill:#1e1c1b}</style><path class="st0" d="M289.1 213.8c-.6-134.7-204.8-136.9-208.4-2.3l-.3 119.2h208.2c.5-107 .6-107.3.5-116.9z"/><path class="st1" d="M247.7 330.6c-25.3-51.9-104.8-51.8-130.1 0h130.1z"/><path d="M261.9 88.4c43.6-9.6 58.9 54.9 15.7 66-43.5 9.6-58.9-54.9-15.7-66z"/><path class="st0" d="M269.8 96.5c32.7.6 32.7 49.2 0 49.7-32.7-.5-32.7-49.1 0-49.7z"/><path d="M75.7 97.4c32.1-31 79 15.9 48 48-32.1 31-78.9-15.9-48-48z"/><path class="st0" d="M99.7 96.5c32.7.6 32.7 49.2 0 49.7-32.7-.5-32.7-49.1 0-49.7z"/><path class="st1" d="M184.8 84.8c142.2 2.3 142.1 192.2 0 194.5-142.2-2.4-142.2-192.2 0-194.5z"/><path class="st0" d="M194 136c24.3-28.1 94.7 33.4 70.2 61.2-24.3 28.1-94.8-33.3-70.2-61.2z"/><path class="st0" d="M105.3 197.2c24.3 28.1 94.7-33.4 70.2-61.3-24.3-28-94.7 33.5-70.2 61.3z"/><path class="st1" d="M145.1 215.9c.2 45.6 79.2 45.6 79.3 0-.2-45.6-79.2-45.6-79.3 0z"/><path class="st2" d="M188.9 219.9c13.8 17.7 36-2.6 32.1 4.6-9.6 7-26.7 7.2-33.9-3.3-.8-1.2 1-2.5 1.8-1.3zm-8.3 0c-6.6 9.5-22.2 9.1-30.8 2.8-.5-.3-1.2-.1-1.5.4 6.4 9.4 27.6 8.3 34.1-1.9.8-1.2-1-2.5-1.8-1.3z"/><path class="st2" d="M194.5 202c-3.4-4.5-15.2-4.5-18.6 0-6.9 9.1 2.6 25.5 9.3 25.5s16.3-16.4 9.3-25.5z"/><path class="st1" d="M178.2 204.4c3 0 3 4.7 0 4.6-3 .1-3-4.7 0-4.6z"/><path d="M235.1 163.9c.2 10.7-16.6 10.7-16.4 0-.2-10.6 16.5-10.6 16.4 0z"/><path class="st1" d="M227.3 161.7c.1 4-6.2 4-6.2 0s6.2-4 6.2 0z"/><path d="M150.8 163.9c.2 10.7-16.6 10.7-16.4 0-.2-10.6 16.6-10.6 16.4 0z"/><path class="st1" d="M143 161.7c.1 4-6.2 4-6.2 0s6.2-4 6.2 0z"/><path d="M19.8 33.2c.2 12.9-20 12.9-19.8 0-.2-12.9 20-12.9 19.8 0zM265.6 64c0 5.5-4.4 9.9-9.9 9.9-12.9.2-12.9-20 0-19.9 5.4.1 9.9 4.5 9.9 10zM117 57c.1 12.9-20.1 12.7-19.9-.1C97 44 117.3 44.1 117 57zm-57.5 80.9c.2 12.9-20.1 12.8-19.8 0-.2-12.9 20-12.8 19.8 0zM35.6 304.2c.2 12.9-20 12.9-19.9 0-.1-12.9 20.1-12.9 19.9 0zm302.8 0c.2 12.9-20 12.9-19.9 0-.1-12.9 20.1-12.9 19.9 0zm-3.3-271.9c2.4 12.7-17.6 16.1-19.6 3.4-2.4-12.7 17.6-16.1 19.6-3.4zm33.3 112c.2 12.9-20 12.9-19.9 0-.1-12.9 20.1-12.9 19.9 0z" fill="#f5a87c"/><path class="st1" d="M42.6 223.4c-1.3 5.6-5.2 10.3-10.5 12.5l-1.1-2.8c7-2.9 11.2-11.3 7.9-17.8-4.5 5.6-17.5 8.6-19.6-.5.2-9.9 14-10.4 19.5-4.4 8.8-16.3-14.5-30.1-26.6-17.5l-2.1-2.2c15-15.5 42.7 2.8 30.8 22.1 2 3.1 2.5 7 1.7 10.6zm-20.3-9.7c.7 7.3 11.9 3.4 14.7-.8-3.7-4.1-12.3-5.2-14.7.8zm287.4 26.5v-3c10.2.7 26.5-1.9 27.2-14.1-5.1 3.8-15.5 2.5-15.8-5 1.1-9.6 14.6-8.3 17.4-.4 5.1-6 2.8-15.8-4.2-19.3-3.6-1.8-8.3-2.6-10-6.8-2.6-6.3 5-11.9 10.7-12.7l.8 2.9c-8 1.2-13.6 9.4-2.9 12.6 11.2 3.2 15.5 18.3 6.8 26.4 2.3 15.3-17.9 20.8-30 19.4zm21.4-25.8c-13.5-1.1-4.9 13.5 5.2 5.5-.9-2.4-2.7-4.6-5.2-5.5z"/><path d="M198.2 60.7c-13.1.4-24.9-10.3-25.7-23.4-23.8-12.5-6.4-46 17.5-35.3l-1.4 2.7C169.3-4 153.9 22 172.4 33.8c-.5-10.5 11.1-25.8 20.7-15.4 9.8 10.7-5.2 24.6-17.3 20.2 1.7 15.9 21.4 24.2 34.4 15.7l1.6 2.5c-4.1 2.6-8.8 4-13.6 3.9zm-22.7-25.3c8.8 4.5 23.4-5.5 15.4-14.9-8.9-8.3-16.3 7.3-15.4 14.9z" fill="#92261a"/></svg>