<svg xmlns="http://www.w3.org/2000/svg" viewBox="0 0 92.32 146.07">
    <path
        d="M73.7,145.92,67.21,85.25c-.3-10,5.05-19.22,9.35-26.65l9.87-17.09a35.94,35.94,0,0,0,3.48-7.17,9.56,9.56,0,0,0-.5-6.76C88,23.9,84,20.37,80.49,19.72,76.6,19,74,19.39,69.94,21.36l-1.22-1.52A14.55,14.55,0,0,0,71.48,9.37a9.13,9.13,0,0,0-5.22-6.18C59.16-.17,51.19,4.07,47,10l-.81,1.15L45.34,10C41.13,4.07,33.15-.17,26.06,3.19a9.13,9.13,0,0,0-5.22,6.18A14.55,14.55,0,0,0,23.6,19.84l-1.22,1.52c-4.1-2-6.66-2.37-10.55-1.64-3.5.65-7.51,4.18-8.93,7.86a9.55,9.55,0,0,0-.49,6.76,36.19,36.19,0,0,0,3.47,7.17L15.76,58.6c4.3,7.43,9.65,16.67,9.35,26.57l-6.49,60.75-2-.21L23.12,85C23.39,75.78,18.2,66.81,14,59.6L4.15,42.51A37.35,37.35,0,0,1,.5,34.93,11.49,11.49,0,0,1,1,26.86c1.67-4.33,6.24-8.33,10.42-9.1a15.74,15.74,0,0,1,8.89.57A16.31,16.31,0,0,1,18.87,9a11,11,0,0,1,6.34-7.65c7.64-3.62,16.08.37,20.95,6.39,4.87-6,13.31-10,21-6.39A11,11,0,0,1,73.45,9,16.24,16.24,0,0,1,72,18.33a15.86,15.86,0,0,1,8.9-.57c4.17.77,8.75,4.77,10.42,9.1a11.55,11.55,0,0,1,.54,8.07,37.64,37.64,0,0,1-3.66,7.58L78.29,59.6c-4.17,7.21-9.36,16.18-9.09,25.51l6.49,60.6Z" />
    <path
        d="M74.69,145.82,68.2,85.14c-.27-9.33,4.55-18,9.22-26L87.3,42a36.62,36.62,0,0,0,3.56-7.38,10.56,10.56,0,0,0-.52-7.41c-1.46-3.79-5.68-7.74-9.67-8.48s-6.75-.4-11.16,1.72A15.62,15.62,0,0,0,72.46,9.2c-.52-3-3-5.6-5.78-6.92-7.28-3.45-15.85.57-20.52,7.15C41.49,2.85,32.92-1.17,25.63,2.28c-2.77,1.32-5.25,3.9-5.77,6.92a15.57,15.57,0,0,0,2.95,11.26C18.4,18.34,15.63,18,11.64,18.74S3.43,23.43,2,27.22a10.61,10.61,0,0,0-.52,7.41A37.21,37.21,0,0,0,5,42L14.9,59.1c4.67,8.08,9.49,16.71,9.21,26l-6.49,60.68"
        stroke="#000" stroke-linecap="round" stroke-linejoin="round" stroke-width="0.5" />
    <ellipse cx="57.61" cy="17.73" rx="10.43" ry="8.27" transform="translate(12.95 58.21) rotate(-59.29)" />
    <ellipse cx="75.59" cy="34.63" rx="10.43" ry="8.27" transform="translate(7.22 81.95) rotate(-59.3)" />
    <ellipse cx="34.7" cy="17.73" rx="8.27" ry="10.43" transform="translate(-4.19 20.21) rotate(-30.71)" />
    <ellipse cx="16.72" cy="34.63" rx="8.27" ry="10.43" transform="matrix(0.86, -0.51, 0.51, 0.86, -15.34, 13.39)" />
    <path
        d="M45.64,66.77l-11.76.93c-8.82.7-14.44-8-9.21-14.28l6.09-7.26a8.59,8.59,0,0,0,1.09-1.63l4.86-9.47c3.71-7.22,15.49-7,18.89.31l4.23,9.1a6.61,6.61,0,0,0,1.25,1.75l6.4,7c5.5,6.21-.1,15.17-9,14.47l-10.95-.87A14.28,14.28,0,0,0,45.64,66.77Z" />
    <ellipse cx="46.16" cy="82.01" rx="5.93" ry="8.6" />
    <ellipse cx="46.16" cy="118.94" rx="17.42" ry="25.26" />
</svg>