<svg xmlns="http://www.w3.org/2000/svg" viewBox="0 0 92.32 146.07"><path d="m73.7 145.92-6.49-60.67c-.3-10 5.05-19.22 9.35-26.65l9.87-17.09a35.94 35.94 0 0 0 3.48-7.17 9.56 9.56 0 0 0-.5-6.76C88 23.9 84 20.37 80.49 19.72 76.6 19 74 19.39 69.94 21.36l-1.22-1.52a14.55 14.55 0 0 0 2.76-10.47 9.13 9.13 0 0 0-5.22-6.18C59.16-.17 51.19 4.07 47 10l-.81 1.15-.85-1.15C41.13 4.07 33.15-.17 26.06 3.19a9.13 9.13 0 0 0-5.22 6.18 14.55 14.55 0 0 0 2.76 10.47l-1.22 1.52c-4.1-2-6.66-2.37-10.55-1.64-3.5.65-7.51 4.18-8.93 7.86a9.55 9.55 0 0 0-.49 6.76 36.19 36.19 0 0 0 3.47 7.17l9.88 17.09c4.3 7.43 9.65 16.67 9.35 26.57l-6.49 60.75-2-.21L23.12 85c.27-9.22-4.92-18.19-9.12-25.4L4.15 42.51A37.35 37.35 0 0 1 .5 34.93a11.49 11.49 0 0 1 .5-8.07c1.67-4.33 6.24-8.33 10.42-9.1a15.74 15.74 0 0 1 8.89.57A16.31 16.31 0 0 1 18.87 9a11 11 0 0 1 6.34-7.65c7.64-3.62 16.08.37 20.95 6.39 4.87-6 13.31-10 21-6.39A11 11 0 0 1 73.45 9 16.24 16.24 0 0 1 72 18.33a15.86 15.86 0 0 1 8.9-.57c4.17.77 8.75 4.77 10.42 9.1a11.55 11.55 0 0 1 .54 8.07 37.64 37.64 0 0 1-3.66 7.58L78.29 59.6c-4.17 7.21-9.36 16.18-9.09 25.51l6.49 60.6Z"/><path d="M74.69 145.82 68.2 85.14c-.27-9.33 4.55-18 9.22-26L87.3 42a36.62 36.62 0 0 0 3.56-7.38 10.56 10.56 0 0 0-.52-7.41c-1.46-3.79-5.68-7.74-9.67-8.48s-6.75-.4-11.16 1.72A15.62 15.62 0 0 0 72.46 9.2c-.52-3-3-5.6-5.78-6.92-7.28-3.45-15.85.57-20.52 7.15-4.67-6.58-13.24-10.6-20.53-7.15-2.77 1.32-5.25 3.9-5.77 6.92a15.57 15.57 0 0 0 2.95 11.26c-4.41-2.12-7.18-2.46-11.17-1.72S3.43 23.43 2 27.22a10.61 10.61 0 0 0-.52 7.41A37.21 37.21 0 0 0 5 42l9.9 17.1c4.67 8.08 9.49 16.71 9.21 26l-6.49 60.68" stroke="#000" stroke-linecap="round" stroke-linejoin="round" stroke-width=".5"/><ellipse cx="57.61" cy="17.73" rx="10.43" ry="8.27" transform="rotate(-59.29 57.616 17.728)"/><ellipse cx="75.59" cy="34.63" rx="10.43" ry="8.27" transform="rotate(-59.3 75.593 34.633)"/><ellipse cx="34.7" cy="17.73" rx="8.27" ry="10.43" transform="rotate(-30.71 34.704 17.734)"/><ellipse cx="16.72" cy="34.63" rx="8.27" ry="10.43" transform="rotate(-30.7 16.737 34.673)"/><path d="m45.64 66.77-11.76.93c-8.82.7-14.44-8-9.21-14.28l6.09-7.26a8.59 8.59 0 0 0 1.09-1.63l4.86-9.47c3.71-7.22 15.49-7 18.89.31l4.23 9.1a6.61 6.61 0 0 0 1.25 1.75l6.4 7c5.5 6.21-.1 15.17-9 14.47l-10.95-.87a14.28 14.28 0 0 0-1.89-.05Z"/><ellipse cx="46.16" cy="82.01" rx="5.93" ry="8.6"/><ellipse cx="46.16" cy="118.94" rx="17.42" ry="25.26"/></svg>