<svg xmlns="http://www.w3.org/2000/svg" xmlns:xlink="http://www.w3.org/1999/xlink" viewBox="0 0 173.7 608.5" xml:space="preserve"><defs><path id="a" d="M0 0h173.7v608.5H0z"/></defs><clipPath id="b"><use xlink:href="#a" overflow="visible"/></clipPath><g clip-path="url(#b)"><path fill="#B09E99" d="m169.7 151.8 49.5 37.6-51.8 45-24.5-51.9z"/><path d="M161.4 198.7c5.7-5.6 11.2-11.2 17.2-16.4 2.8-2.4 5.7-4.8 8.5-7.3 2-1.8 4-3.6 6-5.5l3.9 2.9c-3.6 3.3-7.2 6.6-10.9 9.7-2.9 2.4-5.8 4.8-8.6 7.4-3 2.7-5.8 5.6-8.7 8.4-3.5 3.5-7.2 6.9-10.6 10.5-.7.7-1.3 1.4-2 2.1l-2.2-4.7c2.5-2.2 5-4.6 7.4-7.1zm27-32.7c-10.2 9.1-20 18.7-29.7 28.3-2.3 2.3-4.6 4.6-7 6.9l-2.2-4.6c2-2 4.1-4 6.1-6 9.5-9.3 19-18.6 28.8-27.4l4 2.8zm-25.7 58.4c2.3-2.2 4.7-4.4 7.1-6.5 6.2-5.5 12.6-10.7 19-15.8 2.9-2.2 6-4.6 8.6-6.8 3-2.5 5.9-5.1 8.7-7.8 1.6-1.5 3.1-2.9 4.7-4.4l3.9 2.9c-3.2 3.1-6.4 6.1-9.6 9-5.9 5.4-12.3 10-18.5 15-6.2 5-12.3 10.1-18.2 15.6-1.2 1.1-2.4 2.3-3.5 3.4l-2.2-4.6zm14.9-18.9c-5.5 5.2-11.1 10.2-16.5 15.6l-2.2-4.6 4.6-4.6c2.9-2.8 5.9-5.5 8.9-8.2 2.9-2.7 5.8-5.4 8.8-8.2 6-5.5 11.9-11 18-16.4 1-.9 2-1.7 3-2.6l3.9 3c-3.6 3.2-7.2 6.3-10.8 9.6-5.9 5.4-11.8 10.9-17.7 16.4z"/><path fill="#B09E99" d="M148.9 56.9c2-6.8 3.3-13.6 1.1-20.2-2.6-7.1-8.2-13.6-16.2-14.6-7.6-1.3-14.5 3.9-16.9 11.1-3.2 7.1-1.4 14.8.4 21.9l31.6 1.8z"/><path d="M139.5 55.7c1.9-5.6 4.2-11.6 3.4-17.4-.8-5.8-4.6-12.4-10.8-12.1-13.8.9-9.1 21.3-7.7 29.8l15.1-.3z"/><path fill="#B09E99" d="M53 140c-7 1-13.9 1.3-20.2-1.8-6.6-3.5-12.3-10.1-12.1-18.1-.2-7.7 6-13.8 13.3-15.1 7.4-2.2 14.9.7 21.6 3.5L53 140z"/><path d="M53.2 130.6c-5.8 1-12 2.5-17.7.9-5.7-1.6-11.6-6.3-10.4-12.4 2.9-13.5 22.3-6 30.6-3.4l-2.5 14.9z"/><path fill="#B09E99" d="M66.1 176c32.1 37.1 62.3 22.8 93.7-4.5 31.5-27.3 58.7-57.3 23.9-97.5-24.2-27.9-78.9-32-110.3-4.7-31.5 27.3-31.5 78.8-7.3 106.7z"/><path fill="#FFF" d="M107.2 173c18.5 21.3 35.8 13.1 54-2.6 18.1-15.7 33.8-33 13.8-56.1-13.9-16.1-45.4-18.4-63.5-2.7-18.2 15.7-18.3 45.3-4.3 61.4z"/><path d="M115.7 145.3c4.1 4.7 11.2.1 19.4-7s15.7-14.4 11.3-19.5c-3.1-3.6-13.9-.7-22.1 6.4-8.3 7.1-11.7 16.6-8.6 20.1zm16-66.3c2.2 2.5 5.2 3.5 6.7 2.2 1.5-1.3 1-4.4-1.2-7-2.2-2.5-5.2-3.5-6.7-2.2-1.6 1.3-1 4.4 1.2 7zm-52.4 45.4c2.2 2.5 5.2 3.5 6.7 2.2 1.5-1.3 1-4.4-1.2-7-2.2-2.5-5.2-3.5-6.7-2.2-1.6 1.3-1 4.4 1.2 7z"/><path d="m130.007 131.34.378-.327 20.111 23.197-.378.327z"/><path d="M149.8 155.7c3.1-2.7 6.3-6.3 8.6-10.9l-.5-.2c-6.1 12.3-18.9 17.3-19 17.4l.2.5s5.2-2.1 10.7-6.8z"/><path fill="#E8AB9B" d="M157.5 96.6c4.2 4.9 11.5 5.4 16.4 1.2 4.9-4.2 5.4-11.5 1.2-16.4-4.2-4.9-11.5-5.4-16.4-1.2-4.9 4.2-5.4 11.6-1.2 16.4zm-83.7 72.6c4.2 4.9 11.5 5.4 16.4 1.2 4.9-4.2 5.4-11.5 1.2-16.4-4.2-4.9-11.5-5.4-16.4-1.2-4.9 4.2-5.4 11.6-1.2 16.4z"/><path fill="#FC794A" d="m164.7 575.2-3.4-5.9-1.5-2.7-3.2-5.6-.8-1.3-16.8-29.5 22-29.6 22.4 14.5 3.7 2.4 13.9 8.9 2.9 1.9 4.3 2.8z"/><path fill="#FF9D51" d="M117.7 379c-3.9-6.3-4.8-7.6-8.5.6l-3.6 7.2c-2.1 4.2-5.5 11-7.6 15.1l-3.6 7.2c-2.1 4.2 0 7.3 4.7 7l8.1-.5c4.7-.3 12.4-.8 17.1-1.1l8.1-.5c4.7-.3 6.4-3.7 3.8-7.6l-4.5-6.7c-2.6-3.9-6.9-10.2-9.5-14.1l-4.5-6.6z"/><path fill="#FC794A" d="M117 392.7c-2.4-3.9-3-4.7-5.3.3l-2.2 4.5-4.7 9.4-2.2 4.5c-1.3 2.6 0 4.5 2.9 4.3l5-.3c2.9-.2 7.7-.5 10.6-.7l5-.3c2.9-.2 4-2.3 2.4-4.7l-2.8-4.1c-1.6-2.4-4.3-6.3-5.9-8.7l-2.8-4.2z"/><path fill="#FF9D51" d="M11.4 486.6c-6.3-3.8-7.7-4.7.4-8.6l7.2-3.7c4.1-2.1 10.9-5.7 15.1-7.8l7.2-3.7c4.1-2.1 7.3-.1 7.1 4.7l-.4 8.2c-.2 4.7-.6 12.4-.9 17.1l-.4 8.2c-.2 4.7-3.6 6.5-7.5 3.9l-6.8-4.4c-3.9-2.6-10.3-6.7-14.2-9.3l-6.8-4.6z"/><path fill="#FC794A" d="M25.2 485.7c-3.9-2.4-4.8-2.9.3-5.3l4.4-2.3c2.6-1.3 6.8-3.5 9.3-4.8l4.4-2.3c2.6-1.3 4.5 0 4.4 2.9l-.3 5c-.1 2.9-.4 7.7-.5 10.6l-.3 5c-.2 2.9-2.2 4-4.7 2.4l-4.2-2.7c-2.4-1.6-6.4-4.2-8.8-5.8l-4-2.7z"/><path fill="#FEB557" d="M56.8 534.2c-8.7-8.6-15-20-18.4-32.5 39.6-9.6 85.1 14.6 104.9 27-27 25.4-54.2 37.4-86.5 5.5zm77.8-127c12.1 2.9 23.1 8.4 31.3 16.5 32.3 31.9 18.7 60-4.3 86-12.9-20.5-35.9-64.1-27-102.5z"/><path fill="#FF9D51" d="M38.4 501.7c-6.8-25-2.1-54.4 17.4-74.1 20-20.3 52.1-26.7 78.7-20.4-8.8 38.4 14.1 82 27 102.6-3.8 4.3-7.8 8.5-12 12.7-2.1 2.1-4.2 4.2-6.3 6.2-19.7-12.4-65.2-36.7-104.8-27z"/><path d="M157.1 501.4c-6.9-6.8-12.9-3.2-19.1 3.1-6.2 6.3-11.5 13-4.1 20.4 5.2 5.1 16.4 4.6 22.6-1.6 6.1-6.3 5.7-16.8.6-21.9z"/><path fill="#FC794A" d="M90.7 537.1c4.6 4.5 11.9 4.5 16.4-.1 4.5-4.6 4.5-11.9-.1-16.4-4.6-4.5-11.9-4.5-16.4.1-4.5 4.6-4.4 11.9.1 16.4zm63.3-64c4.6 4.5 11.9 4.5 16.4-.1 4.5-4.6 4.5-11.9-.1-16.4-4.6-4.5-11.9-4.5-16.4.1-4.5 4.5-4.5 11.9.1 16.4z"/><path d="M142.3 452.2c1.3 1.3 3.3 1.2 4.6 0 1.3-1.3 1.2-3.3 0-4.6-1.3-1.3-3.3-1.2-4.6 0-1.3 1.3-1.3 3.4 0 4.6zM83.2 512c1.3 1.3 3.3 1.2 4.6 0 1.3-1.3 1.2-3.3 0-4.6-1.3-1.3-3.3-1.2-4.6 0-1.2 1.3-1.2 3.4 0 4.6z"/><path fill="#FEB557" d="M153.1 536.9c1.6-3.2 6.9-4.7 12.9-4.1-.9-6 .4-11.3 3.6-13 4.1-2.2 9.7 2.3 12.5 10.1 2.5 7 1.3 16.8-.1 18.3-1.4 1.5-11.1 3.1-18.2.8-8.1-2.5-12.8-7.9-10.7-12.1z"/><path fill="#F0DD20" d="m165.8 310.1 55.2 28.2-42.9 53.3-33.2-46.6z"/><path fill="#7DBD06" d="M74.2 358.3c36.9 29.8 63.1 11 88.4-20.3 25.3-31.3 46.1-64.5 6.1-96.7-27.8-22.4-80.4-17-105.7 14.3-25.3 31.3-16.6 80.3 11.2 102.7z"/><path fill="#F03871" d="M114.2 262.4c4.8 3.9 11.9 3.1 15.8-1.7 3.9-4.8 3.1-11.9-1.7-15.8-4.8-3.9-11.9-3.1-15.8 1.7-3.8 4.9-3.1 12 1.7 15.8zm-43.6 54.1c4.8 3.9 11.9 3.1 15.8-1.7 3.9-4.8 3.1-11.9-1.7-15.8-4.8-3.9-11.9-3.1-15.8 1.7-3.9 4.8-3.1 11.9 1.7 15.8z"/><path fill="#7DBD06" d="M92.4 239.2c8.2 6.7 20.3 5.4 27-2.9 6.7-8.2 5.4-20.3-2.9-27-8.2-6.7-20.3-5.4-27 2.9-6.6 8.2-5.3 20.3 2.9 27zm-56.1 69.4c8.2 6.7 20.3 5.4 27-2.9 6.7-8.2 5.4-20.3-2.9-27-8.2-6.7-20.3-5.4-27 2.9-6.6 8.3-5.3 20.4 2.9 27z"/><path d="M103 223c2.5 2 5.6 2.5 6.8.9 1.2-1.5.2-4.4-2.4-6.4-2.5-2-5.6-2.5-6.8-.9-1.2 1.5-.2 4.4 2.4 6.4zm-58.6 72.5c2.5 2 5.6 2.5 6.8.9 1.2-1.5.2-4.4-2.4-6.4-2.5-2-5.6-2.5-6.8-1-1.2 1.6-.1 4.5 2.4 6.5zm72.3-1c4.1-5.1 4.9-12.7 2.3-22.6l-.5.1c2.6 10.1 1.7 17.7-2.6 22.6-6.8 7.7-19.9 6.1-20.1 6.1l-.1.5c.1 0 13.5 1.6 20.5-6.3.2 0 .4-.2.5-.4z"/><defs><path id="c" d="m170.4 343 7.5 6.1c2.3 1.8 2.6 5.1.8 7.4l-4.4 5.5c-1.8 2.3-5.1 2.6-7.4.8l-7.5-6.1 11-13.7z"/></defs><clipPath id="d"><use xlink:href="#c" overflow="visible"/></clipPath><path clip-path="url(#d)" fill="#F03871" d="m162.4 337.8 22.7 11.7-17.7 21.9-13.6-19.2z"/><g clip-path="url(#d)"><path d="M163.5 357.6c1.7-2.4 3.4-4.9 5.3-7.2l2.7-3.3c.6-.8 1.2-1.6 1.9-2.4l1.6.8c-1.1 1.5-2.2 2.9-3.4 4.4l-2.7 3.3c-.9 1.2-1.8 2.5-2.7 3.7-1.1 1.5-2.2 3.1-3.3 4.6l-.6.9-1.1-1.6c.7-1.1 1.5-2.1 2.3-3.2zm7.8-14c-3.2 4.1-6.2 8.3-9.2 12.5l-2.1 3-1.1-1.6c.6-.9 1.3-1.8 1.9-2.7 2.9-4.1 5.8-8.2 8.9-12.1l1.6.9zm-5.7 23.4c.7-1 1.5-1.9 2.2-2.9 1.9-2.4 4-4.8 6-7.1.9-1 1.9-2.1 2.8-3.1.9-1.1 1.8-2.3 2.7-3.5.5-.7 1-1.3 1.4-2l1.6.8c-1 1.3-2 2.7-3 4-1.8 2.4-3.9 4.5-5.9 6.8-2 2.3-3.9 4.6-5.7 7-.4.5-.7 1-1.1 1.5l-1-1.5zm4.3-8c-1.7 2.3-3.4 4.5-5.1 6.9l-1.1-1.6c.5-.7.9-1.3 1.4-2 .9-1.2 1.8-2.4 2.8-3.6l2.7-3.6c1.8-2.4 3.7-4.9 5.6-7.3l.9-1.2 1.6.8c-1.1 1.4-2.3 2.8-3.4 4.3-1.7 2.5-3.6 4.9-5.4 7.3z"/></g><path fill="#B09E99" d="M167.3 243.1c6.6 1.6 13.9-5.5 16.4-15.9 2.5-10.3-.9-20-7.5-21.6-6.6-1.6-13.9 5.5-16.4 15.9-2.5 10.4.9 20 7.5 21.6z"/><path d="M178.3 227.5c4.4 1 8.1 1.1 8.3.1.2-1-3.1-2.7-7.5-3.7s-8.1-1.1-8.3-.1c-.3 1 3.1 2.7 7.5 3.7zm-1.3 6.9c3.7.1 6.7.9 6.7 1.8s-3.1 1.5-6.8 1.4c-3.7-.1-6.7-.9-6.7-1.8.1-.9 3.1-1.6 6.8-1.4z"/><path fill="#FF9D51" d="M164.8 600c6.8.1 12.4-8.4 12.6-19.1.2-10.6-5.2-19.3-12-19.4-6.8-.1-12.4 8.4-12.6 19.1-.1 10.5 5.2 19.3 12 19.4z"/><path d="M172.2 582.4c4.5.1 8.1-.7 8.1-1.8 0-1-3.6-1.9-8.1-2-4.5-.1-8.1.7-8.1 1.8-.1 1 3.6 1.9 8.1 2zm.5-9.9c3.6.8 6.8.8 6.9-.1.2-.8-2.6-2.2-6.3-3-3.6-.8-6.8-.8-6.9.1-.1.9 2.7 2.2 6.3 3zm-.2 16.8c3.7-.7 6.8-.6 6.9.3.2.8-2.7 2.1-6.4 2.8-3.7.7-6.8.6-6.9-.3-.2-.8 2.7-2.1 6.4-2.8z"/><g fill="#7DBD06"><path d="M170.2 389.8c3.2 1.6 7 .4 8.7-2.8 1.6-3.2.4-7-2.8-8.7-3.2-1.6-7-.4-8.7 2.8-1.6 3.1-.3 7 2.8 8.7z"/><path d="m160.47 384.737 5.938-11.452 11.452 5.938-5.938 11.452z"/><path d="M174.6 377.5c10.1 5.9 17-1.3 17-1.3l3.3 6.2s7.2 2.1-.8.9c-8-1.2-17.7 0-10.4 3.2 7.3 3.1 16.9 8.6 16.9 8.6l-2 5.2c-10.2-8.3-18.8-12.2-20.4-10.3-1.6 1.8 8 18.2 8 18.2l-8.8.4c-3.4-17.6-9.5-23.1-9.5-23.1l6.7-8zm-14.1 7.2c1.4.7 3.8-1.3 5.5-4.4 1.6-3.2 1.8-6.3.5-7-1.4-.7-3.8 1.3-5.5 4.4-1.7 3.2-1.9 6.3-.5 7z"/></g></g></svg>