<svg version="1.1" id="Layer_1" xmlns="http://www.w3.org/2000/svg" xmlns:xlink="http://www.w3.org/1999/xlink" x="0" y="0" viewBox="0 0 173.7 608.5" xml:space="preserve"><style>.st1{fill:#b09e99}.st4{fill:#fc794a}.st5{fill:#ff9d51}.st6{fill:#feb557}.st8{fill:#7dbd06}</style><defs><path id="SVGID_1_" d="M0 0h173.7v608.5H0z"/></defs><clipPath id="SVGID_00000114791131995967954790000012772505358557923757_"><use xlink:href="#SVGID_1_" overflow="visible"/></clipPath><g clip-path="url(#SVGID_00000114791131995967954790000012772505358557923757_)"><path class="st1" d="m169.7 151.8 49.5 37.6-51.8 45-24.5-51.9 26.8-30.7z"/><path d="M161.4 198.7c10-10.5 21-19.4 31.7-29.2l3.9 2.9c-13.9 12.4-28.1 24.4-40.8 38.1l-2.2-4.7c2.5-2.2 5-4.6 7.4-7.1zm27-32.7c-12.7 11.3-24.6 23.3-36.7 35.2l-2.2-4.6c11.5-11.3 23-22.7 34.9-33.4l4 2.8zm-25.7 58.4c15.2-14.8 33.1-26.4 48.1-41.3l3.9 2.9c-15.5 15.7-34.2 27.3-49.8 43l-2.2-4.6zm14.9-18.9c-5.5 5.2-11.1 10.2-16.5 15.6l-2.2-4.6c14-13.7 28.6-27 43.3-40l3.9 3c-9.7 8.4-19.1 17.2-28.5 26z"/><path class="st1" d="M148.9 56.9c14-43.1-45.5-48.5-31.6-1.8l31.6 1.8z"/><path d="M139.5 55.7c15-37.7-27.3-41.1-15.1.3l15.1-.3z"/><path class="st1" d="M53 140c-44.6 7.8-41.5-51.8 2.6-31.5L53 140z"/><path d="M53.2 130.6c-39.4 9.4-37-32.7 2.5-14.9l-2.5 14.9z"/><path class="st1" d="M66.1 176c32.1 37.1 62.3 22.8 93.7-4.5 31.5-27.3 58.7-57.3 23.9-97.5C114.5 6 4.1 95.8 66.1 176z"/><path d="M107.2 173c18.5 21.3 35.8 13.1 54-2.6 18.1-15.7 33.8-33 13.8-56.1-39.6-39.2-103.6 12.6-67.8 58.7z" fill="#fff"/><path d="M115.7 145.3c5.4 9.2 38.8-20.1 30.7-26.5-8.6-8.4-38.5 16.2-30.7 26.5zm16-66.3c5.1 5.9 10.7 1.2 5.5-4.8-5.1-6-10.7-1.2-5.5 4.8zm-52.4 45.4c5.1 5.9 10.7 1.2 5.5-4.8-5.1-6-10.7-1.2-5.5 4.8z"/><path d="m130 131.3.4-.3 20.1 23.2-.4.3-20.1-23.2z"/><path d="M149.8 155.7c3.1-2.7 6.3-6.3 8.6-10.9l-.5-.2c-6.1 12.3-18.9 17.3-19 17.4l.2.5s5.2-2.1 10.7-6.8z"/><path d="M157.5 96.6c9.9 11.5 27.5-3.6 17.6-15.2-10-11.5-27.5 3.7-17.6 15.2zm-83.7 72.6c9.9 11.5 27.5-3.6 17.6-15.2-10-11.5-27.5 3.7-17.6 15.2z" fill="#e8ab9b"/><path class="st4" d="M164.7 575.2c-5.9-10.3-19.7-34.4-25.7-45l22-29.6c13.7 8.9 33.6 21.7 47.2 30.5l-43.5 44.1z"/><path class="st5" d="M117.7 379c-3.9-6.3-4.8-7.6-8.5.6-4.7 9.4-10.1 20.2-14.8 29.5-6.8 12.3 24.1 4.5 29.9 5.4 15-.2 16.5-2.6 7.4-14.8-4.3-6.3-9.7-14.4-14-20.7z"/><path class="st4" d="M117 392.7c-3.6-7.7-5.3 1.3-7.5 4.8-1.5 3-5.5 11-6.9 13.9-2.7 5.5 4.9 4.2 7.9 4 4.7-.3 10.8-.7 15.6-1 6.1-.5 1.4-6.3-.4-8.8-2.7-3.9-6.1-8.9-8.7-12.9z"/><path class="st5" d="M11.4 486.6c-6.3-3.8-7.7-4.7.4-8.6 9.3-4.8 20.1-10.4 29.5-15.2 9-4.3 6.9 7.9 6.7 12.9-.3 7.7-1 17.6-1.3 25.3-.8 10.1-10 2.2-14.3-.5-6.4-4.2-14.7-9.5-21-13.9z"/><path class="st4" d="M25.2 485.7c-7.7-3.6 1.2-5.1 4.7-7.6 4.3-2.1 9.5-4.9 13.7-7.1 5.5-2.7 4.4 4.8 4.1 7.9-.2 4.7-.5 10.9-.8 15.6.1 9.4-18-7.4-21.7-8.8z"/><path class="st6" d="M56.8 534.2c-8.7-8.6-15-20-18.4-32.5 39.6-9.6 85.1 14.6 104.9 27-27 25.4-54.2 37.4-86.5 5.5zm77.8-127c54.5 13.7 64.3 68.6 27 102.5-12.9-20.5-35.9-64.1-27-102.5z"/><path class="st5" d="M38.4 501.7c-18-59.2 38.2-109.7 96.1-94.5-8.8 38.4 14.1 82 27 102.6-5.7 6.4-12.1 12.9-18.3 18.9-19.7-12.4-65.2-36.7-104.8-27z"/><path d="M157.1 501.4c-6.9-6.8-12.9-3.2-19.1 3.1-6.2 6.3-11.5 13-4.1 20.4 14.7 12.2 36.4-8.6 23.2-23.5z"/><path class="st4" d="M90.7 537.1c10.9 10.7 27.1-5.9 16.3-16.5-10.9-10.6-27 5.8-16.3 16.5zm63.3-64c10.9 10.7 27.1-5.9 16.3-16.5s-27.1 5.8-16.3 16.5z"/><path d="M142.3 452.2c3 3 7.6-1.6 4.6-4.6-2.9-3-7.7 1.8-4.6 4.6zM83.2 512c3 3 7.6-1.6 4.6-4.6-3-3-7.5 1.7-4.6 4.6z"/><path class="st6" d="M153.1 536.9c1.6-3.2 6.9-4.7 12.9-4.1-2.8-15.5 10.6-18.7 16.1-2.9 2.5 7 1.3 16.8-.1 18.3-1.4 1.5-11.1 3.1-18.2.8-8.1-2.5-12.8-7.9-10.7-12.1z"/><path d="m165.8 310.1 55.2 28.2-42.9 53.3-33.2-46.6 20.9-34.9z" fill="#f0dd20"/><path class="st8" d="M74.2 358.3c36.9 29.8 63.1 11 88.4-20.3s46.1-64.5 6.1-96.7c-77.3-52.9-167.2 51.3-94.5 117z"/><path d="M114.2 262.4c11.5 9.1 25.5-8.2 14.1-17.5-11.5-9.2-25.4 8.3-14.1 17.5zm-43.6 54.1c11.5 9.1 25.5-8.2 14.1-17.5-11.5-9.1-25.5 8.2-14.1 17.5z" fill="#f03871"/><path class="st8" d="M92.4 239.2c19.5 15.7 43.7-14 24.1-29.9-19.8-15.6-43.4 13.6-24.1 29.9zm-56.1 69.4c19.5 15.7 43.7-14 24.1-29.9-19.9-15.6-43.4 13.8-24.1 29.9z"/><path d="M103 223c5.9 4.8 10.5-.8 4.4-5.5-5.9-4.8-10.5.8-4.4 5.5zm-58.6 72.5c5.9 4.8 10.5-.8 4.4-5.5-6-4.9-10.4.8-4.4 5.5zm72.3-1c4.1-5.1 4.9-12.7 2.3-22.6l-.5.1c6.8 22.6-9.3 30.5-22.7 28.7l-.1.5c.1 0 13.5 1.6 20.5-6.3.2 0 .4-.2.5-.4z"/><defs><path id="SVGID_00000134952103718162439250000002816704932436095111_" d="M170.4 343c3.2 3.1 13 7.8 8.3 13.5-8 11.8-10.2 7.6-19.3.2l11-13.7z"/></defs><clipPath id="SVGID_00000180355162719595403790000009438268169677055906_"><use xlink:href="#SVGID_00000134952103718162439250000002816704932436095111_" overflow="visible"/></clipPath><path d="m162.4 337.8 22.7 11.7-17.7 21.9-13.6-19.2 8.6-14.4z" clip-path="url(#SVGID_00000180355162719595403790000009438268169677055906_)" fill="#f03871"/><defs><path id="SVGID_00000059267864415685033070000006746897879979141800_" d="M170.4 343c3.2 3.1 13 7.8 8.3 13.5-8 11.8-10.2 7.6-19.3.2l11-13.7z"/></defs><clipPath id="SVGID_00000098937463135476308970000016091111085711241121_"><use xlink:href="#SVGID_00000059267864415685033070000006746897879979141800_" overflow="visible"/></clipPath><g clip-path="url(#SVGID_00000098937463135476308970000016091111085711241121_)"><path d="M163.5 357.6c3-4.4 6.5-8.8 9.9-12.9l1.6.8c-4.2 5.5-8.8 11.1-12.7 16.9l-1.1-1.6c.7-1.1 1.5-2.1 2.3-3.2zm7.8-14c-3.9 5-7.7 10.3-11.3 15.5l-1.1-1.6c3.5-5 7-10 10.8-14.8l1.6.9zm-5.7 23.4c4.6-6.5 10.7-11.9 15.1-18.6l1.6.8c-4.7 6.8-10.9 12.5-15.7 19.3l-1-1.5zm4.3-8c-1.7 2.3-3.4 4.5-5.1 6.9l-1.1-1.6c4.3-5.9 9-11.8 13.4-17.7l1.6.8c-3.1 3.7-5.9 7.8-8.8 11.6z"/></g><path class="st1" d="M167.3 243.1c15.5 3.8 24.5-33.8 8.9-37.5-15.5-3.8-24.5 33.9-8.9 37.5z"/><path d="M178.3 227.5c10.3 2.5 11-1.3.8-3.6-10.3-2.5-11 1.3-.8 3.6zm-1.3 6.9c8.7.2 8.6 3.5-.1 3.2-8.7-.1-8.6-3.6.1-3.2z"/><path class="st5" d="M164.8 600c16 .3 16.7-38.3.6-38.5-16-.3-16.6 38.2-.6 38.5z"/><path d="M172.2 582.4c10.5.2 10.5-3.7 0-3.8-10.5-.2-10.5 3.7 0 3.8zm.5-9.9c8.5 2 9.2-1.3.6-3.1-8.6-2-9 1.3-.6 3.1zm-.2 16.8c8.7-1.7 9.1 1.5.5 3.1-8.7 1.7-9.1-1.5-.5-3.1z"/><path class="st8" d="M170.2 389.8c7.4 3.9 13.4-7.7 5.9-11.5-7.4-3.9-13.3 7.6-5.9 11.5z"/><path class="st8" d="m160.5 384.7 5.9-11.5 11.5 5.9-5.9 11.5-11.5-5.9z"/><path class="st8" d="M174.6 377.5c10.1 5.9 17-1.3 17-1.3l3.3 6.2s7.2 2.1-.8.9-17.7 0-10.4 3.2c7.3 3.1 16.9 8.6 16.9 8.6l-2 5.2c-27.7-20.8-21.8-7.8-12.4 7.9l-8.8.4c-3.4-17.6-9.5-23.1-9.5-23.1l6.7-8zm-14.1 7.2c3.2 1.8 9.2-9.9 6-11.4-3.1-1.8-9.4 9.9-6 11.4z"/></g></svg>