<svg xmlns="http://www.w3.org/2000/svg" xmlns:xlink="http://www.w3.org/1999/xlink" viewBox="0 0 800.87 432.84"><defs><clipPath id="a"><path d="M365,134.89A19.19,19.19,0,1,1,344,117.82,19.19,19.19,0,0,1,365,134.89Z" fill="none"/></clipPath><clipPath id="b"><path d="M441.58,126.81a19.18,19.18,0,1,1-21.09-17.07A19.18,19.18,0,0,1,441.58,126.81Z" fill="none"/></clipPath></defs><title>playAsset 7</title><ellipse cx="404.84" cy="379.92" rx="350.76" ry="52.91" fill="#fde7d7"/><path d="M147.65,219.23a45.36,45.36,0,0,0-37,19.15,36.53,36.53,0,0,0-58.47,10.37A33,33,0,0,0,0,275.63H191.7a45.41,45.41,0,0,0-44-56.4Z" fill="#fff"/><path d="M655.58,289.56a26.82,26.82,0,0,0-16.65,5.77A39.23,39.23,0,0,0,562,310.54H681.87A27,27,0,0,0,655.58,289.56Z" fill="#fff"/><path d="M629.7,113A51.84,51.84,0,0,0,605.6,119a71.65,71.65,0,0,0-128.48-9.42,57.66,57.66,0,0,0-86.36,50H681.48A52.08,52.08,0,0,0,629.7,113Z" fill="#fff"/><path d="M706.75,24.56a26.82,26.82,0,0,1,16.65,5.77,39.22,39.22,0,0,1,76.92,15.21H680.46A27,27,0,0,1,706.75,24.56Z" fill="#fff"/><path d="M312.56,290.5a49.67,49.67,0,0,0-56.07-7.64A73.32,73.32,0,0,1,289,295.07,73.4,73.4,0,0,1,312.56,290.5Z" fill="#de3e18"/><path d="M229.31,327.16A49.47,49.47,0,0,0,241.2,359.4,73.7,73.7,0,0,1,289,295.07a73.32,73.32,0,0,0-32.49-12.21A49.68,49.68,0,0,0,229.31,327.16Z" fill="#ffcb47"/><path d="M321.13,353.53a49.67,49.67,0,0,0-8.57-63A73.4,73.4,0,0,0,289,295.07,73.63,73.63,0,0,1,321.13,353.53Z" fill="#ffcb47"/><path d="M289,295.07A73.7,73.7,0,0,0,241.2,359.4a49.68,49.68,0,0,0,79.93-5.87A73.63,73.63,0,0,0,289,295.07Z" fill="#de3e18"/><path d="M446.64,131.64A22.91,22.91,0,1,0,467,106.46,22.91,22.91,0,0,0,446.64,131.64Z" fill="#fccabb"/><path d="M485.26,130.86a15.41,15.41,0,0,0-20.61-12.69,15.16,15.16,0,0,0-5.77,3.71,16,16,0,0,0-3.57,5.88A15.55,15.55,0,0,0,457,141.13a.15.15,0,0,1,0,.2.13.13,0,0,1-.19,0,15.79,15.79,0,0,1,1.59-19.91,16.06,16.06,0,0,1,6-3.92A15.79,15.79,0,0,1,478.3,119a15.69,15.69,0,0,1,7.22,11.85.13.13,0,0,1-.12.15A.14.14,0,0,1,485.26,130.86Z" fill="#373131"/><path d="M470.1,136.05a9.41,9.41,0,0,0-3.06-3.66,10.88,10.88,0,0,0-2.1-1.12,10.25,10.25,0,0,0-2.32-.52,9.08,9.08,0,0,0-4.64.8,9.54,9.54,0,0,0-3.68,3,.15.15,0,0,1-.2,0,.14.14,0,0,1,0-.19,8.8,8.8,0,0,1,3.65-3.45,9.2,9.2,0,0,1,5-1,9.41,9.41,0,0,1,4.73,1.86,8.78,8.78,0,0,1,2.93,4.08.14.14,0,0,1-.08.17A.14.14,0,0,1,470.1,136.05Z" fill="#373131"/><path d="M336,68.72a53.08,53.08,0,0,1-3.9,74.33,51.55,51.55,0,0,1-73.42-4,53.09,53.09,0,0,1,3.89-74.33A51.56,51.56,0,0,1,336,68.72Z" fill="#bd7952"/><path d="M490.16,94c.87,29.05-21.69,53.31-50.39,54.18s-52.68-22-53.55-51,21.68-53.31,50.39-54.18S489.28,64.89,490.16,94Z" fill="#bd7952"/><path d="M453.85,51.83c.88,29.06-26.8,53.47-61.81,54.54s-64.11-21.63-65-50.69,26.8-53.47,61.81-54.53S453,22.78,453.85,51.83Z" fill="#bd7952"/><path d="M362.57,27.52c12.3,19.39,3.34,47.42-20,62.6S290.28,101.9,278,82.51s-3.35-47.41,20-62.6S350.26,8.13,362.57,27.52Z" fill="#bd7952"/><polygon points="373.76 330.37 371.6 372.88 366.47 372.36 368.71 330.55 373.76 330.37" fill="#fff"/><polygon points="350.47 370.74 352.59 331.12 358.59 330.91 356.43 371.34 350.47 370.74" fill="#f8a300"/><polygon points="340.03 369.68 342.28 331.49 352.59 331.12 350.47 370.74 340.03 369.68" fill="#fff"/><polygon points="368.71 330.55 366.47 372.36 360.51 371.76 362.71 330.76 368.71 330.55" fill="#f8a300"/><polygon points="360.51 371.76 356.43 371.34 358.59 330.91 362.71 330.76 360.51 371.76" fill="#fff"/><path d="M341.38,368.13l11.21-37c-3.67-6.13-13.29-9.92-13.29-9.92l-3.66,8.22-9.41,21.17-9.41,21.17a23.15,23.15,0,0,0,24.56-3.63" fill="#bd7952"/><rect x="298.23" y="343.16" width="55.34" height="4.72" transform="translate(-122.21 502.97) rotate(-66.03)" fill="#fff"/><path d="M341.05,370.05l-3.89,6.3a4.47,4.47,0,0,1-.85.94,4.11,4.11,0,0,1-5.17-6.38,4.29,4.29,0,0,1,1.1-.64l6.95-2.5a1.56,1.56,0,0,1,1.86,2.28Zm-5.49,6.31a3,3,0,0,0,.59-.65l3.88-6.29a.36.36,0,0,0,0-.42.34.34,0,0,0-.4-.11l-6.94,2.5a2.83,2.83,0,0,0-.77.45,2.91,2.91,0,0,0,3.67,4.52Z" fill="#fff"/><path d="M339.23,369.07,333,365a4.48,4.48,0,0,1-.92-.87,4.13,4.13,0,0,1-.81-3,4.1,4.1,0,0,1,7.32-2,5.69,5.69,0,0,1,.61,1.12l2.32,7A1.55,1.55,0,0,1,341,369a1.53,1.53,0,0,1-1.44.24A1.49,1.49,0,0,1,339.23,369.07Zm-5.62-9.74a2.92,2.92,0,0,0-.54,4.08h0a2.6,2.6,0,0,0,.64.6l6.17,4.06a.34.34,0,0,0,.42,0,.35.35,0,0,0,.13-.4l-2.3-7a5.27,5.27,0,0,0-.44-.82,2.9,2.9,0,0,0-4.08-.54Z" fill="#fff"/><path d="M334.71,361a.61.61,0,0,1-.24-.76.43.43,0,0,0,0-.07.59.59,0,0,1,.82-.19,11.89,11.89,0,0,1,5.87,9.1c-.34.48-.7.94-1.07,1.38A10.84,10.84,0,0,0,334.71,361Z" fill="#fff"/><path d="M343,337.05a5.5,5.5,0,1,0,2.78,7.26A5.51,5.51,0,0,0,343,337.05Z" fill="#fff"/><path d="M344.33,343.16l-1.22-1.47a.42.42,0,0,1-.08-.36l.52-1.83A.39.39,0,0,0,343,339l-1.78.7a.38.38,0,0,1-.36,0l-1.59-1.06a.39.39,0,0,0-.61.35l.13,1.9a.4.4,0,0,1-.15.34l-1.5,1.18a.39.39,0,0,0,.15.69l1.85.47a.37.37,0,0,1,.27.24l.66,1.79a.39.39,0,0,0,.7.08l1-1.62a.38.38,0,0,1,.32-.18l1.91-.08A.39.39,0,0,0,344.33,343.16Z" fill="#bd7952"/><path d="M329.6,363.77a.61.61,0,0,0-.83.2l0,.07a.59.59,0,0,0,.23.75,10.72,10.72,0,0,1,5.22,7.55c.37-.13.74-.29,1.11-.44A11.82,11.82,0,0,0,329.6,363.77Z" fill="#fff"/><polygon points="373.76 330.37 371.6 372.88 381.56 373.38 377.65 330.32 373.76 330.37" fill="#16c172"/><path d="M414.29,322l-18.35,8.12-19.07-.73,4.78,45.06,42.29,1C457,377,456.7,351.17,456.7,351.17,457,316.71,414.29,322,414.29,322Z" fill="#16c172"/><path d="M340,306.08s-9.94,53.67,46.85,62.79,68.77-26.65,68.77-26.65-7.41-28.42-25.65-41Z" fill="#16c172"/><polygon points="348.11 343.06 342.93 385.32 337.85 384.43 343.06 342.88 348.11 343.06" fill="#fff"/><polygon points="322 381.68 326.94 342.31 332.94 342.52 327.9 382.7 322 381.68" fill="#ec5723"/><polygon points="311.67 379.88 316.63 341.94 326.94 342.31 322 381.68 311.67 379.88" fill="#fff"/><polygon points="343.06 342.88 337.85 384.43 331.95 383.41 337.06 342.67 343.06 342.88" fill="#ec5723"/><polygon points="331.95 383.41 327.9 382.7 332.94 342.52 337.06 342.67 331.95 383.41" fill="#fff"/><path d="M313.12,378.43l13.82-36.12c-3.22-6.38-12.55-10.85-12.55-10.85l-4.23,7.94-10.9,20.45L288.37,380.3a23.16,23.16,0,0,0,24.75-1.87" fill="#bd7952"/><rect x="271.63" y="352.41" width="55.34" height="4.72" transform="translate(-154.54 452.09) rotate(-61.95)" fill="#fff"/><path d="M312.65,380.32l-4.32,6a4.46,4.46,0,0,1-.91.88,4.11,4.11,0,1,1-4.71-6.73,4.23,4.23,0,0,1,1.15-.56l7.11-2a1.55,1.55,0,0,1,1.68,2.41Zm-5.92,5.9a2.86,2.86,0,0,0,.64-.61l4.31-6a.35.35,0,0,0,0-.42.34.34,0,0,0-.4-.14l-7.09,2a2.83,2.83,0,0,0-.8.39,2.91,2.91,0,1,0,3.33,4.77Z" fill="#fff"/><path d="M310.91,379.2,305,374.71a3.92,3.92,0,0,1-.84-.93,4.09,4.09,0,0,1,1.16-5.68,4.11,4.11,0,0,1,5.69,1.16,6.61,6.61,0,0,1,.52,1.16l1.82,7.16a1.57,1.57,0,0,1-.66,1.69,1.53,1.53,0,0,1-1.45.14A1.41,1.41,0,0,1,310.91,379.2ZM306,369.09a2.91,2.91,0,0,0-.83,4h0a3.07,3.07,0,0,0,.59.65l5.87,4.48a.36.36,0,0,0,.43,0,.36.36,0,0,0,.15-.39l-1.8-7.11a5.08,5.08,0,0,0-.38-.85,2.91,2.91,0,0,0-4-.83Z" fill="#fff"/><path d="M307,370.8a.58.58,0,0,1-.18-.76.16.16,0,0,1,0-.07.59.59,0,0,1,.83-.14,11.86,11.86,0,0,1,5.2,9.5c-.37.45-.76.88-1.16,1.31A10.85,10.85,0,0,0,307,370.8Z" fill="#fff"/><path d="M317,347.54a5.5,5.5,0,1,0,2.26,7.44A5.51,5.51,0,0,0,317,347.54Z" fill="#fff"/><path d="M317.85,353.73l-1.12-1.55a.42.42,0,0,1-.05-.36l.65-1.8a.39.39,0,0,0-.49-.51l-1.82.58a.39.39,0,0,1-.36-.06l-1.51-1.17a.39.39,0,0,0-.63.31v1.91a.4.4,0,0,1-.17.32l-1.58,1.07a.39.39,0,0,0,.1.7l1.81.6a.38.38,0,0,1,.25.26l.53,1.83a.4.4,0,0,0,.7.13l1.13-1.54a.41.41,0,0,1,.33-.16l1.9.06A.39.39,0,0,0,317.85,353.73Z" fill="#bd7952"/><path d="M301.68,373.24a.58.58,0,0,0-.83.14.21.21,0,0,0,0,.06.6.6,0,0,0,.18.77,10.74,10.74,0,0,1,4.66,7.91c.38-.11.77-.24,1.14-.37A11.81,11.81,0,0,0,301.68,373.24Z" fill="#fff"/><polygon points="348.11 343.06 342.93 385.32 352.82 386.52 352 343.3 348.11 343.06" fill="#16c172"/><path d="M389.13,337.6l-18.88,6.8-19-2.09,1.57,45.29,42.1,4c38.56,1.61,34.41-21.93,34.41-21.93C432.15,335.37,389.13,337.6,389.13,337.6Z" fill="#16c172"/><path d="M487.88,204.59a4.39,4.39,0,0,0,3.51-7c-.16-.23-2.21-3.26-2.2-9.44a4.41,4.41,0,0,0-4.39-4.41h0a4.4,4.4,0,0,0-4.4,4.39c0,9.39,3.61,14.29,4,14.82A4.41,4.41,0,0,0,487.88,204.59Z" fill="#fcd7c9"/><path d="M481.15,215.38A16.24,16.24,0,1,0,484.49,193,16,16,0,0,0,481.15,215.38Z" fill="#fcd7c9"/><path d="M489.29,190.42l11.39-7.4a3.67,3.67,0,0,1,4.84.76h0a3.66,3.66,0,0,1,.59,3.61l-.3.81,2.69-.36a3.66,3.66,0,0,1,3.33,1.31l0,0a3.68,3.68,0,0,1,.09,4.52l-.14.19,1.83,1a3.65,3.65,0,0,1,1.7,1.91l.1.26a3.67,3.67,0,0,1-1.1,4.17l-.65.53.41.21a4.23,4.23,0,0,1,2,2.56l.18.9A3.66,3.66,0,0,1,515,209l-11.3,9.22Z" fill="#fcd7c9"/><path d="M478.75,201.05s-6.64,17.5-17.71,24.26-23.76,4-23.76,4l-16.91,32.29s28.3,9.07,54.5-6.89c18.44-11.23,31.1-40.05,31.1-40.05Z" fill="#fcd7c9"/><path d="M412.26,218.21c-13.72,2.5-22,18.39-15.75,30.88,1.79,3.59,5.61,7,10.3,10.09a98.26,98.26,0,0,0,23.95,11.54S446.22,242,443.7,225.55C443.7,225.55,427,215.51,412.26,218.21Z" fill="#ec5723"/><path d="M437.36,300.53c-45.64,29.63-102.23,6.35-102.23,6.35l-3.05-46.63a28,28,0,0,1-.07-3,42.09,42.09,0,0,1,42.06-40.57H407.3c22.78,1.27,28.49,39,28.08,43.37Z" fill="#ec5723"/><path d="M422.24,225.65a44,44,0,0,1,5.69,7.12,48.24,48.24,0,0,1,4.17,8.12,48.83,48.83,0,0,1,2.53,8.77,44.72,44.72,0,0,1,.75,9.08.16.16,0,0,1-.15.15.15.15,0,0,1-.14-.14,52.73,52.73,0,0,0-1.09-9,53.07,53.07,0,0,0-12-24,.14.14,0,0,1,0-.19A.14.14,0,0,1,422.24,225.65Z" fill="#373131"/><path d="M365.76,220.23v-42h40.46v42s-4.07,4.82-20.23,4.93C372.47,225.25,365.76,220.23,365.76,220.23Z" fill="#fccabb"/><path d="M471.66,126c5.57,52.76-34.14,86.34-86.9,91.91s-98.61-19-104.18-71.75A96.07,96.07,0,1,1,471.66,126Z" fill="#fcd7c9"/><path d="M365,134.89A19.19,19.19,0,1,1,344,117.82,19.19,19.19,0,0,1,365,134.89Z" fill="#fff"/><g clip-path="url(#a)"><path d="M370.46,137.86A17.15,17.15,0,1,1,351.6,122.6,17.15,17.15,0,0,1,370.46,137.86Z" fill="#373131"/></g><path d="M441.58,126.81a19.18,19.18,0,1,1-21.09-17.07A19.18,19.18,0,0,1,441.58,126.81Z" fill="#fff"/><g clip-path="url(#b)"><path d="M447,129.78a17.15,17.15,0,1,1-18.85-15.26A17.15,17.15,0,0,1,447,129.78Z" fill="#373131"/></g><path d="M280.12,136.06A26.58,26.58,0,0,0,303.92,107c0-.19-.06-.37-.08-.56a56.53,56.53,0,0,0,7.9-.17A56,56,0,0,0,358,72.33a94.75,94.75,0,0,0,16.35,9.73c24.51,11.41,50.95,11.21,71.92,1.62a26.92,26.92,0,0,0-1.2,10.83c1.37,14.69,16.5,29.08,31.44,23.87,0,0-14.08-99.74-117.59-86.95s-79.38,105.51-79.38,105.51" fill="#bd7952"/><path d="M379.89,139.16a24.25,24.25,0,0,1,5.22-.95,12.25,12.25,0,0,1,2.7.09,4.23,4.23,0,0,1,2.56,1.17,4.55,4.55,0,0,1,.93,2.66,14.19,14.19,0,0,1-.13,2.69,27.66,27.66,0,0,1-1.26,5.15.18.18,0,0,1-.22.11.17.17,0,0,1-.11-.21h0a34.48,34.48,0,0,0,1-5.12,15.68,15.68,0,0,0,.05-2.56,3.85,3.85,0,0,0-.77-2.22,3.77,3.77,0,0,0-2.14-.94,12,12,0,0,0-2.55-.12,35,35,0,0,0-5.17.6h0a.18.18,0,0,1-.08-.34Z" fill="#373131"/><circle cx="330.59" cy="174.06" r="16.57" transform="translate(1.79 351.47) rotate(-56.12)" fill="#fccabb"/><path d="M460.3,157a15.45,15.45,0,1,1-17.24-13.42A15.46,15.46,0,0,1,460.3,157Z" fill="#fccabb"/><path d="M415.17,101a21.59,21.59,0,0,1,7-.56,24.41,24.41,0,0,1,6.9,1.5,25.58,25.58,0,0,1,6.22,3.35,29.25,29.25,0,0,1,2.72,2.25c.85.81,1.61,1.72,2.41,2.57a.14.14,0,0,1,0,.2.14.14,0,0,1-.19,0h0c-.85-.79-1.64-1.64-2.53-2.38A30.86,30.86,0,0,0,435,105.8a27.1,27.1,0,0,0-6.11-3.18,26,26,0,0,0-6.7-1.55,25.31,25.31,0,0,0-6.9.17h0a.13.13,0,0,1-.15-.11A.12.12,0,0,1,415.17,101Z" fill="#373131"/><path d="M345,111.07a25,25,0,0,0-6.8,1.2,26.25,26.25,0,0,0-6.26,2.86,26.51,26.51,0,0,0-5.35,4.33,28.3,28.3,0,0,0-2.27,2.61c-.73.9-1.34,1.89-2,2.84h0a.14.14,0,0,1-.2,0,.15.15,0,0,1,0-.2c.61-1,1.17-2,1.85-3A27.8,27.8,0,0,1,326.1,119a25.3,25.3,0,0,1,5.42-4.52,24.76,24.76,0,0,1,6.47-2.85,22,22,0,0,1,7-.85.14.14,0,0,1,0,.27Z" fill="#373131"/><path d="M400.32,160.86l-27.64,2.92a13.85,13.85,0,0,0,1.38,4.7,14.28,14.28,0,0,1,21.24,4.59A13.9,13.9,0,0,0,400.32,160.86Z" fill="#373131"/><path d="M381.22,165.63a14.24,14.24,0,0,0-7.16,2.85,13.87,13.87,0,0,0,21.24,4.59A14.28,14.28,0,0,0,381.22,165.63Z" fill="#ff573c"/><path d="M303.68,146.81a22.9,22.9,0,1,1-25.18-20.38A22.9,22.9,0,0,1,303.68,146.81Z" fill="#fcd7c9"/><path d="M265.49,154.13a15.75,15.75,0,0,1,4.59-13.1,15.75,15.75,0,0,1,13.29-4.37,15.87,15.87,0,0,1,6.7,2.57A16.08,16.08,0,0,1,295,144.5a15.69,15.69,0,0,1,.84,13.87.15.15,0,0,1-.19.07.14.14,0,0,1-.08-.18,15.59,15.59,0,0,0-1.12-13.44,16,16,0,0,0-4.72-5A15.48,15.48,0,0,0,276.43,138a15.57,15.57,0,0,0-10.68,16.14.13.13,0,0,1-.12.14A.13.13,0,0,1,265.49,154.13Z" fill="#373131"/><path d="M281.4,156a8.77,8.77,0,0,1,2-4.6,9.28,9.28,0,0,1,4.24-2.8,9.14,9.14,0,0,1,5.08-.1,8.77,8.77,0,0,1,4.28,2.61.14.14,0,0,1,0,.2.15.15,0,0,1-.2,0,9.48,9.48,0,0,0-4.24-2.19,8.93,8.93,0,0,0-4.7.19,9.1,9.1,0,0,0-2.15,1,9.85,9.85,0,0,0-1.82,1.53,9.43,9.43,0,0,0-2.24,4.22.13.13,0,0,1-.16.09A.12.12,0,0,1,281.4,156Z" fill="#373131"/><path d="M476.49,118.38s11.8-1.16,12.73-12.8S474.76,65.6,458.45,73,459.71,120.82,476.49,118.38Z" fill="#bd7952"/><path d="M429,376.57a28.63,28.63,0,0,0,.7-5.14c0-.87.09-1.73.07-2.6s0-1.74-.1-2.6A51.54,51.54,0,0,0,427.92,356c-.54-1.65-1-3.32-1.68-4.92-.33-.8-.6-1.63-1-2.41l-1.11-2.36A21.89,21.89,0,0,0,423,344l-1.27-2.28c-.89-1.5-1.86-3-2.79-4.42h0a.14.14,0,1,1,.24-.16c1,1.44,2,2.85,3,4.32l1.33,2.27a24.52,24.52,0,0,1,1.26,2.31l1.17,2.36c.38.79.67,1.62,1,2.43.7,1.61,1.18,3.31,1.73,5a48.24,48.24,0,0,1,1.69,10.4,32.89,32.89,0,0,1-1.06,10.45.13.13,0,0,1-.16.09.14.14,0,0,1-.1-.16Z" fill="#373131"/><path d="M352,344.6c1.6-.41,3.22-.72,4.85-1s3.26-.51,4.9-.7a69.36,69.36,0,0,1,9.88-.5.15.15,0,0,1,.14.15.15.15,0,0,1-.13.14c-1.64.14-3.28.25-4.91.42s-3.27.31-4.9.52-3.26.39-4.89.6l-4.89.63a.13.13,0,0,1,0-.26Z" fill="#373131"/><path d="M404.94,342.65c2.29-.94,4.59-1.83,6.91-2.69s4.65-1.69,7-2.5c4.69-1.58,9.38-3.16,14.19-4.35a.15.15,0,0,1,.08.28c-2.36.75-4.69,1.56-7,2.36l-7,2.41-7,2.4q-3.51,1.2-7,2.34a.14.14,0,0,1-.17-.09A.14.14,0,0,1,404.94,342.65Z" fill="#373131"/><path d="M420.06,336.18a12.34,12.34,0,0,1,2.08,1,16.4,16.4,0,0,1,1.89,1.32,14.42,14.42,0,0,1,3.07,3.4.15.15,0,0,1-.05.2.17.17,0,0,1-.18,0,42.6,42.6,0,0,0-3.31-3c-.57-.47-1.17-.92-1.77-1.35s-1.23-.85-1.85-1.29a.12.12,0,0,1,0-.18A.13.13,0,0,1,420.06,336.18Z" fill="#373131"/><polygon points="451 279.03 425.29 269.37 438.28 231.85 463.99 241.51 451 279.03" fill="#ffcb47"/><path d="M441.21,245.48a4,4,0,1,1,5.07-2.6A4,4,0,0,1,441.21,245.48Z" fill="#f7b027"/><path d="M452.85,249.24a4,4,0,1,1,5.07-2.6A4,4,0,0,1,452.85,249.24Z" fill="#f7b027"/><path d="M437.58,256.71a4,4,0,1,1,5.07-2.59A4,4,0,0,1,437.58,256.71Z" fill="#f7b027"/><path d="M449.22,260.47a4,4,0,1,1,5.08-2.59A4,4,0,0,1,449.22,260.47Z" fill="#f7b027"/><path d="M434,268a4,4,0,1,1,5.07-2.59A4,4,0,0,1,434,268Z" fill="#f7b027"/><path d="M445.59,271.71a4,4,0,1,1,5.08-2.6A4,4,0,0,1,445.59,271.71Z" fill="#f7b027"/><path d="M428.86,266.06a4.39,4.39,0,0,0,6.67-4.18c0-.28-.19-3.93,3-9.21a4.39,4.39,0,0,0-1.45-6h0a4.39,4.39,0,0,0-6,1.45c-4.91,8-4.37,14.07-4.29,14.74A4.39,4.39,0,0,0,428.86,266.06Z" fill="#fcd7c9"/><path d="M419.36,271.36a16.24,16.24,0,1,0,16.77-15.26A16,16,0,0,0,419.36,271.36Z" fill="#fcd7c9"/><path d="M438.42,256.34,455,258.65a3.68,3.68,0,0,1,3.27,3.65h0a3.67,3.67,0,0,1-1.83,3.17l-.74.43,2.32,1.43a3.65,3.65,0,0,1,1.74,3.12v0a3.68,3.68,0,0,1-2.79,3.56l-.22,0,.8,1.91a3.64,3.64,0,0,1,.11,2.56l-.09.27a3.65,3.65,0,0,1-3.48,2.53h-.85l.19.41a3.67,3.67,0,0,1-.1,3.23l-.43.82a3.68,3.68,0,0,1-3.24,1.94H435Z" fill="#fcd7c9"/><path d="M426.56,258.75s-16.2,9.35-29.05,7.58-20.93-11.95-20.93-11.95l-33.52,14.31s16.18,24.93,46.57,29.15c21.38,3,49.42-11.35,49.42-11.35Z" fill="#fcd7c9"/><path d="M364.21,230c-12.21-6.74-28.64.35-31.73,13.95-.89,3.91-.07,9,1.59,14.34a98.36,98.36,0,0,0,11.25,24.08s30.13-12.44,38.6-26.79C383.92,255.61,377.36,237.28,364.21,230Z" fill="#ec5723"/><polygon points="518.55 214.44 496.52 230.08 472.05 194.25 494.08 178.61 518.55 214.44" fill="#e985bb"/><path d="M485.81,200.86a4,4,0,1,1,.95-5.62A4,4,0,0,1,485.81,200.86Z" fill="#fda8d8"/><path d="M495.78,193.78a4,4,0,1,1,1-5.62A4,4,0,0,1,495.78,193.78Z" fill="#fda8d8"/><circle cx="490.31" cy="207.2" r="4.03" fill="#fda8d8"/><circle cx="500.29" cy="200.12" r="4.03" transform="translate(219.69 660.13) rotate(-80.42)" fill="#fda8d8"/><path d="M499.48,220.12a4,4,0,1,1,.95-5.62A4,4,0,0,1,499.48,220.12Z" fill="#fda8d8"/><path d="M509.45,213a4,4,0,1,1,1-5.62A4,4,0,0,1,509.45,213Z" fill="#fda8d8"/><path d="M500.68,183l-3.13,2.5a3.38,3.38,0,0,0-1,4.07h0a3.37,3.37,0,0,0,4.6,1.57l1.61-.82-3.05,4.1a3.12,3.12,0,0,0-.07,3.63h0a3.12,3.12,0,0,0,4,1l3.53-1.77-1.64,2.18a2.6,2.6,0,0,0,0,3.11h0a2.6,2.6,0,0,0,3.06.84l2.41-1-.59.83a3.47,3.47,0,0,0,.27,4.36h0a3.49,3.49,0,0,0,2.9,1.12l1.77-.18Z" fill="#fcd7c9"/><path d="M407.32,315.79c1,1.47,1.91,3,2.83,4.47l2.71,4.53c1.75,3,3.51,6.1,5.13,9.23a.16.16,0,0,1-.06.2.15.15,0,0,1-.19-.05c-1.94-2.95-3.73-6-5.52-9l-2.63-4.59c-.85-1.54-1.7-3.08-2.5-4.65a.14.14,0,0,1,.06-.18A.14.14,0,0,1,407.32,315.79Z" fill="#373131"/><path d="M416.45,331.15a5,5,0,0,0,2-3.77,10,10,0,0,0-.81-4.35c-.54-1.42-1.2-2.81-1.88-4.19s-1.43-2.71-2.21-4a.15.15,0,0,1,.05-.2.15.15,0,0,1,.19,0,35.14,35.14,0,0,1,4.54,8.12,10,10,0,0,1,.76,4.69,5,5,0,0,1-2.51,3.93.14.14,0,0,1-.18-.06A.14.14,0,0,1,416.45,331.15Z" fill="#373131"/><path d="M363.6,342.18a31.68,31.68,0,0,1-2.52-6.25,34.91,34.91,0,0,1-1.1-13.39,32.07,32.07,0,0,1,1.44-6.58.15.15,0,0,1,.18-.09.14.14,0,0,1,.09.17,41.94,41.94,0,0,0-1.08,6.56,39.67,39.67,0,0,0,0,6.63,38.33,38.33,0,0,0,1.09,6.54,41.58,41.58,0,0,0,2.13,6.29.14.14,0,0,1-.07.18A.13.13,0,0,1,363.6,342.18Z" fill="#373131"/><path d="M362.12,331.7c1.49-.77,3-1.52,4.38-2.39a21.53,21.53,0,0,0,3.93-3,13.66,13.66,0,0,0,2.88-3.91,10.3,10.3,0,0,0,1.1-4.72.14.14,0,0,1,.28,0,9.45,9.45,0,0,1-.8,5,13.47,13.47,0,0,1-2.94,4.18,20.08,20.08,0,0,1-4.13,3,34.31,34.31,0,0,1-4.59,2.07.13.13,0,0,1-.17-.08A.12.12,0,0,1,362.12,331.7Z" fill="#373131"/><path d="M345.3,282.23a30.66,30.66,0,0,0,5.52-2.08c1.79-.83,3.55-1.73,5.29-2.67a117.15,117.15,0,0,0,10.12-6.16,95,95,0,0,0,9.41-7.18l2.17-2,2-2.13c.66-.74,1.25-1.52,1.89-2.27s1.09-1.64,1.64-2.46h0a.15.15,0,0,1,.2,0,.14.14,0,0,1,0,.19,35.68,35.68,0,0,1-7.57,9.2,86.26,86.26,0,0,1-9.41,7.32,106.06,106.06,0,0,1-10.24,6.12,47.58,47.58,0,0,1-11.06,4.44.14.14,0,0,1-.16-.1.13.13,0,0,1,.1-.16Z" fill="#373131"/><path d="M344.77,282.18a49.84,49.84,0,0,1-3.34-5q-1.5-2.62-2.73-5.39a53.8,53.8,0,0,1-3.62-11.51.15.15,0,0,1,.12-.17.13.13,0,0,1,.16.1,84.5,84.5,0,0,0,4,11.28c.8,1.82,1.67,3.62,2.62,5.37s1.94,3.49,3,5.2a.16.16,0,0,1-.05.19A.13.13,0,0,1,344.77,282.18Z" fill="#373131"/><path d="M368.57,234.21a33.91,33.91,0,0,1,4.36,3.41,39.12,39.12,0,0,1,3.8,4,37.31,37.31,0,0,1,5.65,9.5.15.15,0,0,1-.08.19.16.16,0,0,1-.18-.07,52,52,0,0,0-6-9.15,48.28,48.28,0,0,0-3.67-4c-1.29-1.29-2.66-2.49-4.07-3.66a.14.14,0,0,1,0-.19A.14.14,0,0,1,368.57,234.21Z" fill="#373131"/><path d="M432.5,243.47l.54-3q.29-1.47.51-3c.34-2,.57-4,.85-6a.15.15,0,0,1,.16-.13.16.16,0,0,1,.13.14,31.71,31.71,0,0,1-.4,6.08c-.17,1-.37,2-.62,3a24.53,24.53,0,0,1-.91,2.91.14.14,0,0,1-.17.08A.14.14,0,0,1,432.5,243.47Z" fill="#373131"/><path d="M365,224.54a51.53,51.53,0,0,0,5.74,2.28,50.72,50.72,0,0,0,5.95,1.61,55.9,55.9,0,0,0,12.24,1.19,57.78,57.78,0,0,0,12.22-1.43,15.34,15.34,0,0,0,5.65-2.19,8.08,8.08,0,0,0,2.2-2,4.93,4.93,0,0,0,.94-2.8.15.15,0,0,1,.15-.14.14.14,0,0,1,.14.14,5.28,5.28,0,0,1-.9,3,8.64,8.64,0,0,1-2.24,2.23,15.86,15.86,0,0,1-5.8,2.39,55.25,55.25,0,0,1-12.35,1.55,54.28,54.28,0,0,1-12.39-1.3,48.77,48.77,0,0,1-11.67-4.28.13.13,0,0,1-.06-.18A.14.14,0,0,1,365,224.54Z" fill="#373131"/><rect x="553.54" y="312.06" width="7.82" height="3.78" fill="#fda8d8"/><rect x="540.52" y="312.06" width="7.82" height="3.78" fill="#fda8d8"/><rect x="567.78" y="312.06" width="7.82" height="3.78" fill="#fda8d8"/><rect x="456.94" y="312.06" width="7.82" height="3.78" fill="#ec5723"/><rect x="443.92" y="312.06" width="7.82" height="3.78" fill="#ec5723"/><rect x="471.18" y="312.06" width="7.82" height="3.78" fill="#ec5723"/><rect x="483.23" y="262.04" width="7.82" height="3.78" fill="#ff8377"/><rect x="470.22" y="262.04" width="7.82" height="3.78" fill="#ff8377"/><rect x="497.48" y="262.04" width="7.82" height="3.78" fill="#ff8377"/><rect x="526.29" y="235.64" width="7.82" height="3.78" fill="#fda8d8"/><rect x="513.28" y="235.64" width="7.82" height="3.78" fill="#fda8d8"/><rect x="540.53" y="235.64" width="7.82" height="3.78" fill="#fda8d8"/><rect x="535.94" y="340.68" width="44.24" height="25.15" fill="#f07642"/><rect x="439.34" y="340.68" width="44.24" height="25.15" fill="#ffcb47"/><rect x="535.94" y="365.83" width="44.24" height="25.15" fill="#de3e18"/><rect x="439.34" y="365.83" width="44.24" height="25.15" fill="#e985bb"/><rect x="439.34" y="315.74" width="44.24" height="25.15" fill="#de3e18"/><rect x="466.23" y="265.34" width="43.06" height="25.15" fill="#f07642"/><rect x="466.23" y="290.5" width="43.06" height="25.15" fill="#92261a"/><rect x="578.36" y="355.26" width="7.82" height="3.78" fill="#fdbf66"/><rect x="565.35" y="355.26" width="7.82" height="3.78" fill="#fdbf66"/><rect x="592.6" y="355.26" width="7.82" height="3.78" fill="#fdbf66"/><rect x="509.29" y="265.34" width="43.06" height="25.15" fill="#ffcb47"/><rect x="509.29" y="240.32" width="43.06" height="25.15" fill="#e985bb"/><rect x="509.29" y="290.5" width="43.06" height="25.15" fill="#de3e18"/><rect x="535.94" y="315.74" width="44.24" height="25.15" fill="#e985bb"/><rect x="483.58" y="315.74" width="52.37" height="25.15" fill="#f07642"/><rect x="561.36" y="358.56" width="43.06" height="25.15" fill="#ffcb47"/><rect x="561.36" y="383.72" width="43.06" height="25.15" fill="#e985bb"/><polygon points="552.93 358.56 612.84 358.56 580.97 326.7 552.93 358.56" fill="#92261a"/><circle cx="427.78" cy="395.89" r="18.5" transform="translate(-50.2 729.44) rotate(-77.69)" fill="#92261a"/><rect x="677.94" y="272.95" width="7.58" height="103.1" transform="translate(1363.45 649) rotate(180)" fill="#16c172"/><circle cx="681.72" cy="204.77" r="24.73" transform="translate(98.9 613.43) rotate(-51.76)" fill="#f07642"/><circle cx="651.67" cy="225.65" r="24.73" transform="translate(388.96 863.28) rotate(-86.71)" fill="#f07642"/><circle cx="665.45" cy="260.06" r="24.73" transform="translate(-47.24 209.74) rotate(-17.31)" fill="#f07642"/><circle cx="712.55" cy="227.31" r="24.73" transform="translate(345.18 878.8) rotate(-78.27)" fill="#f07642"/><path d="M674.69,265.11a24.73,24.73,0,1,1,28.49,20.3A24.73,24.73,0,0,1,674.69,265.11Z" fill="#f07642"/><line x1="690.47" y1="199.32" x2="687.82" y2="220.81" fill="none" stroke="#fda8d8" stroke-linecap="round" stroke-miterlimit="10" stroke-width="0.77"/><line x1="675.08" y1="199.32" x2="677.73" y2="220.81" fill="none" stroke="#fda8d8" stroke-linecap="round" stroke-miterlimit="10" stroke-width="0.77"/><line x1="649.45" y1="215.59" x2="668.82" y2="225.26" fill="none" stroke="#fda8d8" stroke-linecap="round" stroke-miterlimit="10" stroke-width="0.77"/><line x1="644.32" y1="230.1" x2="665.45" y2="234.77" fill="none" stroke="#fda8d8" stroke-linecap="round" stroke-miterlimit="10" stroke-width="0.77"/><line x1="655.2" y1="259.06" x2="670.38" y2="243.63" fill="none" stroke="#fda8d8" stroke-linecap="round" stroke-miterlimit="10" stroke-width="0.77"/><line x1="667.4" y1="268.43" x2="678.38" y2="249.78" fill="none" stroke="#fda8d8" stroke-linecap="round" stroke-miterlimit="10" stroke-width="0.77"/><line x1="714.77" y1="217.25" x2="695.41" y2="226.91" fill="none" stroke="#fda8d8" stroke-linecap="round" stroke-miterlimit="10" stroke-width="0.77"/><line x1="719.91" y1="231.76" x2="698.78" y2="236.43" fill="none" stroke="#fda8d8" stroke-linecap="round" stroke-miterlimit="10" stroke-width="0.77"/><line x1="709.34" y1="260.01" x2="694.15" y2="244.59" fill="none" stroke="#fda8d8" stroke-linecap="round" stroke-miterlimit="10" stroke-width="0.77"/><line x1="697.13" y1="269.39" x2="686.15" y2="250.73" fill="none" stroke="#fda8d8" stroke-linecap="round" stroke-miterlimit="10" stroke-width="0.77"/><path d="M662.17,245.83a22.15,22.15,0,1,0,9.16-30A22.15,22.15,0,0,0,662.17,245.83Z" fill="#ffcb47"/><path d="M682,319.2c-.2.86,57.53,1.48,46.58-20.8-8.71-17.73-46.86,13-46.86,13" fill="#16c172"/><path d="M679,350.54c.2.86-57.53,1.47-46.58-20.8,8.71-17.74,46.85,13,46.85,13" fill="#16c172"/><rect x="121.48" y="260.89" width="8.81" height="119.93" fill="#16c172"/><circle cx="125.88" cy="181.59" r="28.77" transform="translate(-46.83 43.78) rotate(-16.68)" fill="#f07642"/><circle cx="160.85" cy="205.88" r="28.77" transform="translate(-91.36 137.69) rotate(-36.87)" fill="#f07642"/><circle cx="144.82" cy="245.9" r="28.77" transform="translate(-60.72 47.93) rotate(-15.58)" fill="#f07642"/><circle cx="90.02" cy="207.8" r="28.77" transform="translate(-130.78 157.5) rotate(-53.74)" fill="#f07642"/><circle cx="105.69" cy="247.01" r="28.77" transform="translate(-149.69 163.54) rotate(-48.73)" fill="#f07642"/><line x1="115.72" y1="175.25" x2="118.8" y2="200.24" fill="none" stroke="#fda8d8" stroke-linecap="round" stroke-miterlimit="10" stroke-width="0.54"/><line x1="133.62" y1="175.25" x2="130.54" y2="200.24" fill="none" stroke="#fda8d8" stroke-linecap="round" stroke-miterlimit="10" stroke-width="0.54"/><line x1="163.43" y1="194.17" x2="140.9" y2="205.42" fill="none" stroke="#fda8d8" stroke-linecap="round" stroke-miterlimit="10" stroke-width="0.54"/><line x1="169.4" y1="211.05" x2="144.82" y2="216.48" fill="none" stroke="#fda8d8" stroke-linecap="round" stroke-miterlimit="10" stroke-width="0.54"/><line x1="156.74" y1="244.74" x2="139.08" y2="226.79" fill="none" stroke="#fda8d8" stroke-linecap="round" stroke-miterlimit="10" stroke-width="0.54"/><line x1="142.55" y1="255.64" x2="129.77" y2="233.94" fill="none" stroke="#fda8d8" stroke-linecap="round" stroke-miterlimit="10" stroke-width="0.54"/><line x1="87.44" y1="196.1" x2="109.97" y2="207.34" fill="none" stroke="#fda8d8" stroke-linecap="round" stroke-miterlimit="10" stroke-width="0.54"/><line x1="81.47" y1="212.98" x2="106.05" y2="218.41" fill="none" stroke="#fda8d8" stroke-linecap="round" stroke-miterlimit="10" stroke-width="0.54"/><line x1="93.77" y1="245.85" x2="111.43" y2="227.9" fill="none" stroke="#fda8d8" stroke-linecap="round" stroke-miterlimit="10" stroke-width="0.54"/><line x1="107.96" y1="256.75" x2="120.74" y2="235.05" fill="none" stroke="#fda8d8" stroke-linecap="round" stroke-miterlimit="10" stroke-width="0.54"/><path d="M148.64,229.34A25.77,25.77,0,1,1,138,194.5,25.77,25.77,0,0,1,148.64,229.34Z" fill="#ffcb47"/><path d="M125.56,314.7c.24,1-66.91,1.71-54.18-24.2,10.13-20.63,54.5,15.15,54.5,15.15" fill="#16c172"/><path d="M129,351.15c-.24,1,66.92,1.71,54.18-24.2-10.13-20.63-54.5,15.15-54.5,15.15" fill="#16c172"/><circle cx="149.82" cy="77.64" r="36.98" transform="matrix(0.97, -0.22, 0.22, 0.97, -13.59, 35.55)" fill="#ffb620"/><polygon points="173.06 41.53 166.74 38.17 176.46 17.32 184.9 21.8 173.06 41.53" fill="#ffb620"/><polygon points="126.58 113.75 132.9 117.11 123.17 137.97 114.73 133.49 126.58 113.75" fill="#ffb620"/><polygon points="185.93 100.88 189.29 94.56 210.14 104.29 205.66 112.72 185.93 100.88" fill="#ffb620"/><polygon points="113.7 54.4 110.35 60.72 89.49 51 93.97 42.56 113.7 54.4" fill="#ffb620"/><polygon points="191.78 68.54 189.69 61.7 211.31 53.83 214.11 62.96 191.78 68.54" fill="#ffb620"/><polygon points="107.85 86.75 109.94 93.59 88.32 101.46 85.52 92.33 107.85 86.75" fill="#ffb620"/><polygon points="158.92 119.61 165.76 117.52 173.63 139.14 164.5 141.94 158.92 119.61" fill="#ffb620"/><polygon points="140.71 35.68 133.87 37.77 126 16.14 135.13 13.35 140.71 35.68" fill="#ffb620"/></svg>