<svg xmlns="http://www.w3.org/2000/svg" viewBox="0 0 692 540" xml:space="preserve"><ellipse fill="#FFF" opacity=".35" cx="359" cy="483.1" rx="296.5" ry="47.6"/><path fill="#FFF" d="M249.2 127.3c-8.7 0-16.9 2.1-24.1 5.9-10.6-26.4-36.4-45.1-66.5-45.1-26.4 0-49.5 14.3-61.9 35.6-8.5-4.9-18.2-7.7-28.7-7.7-31.8 0-57.7 25.8-57.7 57.7H301c-2.8-26-24.9-46.4-51.8-46.4zm392 138.2c-6.5 0-12.6 1.6-18 4.4-7.9-19.7-27.2-33.7-49.8-33.7-19.8 0-37 10.7-46.3 26.7-6.3-3.6-13.6-5.7-21.5-5.7-23.8 0-43.1 19.3-43.1 43.1H680c-2.1-19.5-18.7-34.8-38.8-34.8z"/><path fill="#FEC667" d="M301 401.6c0-.2 0-.4-.1-.6 0-.4-.1-.8-.1-1.2 0-.3-.1-.5-.1-.7-.1-.3-.1-.7-.2-1 0-.3-.1-.5-.2-.8-.1-.3-.1-.6-.2-.9-.1-.3-.1-.5-.2-.8-.1-.3-.2-.5-.2-.8-.1-.3-.2-.6-.3-.8-.1-.2-.2-.4-.3-.7-.1-.3-.2-.6-.4-.9-.1-.2-.2-.3-.2-.5-.2-.3-.3-.6-.5-.9 0-.1-.1-.1-.1-.2-.8-1.4-1.7-2.6-2.7-3.6-.5-.5-.9-.9-1.4-1.3-.3-.2-.6-.4-1-.6h-.1c-.3-.2-.7-.3-1-.5-.3-.1-.7-.3-1-.4-.5-.1-1.1-.2-1.6-.3h-.4c-.7.1-1.3.3-1.9.5 0 0-.1 0-.1.1-.2.1-.3.1-.5.2-.1 0-.2.1-.3.1-.1.1-.3.1-.4.2-.1.1-.2.1-.3.2-.1.1-.2.1-.3.2-.1.1-.3.2-.4.3-.1.1-.2.1-.3.2-.2.2-.4.4-.6.5-.8.7-1.5 1.6-2.2 2.6-1.5 1.4-3.5 2.8-5.6 2.5-1.4.2-2.9-.3-4.3-1.9-1.3-20.4-4.7-34.3-4.7-34.3C262.9 332.4 239 331 239 331h-28.2c-4.6-3.3-2.4-7.1-.1-9.5 3.2-2.2 5.2-5.2 5.2-8.4 0-6.8-8.7-12.3-19.4-12.3-.8 0-1.5 0-2.3.1-2.4.2-4.6.6-6.7 1.3h-.1c-.4.1-.8.3-1.2.4-.1 0-.2.1-.4.1-.3.1-.7.3-1 .5-.2.1-.3.1-.5.2-.3.1-.6.3-.9.5-.2.1-.3.2-.5.3-.3.2-.5.3-.7.5-.2.1-.3.2-.5.4s-.4.3-.6.5l-.5.4c-.2.2-.4.3-.5.5l-.5.5c-.2.2-.3.3-.4.5-.1.2-.3.4-.4.5-.1.2-.2.3-.4.5l-.3.6c-.1.2-.2.3-.3.5-.1.2-.2.4-.3.7l-.2.5c-.1.3-.1.5-.2.8 0 .1-.1.3-.1.4-.1.4-.1.8-.1 1.2 0 2.3 1 4.4 2.6 6.2.7.8 1.6 1.5 2.6 2.2 2.2 2.3 4.4 6 .3 9.2-.1.1-.2.2-.4.3h-29s-23.9 1.4-27.7 24.6c0 0-2.9 13.9-4 34.1 3.2 3.9 6.8 1.7 9-.5.7-1 1.4-1.9 2.2-2.6 1.8-1.7 3.9-2.6 6.2-2.6 6.8 0 12.4 8.7 12.4 19.4s-5.5 19.4-12.4 19.4c-3.3 0-6.2-2-8.4-5.2-2.3-2.2-6-4.4-9.2-.3.5 10.9 1.7 22.4 4.2 34 4.8 23 27.7 24.6 27.7 24.6h29c4.6-3.3 2.4-7.1.1-9.5-1-.7-1.9-1.4-2.6-2.2-1.7-1.8-2.6-3.9-2.6-6.2 0-6.8 8.7-12.3 19.4-12.3s19.4 5.5 19.4 12.3c0 3.3-2 6.2-5.2 8.4-2.3 2.4-4.5 6.2.1 9.5H239s22.1-1.8 27.7-24.6c2.9-11.8 4.3-23.5 4.9-34.5 1.4-1.5 2.8-1.9 4.2-1.7 2.1-.3 4.2 1.1 5.6 2.5.3.4.5.7.8 1.1.1.1.2.3.3.4.2.2.3.4.5.6.1.2.3.3.4.4.2.1.3.3.5.4l.5.4.4.3c.2.1.4.3.6.4.1.1.2.1.4.2s.5.2.7.3c.1 0 .2.1.3.1.3.1.5.2.8.3l.2.1c.3.1.6.1.9.2h.5c6.6-.4 11.8-8.9 11.8-19.4v-1.9z"/><path fill="#F9D7A5" d="M240.5 340.9c-8.9-1.8-22.3-3.2-30.9-.5-3.1 1-9.2 3.6-6.9 7.9 1.7 3.1 10 2.6 12.9 3.1 8.7 1.3 17.6 5.4 22.6 13 4.7 7.2 5.1 16.6 6.3 24.9.9 6.3 6 21.6 12.6 9.1 3.4-6.4 2.9-14.8 2.9-22.1-.9-35.8-19.5-35.4-19.5-35.4z"/><path fill="#9453A1" d="M271.7 272c-1.2-1.5-2.5-2.2-3.8-2.2-1.9.1-3.7 1.3-5 2.6-2.2 3.2-5.2 5.2-8.4 5.2h-.4c-6.8 0-12.4-8.7-12.4-19.4s5.5-19.4 12.4-19.4h.4c2.3 0 4.4 1 6.2 2.6.8.7 1.5 1.6 2.2 2.6 1.3 1.3 3.1 2.5 5 2.6 1.2-.1 2.5-.7 3.7-2.1-1.1-20.3-4-34.1-4-34.1-.1-.7-.3-1.5-.4-2.2 0-.2-.1-.4-.2-.6-.1-.5-.2-1-.4-1.4-.1-.2-.2-.5-.2-.7-.1-.4-.3-.8-.4-1.2-.1-.2-.2-.5-.3-.7-.2-.4-.3-.7-.5-1.1-.1-.2-.2-.4-.3-.7-.2-.3-.3-.7-.5-1-.1-.2-.2-.4-.4-.6l-.6-.9c-.1-.2-.3-.4-.4-.6l-.6-.9c-.1-.2-.3-.3-.4-.5l-.7-.8c-.1-.2-.3-.3-.4-.5-.2-.3-.5-.5-.7-.8l-.4-.4-.8-.8c-.1-.1-.2-.2-.4-.3-.3-.2-.6-.5-.8-.7l-.3-.3c-.3-.2-.6-.5-.9-.7-.1-.1-.2-.1-.3-.2-.3-.2-.6-.5-1-.7-.1-.1-.2-.1-.2-.2-.3-.2-.7-.4-1-.6-.1 0-.1-.1-.2-.1-.4-.2-.8-.4-1.1-.6 0 0-.1 0-.1-.1l-1.2-.6c-6.1-2.9-11.6-3.2-11.6-3.2h-29c-4.6-3.3-2.4-7.1-.1-9.5 1-.7 1.9-1.4 2.6-2.2 1.7-1.8 2.6-3.9 2.6-6.2 0-6.6-8.2-12-18.5-12.3h-1c-10.7 0-19.4 5.5-19.4 12.3 0 3.3 2 6.2 5.2 8.4 2.3 2.4 4.5 6.2-.1 9.5H154s-23.9 1.4-27.7 24.6c0 0-3.4 13.9-4.7 34.3-3.2 3.6-6.7 1.5-8.9-.7-.7-1-1.4-1.9-2.2-2.6-1.8-1.7-3.9-2.6-6.2-2.6-6.8 0-12.3 8.7-12.3 19.4s5.5 19.4 12.3 19.4c3.3 0 6.2-2 8.4-5.2 2.2-2.1 5.6-4.2 8.7-.9.6 11 2 22.8 4.9 34.5 5.6 22.9 27.7 24.6 27.7 24.6h28c4.1-3.2 1.9-6.9-.3-9.2-1-.7-1.9-1.4-2.6-2.2-1.7-1.8-2.6-3.9-2.6-6.2 0-.4 0-.8.1-1.2 0-.1.1-.3.1-.4.1-.3.1-.5.2-.8l.2-.5c.1-.2.2-.4.3-.7.1-.2.2-.3.3-.5l.3-.6c.1-.2.2-.3.4-.5.1-.2.3-.4.4-.5.1-.2.3-.3.4-.5s.3-.3.5-.5.4-.3.5-.5l.5-.4c.2-.2.4-.3.6-.5.2-.1.3-.2.5-.4s.5-.3.7-.5c.2-.1.3-.2.5-.3.3-.2.6-.3.8-.5 3.4-1.9 7.8-3 12.6-3 10.7 0 19.4 5.5 19.4 12.3 0 2.3-1 4.4-2.6 6.2-.7.8-1.6 1.5-2.6 2.2-2.3 2.4-4.5 6.2.1 9.5h29s22.9-1.6 27.7-24.6c2.4-11.3 3.6-22.7 4.1-33.4.2.1.2-.1.2-.3z"/><path fill="#CC62A5" d="M222.7 206.7c8.6 6.8-1.9 12.3-7 16.1-7.2 5.4-6.9 16.4-6.5 24.8.3 5.4 1.5 23.7 11.5 19.5 6.1-2.6 2.2-16.8 3-22.5 1.1-8.2 4.9-15.3 12.1-19.8 6.2-3.9 16.7-6.1 18.2-14.1 2.9-16.3-10.5-16.6-24-17.7-6.1-.5-17.6-2.4-21.2 4.1-4.9 8.7 9.9 6.4 13.9 9.6z"/><path fill="#008CD1" d="M438.6 384h-.8c-.2 0-.5.1-.7.1-1.7.3-3.2 1.2-4.6 2.5-.8.7-1.5 1.6-2.2 2.6-2.2 2.1-5.7 4.2-8.9.7-1.3-20.4-4.7-34.3-4.7-34.3C412.9 332.4 389 331 389 331h-28.2c-1.2-.9-2-1.8-2.4-2.7-1-2.5.6-5 2.3-6.7 3.2-2.2 5.2-5.2 5.2-8.4 0-.4 0-.8-.1-1.2 0-.1-.1-.2-.1-.4-.1-.3-.1-.5-.2-.8 0-.1-.1-.3-.1-.4-.1-.2-.2-.5-.3-.7-.1-.1-.1-.3-.2-.4-.1-.2-.2-.4-.4-.7-.1-.1-.2-.3-.2-.4-.2-.3-.4-.5-.6-.8-.2-.2-.3-.4-.5-.6l-.5-.5c-.2-.2-.4-.3-.5-.5-.1-.1-.3-.2-.4-.4-.2-.2-.4-.3-.7-.5-.1-.1-.3-.2-.4-.3-.3-.2-.5-.3-.8-.5l-.3-.2c-1-.6-2.2-1.1-3.4-1.6-.4-.2-.9-.3-1.3-.5-.1 0-.1 0-.2-.1-.4-.1-.9-.2-1.3-.3h-.2c-.5-.1-.9-.2-1.4-.3h.1c-1.7-.3-3.5-.5-5.4-.5-10.7 0-19.4 5.5-19.4 12.3 0 1.1.2 2.2.7 3.2.5 1.1 1.1 2 2 3 .7.8 1.6 1.5 2.6 2.2.8.8 1.6 1.8 2.1 2.9.9 2 .8 4.4-2.2 6.6h-29s-23.9 1.4-27.7 24.6c0 0-2.9 13.9-4 34.1 1.1 1.3 2.3 1.9 3.4 2.1 2.1.3 4.2-1.1 5.6-2.5.7-1 1.4-1.9 2.2-2.6.2-.2.4-.4.6-.5.1-.1.2-.1.3-.2.1-.1.3-.2.4-.3.1-.1.2-.1.3-.2.1-.1.2-.1.3-.2.1-.1.3-.1.4-.2.1 0 .2-.1.3-.1.2-.1.3-.1.5-.2 0 0 .1 0 .1-.1.6-.2 1.3-.4 1.9-.5h1.1c6.8 0 12.4 8.7 12.4 19.4s-5.5 19.4-12.4 19.4h-1.1c-.3 0-.6-.1-.9-.2l-.2-.1c-.3-.1-.5-.2-.8-.3-.1 0-.2-.1-.3-.1-.2-.1-.5-.2-.7-.3-.1-.1-.3-.1-.4-.2-.2-.1-.4-.2-.6-.4l-.4-.3-.5-.4c-.2-.1-.3-.3-.5-.4s-.3-.3-.4-.4c-.2-.2-.4-.4-.5-.6-.1-.1-.2-.3-.3-.4-.3-.3-.6-.7-.8-1.1-1.5-1.4-3.5-2.8-5.6-2.5-1.2.1-2.4.8-3.6 2.3.5 10.9 1.7 22.4 4.2 34 4.8 23 27.7 24.6 27.7 24.6h29c4.6-3.3 2.4-7.1.1-9.5-1-.7-1.9-1.4-2.6-2.2-1.7-1.8-2.6-3.9-2.6-6.2 0-6.8 8.7-12.3 19.4-12.3s19.4 5.5 19.4 12.3c0 3.3-2 6.2-5.2 8.4-2.3 2.4-4.5 6.2.1 9.5h28.2s22.1-1.8 27.7-24.6c2.9-11.8 4.3-23.5 4.9-34.5 3.1-3.3 6.5-1.2 8.7.9 2.2 3.2 5.2 5.2 8.4 5.2 6.8 0 12.3-8.7 12.3-19.4-.1-10.9-5.6-19.6-12.5-19.6z"/><path fill="#00AAE6" d="M352.4 362.7c8.2 2.4 18.3 3.8 26 8 8.3 4.5 9 14.4 11 22.6 1.1 4.5 3.6 10.4 7.5 4 2.3-3.8 1.3-10.6 1.5-15 .2-4.5.6-9.1-.4-13.6-3.9-17.3-27.1-17.5-41-17.4-3.1 0-9.5-.2-11.4 3.1-2.6 4.8 3.3 7.3 6.8 8.3z"/><path fill="#3C439B" d="M412.2 272.3c-2.2 3.2-5.2 5.2-8.4 5.2-6.8 0-12.3-8.7-12.3-19.4s5.5-19.4 12.3-19.4c2.3 0 4.4 1 6.2 2.6.8.7 1.5 1.6 2.2 2.6 2.3 2.2 5.9 4.3 9 .5-1.1-20.3-4-34.1-4-34.1-.1-.7-.3-1.5-.4-2.2-.1-.2-.1-.4-.2-.6-.1-.5-.2-1-.4-1.4-.1-.2-.2-.5-.2-.7-.1-.4-.3-.8-.4-1.2-.1-.2-.2-.5-.3-.7-.1-.4-.3-.7-.5-1.1-.1-.2-.2-.5-.3-.7-.2-.3-.3-.7-.5-1-.1-.2-.2-.4-.4-.6-.2-.3-.4-.6-.5-.9-.1-.2-.3-.4-.4-.6l-.6-.9c-.1-.2-.3-.4-.4-.5-.2-.3-.4-.6-.7-.8-.1-.2-.3-.3-.4-.5-.2-.3-.5-.5-.7-.8l-.4-.4c-.3-.3-.5-.5-.8-.7-.1-.1-.3-.2-.4-.3-.3-.2-.5-.5-.8-.7-.1-.1-.2-.2-.4-.3-.3-.2-.6-.5-.9-.7-.1-.1-.2-.2-.3-.2l-1-.7c-.1-.1-.2-.1-.3-.2-.3-.2-.7-.4-1-.6l-.2-.1c-.4-.2-.7-.4-1.1-.6l-.1-.1-1.2-.6c-6.1-2.9-11.7-3.2-11.7-3.2h-28.9c-4.6-3.3-2.4-7.1-.1-9.5 1-.7 1.9-1.4 2.6-2.2 1.7-1.8 2.6-3.9 2.6-6.2 0-4.1-3.1-7.7-7.9-9.9-1.5-.7-3.2-1.3-5-1.7-.2 0-.3-.1-.4-.1-.3-.1-.6-.1-.9-.2-.3 0-.5-.1-.8-.1-.3 0-.5-.1-.8-.1-.4 0-.7-.1-1.1-.1-.2 0-.4 0-.6-.1-.6 0-1.2-.1-1.8-.1-10.7 0-19.4 5.5-19.4 12.3 0 3.3 2 6.2 5.2 8.4 2.3 2.4 4.5 6.2-.1 9.5h-28.2s-23.9 1.4-27.7 24.6c0 0-3.4 13.9-4.7 34.3-1.3 1.4-2.6 2-3.9 1.9-1.9-.1-3.7-1.3-5-2.6-.7-1-1.4-1.9-2.2-2.6-1.8-1.7-3.9-2.6-6.2-2.6h-.2c-6.7.1-12.2 8.8-12.2 19.4 0 10.6 5.4 19.2 12.2 19.4h.2c3.3 0 6.2-2 8.4-5.2 1.3-1.3 3.1-2.5 5-2.6 1.2 0 2.5.4 3.7 1.7v1.1c.6 10.7 2.1 22 4.8 33.4 5.6 22.9 27.7 24.6 27.7 24.6H332c2.9-2 3.1-4.3 2.3-6.3-.5-1.1-1.3-2.1-2.1-2.9-1-.7-1.9-1.4-2.6-2.2-.8-.9-1.5-1.9-2-3s-.8-2.3-.8-3.5c0-6.8 8.7-12.3 19.4-12.3 8.8 0 16.3 3.8 18.6 8.9.1.1.1.2.1.3.1.2.2.5.3.7.1.1.1.3.1.4.1.3.1.5.2.8 0 .1.1.2.1.4.1.4.1.8.1 1.2 0 3.3-2 6.2-5.2 8.4-1.7 1.7-3.3 4.2-2.3 6.7.4.8 1.1 1.6 2.2 2.4h29s22.9-1.6 27.7-24.6c2.4-11.5 3.7-23.1 4.2-34-3.1-3.9-6.8-1.7-9.1.5z"/><path fill="#484FA1" d="M366.5 216.6c3.4 7.7-3.6 15.4-5.7 22.5-2.2 7.5-3.5 18.5-.3 25.9 2.3 5.3 7.3 6.1 10.3.5 1.8-3.4 1.8-9.1 1.6-13-.4-7.9-.4-17.2 5.4-23.5 5-5.6 15.4-4.3 19.2-11.7 4.2-8.2 7.4-22.9-2.9-21.8-4.3.5-12.2-.7-23.5-.5-6.5.1-13.4-.6-18.4 4.2-9.3 9 11.2 10.7 14.3 17.4z"/><path fill="#EA8D71" d="M578.4 449c-4.1-6-8.6-14-15.7-17-.2-.4-.4-.7-.7-1.1 0 0-18.9-40.8-47.3-83.8 3-3.7 5.4-7.3 6.5-10.5L473.4 290c-.3-.1-.7-.1-1-.2-5.3-5.5-10.9-7.9-15.4-9l1.5-7.9h3.7c1.1 0 2.2 0 3.3-.1.5 0 1 0 1.5-.1 1.6-.1 3.2-.2 4.7-.4.2 0 .4-.1.6-.1 1.4-.2 2.7-.4 4.1-.6l1.5-.3c1-.2 2.1-.4 3.1-.6.5-.1 1.1-.3 1.6-.4 1-.2 2-.5 3-.8.5-.1 1-.3 1.5-.4 1.1-.3 2.2-.7 3.3-1.1.4-.1.7-.2 1.1-.4 1.5-.5 2.9-1.1 4.4-1.7.2-.1.3-.2.5-.2 1.2-.5 2.5-1.1 3.7-1.7l1.2-.6c1-.5 2-1 2.9-1.6.4-.2.9-.5 1.3-.7 1-.6 1.9-1.1 2.8-1.7.4-.2.8-.5 1.1-.7 1.1-.7 2.2-1.5 3.3-2.3.2-.1.3-.2.5-.4 1.3-.9 2.5-1.9 3.7-2.9l.4-.4c1-.9 2-1.7 3-2.7l.3-.3h-.1c5.7-5.3 10.7-11.4 14.8-18.1.1.1.1.2.2.3.2.2.3.5.5.7.1.2.3.4.4.6.2.2.4.5.6.7.2.2.3.4.5.5l.6.6.5.5c.2.2.5.4.7.6.2.1.3.3.5.4l.9.6c.2.1.3.2.5.3.5.3 1 .5 1.5.7 8.6 3.4 18.8-1.8 22.7-11.7 3.9-9.9.2-20.7-8.5-24.1-.5-.2-.9-.3-1.4-.5-.1 0-.3-.1-.5-.1-.4-.1-.8-.2-1.1-.2-.2 0-.3-.1-.5-.1-.3 0-.7-.1-1-.1-1.2-.1-2.5 0-3.7.2 4.6-15.5 7-38.1-5.4-60.3 15 .2 30.6-12.1 30.6-12.1-15.9-3.1-32-15.3-32-15.3 8-1.4 25-20.7 25-20.7-16.9 8.9-34.3 1.5-34.3 1.5-108.1-40.1-111.5 8.3-111.5 8.3s-54 4.9-51.5 64.2h-.1c-.2 0-.3-.1-.5-.1-.4-.1-.8-.1-1.2-.2h-.5c-.5 0-1-.1-1.5-.1-9.3.1-16.7 8.8-16.6 19.5.1 10.6 7.7 19.2 17 19.1.6 0 1.1 0 1.6-.1.2 0 .3-.1.5-.1.4-.1.7-.1 1.1-.2.2 0 .4-.1.6-.2l.9-.3c.2-.1.4-.2.6-.2.3-.1.6-.2.9-.4l.6-.3c.3-.1.5-.3.8-.4.2-.1.4-.3.6-.4.2-.2.5-.3.7-.5.1-.1.2-.1.3-.2 5.3 30 27 55.7 57.2 66.1l-1.7 9c-7.2-.3-15.9.3-24.3 3.7-.1 0-.2-.1-.3-.1L335.5 301c-.3 2.8-.2 6 .2 9.3-7.3 2.5-15 6.9-18.4 9.1-14.7 9.5-30.5 23.4-33 41.8-.9 6.8-.6 16.1 3.6 21.9.3.5.7.8 1.1 1.1h-21.7c-10.3-.1-8.1 15.1-8.1 15.1v20.5h-.2v7.3h.2v8.1c.2 6.6 4.6 8.8 8.1 9.4v.4c0 7.7 5.5 14.1 12.8 15.6-2.3 4.3-3 10-.3 17.3 0 0 2.1 7.4 10 12.1 3.9 3.7 9.8 6.7 18.7 7.9l119.2 16.3c4 7.3 24.7 4.6 24.7 4.6l28.4 5.2c10.2 1.7 15.9-23.7 15.9-23.7.7-7.2-8.2-6.7-8.2-6.7h-29.7s.9-.1 2.4-.3l84.1.8c5 0 9.2-.6 12.6-1.7 16.5-2.1 20.3-15.5 20.3-15.5 1-2.7 1.5-5.2 1.7-7.5 1.8 1.8 3.9 3.4 6.2 3.4 11.8.3-4.5-19-7.7-23.8zm-279.5-4.3 27.4-.2-27.2 3.3s-.2 0-.5.1c.2-1 .3-1.9.3-3v-.2zm249.1-3.5v.4c-.9.9-1.5 2.3-1.7 4l-48.6-5.5-6.7-61c13.4 17.9 34.3 43.5 57 62.1zm-240.3-71.1c.5-3.4 3.7-7.4 6.1-9.8 5.8-5.8 13.6-8.5 20.7-12.2 3.1-1.6 6.6-3.2 9.9-5.1 1.5 4.1 2.7 6.7 2.7 6.7 9.7-1.8 18.4-3.4 25.9-4.8-2.9 17.2-7.5 45.2-10.8 69H356l-6.8-23.5c-1.9-6.5-8.2-6.1-8.2-6.1h-17.7c-1.8-1.2-3.5-2.2-4.3-2.7-3.2-2-6.6-3.4-10.2-3.8-.5-2.6-1.5-5-1.1-7.7z"/><path fill="#2E4797" d="M575.5 465c-1.2-1-2.5-1.9-3.8-2.8 1.2 1.8 2.2 4 2.9 6.4 0 0 1.2 18.2-16.8 23.8 16.5-2.1 20.3-15.5 20.3-15.5 1-2.7 1.5-5.2 1.7-7.5-1.5-1.4-2.9-3.2-4.3-4.4zm-292.4 3.4c7.9-16.9 26.1-14.4 36.8-11.1 5 1.5 8.4 3.2 8.4 3.2l29.9 9.8c-.1-.8-.1-1.3-.1-1.3.4-7.3 9.1-5.4 9.1-5.4l55 8.3h4.2s.5-.2 1.1.3l67.7-11.7 36-6.2s7-2.3 15.4-2.6c-.4-2.2-.5-4.4-.3-6.2l-48.6-5.5.7 6.6-3 1.5c-39.4 18.9-87 12-114.5 5.3-2.8 4.5-7.8 7.5-13.5 7.5-8.8 0-15.9-7.1-15.9-15.9v-.6h-4.7l-20.7.1-27.2 3.3s-.2 0-.5.1c-1.4 7.3-7.8 12.9-15.6 12.9-1 0-2.1-.1-3-.3-2.3 4.3-3 10-.3 17.3 0 0 2.1 7.4 10 12.1-9.2-8.8-6.4-21.5-6.4-21.5zm144.8 24.7h-.3.3z"/><path fill="#E07C65" d="M574.7 468.7c-.7-2.5-1.7-4.6-2.9-6.4-2.8-1.8-5.9-3.4-8.5-5.5-1.3-1-2.5-1.9-3.6-2.8.3 3.6-.1 6.9-1 8.6-4.4 7.8-10.5-2-12.1-10.9-8.5.3-15.4 2.6-15.4 2.6l-36 6.2-67.7 11.7c.4.3.9 1 1.3 2.3l1 10.4s-.5 3.5-2.1 3.9l-.5.1-2.4.7-.4 2.3 1.2.4 2.1.7h.3c.5-.2.8 0 .8 0l32.4.3 84.1.8c5 0 9.2-.6 12.6-1.7 18-5.6 16.8-23.7 16.8-23.7z"/><path fill="#1A3A61" d="m407.7 486.5 16.7 5.5.4-2.3 2.4-.7.5-.1c1.6-.5 2.1-3.9 2.1-3.9l-1-10.4c-.4-1.3-.9-1.9-1.3-2.3-.6-.5-1.1-.3-1.1-.3h-4.2l-55-8.3s-8.8-1.8-9.1 5.4c0 0 0 .5.1 1.3l20.1 6.6"/><path fill="#FFF" d="M408.4 485c-.5-3.3-.6-6.6-.9-9.9-.1-1.9-3.1-1.9-3 0 .2 3.6.4 7.2 1 10.7l2.2.7c.5-.3.8-.8.7-1.5zm-9-10.6c.3-1.9-2.7-1.9-3 0-.4 2.9-.2 5.7.4 8.5l3.3 1.1c-.8-3.2-1.1-6.3-.7-9.6zm-8.7-1.2c.2-1.9-2.8-1.9-3 0-.2 2.2-.2 4.5-.1 6.8l3.1 1c-.2-2.6-.2-5.2 0-7.8zm-12.4-.2v3.9l3 1c0-1.6-.1-3.3 0-4.9 0-1.9-3-1.9-3 0z"/><path fill="#1A3A61" d="M428.7 493.1s-.3-.2-.8 0h-.1c-.5.2-1.1.8-1.8 2.1l-2.5 10.2s0 3.5 1.5 4.2l1.1.5 1.6.8v3.4c4 7.3 24.7 4.6 24.7 4.6l28.4 5.2c10.2 1.7 15.9-23.7 15.9-23.7.7-7.2-8.2-6.7-8.2-6.7h-55.6l-4.2-.6z"/><path fill="#FFF" d="M447.4 509.7c1-3.3 1.7-6.7 2.5-10.1.4-1.9-2.5-2.7-2.9-.8-.8 3.4-1.4 6.8-2.5 10.1-.5 1.9 2.3 2.7 2.9.8zm8.3.4c1.4-3.3 2.2-6.6 2.3-10.2 0-1.9-3-1.9-3 0-.1 3.3-.9 6.4-2.2 9.4-.7 1.7 2.2 2.5 2.9.8zm8.1 2.6c1.9-4 2.7-8.4 3-12.7.1-1.9-2.9-1.9-3 0-.3 3.8-.9 7.8-2.6 11.2-.8 1.7 1.8 3.2 2.6 1.5zm9.8 1.3c1.3-4.2 2.1-8.5 2.6-12.9.2-1.9-2.7-1.9-3 0-.5 4.1-1.3 8.1-2.5 12.1-.6 1.9 2.3 2.7 2.9.8z"/><path fill="#16C172" d="M347.1 349.6c9.7-1.8 18.4-3.4 25.9-4.8-2.9 17.2-7.5 45.2-10.8 69h19.2s.9-.3 2.1-.2h.1c.2 0 .4 0 .6.1h.2c.2 0 .4.1.6.1.1 0 .2 0 .2.1.2.1.4.2.7.3.1 0 .1.1.2.1.3.1.6.3.9.5l.1.1c.2.2.5.3.7.6l.3.3.6.6c.1.1.2.2.3.4.2.2.4.5.6.8.1.1.2.3.3.4.3.4.6.9.8 1.4l.7 5.3 1.1 8.5 1.5 11.2-10.9.1v.7c0 3.1-.9 5.9-2.4 8.4 27.5 6.7 75.1 13.6 114.5-5.3l3-1.5-.7-6.6-6.7-61-.8-7.7s15.1-12.5 24.5-24.3c3-3.7 5.4-7.3 6.5-10.5L473.4 290c-.3-.1-.7-.1-1-.2-5.3-5.5-10.9-7.9-15.4-9l-1.1 5.8v.2l-.1.4c-3.3 4.6-13.5 2.3-13.5 2.3-12.3-2-11.8-7-11.8-7l1-5.2c-7.2-.3-15.9.3-24.3 3.7-.1 0-.2-.1-.3-.1L335.5 301c-.3 2.8-.2 6 .2 9.3 1.3 11.4 5.8 24.8 8.8 32.6 1.5 4.1 2.6 6.7 2.6 6.7z"/><path fill="#E07C65" d="M375.6 199.2c-3.8 2.3-8.5 2.7-12.8.1-6.8-4.1-7.6-13-5.6-19.9 1-3.3 2.4-6.6 5.4-8.7 2.2-1.6 4.8-2.4 7.5-2.8v-.3h-.1c-.2 0-.3-.1-.5-.1-.4-.1-.8-.1-1.2-.2h-.5c-.5 0-1-.1-1.5-.1-9.3.1-16.7 8.8-16.6 19.5.1 10.6 7.7 19.2 17 19.1.6 0 1.1 0 1.6-.1.2 0 .3-.1.5-.1.4-.1.7-.1 1.1-.2.2 0 .4-.1.6-.2l.9-.3c.2-.1.4-.2.6-.2.3-.1.6-.2.9-.4l.6-.3c.3-.1.5-.3.8-.4.2-.1.4-.3.6-.4.2-.2.5-.3.7-.5.1-.1.2-.1.3-.2 0-1.3-.2-2.3-.3-3.3z"/><path fill="#242340" d="M365.5 173.8c-.6-.3-1.3-.1-1.6.5-.3.6-.1 1.3.5 1.6 1.4.8 2.3 1.9 3 3.2.7 1.4 1 3 1 4.7v.5c-.5.1-1.1.1-1.7.1-1.5 0-3.2-.3-4.6-.7-.7-.2-1.3-.5-1.7-.7-.4-.3-.7-.5-.8-.7-.3-.6-1-.8-1.6-.4-.6.3-.8 1-.4 1.6.4.7 1 1.1 1.6 1.5 1 .6 2.2 1 3.5 1.3 1.3.3 2.7.5 4 .5.5 0 1 0 1.5-.1-.6 3-2.2 6-4.5 8.1-.5.4-.5 1.2-.1 1.7s1.2.5 1.7.1c3.2-3 5.1-7.1 5.5-11.2.1-.5.1-1.1.1-1.6 0-2-.4-4-1.3-5.8-1-1.7-2.3-3.2-4.1-4.2z"/><path fill="#EA8D71" d="M540.9 221.6c-1.1 2.6-2.4 5.2-3.7 7.6 2.8 3.5 6.9 5.6 11.9 4.7 7.8-1.4 11.8-9.4 12.4-16.6.3-3.4.1-7.1-1.9-10.1-1.7-2.5-4.1-4.3-6.7-5.7-1.2-.1-2.5 0-3.7.2-3.6 12.2-8.4 20-8.3 19.9-.1 0 0 0 0 0zm7.7-7.6c1.6-2.5 4.1-4.4 7.1-4.8.6-.1 1.2.4 1.3 1 .1.6-.4 1.2-1 1.3-2.3.3-4.2 1.7-5.5 3.8-.5.8-.9 1.8-1.3 2.8.7.4 1.7.8 2.7 1.1 1.4.4 2.9.6 4.1.6.6 0 1 0 1.4-.1.4-.1.6-.2.7-.3.5-.4 1.2-.3 1.6.2.4.5.3 1.2-.2 1.6-.5.4-1.1.6-1.7.8-.6.1-1.3.2-1.9.2-1.5 0-3.2-.3-4.8-.7-.9-.3-1.8-.6-2.6-1-.1.8-.2 1.7-.2 2.5 0 2.3.5 4.6 1.5 6.7.3.6 0 1.3-.5 1.6-.6.3-1.3 0-1.6-.5-1.2-2.4-1.7-5.1-1.7-7.7.1-3.5 1-6.6 2.6-9.1z"/><path fill="#E07C65" d="M559.6 207.3c2 3 2.2 6.6 1.9 10.1-.6 7.2-4.5 15.2-12.4 16.6-5 .9-9.2-1.2-11.9-4.7l-1.5 2.7c.1.1.1.2.2.3.2.2.3.5.5.7.1.2.3.4.4.6.2.2.4.5.6.7.2.2.3.4.5.5l.6.6.5.5c.2.2.5.4.7.6.2.1.3.3.5.4l.9.6c.2.1.3.2.5.3.5.3 1 .5 1.5.7 8.6 3.4 18.8-1.8 22.7-11.7 3.9-9.9.2-20.7-8.5-24.1-.5-.2-.9-.3-1.4-.5-.1 0-.3-.1-.5-.1-.4-.1-.8-.2-1.1-.2-.2 0-.3-.1-.5-.1-.3 0-.7-.1-1-.1 2.7 1.3 5.1 3.1 6.8 5.6z"/><path fill="#242340" d="M549.4 231.1c.6-.3.8-1 .5-1.6-1-2.1-1.5-4.4-1.5-6.7 0-.9.1-1.7.2-2.5.8.4 1.7.8 2.6 1 1.6.5 3.3.7 4.8.7.7 0 1.3-.1 1.9-.2.6-.1 1.2-.4 1.7-.8s.6-1.1.2-1.6c-.4-.5-1.1-.6-1.6-.2-.1.1-.3.2-.7.3-.4.1-.9.1-1.4.1-1.2 0-2.7-.2-4.1-.6-1-.3-2-.7-2.7-1.1.3-1 .7-1.9 1.3-2.8 1.3-2.1 3.2-3.4 5.5-3.8.6-.1 1.1-.7 1-1.3-.1-.6-.7-1.1-1.3-1-3.1.4-5.5 2.3-7.1 4.8-1.6 2.5-2.5 5.7-2.5 8.9 0 2.6.6 5.3 1.7 7.7.3.7 1 1 1.5.7z"/><path fill="#E07C65" d="M430.6 282.5s-.5 5 11.8 7c0 0 10.2 2.3 13.5-2.3l.1-.4v-.4c-1.6 1.4-6.7 1.3-9.4.1-1.6-.7-5.2-1.4-6.4-2.3-2.1-1.6-.8-5.6-.5-7.2.4-1.7-.3-3.9 3.1-3.5 4.5.4 10.4.8 15.2 1.2l.3-1.7c-.4 0-.8-.1-1.2-.1-.6 0-1.2-.1-1.8-.1l-3.3-.3c-.5-.1-1.1-.1-1.6-.2-1.6-.2-3.3-.5-4.9-.8-4.3-.8-8.5-1.9-12.5-3.3l-2.6 13.8.2.5zm86.6-125.1c-.1-.2-.2-.5-.2-.7-.5-1.7-1.4-4.4-2.1-7.2-6.1-12.9-22.5-13.9-22.5-13.9l4.4 26.9c6.1-.6 12.2-2 17.9-4.1.9-.3 1.7-.6 2.5-1z"/><path fill="#E07C65" d="M450.6 272.3c.5.1 1.1.1 1.6.2l3.3.3c.6 0 1.2.1 1.8.1 1 .1 2.1.1 3.1.1h1.8c1.1 0 2.2 0 3.3-.1.5 0 1 0 1.5-.1 1.6-.1 3.2-.2 4.7-.4.2 0 .4-.1.6-.1 1.4-.2 2.7-.4 4.1-.6l1.5-.3c1-.2 2.1-.4 3.1-.6.5-.1 1.1-.3 1.6-.4 1-.2 2-.5 3-.8.5-.1 1-.3 1.5-.4 1.1-.3 2.2-.7 3.3-1.1.4-.1.7-.2 1.1-.4 1.5-.5 2.9-1.1 4.4-1.7.2-.1.3-.2.5-.2 1.2-.5 2.5-1.1 3.7-1.7l1.2-.6c1-.5 2-1 2.9-1.6.4-.2.9-.5 1.3-.7 1-.6 1.9-1.1 2.8-1.7.4-.2.8-.5 1.1-.7 1.1-.7 2.2-1.5 3.3-2.3.2-.1.3-.2.5-.4 1.3-.9 2.5-1.9 3.7-2.9l.4-.4c1-.9 2-1.7 3-2.7l.3-.3h-.1c-17 10.5-38.1 15.3-59.5 11-65.9-13.2-75-50.9-66.9-95.1.3-1.6.7-3.2 1-4.8 6.5-2.5 13.5-3.8 20-6.4 7.4-3 13-7.9 15.2-15.8.1-.3.6-.5.8-.1 1.6 6 8.6 9.7 13.7 12.2 7.3 3.5 15.1 6.1 22.9 8 5.8 1.5 11.7 2.8 17.6 3.3 3.7.3 7.4.3 11.1-.1-30.3-14.5-37.3-26.9-37.3-26.9l1.7 16.1c-31.3-11.1-33.7-22.5-33.7-22.5-1 15-16.3 19.2-16.3 19.2-6 2.9-11 6.7-15.2 11.1-15.8 16.1-20.3 38.5-20.4 39.1-3.4-11.6-5.1-21.8-5.5-30.8-2.7.4-5.2 1.2-7.5 2.8-2.9 2.1-4.4 5.4-5.4 8.7-2 6.9-1.2 15.8 5.6 19.9 4.4 2.6 9 2.2 12.8-.1.1 1 .3 2 .5 3-.1.1-.2.1-.3.2.1-.1.2-.1.3-.2 5.3 30 27 55.7 57.2 66.1 4 1.4 8.2 2.5 12.5 3.3 1.9.9 3.6 1.1 5.2 1.3zm-80-86.9c-.4 4.1-2.3 8.2-5.5 11.2-.5.4-1.2.4-1.7-.1-.4-.5-.4-1.2.1-1.7 2.3-2.2 3.9-5.1 4.5-8.1-.5.1-1 .1-1.5.1-1.3 0-2.7-.2-4-.5-1.3-.3-2.5-.7-3.5-1.3-.6-.4-1.2-.8-1.6-1.5-.3-.6-.1-1.3.4-1.6.6-.3 1.3-.1 1.6.4.1.1.3.4.8.7.4.3 1 .5 1.7.7 1.4.4 3.1.7 4.6.7.6 0 1.2-.1 1.7-.1v-.5c0-1.7-.3-3.4-1-4.7-.7-1.4-1.7-2.5-3-3.2-.6-.3-.8-1-.5-1.6.3-.6 1-.8 1.6-.5 1.8 1 3.1 2.5 4 4.2.9 1.7 1.3 3.7 1.3 5.8.1.5.1 1 0 1.6z"/><path fill="#DE6066" d="M473.8 223.7c-3.7 1.1-7.3 1.5-10.7 1.5-7.5 0-14.1-2.1-18.9-4.2-2.4-1.1-4.2-2.1-5.5-2.9-.6-.4-1.1-.7-1.5-.9-.2-.1-.3-.2-.4-.3l-.1-.1c-.9-.6-2.1-.5-2.7.4-.6.9-.5 2.1.4 2.7.1.1 3.1 2.3 8.2 4.6s12.2 4.5 20.5 4.5c3.7 0 7.7-.5 11.8-1.6 1-.3 1.6-1.4 1.4-2.4-.4-.9-1.5-1.6-2.5-1.3z"/><path fill="#E4806D" d="M421 189.9c-9.8-1.3-18.6 2.8-19.6 9.4-1 6.5 6.1 12.9 15.9 14.2 9.8 1.3 18.6-2.9 19.6-9.4s-6.1-12.9-15.9-14.2zm81 16c-9.8-1.3-18.6 2.8-19.6 9.4-1 6.5 6.1 12.9 15.9 14.2 9.8 1.3 18.6-2.9 19.6-9.4s-6.1-12.9-15.9-14.2zm-49.6-4.4c1.2.3 2.4-.4 2.7-1.6.4-1.4 1.6-2.4 3-2.4.2 0 .5 0 .8.1 1.4.3 2.4 1.6 2.4 3 0 .2 0 .5-.1.8-.3 1.2.4 2.4 1.6 2.7 1.2.3 2.4-.4 2.7-1.6.2-.6.2-1.2.2-1.8 0-3.4-2.3-6.5-5.8-7.4-.6-.2-1.2-.2-1.8-.2-3.4 0-6.5 2.3-7.4 5.8-.2 1.1.5 2.3 1.7 2.6z"/><path fill="#63230B" d="M421.5 179.1c-.4 2.1-2.3 3.5-4.3 3.4.4 4.2 2.6 7.5 5.7 8.1 4.2.8 8.5-3.5 9.6-9.5 1.1-6-1.4-11.5-5.5-12.3-3.2-.6-6.4 1.7-8.3 5.5 1.9.8 3.2 2.7 2.8 4.8zm74.6 25.1c3.2.6 6.4-1.7 8.3-5.5-2-.6-3.2-2.6-2.8-4.7.4-2.1 2.3-3.5 4.3-3.4-.4-4.2-2.6-7.5-5.7-8.1-4.2-.8-8.5 3.5-9.6 9.5-1.2 6 1.3 11.4 5.5 12.2z"/><path fill="#FFF" d="M416.6 182.5h.6c2.1.1 3.9-1.3 4.3-3.4.4-2.1-.9-4.1-2.8-4.7-.2-.1-.4-.1-.5-.2-2.3-.4-4.5 1.1-4.9 3.4-.4 2.3 1 4.5 3.3 4.9zm84.9 11.5c-.4 2.1.9 4.1 2.8 4.7.2.1.4.1.5.2 2.3.4 4.5-1.1 4.9-3.3.4-2.3-1.1-4.5-3.3-4.9h-.6c-2-.2-3.9 1.2-4.3 3.3z"/><path fill="#6A3333" d="M375.5 198.7s0-.1 0 0c.1-.6 4.6-23 20.4-39.1 4.2-4.3 9.3-8.2 15.2-11.1 0 0 15.4-4.2 16.3-19.2 0 0 2.4 11.4 33.7 22.5l-1.7-16.1s7.1 12.4 37.3 26.9l-4.4-26.9s16.3 1 22.5 13.9c.7 2.8 1.6 5.5 2.1 7.2.1.2.1.5.2.7 6.9 23.3 30.7 36.5 23.7 64.2v.1s4.8-7.8 8.4-19.9c4.6-15.5 7-38.1-5.4-60.3 15 .2 30.6-12.1 30.6-12.1-15.9-3.1-32-15.3-32-15.3 8-1.4 25-20.7 25-20.7-16.9 8.9-34.3 1.5-34.3 1.5-108.1-40.1-111.5 8.3-111.5 8.3s-54 4.9-51.5 64.2v.3c.3 9 2 19.2 5.4 30.9z"/><path fill="#CC393C" d="M283.1 429.2c3.9 0 7.5 1.4 10.3 3.8h63.9c2.8-2.4 6.4-3.8 10.3-3.8 3.9 0 7.5 1.4 10.3 3.8h14.9l-1.1-8.5h-8.1v-10.9c-1.3-.1-2.1.2-2.1.2H356l-6.8-23.5c-1.9-6.5-8.2-6.1-8.2-6.1h-17.7c3.2 2.2 6.6 5 5.1 7h6c.4 0 5.2-.2 6.7 5l4.5 15.7h-24.5c-1 .7-2.2.6-3.4 0h-3.4c.4 1 .5 1.9 0 2.4-.4.4-1.1.6-2.3.5-2.3-.2-4.3-1.8-5.9-3.8.5 1.5.4 2.8-1.3 3.3h-.1c-1.6.5-3.3-.8-4.8-2.4H267v-8.3s-1.8-12.5 6.6-12.4h17.3c-.6-2.4-1.3-4.7-2.2-7h.3-21.7c-10.3-.1-8.1 15.1-8.1 15.1v20.5h4.5v7.3h-4.5v5.8h13.6c2.7-2.3 6.3-3.7 10.3-3.7zm32.9-13.1h9.5v3.8H316v-3.8zm-21.4 0h9.5v3.8h-9.5v-3.8z"/><path fill="#DDA758" d="M390.1 417.8c-.1-.1-.2-.3-.3-.4-.2-.3-.4-.5-.6-.8-.1-.1-.2-.2-.3-.4l-.6-.6-.3-.3c-.2-.2-.5-.4-.7-.6l-.1-.1c-.3-.2-.6-.4-.9-.5-.1 0-.1-.1-.2-.1-.2-.1-.5-.2-.7-.3-.1 0-.2 0-.2-.1-.2-.1-.4-.1-.6-.1h-.2c-.2 0-.4-.1-.6-.1h-.1v10.9h8.1l-.7-5.3c-.4-.3-.7-.8-1-1.2z"/><path fill="#A90B2C" d="M272.8 433h-13.6v2.3c.2 6.6 4.6 8.8 8.1 9.4 0-4.7 2.2-8.9 5.5-11.7zm84.4 0h-63.9c3.3 2.9 5.5 7.1 5.5 11.8l27.4-.2 20.7-.1h4.7c.3-4.6 2.4-8.7 5.6-11.5zm26.1 11.3 10.9-.1-1.5-11.2h-14.9c3.2 2.7 5.3 6.7 5.5 11.3z"/><path fill="#3B3A67" d="m293.7 399.9-4.6 12h11.1c-1.6-1.8-2.9-4-3.6-5.2-1.2-2.2-2.1-4.5-2.9-6.8zm19.4 8.3.4 1.6c.4.7.8 1.4 1 2.1h.4l.6-1.5c-.8-.7-1.6-1.4-2.4-2.2zm14.4-1.3c-.7.2-1.4.3-2.2.2l-2 4.7h2.2l8.4-20.7H332l-5 11.9c.7 1.5.9 2.8.5 3.9zm-36.1-15.7h-3.1l-8.6 20.7h5l7.4-18.2c-.3-.8-.5-1.7-.7-2.5zm35.5 20.7h18.8l-4.5-15.7c-1.5-5.1-6.2-5-6.7-5h.4l-8 20.7zm-7.3-20.7h-.9c.5 1.2 1.6 2.7 2.9 4.3l1.4-3.5c-1.3-.2-2.5-.5-3.4-.8zm-45.6 0c-8.4-.1-6.6 12.4-6.6 12.4v8.3h3.9l8.4-20.7H274z"/><path fill="#CC393C" d="M310.3 404.9c.7 1.3 2.1 3.1 3.2 4.9l-.4-1.6c-1.2-1.3-2.3-2.6-2.8-3.3zm-7 1c.1 0 .1.1 0 0 .1.1.1 0 0 0-.1-.2-.1-.2 0 0z"/><path fill="#242340" d="M298.6 448c.2-1 .3-1.9.3-3v-.3c-.1-4.7-2.2-8.9-5.5-11.8-2.8-2.4-6.4-3.8-10.3-3.8-3.9 0-7.5 1.4-10.3 3.8-3.3 2.8-5.4 7-5.5 11.7v.4c0 7.7 5.5 14.1 12.8 15.6 1 .2 2 .3 3 .3 7.7 0 14.2-5.6 15.5-12.9zm-24.1-3c0-4.7 3.8-8.5 8.5-8.5s8.5 3.8 8.5 8.5-3.8 8.5-8.5 8.5c-4.6 0-8.5-3.8-8.5-8.5z"/><circle fill="#8EB2C4" cx="283.1" cy="445" r="8.5"/><path fill="#242340" d="M383.3 444.3c-.2-4.5-2.3-8.5-5.5-11.3-2.8-2.4-6.4-3.8-10.3-3.8-3.9 0-7.5 1.4-10.3 3.8-3.3 2.8-5.4 6.9-5.5 11.5v.6c0 8.8 7.1 15.9 15.9 15.9 5.7 0 10.7-3 13.5-7.5 1.5-2.4 2.4-5.3 2.4-8.4-.1-.3-.1-.6-.2-.8zm-15.8 9.2c-4.7 0-8.5-3.8-8.5-8.5s3.8-8.5 8.5-8.5 8.5 3.8 8.5 8.5-3.8 8.5-8.5 8.5z"/><circle fill="#8EB2C4" cx="367.5" cy="445" r="8.5"/><path fill="#FFF" d="m279.6 391.2-8.3 20.7h8.3l8.6-20.7zm12.4 2.5-7.4 18.2h4.5l4.6-12c-.6-2.1-1.2-4.1-1.7-6.2zm26.6 10c2.2 2.7 4.5 5.7 3.9 6.7-.3.7-.7 1.2-1.2 1.5h2l2-4.7c-2.3-.3-4.7-1.7-6.7-3.5zM323 392l-1.4 3.5c1.9 2.4 4.3 5.1 5.4 7.5l4.9-11.8h-3.4c-.9 1.2-3.3 1.1-5.5.8zm-8.1 19.9h3c-.8-.3-1.6-.9-2.4-1.5l-.6 1.5zm12 0 8-20.7h-1.1l-8.4 20.7z"/><path fill="#A90B2C" d="M294.6 416.1h9.5v3.8h-9.5zm21.4 0h9.5v3.8H316z"/><path fill="#E95A0C" d="M263.6 419.8H259v7.4h4.6z"/></svg>