<?xml version="1.0" encoding="utf-8"?>
<!-- Generator: Adobe Illustrator 22.0.1, SVG Export Plug-In . SVG Version: 6.00 Build 0)  -->
<svg version="1.1" id="Layer_1" xmlns="http://www.w3.org/2000/svg" xmlns:xlink="http://www.w3.org/1999/xlink" x="0px" y="0px"
	 viewBox="0 0 692 540" enable-background="new 0 0 692 540" xml:space="preserve">
<ellipse fill="#FDE7D7" cx="359" cy="483.1" rx="296.5" ry="47.6"/>
<g>
	<g>
		<path fill="#FFFFFF" d="M249.2,127.3c-8.7,0-16.9,2.1-24.1,5.9c-10.6-26.4-36.4-45.1-66.5-45.1c-26.4,0-49.5,14.3-61.9,35.6
			c-8.5-4.9-18.2-7.7-28.7-7.7c-31.8,0-57.7,25.8-57.7,57.7H301C298.2,147.7,276.1,127.3,249.2,127.3z"/>
	</g>
	<g>
		<path fill="#FFFFFF" d="M641.2,265.5c-6.5,0-12.6,1.6-18,4.4c-7.9-19.7-27.2-33.7-49.8-33.7c-19.8,0-37,10.7-46.3,26.7
			c-6.3-3.6-13.6-5.7-21.5-5.7c-23.8,0-43.1,19.3-43.1,43.1H680C677.9,280.8,661.3,265.5,641.2,265.5z"/>
	</g>
</g>
<g>
	<path fill="#FEC667" d="M301,401.6c0-0.2,0-0.4-0.1-0.6c0-0.4-0.1-0.8-0.1-1.2c0-0.3-0.1-0.5-0.1-0.7c-0.1-0.3-0.1-0.7-0.2-1
		c0-0.3-0.1-0.5-0.2-0.8c-0.1-0.3-0.1-0.6-0.2-0.9c-0.1-0.3-0.1-0.5-0.2-0.8c-0.1-0.3-0.2-0.5-0.2-0.8c-0.1-0.3-0.2-0.6-0.3-0.8
		c-0.1-0.2-0.2-0.4-0.3-0.7c-0.1-0.3-0.2-0.6-0.4-0.9c-0.1-0.2-0.2-0.3-0.2-0.5c-0.2-0.3-0.3-0.6-0.5-0.9c0-0.1-0.1-0.1-0.1-0.2
		c-0.8-1.4-1.7-2.6-2.7-3.6c-0.5-0.5-0.9-0.9-1.4-1.3l0,0c-0.3-0.2-0.6-0.4-1-0.6c0,0,0,0-0.1,0c-0.3-0.2-0.7-0.3-1-0.5c0,0,0,0,0,0
		c-0.3-0.1-0.7-0.3-1-0.4c-0.5-0.1-1.1-0.2-1.6-0.3c-0.1,0-0.2,0-0.4,0c-0.7,0.1-1.3,0.3-1.9,0.5c0,0-0.1,0-0.1,0.1
		c-0.2,0.1-0.3,0.1-0.5,0.2c-0.1,0-0.2,0.1-0.3,0.1c-0.1,0.1-0.3,0.1-0.4,0.2c-0.1,0.1-0.2,0.1-0.3,0.2c-0.1,0.1-0.2,0.1-0.3,0.2
		c-0.1,0.1-0.3,0.2-0.4,0.3c-0.1,0.1-0.2,0.1-0.3,0.2c-0.2,0.2-0.4,0.4-0.6,0.5c-0.8,0.7-1.5,1.6-2.2,2.6c-1.5,1.4-3.5,2.8-5.6,2.5
		c-1.4,0.2-2.9-0.3-4.3-1.9c-1.3-20.4-4.7-34.3-4.7-34.3C262.9,332.4,239,331,239,331h-28.2c-4.6-3.3-2.4-7.1-0.1-9.5
		c3.2-2.2,5.2-5.2,5.2-8.4c0-6.8-8.7-12.3-19.4-12.3c-0.8,0-1.5,0-2.3,0.1c-2.4,0.2-4.6,0.6-6.7,1.3c0,0-0.1,0-0.1,0
		c-0.4,0.1-0.8,0.3-1.2,0.4c-0.1,0-0.2,0.1-0.4,0.1c-0.3,0.1-0.7,0.3-1,0.5c-0.2,0.1-0.3,0.1-0.5,0.2c-0.3,0.1-0.6,0.3-0.9,0.5
		c-0.2,0.1-0.3,0.2-0.5,0.3c-0.3,0.2-0.5,0.3-0.7,0.5c-0.2,0.1-0.3,0.2-0.5,0.4c-0.2,0.2-0.4,0.3-0.6,0.5l-0.5,0.4
		c-0.2,0.2-0.4,0.3-0.5,0.5c-0.2,0.2-0.3,0.3-0.5,0.5c-0.2,0.2-0.3,0.3-0.4,0.5c-0.1,0.2-0.3,0.4-0.4,0.5c-0.1,0.2-0.2,0.3-0.4,0.5
		c-0.1,0.2-0.2,0.4-0.3,0.6c-0.1,0.2-0.2,0.3-0.3,0.5c-0.1,0.2-0.2,0.4-0.3,0.7l-0.2,0.5c-0.1,0.3-0.1,0.5-0.2,0.8
		c0,0.1-0.1,0.3-0.1,0.4c-0.1,0.4-0.1,0.8-0.1,1.2c0,2.3,1,4.4,2.6,6.2c0.7,0.8,1.6,1.5,2.6,2.2c2.2,2.3,4.4,6,0.3,9.2
		c-0.1,0.1-0.2,0.2-0.4,0.3h-29c0,0-23.9,1.4-27.7,24.6c0,0-2.9,13.9-4,34.1c3.2,3.9,6.8,1.7,9-0.5c0.7-1,1.4-1.9,2.2-2.6
		c1.8-1.7,3.9-2.6,6.2-2.6c6.8,0,12.4,8.7,12.4,19.4c0,10.7-5.5,19.4-12.4,19.4c-3.3,0-6.2-2-8.4-5.2c-2.3-2.2-6-4.4-9.2-0.3
		c0.5,10.9,1.7,22.4,4.2,34c4.8,23,27.7,24.6,27.7,24.6h29c4.6-3.3,2.4-7.1,0.1-9.5c-1-0.7-1.9-1.4-2.6-2.2
		c-1.7-1.8-2.6-3.9-2.6-6.2c0-6.8,8.7-12.3,19.4-12.3s19.4,5.5,19.4,12.3c0,3.3-2,6.2-5.2,8.4c-2.3,2.4-4.5,6.2,0.1,9.5H239
		c0,0,22.1-1.8,27.7-24.6c2.9-11.8,4.3-23.5,4.9-34.5c1.4-1.5,2.8-1.9,4.2-1.7c2.1-0.3,4.2,1.1,5.6,2.5c0.3,0.4,0.5,0.7,0.8,1.1
		c0.1,0.1,0.2,0.3,0.3,0.4c0.2,0.2,0.3,0.4,0.5,0.6c0.1,0.2,0.3,0.3,0.4,0.4c0.2,0.1,0.3,0.3,0.5,0.4l0.5,0.4l0.4,0.3
		c0.2,0.1,0.4,0.3,0.6,0.4c0.1,0.1,0.2,0.1,0.4,0.2c0.2,0.1,0.5,0.2,0.7,0.3c0.1,0,0.2,0.1,0.3,0.1c0.3,0.1,0.5,0.2,0.8,0.3l0.2,0.1
		c0.3,0.1,0.6,0.1,0.9,0.2c0.2,0,0.3,0,0.5,0c6.6-0.4,11.8-8.9,11.8-19.4C301,402.8,301,402.2,301,401.6L301,401.6z"/>
	<path fill="#F9D7A5" d="M240.5,340.9c-8.9-1.8-22.3-3.2-30.9-0.5c-3.1,1-9.2,3.6-6.9,7.9c1.7,3.1,10,2.6,12.9,3.1
		c8.7,1.3,17.6,5.4,22.6,13c4.7,7.2,5.1,16.6,6.3,24.9c0.9,6.3,6,21.6,12.6,9.1c3.4-6.4,2.9-14.8,2.9-22.1
		C259.1,340.5,240.5,340.9,240.5,340.9L240.5,340.9z"/>
	<path fill="#9453A1" d="M271.7,272c-1.2-1.5-2.5-2.2-3.8-2.2c-1.9,0.1-3.7,1.3-5,2.6c-2.2,3.2-5.2,5.2-8.4,5.2c-0.1,0-0.1,0-0.2,0
		c-0.1,0-0.1,0-0.2,0c-6.8,0-12.4-8.7-12.4-19.4c0-10.7,5.5-19.4,12.4-19.4c0.1,0,0.2,0,0.2,0c0.1,0,0.1,0,0.2,0
		c2.3,0,4.4,1,6.2,2.6c0.8,0.7,1.5,1.6,2.2,2.6c1.3,1.3,3.1,2.5,5,2.6c1.2-0.1,2.5-0.7,3.7-2.1c-1.1-20.3-4-34.1-4-34.1
		c-0.1-0.7-0.3-1.5-0.4-2.2c0-0.2-0.1-0.4-0.2-0.6c-0.1-0.5-0.2-1-0.4-1.4c-0.1-0.2-0.2-0.5-0.2-0.7c-0.1-0.4-0.3-0.8-0.4-1.2
		c-0.1-0.2-0.2-0.5-0.3-0.7c-0.2-0.4-0.3-0.7-0.5-1.1c-0.1-0.2-0.2-0.4-0.3-0.7c-0.2-0.3-0.3-0.7-0.5-1c-0.1-0.2-0.2-0.4-0.4-0.6
		c-0.2-0.3-0.4-0.6-0.6-0.9c-0.1-0.2-0.3-0.4-0.4-0.6c-0.2-0.3-0.4-0.6-0.6-0.9c-0.1-0.2-0.3-0.3-0.4-0.5l-0.7-0.8
		c-0.1-0.2-0.3-0.3-0.4-0.5c-0.2-0.3-0.5-0.5-0.7-0.8c-0.1-0.1-0.3-0.3-0.4-0.4c-0.3-0.3-0.5-0.5-0.8-0.8c-0.1-0.1-0.2-0.2-0.4-0.3
		c-0.3-0.2-0.6-0.5-0.8-0.7c-0.1-0.1-0.2-0.2-0.3-0.3c-0.3-0.2-0.6-0.5-0.9-0.7c-0.1-0.1-0.2-0.1-0.3-0.2c-0.3-0.2-0.6-0.5-1-0.7
		c-0.1-0.1-0.2-0.1-0.2-0.2c-0.3-0.2-0.7-0.4-1-0.6c-0.1,0-0.1-0.1-0.2-0.1c-0.4-0.2-0.8-0.4-1.1-0.6c0,0-0.1,0-0.1-0.1
		c-0.4-0.2-0.8-0.4-1.2-0.6c-6.1-2.9-11.6-3.2-11.6-3.2h-29c-4.6-3.3-2.4-7.1-0.1-9.5c1-0.7,1.9-1.4,2.6-2.2
		c1.7-1.8,2.6-3.9,2.6-6.2c0-6.6-8.2-12-18.5-12.3c-0.3,0-0.6,0-1,0c-10.7,0-19.4,5.5-19.4,12.3c0,3.3,2,6.2,5.2,8.4
		c2.3,2.4,4.5,6.2-0.1,9.5h-28.2c0,0-23.9,1.4-27.7,24.6c0,0-3.4,13.9-4.7,34.3c-3.2,3.6-6.7,1.5-8.9-0.7c-0.7-1-1.4-1.9-2.2-2.6
		c-1.8-1.7-3.9-2.6-6.2-2.6c-6.8,0-12.3,8.7-12.3,19.4c0,10.7,5.5,19.4,12.3,19.4c3.3,0,6.2-2,8.4-5.2c2.2-2.1,5.6-4.2,8.7-0.9
		c0.6,11,2,22.8,4.9,34.5c5.6,22.9,27.7,24.6,27.7,24.6h28c4.1-3.2,1.9-6.9-0.3-9.2c-1-0.7-1.9-1.4-2.6-2.2
		c-1.7-1.8-2.6-3.9-2.6-6.2c0-0.4,0-0.8,0.1-1.2c0-0.1,0.1-0.3,0.1-0.4c0.1-0.3,0.1-0.5,0.2-0.8l0.2-0.5c0.1-0.2,0.2-0.4,0.3-0.7
		c0.1-0.2,0.2-0.3,0.3-0.5c0.1-0.2,0.2-0.4,0.3-0.6c0.1-0.2,0.2-0.3,0.4-0.5c0.1-0.2,0.3-0.4,0.4-0.5c0.1-0.2,0.3-0.3,0.4-0.5
		s0.3-0.3,0.5-0.5c0.2-0.2,0.4-0.3,0.5-0.5l0.5-0.4c0.2-0.2,0.4-0.3,0.6-0.5c0.2-0.1,0.3-0.2,0.5-0.4c0.2-0.2,0.5-0.3,0.7-0.5
		c0.2-0.1,0.3-0.2,0.5-0.3c0.3-0.2,0.6-0.3,0.8-0.5c3.4-1.9,7.8-3,12.6-3c10.7,0,19.4,5.5,19.4,12.3c0,2.3-1,4.4-2.6,6.2
		c-0.7,0.8-1.6,1.5-2.6,2.2c-2.3,2.4-4.5,6.2,0.1,9.5h29c0,0,22.9-1.6,27.7-24.6c2.4-11.3,3.6-22.7,4.1-33.4
		C271.7,272.4,271.7,272.2,271.7,272L271.7,272z"/>
	<path fill="#CC62A5" d="M222.7,206.7c8.6,6.8-1.9,12.3-7,16.1c-7.2,5.4-6.9,16.4-6.5,24.8c0.3,5.4,1.5,23.7,11.5,19.5
		c6.1-2.6,2.2-16.8,3-22.5c1.1-8.2,4.9-15.3,12.1-19.8c6.2-3.9,16.7-6.1,18.2-14.1c2.9-16.3-10.5-16.6-24-17.7
		c-6.1-0.5-17.6-2.4-21.2,4.1C203.9,205.8,218.7,203.5,222.7,206.7z"/>
	<path fill="#008CD1" d="M438.6,384c-0.3,0-0.6,0-0.8,0c-0.2,0-0.5,0.1-0.7,0.1c-1.7,0.3-3.2,1.2-4.6,2.5c-0.8,0.7-1.5,1.6-2.2,2.6
		c-2.2,2.1-5.7,4.2-8.9,0.7c-1.3-20.4-4.7-34.3-4.7-34.3c-3.8-23.2-27.7-24.6-27.7-24.6h-28.2c-1.2-0.9-2-1.8-2.4-2.7
		c-1-2.5,0.6-5,2.3-6.7c3.2-2.2,5.2-5.2,5.2-8.4c0-0.4,0-0.8-0.1-1.2c0-0.1-0.1-0.2-0.1-0.4c-0.1-0.3-0.1-0.5-0.2-0.8
		c0-0.1-0.1-0.3-0.1-0.4c-0.1-0.2-0.2-0.5-0.3-0.7c-0.1-0.1-0.1-0.3-0.2-0.4c-0.1-0.2-0.2-0.4-0.4-0.7c-0.1-0.1-0.2-0.3-0.2-0.4
		c-0.2-0.3-0.4-0.5-0.6-0.8c-0.2-0.2-0.3-0.4-0.5-0.6c-0.2-0.2-0.3-0.3-0.5-0.5c-0.2-0.2-0.4-0.3-0.5-0.5c-0.1-0.1-0.3-0.2-0.4-0.4
		c-0.2-0.2-0.4-0.3-0.7-0.5c-0.1-0.1-0.3-0.2-0.4-0.3c-0.3-0.2-0.5-0.3-0.8-0.5l-0.3-0.2c-1-0.6-2.2-1.1-3.4-1.6
		c-0.4-0.2-0.9-0.3-1.3-0.5c-0.1,0-0.1,0-0.2-0.1c-0.4-0.1-0.9-0.2-1.3-0.3c-0.1,0-0.1,0-0.2,0c-0.5-0.1-0.9-0.2-1.4-0.3
		c0,0,0,0,0.1,0c-1.7-0.3-3.5-0.5-5.4-0.5c-10.7,0-19.4,5.5-19.4,12.3c0,1.1,0.2,2.2,0.7,3.2c0.5,1.1,1.1,2,2,3
		c0.7,0.8,1.6,1.5,2.6,2.2c0.8,0.8,1.6,1.8,2.1,2.9c0.9,2,0.8,4.4-2.2,6.6h-29c0,0-23.9,1.4-27.7,24.6c0,0-2.9,13.9-4,34.1
		c1.1,1.3,2.3,1.9,3.4,2.1c2.1,0.3,4.2-1.1,5.6-2.5c0.7-1,1.4-1.9,2.2-2.6c0.2-0.2,0.4-0.4,0.6-0.5c0.1-0.1,0.2-0.1,0.3-0.2
		c0.1-0.1,0.3-0.2,0.4-0.3c0.1-0.1,0.2-0.1,0.3-0.2c0.1-0.1,0.2-0.1,0.3-0.2c0.1-0.1,0.3-0.1,0.4-0.2c0.1,0,0.2-0.1,0.3-0.1
		c0.2-0.1,0.3-0.1,0.5-0.2c0,0,0.1,0,0.1-0.1c0.6-0.2,1.3-0.4,1.9-0.5c0.1,0,0.2,0,0.4,0c0.2,0,0.4,0,0.7,0
		c6.8,0,12.4,8.7,12.4,19.4c0,10.7-5.5,19.4-12.4,19.4c-0.2,0-0.4,0-0.6,0c-0.2,0-0.3,0-0.5,0c-0.3,0-0.6-0.1-0.9-0.2l-0.2-0.1
		c-0.3-0.1-0.5-0.2-0.8-0.3c-0.1,0-0.2-0.1-0.3-0.1c-0.2-0.1-0.5-0.2-0.7-0.3c-0.1-0.1-0.3-0.1-0.4-0.2c-0.2-0.1-0.4-0.2-0.6-0.4
		l-0.4-0.3l-0.5-0.4c-0.2-0.1-0.3-0.3-0.5-0.4s-0.3-0.3-0.4-0.4c-0.2-0.2-0.4-0.4-0.5-0.6c-0.1-0.1-0.2-0.3-0.3-0.4
		c-0.3-0.3-0.6-0.7-0.8-1.1c-1.5-1.4-3.5-2.8-5.6-2.5c-1.2,0.1-2.4,0.8-3.6,2.3c0.5,10.9,1.7,22.4,4.2,34
		c4.8,23,27.7,24.6,27.7,24.6h29c4.6-3.3,2.4-7.1,0.1-9.5c-1-0.7-1.9-1.4-2.6-2.2c-1.7-1.8-2.6-3.9-2.6-6.2
		c0-6.8,8.7-12.3,19.4-12.3s19.4,5.5,19.4,12.3c0,3.3-2,6.2-5.2,8.4c-2.3,2.4-4.5,6.2,0.1,9.5h28.2c0,0,22.1-1.8,27.7-24.6
		c2.9-11.8,4.3-23.5,4.9-34.5c3.1-3.3,6.5-1.2,8.7,0.9c2.2,3.2,5.2,5.2,8.4,5.2c6.8,0,12.3-8.7,12.3-19.4
		C451,392.7,445.5,384,438.6,384L438.6,384z"/>
	<path fill="#00AAE6" d="M352.4,362.7c8.2,2.4,18.3,3.8,26,8c8.3,4.5,9,14.4,11,22.6c1.1,4.5,3.6,10.4,7.5,4
		c2.3-3.8,1.3-10.6,1.5-15c0.2-4.5,0.6-9.1-0.4-13.6c-3.9-17.3-27.1-17.5-41-17.4c-3.1,0-9.5-0.2-11.4,3.1
		C343,359.2,348.9,361.7,352.4,362.7z"/>
	<path fill="#3C439B" d="M412.2,272.3c-2.2,3.2-5.2,5.2-8.4,5.2c-6.8,0-12.3-8.7-12.3-19.4c0-10.7,5.5-19.4,12.3-19.4
		c2.3,0,4.4,1,6.2,2.6c0.8,0.7,1.5,1.6,2.2,2.6c2.3,2.2,5.9,4.3,9,0.5c-1.1-20.3-4-34.1-4-34.1c-0.1-0.7-0.3-1.5-0.4-2.2
		c-0.1-0.2-0.1-0.4-0.2-0.6c-0.1-0.5-0.2-1-0.4-1.4c-0.1-0.2-0.2-0.5-0.2-0.7c-0.1-0.4-0.3-0.8-0.4-1.2c-0.1-0.2-0.2-0.5-0.3-0.7
		c-0.1-0.4-0.3-0.7-0.5-1.1c-0.1-0.2-0.2-0.5-0.3-0.7c-0.2-0.3-0.3-0.7-0.5-1c-0.1-0.2-0.2-0.4-0.4-0.6c-0.2-0.3-0.4-0.6-0.5-0.9
		c-0.1-0.2-0.3-0.4-0.4-0.6c-0.2-0.3-0.4-0.6-0.6-0.9c-0.1-0.2-0.3-0.4-0.4-0.5c-0.2-0.3-0.4-0.6-0.7-0.8c-0.1-0.2-0.3-0.3-0.4-0.5
		c-0.2-0.3-0.5-0.5-0.7-0.8c-0.1-0.1-0.3-0.3-0.4-0.4c-0.3-0.3-0.5-0.5-0.8-0.7c-0.1-0.1-0.3-0.2-0.4-0.3c-0.3-0.2-0.5-0.5-0.8-0.7
		c-0.1-0.1-0.2-0.2-0.4-0.3c-0.3-0.2-0.6-0.5-0.9-0.7c-0.1-0.1-0.2-0.2-0.3-0.2l-1-0.7c-0.1-0.1-0.2-0.1-0.3-0.2
		c-0.3-0.2-0.7-0.4-1-0.6l-0.2-0.1c-0.4-0.2-0.7-0.4-1.1-0.6l-0.1-0.1l-1.2-0.6h0c-6.1-2.9-11.7-3.2-11.7-3.2h-28.9
		c-4.6-3.3-2.4-7.1-0.1-9.5c1-0.7,1.9-1.4,2.6-2.2c1.7-1.8,2.6-3.9,2.6-6.2c0-4.1-3.1-7.7-7.9-9.9c-1.5-0.7-3.2-1.3-5-1.7
		c-0.2,0-0.3-0.1-0.4-0.1c-0.3-0.1-0.6-0.1-0.9-0.2c-0.3,0-0.5-0.1-0.8-0.1c-0.3,0-0.5-0.1-0.8-0.1c-0.4,0-0.7-0.1-1.1-0.1
		c-0.2,0-0.4,0-0.6-0.1c-0.6,0-1.2-0.1-1.8-0.1c-10.7,0-19.4,5.5-19.4,12.3c0,3.3,2,6.2,5.2,8.4c2.3,2.4,4.5,6.2-0.1,9.5h-28.2
		c0,0-23.9,1.4-27.7,24.6c0,0-3.4,13.9-4.7,34.3c-1.3,1.4-2.6,2-3.9,1.9c-1.9-0.1-3.7-1.3-5-2.6c-0.7-1-1.4-1.9-2.2-2.6
		c-1.8-1.7-3.9-2.6-6.2-2.6c-0.1,0-0.1,0-0.2,0c-6.7,0.1-12.2,8.8-12.2,19.4c0,10.6,5.4,19.2,12.2,19.4c0.1,0,0.1,0,0.2,0
		c3.3,0,6.2-2,8.4-5.2c1.3-1.3,3.1-2.5,5-2.6c1.2,0,2.5,0.4,3.7,1.7c0,0.2,0,0.3,0,0.5c0,0.2,0,0.4,0,0.6c0.6,10.7,2.1,22,4.8,33.4
		c5.6,22.9,27.7,24.6,27.7,24.6H332c2.9-2,3.1-4.3,2.3-6.3c-0.5-1.1-1.3-2.1-2.1-2.9c-1-0.7-1.9-1.4-2.6-2.2c-0.8-0.9-1.5-1.9-2-3
		c-0.5-1.1-0.8-2.3-0.8-3.5c0-6.8,8.7-12.3,19.4-12.3c8.8,0,16.3,3.8,18.6,8.9c0.1,0.1,0.1,0.2,0.1,0.3c0.1,0.2,0.2,0.5,0.3,0.7
		c0.1,0.1,0.1,0.3,0.1,0.4c0.1,0.3,0.1,0.5,0.2,0.8c0,0.1,0.1,0.2,0.1,0.4c0.1,0.4,0.1,0.8,0.1,1.2c0,3.3-2,6.2-5.2,8.4
		c-1.7,1.7-3.3,4.2-2.3,6.7c0.4,0.8,1.1,1.6,2.2,2.4h29c0,0,22.9-1.6,27.7-24.6c2.4-11.5,3.7-23.1,4.2-34
		C418.2,267.9,414.5,270.1,412.2,272.3L412.2,272.3z"/>
	<path fill="#484FA1" d="M366.5,216.6c3.4,7.7-3.6,15.4-5.7,22.5c-2.2,7.5-3.5,18.5-0.3,25.9c2.3,5.3,7.3,6.1,10.3,0.5
		c1.8-3.4,1.8-9.1,1.6-13c-0.4-7.9-0.4-17.2,5.4-23.5c5-5.6,15.4-4.3,19.2-11.7c4.2-8.2,7.4-22.9-2.9-21.8
		c-4.3,0.5-12.2-0.7-23.5-0.5c-6.5,0.1-13.4-0.6-18.4,4.2C342.9,208.2,363.4,209.9,366.5,216.6z"/>
</g>
<g>
	<path fill="#EA8D71" d="M578.4,449c-4.1-6-8.6-14-15.7-17c-0.2-0.4-0.4-0.7-0.7-1.1c0,0-18.9-40.8-47.3-83.8
		c3-3.7,5.4-7.3,6.5-10.5L473.4,290c-0.3-0.1-0.7-0.1-1-0.2c-5.3-5.5-10.9-7.9-15.4-9l1.5-7.9c0.6,0,1.3,0,1.9,0c0.6,0,1.2,0,1.8,0
		c1.1,0,2.2,0,3.3-0.1c0.5,0,1,0,1.5-0.1c1.6-0.1,3.2-0.2,4.7-0.4c0.2,0,0.4-0.1,0.6-0.1c1.4-0.2,2.7-0.4,4.1-0.6
		c0.5-0.1,1-0.2,1.5-0.3c1-0.2,2.1-0.4,3.1-0.6c0.5-0.1,1.1-0.3,1.6-0.4c1-0.2,2-0.5,3-0.8c0.5-0.1,1-0.3,1.5-0.4
		c1.1-0.3,2.2-0.7,3.3-1.1c0.4-0.1,0.7-0.2,1.1-0.4c1.5-0.5,2.9-1.1,4.4-1.7c0.2-0.1,0.3-0.2,0.5-0.2c1.2-0.5,2.5-1.1,3.7-1.7
		c0.4-0.2,0.8-0.4,1.2-0.6c1-0.5,2-1,2.9-1.6c0.4-0.2,0.9-0.5,1.3-0.7c1-0.6,1.9-1.1,2.8-1.7c0.4-0.2,0.8-0.5,1.1-0.7
		c1.1-0.7,2.2-1.5,3.3-2.3c0.2-0.1,0.3-0.2,0.5-0.4c1.3-0.9,2.5-1.9,3.7-2.9c0.1-0.1,0.3-0.3,0.4-0.4c1-0.9,2-1.7,3-2.7
		c0.1-0.1,0.2-0.2,0.3-0.3c0,0,0,0-0.1,0c5.7-5.3,10.7-11.4,14.8-18.1c0.1,0.1,0.1,0.2,0.2,0.3c0.2,0.2,0.3,0.5,0.5,0.7
		c0.1,0.2,0.3,0.4,0.4,0.6c0.2,0.2,0.4,0.5,0.6,0.7c0.2,0.2,0.3,0.4,0.5,0.5c0.2,0.2,0.4,0.4,0.6,0.6c0.2,0.2,0.3,0.3,0.5,0.5
		c0.2,0.2,0.5,0.4,0.7,0.6c0.2,0.1,0.3,0.3,0.5,0.4c0.3,0.2,0.6,0.4,0.9,0.6c0.2,0.1,0.3,0.2,0.5,0.3c0.5,0.3,1,0.5,1.5,0.7
		c8.6,3.4,18.8-1.8,22.7-11.7c3.9-9.9,0.2-20.7-8.5-24.1c-0.5-0.2-0.9-0.3-1.4-0.5c-0.1,0-0.3-0.1-0.5-0.1c-0.4-0.1-0.8-0.2-1.1-0.2
		c-0.2,0-0.3-0.1-0.5-0.1c-0.3,0-0.7-0.1-1-0.1c0,0,0,0,0,0c-1.2-0.1-2.5,0-3.7,0.2c4.6-15.5,7-38.1-5.4-60.3
		c15,0.2,30.6-12.1,30.6-12.1c-15.9-3.1-32-15.3-32-15.3c8-1.4,25-20.7,25-20.7c-16.9,8.9-34.3,1.5-34.3,1.5
		c-108.1-40.1-111.5,8.3-111.5,8.3s-54,4.9-51.5,64.2c0,0-0.1,0-0.1,0c-0.2,0-0.3-0.1-0.5-0.1c-0.4-0.1-0.8-0.1-1.2-0.2
		c-0.2,0-0.3,0-0.5,0c-0.5,0-1-0.1-1.5-0.1c-9.3,0.1-16.7,8.8-16.6,19.5c0.1,10.6,7.7,19.2,17,19.1c0.6,0,1.1,0,1.6-0.1
		c0.2,0,0.3-0.1,0.5-0.1c0.4-0.1,0.7-0.1,1.1-0.2c0.2,0,0.4-0.1,0.6-0.2c0.3-0.1,0.6-0.2,0.9-0.3c0.2-0.1,0.4-0.2,0.6-0.2
		c0.3-0.1,0.6-0.2,0.9-0.4c0.2-0.1,0.4-0.2,0.6-0.3c0.3-0.1,0.5-0.3,0.8-0.4c0.2-0.1,0.4-0.3,0.6-0.4c0.2-0.2,0.5-0.3,0.7-0.5
		c0.1-0.1,0.2-0.1,0.3-0.2c5.3,30,27,55.7,57.2,66.1l-1.7,9c-7.2-0.3-15.9,0.3-24.3,3.7c-0.1,0-0.2-0.1-0.3-0.1L335.5,301
		c-0.3,2.8-0.2,6,0.2,9.3c-7.3,2.5-15,6.9-18.4,9.1c-14.7,9.5-30.5,23.4-33,41.8c-0.9,6.8-0.6,16.1,3.6,21.9
		c0.3,0.5,0.7,0.8,1.1,1.1h-21.7c-10.3-0.1-8.1,15.1-8.1,15.1v20.5H259v7.3h0.2v5.8v2.3c0.2,6.6,4.6,8.8,8.1,9.4c0,0.1,0,0.2,0,0.4
		c0,7.7,5.5,14.1,12.8,15.6c-2.3,4.3-3,10-0.3,17.3c0,0,2.1,7.4,10,12.1c3.9,3.7,9.8,6.7,18.7,7.9l119.2,16.3l0,0
		c4,7.3,24.7,4.6,24.7,4.6l28.4,5.2c10.2,1.7,15.9-23.7,15.9-23.7c0.7-7.2-8.2-6.7-8.2-6.7h-29.7c0,0,0.9-0.1,2.4-0.3l84.1,0.8
		c5,0,9.2-0.6,12.6-1.7c16.5-2.1,20.3-15.5,20.3-15.5c1-2.7,1.5-5.2,1.7-7.5c1.8,1.8,3.9,3.4,6.2,3.4
		C597.9,473.1,581.6,453.8,578.4,449z M298.9,444.7l27.4-0.2l-27.2,3.3c0,0-0.2,0-0.5,0.1c0.2-1,0.3-1.9,0.3-3
		C298.9,444.9,298.9,444.8,298.9,444.7z M548,441.2c0,0.1,0,0.3,0,0.4c-0.9,0.9-1.5,2.3-1.7,4l-48.6-5.5l-6.7-61
		C504.4,397,525.3,422.6,548,441.2z M307.7,370.1c0.5-3.4,3.7-7.4,6.1-9.8c5.8-5.8,13.6-8.5,20.7-12.2c3.1-1.6,6.6-3.2,9.9-5.1
		c1.5,4.1,2.7,6.7,2.7,6.7c9.7-1.8,18.4-3.4,25.9-4.8c-2.9,17.2-7.5,45.2-10.8,69H356l-6.8-23.5c-1.9-6.5-8.2-6.1-8.2-6.1h-17.7
		c-1.8-1.2-3.5-2.2-4.3-2.7c-3.2-2-6.6-3.4-10.2-3.8C308.3,375.2,307.3,372.8,307.7,370.1z"/>
	<g>
		<path fill="#2E4797" d="M575.5,465c-1.2-1-2.5-1.9-3.8-2.8c1.2,1.8,2.2,4,2.9,6.4c0,0,1.2,18.2-16.8,23.8
			c16.5-2.1,20.3-15.5,20.3-15.5c1-2.7,1.5-5.2,1.7-7.5C578.3,468,576.9,466.2,575.5,465z"/>
		<path fill="#2E4797" d="M283.1,468.4c7.9-16.9,26.1-14.4,36.8-11.1c5,1.5,8.4,3.2,8.4,3.2l29.9,9.8c-0.1-0.8-0.1-1.3-0.1-1.3
			c0.4-7.3,9.1-5.4,9.1-5.4l55,8.3l4.2,0c0,0,0.5-0.2,1.1,0.3l67.7-11.7l36-6.2c0,0,7-2.3,15.4-2.6c-0.4-2.2-0.5-4.4-0.3-6.2
			l-48.6-5.5l0.7,6.6c-1,0.5-2,1-3,1.5c-39.4,18.9-87,12-114.5,5.3c-2.8,4.5-7.8,7.5-13.5,7.5c-8.8,0-15.9-7.1-15.9-15.9
			c0-0.2,0-0.4,0-0.6l-4.7,0l-20.7,0.1l-27.2,3.3c0,0-0.2,0-0.5,0.1c-1.4,7.3-7.8,12.9-15.6,12.9c-1,0-2.1-0.1-3-0.3
			c-2.3,4.3-3,10-0.3,17.3c0,0,2.1,7.4,10,12.1C280.3,481.1,283.1,468.4,283.1,468.4z"/>
		<path fill="#2E4797" d="M427.9,493.1l-0.3,0l0.1,0C427.8,493.1,427.9,493.1,427.9,493.1z"/>
		<path fill="#E07C65" d="M574.7,468.7c-0.7-2.5-1.7-4.6-2.9-6.4c-2.8-1.8-5.9-3.4-8.5-5.5c-1.3-1-2.5-1.9-3.6-2.8
			c0.3,3.6-0.1,6.9-1,8.6c-4.4,7.8-10.5-2-12.1-10.9c-8.5,0.3-15.4,2.6-15.4,2.6l-36,6.2l-67.7,11.7c0.4,0.3,0.9,1,1.3,2.3l1,10.4
			c0,0-0.5,3.5-2.1,3.9l-0.5,0.1l-2.4,0.7l-0.4,2.3l1.2,0.4l2.1,0.7l0.3,0c0.5-0.2,0.8,0,0.8,0l0,0l0,0l32.4,0.3l84.1,0.8
			c5,0,9.2-0.6,12.6-1.7C575.9,486.8,574.7,468.7,574.7,468.7z"/>
		<path fill="#1A3A61" d="M407.7,486.5l16.7,5.5l0.4-2.3l2.4-0.7l0.5-0.1c1.6-0.5,2.1-3.9,2.1-3.9l-1-10.4c-0.4-1.3-0.9-1.9-1.3-2.3
			c-0.6-0.5-1.1-0.3-1.1-0.3l-4.2,0l-55-8.3c0,0-8.8-1.8-9.1,5.4c0,0,0,0.5,0.1,1.3l20.1,6.6"/>
		<path fill="#FFFFFF" d="M408.4,485c-0.5-3.3-0.6-6.6-0.9-9.9c-0.1-1.9-3.1-1.9-3,0c0.2,3.6,0.4,7.2,1,10.7c0,0,0,0,0,0l2.2,0.7
			C408.2,486.2,408.5,485.7,408.4,485z"/>
		<path fill="#FFFFFF" d="M399.4,474.4c0.3-1.9-2.7-1.9-3,0c-0.4,2.9-0.2,5.7,0.4,8.5l3.3,1.1C399.3,480.8,399,477.7,399.4,474.4z"
			/>
		<path fill="#FFFFFF" d="M390.7,473.2c0.2-1.9-2.8-1.9-3,0c-0.2,2.2-0.2,4.5-0.1,6.8l3.1,1C390.5,478.4,390.5,475.8,390.7,473.2z"
			/>
		<path fill="#FFFFFF" d="M378.3,473c0,1.3,0,2.6,0,3.9l3,1c0-1.6-0.1-3.3,0-4.9C381.3,471.1,378.3,471.1,378.3,473z"/>
		<path fill="#1A3A61" d="M428.7,493.1L428.7,493.1L428.7,493.1c0,0-0.3-0.2-0.8,0c0,0-0.1,0-0.1,0c-0.5,0.2-1.1,0.8-1.8,2.1
			l-2.5,10.2c0,0,0,3.5,1.5,4.2l1.1,0.5l1.6,0.8v3.4v0c4,7.3,24.7,4.6,24.7,4.6l28.4,5.2c10.2,1.7,15.9-23.7,15.9-23.7
			c0.7-7.2-8.2-6.7-8.2-6.7h-29.7h-25.9L428.7,493.1z"/>
		<path fill="#FFFFFF" d="M447.4,509.7c1-3.3,1.7-6.7,2.5-10.1c0.4-1.9-2.5-2.7-2.9-0.8c-0.8,3.4-1.4,6.8-2.5,10.1
			C444,510.8,446.8,511.6,447.4,509.7z"/>
		<path fill="#FFFFFF" d="M455.7,510.1c1.4-3.3,2.2-6.6,2.3-10.2c0-1.9-3-1.9-3,0c-0.1,3.3-0.9,6.4-2.2,9.4
			C452.1,511,455,511.8,455.7,510.1z"/>
		<path fill="#FFFFFF" d="M463.8,512.7c1.9-4,2.7-8.4,3-12.7c0.1-1.9-2.9-1.9-3,0c-0.3,3.8-0.9,7.8-2.6,11.2
			C460.4,512.9,463,514.4,463.8,512.7z"/>
		<path fill="#FFFFFF" d="M473.6,514c1.3-4.2,2.1-8.5,2.6-12.9c0.2-1.9-2.7-1.9-3,0c-0.5,4.1-1.3,8.1-2.5,12.1
			C470.1,515.1,473,515.9,473.6,514z"/>
		<path fill="#16C172" d="M347.1,349.6c9.7-1.8,18.4-3.4,25.9-4.8c-2.9,17.2-7.5,45.2-10.8,69h19.2c0,0,0.9-0.3,2.1-0.2v0
			c0,0,0.1,0,0.1,0c0.2,0,0.4,0,0.6,0.1c0.1,0,0.1,0,0.2,0c0.2,0,0.4,0.1,0.6,0.1c0.1,0,0.2,0,0.2,0.1c0.2,0.1,0.4,0.2,0.7,0.3
			c0.1,0,0.1,0.1,0.2,0.1c0.3,0.1,0.6,0.3,0.9,0.5c0,0,0.1,0.1,0.1,0.1c0.2,0.2,0.5,0.3,0.7,0.6c0.1,0.1,0.2,0.2,0.3,0.3
			c0.2,0.2,0.4,0.4,0.6,0.6c0.1,0.1,0.2,0.2,0.3,0.4c0.2,0.2,0.4,0.5,0.6,0.8c0.1,0.1,0.2,0.3,0.3,0.4c0.3,0.4,0.6,0.9,0.8,1.4
			l0.7,5.3l1.1,8.5h0l1.5,11.2l-10.9,0.1c0,0.3,0,0.5,0,0.7c0,3.1-0.9,5.9-2.4,8.4c27.5,6.7,75.1,13.6,114.5-5.3c1-0.5,2-1,3-1.5
			l-0.7-6.6l-6.7-61l-0.8-7.7c0,0,15.1-12.5,24.5-24.3c3-3.7,5.4-7.3,6.5-10.5L473.4,290c-0.3-0.1-0.7-0.1-1-0.2
			c-5.3-5.5-10.9-7.9-15.4-9l-1.1,5.8l0,0.2l-0.1,0.4c-3.3,4.6-13.5,2.3-13.5,2.3c-12.3-2-11.8-7-11.8-7l1-5.2
			c-7.2-0.3-15.9,0.3-24.3,3.7c-0.1,0-0.2-0.1-0.3-0.1L335.5,301c-0.3,2.8-0.2,6,0.2,9.3c1.3,11.4,5.8,24.8,8.8,32.6
			C346,347,347.1,349.6,347.1,349.6z"/>
		<path fill="#E07C65" d="M375.6,199.2c-3.8,2.3-8.5,2.7-12.8,0.1c-6.8-4.1-7.6-13-5.6-19.9c1-3.3,2.4-6.6,5.4-8.7
			c2.2-1.6,4.8-2.4,7.5-2.8c0-0.1,0-0.2,0-0.3c0,0-0.1,0-0.1,0c-0.2,0-0.3-0.1-0.5-0.1c-0.4-0.1-0.8-0.1-1.2-0.2c-0.2,0-0.3,0-0.5,0
			c-0.5,0-1-0.1-1.5-0.1c-9.3,0.1-16.7,8.8-16.6,19.5c0.1,10.6,7.7,19.2,17,19.1c0.6,0,1.1,0,1.6-0.1c0.2,0,0.3-0.1,0.5-0.1
			c0.4-0.1,0.7-0.1,1.1-0.2c0.2,0,0.4-0.1,0.6-0.2c0.3-0.1,0.6-0.2,0.9-0.3c0.2-0.1,0.4-0.2,0.6-0.2c0.3-0.1,0.6-0.2,0.9-0.4
			c0.2-0.1,0.4-0.2,0.6-0.3c0.3-0.1,0.5-0.3,0.8-0.4c0.2-0.1,0.4-0.3,0.6-0.4c0.2-0.2,0.5-0.3,0.7-0.5c0.1-0.1,0.2-0.1,0.3-0.2
			C375.9,201.2,375.7,200.2,375.6,199.2z"/>
		<path fill="#242340" d="M365.5,173.8c-0.6-0.3-1.3-0.1-1.6,0.5c-0.3,0.6-0.1,1.3,0.5,1.6c1.4,0.8,2.3,1.9,3,3.2c0.7,1.4,1,3,1,4.7
			c0,0.2,0,0.4,0,0.5c-0.5,0.1-1.1,0.1-1.7,0.1c-1.5,0-3.2-0.3-4.6-0.7c-0.7-0.2-1.3-0.5-1.7-0.7c-0.4-0.3-0.7-0.5-0.8-0.7
			c-0.3-0.6-1-0.8-1.6-0.4c-0.6,0.3-0.8,1-0.4,1.6c0.4,0.7,1,1.1,1.6,1.5c1,0.6,2.2,1,3.5,1.3c1.3,0.3,2.7,0.5,4,0.5
			c0.5,0,1,0,1.5-0.1c-0.6,3-2.2,6-4.5,8.1c-0.5,0.4-0.5,1.2-0.1,1.7c0.4,0.5,1.2,0.5,1.7,0.1c3.2-3,5.1-7.1,5.5-11.2c0,0,0,0,0,0
			c0.1-0.5,0.1-1.1,0.1-1.6c0-2-0.4-4-1.3-5.8C368.6,176.3,367.3,174.8,365.5,173.8z"/>
		<path fill="#EA8D71" d="M540.9,221.6c-1.1,2.6-2.4,5.2-3.7,7.6c2.8,3.5,6.9,5.6,11.9,4.7c7.8-1.4,11.8-9.4,12.4-16.6
			c0.3-3.4,0.1-7.1-1.9-10.1c-1.7-2.5-4.1-4.3-6.7-5.7c-1.2-0.1-2.5,0-3.7,0.2C545.6,213.9,540.8,221.7,540.9,221.6
			C540.8,221.6,540.9,221.6,540.9,221.6z M548.6,214c1.6-2.5,4.1-4.4,7.1-4.8c0.6-0.1,1.2,0.4,1.3,1c0.1,0.6-0.4,1.2-1,1.3
			c-2.3,0.3-4.2,1.7-5.5,3.8c-0.5,0.8-0.9,1.8-1.3,2.8c0.7,0.4,1.7,0.8,2.7,1.1c1.4,0.4,2.9,0.6,4.1,0.6c0.6,0,1,0,1.4-0.1
			c0.4-0.1,0.6-0.2,0.7-0.3v0c0.5-0.4,1.2-0.3,1.6,0.2c0.4,0.5,0.3,1.2-0.2,1.6c-0.5,0.4-1.1,0.6-1.7,0.8c-0.6,0.1-1.3,0.2-1.9,0.2
			c-1.5,0-3.2-0.3-4.8-0.7c-0.9-0.3-1.8-0.6-2.6-1c-0.1,0.8-0.2,1.7-0.2,2.5c0,2.3,0.5,4.6,1.5,6.7c0.3,0.6,0,1.3-0.5,1.6
			c-0.6,0.3-1.3,0-1.6-0.5c-1.2-2.4-1.7-5.1-1.7-7.7C546.1,219.6,547,216.5,548.6,214z"/>
		<path fill="#E07C65" d="M559.6,207.3c2,3,2.2,6.6,1.9,10.1c-0.6,7.2-4.5,15.2-12.4,16.6c-5,0.9-9.2-1.2-11.9-4.7
			c-0.5,0.9-1,1.8-1.5,2.7c0.1,0.1,0.1,0.2,0.2,0.3c0.2,0.2,0.3,0.5,0.5,0.7c0.1,0.2,0.3,0.4,0.4,0.6c0.2,0.2,0.4,0.5,0.6,0.7
			c0.2,0.2,0.3,0.4,0.5,0.5c0.2,0.2,0.4,0.4,0.6,0.6c0.2,0.2,0.3,0.3,0.5,0.5c0.2,0.2,0.5,0.4,0.7,0.6c0.2,0.1,0.3,0.3,0.5,0.4
			c0.3,0.2,0.6,0.4,0.9,0.6c0.2,0.1,0.3,0.2,0.5,0.3c0.5,0.3,1,0.5,1.5,0.7c8.6,3.4,18.8-1.8,22.7-11.7c3.9-9.9,0.2-20.7-8.5-24.1
			c-0.5-0.2-0.9-0.3-1.4-0.5c-0.1,0-0.3-0.1-0.5-0.1c-0.4-0.1-0.8-0.2-1.1-0.2c-0.2,0-0.3-0.1-0.5-0.1c-0.3,0-0.7-0.1-1-0.1
			c0,0,0,0,0,0C555.5,203,557.9,204.8,559.6,207.3z"/>
		<path fill="#242340" d="M549.4,231.1c0.6-0.3,0.8-1,0.5-1.6c-1-2.1-1.5-4.4-1.5-6.7c0-0.9,0.1-1.7,0.2-2.5c0.8,0.4,1.7,0.8,2.6,1
			c1.6,0.5,3.3,0.7,4.8,0.7c0.7,0,1.3-0.1,1.9-0.2c0.6-0.1,1.2-0.4,1.7-0.8c0.5-0.4,0.6-1.1,0.2-1.6c-0.4-0.5-1.1-0.6-1.6-0.2v0
			c-0.1,0.1-0.3,0.2-0.7,0.3c-0.4,0.1-0.9,0.1-1.4,0.1c-1.2,0-2.7-0.2-4.1-0.6c-1-0.3-2-0.7-2.7-1.1c0.3-1,0.7-1.9,1.3-2.8
			c1.3-2.1,3.2-3.4,5.5-3.8c0.6-0.1,1.1-0.7,1-1.3c-0.1-0.6-0.7-1.1-1.3-1c-3.1,0.4-5.5,2.3-7.1,4.8c-1.6,2.5-2.5,5.7-2.5,8.9
			c0,2.6,0.6,5.3,1.7,7.7C548.2,231.1,548.9,231.4,549.4,231.1z"/>
		<path fill="#E07C65" d="M430.6,282.5c0,0-0.5,5,11.8,7c0,0,10.2,2.3,13.5-2.3l0.1-0.4l0-0.2l0-0.2c-1.6,1.4-6.7,1.3-9.4,0.1
			c-1.6-0.7-5.2-1.4-6.4-2.3c-2.1-1.6-0.8-5.6-0.5-7.2c0.4-1.7-0.3-3.9,3.1-3.5c4.5,0.4,10.4,0.8,15.2,1.2l0.3-1.7
			c-0.4,0-0.8-0.1-1.2-0.1c-0.6,0-1.2-0.1-1.8-0.1c-1.1-0.1-2.2-0.2-3.3-0.3c-0.5-0.1-1.1-0.1-1.6-0.2c-1.6-0.2-3.3-0.5-4.9-0.8
			c-4.3-0.8-8.5-1.9-12.5-3.3l-2.6,13.8L430.6,282.5z"/>
		<path fill="#E07C65" d="M517.2,157.4c-0.1-0.2-0.2-0.5-0.2-0.7c-0.5-1.7-1.4-4.4-2.1-7.2c-6.1-12.9-22.5-13.9-22.5-13.9l4.4,26.9
			c6.1-0.6,12.2-2,17.9-4.1C515.6,158.1,516.4,157.8,517.2,157.4z"/>
		<path fill="#E07C65" d="M450.6,272.3c0.5,0.1,1.1,0.1,1.6,0.2c1.1,0.1,2.2,0.2,3.3,0.3c0.6,0,1.2,0.1,1.8,0.1
			c1,0.1,2.1,0.1,3.1,0.1c0.6,0,1.2,0,1.8,0c1.1,0,2.2,0,3.3-0.1c0.5,0,1,0,1.5-0.1c1.6-0.1,3.2-0.2,4.7-0.4c0.2,0,0.4-0.1,0.6-0.1
			c1.4-0.2,2.7-0.4,4.1-0.6c0.5-0.1,1-0.2,1.5-0.3c1-0.2,2.1-0.4,3.1-0.6c0.5-0.1,1.1-0.3,1.6-0.4c1-0.2,2-0.5,3-0.8
			c0.5-0.1,1-0.3,1.5-0.4c1.1-0.3,2.2-0.7,3.3-1.1c0.4-0.1,0.7-0.2,1.1-0.4c1.5-0.5,2.9-1.1,4.4-1.7c0.2-0.1,0.3-0.2,0.5-0.2
			c1.2-0.5,2.5-1.1,3.7-1.7c0.4-0.2,0.8-0.4,1.2-0.6c1-0.5,2-1,2.9-1.6c0.4-0.2,0.9-0.5,1.3-0.7c1-0.6,1.9-1.1,2.8-1.7
			c0.4-0.2,0.8-0.5,1.1-0.7c1.1-0.7,2.2-1.5,3.3-2.3c0.2-0.1,0.3-0.2,0.5-0.4c1.3-0.9,2.5-1.9,3.7-2.9c0.1-0.1,0.3-0.3,0.4-0.4
			c1-0.9,2-1.7,3-2.7c0.1-0.1,0.2-0.2,0.3-0.3c0,0,0,0-0.1,0c-17,10.5-38.1,15.3-59.5,11c-65.9-13.2-75-50.9-66.9-95.1
			c0.3-1.6,0.7-3.2,1-4.8c6.5-2.5,13.5-3.8,20-6.4c7.4-3,13-7.9,15.2-15.8c0.1-0.3,0.6-0.5,0.8-0.1c1.6,6,8.6,9.7,13.7,12.2
			c7.3,3.5,15.1,6.1,22.9,8c5.8,1.5,11.7,2.8,17.6,3.3c3.7,0.3,7.4,0.3,11.1-0.1c-30.3-14.5-37.3-26.9-37.3-26.9l1.7,16.1
			c-31.3-11.1-33.7-22.5-33.7-22.5c-1,15-16.3,19.2-16.3,19.2c-6,2.9-11,6.7-15.2,11.1c-15.8,16.1-20.3,38.5-20.4,39.1c0,0,0,0,0,0
			c-3.4-11.6-5.1-21.8-5.5-30.8c-2.7,0.4-5.2,1.2-7.5,2.8c-2.9,2.1-4.4,5.4-5.4,8.7c-2,6.9-1.2,15.8,5.6,19.9
			c4.4,2.6,9,2.2,12.8-0.1c0.1,1,0.3,2,0.5,3c-0.1,0.1-0.2,0.1-0.3,0.2c0.1-0.1,0.2-0.1,0.3-0.2c5.3,30,27,55.7,57.2,66.1
			c4,1.4,8.2,2.5,12.5,3.3C447.3,271.9,449,272.1,450.6,272.3z M370.6,185.4C370.6,185.4,370.6,185.4,370.6,185.4
			c-0.4,4.1-2.3,8.2-5.5,11.2c-0.5,0.4-1.2,0.4-1.7-0.1c-0.4-0.5-0.4-1.2,0.1-1.7c2.3-2.2,3.9-5.1,4.5-8.1c-0.5,0.1-1,0.1-1.5,0.1
			c-1.3,0-2.7-0.2-4-0.5c-1.3-0.3-2.5-0.7-3.5-1.3c-0.6-0.4-1.2-0.8-1.6-1.5c-0.3-0.6-0.1-1.3,0.4-1.6c0.6-0.3,1.3-0.1,1.6,0.4
			c0.1,0.1,0.3,0.4,0.8,0.7c0.4,0.3,1,0.5,1.7,0.7c1.4,0.4,3.1,0.7,4.6,0.7c0.6,0,1.2-0.1,1.7-0.1c0-0.2,0-0.4,0-0.5
			c0-1.7-0.3-3.4-1-4.7c-0.7-1.4-1.7-2.5-3-3.2c-0.6-0.3-0.8-1-0.5-1.6c0.3-0.6,1-0.8,1.6-0.5c1.8,1,3.1,2.5,4,4.2
			c0.9,1.7,1.3,3.7,1.3,5.8C370.7,184.3,370.7,184.8,370.6,185.4z"/>
		<path fill="#DE6066" d="M473.8,223.7c-3.7,1.1-7.3,1.5-10.7,1.5c-7.5,0-14.1-2.1-18.9-4.2c-2.4-1.1-4.2-2.1-5.5-2.9
			c-0.6-0.4-1.1-0.7-1.5-0.9c-0.2-0.1-0.3-0.2-0.4-0.3l-0.1-0.1l0,0c-0.9-0.6-2.1-0.5-2.7,0.4c-0.6,0.9-0.5,2.1,0.4,2.7
			c0.1,0.1,3.1,2.3,8.2,4.6c5.1,2.3,12.2,4.5,20.5,4.5c3.7,0,7.7-0.5,11.8-1.6c1-0.3,1.6-1.4,1.4-2.4
			C475.9,224.1,474.8,223.4,473.8,223.7z"/>
		<path fill="#E4806D" d="M421,189.9c-9.8-1.3-18.6,2.8-19.6,9.4c-1,6.5,6.1,12.9,15.9,14.2c9.8,1.3,18.6-2.9,19.6-9.4
			C437.9,197.6,430.8,191.2,421,189.9z"/>
		<path fill="#E4806D" d="M502,205.9c-9.8-1.3-18.6,2.8-19.6,9.4c-1,6.5,6.1,12.9,15.9,14.2c9.8,1.3,18.6-2.9,19.6-9.4
			C518.9,213.6,511.8,207.2,502,205.9z"/>
		<path fill="#E4806D" d="M452.4,201.5c1.2,0.3,2.4-0.4,2.7-1.6c0.4-1.4,1.6-2.4,3-2.4c0.2,0,0.5,0,0.8,0.1c1.4,0.3,2.4,1.6,2.4,3
			c0,0.2,0,0.5-0.1,0.8c-0.3,1.2,0.4,2.4,1.6,2.7c1.2,0.3,2.4-0.4,2.7-1.6c0.2-0.6,0.2-1.2,0.2-1.8c0-3.4-2.3-6.5-5.8-7.4
			c-0.6-0.2-1.2-0.2-1.8-0.2c-3.4,0-6.5,2.3-7.4,5.8C450.5,200,451.2,201.2,452.4,201.5z"/>
		<path fill="#63230B" d="M421.5,179.1c-0.4,2.1-2.3,3.5-4.3,3.4c0.4,4.2,2.6,7.5,5.7,8.1c4.2,0.8,8.5-3.5,9.6-9.5
			c1.1-6-1.4-11.5-5.5-12.3c-3.2-0.6-6.4,1.7-8.3,5.5C420.6,175.1,421.9,177,421.5,179.1z"/>
		<path fill="#63230B" d="M496.1,204.2c3.2,0.6,6.4-1.7,8.3-5.5c-2-0.6-3.2-2.6-2.8-4.7c0.4-2.1,2.3-3.5,4.3-3.4
			c-0.4-4.2-2.6-7.5-5.7-8.1c-4.2-0.8-8.5,3.5-9.6,9.5C489.4,198,491.9,203.4,496.1,204.2z"/>
		<path fill="#FFFFFF" d="M416.6,182.5c0.2,0,0.4,0,0.6,0c2.1,0.1,3.9-1.3,4.3-3.4c0.4-2.1-0.9-4.1-2.8-4.7
			c-0.2-0.1-0.4-0.1-0.5-0.2c-2.3-0.4-4.5,1.1-4.9,3.4C412.9,179.9,414.3,182.1,416.6,182.5z"/>
		<path fill="#FFFFFF" d="M501.5,194c-0.4,2.1,0.9,4.1,2.8,4.7c0.2,0.1,0.4,0.1,0.5,0.2c2.3,0.4,4.5-1.1,4.9-3.3
			c0.4-2.3-1.1-4.5-3.3-4.9c-0.2,0-0.4,0-0.6,0C503.8,190.5,501.9,191.9,501.5,194z"/>
		<path fill="#6A3333" d="M375.5,198.7C375.5,198.7,375.5,198.6,375.5,198.7c0.1-0.6,4.6-23,20.4-39.1c4.2-4.3,9.3-8.2,15.2-11.1
			c0,0,15.4-4.2,16.3-19.2c0,0,2.4,11.4,33.7,22.5l-1.7-16.1c0,0,7.1,12.4,37.3,26.9l-4.4-26.9c0,0,16.3,1,22.5,13.9
			c0.7,2.8,1.6,5.5,2.1,7.2c0.1,0.2,0.1,0.5,0.2,0.7c6.9,23.3,30.7,36.5,23.7,64.2c0,0,0,0,0,0.1c0,0,4.8-7.8,8.4-19.9
			c4.6-15.5,7-38.1-5.4-60.3c15,0.2,30.6-12.1,30.6-12.1c-15.9-3.1-32-15.3-32-15.3c8-1.4,25-20.7,25-20.7
			c-16.9,8.9-34.3,1.5-34.3,1.5c-108.1-40.1-111.5,8.3-111.5,8.3s-54,4.9-51.5,64.2c0,0.1,0,0.2,0,0.3
			C370.4,176.8,372.1,187,375.5,198.7z"/>
		<path fill="#CC393C" d="M283.1,429.2c3.9,0,7.5,1.4,10.3,3.8h63.9c2.8-2.4,6.4-3.8,10.3-3.8c3.9,0,7.5,1.4,10.3,3.8h14.9l-1.1-8.5
			h-8.1v-10.9c-1.3-0.1-2.1,0.2-2.1,0.2h-19.2H356l-6.8-23.5c-1.9-6.5-8.2-6.1-8.2-6.1h-17.7c3.2,2.2,6.6,5,5.1,7c0,0,0,0,0,0l3.4,0
			h1.9l0,0l0.7,0c0.4,0,5.2-0.2,6.7,5l4.5,15.7h-18.8h-1.5h-2.2h-2c-1,0.7-2.2,0.6-3.4,0h-3h-0.4c0.4,1,0.5,1.9,0,2.4
			c-0.4,0.4-1.1,0.6-2.3,0.5c-2.3-0.2-4.3-1.8-5.9-3.8c0.5,1.5,0.4,2.8-1.3,3.3c0,0,0,0-0.1,0c-1.6,0.5-3.3-0.8-4.8-2.4h-11.1h-4.5
			h-5h-8.4h-3.9v-8.3c0,0-1.8-12.5,6.6-12.4h5.6l0,0l8.6,0h3.1c-0.6-2.4-1.3-4.7-2.2-7H289h-21.7c-10.3-0.1-8.1,15.1-8.1,15.1v20.5
			h4.5v7.3h-4.5v5.8h13.6C275.5,430.6,279.1,429.2,283.1,429.2z M316,416.1h9.5v3.8H316V416.1z M294.6,416.1h9.5v3.8h-9.5V416.1z"/>
		<path fill="#DDA758" d="M390.1,417.8c-0.1-0.1-0.2-0.3-0.3-0.4c-0.2-0.3-0.4-0.5-0.6-0.8c-0.1-0.1-0.2-0.2-0.3-0.4
			c-0.2-0.2-0.4-0.4-0.6-0.6c-0.1-0.1-0.2-0.2-0.3-0.3c-0.2-0.2-0.5-0.4-0.7-0.6c0,0-0.1-0.1-0.1-0.1c-0.3-0.2-0.6-0.4-0.9-0.5
			c-0.1,0-0.1-0.1-0.2-0.1c-0.2-0.1-0.5-0.2-0.7-0.3c-0.1,0-0.2,0-0.2-0.1c-0.2-0.1-0.4-0.1-0.6-0.1c-0.1,0-0.1,0-0.2,0
			c-0.2,0-0.4-0.1-0.6-0.1c0,0-0.1,0-0.1,0v0v10.9h8.1l-0.7-5.3C390.7,418.7,390.4,418.2,390.1,417.8z"/>
		<path fill="#A90B2C" d="M272.8,433h-13.6v2.3c0.2,6.6,4.6,8.8,8.1,9.4C267.3,440,269.5,435.8,272.8,433z"/>
		<path fill="#A90B2C" d="M357.2,433h-63.9c3.3,2.9,5.5,7.1,5.5,11.8l27.4-0.2l20.7-0.1l4.7,0C351.9,439.9,354,435.8,357.2,433z"/>
		<path fill="#A90B2C" d="M383.3,444.3l10.9-0.1l-1.5-11.2h0h-14.9C381,435.7,383.1,439.7,383.3,444.3z"/>
		<path fill="#3B3A67" d="M293.7,399.9l-4.6,12h11.1c-1.6-1.8-2.9-4-3.6-5.2C295.4,404.5,294.5,402.2,293.7,399.9z"/>
		<path fill="#3B3A67" d="M313.1,408.2l0.4,1.6c0.4,0.7,0.8,1.4,1,2.1h0.4l0.6-1.5C314.7,409.7,313.9,409,313.1,408.2z"/>
		<path fill="#3B3A67" d="M327.5,406.9c-0.7,0.2-1.4,0.3-2.2,0.2l-2,4.7h2.2l8.4-20.7h-1.9L327,403
			C327.7,404.5,327.9,405.8,327.5,406.9z"/>
		<path fill="#3B3A67" d="M291.4,391.2h-3.1l-8.6,20.7h5l7.4-18.2C291.8,392.9,291.6,392,291.4,391.2z"/>
		<path fill="#3B3A67" d="M326.9,411.9h18.8l-4.5-15.7c-1.5-5.1-6.2-5-6.7-5l0.4,0L326.9,411.9z"/>
		<path fill="#3B3A67" d="M319.6,391.2h-0.9c0.5,1.2,1.6,2.7,2.9,4.3l1.4-3.5C321.7,391.8,320.5,391.5,319.6,391.2z"/>
		<path fill="#3B3A67" d="M274,391.2c-8.4-0.1-6.6,12.4-6.6,12.4v8.3h3.9l8.4-20.7H274z"/>
		<path fill="#CC393C" d="M310.3,404.9c0.7,1.3,2.1,3.1,3.2,4.9l-0.4-1.6C311.9,406.9,310.8,405.6,310.3,404.9z"/>
		<path fill="#CC393C" d="M303.3,405.9C303.4,405.9,303.4,406,303.3,405.9C303.4,406,303.4,405.9,303.3,405.9
			C303.2,405.7,303.2,405.7,303.3,405.9z"/>
		<path fill="#242340" d="M298.6,448c0.2-1,0.3-1.9,0.3-3c0-0.1,0-0.2,0-0.3c-0.1-4.7-2.2-8.9-5.5-11.8c-2.8-2.4-6.4-3.8-10.3-3.8
			c-3.9,0-7.5,1.4-10.3,3.8c-3.3,2.8-5.4,7-5.5,11.7c0,0.1,0,0.2,0,0.4c0,7.7,5.5,14.1,12.8,15.6c1,0.2,2,0.3,3,0.3
			C290.8,460.9,297.3,455.3,298.6,448z M274.5,445c0-4.7,3.8-8.5,8.5-8.5c4.7,0,8.5,3.8,8.5,8.5s-3.8,8.5-8.5,8.5
			C278.4,453.5,274.5,449.7,274.5,445z"/>
		<circle fill="#8EB2C4" cx="283.1" cy="445" r="8.5"/>
		<path fill="#242340" d="M383.3,444.3c-0.2-4.5-2.3-8.5-5.5-11.3c-2.8-2.4-6.4-3.8-10.3-3.8c-3.9,0-7.5,1.4-10.3,3.8
			c-3.3,2.8-5.4,6.9-5.5,11.5c0,0.2,0,0.4,0,0.6c0,8.8,7.1,15.9,15.9,15.9c5.7,0,10.7-3,13.5-7.5c1.5-2.4,2.4-5.3,2.4-8.4
			C383.4,444.8,383.4,444.5,383.3,444.3z M367.5,453.5c-4.7,0-8.5-3.8-8.5-8.5s3.8-8.5,8.5-8.5s8.5,3.8,8.5,8.5
			S372.2,453.5,367.5,453.5z"/>
		<circle fill="#8EB2C4" cx="367.5" cy="445" r="8.5"/>
		<polygon fill="#FFFFFF" points="279.6,391.2 279.6,391.2 271.3,411.9 279.6,411.9 288.2,391.2 		"/>
		<path fill="#FFFFFF" d="M292,393.7l-7.4,18.2h4.5l4.6-12C293.1,397.8,292.5,395.8,292,393.7z"/>
		<path fill="#FFFFFF" d="M318.6,403.7c2.2,2.7,4.5,5.7,3.9,6.7c-0.3,0.7-0.7,1.2-1.2,1.5h2l2-4.7
			C323,406.9,320.6,405.5,318.6,403.7z"/>
		<path fill="#FFFFFF" d="M323,392l-1.4,3.5c1.9,2.4,4.3,5.1,5.4,7.5l4.9-11.8l-3.4,0C327.6,392.4,325.2,392.3,323,392z"/>
		<path fill="#FFFFFF" d="M314.9,411.9h3c-0.8-0.3-1.6-0.9-2.4-1.5L314.9,411.9z"/>
		<polygon fill="#FFFFFF" points="326.9,411.9 334.9,391.2 334.5,391.2 333.8,391.2 333.8,391.2 325.4,411.9 		"/>
		<rect x="294.6" y="416.1" fill="#A90B2C" width="9.5" height="3.8"/>
		<rect x="316" y="416.1" fill="#A90B2C" width="9.5" height="3.8"/>
		<polygon fill="#E95A0C" points="263.6,419.8 259.2,419.8 259,419.8 259,427.2 259.2,427.2 263.6,427.2 		"/>
	</g>
</g>
</svg>
