<svg xmlns="http://www.w3.org/2000/svg" viewBox="0 0 692 540" xml:space="preserve"><ellipse fill="#FCF3B3" cx="359" cy="483.1" rx="296.5" ry="47.6"/><path fill="#FFF" d="M249.2 127.3c-8.7 0-16.9 2.1-24.1 5.9-10.6-26.4-36.4-45.1-66.5-45.1-26.4 0-49.5 14.3-61.9 35.6-8.5-4.9-18.2-7.7-28.7-7.7-31.8 0-57.7 25.8-57.7 57.7H301c-2.8-26-24.9-46.4-51.8-46.4zm392 138.2c-6.5 0-12.6 1.6-18 4.4-7.9-19.7-27.2-33.7-49.8-33.7-19.8 0-37 10.7-46.3 26.7-6.3-3.6-13.6-5.7-21.5-5.7-23.8 0-43.1 19.3-43.1 43.1H680c-2.1-19.5-18.7-34.8-38.8-34.8z"/><path fill="#FEC667" d="M298.2 403.4c0-.2 0-.4-.1-.5 0-.4-.1-.7-.1-1.1 0-.3-.1-.5-.1-.6-.1-.3-.1-.6-.2-.9 0-.3-.1-.5-.2-.7-.1-.3-.1-.5-.2-.8-.1-.3-.1-.5-.2-.7-.1-.3-.2-.5-.2-.7-.1-.3-.2-.5-.3-.7l-.3-.6c-.1-.3-.2-.5-.4-.8-.1-.2-.2-.3-.2-.5-.2-.3-.3-.5-.5-.8 0-.1-.1-.1-.1-.2-.7-1.3-1.5-2.4-2.4-3.3-.5-.5-.8-.8-1.3-1.2-.3-.2-.5-.4-.9-.5h-.1c-.3-.2-.6-.3-.9-.5-.3-.1-.6-.3-.9-.4-.5-.1-1-.2-1.4-.3h-.4c-.6.1-1.2.3-1.7.5 0 0-.1 0-.1.1-.2.1-.3.1-.5.2-.1 0-.2.1-.3.1-.1.1-.3.1-.4.2-.1.1-.2.1-.3.2-.1.1-.2.1-.3.2-.1.1-.3.2-.4.3s-.2.1-.3.2l-.5.5c-.7.6-1.4 1.4-2 2.4-1.4 1.3-3.2 2.5-5.1 2.3-1.3.2-2.6-.3-3.9-1.7-1.2-18.5-4.3-31-4.3-31-3.5-20.9-25.1-22.2-25.1-22.2h-25.5c-4.2-3-2.2-6.4-.1-8.6 2.9-2 4.7-4.7 4.7-7.6 0-6.2-7.9-11.1-17.5-11.1-.7 0-1.4 0-2.1.1-2.2.2-4.2.5-6.1 1.2h-.1c-.4.1-.7.3-1.1.4-.1 0-.2.1-.4.1-.3.1-.6.3-.9.5-.2.1-.3.1-.5.2-.3.1-.5.3-.8.5-.2.1-.3.2-.5.3-.3.2-.5.3-.6.5-.2.1-.3.2-.5.4s-.4.3-.5.5l-.5.4c-.2.2-.4.3-.5.5l-.5.5c-.2.2-.3.3-.4.5-.1.2-.3.4-.4.5-.1.2-.2.3-.4.5-.1.2-.2.4-.3.5-.1.2-.2.3-.3.5l-.3.6-.2.5c-.1.3-.1.5-.2.7 0 .1-.1.3-.1.4-.1.4-.1.7-.1 1.1 0 2.1.9 4 2.4 5.6.6.7 1.4 1.4 2.4 2 2 2.1 4 5.4.3 8.3-.1.1-.2.2-.4.3h-26.2s-21.6 1.3-25.1 22.3c0 0-2.6 12.6-3.6 30.8 2.9 3.5 6.2 1.5 8.1-.5.6-.9 1.3-1.7 2-2.4 1.6-1.5 3.5-2.4 5.6-2.4 6.2 0 11.2 7.9 11.2 17.5 0 9.7-5 17.5-11.2 17.5-3 0-5.6-1.8-7.6-4.7-2.1-2-5.4-4-8.3-.3.5 9.9 1.5 20.3 3.8 30.8 4.3 20.8 25.1 22.3 25.1 22.3h26.2c4.2-3 2.2-6.4.1-8.6-.9-.6-1.7-1.3-2.4-2-1.5-1.6-2.4-3.5-2.4-5.6 0-6.2 7.9-11.1 17.5-11.1s17.5 5 17.5 11.1c0 3-1.8 5.6-4.7 7.6-2.1 2.2-4.1 5.6.1 8.6H241s20-1.6 25.1-22.3c2.6-10.7 3.9-21.3 4.4-31.2 1.3-1.4 2.5-1.7 3.8-1.5 1.9-.3 3.8 1 5.1 2.3.3.4.5.6.7 1 .1.1.2.3.3.4.2.2.3.4.5.5.1.2.3.3.4.4.2.1.3.3.5.4l.5.4.4.3c.2.1.4.3.5.4.1.1.2.1.4.2s.5.2.6.3c.1 0 .2.1.3.1.3.1.5.2.7.3l.2.1c.3.1.5.1.8.2h.5c6-.4 10.7-8.1 10.7-17.5.8-1.9.8-2.5.8-3z"/><path fill="#F9D7A5" d="M243.5 348.5c-8.1-1.6-20.2-2.9-28-.5-2.8.9-8.3 3.3-6.2 7.1 1.5 2.8 9 2.4 11.7 2.8 7.9 1.2 15.9 4.9 20.4 11.8 4.3 6.5 4.6 15 5.7 22.5.8 5.7 5.4 19.5 11.4 8.2 3.1-5.8 2.6-13.4 2.6-20-.8-32.3-17.6-31.9-17.6-31.9z"/><path fill="#F56565" d="M271.7 286.2c-1.1-1.4-2.3-2-3.4-2-1.7.1-3.3 1.2-4.5 2.4-2 2.9-4.7 4.7-7.6 4.7h-.4c-6.2 0-11.2-7.9-11.2-17.5 0-9.7 5-17.5 11.2-17.5h.4c2.1 0 4 .9 5.6 2.4.7.6 1.4 1.4 2 2.4 1.2 1.2 2.8 2.3 4.5 2.4 1.1-.1 2.3-.6 3.3-1.9-1-18.4-3.6-30.8-3.6-30.8-.1-.6-.3-1.4-.4-2 0-.2-.1-.4-.2-.5-.1-.5-.2-.9-.4-1.3-.1-.2-.2-.5-.2-.6-.1-.4-.3-.7-.4-1.1-.1-.2-.2-.5-.3-.6l-.5-1-.3-.6c-.2-.3-.3-.6-.5-.9-.1-.2-.2-.4-.4-.5-.2-.3-.4-.5-.5-.8-.1-.2-.3-.4-.4-.5-.2-.3-.4-.5-.5-.8-.1-.2-.3-.3-.4-.5l-.6-.7c-.1-.2-.3-.3-.4-.5-.2-.3-.5-.5-.6-.7l-.4-.4-.7-.7c-.1-.1-.2-.2-.4-.3-.3-.2-.5-.5-.7-.6l-.3-.3c-.3-.2-.5-.5-.8-.6-.1-.1-.2-.1-.3-.2-.3-.2-.5-.5-.9-.6-.1-.1-.2-.1-.2-.2-.3-.2-.6-.4-.9-.5-.1 0-.1-.1-.2-.1-.4-.2-.7-.4-1-.5 0 0-.1 0-.1-.1-.4-.2-.7-.4-1.1-.5-5.5-2.6-10.5-2.9-10.5-2.9h-26.2c-4.2-3-2.2-6.4-.1-8.6.9-.6 1.7-1.3 2.4-2 1.5-1.6 2.4-3.5 2.4-5.6 0-6-7.4-10.9-16.7-11.1h-.9c-9.7 0-17.5 5-17.5 11.1 0 3 1.8 5.6 4.7 7.6 2.1 2.2 4.1 5.6-.1 8.6H165s-21.6 1.3-25.1 22.3c0 0-3.1 12.6-4.3 31-2.9 3.3-6.1 1.4-8.1-.6-.6-.9-1.3-1.7-2-2.4-1.6-1.5-3.5-2.4-5.6-2.4-6.2 0-11.1 7.9-11.1 17.5 0 9.7 5 17.5 11.1 17.5 3 0 5.6-1.8 7.6-4.7 2-1.9 5.1-3.8 7.9-.8.5 10 1.8 20.6 4.4 31.2 5.1 20.7 25.1 22.3 25.1 22.3h25.3c3.7-2.9 1.7-6.2-.3-8.3-.9-.6-1.7-1.3-2.4-2-1.5-1.6-2.4-3.5-2.4-5.6 0-.4 0-.7.1-1.1 0-.1.1-.3.1-.4.1-.3.1-.5.2-.7l.2-.5.3-.6c.1-.2.2-.3.3-.5.1-.2.2-.4.3-.5.1-.2.2-.3.4-.5.1-.2.3-.4.4-.5.1-.2.3-.3.4-.5.1-.2.3-.3.5-.5s.4-.3.5-.5l.5-.4c.2-.2.4-.3.5-.5.2-.1.3-.2.5-.4s.5-.3.6-.5c.2-.1.3-.2.5-.3.3-.2.5-.3.7-.5 3.1-1.7 7.1-2.7 11.4-2.7 9.7 0 17.5 5 17.5 11.1 0 2.1-.9 4-2.4 5.6-.6.7-1.4 1.4-2.4 2-2.1 2.2-4.1 5.6.1 8.6h26.2s20.7-1.4 25.1-22.3c2.2-10.2 3.3-20.5 3.7-30.2.4.1.4 0 .4-.2z"/><path fill="#FC8181" d="M227.4 227.1c7.8 6.2-1.7 11.1-6.3 14.6-6.5 4.9-6.2 14.8-5.9 22.4.3 4.9 1.4 21.4 10.4 17.6 5.5-2.4 2-15.2 2.7-20.4 1-7.4 4.4-13.8 10.9-17.9 5.6-3.5 15.1-5.5 16.5-12.8 2.6-14.7-9.5-15-21.7-16-5.5-.5-15.9-2.2-19.2 3.7-4.4 8 8.9 5.9 12.6 8.8z"/><path fill="#008CD1" d="M422.7 387.5h-.7c-.2 0-.5.1-.6.1-1.5.3-2.9 1.1-4.2 2.3-.7.6-1.4 1.4-2 2.4-2 1.9-5.2 3.8-8.1.6-1.2-18.5-4.3-31-4.3-31-3.4-21-25.1-22.3-25.1-22.3h-25.5c-1.1-.8-1.8-1.6-2.2-2.4-.9-2.3.5-4.5 2.1-6.1 2.9-2 4.7-4.7 4.7-7.6 0-.4 0-.7-.1-1.1 0-.1-.1-.2-.1-.4-.1-.3-.1-.5-.2-.7 0-.1-.1-.3-.1-.4-.1-.2-.2-.5-.3-.6-.1-.1-.1-.3-.2-.4-.1-.2-.2-.4-.4-.6-.1-.1-.2-.3-.2-.4-.2-.3-.4-.5-.5-.7-.2-.2-.3-.4-.5-.5l-.5-.5c-.2-.2-.4-.3-.5-.5-.1-.1-.3-.2-.4-.4-.2-.2-.4-.3-.6-.5-.1-.1-.3-.2-.4-.3-.3-.2-.5-.3-.7-.5l-.3-.2c-.9-.5-2-1-3.1-1.4-.4-.2-.8-.3-1.2-.5-.1 0-.1 0-.2-.1l-1.2-.3h-.2c-.5-.1-.8-.2-1.3-.3h.1c-1.5-.3-3.2-.5-4.9-.5-9.7 0-17.5 5-17.5 11.1 0 1 .2 2 .6 2.9.5 1 1 1.8 1.8 2.7.6.7 1.4 1.4 2.4 2 .7.7 1.4 1.6 1.9 2.6.8 1.8.7 4-2 6h-26.2s-21.6 1.3-25.1 22.3c0 0-2.6 12.6-3.6 30.8 1 1.2 2.1 1.7 3.1 1.9 1.9.3 3.8-1 5.1-2.3.6-.9 1.3-1.7 2-2.4l.5-.5c.1-.1.2-.1.3-.2.1-.1.3-.2.4-.3.1-.1.2-.1.3-.2.1-.1.2-.1.3-.2s.3-.1.4-.2c.1 0 .2-.1.3-.1.2-.1.3-.1.5-.2 0 0 .1 0 .1-.1.5-.2 1.2-.4 1.7-.5h1c6.2 0 11.2 7.9 11.2 17.5 0 9.7-5 17.5-11.2 17.5h-1c-.3 0-.5-.1-.8-.2l-.2-.1c-.3-.1-.5-.2-.7-.3-.1 0-.2-.1-.3-.1-.2-.1-.5-.2-.6-.3-.1-.1-.3-.1-.4-.2-.2-.1-.4-.2-.5-.4l-.4-.3-.5-.4c-.2-.1-.3-.3-.5-.4-.2-.1-.3-.3-.4-.4l-.5-.5c-.1-.1-.2-.3-.3-.4-.3-.3-.5-.6-.7-1-1.4-1.3-3.2-2.5-5.1-2.3-1.1.1-2.2.7-3.3 2.1.5 9.9 1.5 20.3 3.8 30.8 4.3 20.8 25.1 22.3 25.1 22.3H326c4.2-3 2.2-6.4.1-8.6-.9-.6-1.7-1.3-2.4-2-1.5-1.6-2.4-3.5-2.4-5.6 0-6.2 7.9-11.1 17.5-11.1s17.5 5 17.5 11.1c0 3-1.8 5.6-4.7 7.6-2.1 2.2-4.1 5.6.1 8.6h25.5s20-1.6 25.1-22.3c2.6-10.7 3.9-21.3 4.4-31.2 2.8-3 5.9-1.1 7.9.8 2 2.9 4.7 4.7 7.6 4.7 6.2 0 11.1-7.9 11.1-17.5.6-8.8-4.4-16.7-10.6-16.7z"/><path fill="#00AAE6" d="M344.7 368.2c7.4 2.2 16.6 3.4 23.5 7.2 7.5 4.1 8.1 13 10 20.4 1 4.1 3.3 9.4 6.8 3.6 2.1-3.4 1.2-9.6 1.4-13.6.2-4.1.5-8.2-.4-12.3-3.5-15.6-24.5-15.8-37.1-15.7-2.8 0-8.6-.2-10.3 2.8-2.4 4.4 2.9 6.7 6.1 7.6z"/><path fill="#553C9A" d="M398.8 286.4c-2 2.9-4.7 4.7-7.6 4.7-6.2 0-11.1-7.9-11.1-17.5 0-9.7 5-17.5 11.1-17.5 2.1 0 4 .9 5.6 2.4.7.6 1.4 1.4 2 2.4 2.1 2 5.3 3.9 8.1.5-1-18.4-3.6-30.8-3.6-30.8-.1-.6-.3-1.4-.4-2-.1-.2-.1-.4-.2-.5-.1-.5-.2-.9-.4-1.3-.1-.2-.2-.5-.2-.6-.1-.4-.3-.7-.4-1.1-.1-.2-.2-.5-.3-.6-.1-.4-.3-.6-.5-1-.1-.2-.2-.5-.3-.6-.2-.3-.3-.6-.5-.9-.1-.2-.2-.4-.4-.5-.2-.3-.4-.5-.5-.8-.1-.2-.3-.4-.4-.5-.2-.3-.4-.5-.5-.8-.1-.2-.3-.4-.4-.5-.2-.3-.4-.5-.6-.7-.1-.2-.3-.3-.4-.5-.2-.3-.5-.5-.6-.7l-.4-.4c-.3-.3-.5-.5-.7-.6-.1-.1-.3-.2-.4-.3-.3-.2-.5-.5-.7-.6-.1-.1-.2-.2-.4-.3-.3-.2-.5-.5-.8-.6-.1-.1-.2-.2-.3-.2l-.9-.6c-.1-.1-.2-.1-.3-.2-.3-.2-.6-.4-.9-.5l-.2-.1c-.4-.2-.6-.4-1-.5l-.1-.1-1.1-.5c-5.5-2.6-10.6-2.9-10.6-2.9h-26.1c-4.2-3-2.2-6.4-.1-8.6.9-.6 1.7-1.3 2.4-2 1.5-1.6 2.4-3.5 2.4-5.6 0-3.7-2.8-7-7.1-9-1.4-.6-2.9-1.2-4.5-1.5-.2 0-.3-.1-.4-.1-.3-.1-.5-.1-.8-.2-.3 0-.5-.1-.7-.1-.3 0-.5-.1-.7-.1-.4 0-.6-.1-1-.1-.2 0-.4 0-.5-.1-.5 0-1.1-.1-1.6-.1-9.7 0-17.5 5-17.5 11.1 0 3 1.8 5.6 4.7 7.6 2.1 2.2 4.1 5.6-.1 8.6h-25.5s-21.6 1.3-25.1 22.3c0 0-3.1 12.6-4.3 31-1.2 1.3-2.4 1.8-3.5 1.7-1.7-.1-3.3-1.2-4.5-2.4-.6-.9-1.3-1.7-2-2.4-1.6-1.5-3.5-2.4-5.6-2.4h-.2c-6.1.1-11 8-11 17.5 0 9.6 4.9 17.4 11 17.5h.2c3 0 5.6-1.8 7.6-4.7 1.2-1.2 2.8-2.3 4.5-2.4 1.1 0 2.3.4 3.3 1.5v1c.5 9.7 1.9 19.9 4.3 30.2 5.1 20.7 25.1 22.3 25.1 22.3h25.7c2.6-1.8 2.8-3.9 2.1-5.7-.5-1-1.2-1.9-1.9-2.6-.9-.6-1.7-1.3-2.4-2-.7-.8-1.4-1.7-1.8-2.7-.5-1-.7-2.1-.7-3.2 0-6.2 7.9-11.1 17.5-11.1 8 0 14.7 3.4 16.8 8.1.1.1.1.2.1.3.1.2.2.5.3.6.1.1.1.3.1.4.1.3.1.5.2.7 0 .1.1.2.1.4.1.4.1.7.1 1.1 0 3-1.8 5.6-4.7 7.6-1.5 1.5-3 3.8-2.1 6.1.4.7 1 1.4 2 2.2h26.2s20.7-1.4 25.1-22.3c2.2-10.4 3.3-20.9 3.8-30.8-2.5-3.7-5.8-1.7-7.9.2z"/><path fill="#B794F4" d="M357.4 236.1c3.1 7-3.3 13.9-5.2 20.4-2 6.8-3.2 16.7-.3 23.4 2.1 4.8 6.6 5.5 9.3.5 1.6-3.1 1.6-8.2 1.4-11.8-.4-7.1-.4-15.6 4.9-21.3 4.5-5.1 13.9-3.9 17.4-10.6 3.8-7.4 6.7-20.7-2.6-19.7-3.9.5-11-.6-21.3-.5-5.9.1-12.1-.5-16.6 3.8-8.3 8.2 10.2 9.7 13 15.8z"/><path fill="#231F20" d="M318.3 167.9c0 21.1 16.3 38.2 36.5 38.2 20.1 0 36.5-17.1 36.5-38.2s-16.3-38.2-36.5-38.2-36.5 17.1-36.5 38.2zm204.5 41.4c0 23.9 18.5 43.2 41.2 43.2 22.8 0 41.2-19.4 41.2-43.2S586.8 166 564 166c-22.8 0-41.2 19.4-41.2 43.3z"/><path fill="#F2F3F4" d="M548.8 456.4c-22.2-3.9-12.2-30.8 6.5-29.1 21.4 1.9 12.6 32.5-6.5 29.1zm-174.3-105c-21.6-16.9-74.8 2.1-63.5 34.4 15.7 45.1 97.9-7.6 63.5-34.4z"/><path fill="#231F20" d="M545.4 443.3c-10.8 45.8-54.5 55.3-94.8 53.9-33.2-1.2-82.9-.5-106.3-29.9-27.2-34-16.4-99.2 20.6-121.3 34.7-20.8 93-19 132.2-15.3 47.6 4.4 57.4 73.9 48.3 112.6z"/><path fill="#FFF" d="M478 478.4c-7.7 35.5 39.5 32 56.6 13.4 16-17.5 18-47.9-9.8-50.6-23.9-2.3-41.8 14.4-46.8 37.2zm-160.6-4.9c10.4 27 52.3 25.9 57.3-4.2 6.8-41.4-75.4-43-57.3 4.2z"/><path fill="#0DAC63" d="M300.9 470.3c-8.1-6.1-6.4-12.2-5.3-19.1 1.8-11.3 11.8-19.5 32.8-20 10.7-20.8 33.5-33.4 57.4-29.5 24.4 3.9 42.5 23.8 45.6 47.6 15.9 7.1 21.7 16.9 20.1 26.8-1.1 6.9-3.4 12.9-13.1 16.2 0-.1-68 15.3-137.5-22z"/><path fill="#414042" d="M318.5 483.3c-.3 11.1 8.4 20.4 19.6 20.8 11.1.3 20.4-8.5 20.8-19.6.3-11.1-8.6-16.3-19.7-16.6-11.2-.3-20.3 4.3-20.7 15.4z"/><path fill="#D1D3D4" d="M326.3 484.4c-.2 6.9 5.2 12.6 12.1 12.8 6.9.2 12.6-5.2 12.8-12.1.2-6.9-5.3-10-12.1-10.2-7-.3-12.6 2.6-12.8 9.5z"/><path fill="#414042" d="M425 497.7c-1.8 11-12.1 18.5-23.1 16.8-11-1.8-18.5-12.1-16.8-23.1 1.8-11 11.5-14.4 22.5-12.7 11 1.7 19.1 8 17.4 19z"/><path fill="#D1D3D4" d="M417.5 497.2c-1.1 6.9-7.6 11.6-14.5 10.5-6.9-1.1-11.6-7.6-10.5-14.5 1.1-6.9 7.2-9.1 14.1-8 6.8 1.2 12 5.1 10.9 12z"/><path fill="#CFFBD5" d="M345.2 442.2s2.4-34.5 38.6-28.3c36.2 6.2 28.3 39.4 28.3 39.4s-42.5 3.9-66.9-11.1z"/><path fill="#FFF" d="M384.8 414.1c-1.7 7.1-4 13.2-5.7 20.2-1.4 5.5-3.5 12.1-4.6 17.7 19.4 3 37.6 1.4 37.6 1.4s7.8-32.7-27.3-39.3zm28.7-8.5c-.8 51.8 76.9 23.5 91.8-3.3 15.7-28.4-5.9-51.8-34.1-44.6-25.3 6.5-57.2 17.8-57.7 47.9z"/><path fill="#FFF" d="M490.1 141S344.7 89.6 313.4 241.3C282 392.8 549 402.9 572.8 287.6 596.6 172.3 490.1 141 490.1 141z"/><path fill="#231F20" d="M429.3 293.9c0 22.2 24.1 36.9 43.8 36.9 19.8 0 34.6-12.6 34.6-34.8 0-22.2-26.4-46.7-46.2-46.7-19.8.1-32.2 22.4-32.2 44.6zM387.8 266c1.8 17.3-15.7 30.8-31.1 32.4-15.4 1.6-28-7-29.9-24.3-1.8-17.3 16.8-38.6 32.2-40.2 15.5-1.6 27 14.8 28.8 32.1z"/><path fill="#E6E7E8" d="M349.7 277.6c0 3.8 3.1 6.9 6.9 6.9 3.8 0 6.9-3.1 6.9-6.9 0-3.8-3.1-6.9-6.9-6.9-3.8 0-6.9 3-6.9 6.9zm96.8 20.6c0 3.8 3.1 6.9 6.9 6.9 3.8 0 6.9-3.1 6.9-6.9 0-3.8-3.1-6.9-6.9-6.9-3.8 0-6.9 3.1-6.9 6.9z"/><path fill="#231F20" d="M384.9 311c-.7 4.4 3.1 8.8 8.6 9.7 5.5.9 10.5-2 11.2-6.4.7-4.4-3.1-8.8-8.6-9.7-5.4-.9-10.4 2-11.2 6.4z"/><path fill="none" stroke="#231F20" stroke-width="3.76" stroke-linecap="round" stroke-linejoin="round" stroke-miterlimit="10" d="M368.1 324.3s14.9 23.3 42.2 11.2"/></svg>