<svg version="1.1" id="Layer_1" xmlns="http://www.w3.org/2000/svg" x="0" y="0" viewBox="0 0 692 540" xml:space="preserve"><style>.st1{fill:#fff}.st10{fill:#231f20}.st13{fill:#414042}.st14{fill:#d1d3d4}</style><path d="M359 435.5c387.2-.1 387.2 95.3 0 95.2-387.2.1-387.2-95.3 0-95.2z" fill="#fcf3b3"/><path class="st1" d="M249.2 127.3c-8.7 0-16.9 2.1-24.1 5.9-18.7-54.1-102-60.3-128.4-9.5-36.6-22.4-87.6 6.6-86.4 50H301c-2.8-26-24.9-46.4-51.8-46.4zm392 138.2c-6.5 0-12.6 1.6-18 4.4-14-40.4-76.4-45.1-96.1-7-27.4-16.6-65.5 5-64.6 37.4H680c-2.1-19.5-18.7-34.8-38.8-34.8z"/><path d="M298.2 403.4c0-.2 0-.4-.1-.5-.6-6.3-5.4-17.2-13.1-14.7-4.6 1.9-8.3 10.6-14 4.9-2.8-55.1-17.2-54.2-54.9-53.2-7.9-6.5 5.5-9.9 4.6-16.2.1-10.9-22.2-14.5-30.6-7.3-15.7 12.5 9.4 15.9-.5 24.3-36.6-1.9-54.2-.6-54.9 53.1 6.8 6.7 9.1-6.1 15.7-5.3 6.2 0 11.2 7.9 11.2 17.5 0 9.7-5 17.5-11.2 17.5-6.2 1-9.4-12-15.9-5 2 49.9 13 55.2 55.1 53.1 7.9-6.7-5.4-9.5-4.7-16.2 0-6.2 7.9-11.1 17.5-11.1s17.5 5 17.5 11.1c.9 6.3-12.5 9.7-4.6 16.2 41.9 2.4 52.5-4.7 55.2-53.5 5.6-5.3 9.3 2.8 13.7 5.1 9.2 3.8 13.1-10.6 14-19.8z" fill="#fec667"/><path d="M243.5 348.5c-7.1-1.5-36.1-5.3-34.2 6.6 21.3 7.6 34.6 1.2 37.8 37.1.8 5.7 5.4 19.5 11.4 8.2 8.7-23.7-3-53.6-15-51.9z" fill="#f9d7a5"/><path d="M271.7 286.2c-5.7-6.8-9.7 6.1-15.5 5.1-6.5.2-11.6-7.7-11.6-17.5 0-9.9 5.1-17.7 11.6-17.5 6.2-.9 9.4 11.8 15.4 5.3-1.5-50.7-14.3-54.9-55.3-52.9-7.9-6.7 5.4-9.5 4.7-16.2.1-6.2-8.4-11.3-17.6-11.1-9.7 0-17.5 5-17.5 11.1-.9 6.3 12.5 9.7 4.6 16.2-37.8-1-52-1.8-54.9 53.3-6.7 6.4-9.2-6.2-15.7-5.4-6.2 0-11.1 7.9-11.1 17.5 0 9.7 5 17.5 11.1 17.5 6.1 1 9.1-11.3 15.5-5.5 2.7 48.6 13.2 55.9 54.8 53.5 8.9-8.3-14.9-11-.4-23.6.3-.2.8-.6 1.1-.9 9.7-8.4 38.6-.6 27.7 13.2-3 2.6-7.8 6.4-2.3 10.6 41.4 2 53.2-2.8 55-52.5.4.1.4 0 .4-.2z" fill="#f56565"/><path d="M227.4 227.1c7.8 6.2-1.7 11.1-6.3 14.6-8.8 3.7-8.9 45.2 4.5 40 5.5-2.4 2-15.2 2.7-20.4 2.6-22.7 22.5-16.9 27.4-30.7 2.6-14.7-9.5-15-21.7-16-5.5-.5-15.9-2.2-19.2 3.7-4.4 8 8.9 5.9 12.6 8.8z" fill="#fc8181"/><path d="M422.7 387.5c-6.4-.8-8.9 11.6-15.6 5.4-2.8-55.2-17.1-54.3-54.9-53.3-9.2-7.4 10.4-10.6 3-20.7-2.7-3.8-7.1-5.9-11.6-6.7h.1c-9.2-2.3-22.9 3-22.4 10.6-.7 6.6 12.5 9.6 4.7 16.2-37.9-.8-53.2-2.6-54.9 53.1 5.5 6 8.7-3.2 13.3-4.8 18.4-5.1 18.2 39.4 0 33.9-4.6-1.6-8-11-13.5-4.6 2 49.9 13 55.2 55.1 53.1 7.9-6.7-5.4-9.5-4.7-16.2 0-6.2 7.9-11.1 17.5-11.1s17.5 5 17.5 11.1c.9 6.3-12.5 9.7-4.6 16.2 41.9 2.4 52.3-4.9 55-53.5 6.4-5.8 9.5 6.5 15.5 5.5 13.7.5 15.3-34.3.5-34.2z" fill="#008cd1"/><path d="M344.7 368.2c7.4 2.2 16.6 3.4 23.5 7.2 10.4 2.7 8.8 35.8 16.8 24 2.1-3.4 1.2-9.6 1.4-13.6 10.7-38.5-72.1-31.1-41.7-17.6z" fill="#00aae6"/><path d="M398.8 286.4c-8.1 11.2-19 .7-18.7-12.8-.4-13.7 11-23.9 18.7-12.7 2.1 2 5.3 3.9 8.1.5-1.6-51.1-14.3-54.6-55.5-52.8-7.9-6.7 5.4-9.5 4.7-16.2.1-6.9-9.4-10.8-15.7-11.2-9.5-.9-19.3 4.5-19.1 11-.9 6.3 12.5 9.7 4.6 16.2-37.8-1-52-1.8-54.9 53.3-6.3 6.2-9.3-6.3-15.6-5.5-6.3 0-11.2 7.9-11.2 17.5 0 9.7 4.9 17.5 11.2 17.5 5.8 1 9.4-11.3 15.4-5.6 2.5 49 13.4 55.8 55.1 53.5 7.9-6.4-5.6-9.5-4.7-16.2-.3-13.1 30.3-14.6 34.3-3 5.4 9.2-12.2 12.4-3.9 19.4 42.4 2 52.9-3 55.1-53.1-2.5-3.7-5.8-1.7-7.9.2z" fill="#553c9a"/><path d="M357.4 236.1c4.1 11.1-13.1 23.7-5.5 43.8 2.1 4.8 6.6 5.5 9.3.5 4-10.4-2.5-24 6.3-33.1 4.5-5.1 13.9-3.9 17.4-10.6 3.8-7.4 6.7-20.7-2.6-19.7-6.7 1.4-29.4-4.3-37.9 3.3-8.3 8.2 10.2 9.7 13 15.8z" fill="#b794f4"/><path class="st10" d="M318.3 167.9c.8 50.2 72.1 50.2 73 0-.8-50.2-72.2-50.2-73 0zm204.5 41.4c1 56.9 81.5 56.7 82.4 0-1-56.9-81.5-57-82.4 0z"/><path d="M548.8 456.4c-22.2-3.9-12.2-30.8 6.5-29.1 21.4 1.9 12.6 32.5-6.5 29.1zm-174.3-105c-21.6-16.9-74.8 2.1-63.5 34.4 15.7 45.1 97.9-7.6 63.5-34.4z" fill="#f2f3f4"/><path class="st10" d="M545.4 443.3c-10.8 45.8-54.5 55.3-94.8 53.9-33.2-1.2-82.9-.5-106.3-29.9-27.2-34-16.4-99.2 20.6-121.3 34.7-20.8 93-19 132.2-15.3 47.6 4.4 57.4 73.9 48.3 112.6z"/><path class="st1" d="M478 478.4c-7.7 35.5 39.5 32 56.6 13.4 16-17.5 18-47.9-9.8-50.6-23.9-2.3-41.8 14.4-46.8 37.2zm-160.6-4.9c10.4 27 52.3 25.9 57.3-4.2 6.8-41.4-75.4-43-57.3 4.2z"/><path d="M300.9 470.3c-8.1-6.1-6.4-12.2-5.3-19.1 1.8-11.3 11.8-19.5 32.8-20 23.1-47.9 97.5-34.7 103 18.1 23.3 9 28.4 34.4 7 43 0-.1-68 15.3-137.5-22z" fill="#0dac63"/><path class="st13" d="M318.5 483.3c-.3 26.5 39 27.7 40.4 1.2 1.5-21.5-40.7-22.7-40.4-1.2z"/><path class="st14" d="M326.3 484.4c-.4 16.3 24.4 17 24.9.7 1-13.3-25.2-14-24.9-.7z"/><path class="st13" d="M425 497.7c-4.7 26.1-43.5 20-39.9-6.3 2.5-21.4 44.2-14.9 39.9 6.3z"/><path class="st14" d="M417.5 497.2c-2.7 16.3-27.5 12.4-25-4 1.5-13.5 27.7-9.3 25 4z"/><path d="M345.2 442.2c3.5-46.8 77.8-32.4 66.9 11.1 0 0-42.5 3.9-66.9-11.1z" fill="#cffbd5"/><path class="st1" d="M384.8 414.1c-3.4 12.7-7.5 25.1-10.3 37.9 19.4 3 37.6 1.4 37.6 1.4s7.8-32.7-27.3-39.3zm28.7-8.5c-.8 51.8 76.9 23.5 91.8-3.3 31.5-72.1-93.5-47.1-91.8 3.3z"/><path class="st1" d="M490.1 141S344.7 89.6 313.4 241.3C282 392.8 549 402.9 572.8 287.6S490.1 141 490.1 141z"/><path class="st10" d="M429.3 293.9c1.4 43.6 79.8 52.8 78.4 2.1-6.9-52.2-77.1-68.7-78.4-2.1zM387.8 266c2.5 34.1-57.7 47.7-61 8.1.9-41.3 55-59.7 61-8.1z"/><path d="M349.7 277.6c-.1 8.9 13.9 8.9 13.8 0 .1-8.9-13.9-9-13.8 0zm96.8 20.6c-.1 8.9 13.9 8.9 13.8 0 .1-8.9-13.9-8.9-13.8 0z" fill="#e6e7e8"/><path class="st10" d="M384.9 311c-1.9 10.4 18.3 13.8 19.8 3.3 1.9-10.4-18.1-13.8-19.8-3.3z"/><path d="M368.1 324.3s14.9 23.3 42.2 11.2" fill="none" stroke="#231f20" stroke-width="3.76" stroke-linecap="round" stroke-linejoin="round" stroke-miterlimit="10"/></svg>