<svg version="1.1" id="Layer_1" xmlns="http://www.w3.org/2000/svg" xmlns:xlink="http://www.w3.org/1999/xlink" x="0" y="0" viewBox="0 0 1200 700" xml:space="preserve"><style>.st1{fill:#00785f}.st3{fill:#019a6d}.st4{fill:#9fc54d}.st5{fill:#024f39}</style><defs><path id="SVGID_1_" d="M0 0h1200v700H0z"/></defs><clipPath id="SVGID_00000013889938757600928280000015289862587902212518_"><use xlink:href="#SVGID_1_" overflow="visible"/></clipPath><g clip-path="url(#SVGID_00000013889938757600928280000015289862587902212518_)"><path class="st1" d="M88.7-46.4C37.1 3.9 158.1 93.8 204.5 109.9c40.7 10-66.5-186-115.8-156.3z"/><path d="M105.6-18.4c-.1-.2 33.2 3.6 50.4 19.6-17.2-11.4-43.8-18.4-49.1-18.3 40.1 49 18.1 20.8 66.6 45.5-11.7-7-30.4-10.9-35.9-10.5 8.4 9.9 16.5 19.5 23.8 28.4.4.1 16.2 1.3 26.5 11.6-10.7-5.6-21.8-10.5-25.3-10.1 49.9 60.7 47.7 62.3-1.1.7-3.4 18.7 8.2 32.7 7 34-11-12.7-4.9-43.5-32.2-64-5.6 22.7 5.7 43.5 4.4 45-13.4-23.5 4.8-48.4-35-79.9-2.7 2.8 4.5 33.3 2.2 46.5-.5-1.4-5.5-47.7-3.3-47.6-30.6-31.9-28.2-33.2 1-.9-.1 0 0 0 0 0z" fill="#043a2c"/><path class="st3" d="M78.6-40.2C5.3-28 48.8 96.3 82.4 133.5c29.5 25.4 57.8-173.5-3.8-173.7z"/><path class="st4" d="M76-10.9s26.7 18.4 31.6 38.8c-8-16.6-26.8-34.7-31.5-37.1 4.6 58.8 4.6 24.6 29.7 66.2-6.1-10.9-19.4-22.6-24.7-25 1.4 27.8 1.2 27.4 19.4 53.5-5.2-4-12.9-19.3-16.1-18.8 5.8 70.2 3 70.5-1.4.1-14.5 12.6-13.3 29-15 29.3-2.4-15 22.7-32.6 11.8-64C60.7 46.7 57.5 68 55.6 68.4 57.2 45.3 89.8 35.6 74.7-9c-4 1-16.9 27.5-27 36.5.2-1.1 25.6-39.9 26.8-37.9-6.8-39-4.1-39.2 1.5-.5z"/><path class="st1" d="M6.6-26.3c-33.5 45.2 8.9 54.1-6.8 83.5-14.8 29.7 3.8 31.5-.7 50.1-3.3 8.4-.1 17 4.3 24.4 0 0 9.5-9.6 8.8-20-2.1-23.1 16.4-16.2 14.6-58 6.4-27.6 52.2-49-7.3-91.1.1-.1 1-4.4-12.9 11.1z"/><path class="st3" d="M1.5 95.2s19.1 30.3 41 16.9c.1 0-11.7-24.9-41-16.9z"/><path class="st3" d="M-5.7 152.3S26 123.5 3.2 94.1c0 0-27.1 18.1-8.9 58.2zm50.5 7.1s23.6 27 4.5 44.2c0-.1-20.5-18.4-4.5-44.2z"/><path class="st3" d="M101.6 168.8s-36.6 22.2-58.3-8c0-.1 25.1-20.9 58.3 8zm-34.5-28.2s-14.5-27.8-46.4-15.7c0-.1 12.1 31.6 46.4 15.7z"/><path class="st3" d="M20.9 181.8s26.2-26 1.4-57.6c-.1 0-31.4 24.7-1.4 57.6z"/><path class="st3" d="M48.4 162.8c1.6 9.1-45.8-48.3-68.2-118 32.5 75.9 67.9 117.6 68.2 118z"/><path class="st5" d="M1062.7-49.9c-8.2 18.8-84.5 11.8-87.1 55.1 5 2.1 6.1 5.8 18.8-7.1 32.8-36.9 40.9-23.7 68.2-39.1 5.4 37.6-55.7 1.2-71.4 60.7 22.9-3 21.5-30.6 64.9-37.3 0 0 3.9 8.6-21.3 21.4-25.2 12.8-30.6 19.5-33.5 24.8-21 26.3-11.5 33.1 6 8.4 0 0 9.9-13 18.6-16.7s27.7-21.7 27.7-21.7-9.6 32.1-17.2 36.8c-26 11.4-66.3 32.7-60.6 67.1 9.8 3.6 24.7-42.2 31.1-41.9 4.3-2.9 27.3-17.7 28-20.2s-6.2 27.6-19.7 38.2c-34.1 21.5-46.1 107.5-8.3 22.3 4-4.3 14.9-21.1 15.5-23 .5-1.9-1.3 17.4-5.7 23s-4.6 26.7-.2 25.9c14.7-10.3 10.2-79.3 25.6-92.4 9.4 15.2-3.5 34.2 5.1 34.8 13.9-9.4-5.1-38.8.1-45.7 0 0 7.2 14.3 7.3 21.8 0 0 3.7 4.4 3.8-3.7-3.1-20.4-11.2-21.1-2.9-37.6 13 20.2 1.4 43.7 10.1 41.6 4.6-1.5 4.5-31.5-6.3-48.1l4-19.4c.8 31 19 30.3 10.7 72.5 0 0-.6 4.6 4.5 1.3 20.3-25.6-19.9-59.1-9.7-76.4 23.8 20.6 12.8 43.1 21.7 55.8 7-3.4 4-23.3-1.3-33.1-5.7-7-16.4-21.6-16.7-25.8 7.8-6.4 30 37.3 32.7 30.9 11.9-12.1-35.5-32.4-42.5-53.2z"/><path class="st3" d="M1164.3-37.9c60.2 40.3-43.4 151.3-86.4 175.5-38.4 17.4 32-196.6 86.4-175.5z"/><path class="st4" d="m1152.6-7.1-.2-.1c.1.5-32 9.5-46.2 28.8 15.1-14.2 40.1-26.1 45.4-27-31.3 56.4-14.5 23.7-57.8 57.2 10.6-8.9 28.2-16.4 33.7-16.8-6.5 11.3-12.8 22.3-18.5 32.5-.2.2-16.2 4.3-24.2 16.3 9.6-7.4 19.8-14.5 23.3-14.6-38.6 69.3-36.2 70.5 1.3.5 6.8 18-2.2 33.7-.9 35 9.2-15-3.8-42.4 20.3-69.1 9.8 21.6 2.2 44 3.8 45.3 8.9-26.1-13.6-47 20.1-85.5 3.1 2.3 1.9 33.7 6.2 46.4.3-.5-3.3-49.5-5.4-47.8 23.9-36.2 23-39.4-.9-1.1.1 0 .1 0 0 0z"/><path class="st5" d="M1164.2 52s13.2 32.9 36.9 23.8c0-.1-7-26.3-36.9-23.8z"/><path class="st5" d="M1147 106.2s35.9-22.3 19-55c0 .1-29.6 12.8-19 55zm47.8 15.9s18.1 30.4-3.5 43.7c0 .1-16.6-21.4 3.5-43.7z"/><path class="st5" d="M1248.4 141.4s-39.5 15-55.2-18.2c-.1 0 28-15.8 55.2 18.2zm-28.6-33.6s-9.1-29.6-42.3-23.6c0 0 6.1 33 42.3 23.6z"/><path class="st5" d="M1167.5 139.6s30.1-20.6 11.6-55.8c0 .1-34.8 18.5-11.6 55.8z"/><path class="st5" d="M1197.7 126.1c.2 9.5-36.1-55.6-45.1-126.8 17.9 79.5 44.8 126.4 45.1 126.8z"/></g></svg>