<?xml version="1.0" encoding="utf-8"?>
<!-- Generator: Adobe Illustrator 22.0.1, SVG Export Plug-In . SVG Version: 6.00 Build 0)  -->
<svg version="1.1" xmlns="http://www.w3.org/2000/svg" xmlns:xlink="http://www.w3.org/1999/xlink" x="0px" y="0px"
	viewBox="0 0 1200 700" enable-background="new 0 0 1200 700" xml:space="preserve" fill="#ebfbcb">
	<rect width="1200" height="700" />
	<g opacity="0.1">
		<path fill="#000" d="M1095.8,244.8c-6.7,0.1-12.9,1.3-19.7,0.1c-4.3-0.8-9.5-1.7-13.6,0.7c-7.8,4.5-4.7,22.4,4.1,24.2
		c5.1,1,10-1.9,15-2.5c3.4-0.4,6,0.3,8.6,0.6c7.8,0.7,17.8-1.5,18.3-10.9C1108.6,249.4,1103.3,244.8,1095.8,244.8z" />
		<path fill="#000" d="M936.2,121.3c-12.4-2.1-23.8,6.2-35.7,8.1c-8.1,1.3-14.3-0.2-20.8-0.5c-18.7-1-42.1,5.7-42.7,29.9
		c0,0.2,0,0.5,0,0.7c0,0.3,0,0.5,0.1,0.7c1.4,19.6,14.6,30.8,32.4,29.8c16.1-0.9,30.9-4.8,47.2-2.5c10.5,1.5,23.1,3.4,32.5-3.2
		C967.1,171.5,957.7,125,936.2,121.3z" />
		<path fill="#000" d="M346.6,94.5c-9.1,0.1-17.5,1.8-26.6,0.2c-5.9-1-12.9-2.3-18.4,0.9c-10.5,6.2-6.4,30.4,5.6,32.8
		c6.9,1.4,13.6-2.6,20.3-3.3c4.6-0.5,8.1,0.5,11.7,0.8c10.6,1,24.1-2,24.8-14.8C364,100.7,356.8,94.4,346.6,94.5z" />
		<path fill="#000" d="M227.8,166.7c-0.4-16.3-11.8-26.1-28-25.9c-14.6,0.2-28.1,2.8-42.7,0.3c-9.4-1.6-20.7-3.7-29.4,1.4
		c-16.8,9.9-10.3,48.8,9,52.6c11.1,2.2,21.8-4.2,32.6-5.3c7.4-0.8,12.9,0.7,18.7,1.2c16.8,1.5,38.3-3.1,39.8-23.1
		c0-0.2,0.1-0.4,0.1-0.6C227.8,167.1,227.8,166.9,227.8,166.7z" />
	</g>
</svg>