<svg version="1.1" id="Layer_1" xmlns="http://www.w3.org/2000/svg" xmlns:xlink="http://www.w3.org/1999/xlink" x="0" y="0" viewBox="0 0 1200 700" xml:space="preserve"><style>.st1{fill:#019a6d}.st2{fill:#9fc54d}.st3{fill:#043a2c}.st4{fill:#00785f}</style><defs><path id="SVGID_1_" d="M0 0h1200v700H0z"/></defs><clipPath id="SVGID_00000124152468449198753350000013070647760389761938_"><use xlink:href="#SVGID_1_" overflow="visible"/></clipPath><g clip-path="url(#SVGID_00000124152468449198753350000013070647760389761938_)"><path class="st1" d="M365.2 705.9c-66 31.5-102.3-143.9-87.8-188.6 44.2 22.3 127.2 137.9 87.8 188.6z"/><path class="st2" d="M347.4 677.2c.1.2 12.2-32.2 5.6-55.6 2.2 21.2-3.7 48.9-6.3 53.8-19.6-45.1-14.8-31.1-9.9-82.2-1.6 9.2-4.1 34-8 37.4-14.9-30-12-28.9-13.3-65.2.1 12.6-.5 25-2.6 28-15.1-32.3-24.2-58.7-26.3-55.5.2.5 11.2 24 25.2 56.2-19.4-5.2-26.6-25.1-28.3-21.6 9.6 15.2 37.7 25.8 44.1 58.7-22.2-5.3-38.2-24.8-38.4-25 10.2 23.4 43.7 12.6 56.1 69.6-3.9 1.2-28.6-19.7-41.8-23.8-.2.4 42.9 28.4 42.3 25.4 13.5 38.7 16.4 38.9 1.6-.2z"/></g><g clip-path="url(#SVGID_00000124152468449198753350000013070647760389761938_)"><path class="st3" d="M374.3 716.8c-58.2-16.1 2.7-124.6 41.8-128.7 12.7 39.3 13.7 125.8-41.8 128.7z"/><path class="st4" d="M377.4 694.7c0-.1 25.1-7 32.9-20.8-9.4 10.1-28.2 18.9-32.5 19.6 10.3-31.3 8.7-22.2 36.5-40.6-5.4 2.8-20.6 12.4-25 11.5 6.2-20.5 6.1-19.9 25.5-34.5-4.7 1.3-14.1 11.2-16.6 9.9 17.1-49.3 14.7-50.1-1.1-.4-10.4-13.1-4.6-25.5-7.8-24.9-1.8 7.1 11.4 34.7-1.1 49.5-13.7-15.3-11-33.5-13.9-32.1-.4 12.6 20.9 37.7 2.5 61.1-3.2-1.8-9.1-24.1-15.6-33.4-.2.6 14.1 36.1 15.2 34.3-10.9 23.3-9.1 25.3 1 .8z"/></g><g clip-path="url(#SVGID_00000124152468449198753350000013070647760389761938_)"><path class="st4" d="M114.1 671s10.4-38.1 37.8-31c0 0-4.4 29.9-37.8 31z"/><path class="st4" d="M88.2 613.1s42.6 20.1 28 58.4c0 0-34.4-10.4-28-58.4zm50.9-23.7s16.2-36-9.4-48c0 0-15.7 25.9 9.4 48z"/><path class="st4" d="M196 561.3s-45.7-11.6-58.8 27.2c-.1 0 33 13.9 58.8-27.2zm-27.3 40.8s-6.3 34-43.9 31.5c0-.1 2.6-37.3 43.9-31.5z"/><path class="st4" d="M106.7 573.5s35.9 19 19.9 60.3c.1 0-40.9-16-19.9-60.3z"/><path class="st4" d="M141.8 584.6c-1.1-10.5-32.8 66-33.9 146.1 9.8-90.2 33.7-145.5 33.9-146.1z"/></g><g clip-path="url(#SVGID_00000124152468449198753350000013070647760389761938_)"><path class="st4" d="M1094.7 718c-53.1-22.4 24.7-133.6 58.3-151.2 10.4 39.7-6.8 143.3-58.3 151.2z"/><path class="st3" d="M1101.2 692.5c-.1-.2 24.7-10.5 34.2-27.1-10.7 12.6-29.5 24.4-33.6 25.6 14.6-37.9 11.9-24.6 40.6-50.8-7.6 8-21 15.6-25.2 16.5 7.9-23.2 10.6-23.3 29.4-42.7-7 6.8-14.4 13.3-17.1 13.8 10-26 19.9-45.4 16.9-44.9-.1.4-7.4 19.3-17.9 44.6-7.7-13.7-.1-28.8-3.3-27.5-2 8.9 3.7 41.8-9 56.4-9.8-16.1-5.7-35-7.2-35.7-1.5.5-2.8 20.5 6.7 36.9-16.8 37.8-13.8 39.3-23.9-3.4-.1.1 7.2 39.5 8.6 37.5-14.1 28-12.5 29 .8.8z"/></g><g clip-path="url(#SVGID_00000124152468449198753350000013070647760389761938_)"><path class="st1" d="M1085.3 717.5c-55.5 22.6-75-96-59.8-131.9 35.1 15.9 95.4 94 59.8 131.9z"/><path class="st2" d="M1072.6 697.5c0-.2 12.1-22.8 8.3-39.4.5 14.9-6.3 34.7-8.7 38.2-16-35.8-7-22.8-3.2-58.3-.2 9.9-5.7 23.6-8.5 27-10.1-20-7.9-21.6-6.5-45.8-.6 8.6-2.1 17.8-3.9 19.9-21.5-51.5-23.5-50.6-1 .5-15.7-3.4-20.2-17.5-21.9-14.7 3.8 6.5 31.8 22 32.4 40.7-19.5-2.9-29.6-19.2-30.9-16.4 9.4 10.8 39.9 17.2 42.5 47.6-3.3.8-22.3-13.2-32.8-16.2.7.7 33 19.2 33.1 17.2 8.6 27.4 10.3 25.8 1.1-.3z"/></g><path d="M729.2 731c7.6-17.5 79.2-11.3 81.6-51.6-15.7-7.7-39.1 37.3-57.5 34.5-14.3 1.8-24 8.7-24 8.7s-1-13 4.4-16c14.9-8.7 22.8 4.1 41.9-11.4 12.7-10.5 24-29.8 20.6-29.4-12.7-2.6-33.2 35.2-50 31.5-14.9 1.6-10.8 3.4-10.8 3.4s-3.7-8 20-20c23.6-12 28.7-18.3 31.3-23.3 19.2-23.2 10.1-30.9-5.6-8-2.4 6.7-41 31.1-43.3 35.9 0 0 9-30.1 16.1-34.5 24.4-10.8 62.1-30.7 56.7-62.9-18 2.8-4.8 27.7-55.4 58.1-3.7-18.4 55.2-66.1 48.2-88.9-10.8-7.9-16.9 29.9-22 32.2-3.7 4.1-14 19.8-14.5 21.5s1.2-16.3 5.3-21.5c7.7-12.4.4-41.9-7.4-11-.3 20.2-7 60.3-16.4 73.4-6.6-3.2 1.4-32.7-4.8-32.6-12.1 4.6 4.5 40.9 0 42.7 0 0-6.8-13.4-6.8-20.4-10.2-4.7 4.1 28 3.5 25.3l-4.4 13.5c-8.5-6.2-3.3-41.4-9.5-39-4.3 1.4-4.2 29.5 5.9 45.1l-3.7 18.1c-.2-16.6-18.4-47.2-10.1-68-9.2-8.3-14.7 23-1.3 42.4 21.8 45.7-5.5 25-10.6-2.2 1.2-13.7-2.5-30.4-6.8-17.9-6.2 14.2 15.3 40.5 20 50.9-7 6.2-27.9-34.4-30.6-28.9-10.2 16 42.7 33.8 37.4 50l2.6.3z" clip-path="url(#SVGID_00000124152468449198753350000013070647760389761938_)" fill="#019a6d"/></svg>