<?xml version="1.0" encoding="utf-8"?>
<!-- Generator: Adobe Illustrator 22.0.1, SVG Export Plug-In . SVG Version: 6.00 Build 0)  -->
<svg version="1.1" id="Layer_1" xmlns="http://www.w3.org/2000/svg" xmlns:xlink="http://www.w3.org/1999/xlink" x="0px"
	y="0px" viewBox="0 0 1200 700" enable-background="new 0 0 1200 700" xml:space="preserve">
	<g>
		<defs>
			<rect id="SVGID_27_" width="1200" height="700" />
		</defs>
		<clipPath id="SVGID_1_">
			<use xlink:href="#SVGID_27_" overflow="visible" />
		</clipPath>
		<g clip-path="url(#SVGID_1_)">
			<g>
				<g>
					<path fill="#B04842" d="M360.6,535.6c0-0.5-0.5-0.6-1-0.6c-2,0-4,0-6,0h-0.1l0,0l0,0h-0.1c-0.1,0-0.3,0-0.4,0.1
					c-0.4,0.1-0.7,0.4-0.7,0.7c0,8.2,0,16.5,0,24.7c0,19.8,0,39.5,0,59.3c0,23.8,0,47.6,0,71.4c0,20.6,0,41.1,0,61.7
					c0,6.8,0,13.6,0,20.5c0,2.8-0.5,6.1-0.1,9c0,0.2,0,0.3,0.1,0.5c0,0.1,0,0.1,0,0.2c0,0.1,0,0.3,0,0.4c0,1,2.2,0.7,2.3-0.1
					c0.2-8.2,0.4-16.5,0.6-24.7c0.5-19.8,1-39.5,1.5-59.3c0.6-23.8,1.2-47.6,1.8-71.4c0.5-20.6,1-41.1,1.5-61.7
					c0.2-6.8,0.3-13.6,0.5-20.5c0.1-3.1,0.7-6.5,0.2-9.6C360.6,535.9,360.6,535.8,360.6,535.6z" />
				</g>
			</g>
			<g>
				<g>
					<path fill="#B04842" d="M381,535.6c0-0.5-0.5-0.6-1-0.6c-2,0-4,0-6,0h-0.1l0,0l0,0h-0.1c-0.1,0-0.3,0-0.4,0.1
					c-0.4,0.1-0.7,0.4-0.7,0.7c0,8.2,0,16.5,0,24.7c0,19.8,0,39.5,0,59.3c0,23.8,0,47.6,0,71.4c0,20.6,0,41.1,0,61.7
					c0,6.8,0,13.6,0,20.5c0,2.8-0.5,6.1-0.1,9c0,0.2,0,0.3,0.1,0.5c0,0.1,0,0.1,0,0.2c0,0.1,0,0.3,0,0.4c0,1,2.2,0.7,2.3-0.1
					c0.2-8.2,0.4-16.5,0.6-24.7c0.5-19.8,1-39.5,1.5-59.3c0.6-23.8,1.2-47.6,1.8-71.4c0.5-20.6,1-41.1,1.5-61.7
					c0.2-6.8,0.3-13.6,0.5-20.5c0.1-3.1,0.7-6.5,0.2-9.6C381,535.9,381,535.8,381,535.6z" />
				</g>
			</g>
			<g>
				<path fill="#E76158" d="M478,505.6c-4.1-11.3-10.5-22-17.7-31.6c-8.9-11.8-19.8-22.4-32.5-30c-23.6-14.1-54.9-17-79.6-4
				c-6.8,3.6-13.1,8.3-18,14.2c-2.8,3.5-5.1,7.4-6.5,11.6c-0.7,2.1-1.3,4.3-1.6,6.5c-0.2,1.6,0,3.5-0.6,5c-0.5,1.1-1.7,2.2-2.6,2.9
				c-2.5,1.9-5.2,1.9-8,0.3c-4-2.2-6.7-6.2-7.7-10.6c-1.1-4.6-0.4-9.5,1.9-13.6c2.4-4.3,6.3-7.1,10.1-9.9
				c14.6-10.6,31.3-22.8,37.2-40.7c2.3-7,1.8-13.7,0.6-20.8c-1.1-6.4-3.1-13-6.9-18.3c-4.2-6.1-10.3-8.7-17.5-8.7h-0.1
				c-6-0.3-14.2,0.8-17.6,6.4c-2,3.3-3.8,7.6-3.8,11.4c0,4.2,2.7,7.1,6.2,9c5.2,2.7,12.5,3.7,17.2-0.6c0.9-0.8,2.9-3.1,2.7-4.4
				c0.5,0.3,0.9,0.7,1.2,1.1c3,3.4,2.4,8.9,2.1,13.1c-0.6,7.8-2.3,15.5-6.6,22.1c-6,9.1-15.2,12.9-25.2,16.3
				c-13.3,4.5-24.2,14.5-32,26c-17.6,26.2-19.5,62.4,1.7,87.2c12.9,15.1,32.2,24.5,51.4,28.3c18.4,3.7,37.2,2,54.8-4.2
				c16.9-6,32.2-15.4,46.8-25.7c11-7.8,21.7-17,33.9-22.9c1.9-0.9,4-1.8,6.1-2.3c0.8-0.2,1.7-0.4,2.6-0.4l0,0
				c0.4,0.1,0.9,0.3,1.3,0.5c2.2,1.2,5.2,3.1,7.9,2C483.5,519.3,478.9,508.2,478,505.6z M475.2,520.5
				C475.3,520.5,475.3,520.5,475.2,520.5C475.3,520.6,475.2,520.6,475.2,520.5C475.2,520.6,475.2,520.5,475.2,520.5z M477.3,520.8
				L477.3,520.8L477.3,520.8z" />
			</g>
			<g>
				<g>
					<path fill="#A6A6A7" d="M314.7,376.7c0,0-3.8-3.8-6.1-1.5c-2.3,2.3-11.5,11.5-11.5,13.1c0,1.2,7.6,4.3,10.8,5.6
					c0.9,0.3,1.9,0.1,2.5-0.7l5.5-6.8C318.2,383.5,317.8,379.1,314.7,376.7C314.8,376.8,314.7,376.8,314.7,376.7z" />
				</g>
			</g>
			<g>
				<path fill="#1A1B1F" d="M310.5,391.8l-10.6-6.6c-0.4-0.3-1-0.2-1.3,0.2c-1.1,1.4-4.6,6.5-1.3,11.7l0.6,1c2.4,3.8,3.4,5.5,4.7,5.8
				c0.1,0,0.2,0,0.4,0c0.5,0,1-0.2,1.6-0.6c1.9-1.3,5.1-7.6,6.4-10.3C311.1,392.7,310.9,392.1,310.5,391.8z" />
			</g>
			<g>
				<g>
					<path fill="#FFFFFF" d="M325.8,375.4c0,3.1-2.5,5.5-5.5,5.5c-3.1,0-5.5-2.5-5.5-5.5c0-3.1,2.5-5.5,5.5-5.5
					S325.8,372.3,325.8,375.4z" />
				</g>
			</g>
			<g>
				<path fill="#1D0104"
					d="M322.4,378c-0.2-0.5-0.6-0.9-0.9-1.2c-0.6-0.5-1.1-0.4-1.3-0.3c-0.2,0.1-0.6,0.4-0.6,1.2
				c0,0.4,0.1,1,0.4,1.5c0.2,0.5,0.6,0.9,0.9,1.2c0.4,0.3,0.7,0.4,0.9,0.4c0.2,0,0.3,0,0.4-0.1C322.9,380.4,323,379.2,322.4,378z" />
			</g>
			<g>
				<path fill="#FFFFFF" d="M409.1,476.1c-1.8-0.2-3.6-0.2-5.5-0.3c2.2-1,4.3-2.3,6-4.1c3.7-3.9,2.6-9.7-0.9-13.5
				c-4.5-4.7-11.4-3.5-16.8-1.4c-2.2,0.8-4.3,1.8-6.4,2.9c0.2-0.5,0.4-1.1,0.6-1.6c1.4-5-2.5-7.3-6.9-6.8
				c-11.9,1.4-21.3,13.1-27.8,22.2c-2.1,3-4.2,6.1-5.9,9.3c-0.1,0.2-0.2,0.5-0.1,0.9l0,0l0,0c0,0.8,0.5,1.9,1.1,2.2
				c6.7,4,13.7,7.4,20.9,10.5c12,5.3,25.4,10.3,38.7,10.3c5.5,0,11.2-1,15.6-4.5c3.8-2.9,7-8,7.1-12.9
				C429,479.1,416.9,476.7,409.1,476.1z" />
			</g>
		</g>
		<g clip-path="url(#SVGID_1_)">
			<g>
				<g>
					<path fill="#7B423B" d="M150.7,558.5c-0.7-6.4-2.6-12.7-4.9-18.7c-4.6-12-11.1-23.1-17.7-34.1c-2.5-4.1-5.5-8.2-7.4-12.7
					c-2.4-5.6-3.3-11.8-3.8-17.8c-0.4-5.7-0.4-11.3,0-17c0.2-3.1,0.3-6.3,1.1-9.3c1.3-5.3,2.5-10.6,3.2-16.1
					c1.8-15.4,0.1-35.7-17.6-40.7c-9.6-2.7-22-1.8-31,2.6c-7.4,3.6-12.6,10.3-15.4,17.9c-1.9,5.1-2,10-3,15.2
					c-0.8,3.4-1.7,6.8-2.5,10.2c-0.3,1.2-0.5,2.4-0.9,3.6c-0.2,0.7-0.4,1.5-0.8,2.2c-0.1,0.2-0.3,0.5-0.4,0.7
					c-0.6,0.5-0.9,0.8-0.9,1c-0.5,0-1,0.1-1.2,0.1c-1.2,0-2.3,0-3.5,0c-13.2,0.1-26.2,2.4-38.6,6.9c-7.9,2.8-16,5.6-23.3,9.8
					c-9.7,5.6-18.7,12.3-27.4,19.2c-5.6,4.4-10.9,8.6-15.5,14c-8.6,10.3-16.4,21.3-22.8,33.1c-9.7,18-16.1,38.1-15.2,58.7
					c1.4,33.1,21.4,61.2,45.7,82.3c10.2,8.9,21.2,16.7,32.7,23.8c6.7,4.1,13.8,7.7,20.4,12c0.5,0.3,1.1,0.7,1.4,1.1
					c2,2.4,1.7,6.5,1.4,9.4c-0.3,2.7-1.7,7.2-0.4,9.8c1,2,4.3,3,6.2,3.7c4,1.4,8.1,2.4,12.2,3.2c9.5,1.9,19.4,2.9,29.2,2.5
					c3.8-0.2,7.8-0.4,11.4-1.7c2.8-1,6-3.5,4.9-6.9c-1.3-4.1-7.1-6.3-10.6-7.8c-1.7-0.7-4.7-1.2-5.7-2.8c-0.8-1.2-0.8-3-0.4-4.4
					c0.3-1,0.8-1.8,1.5-2.5c0.4-0.4,0.8-0.7,1.2-1c0.4-0.2,0.8-0.3,0.9-0.4c1.9,0.2,4.1,1.1,5.9,1.5c3,0.7,6,1.4,9.1,2
					c5.7,1.2,11.4,2.2,17.2,2.8c4.5,0.4,21.5,2.6,19.3-6.1c-0.7-3-3.4-5.3-5.7-7c-2.7-2-6.6-3.2-7.8-6.7c-1-3.2,0.5-5.5,2.4-7.9
					c1.8-2.4,3.6-5,5.3-7.5c8.4-12.9,14.7-27.4,17.5-42.6c1-5.6,1.3-11.5-0.5-17c-1.1-3.5-3.1-6.4-5-9.5c-1.6-2.5-2.9-5.1-2.5-8.1
					c0.2-2.1,1.2-3.9,2-5.8c1.3-3,2.2-6.2,2.8-9.5c1.3-6.3,1.8-12.8,2.1-19.2c0.1-2.3,0.2-4.5,0.5-6.8c0.8,0.9,1.6,1.8,2.3,2.8
					c2,2.7,3.8,5.6,5.7,8.4c1.7,2.5,3.6,5,3.7,8.1c0,2.2-0.9,4.1-1.9,5.9c-1.8,3.4-2.5,6.6,0.3,9.7c1.9,2.1,4.5,2.3,7.2,2.1
					c9.7-0.7,13.4-11.8,15.8-19.7C150.5,571.2,151.5,565.1,150.7,558.5z" />
				</g>
				<g>
					<path fill="#272525" d="M64.7,390.2c0.3,4.2,1.2,8,3.2,8.9c1.6,0.7,3.5,0.4,5.3,0c13.3-2.6,27-3.6,40.6-2.7
					c0.9-6,1.2-12.1,0.7-18.1c6.5,0.3,13-0.2,19.4-1.5c-0.7-2.2-2.6-3.8-4.4-5.3c-10.3-8.2-20.4-17.5-31.4-24.7
					c-1.2-0.8-2.6-1.7-4.1-1.6c-0.8,0-1.6,0.4-2.3,0.7c-4.8,2.1-9.7,3.7-14.4,6c-5.4,2.7-10.8,5.5-16.1,8.4
					c-4.6,2.5-8.3,6.3-13.2,8.4c-0.9,0.4-2,1.2-1.6,2.1c0.2,0.4,0.7,0.7,1.1,0.8c5.6,2.1,11.4,3.9,17.3,5.3
					C64.9,376.9,64.2,384,64.7,390.2z" />
					<g>
						<path fill="#EAC52D"
							d="M128.3,393.7l-0.1,0.9c-7.2-0.7-14.2-5.2-21.4-13.8c-1.2-1.5-2.5-3-3.6-4.5
						c-4.1-5.1-8.3-10.5-13.9-14.1l0.5-0.7c5.6,3.7,9.9,9.1,14.1,14.3c1.2,1.5,2.4,3,3.6,4.5C114.6,388.6,121.4,393,128.3,393.7z" />
					</g>
					<path fill="#EAC52D"
						d="M128.4,398c3,1.3,6.1,2.5,9.2,3.5c0.2,0.1,0.5,0.1,0.7,0s0.3-0.3,0.3-0.5c0.9-2.4,1.7-4.9,2.4-7.4
					c0.1-0.2,0.1-0.4,0-0.6s-0.3-0.2-0.5-0.3c-0.8-0.3-1.5-0.6-2.3-0.9c-2.5-1-5.1-1.9-7.7-1.7C125.1,390.5,122.8,395.5,128.4,398z" />
					<path fill="#EAC52D"
						d="M122.5,393.5c0.2,1.7,2,3.2,3.9,2.1c3.1-1.7,0.3-6.6-2.8-4.5C122.7,391.8,122.4,392.7,122.5,393.5z" />
					<path fill="#070707"
						d="M89,364.4c2,1.5,5.1-0.7,3.7-3c-0.7-1.3-2.9-1.8-4-0.7C87.7,361.7,87.8,363.6,89,364.4z" />
				</g>
			</g>
			<g>
				<g>
					<path fill="#7B423B" d="M73.5,397.1c-1.3-2.6-2.8-5.1-4.7-7.2c-4.1-4.6-9.7-5.3-14.2-0.7c-4.7,4.9-7,12.4-1.8,17.7
					c3.2,3.3,7.9,5.4,12.4,6.4c0.5,0.1,1.1-0.1,1.4-0.4c0.2-0.1,0.3-0.2,0.4-0.3c1.7-2,3.4-4.1,5.1-6.1c1-1.2,3.5-3.2,3.4-4.8
					C75.5,400.3,74.1,398.3,73.5,397.1z" />
				</g>
			</g>
			<g>
				<g>
					<path fill="#7B423B"
						d="M126.4,393.1c-1.3-4.3-6.7-7.6-11-7.5c-3.8,0.1-6.7,2.6-8.5,5.8c-1.4,2.5-2.3,5.4-2.8,8.3
					c-0.1,0.1-0.1,0.3,0,0.4c0,0,0,0.1,0.1,0.1c2.7,2.9,5.3,5.8,8,8.7c0.6,0.6,1.8,0.2,2.4-0.1C119.7,406,128.4,399.8,126.4,393.1z" />
				</g>
			</g>
			<g>
				<g>
					<path fill="#FFFFFF" d="M69.6,396.2c-3.3-3.6-7-1.3-9.3,2.1c-2,3-2.8,6,0.3,8.5c3.4,2.8,7.8,3.8,11,0.2c0.1-0.1,0.2-0.2,0.2-0.3
					C74.2,403.5,72,398.9,69.6,396.2z" />
				</g>
			</g>
			<g>
				<g>
					<path fill="#FFFFFF" d="M117.5,393.3c-2.7-1.7-6.6-2.2-9,0.3c-2.1,2.1-3.2,7.3-1.3,9.7c0,0,0,0,0.1,0.1l0,0c2.8,3,7.6,0.6,9.6-2
					C118.9,398.8,121.1,395.5,117.5,393.3z" />
				</g>
			</g>
			<g>
				<g>
					<path fill="#FFFFFF" d="M119.1,449.6c-0.8-4.8-1.7-10-3.7-14.4c-2.6-5.7-8.1-10.3-14.4-11.1c-5.4-0.7-10.3,1.7-14.1,5.4
					c-9.4,9.9-7.2,24.6-3.6,36.6c1.1,3.7,2.3,7.4,5.5,9.8c3.4,2.6,7.8,4.1,12,4.2c4.8,0.2,9.6-1.3,13.4-4.3
					c3.6-2.8,5.1-6.7,5.6-11.2C120.4,459.6,119.9,454.5,119.1,449.6z" />
				</g>
			</g>
			<g>
				<g>
					<path fill="#2E1313" d="M113.1,462.7c-0.5-4.2-5.8-6.8-9.8-6.2c-0.1,0-0.1,0-0.2,0c-4.3,0.5-10.9,2.6-11.3,7.8
					c-0.5,5.4,6.6,6.4,10.5,6.2C106.4,470.2,113.8,468,113.1,462.7z" />
				</g>
			</g>
			<g>
				<g>
					<g>
						<g>
							<path fill="#91625D" d="M18.1,537.9c3.2,10.8,11.4,20.7,19.8,27.8c1.8,1.5,3.6,2.9,5.5,4.3c1.4,1,3.2,1.8,4.5,3
							c2.1,1.9,3.3,5,4.2,7.6c2.6,7.4,1.6,15.9,5.1,23.1c2.9,5.8,9.5,8.2,15.7,6.6c5.1-1.3,7.8-6.1,9.1-10.9
							c3.6-13.6,0.2-30.9-7.7-42.4c-2.9-4.3-6.4-7.8-8.3-12.8c-1.8-4.5-2.6-9.4-2.6-14.3c-0.1-5.2,0.5-10.8,2.1-15.8
							c0.4-1.2-2.8-0.8-3.1,0.3c-3.4,10.7-3.1,23.9,2.1,33.9c1.8,3.5,4.4,6.2,6.7,9.3c2.1,3,3.7,6.3,5,9.7c2.6,6.9,4,14.5,4,21.9
							c0,5.6-0.6,12.7-4.5,17.1c-4.6,5.2-13.1,1.3-15.6-4.1c-3.1-6.7-2.3-14.4-4.4-21.4c-0.9-3-2.2-5.9-4.1-8.4c-1.6-2-3.9-3-6-4.5
							c-10.3-7.3-20.6-18.5-24.3-31C20.9,535.8,17.8,536.6,18.1,537.9L18.1,537.9z" />
						</g>
					</g>
				</g>
			</g>
			<g>
				<g>
					<g>
						<g>
							<path fill="#FFFFFF" d="M35.2,607c5.4,4.1,9.8,9.9,13.3,15.6c8.9,14.3,12.4,31.3,11,48c-1.2,14.5-5.6,28.4-11.7,41.5
							c-0.8,1.7,2.4,1.8,3,0.4c9.7-20.9,15.3-44.4,10.3-67.3c-2.8-12.9-9-25.1-17.9-34.8c-1.7-1.9-3.6-3.7-5.6-5.3
							C36.4,604.2,33.7,605.9,35.2,607L35.2,607z" />
						</g>
					</g>
				</g>
			</g>
			<g>
				<g>
					<g>
						<path fill="#FFFFFF" d="M61.3,594.8c0-0.6-3.1-0.2-3.1,0.8c-0.2,4.8,1.7,11-1.4,15.2c-0.7,0.9,2.4,0.5,2.9-0.1
						C63,606.2,61.1,600,61.3,594.8z" />
					</g>
				</g>
				<g>
					<g>
						<path fill="#FFFFFF" d="M64.3,600.2c0.5,2.9,1.5,8.6-0.9,10.9c-1.4,1.3,1.6,1.7,2.6,0.8c3-2.8,2.1-8.9,1.4-12.5
						C67.2,598,64.1,598.8,64.3,600.2z" />
					</g>
				</g>
				<g>
					<g>
						<path fill="#FFFFFF" d="M73.8,601.3c-0.4-1.5-3.5-0.6-3.1,0.8c1,3.6,1.3,7.7,0.2,11.2c-0.6,1.7,2.6,1.7,3,0.4
						C75.2,609.8,74.9,605.3,73.8,601.3z" />
					</g>
				</g>
			</g>
			<g>
				<g>
					<g>
						<path fill="#FFFFFF" d="M127.2,589c1.2-1.6,2.4-3.4,3.4-5.2c0.7-1.2-2.4-0.9-2.9,0c-0.7,1.2-1.4,2.3-2.1,3.5
						c-0.6,0.9-1.3,1.8-2,2.6c-0.3,0.4-0.7,0.8-1.1,1.2c-0.5,0.4-0.8,0.3-0.1,0.3c-0.6,0-1.8,0.2-2.1,0.8c-0.2,0.6,0.2,0.8,0.8,0.9
						C123.8,593.2,125.8,591,127.2,589z" />
					</g>
				</g>
				<g>
					<g>
						<path fill="#FFFFFF" d="M131.1,588.2c-0.4,3.4-2.9,6.2-6.1,7.2c-1.9,0.6-1.3,2.9,0.6,2.3c4.4-1.4,8.2-4.9,8.7-9.7
						C134.4,586.4,131.2,586.7,131.1,588.2z" />
					</g>
				</g>
				<g>
					<g>
						<path fill="#FFFFFF" d="M140.7,588.7c-0.1-1.7-3.2-1.2-3.2,0.2c0.2,3.9-1.1,8.2-4.5,10.5c-1.8,1.1,0.8,2.3,2.1,1.5
						C139.1,598.3,141,593.3,140.7,588.7z" />
					</g>
				</g>
			</g>
			<g>
				<g>
					<g>
						<path fill="#FFFFFF" d="M81.2,418c-0.9-0.2-1.8,0.8-2.2,2.3c-0.3,1.5,0.1,2.8,1,3c0.1,0,0.2,0,0.2,0c0.8,0,1.6-0.9,1.9-2.3
						c0.1-0.6,0.2-1.3,0-1.8C82,418.3,81.5,418,81.2,418z" />
					</g>
				</g>
				<g>
					<g>
						<path fill="#FFFFFF" d="M111.6,416.7c-0.3-0.1-0.8-0.1-1.4,0.7c-0.3,0.4-0.6,1-0.7,1.7c-0.1,0.6-0.2,1.3,0,1.8
						c0.2,0.9,0.7,1.1,1,1.2c0.1,0,0.2,0,0.2,0c0.8,0,1.6-0.9,1.9-2.3C112.9,418.2,112.5,416.9,111.6,416.7z" />
					</g>
				</g>
			</g>
		</g>
		<g clip-path="url(#SVGID_1_)">
			<g>
				<g>
					<g>
						<path fill="#832D0F" d="M1084.4,540.4c-4.7-8.7-11.9-16.4-22.3-16.5c-4.3-0.1-9,0.9-12.7,3.1c-0.7,0.3-1.2,0.7-1.1,1.1
						c2.5,6.7,11.4,9.3,17.6,10.9c5.1,1.3,10.4,2.3,15.7,2.7C1082,541.8,1084.9,541.3,1084.4,540.4z" />
					</g>
				</g>
			</g>
			<g>
				<g>
					<g>
						<path fill="#1A1B1F"
							d="M890.7,615.7c-0.5,2.7,0,5.6,0.2,8.4c0.2,2.7,0.4,5.4,0.5,8.1c1,15.6,1.8,31.2,2.7,46.8
						c0.4,6.8,0.7,13.5,1.1,20.3c0.1,2.1,0.3,4.3,0.3,6.4c0,1.7-0.4,2.9-1.3,4.3c-0.3,0.5-0.7,1-0.8,1.6c-0.1,1.4,1.4,2.2,2.7,2.3
						c2.6,0.3,3.9-3.5,4.6-5.4c2.2-5.7,3.3-11.9,4.2-18c3.7-24.6,2.4-50.1-2.2-74.5C901.4,609.4,891.9,608.5,890.7,615.7z" />
					</g>
				</g>
				<g>
					<g>
						<path fill="#1A1B1F"
							d="M922.2,615.6c-0.5,2.7,0,5.6,0.2,8.4c0.2,2.7,0.4,5.4,0.5,8.1c1,15.6,1.8,31.2,2.7,46.8
						c0.4,6.8,0.7,13.5,1.1,20.3c0.1,2.1,0.3,4.3,0.3,6.4c0,1.6-0.4,2.9-1.3,4.3c-0.3,0.5-0.8,1-0.8,1.6c-0.1,1.4,1.4,2.2,2.6,2.4
						c2.7,0.4,3.9-3.4,4.6-5.3c2.2-5.7,3.3-11.9,4.3-18c3.7-24.6,2.4-50.1-2.2-74.5C932.8,609.6,923.4,608.4,922.2,615.6z" />
					</g>
				</g>
				<g>
					<g>
						<path fill="#1A1B1F"
							d="M1004.3,613.3c-0.5,2.7,0,5.6,0.2,8.4c0.2,2.7,0.4,5.4,0.5,8.1c1,15.6,1.8,31.2,2.7,46.8
						c0.4,6.8,0.7,13.5,1.1,20.3c0.1,2.1,0.3,4.3,0.3,6.4c0,1.7-0.4,2.9-1.3,4.3c-0.3,0.5-0.7,1-0.8,1.6c-0.1,1.4,1.4,2.2,2.7,2.3
						c2.6,0.3,3.9-3.5,4.6-5.4c2.2-5.7,3.3-11.9,4.2-18c3.7-24.6,2.4-50.1-2.2-74.5C1015,607,1005.5,606.1,1004.3,613.3z" />
					</g>
				</g>
				<g>
					<g>
						<path fill="#1A1B1F"
							d="M1041.9,611.3c-1.5-6.4-10.9-7.9-12.1-0.6c-0.5,2.7,0,5.6,0.2,8.4c0.2,2.7,0.4,5.4,0.5,8.1
						c1,15.6,1.8,31.2,2.7,46.8c0.4,6.8,0.7,13.5,1.1,20.3c0.1,2.1,0.3,4.3,0.3,6.4c0,1.7-0.4,2.9-1.3,4.3c-0.3,0.5-0.8,1-0.8,1.6
						c-0.1,1.4,1.5,2.2,2.7,2.4c2.6,0.4,3.8-3.2,4.5-5c2.3-5.8,3.4-12.1,4.3-18.2C1047.7,661.2,1046.4,635.8,1041.9,611.3z" />
					</g>
				</g>
			</g>
			<g>
				<g>
					<path fill="#945147" d="M994.3,362.3c-0.3-3.1-7.3-1.5-7,1.9c0,0.2,0-0.4,0,0.6s0,2-0.1,3c-0.2,3.1-0.8,6.2-1.7,9.2
					c-3.1,10.2-10.2,18.6-19.2,24.2c3.3-6.4,3.9-14.5,3.2-21.4c-0.1-1.1-3.6-0.4-3.5,0.9c0.7,7.4-0.1,16.7-4.5,23.1
					c-3.2,1.5-6.5,2.7-9.8,3.8c3-5.6,3.2-14.2,3.3-19.2c0-1.3-3.5-0.6-3.5,0.5c-0.1,3.1-0.4,6.3-0.9,9.3c-0.4,2.6-1,7.5-2.8,10.6
					c-1.7,0.5-3.3,1-5,1.5c-2.1,0.6-4.3,1.4-6.4,2.2c1.4-3.2,2-7,2.5-10c0.7-3.9,1.2-7.9,1.5-11.9c0-0.5-3.4-0.1-3.5,0.9
					c-0.3,3.9-0.8,7.7-1.5,11.5c-0.6,3.2-1.2,7.6-3,11c-2.3,1-4.6,2.2-6.7,3.4c0.3-3.8-1-8.1-2.2-11.2c-0.5-1.2-3.9-0.2-3.5,0.9
					c1.2,3.2,3,8.6,2.1,12.6c-0.2,0.1-0.4,0.3-0.6,0.4c-8.6,6-15.6,14.4-19,24.5c-1.7,5.1-2.8,10.8-2.3,16.2c0.3,3.1,7.3,1.5,7-1.9
					c0-0.2,0,0.4,0-0.6s0-2,0.1-3c0.2-3.1,0.8-6.2,1.7-9.2c3.2-10.4,10.4-18.8,19.6-24.5c7.2-4.4,15.1-6.5,23.1-8.9
					c7.5-2.3,14.8-5.5,21.3-10c8.6-6,15.6-14.4,19-24.5C993.7,373.4,994.8,367.8,994.3,362.3z" />
				</g>
			</g>
			<g>
				<g>
					<path fill="#945147"
						d="M876.1,432.9c-1.3-1-2.6-1.9-3.9-2.8c-1-4,0.7-9.3,2-12.6c0.4-1-3.1-0.6-3.5,0.5c-1,2.7-2.2,6.4-2.3,9.8
					c-2.1-1.2-4.3-2.3-6.5-3.2c-2.1-3.6-2.7-8.7-3.3-12.2c-0.6-3.6-1.1-7.2-1.3-10.9c-0.1-1.4-3.6-0.6-3.5,0.9
					c0.3,4.2,0.8,8.4,1.6,12.5c0.5,2.4,1,5.1,1.9,7.7c-3.5-1.3-7-2.3-10.5-3.3c-1.9-3-2.5-7.4-3-10.2c-0.6-3.3-0.9-6.7-1-10.1
					c0-0.8-3.5-0.2-3.5,0.9c0.1,3.9,0.5,7.9,1.3,11.7c0.4,1.9,0.8,4.2,1.6,6.3c-3.2-1-6.3-2.2-9.3-3.7c-4.5-6.5-5.4-15.8-4.7-23.4
					c0.1-1.2-3.4-0.6-3.5,0.5c-0.6,6.2-0.2,13.4,2.3,19.4c-7.6-5.2-13.9-12.2-17.2-21c-1.9-4.9-3.2-10.6-2.7-15.9
					c0.3-3.5-6.8-2.5-7.1,0.6c-1.4,14.4,7.1,29,18,37.7c5.5,4.4,12,7.7,18.6,10.1c8.4,3.1,17.2,4.6,25.2,8.9
					c10,5.3,18.4,13.5,22.4,24.2c1.9,4.9,3.2,10.6,2.7,15.9c-0.3,3.5,6.8,2.5,7.1-0.6C895.4,456.1,887,441.6,876.1,432.9z" />
				</g>
			</g>
			<g>
				<g>
					<g>
						<path fill="#C4471B" d="M1083.4,575c-1.1-6.7-2.9-13.3-5.9-19.5c-3.2-6.8-8.2-12-13.6-17.1c-6.4-6.1-13.6-11.4-21.8-14.8
						c-7.5-3.1-15.5-4.4-23.6-4.9c-9.9-0.6-20-1-29.8,0.7c-10.1,1.7-19.9,5-29.5,8.5c-9.1,3.3-18.1,7.1-27.5,9.4
						c-5.1,1.2-12.4,3-15.9-2c-3.9-5.5-4.7-13.4-5.4-19.9c-0.7-6.8-0.8-13.6-0.9-20.4c0-2,0-4-0.2-6c-0.3-2.8,0.6-4.8,3.5-6
						c2.7-1.1,6-1.3,8.9-2.3c4.4-1.4,8.6-3.3,12.7-5.3c6.4-3.1,13.3-6.4,18.7-11.2c3.9-3.4,3.6-9.8-2-11.1c-7.9-1.8-16.5-2-24.5-3.1
						c-11-1.4-22.5-4.2-33.5-1.6c-3.7,0.9-7.8,2.3-10.6,5.1c-3.4,3.6-5.5,8.7-7.4,13.2c-2.9,6.8-5.4,13.8-7.7,20.7
						c-4.1,12.1-7.7,24.3-11,36.6c-7.8,28.5-12.9,59.3-2.6,87.9c7.9,22,24.7,39.1,45.8,48.9c16.4,7.7,35.5,11.5,53.5,9.9
						c10.6-0.9,19.8-5.6,29.4-9.9c21.3-9.6,42.6-19.4,66-22.2c7.5-0.9,14.1-1.3,20.2-6c4.9-3.8,8.4-9.1,10.8-14.8
						C1085.2,604.7,1085.7,589,1083.4,575z" />
					</g>
				</g>
			</g>
			<g>
				<g>
					<path fill="#F9EACD" d="M887.8,455.5c-10.3-11.7-27.6-11.3-40.6-5.2c-0.3,0.1-2,1.1-1.7,1.7c2.9,4.5,7.5,8.4,12.4,10.7
					c10.1,4.7,20.5,0.7,28.8-5.8C887.4,456.4,888,455.8,887.8,455.5z" />
				</g>
			</g>
			<g>
				<g>
					<path fill="#1A1B1F" d="M947.3,449.1c-2.7,0-4.8,2.2-4.8,4.8c0,2.7,2.2,4.8,4.8,4.8c2.7,0,4.8-2.2,4.8-4.8
					C952.1,451.2,950,449.1,947.3,449.1z" />
				</g>
			</g>
			<g>
				<g>
					<g>
						<path fill="#FFFFFF" d="M902.4,464.3c0.9,1.9,1.2,3.6,0.5,4s-2-0.9-3-2.7c-0.9-1.9-1.2-3.6-0.5-4
						C900.2,461.2,901.5,462.4,902.4,464.3z" />
					</g>
				</g>
			</g>
			<g>
				<g>
					<g>
						<path fill="#FFFFFF" d="M999.5,588.6c-3.5,0.8-4,4.4-3.1,7.4c0.8,2.7,2.9,5.4,6,4.8c3.7-0.7,4.1-4.4,3.3-7.5
						C1004.8,590.6,1002.8,587.8,999.5,588.6z" />
					</g>
				</g>
				<g>
					<g>
						<path fill="#FFFFFF" d="M1011.6,572.9c-2.5,0.6-3.1,3.3-2.4,5.5c0.6,2.1,2.3,4,4.7,3.5c2.7-0.6,3.1-3.2,2.5-5.5
						C1015.7,574.3,1014,572.3,1011.6,572.9z" />
					</g>
				</g>
				<g>
					<g>
						<path fill="#FFFFFF" d="M1053.8,567.9c-0.7-2.1-2.2-3.7-4.6-3.2c-2.6,0.6-3.3,2.8-2.6,5.2c0.6,2,2.1,3.6,4.4,3.2
						C1053.7,572.7,1054.5,570.4,1053.8,567.9z" />
					</g>
				</g>
				<g>
					<g>
						<path fill="#FFFFFF" d="M1028.5,579c-2.2,0.6-2.9,2.8-2.2,4.9c0.6,1.9,2.1,3.5,4.2,3c2.4-0.5,2.9-2.8,2.3-4.9
						C1032.2,580.1,1030.7,578.5,1028.5,579z" />
					</g>
				</g>
				<g>
					<g>
						<path fill="#FFFFFF" d="M997.8,583.2c2.3-0.5,2.9-2.7,2.4-4.8c-0.6-1.9-2.1-3.5-4.3-2.9s-2.9,2.8-2.3,4.8
						C994.2,582.1,995.8,583.7,997.8,583.2z" />
					</g>
				</g>
				<g>
					<g>
						<path fill="#FFFFFF" d="M1020.3,585.3c-2.3,0.5-3.1,2.5-2.5,4.6c0.5,1.8,1.9,3.1,3.9,2.8c2.5-0.4,3.3-2.5,2.7-4.7
						C1023.7,586.2,1022.4,584.8,1020.3,585.3z" />
					</g>
				</g>
				<g>
					<g>
						<path fill="#FFFFFF" d="M1028.5,563.2c-2.3,0.6-2.8,2.9-2.2,4.9c0.6,1.9,2.1,3.6,4.2,3.1c2.4-0.5,2.9-2.9,2.3-5
						C1032.2,564.4,1030.7,562.7,1028.5,563.2z" />
					</g>
				</g>
				<g>
					<g>
						<path fill="#FFFFFF" d="M983.8,583.7c-2.5,0.6-3.1,3.4-2.4,5.6c0.6,2.1,2.3,4.1,4.7,3.6c2.7-0.5,3.1-3.4,2.5-5.6
						C987.9,585.2,986.2,583.1,983.8,583.7z" />
					</g>
				</g>
				<g>
					<g>
						<path fill="#FFFFFF" d="M973.2,591.5c-2.3,0.5-3.2,2.3-2.5,4.5c0.5,1.8,1.9,3,3.8,2.7c2.4-0.4,3.3-2.2,2.7-4.5
						C976.6,592.2,975.2,591,973.2,591.5z" />
					</g>
				</g>
			</g>
			<g>
				<g>
					<g>
						<path fill="#832D0F" d="M917.1,467.2c0,2.7-2.2,4.8-4.8,4.8c-2.7,0-4.8-2.2-4.8-4.8c0-2.7,2.2-4.8,4.8-4.8
						C914.9,462.4,917.1,464.5,917.1,467.2z" />
					</g>
				</g>
			</g>
		</g>
		<g clip-path="url(#SVGID_1_)">
			<g>
				<path fill="#F09C26" d="M743.4,574.3c-3.3-3.6-6.8-6.9-10.5-10c-14.4-12.2-31.7-21.5-50.3-25.1c-11.9-2.3-24.1-2.1-35.9,0.6
				c-6.8,1.5-13.5,3.8-19.8,6.8c-5.5,2.6-11.5,5.4-16.2,9.2c-1.7,1.4-3.3,3.1-4.9,4.6c-3.7,3.6-7.2,7.3-10.7,11.1
				c-10.5,11.6-20.2,24-28.2,37.4c-9,14.9-16.2,31.5-18.2,49c-2,18.1,2.7,35.8,13.8,50.2c7.1,9.3,16.3,16.8,26.1,23.1
				c5.9,3.8,12.2,7.1,18.5,10.1c2.5,1.2,4.9,2.2,7.6,3c25.4,7.7,53.5,8.6,79.3,2.5c1.4-0.3,3.2-0.3,3.8-1.8c0.3-0.9,0.4-1.9,0.2-2.8
				c-1-4.2-7.3-3.6-10.4-3.2c-2.5,0.3-1-2-0.2-3.1c1.5-2,3.2-3.7,5-5.4c3.2-3,6.9-5.1,9.8-8.5c6.8-7.9,10.7-18.2,13.4-28.3
				c-0.6,9.6-1.2,19.2-1.8,28.7c-0.2,2.5-0.4,5-0.5,7.5c0,1.9,1.3,3.6,3.2,3.8c2.5,0.2,5.4-1.7,6.3-4.1c0.6-1.8,0.8-3.8,1.1-5.6
				c2.2-16.3,2.5-33,3.1-49.4c0.7-17.6,1.2-35.3,2.2-53c0.2-2.5,0.3-5,0.6-7.5c0.1-0.8,0.2-1.7,0.3-2.5c0-0.2,0.2-0.7,0.3-1.1
				c0.2-0.1,0.4-0.1,0.6-0.2c0.2-0.1,0.4-0.1,0.6-0.2c0.1,0.3,0.5,0.8,0.6,1c0.3,0.8,0.5,1.7,0.6,2.5c0.6,3.3,0.9,6.6,1.1,10
				c0.5,7.1-0.1,14.3-0.5,21.4c-0.6,10.5-1.4,21-2.1,31.5c-0.7,10.4-1.5,20.7-2,31.1c-0.3,6.6-0.9,13.5-0.1,20.1
				c0.1,1.1,0.3,2.8,1.5,3.3c2.7,1.1,4.6-2.4,5.4-4.4c2.9-7.3,3.7-15.7,4.5-23.5c0.2-2.3,0.2-4.5,0.3-6.8c0.2-6.4,0.4-12.8,0.5-19.2
				c0.5-18.6,1.1-37.2,1.6-55.8c0.4-14.1,0.8-28.3,1.2-42.4C744.2,576.9,744.6,575.7,743.4,574.3z" />
			</g>
			<g>
				<path fill="#CE5039"
					d="M766.4,536.2c-0.4-15.3-4.6-31.1-10.7-45c-4.4-10-10.9-20.1-21.4-24.4c-7.9-3.3-16.8-2.8-25.1-1.6
				c-7.7,1.1-16.3,3.8-24.1,1.6c-11.7-3.4-21-12.6-31.5-18.4c-9.8-5.4-21.8-7.5-31.2-0.1c-2.5,1.9-4.4,4.4-6.7,6.5
				c-1.9,1.7-4,3.3-6.2,4.7c-4.8,3-10,5.3-15.3,7.4c-10.3,4.1-21.2,7-30.9,12.2c-7,3.7-13.7,9.4-12.6,18.1c0.4,2.9,1.6,5.5,2.3,8.3
				c0.7,3,1.1,6.3,0.5,9.4c-0.9,4.8-4.2,8.3-7.7,11.5c-3.1,2.8-6.2,5.6-7.8,9.6c-1.7,4.8-1.1,10.7-0.8,15.7
				c0.4,6.3,1.1,12.7,2.2,18.9c0.9,4.8,2.3,9.5,5.2,13.5c3.9,5.5,9.8,8.9,16.3,10.5c6.9,1.7,14.5,2.2,21.6,1.9
				c3.2-0.1,7.3-1,9.9-0.8c4.6,0.3,9.2,2.9,13.2,5c5.5,2.8,10.7,5.9,16.1,8.8c4.6,2.5,9.4,4.7,14.4,5.9c5.7,1.4,11.7,1.7,17.5,1.2
				c12.8-1.1,24.6-6,36.8-9.7c17.4-5.3,35.6-10.1,50.9-20.4c7.5-5.1,14-11.5,18.5-19.5C764.8,557.5,766.6,546.8,766.4,536.2z" />
			</g>
			<g>
				<path fill="#F09C26"
					d="M756.5,535.8c-1.1-8.3-4.1-16.6-8.7-23.6c-3.9-5.9-9.5-11.4-16.6-13.1c-1.5-0.4-3-0.5-4.6-0.5
				c-11.2-2.6-25-2.3-35.1,3.7c-8.6,5.1-12.4,13.7-13.2,23.3c-0.9,10.3-0.7,21.3,3.5,30.9c3.6,8.3,10.2,14.5,18.8,17.6
				c5,1.8,10.4,2.5,15.7,2.6c6.2,0.1,12.7-0.3,18.6-1.8c8.1-2.1,14.9-7.3,18.5-14.8C757.1,552.6,757.6,543.9,756.5,535.8z" />
			</g>
			<g>
				<path fill="#FFFFFF" d="M721,546.4c-2.1-1.5-4.7-1.2-6.6,0.2c-1.6-1.6-4-1.6-6.2-0.4c-2.8,1.5-4.8,4.8-4.6,8
				c0.1,2.9,2.7,6.1,5.8,5.8c2.4-0.3,3.7-2.1,4.5-4.2c0.7,2.1,1.8,3.9,3.7,4.1c3,0.3,6-2.3,6.8-5C725.2,551.8,723.6,548.2,721,546.4
				z" />
			</g>
			<g>
				<path fill="#040100"
					d="M701.5,530.6c-0.1-0.6-0.3-1.2-0.6-1.6c-0.5-0.7-0.9-0.8-1.2-0.7c-0.9,0.2-1,1.6-0.7,2.9
				c0.1,0.6,0.3,1.2,0.6,1.6c0.4,0.6,0.8,0.7,1,0.7c0.1,0,0.1,0,0.1,0c0.2,0,0.7-0.3,0.8-1.1C701.7,531.9,701.7,531.3,701.5,530.6z" />
			</g>
			<g>
				<path fill="#040100" d="M732.6,529.8c-0.2,0-0.7,0.1-1,0.9c-0.2,0.5-0.3,1.1-0.4,1.7c0,0.6,0,1.3,0.2,1.7c0.3,0.8,0.7,1,1,1l0,0
				c0.2,0,0.7-0.1,1-0.9c0.2-0.5,0.3-1.1,0.4-1.7C733.9,531.2,733.5,529.8,732.6,529.8z" />
			</g>
			<g>
				<path fill="#FFFFFF" d="M724.9,499.1c-2.8-0.6-5.6-1.1-8.4-1.4c-2-0.3-4-0.5-6.1-0.4c-1.2,0-2.7,0.1-3.8,0.8
				c-0.1,0-0.1,0.1-0.1,0.1l0,0l0,0c0.3,7.1,0.7,14.3,1.1,21.4c0.3,5.6,0.7,11.3,1.2,16.9c0.3,4.1,0.6,8.3,1.4,12.3
				c0.1,0.7,0.2,2.4,1.1,2.5c1.1,0.1,2.2,0,3.3,0c1,0,2.1,0,3.1,0c0.1,0,0.4,0,0.4-0.2c0.8-5.8,1.6-11.7,2.4-17.5
				c1.3-9.3,2.5-18.6,3.8-27.9c0.3-2.1,0.6-4.3,0.9-6.4C725.1,499.1,725,499.1,724.9,499.1z" />
			</g>
			<g>
				<path fill="#040100" d="M720,540.2c-3.4,0-6.9,0-10.3,0c-0.3,0-0.7,0.1-0.6,0.2c0.1,1.4,0.3,2.8,0.4,4.3c0.2,1.9,0.3,4.1,0.9,5.9
				c0.1,0.4,0.2,0.6,0.6,0.6c0.7,0.1,1.5,0,2.3,0c1.6,0,3.3,0,4.9,0c0.1,0,0.5,0,0.5-0.2c0.5-3.6,1.1-7.1,1.6-10.7
				C720.4,540.2,720.1,540.2,720,540.2z" />
			</g>
			<g>
				<path fill="#1A1B1F" d="M723.3,560.3c-1.6,0.8-3.3,1.4-4.9,0.4c-1.2-0.7-2-2-2.6-3.3c-0.8-1.7-1.3-3.7-1.4-5.6
				c0-0.5-1.6-0.3-1.7,0.2c-0.4,3.1-1.5,8.3-5.3,9c-1.2,0.2-2.5-0.2-3.5-0.7c-0.4-0.2-2,0.2-1.4,0.5c1.6,0.9,3.7,1.2,5.5,0.9
				c3-0.6,4.6-3,5.5-5.7c0.3,1,0.7,1.9,1.2,2.8c2.2,3.7,6.3,3.8,9.8,1.9C725.3,560.3,723.7,560.1,723.3,560.3z" />
			</g>
			<g>
				<g>
					<path fill="#1A1B1F" d="M710.7,552.1c-0.3,0-0.5,0.2-0.5,0.5s0.2,0.5,0.5,0.5s0.5-0.2,0.5-0.5
					C711.2,552.4,711,552.1,710.7,552.1z" />
				</g>
				<g>
					<path fill="#1A1B1F" d="M719.8,549.8c0-0.3-0.2-0.5-0.5-0.5s-0.5,0.2-0.5,0.5s0.2,0.5,0.5,0.5
					C719.5,550.3,719.8,550.1,719.8,549.8z" />
				</g>
				<g>
					<path fill="#1A1B1F" d="M717.1,552.1c-0.3,0-0.5,0.2-0.5,0.5s0.2,0.5,0.5,0.5s0.5-0.2,0.5-0.5
					C717.6,552.4,717.4,552.1,717.1,552.1z" />
				</g>
				<g>
					<path fill="#1A1B1F" d="M719.4,551.9c0,0.3,0.2,0.5,0.5,0.5s0.5-0.2,0.5-0.5s-0.2-0.5-0.5-0.5
					C719.7,551.4,719.4,551.6,719.4,551.9z" />
				</g>
				<g>
					<path fill="#1A1B1F" d="M720,553.5c-0.3,0-0.5,0.2-0.5,0.5s0.2,0.5,0.5,0.5s0.5-0.2,0.5-0.5C720.5,553.8,720.3,553.5,720,553.5z
					" />
				</g>
				<g>
					<path fill="#1A1B1F" d="M709.2,549.2c-0.3,0-0.5,0.2-0.5,0.5s0.2,0.5,0.5,0.5s0.5-0.2,0.5-0.5
					C709.8,549.5,709.5,549.2,709.2,549.2z" />
				</g>
				<g>
					<path fill="#1A1B1F" d="M707.1,551.4c-0.3,0-0.5,0.2-0.5,0.5s0.2,0.5,0.5,0.5s0.5-0.2,0.5-0.5
					C707.6,551.6,707.4,551.4,707.1,551.4z" />
				</g>
				<g>
					<path fill="#1A1B1F" d="M708.5,553.5c-0.3,0-0.5,0.2-0.5,0.5s0.2,0.5,0.5,0.5s0.5-0.2,0.5-0.5
					C709.1,553.8,708.8,553.5,708.5,553.5z" />
				</g>
			</g>
			<g>
				<path fill="#F09C26" d="M698.1,489.9c-0.7-1.7-1.4-3.4-2.3-5.1c-1-1.8-2.3-4.6-4.4-5.3c-2.8-1-4.2,1.7-5,3.8
				c-1.1,2.9-2.2,6.1-2.2,9.2c0,0.1,0.1,0.3,0.1,0.3c0.1,0.2,0.3,0.3,0.7,0.2c0.3,0,0.6-0.1,0.9-0.2c3.6-0.7,7.2-1.4,10.8-2
				C697,490.8,698.4,490.5,698.1,489.9z" />
			</g>
			<g>
				<path fill="#F09C26" d="M743.9,495.6L743.9,495.6c-0.1-2.9-0.9-5.8-1.9-8.5c-0.9-2.4-2-5.3-5.1-3.9c-3.6,1.6-5.5,7.3-6.9,10.7
				c-0.1,0.3,0.3,0.5,0.5,0.6c3.8,0.7,7.6,1.4,11.4,2.1c0.7,0.2,2-0.2,2-0.9C743.9,495.7,743.9,495.7,743.9,495.6z" />
			</g>
			<g>
				<path fill="#E06243"
					d="M695.5,538.9c-3.6,0-6.4,0.5-6.4,1.1s2.9,1.1,6.4,1.1s6.4-0.5,6.4-1.1S699,538.9,695.5,538.9z" />
			</g>
			<g>
				<path fill="#E06243" d="M737.7,540.3c-3.6,0-6.4,0.5-6.4,1.1s2.9,1.1,6.4,1.1s6.4-0.5,6.4-1.1
				C744.1,540.8,741.2,540.3,737.7,540.3z" />
			</g>
			<g>
				<path fill="#29100D" d="M693.9,491.6c-0.8-1.9-1.5-3.9-2.4-5.7c-0.3-0.7-1.1-1.1-1.7-0.4c-0.7,1-0.8,2.8-0.9,3.9
				c-0.1,1-0.2,2.1-0.3,3.1c0,0.1,0.4,0.2,0.6,0.1c1.5-0.3,2.9-0.6,4.4-0.8C693.7,491.8,694,491.8,693.9,491.6z" />
			</g>
			<g>
				<path fill="#29100D" d="M739.8,491.1c-0.3-1-0.9-2.3-2.1-1.7c-1,0.5-1.5,2.2-1.9,3.1s-0.7,1.9-0.9,2.8c0,0.1,0.1,0.1,0.2,0.1l0,0
				c1.6,0.5,3.2,0.9,4.8,1.4c0.1,0,0.6,0.1,0.6-0.1C740.8,494.9,740.4,492.9,739.8,491.1z" />
			</g>
		</g>
		<g clip-path="url(#SVGID_1_)">
			<path fill="#272525" d="M746.9,484.8c-0.1,5.7-0.9,11-3.6,12.4c-2.2,1.1-4.8,0.8-7.2,0.5c-18.4-2.4-37.1-2.4-55.5,0
			c-1.8-8.1-2.7-16.3-2.6-24.6c-8.8,1-17.7,0.9-26.5-0.3c0.7-3.1,3.2-5.5,5.6-7.6c13.3-12.2,26.2-25.7,40.5-36.5
			c1.6-1.2,3.4-2.5,5.4-2.5c1.1,0,2.1,0.4,3.2,0.7c6.7,2.4,13.5,4.1,20.1,6.9c7.6,3.2,15.2,6.5,22.6,10c6.5,3,11.9,7.8,18.8,10.3
			c1.3,0.5,2.9,1.4,2.4,2.7c-0.2,0.6-0.9,1-1.5,1.2c-7.5,3.4-15.2,6.4-23,8.8C745.5,466.8,747.1,476.4,746.9,484.8z" />
			<path fill="#F2BC41" d="M640.3,471.3c-2.5,3.6-5.2,7-8.1,10.3c-0.2,0.2-0.5,0.5-0.8,0.5s-0.5-0.2-0.7-0.3
			c-2.8-2.1-5.5-4.3-8.1-6.7c-0.2-0.2-0.4-0.4-0.4-0.7c0-0.3,0.2-0.5,0.3-0.7c0.7-0.9,1.4-1.7,2-2.6c2.2-2.8,4.5-5.7,7.7-7.3
			C638.7,460.5,645,464.6,640.3,471.3z" />
			<path fill="#F2BC41"
				d="M643.9,462.1c1,2-0.1,5-3,5.1c-4.9,0.2-5-7.3-0.1-7C642.4,460.3,643.4,461.1,643.9,462.1z" />
			<path fill="#070707"
				d="M711.6,451.9c-2.6,2.2-7-0.4-5.3-3.8c0.9-1.8,3.8-2.7,5.4-1.4C713.1,448,713.1,450.6,711.6,451.9z" />
			<g>
				<path fill="#F2BC41" d="M640.4,463c3.8,0,7.3-2.2,10.7-4.2c1-0.6,2.1-1.3,3.1-1.8c8.9-4.9,19-4.9,29.6-4.9c7.7,0,15.8,0,23.2-2
				l-0.3-1.2c-7.3,2-15.2,2-22.9,2c-10.4,0-21.1,0-30.2,5c-1.1,0.6-2.1,1.2-3.1,1.9c-3.6,2.2-7.3,4.6-11.3,4L639,463
				C639.4,463,639.9,463,640.4,463z" />
			</g>
		</g>
		<g clip-path="url(#SVGID_1_)">
			<path fill="#272525" d="M313.7,351.2c-0.9,3.2-1.3,6.3-0.1,7.5c1,1,2.5,1.3,3.9,1.5c10.7,1.8,21.1,4.9,31,9.3
			c2.4-4.2,4.2-8.7,5.6-13.3c4.7,2.1,9.7,3.5,14.8,4.3c0.1-1.9-0.9-3.6-1.8-5.2c-5.4-9-10.3-18.7-16.5-27.2c-0.7-1-1.5-2-2.6-2.3
			c-0.6-0.2-1.3-0.2-1.9-0.1c-4.1,0.2-8.2,0-12.4,0.5c-4.8,0.5-9.6,1.1-14.3,1.8c-4.2,0.6-7.9,2.4-12.2,2.6c-0.8,0-1.8,0.3-1.8,1.1
			c0,0.4,0.3,0.7,0.6,0.9c3.6,3.2,7.4,6.1,11.4,8.8C317.5,341.4,315.1,346.5,313.7,351.2z" />
			<g>
				<path fill="#C1172C" d="M358.6,372.6l-0.3,0.6c-5-2.8-8.7-8.3-11.2-16.8c-0.4-1.5-0.8-3-1.2-4.4c-1.4-5-2.8-10.3-5.7-14.7
				l0.6-0.4c2.9,4.5,4.4,9.8,5.7,14.9c0.4,1.5,0.8,3,1.2,4.4C350.2,364.5,353.8,369.9,358.6,372.6z" />
			</g>
			<path fill="#C1172C" d="M357.3,375.7c1.8,1.9,3.6,3.7,5.6,5.5c0.1,0.1,0.3,0.3,0.5,0.2c0.2,0,0.3-0.1,0.4-0.3
			c1.4-1.5,2.8-3,4.1-4.6c0.1-0.1,0.2-0.3,0.2-0.4c0-0.2-0.1-0.3-0.2-0.4c-0.5-0.5-0.9-0.9-1.4-1.4c-1.5-1.5-3.1-3-5.1-3.7
			C357.3,369.2,354,372.1,357.3,375.7z" />
			<path fill="#C1172C"
				d="M354.4,370.6c-0.4,1.3,0.5,3,2.2,2.8c2.8-0.3,2.3-4.7-0.6-4.2C355.1,369.4,354.6,369.9,354.4,370.6z" />
			<path fill="#070707"
				d="M339,338.8c1.1,1.7,4,0.9,3.6-1.2c-0.2-1.2-1.6-2.2-2.8-1.7C338.8,336.4,338.4,337.9,339,338.8z" />
		</g>
		<g clip-path="url(#SVGID_1_)">
			<path fill="#272525" d="M871.4,454.1c0.9,4.1,2.3,7.7,4.4,8.3c1.7,0.5,3.5-0.1,5.2-0.7c12.8-4.5,26.2-7.3,39.8-8.4
			c0.1-6.1-0.5-12.1-1.9-18c6.5-0.6,12.9-2,19-4.2c-1-2.1-3.1-3.4-5.1-4.6c-11.4-6.7-22.7-14.5-34.6-20.1c-1.3-0.6-2.8-1.3-4.3-1
			c-0.8,0.2-1.5,0.6-2.2,1c-4.4,2.7-9.1,5-13.4,8c-5,3.4-9.9,7-14.7,10.6c-4.2,3.2-7.3,7.4-11.9,10.2c-0.8,0.5-1.8,1.5-1.3,2.3
			c0.3,0.4,0.8,0.6,1.3,0.7c5.9,1.3,11.8,2.3,17.8,2.8C869.7,441,870,448.1,871.4,454.1z" />
			<g>
				<path fill="#EAC52D" d="M888.6,473l-0.8,0.4c-3.6-6.2-4-14.5-1.3-25.4c0.5-1.9,1-3.8,1.5-5.6c1.8-6.3,3.6-12.9,3.3-19.5h0.9
				c0.3,6.7-1.5,13.4-3.3,19.8c-0.5,1.8-1,3.7-1.5,5.6C884.7,458.9,885.1,467,888.6,473z" />
			</g>
			<path fill="#EAC52D" d="M885.2,475.5c0.7,3.2,1.5,6.4,2.5,9.5c0.1,0.2,0.2,0.5,0.4,0.6s0.4,0,0.6,0c2.5-0.7,5-1.5,7.4-2.4
			c0.2-0.1,0.4-0.2,0.5-0.4c0.1-0.2,0-0.4,0-0.6c-0.2-0.8-0.4-1.6-0.6-2.4c-0.7-2.6-1.4-5.2-3.1-7.3
			C889.3,468.4,883.9,469.6,885.2,475.5z" />
			<path fill="#EAC52D"
				d="M885.3,468.1c-1.3,1.1-1.4,3.5,0.6,4.4c3.2,1.5,5.5-3.7,2-4.9C886.8,467.3,885.9,467.5,885.3,468.1z" />
			<path fill="#070707"
				d="M891.7,425.2c2.2,1.2,5-1.4,3.3-3.5c-0.9-1.2-3.1-1.4-4-0.2C890.1,422.6,890.5,424.5,891.7,425.2z" />
		</g>
	</g>
</svg>