<svg xmlns="http://www.w3.org/2000/svg" xmlns:xlink="http://www.w3.org/1999/xlink" viewBox="0 0 1200 700" xml:space="preserve"><defs><path id="a" d="M0 0h1200v700H0z"/></defs><clipPath id="b"><use xlink:href="#a" overflow="visible"/></clipPath><g clip-path="url(#b)"><path fill="#019A6D" d="M365.2 705.9c-12 11.5-25.3 6.3-35.7-3.6-15-14.2-27.5-34.3-34.6-53.7-8.4-22.7-16.5-46-18.5-70.3-1-12-1.2-23.7-2.9-35.7-.7-5.3 1.2-11.4 2.3-16.5.5-2.5.4-6.5 1.6-8.8 1.4-2.7 3.1-.9 5.1.8 5 4 10.2 7.9 15.1 11.9 7.3 6 12.6 13.8 18.7 21 13.6 16.1 26 35.3 37 53.3 5.9 9.7 11 19.7 14.6 30.5 4.2 12.6 9 24.7 8.2 38-.2 3.6-.8 7-.9 10.6-.1 2.8-1.3 5.3-1.5 8.1-.4 5.4-4.7 10.7-8.5 14.4z"/><path fill="#9FC54D" d="m347.4 677.2.2-.1.1-.2c.1-.3 10.6-29.5 6.1-54.7-.1-.4-.4-.6-.8-.6-.4.1-.6.4-.6.8 4 22.3-3.9 47.8-5.7 53-5.4-14.3-11.3-28.9-17.2-43 1.2-2.5 10-22.1 7.3-39.2-.1-.4-.4-.6-.8-.6-.4.1-.6.4-.6.8 2.4 15.1-4.5 32.2-6.6 37.2-5.1-12.4-10.2-24.3-15-35.3.8-1.8 5-12.4 2.5-29.3-.1-.4-.4-.6-.8-.6-.4.1-.6.4-.6.8 2 14-.7 23.7-2 27.2-14-32.1-24.9-55.6-25.1-56.1-.2-.3-.6-.5-.9-.3s-.5.6-.3.9c.2.5 11.2 24 25.2 56.2-17.6-5.5-27-22-27.1-22.2-.2-.3-.6-.5-.9-.3s-.5.6-.3.9c.1.2 10.2 18 29 23.2 4.8 11 9.9 23.1 15.1 35.5-22.2-5.3-38.2-24.8-38.4-25-.2-.3-.7-.3-1-.1s-.3.7-.1 1c.2.2 16.9 20.7 40.1 25.7 5.8 14.1 11.7 28.7 17.1 43-5.2-1.5-23.9-13.2-41-25-.3-.2-.7-.1-1 .2-.2.3-.1.7.2 1 .1.1 10.1 7 20.3 13.5 14.7 9.3 19.9 11.6 22 11.9 4.2 11.1 8.2 21.9 11.6 32.2.1.4.5.6.9.4.4-.1.6-.5.4-.9-3.3-10.1-7.2-20.8-11.3-31.9-.1 0 0 0 0 0z"/></g><g clip-path="url(#b)"><path fill="#043A2C" d="M374.3 716.8c-14.2-1.7-20.4-11.3-22.2-21.3-2.7-14.4-.5-29.9 4.8-42.1 6.3-14.4 13-28.8 24.4-40.3 6.1-6.2 11.3-14.1 18.5-19 3.2-2.2 12.4-8.9 16.3-6 2.7 2 4 12.8 4.9 16.1 1.8 6.6 1.3 12.9 1.6 19.3.7 14.4-1 29.5-3 43.3-1.1 7.4-3 14.5-6.2 21.1-3.8 7.7-6.9 15.6-14.4 20.8-2 1.4-4.2 2.6-6.1 4.1-1.5 1.2-3.6 1.5-5.3 2.6-3.1 2.1-8.7 2-13.3 1.4z"/><path fill="#00785F" d="M377.4 694.7h.3c.2-.1 22.6-6.8 32.8-20.1.2-.2 0-.5-.2-.7-.3-.2-.6-.2-.8 0-9 11.8-27.8 18.3-31.7 19.6 3.8-9.1 7.5-18.6 11-27.9 2.1-.4 18.3-3.9 25.5-12.7.2-.2.1-.5-.2-.7-.3-.2-.6-.2-.8 0-6.3 7.8-19.9 11.3-24 12.2 3-8.1 5.9-16.1 8.4-23.4 1.5-.3 9.9-2.5 17.1-11.1.2-.2.1-.5-.2-.7-.3-.2-.6-.2-.8 0-6 7.1-12.9 9.8-15.6 10.6 7.5-21.5 12.4-37.6 12.5-37.9.1-.2-.1-.5-.4-.7-.3-.1-.6 0-.7.2-.1.3-5.1 16.5-12.5 38-9-12.1-6.6-24.4-6.6-24.5.1-.2-.2-.5-.5-.6s-.6 0-.7.2c0 .1-2.6 13.3 7.4 26-2.6 7.4-5.4 15.4-8.5 23.5-12.2-14.6-12.7-31.8-12.7-31.9 0-.3-.3-.5-.6-.6-.3-.1-.6.1-.6.4 0 .2.5 18.2 13.5 33.2-3.5 9.3-7.2 18.8-11 27.9-2.7-3.5-9.2-18.9-14.5-33.4-.1-.3-.4-.5-.7-.5-.3 0-.5.2-.4.5 0 .1 3.1 8.6 6.6 17 5 12.1 7.4 16 8.6 17.3-3 7.1-6 13.9-9.1 20.2-.1.2.1.5.4.7.3.1.6.1.8-.1 2.9-6.2 5.9-13 8.9-20z"/></g><g clip-path="url(#b)" fill="#00785F"><path d="M114.1 671s10.4-38.1 37.8-31c0 0-4.4 29.9-37.8 31z"/><path d="M88.2 613.1s42.6 20.1 28 58.4c0 0-34.4-10.4-28-58.4zm50.9-23.7s16.2-36-9.4-48c0 0-15.7 25.9 9.4 48z"/><path d="M196 561.3s-45.7-11.6-58.8 27.2c-.1 0 33 13.9 58.8-27.2zm-27.3 40.8s-6.3 34-43.9 31.5c0-.1 2.6-37.3 43.9-31.5z"/><path d="M106.7 573.5s35.9 19 19.9 60.3c.1 0-40.9-16-19.9-60.3z"/><path d="m141.8 584.6-2.5-1.1c-.2.6-24.3 56.2-34.1 146.9l2.7.3c9.8-90.2 33.7-145.5 33.9-146.1z"/></g><g clip-path="url(#b)"><path fill="#00785F" d="M1154.7 718c-13-.5-17.2-10.8-17.3-21.9-.2-16.1 4.4-34 11.4-48.5 8.2-17 16.9-34.1 29.4-48.4 6.2-7.1 12.7-13.5 18.5-20.9 2.6-3.3 7-5.5 10.5-7.6 1.7-1.1 3.9-3.3 5.8-3.9 2.3-.6 2.1 1.3 2.3 3.3.4 5 1.1 10 1.5 15 .6 7.3-.9 14.6-1.7 21.8-1.7 16.3-5.7 33.7-9.9 49.6-2.2 8.6-5.1 16.8-9.2 24.7-4.8 9.2-8.9 18.4-16.9 25.2-2.1 1.8-4.3 3.3-6.4 5.2-1.6 1.5-3.7 2.1-5.4 3.5-3.2 2.6-8.5 3-12.6 2.9z"/><path fill="#043A2C" d="M1161.2 692.5h.2l.1-.1c.2-.1 22.3-10 34-26.2.2-.2.1-.6-.1-.8s-.6-.1-.8.1c-10.4 14.3-29 23.7-32.8 25.5 5.1-10.8 10.1-22 14.8-32.9 2-.7 17.8-6.4 25.9-17.1.2-.2.1-.6-.1-.8s-.6-.1-.8.1c-7.2 9.5-20.5 14.9-24.4 16.4 4.2-9.6 8.1-18.9 11.7-27.5 1.5-.5 9.6-3.9 17.8-14.4.2-.2.1-.6-.1-.8s-.6-.1-.8.1c-6.8 8.7-13.7 12.5-16.3 13.7 10.5-25.2 17.7-44.1 17.9-44.5.1-.3 0-.6-.3-.7-.3-.1-.6 0-.7.3-.1.4-7.4 19.3-17.9 44.6-6.5-12.8-2.2-27.1-2.2-27.2.1-.3-.1-.6-.4-.7-.3-.1-.6.1-.7.4 0 .2-4.6 15.4 2.7 28.8-3.6 8.7-7.6 18-11.7 27.6-9.1-15.3-6.7-34.9-6.7-35.1 0-.3-.2-.6-.5-.6s-.6.2-.6.5c0 .2-2.5 20.7 7.3 36.4-4.8 10.9-9.8 22.1-14.8 32.9-2-3.7-5.5-20.5-8.1-36.5 0-.3-.3-.5-.6-.4-.3 0-.5.3-.4.6 0 .1 1.6 9.4 3.4 18.7 2.7 13.3 4.3 17.5 5.2 18.8-3.9 8.4-7.9 16.4-11.8 24-.1.3 0 .6.2.7.3.1.6 0 .7-.2 3.8-7.4 7.7-15.5 11.7-23.7-.1-.1-.1 0 0 0z"/></g><g clip-path="url(#b)"><path fill="#019A6D" d="M1145.3 717.5c-10.7 8.3-21.3 4.9-29.2-1.9-11.4-9.8-20.3-23.8-24.9-37.4-5.4-15.9-10.5-32.3-10.6-49.4 0-8.5.6-16.8 0-25.2-.3-3.7 1.8-8.1 3-11.7.6-1.8.7-4.6 1.9-6.3 1.4-1.9 2.6-.7 4.1.5 3.8 2.8 7.9 5.4 11.7 8.2 5.6 4.1 9.5 9.6 14 14.5 10.1 11.1 19 24.5 26.9 37 4.2 6.8 7.7 13.8 10 21.3 2.6 8.8 5.8 17.3 4.2 26.8-.4 2.6-1.1 4.9-1.4 7.5-.3 2-1.4 3.8-1.8 5.8-.6 3.8-4.5 7.6-7.9 10.3z"/><path fill="#9FC54D" d="m1132.6 697.5.2-.2c.1-.2 10.7-21 8.7-38.8 0-.3-.3-.4-.6-.4-.3.1-.5.3-.5.6 1.8 15.7-6.4 33.9-8.2 37.6-3.5-10-7.4-20.2-11.2-30.1 1.1-1.8 9.7-15.8 8.6-27.8 0-.3-.3-.4-.6-.4-.3.1-.6.3-.5.6 1 10.6-5.8 22.9-8 26.4-3.4-8.7-6.8-17-10-24.7.8-1.3 4.9-8.8 4.1-20.7 0-.3-.3-.4-.6-.4s-.6.3-.5.6c.7 9.9-2.2 16.8-3.4 19.3-9.4-22.5-16.8-38.9-17-39.3-.1-.2-.4-.3-.7-.2-.3.1-.4.4-.3.7.2.3 7.6 16.8 17 39.3-14.1-3.6-20.8-15.1-20.8-15.2-.1-.2-.5-.3-.8-.2s-.4.4-.3.7c.1.1 7.2 12.5 22.4 15.9 3.2 7.7 6.6 16.1 10 24.8-18-3.3-29.8-16.9-29.9-17-.2-.2-.5-.2-.8-.1-.3.2-.3.5-.2.7.1.1 12.5 14.3 31.3 17.5 3.9 9.9 7.7 20.1 11.2 30.1-4.2-1-18.8-8.9-32.1-17-.2-.1-.6-.1-.8.1-.2.2-.2.5.1.7.1 0 7.8 4.7 15.8 9.2 11.5 6.4 15.6 7.9 17.3 8 2.7 7.8 5.2 15.4 7.4 22.6.1.3.4.4.7.3.3-.1.5-.4.4-.6-2.3-7.3-4.8-14.9-7.4-22.6-.1 0 0 0 0 0z"/></g><path clip-path="url(#b)" fill="#019A6D" d="M729.2 731s1.8-11.8 33-13.3c31.2-1.6 53.3-36.4 48.6-38.3-4.7-1.9-5.7-5.4-17.6 6.6-11.9 12.1-25.6 26.1-39.9 27.9-14.3 1.8-24 8.7-24 8.7s-1-13 4.4-16 6.8-3.2 13.4-3.3c6.6-.1 15.7 2.4 28.5-8.1 12.7-10.5 24-29.8 20.6-29.4-3.4.3-4.2-3.7-16.4 9.5s-18.7 20.4-33.6 22c-14.9 1.6-10.8 3.4-10.8 3.4s-3.7-8 20-20c23.6-12 28.7-18.3 31.3-23.3 2.7-5 15-18.8 10.7-22-4.4-3.1-16.3 14-16.3 14s-9.3 12.1-17.4 15.6c-8.2 3.5-25.9 20.3-25.9 20.3s9-30.1 16.1-34.5 29.2-13 32.7-16.5c3.6-3.5 33.9-34.7 24-46.4 0 0-6.7-1.9-11.4 10.3-4.7 12.1-13.8 26.2-17.8 28.9s-25.6 16.6-26.2 18.9c-.7 2.4 5.8-25.9 18.4-35.8 12.6-9.9 34.3-41 29.8-53.1 0 0-4.5-5.1-8.8 3.3-4.3 8.4-9.5 24.8-13.2 28.9-3.7 4.1-14 19.8-14.5 21.5s1.2-16.3 5.3-21.5c4.1-5.3 4.3-25 .2-24.2 0 0-6 .3-7.6 13.2-1.6 13-3 43.9-7.8 54.1-4.8 10.2-8.6 19.3-8.6 19.3s-5.2-9.7-3.2-19.4 2.2-12.8-1.6-13.2c0 0-5.4 3-4.8 12.7.6 9.7 6.3 24.7 6.3 24.7l-1.5 5.3s-6.8-13.4-6.8-20.4c0 0-3.4-4.1-3.6 3.5-.1 7.6 7.1 21.8 7.1 21.8l-4.4 13.5s-7.4-13.5-6.6-23.5c.8-10 1.4-16.9-2.9-15.5-4.3 1.4-4.2 29.5 5.9 45.1l-3.7 18.1s-.6-19.3-7.9-28.4c-7.3-9.1-2.2-39.6-2.2-39.6s.5-4.3-4.3-1.2-9.3 24.3 3 43.6c12.3 19.4 6 27.9 6 27.9s-17.1-18.8-16.6-30.1c.5-11.4-.8-23.2-3.7-22.1-2.9 1.1-2.9 1.1-3.1 4.2-.2 3.1-1 20.2 4.4 26.8s15.4 20.2 15.6 24.1c.2 3.9-16.3-9.6-20.6-17.8s-7.8-14.3-10-11.1-4.1 7.8 1.9 12 35.4 28.3 35.8 34.2l-.3 3.8 2.6.3z"/></svg>