<svg xmlns="http://www.w3.org/2000/svg" xmlns:xlink="http://www.w3.org/1999/xlink" viewBox="0 0 1200 700" xml:space="preserve"><defs><path id="a" d="M0 0h1200v700H0z"/></defs><clipPath id="b"><use xlink:href="#a" overflow="visible"/></clipPath><g clip-path="url(#b)"><path fill="#B04842" d="M360.6 535.6c0-.5-.5-.6-1-.6h-6.2c-.1 0-.3 0-.4.1-.4.1-.7.4-.7.7v237.6c0 2.8-.5 6.1-.1 9 0 .2 0 .3.1.5v.6c0 1 2.2.7 2.3-.1l.6-24.7 1.5-59.3 1.8-71.4 1.5-61.7c.2-6.8.3-13.6.5-20.5.1-3.1.7-6.5.2-9.6-.1-.3-.1-.4-.1-.6zm20.4 0c0-.5-.5-.6-1-.6h-6.2c-.1 0-.3 0-.4.1-.4.1-.7.4-.7.7v237.6c0 2.8-.5 6.1-.1 9 0 .2 0 .3.1.5v.6c0 1 2.2.7 2.3-.1l.6-24.7 1.5-59.3 1.8-71.4 1.5-61.7c.2-6.8.3-13.6.5-20.5.1-3.1.7-6.5.2-9.6-.1-.3-.1-.4-.1-.6z"/><path fill="#E76158" d="M478 505.6c-4.1-11.3-10.5-22-17.7-31.6-8.9-11.8-19.8-22.4-32.5-30-23.6-14.1-54.9-17-79.6-4-6.8 3.6-13.1 8.3-18 14.2-2.8 3.5-5.1 7.4-6.5 11.6-.7 2.1-1.3 4.3-1.6 6.5-.2 1.6 0 3.5-.6 5-.5 1.1-1.7 2.2-2.6 2.9-2.5 1.9-5.2 1.9-8 .3-4-2.2-6.7-6.2-7.7-10.6-1.1-4.6-.4-9.5 1.9-13.6 2.4-4.3 6.3-7.1 10.1-9.9 14.6-10.6 31.3-22.8 37.2-40.7 2.3-7 1.8-13.7.6-20.8-1.1-6.4-3.1-13-6.9-18.3-4.2-6.1-10.3-8.7-17.5-8.7h-.1c-6-.3-14.2.8-17.6 6.4-2 3.3-3.8 7.6-3.8 11.4 0 4.2 2.7 7.1 6.2 9 5.2 2.7 12.5 3.7 17.2-.6.9-.8 2.9-3.1 2.7-4.4.5.3.9.7 1.2 1.1 3 3.4 2.4 8.9 2.1 13.1-.6 7.8-2.3 15.5-6.6 22.1-6 9.1-15.2 12.9-25.2 16.3-13.3 4.5-24.2 14.5-32 26-17.6 26.2-19.5 62.4 1.7 87.2 12.9 15.1 32.2 24.5 51.4 28.3 18.4 3.7 37.2 2 54.8-4.2 16.9-6 32.2-15.4 46.8-25.7 11-7.8 21.7-17 33.9-22.9 1.9-.9 4-1.8 6.1-2.3.8-.2 1.7-.4 2.6-.4.4.1.9.3 1.3.5 2.2 1.2 5.2 3.1 7.9 2 4.3-1.5-.3-12.6-1.2-15.2zm-2.8 14.9c.1 0 .1 0 0 0 .1.1 0 .1 0 0 0 .1 0 0 0 0zm2.1.3z"/><path fill="#A6A6A7" d="M314.7 376.7s-3.8-3.8-6.1-1.5-11.5 11.5-11.5 13.1c0 1.2 7.6 4.3 10.8 5.6.9.3 1.9.1 2.5-.7l5.5-6.8c2.3-2.9 1.9-7.3-1.2-9.7.1.1 0 .1 0 0z"/><path fill="#1A1B1F" d="m310.5 391.8-10.6-6.6c-.4-.3-1-.2-1.3.2-1.1 1.4-4.6 6.5-1.3 11.7l.6 1c2.4 3.8 3.4 5.5 4.7 5.8h.4c.5 0 1-.2 1.6-.6 1.9-1.3 5.1-7.6 6.4-10.3.1-.3-.1-.9-.5-1.2z"/><path fill="#FFF" d="M325.8 375.4c0 3.1-2.5 5.5-5.5 5.5-3.1 0-5.5-2.5-5.5-5.5 0-3.1 2.5-5.5 5.5-5.5s5.5 2.4 5.5 5.5z"/><path fill="#1D0104" d="M322.4 378c-.2-.5-.6-.9-.9-1.2-.6-.5-1.1-.4-1.3-.3-.2.1-.6.4-.6 1.2 0 .4.1 1 .4 1.5.2.5.6.9.9 1.2.4.3.7.4.9.4.2 0 .3 0 .4-.1.7-.3.8-1.5.2-2.7z"/><path fill="#FFF" d="M409.1 476.1c-1.8-.2-3.6-.2-5.5-.3 2.2-1 4.3-2.3 6-4.1 3.7-3.9 2.6-9.7-.9-13.5-4.5-4.7-11.4-3.5-16.8-1.4-2.2.8-4.3 1.8-6.4 2.9.2-.5.4-1.1.6-1.6 1.4-5-2.5-7.3-6.9-6.8-11.9 1.4-21.3 13.1-27.8 22.2-2.1 3-4.2 6.1-5.9 9.3-.1.2-.2.5-.1.9 0 .8.5 1.9 1.1 2.2 6.7 4 13.7 7.4 20.9 10.5 12 5.3 25.4 10.3 38.7 10.3 5.5 0 11.2-1 15.6-4.5 3.8-2.9 7-8 7.1-12.9.2-10.2-11.9-12.6-19.7-13.2z"/></g><g clip-path="url(#b)"><path fill="#7B423B" d="M150.7 558.5c-.7-6.4-2.6-12.7-4.9-18.7-4.6-12-11.1-23.1-17.7-34.1-2.5-4.1-5.5-8.2-7.4-12.7-2.4-5.6-3.3-11.8-3.8-17.8-.4-5.7-.4-11.3 0-17 .2-3.1.3-6.3 1.1-9.3 1.3-5.3 2.5-10.6 3.2-16.1 1.8-15.4.1-35.7-17.6-40.7-9.6-2.7-22-1.8-31 2.6-7.4 3.6-12.6 10.3-15.4 17.9-1.9 5.1-2 10-3 15.2-.8 3.4-1.7 6.8-2.5 10.2-.3 1.2-.5 2.4-.9 3.6-.2.7-.4 1.5-.8 2.2-.1.2-.3.5-.4.7-.6.5-.9.8-.9 1-.5 0-1 .1-1.2.1H44c-13.2.1-26.2 2.4-38.6 6.9-7.9 2.8-16 5.6-23.3 9.8-9.7 5.6-18.7 12.3-27.4 19.2-5.6 4.4-10.9 8.6-15.5 14-8.6 10.3-16.4 21.3-22.8 33.1-9.7 18-16.1 38.1-15.2 58.7 1.4 33.1 21.4 61.2 45.7 82.3 10.2 8.9 21.2 16.7 32.7 23.8 6.7 4.1 13.8 7.7 20.4 12 .5.3 1.1.7 1.4 1.1 2 2.4 1.7 6.5 1.4 9.4-.3 2.7-1.7 7.2-.4 9.8 1 2 4.3 3 6.2 3.7 4 1.4 8.1 2.4 12.2 3.2 9.5 1.9 19.4 2.9 29.2 2.5 3.8-.2 7.8-.4 11.4-1.7 2.8-1 6-3.5 4.9-6.9-1.3-4.1-7.1-6.3-10.6-7.8-1.7-.7-4.7-1.2-5.7-2.8-.8-1.2-.8-3-.4-4.4.3-1 .8-1.8 1.5-2.5.4-.4.8-.7 1.2-1 .4-.2.8-.3.9-.4 1.9.2 4.1 1.1 5.9 1.5 3 .7 6 1.4 9.1 2 5.7 1.2 11.4 2.2 17.2 2.8 4.5.4 21.5 2.6 19.3-6.1-.7-3-3.4-5.3-5.7-7-2.7-2-6.6-3.2-7.8-6.7-1-3.2.5-5.5 2.4-7.9 1.8-2.4 3.6-5 5.3-7.5 8.4-12.9 14.7-27.4 17.5-42.6 1-5.6 1.3-11.5-.5-17-1.1-3.5-3.1-6.4-5-9.5-1.6-2.5-2.9-5.1-2.5-8.1.2-2.1 1.2-3.9 2-5.8 1.3-3 2.2-6.2 2.8-9.5 1.3-6.3 1.8-12.8 2.1-19.2.1-2.3.2-4.5.5-6.8.8.9 1.6 1.8 2.3 2.8 2 2.7 3.8 5.6 5.7 8.4 1.7 2.5 3.6 5 3.7 8.1 0 2.2-.9 4.1-1.9 5.9-1.8 3.4-2.5 6.6.3 9.7 1.9 2.1 4.5 2.3 7.2 2.1 9.7-.7 13.4-11.8 15.8-19.7 1.6-6.3 2.6-12.4 1.8-19z"/><path fill="#272525" d="M64.7 390.2c.3 4.2 1.2 8 3.2 8.9 1.6.7 3.5.4 5.3 0 13.3-2.6 27-3.6 40.6-2.7.9-6 1.2-12.1.7-18.1 6.5.3 13-.2 19.4-1.5-.7-2.2-2.6-3.8-4.4-5.3-10.3-8.2-20.4-17.5-31.4-24.7-1.2-.8-2.6-1.7-4.1-1.6-.8 0-1.6.4-2.3.7-4.8 2.1-9.7 3.7-14.4 6-5.4 2.7-10.8 5.5-16.1 8.4-4.6 2.5-8.3 6.3-13.2 8.4-.9.4-2 1.2-1.6 2.1.2.4.7.7 1.1.8 5.6 2.1 11.4 3.9 17.3 5.3.1 0-.6 7.1-.1 13.3z"/><path fill="#EAC52D" d="m128.3 393.7-.1.9c-7.2-.7-14.2-5.2-21.4-13.8-1.2-1.5-2.5-3-3.6-4.5-4.1-5.1-8.3-10.5-13.9-14.1l.5-.7c5.6 3.7 9.9 9.1 14.1 14.3l3.6 4.5c7.1 8.3 13.9 12.7 20.8 13.4z"/><path fill="#EAC52D" d="M128.4 398c3 1.3 6.1 2.5 9.2 3.5.2.1.5.1.7 0s.3-.3.3-.5c.9-2.4 1.7-4.9 2.4-7.4.1-.2.1-.4 0-.6s-.3-.2-.5-.3c-.8-.3-1.5-.6-2.3-.9-2.5-1-5.1-1.9-7.7-1.7-5.4.4-7.7 5.4-2.1 7.9z"/><path fill="#EAC52D" d="M122.5 393.5c.2 1.7 2 3.2 3.9 2.1 3.1-1.7.3-6.6-2.8-4.5-.9.7-1.2 1.6-1.1 2.4z"/><path fill="#070707" d="M89 364.4c2 1.5 5.1-.7 3.7-3-.7-1.3-2.9-1.8-4-.7-1 1-.9 2.9.3 3.7z"/><path fill="#7B423B" d="M73.5 397.1c-1.3-2.6-2.8-5.1-4.7-7.2-4.1-4.6-9.7-5.3-14.2-.7-4.7 4.9-7 12.4-1.8 17.7 3.2 3.3 7.9 5.4 12.4 6.4.5.1 1.1-.1 1.4-.4.2-.1.3-.2.4-.3 1.7-2 3.4-4.1 5.1-6.1 1-1.2 3.5-3.2 3.4-4.8 0-1.4-1.4-3.4-2-4.6zm52.9-4c-1.3-4.3-6.7-7.6-11-7.5-3.8.1-6.7 2.6-8.5 5.8-1.4 2.5-2.3 5.4-2.8 8.3-.1.1-.1.3 0 .4 0 0 0 .1.1.1 2.7 2.9 5.3 5.8 8 8.7.6.6 1.8.2 2.4-.1 5.1-2.8 13.8-9 11.8-15.7z"/><path fill="#FFF" d="M69.6 396.2c-3.3-3.6-7-1.3-9.3 2.1-2 3-2.8 6 .3 8.5 3.4 2.8 7.8 3.8 11 .2.1-.1.2-.2.2-.3 2.4-3.2.2-7.8-2.2-10.5zm47.9-2.9c-2.7-1.7-6.6-2.2-9 .3-2.1 2.1-3.2 7.3-1.3 9.7l.1.1c2.8 3 7.6.6 9.6-2s4.2-5.9.6-8.1zm1.6 56.3c-.8-4.8-1.7-10-3.7-14.4-2.6-5.7-8.1-10.3-14.4-11.1-5.4-.7-10.3 1.7-14.1 5.4-9.4 9.9-7.2 24.6-3.6 36.6 1.1 3.7 2.3 7.4 5.5 9.8 3.4 2.6 7.8 4.1 12 4.2 4.8.2 9.6-1.3 13.4-4.3 3.6-2.8 5.1-6.7 5.6-11.2.6-5 .1-10.1-.7-15z"/><path fill="#2E1313" d="M113.1 462.7c-.5-4.2-5.8-6.8-9.8-6.2h-.2c-4.3.5-10.9 2.6-11.3 7.8-.5 5.4 6.6 6.4 10.5 6.2 4.1-.3 11.5-2.5 10.8-7.8z"/><path fill="#91625D" d="M18.1 537.9c3.2 10.8 11.4 20.7 19.8 27.8 1.8 1.5 3.6 2.9 5.5 4.3 1.4 1 3.2 1.8 4.5 3 2.1 1.9 3.3 5 4.2 7.6 2.6 7.4 1.6 15.9 5.1 23.1 2.9 5.8 9.5 8.2 15.7 6.6 5.1-1.3 7.8-6.1 9.1-10.9 3.6-13.6.2-30.9-7.7-42.4-2.9-4.3-6.4-7.8-8.3-12.8-1.8-4.5-2.6-9.4-2.6-14.3-.1-5.2.5-10.8 2.1-15.8.4-1.2-2.8-.8-3.1.3-3.4 10.7-3.1 23.9 2.1 33.9 1.8 3.5 4.4 6.2 6.7 9.3 2.1 3 3.7 6.3 5 9.7 2.6 6.9 4 14.5 4 21.9 0 5.6-.6 12.7-4.5 17.1-4.6 5.2-13.1 1.3-15.6-4.1-3.1-6.7-2.3-14.4-4.4-21.4-.9-3-2.2-5.9-4.1-8.4-1.6-2-3.9-3-6-4.5-10.3-7.3-20.6-18.5-24.3-31-.4-1.1-3.5-.3-3.2 1z"/><path fill="#FFF" d="M35.2 607c5.4 4.1 9.8 9.9 13.3 15.6 8.9 14.3 12.4 31.3 11 48-1.2 14.5-5.6 28.4-11.7 41.5-.8 1.7 2.4 1.8 3 .4 9.7-20.9 15.3-44.4 10.3-67.3-2.8-12.9-9-25.1-17.9-34.8-1.7-1.9-3.6-3.7-5.6-5.3-1.2-.9-3.9.8-2.4 1.9zm26.1-12.2c0-.6-3.1-.2-3.1.8-.2 4.8 1.7 11-1.4 15.2-.7.9 2.4.5 2.9-.1 3.3-4.5 1.4-10.7 1.6-15.9zm3 5.4c.5 2.9 1.5 8.6-.9 10.9-1.4 1.3 1.6 1.7 2.6.8 3-2.8 2.1-8.9 1.4-12.5-.2-1.4-3.3-.6-3.1.8zm9.5 1.1c-.4-1.5-3.5-.6-3.1.8 1 3.6 1.3 7.7.2 11.2-.6 1.7 2.6 1.7 3 .4 1.3-3.9 1-8.4-.1-12.4zm53.4-12.3c1.2-1.6 2.4-3.4 3.4-5.2.7-1.2-2.4-.9-2.9 0-.7 1.2-1.4 2.3-2.1 3.5-.6.9-1.3 1.8-2 2.6-.3.4-.7.8-1.1 1.2-.5.4-.8.3-.1.3-.6 0-1.8.2-2.1.8-.2.6.2.8.8.9 2.7.1 4.7-2.1 6.1-4.1zm3.9-.8c-.4 3.4-2.9 6.2-6.1 7.2-1.9.6-1.3 2.9.6 2.3 4.4-1.4 8.2-4.9 8.7-9.7.1-1.6-3.1-1.3-3.2.2zm9.6.5c-.1-1.7-3.2-1.2-3.2.2.2 3.9-1.1 8.2-4.5 10.5-1.8 1.1.8 2.3 2.1 1.5 4-2.6 5.9-7.6 5.6-12.2zM81.2 418c-.9-.2-1.8.8-2.2 2.3-.3 1.5.1 2.8 1 3h.2c.8 0 1.6-.9 1.9-2.3.1-.6.2-1.3 0-1.8-.1-.9-.6-1.2-.9-1.2zm30.4-1.3c-.3-.1-.8-.1-1.4.7-.3.4-.6 1-.7 1.7-.1.6-.2 1.3 0 1.8.2.9.7 1.1 1 1.2h.2c.8 0 1.6-.9 1.9-2.3.3-1.6-.1-2.9-1-3.1z"/></g><g clip-path="url(#b)"><path fill="#832D0F" d="M1084.4 540.4c-4.7-8.7-11.9-16.4-22.3-16.5-4.3-.1-9 .9-12.7 3.1-.7.3-1.2.7-1.1 1.1 2.5 6.7 11.4 9.3 17.6 10.9 5.1 1.3 10.4 2.3 15.7 2.7.4.1 3.3-.4 2.8-1.3z"/><path fill="#1A1B1F" d="M890.7 615.7c-.5 2.7 0 5.6.2 8.4.2 2.7.4 5.4.5 8.1 1 15.6 1.8 31.2 2.7 46.8.4 6.8.7 13.5 1.1 20.3.1 2.1.3 4.3.3 6.4 0 1.7-.4 2.9-1.3 4.3-.3.5-.7 1-.8 1.6-.1 1.4 1.4 2.2 2.7 2.3 2.6.3 3.9-3.5 4.6-5.4 2.2-5.7 3.3-11.9 4.2-18 3.7-24.6 2.4-50.1-2.2-74.5-1.3-6.6-10.8-7.5-12-.3zm31.5-.1c-.5 2.7 0 5.6.2 8.4.2 2.7.4 5.4.5 8.1 1 15.6 1.8 31.2 2.7 46.8.4 6.8.7 13.5 1.1 20.3.1 2.1.3 4.3.3 6.4 0 1.6-.4 2.9-1.3 4.3-.3.5-.8 1-.8 1.6-.1 1.4 1.4 2.2 2.6 2.4 2.7.4 3.9-3.4 4.6-5.3 2.2-5.7 3.3-11.9 4.3-18 3.7-24.6 2.4-50.1-2.2-74.5-1.4-6.5-10.8-7.7-12-.5zm82.1-2.3c-.5 2.7 0 5.6.2 8.4.2 2.7.4 5.4.5 8.1 1 15.6 1.8 31.2 2.7 46.8.4 6.8.7 13.5 1.1 20.3.1 2.1.3 4.3.3 6.4 0 1.7-.4 2.9-1.3 4.3-.3.5-.7 1-.8 1.6-.1 1.4 1.4 2.2 2.7 2.3 2.6.3 3.9-3.5 4.6-5.4 2.2-5.7 3.3-11.9 4.2-18 3.7-24.6 2.4-50.1-2.2-74.5-1.3-6.6-10.8-7.5-12-.3zm37.6-2c-1.5-6.4-10.9-7.9-12.1-.6-.5 2.7 0 5.6.2 8.4.2 2.7.4 5.4.5 8.1 1 15.6 1.8 31.2 2.7 46.8.4 6.8.7 13.5 1.1 20.3.1 2.1.3 4.3.3 6.4 0 1.7-.4 2.9-1.3 4.3-.3.5-.8 1-.8 1.6-.1 1.4 1.5 2.2 2.7 2.4 2.6.4 3.8-3.2 4.5-5 2.3-5.8 3.4-12.1 4.3-18.2 3.7-24.6 2.4-50-2.1-74.5z"/><path fill="#945147" d="M994.3 362.3c-.3-3.1-7.3-1.5-7 1.9v.6c0 1 0 2-.1 3-.2 3.1-.8 6.2-1.7 9.2-3.1 10.2-10.2 18.6-19.2 24.2 3.3-6.4 3.9-14.5 3.2-21.4-.1-1.1-3.6-.4-3.5.9.7 7.4-.1 16.7-4.5 23.1-3.2 1.5-6.5 2.7-9.8 3.8 3-5.6 3.2-14.2 3.3-19.2 0-1.3-3.5-.6-3.5.5-.1 3.1-.4 6.3-.9 9.3-.4 2.6-1 7.5-2.8 10.6-1.7.5-3.3 1-5 1.5-2.1.6-4.3 1.4-6.4 2.2 1.4-3.2 2-7 2.5-10 .7-3.9 1.2-7.9 1.5-11.9 0-.5-3.4-.1-3.5.9-.3 3.9-.8 7.7-1.5 11.5-.6 3.2-1.2 7.6-3 11-2.3 1-4.6 2.2-6.7 3.4.3-3.8-1-8.1-2.2-11.2-.5-1.2-3.9-.2-3.5.9 1.2 3.2 3 8.6 2.1 12.6-.2.1-.4.3-.6.4-8.6 6-15.6 14.4-19 24.5-1.7 5.1-2.8 10.8-2.3 16.2.3 3.1 7.3 1.5 7-1.9v-.6c0-1 0-2 .1-3 .2-3.1.8-6.2 1.7-9.2 3.2-10.4 10.4-18.8 19.6-24.5 7.2-4.4 15.1-6.5 23.1-8.9 7.5-2.3 14.8-5.5 21.3-10 8.6-6 15.6-14.4 19-24.5 1.7-4.8 2.8-10.4 2.3-15.9zm-118.2 70.6c-1.3-1-2.6-1.9-3.9-2.8-1-4 .7-9.3 2-12.6.4-1-3.1-.6-3.5.5-1 2.7-2.2 6.4-2.3 9.8-2.1-1.2-4.3-2.3-6.5-3.2-2.1-3.6-2.7-8.7-3.3-12.2-.6-3.6-1.1-7.2-1.3-10.9-.1-1.4-3.6-.6-3.5.9.3 4.2.8 8.4 1.6 12.5.5 2.4 1 5.1 1.9 7.7-3.5-1.3-7-2.3-10.5-3.3-1.9-3-2.5-7.4-3-10.2-.6-3.3-.9-6.7-1-10.1 0-.8-3.5-.2-3.5.9.1 3.9.5 7.9 1.3 11.7.4 1.9.8 4.2 1.6 6.3-3.2-1-6.3-2.2-9.3-3.7-4.5-6.5-5.4-15.8-4.7-23.4.1-1.2-3.4-.6-3.5.5-.6 6.2-.2 13.4 2.3 19.4-7.6-5.2-13.9-12.2-17.2-21-1.9-4.9-3.2-10.6-2.7-15.9.3-3.5-6.8-2.5-7.1.6-1.4 14.4 7.1 29 18 37.7 5.5 4.4 12 7.7 18.6 10.1 8.4 3.1 17.2 4.6 25.2 8.9 10 5.3 18.4 13.5 22.4 24.2 1.9 4.9 3.2 10.6 2.7 15.9-.3 3.5 6.8 2.5 7.1-.6 1.4-14.5-7-29-17.9-37.7z"/><path fill="#C4471B" d="M1083.4 575c-1.1-6.7-2.9-13.3-5.9-19.5-3.2-6.8-8.2-12-13.6-17.1-6.4-6.1-13.6-11.4-21.8-14.8-7.5-3.1-15.5-4.4-23.6-4.9-9.9-.6-20-1-29.8.7-10.1 1.7-19.9 5-29.5 8.5-9.1 3.3-18.1 7.1-27.5 9.4-5.1 1.2-12.4 3-15.9-2-3.9-5.5-4.7-13.4-5.4-19.9-.7-6.8-.8-13.6-.9-20.4 0-2 0-4-.2-6-.3-2.8.6-4.8 3.5-6 2.7-1.1 6-1.3 8.9-2.3 4.4-1.4 8.6-3.3 12.7-5.3 6.4-3.1 13.3-6.4 18.7-11.2 3.9-3.4 3.6-9.8-2-11.1-7.9-1.8-16.5-2-24.5-3.1-11-1.4-22.5-4.2-33.5-1.6-3.7.9-7.8 2.3-10.6 5.1-3.4 3.6-5.5 8.7-7.4 13.2-2.9 6.8-5.4 13.8-7.7 20.7-4.1 12.1-7.7 24.3-11 36.6-7.8 28.5-12.9 59.3-2.6 87.9 7.9 22 24.7 39.1 45.8 48.9 16.4 7.7 35.5 11.5 53.5 9.9 10.6-.9 19.8-5.6 29.4-9.9 21.3-9.6 42.6-19.4 66-22.2 7.5-.9 14.1-1.3 20.2-6 4.9-3.8 8.4-9.1 10.8-14.8 5.7-13.1 6.2-28.8 3.9-42.8z"/><path fill="#F9EACD" d="M887.8 455.5c-10.3-11.7-27.6-11.3-40.6-5.2-.3.1-2 1.1-1.7 1.7 2.9 4.5 7.5 8.4 12.4 10.7 10.1 4.7 20.5.7 28.8-5.8.7-.5 1.3-1.1 1.1-1.4z"/><path fill="#1A1B1F" d="M947.3 449.1c-2.7 0-4.8 2.2-4.8 4.8 0 2.7 2.2 4.8 4.8 4.8 2.7 0 4.8-2.2 4.8-4.8 0-2.7-2.1-4.8-4.8-4.8z"/><path fill="#FFF" d="M902.4 464.3c.9 1.9 1.2 3.6.5 4s-2-.9-3-2.7c-.9-1.9-1.2-3.6-.5-4 .8-.4 2.1.8 3 2.7zm97.1 124.3c-3.5.8-4 4.4-3.1 7.4.8 2.7 2.9 5.4 6 4.8 3.7-.7 4.1-4.4 3.3-7.5-.9-2.7-2.9-5.5-6.2-4.7zm12.1-15.7c-2.5.6-3.1 3.3-2.4 5.5.6 2.1 2.3 4 4.7 3.5 2.7-.6 3.1-3.2 2.5-5.5-.7-2.1-2.4-4.1-4.8-3.5zm42.2-5c-.7-2.1-2.2-3.7-4.6-3.2-2.6.6-3.3 2.8-2.6 5.2.6 2 2.1 3.6 4.4 3.2 2.7-.4 3.5-2.7 2.8-5.2zm-25.3 11.1c-2.2.6-2.9 2.8-2.2 4.9.6 1.9 2.1 3.5 4.2 3 2.4-.5 2.9-2.8 2.3-4.9-.6-1.9-2.1-3.5-4.3-3zm-30.7 4.2c2.3-.5 2.9-2.7 2.4-4.8-.6-1.9-2.1-3.5-4.3-2.9s-2.9 2.8-2.3 4.8c.6 1.8 2.2 3.4 4.2 2.9zm22.5 2.1c-2.3.5-3.1 2.5-2.5 4.6.5 1.8 1.9 3.1 3.9 2.8 2.5-.4 3.3-2.5 2.7-4.7-.7-1.8-2-3.2-4.1-2.7zm8.2-22.1c-2.3.6-2.8 2.9-2.2 4.9.6 1.9 2.1 3.6 4.2 3.1 2.4-.5 2.9-2.9 2.3-5-.6-1.8-2.1-3.5-4.3-3zm-44.7 20.5c-2.5.6-3.1 3.4-2.4 5.6.6 2.1 2.3 4.1 4.7 3.6 2.7-.5 3.1-3.4 2.5-5.6-.7-2.1-2.4-4.2-4.8-3.6zm-10.6 7.8c-2.3.5-3.2 2.3-2.5 4.5.5 1.8 1.9 3 3.8 2.7 2.4-.4 3.3-2.2 2.7-4.5-.6-2-2-3.2-4-2.7z"/><path fill="#832D0F" d="M917.1 467.2c0 2.7-2.2 4.8-4.8 4.8-2.7 0-4.8-2.2-4.8-4.8 0-2.7 2.2-4.8 4.8-4.8 2.6 0 4.8 2.1 4.8 4.8z"/></g><g clip-path="url(#b)"><path fill="#F09C26" d="M743.4 574.3c-3.3-3.6-6.8-6.9-10.5-10-14.4-12.2-31.7-21.5-50.3-25.1-11.9-2.3-24.1-2.1-35.9.6-6.8 1.5-13.5 3.8-19.8 6.8-5.5 2.6-11.5 5.4-16.2 9.2-1.7 1.4-3.3 3.1-4.9 4.6-3.7 3.6-7.2 7.3-10.7 11.1-10.5 11.6-20.2 24-28.2 37.4-9 14.9-16.2 31.5-18.2 49-2 18.1 2.7 35.8 13.8 50.2 7.1 9.3 16.3 16.8 26.1 23.1 5.9 3.8 12.2 7.1 18.5 10.1 2.5 1.2 4.9 2.2 7.6 3 25.4 7.7 53.5 8.6 79.3 2.5 1.4-.3 3.2-.3 3.8-1.8.3-.9.4-1.9.2-2.8-1-4.2-7.3-3.6-10.4-3.2-2.5.3-1-2-.2-3.1 1.5-2 3.2-3.7 5-5.4 3.2-3 6.9-5.1 9.8-8.5 6.8-7.9 10.7-18.2 13.4-28.3-.6 9.6-1.2 19.2-1.8 28.7-.2 2.5-.4 5-.5 7.5 0 1.9 1.3 3.6 3.2 3.8 2.5.2 5.4-1.7 6.3-4.1.6-1.8.8-3.8 1.1-5.6 2.2-16.3 2.5-33 3.1-49.4.7-17.6 1.2-35.3 2.2-53 .2-2.5.3-5 .6-7.5.1-.8.2-1.7.3-2.5 0-.2.2-.7.3-1.1.2-.1.4-.1.6-.2.2-.1.4-.1.6-.2.1.3.5.8.6 1 .3.8.5 1.7.6 2.5.6 3.3.9 6.6 1.1 10 .5 7.1-.1 14.3-.5 21.4-.6 10.5-1.4 21-2.1 31.5-.7 10.4-1.5 20.7-2 31.1-.3 6.6-.9 13.5-.1 20.1.1 1.1.3 2.8 1.5 3.3 2.7 1.1 4.6-2.4 5.4-4.4 2.9-7.3 3.7-15.7 4.5-23.5.2-2.3.2-4.5.3-6.8.2-6.4.4-12.8.5-19.2.5-18.6 1.1-37.2 1.6-55.8l1.2-42.4c0-2 .4-3.2-.8-4.6z"/><path fill="#CE5039" d="M766.4 536.2c-.4-15.3-4.6-31.1-10.7-45-4.4-10-10.9-20.1-21.4-24.4-7.9-3.3-16.8-2.8-25.1-1.6-7.7 1.1-16.3 3.8-24.1 1.6-11.7-3.4-21-12.6-31.5-18.4-9.8-5.4-21.8-7.5-31.2-.1-2.5 1.9-4.4 4.4-6.7 6.5-1.9 1.7-4 3.3-6.2 4.7-4.8 3-10 5.3-15.3 7.4-10.3 4.1-21.2 7-30.9 12.2-7 3.7-13.7 9.4-12.6 18.1.4 2.9 1.6 5.5 2.3 8.3.7 3 1.1 6.3.5 9.4-.9 4.8-4.2 8.3-7.7 11.5-3.1 2.8-6.2 5.6-7.8 9.6-1.7 4.8-1.1 10.7-.8 15.7.4 6.3 1.1 12.7 2.2 18.9.9 4.8 2.3 9.5 5.2 13.5 3.9 5.5 9.8 8.9 16.3 10.5 6.9 1.7 14.5 2.2 21.6 1.9 3.2-.1 7.3-1 9.9-.8 4.6.3 9.2 2.9 13.2 5 5.5 2.8 10.7 5.9 16.1 8.8 4.6 2.5 9.4 4.7 14.4 5.9 5.7 1.4 11.7 1.7 17.5 1.2 12.8-1.1 24.6-6 36.8-9.7 17.4-5.3 35.6-10.1 50.9-20.4 7.5-5.1 14-11.5 18.5-19.5 5-9.5 6.8-20.2 6.6-30.8z"/><path fill="#F09C26" d="M756.5 535.8c-1.1-8.3-4.1-16.6-8.7-23.6-3.9-5.9-9.5-11.4-16.6-13.1-1.5-.4-3-.5-4.6-.5-11.2-2.6-25-2.3-35.1 3.7-8.6 5.1-12.4 13.7-13.2 23.3-.9 10.3-.7 21.3 3.5 30.9 3.6 8.3 10.2 14.5 18.8 17.6 5 1.8 10.4 2.5 15.7 2.6 6.2.1 12.7-.3 18.6-1.8 8.1-2.1 14.9-7.3 18.5-14.8 3.7-7.5 4.2-16.2 3.1-24.3z"/><path fill="#FFF" d="M721 546.4c-2.1-1.5-4.7-1.2-6.6.2-1.6-1.6-4-1.6-6.2-.4-2.8 1.5-4.8 4.8-4.6 8 .1 2.9 2.7 6.1 5.8 5.8 2.4-.3 3.7-2.1 4.5-4.2.7 2.1 1.8 3.9 3.7 4.1 3 .3 6-2.3 6.8-5 .8-3.1-.8-6.7-3.4-8.5z"/><path fill="#040100" d="M701.5 530.6c-.1-.6-.3-1.2-.6-1.6-.5-.7-.9-.8-1.2-.7-.9.2-1 1.6-.7 2.9.1.6.3 1.2.6 1.6.4.6.8.7 1 .7h.1c.2 0 .7-.3.8-1.1.2-.5.2-1.1 0-1.8zm31.1-.8c-.2 0-.7.1-1 .9-.2.5-.3 1.1-.4 1.7 0 .6 0 1.3.2 1.7.3.8.7 1 1 1 .2 0 .7-.1 1-.9.2-.5.3-1.1.4-1.7.1-1.3-.3-2.7-1.2-2.7z"/><path fill="#FFF" d="M724.9 499.1c-2.8-.6-5.6-1.1-8.4-1.4-2-.3-4-.5-6.1-.4-1.2 0-2.7.1-3.8.8-.1 0-.1.1-.1.1.3 7.1.7 14.3 1.1 21.4.3 5.6.7 11.3 1.2 16.9.3 4.1.6 8.3 1.4 12.3.1.7.2 2.4 1.1 2.5 1.1.1 2.2 0 3.3 0h3.1c.1 0 .4 0 .4-.2.8-5.8 1.6-11.7 2.4-17.5 1.3-9.3 2.5-18.6 3.8-27.9.3-2.1.6-4.3.9-6.4-.1-.2-.2-.2-.3-.2z"/><path fill="#040100" d="M720 540.2h-10.3c-.3 0-.7.1-.6.2.1 1.4.3 2.8.4 4.3.2 1.9.3 4.1.9 5.9.1.4.2.6.6.6.7.1 1.5 0 2.3 0h4.9c.1 0 .5 0 .5-.2.5-3.6 1.1-7.1 1.6-10.7.1-.1-.2-.1-.3-.1z"/><path fill="#1A1B1F" d="M723.3 560.3c-1.6.8-3.3 1.4-4.9.4-1.2-.7-2-2-2.6-3.3-.8-1.7-1.3-3.7-1.4-5.6 0-.5-1.6-.3-1.7.2-.4 3.1-1.5 8.3-5.3 9-1.2.2-2.5-.2-3.5-.7-.4-.2-2 .2-1.4.5 1.6.9 3.7 1.2 5.5.9 3-.6 4.6-3 5.5-5.7.3 1 .7 1.9 1.2 2.8 2.2 3.7 6.3 3.8 9.8 1.9.8-.4-.8-.6-1.2-.4zm-12.6-8.2c-.3 0-.5.2-.5.5s.2.5.5.5.5-.2.5-.5c0-.2-.2-.5-.5-.5zm9.1-2.3c0-.3-.2-.5-.5-.5s-.5.2-.5.5.2.5.5.5c.2 0 .5-.2.5-.5zm-2.7 2.3c-.3 0-.5.2-.5.5s.2.5.5.5.5-.2.5-.5c0-.2-.2-.5-.5-.5zm2.3-.2c0 .3.2.5.5.5s.5-.2.5-.5-.2-.5-.5-.5c-.2 0-.5.2-.5.5zm.6 1.6c-.3 0-.5.2-.5.5s.2.5.5.5.5-.2.5-.5c0-.2-.2-.5-.5-.5zm-10.8-4.3c-.3 0-.5.2-.5.5s.2.5.5.5.5-.2.5-.5c.1-.2-.2-.5-.5-.5zm-2.1 2.2c-.3 0-.5.2-.5.5s.2.5.5.5.5-.2.5-.5-.2-.5-.5-.5zm1.4 2.1c-.3 0-.5.2-.5.5s.2.5.5.5.5-.2.5-.5c.1-.2-.2-.5-.5-.5z"/><path fill="#F09C26" d="M698.1 489.9c-.7-1.7-1.4-3.4-2.3-5.1-1-1.8-2.3-4.6-4.4-5.3-2.8-1-4.2 1.7-5 3.8-1.1 2.9-2.2 6.1-2.2 9.2 0 .1.1.3.1.3.1.2.3.3.7.2.3 0 .6-.1.9-.2 3.6-.7 7.2-1.4 10.8-2 .3 0 1.7-.3 1.4-.9zm45.8 5.7c-.1-2.9-.9-5.8-1.9-8.5-.9-2.4-2-5.3-5.1-3.9-3.6 1.6-5.5 7.3-6.9 10.7-.1.3.3.5.5.6l11.4 2.1c.7.2 2-.2 2-.9v-.1z"/><path fill="#E06243" d="M695.5 538.9c-3.6 0-6.4.5-6.4 1.1s2.9 1.1 6.4 1.1 6.4-.5 6.4-1.1-2.9-1.1-6.4-1.1zm42.2 1.4c-3.6 0-6.4.5-6.4 1.1s2.9 1.1 6.4 1.1 6.4-.5 6.4-1.1c0-.6-2.9-1.1-6.4-1.1z"/><path fill="#29100D" d="M693.9 491.6c-.8-1.9-1.5-3.9-2.4-5.7-.3-.7-1.1-1.1-1.7-.4-.7 1-.8 2.8-.9 3.9-.1 1-.2 2.1-.3 3.1 0 .1.4.2.6.1 1.5-.3 2.9-.6 4.4-.8.1 0 .4 0 .3-.2zm45.9-.5c-.3-1-.9-2.3-2.1-1.7-1 .5-1.5 2.2-1.9 3.1s-.7 1.9-.9 2.8c0 .1.1.1.2.1 1.6.5 3.2.9 4.8 1.4.1 0 .6.1.6-.1.3-1.8-.1-3.8-.7-5.6z"/></g><g clip-path="url(#b)"><path fill="#272525" d="M746.9 484.8c-.1 5.7-.9 11-3.6 12.4-2.2 1.1-4.8.8-7.2.5-18.4-2.4-37.1-2.4-55.5 0-1.8-8.1-2.7-16.3-2.6-24.6-8.8 1-17.7.9-26.5-.3.7-3.1 3.2-5.5 5.6-7.6 13.3-12.2 26.2-25.7 40.5-36.5 1.6-1.2 3.4-2.5 5.4-2.5 1.1 0 2.1.4 3.2.7 6.7 2.4 13.5 4.1 20.1 6.9 7.6 3.2 15.2 6.5 22.6 10 6.5 3 11.9 7.8 18.8 10.3 1.3.5 2.9 1.4 2.4 2.7-.2.6-.9 1-1.5 1.2-7.5 3.4-15.2 6.4-23 8.8-.1 0 1.5 9.6 1.3 18z"/><path fill="#F2BC41" d="M640.3 471.3c-2.5 3.6-5.2 7-8.1 10.3-.2.2-.5.5-.8.5s-.5-.2-.7-.3c-2.8-2.1-5.5-4.3-8.1-6.7-.2-.2-.4-.4-.4-.7 0-.3.2-.5.3-.7.7-.9 1.4-1.7 2-2.6 2.2-2.8 4.5-5.7 7.7-7.3 6.5-3.3 12.8.8 8.1 7.5z"/><path fill="#F2BC41" d="M643.9 462.1c1 2-.1 5-3 5.1-4.9.2-5-7.3-.1-7 1.6.1 2.6.9 3.1 1.9z"/><path fill="#070707" d="M711.6 451.9c-2.6 2.2-7-.4-5.3-3.8.9-1.8 3.8-2.7 5.4-1.4 1.4 1.3 1.4 3.9-.1 5.2z"/><path fill="#F2BC41" d="M640.4 463c3.8 0 7.3-2.2 10.7-4.2 1-.6 2.1-1.3 3.1-1.8 8.9-4.9 19-4.9 29.6-4.9 7.7 0 15.8 0 23.2-2l-.3-1.2c-7.3 2-15.2 2-22.9 2-10.4 0-21.1 0-30.2 5-1.1.6-2.1 1.2-3.1 1.9-3.6 2.2-7.3 4.6-11.3 4l-.2 1.2h1.4z"/></g><g clip-path="url(#b)"><path fill="#272525" d="M313.7 351.2c-.9 3.2-1.3 6.3-.1 7.5 1 1 2.5 1.3 3.9 1.5 10.7 1.8 21.1 4.9 31 9.3 2.4-4.2 4.2-8.7 5.6-13.3 4.7 2.1 9.7 3.5 14.8 4.3.1-1.9-.9-3.6-1.8-5.2-5.4-9-10.3-18.7-16.5-27.2-.7-1-1.5-2-2.6-2.3-.6-.2-1.3-.2-1.9-.1-4.1.2-8.2 0-12.4.5-4.8.5-9.6 1.1-14.3 1.8-4.2.6-7.9 2.4-12.2 2.6-.8 0-1.8.3-1.8 1.1 0 .4.3.7.6.9 3.6 3.2 7.4 6.1 11.4 8.8.1 0-2.3 5.1-3.7 9.8z"/><path fill="#C1172C" d="m358.6 372.6-.3.6c-5-2.8-8.7-8.3-11.2-16.8-.4-1.5-.8-3-1.2-4.4-1.4-5-2.8-10.3-5.7-14.7l.6-.4c2.9 4.5 4.4 9.8 5.7 14.9.4 1.5.8 3 1.2 4.4 2.5 8.3 6.1 13.7 10.9 16.4z"/><path fill="#C1172C" d="M357.3 375.7c1.8 1.9 3.6 3.7 5.6 5.5.1.1.3.3.5.2.2 0 .3-.1.4-.3 1.4-1.5 2.8-3 4.1-4.6.1-.1.2-.3.2-.4 0-.2-.1-.3-.2-.4l-1.4-1.4c-1.5-1.5-3.1-3-5.1-3.7-4.1-1.4-7.4 1.5-4.1 5.1z"/><path fill="#C1172C" d="M354.4 370.6c-.4 1.3.5 3 2.2 2.8 2.8-.3 2.3-4.7-.6-4.2-.9.2-1.4.7-1.6 1.4z"/><path fill="#070707" d="M339 338.8c1.1 1.7 4 .9 3.6-1.2-.2-1.2-1.6-2.2-2.8-1.7-1 .5-1.4 2-.8 2.9z"/></g><g clip-path="url(#b)"><path fill="#272525" d="M871.4 454.1c.9 4.1 2.3 7.7 4.4 8.3 1.7.5 3.5-.1 5.2-.7 12.8-4.5 26.2-7.3 39.8-8.4.1-6.1-.5-12.1-1.9-18 6.5-.6 12.9-2 19-4.2-1-2.1-3.1-3.4-5.1-4.6-11.4-6.7-22.7-14.5-34.6-20.1-1.3-.6-2.8-1.3-4.3-1-.8.2-1.5.6-2.2 1-4.4 2.7-9.1 5-13.4 8-5 3.4-9.9 7-14.7 10.6-4.2 3.2-7.3 7.4-11.9 10.2-.8.5-1.8 1.5-1.3 2.3.3.4.8.6 1.3.7 5.9 1.3 11.8 2.3 17.8 2.8.2 0 .5 7.1 1.9 13.1z"/><path fill="#EAC52D" d="m888.6 473-.8.4c-3.6-6.2-4-14.5-1.3-25.4.5-1.9 1-3.8 1.5-5.6 1.8-6.3 3.6-12.9 3.3-19.5h.9c.3 6.7-1.5 13.4-3.3 19.8-.5 1.8-1 3.7-1.5 5.6-2.7 10.6-2.3 18.7 1.2 24.7z"/><path fill="#EAC52D" d="M885.2 475.5c.7 3.2 1.5 6.4 2.5 9.5.1.2.2.5.4.6s.4 0 .6 0c2.5-.7 5-1.5 7.4-2.4.2-.1.4-.2.5-.4.1-.2 0-.4 0-.6l-.6-2.4c-.7-2.6-1.4-5.2-3.1-7.3-3.6-4.1-9-2.9-7.7 3z"/><path fill="#EAC52D" d="M885.3 468.1c-1.3 1.1-1.4 3.5.6 4.4 3.2 1.5 5.5-3.7 2-4.9-1.1-.3-2-.1-2.6.5z"/><path fill="#070707" d="M891.7 425.2c2.2 1.2 5-1.4 3.3-3.5-.9-1.2-3.1-1.4-4-.2-.9 1.1-.5 3 .7 3.7z"/></g></svg>