<svg xmlns="http://www.w3.org/2000/svg" viewBox="0 0 1200 700" xml:space="preserve" fill="#ebfbcb"><path d="M0 0h1200v700H0z"/><path d="M1095.8 244.8c-6.7.1-12.9 1.3-19.7.1-4.3-.8-9.5-1.7-13.6.7-7.8 4.5-4.7 22.4 4.1 24.2 5.1 1 10-1.9 15-2.5 3.4-.4 6 .3 8.6.6 7.8.7 17.8-1.5 18.3-10.9.1-7.6-5.2-12.2-12.7-12.2zM936.2 121.3c-12.4-2.1-23.8 6.2-35.7 8.1-8.1 1.3-14.3-.2-20.8-.5-18.7-1-42.1 5.7-42.7 29.9v.7c0 .3 0 .5.1.7 1.4 19.6 14.6 30.8 32.4 29.8 16.1-.9 30.9-4.8 47.2-2.5 10.5 1.5 23.1 3.4 32.5-3.2 17.9-12.8 8.5-59.3-13-63zM346.6 94.5c-9.1.1-17.5 1.8-26.6.2-5.9-1-12.9-2.3-18.4.9-10.5 6.2-6.4 30.4 5.6 32.8 6.9 1.4 13.6-2.6 20.3-3.3 4.6-.5 8.1.5 11.7.8 10.6 1 24.1-2 24.8-14.8 0-10.4-7.2-16.7-17.4-16.6zm-118.8 72.2c-.4-16.3-11.8-26.1-28-25.9-14.6.2-28.1 2.8-42.7.3-9.4-1.6-20.7-3.7-29.4 1.4-16.8 9.9-10.3 48.8 9 52.6 11.1 2.2 21.8-4.2 32.6-5.3 7.4-.8 12.9.7 18.7 1.2 16.8 1.5 38.3-3.1 39.8-23.1 0-.2.1-.4.1-.6-.1-.2-.1-.4-.1-.6z" opacity=".1" fill="#000"/></svg>