<svg version="1.1" id="Layer_1" xmlns="http://www.w3.org/2000/svg" xmlns:xlink="http://www.w3.org/1999/xlink" x="0" y="0" viewBox="0 0 1200 700" xml:space="preserve"><style>.st4{fill:#1a1b1f}.st5{fill:#fff}.st7{fill:#7b423b}.st8{fill:#272525}.st9{fill:#eac52d}.st10{fill:#070707}.st13{fill:#832d0f}.st17{fill:#f09c26}.st19{fill:#040100}.st22{fill:#f2bc41}.st23{fill:#c1172c}</style><defs><path id="SVGID_1_" d="M0 0h1200v700H0z"/></defs><clipPath id="SVGID_00000072275749036451506810000003239719740157206714_"><use xlink:href="#SVGID_1_" overflow="visible"/></clipPath><g clip-path="url(#SVGID_00000072275749036451506810000003239719740157206714_)"><path d="M360.6 535.6c-.5-1.4-7.9-.9-8.3.2 2.3 9.6-4.3 244.8 2.3 247.6 1.7-78.2 4.6-169.7 6-247.8zm20.4 0c-.5-1.4-7.9-.9-8.3.2 2.3 9.6-4.3 244.8 2.3 247.6 1.7-78.2 4.6-169.7 6-247.8z" fill="#b04842"/><path d="M478 505.6c-16.6-64.6-127.6-111.3-155.9-33.3.9 6.2-5.4 11.9-11.2 8.2-33.5-35.3 60.5-51.2 42.1-95.6 2.4-37.9-64.9-32.4-39.7-.2 8.3 6.4 17.4-1.4 21.1-3.9 17.1 46.5-44.4 47.3-61.7 77.5-60.1 103 87.5 152.3 154.7 85.6 43.2-41.5 61.2-8.9 50.6-38.3zm-2.8 14.9c.1 0 .1 0 0 0 .1.1 0 .1 0 0z" fill="#e76158"/><path d="M314.7 376.7c-4.8-7.6-16 9.2-17.6 11.6.3.7 10.4 7.4 13.3 4.9 3.6-4.2 10.9-11.7 4.3-16.5z" fill="#a6a6a7"/><path class="st4" d="M310.5 391.8c-.8 0-11.3-8.1-11.9-6.4-8.7 11.9 8.6 29.2 11.9 6.4z"/><path class="st5" d="M325.8 375.4c.1 7.2-11.1 7.1-11 0-.1-7.2 11.1-7.2 11 0z"/><path d="M322.4 378c-.3-.8-1.6-1.9-2.2-1.5-2.8 2.4 4.2 7.2 2.2 1.5z" fill="#1d0104"/><path class="st5" d="M409.1 476.1c-7.9-.3-3.3-.5.5-4.4 9.7-16-14-20.8-24.1-12-2.2-25.5-37.3 12.2-40.1 24 55 47.3 117.8 5.2 63.7-7.6z"/></g><g clip-path="url(#SVGID_00000072275749036451506810000003239719740157206714_)"><path class="st7" d="M150.7 558.5c-9.8-45.9-49-74.1-29.5-125.7 7.7-30.8-20.6-52.7-48.6-38.1-20.5 9.1-15.2 34.4-23.9 50.8-110.5-3.9-204.8 148.1-101.8 224.1 11.5 16.2 58.6 29.3 55.9 46.3-1.6 5.7-1.5 12.5 5.8 13.5 16.1 8.6 90 9.2 41.4-13.5-6.5-21.6 53.8 13.3 54.7-8.1-30.5-27.3 2.2-17.4 11.7-71.7 4.6-13.1-5.9-23-8-34.6 5.5-13.1 6.8-27.2 7.4-41.3 20.4 23.1 5.5 17.8 10.1 34.9 19.3 10.3 26.4-22.8 24.8-36.6z"/><path class="st8" d="M64.7 390.2c-.7 19.3 35.7.7 49.1 6.2.9-6 1.2-12.1.7-18.1 6.5.3 13-.2 19.4-1.5-10.9-11.9-25.5-24.4-39.9-31.6-16.5 6.1-34.8 14.4-47.6 25.6 11.6 6.9 21 0 18.3 19.4z"/><path class="st9" d="m128.3 393.7-.1.9c-15.8-.5-26-23.7-38.9-32.4l.5-.7c12.7 8.5 23.1 31.6 38.5 32.2z"/><path class="st9" d="M128.4 398c7.2 4 12 4.5 12.6-5-4.9-4.8-23.2-2.8-12.6 5z"/><path class="st9" d="M122.5 393.5c.2 1.7 2 3.2 3.9 2.1 4.8-3.4-3.8-7.9-3.9-2.1z"/><path class="st10" d="M89 364.4c2 1.5 5.1-.7 3.7-3-2-3.3-6.9.5-3.7 3z"/><path class="st7" d="M73.5 397.1c-5.8-20.8-32.5-5.9-20.7 9.8 3.4 2.9 9.7 7.6 14.2 5.7 3.1-4.9 11.9-9.4 6.5-15.5zm52.9-4c-5.9-13.7-22.6-6-22.3 7 3.4 2.3 6 9.8 10.5 8.7 5.1-2.8 13.8-9 11.8-15.7z"/><path class="st5" d="M69.6 396.2c-5.4-6.3-15.2 6.1-9 10.6 8.1 7.6 16.9-3.5 9-10.6zm47.9-2.9c-6.6-5.1-14.3 3.9-10.2 10.1 4.9 5.2 16.4-5.8 10.2-10.1zm1.6 56.3c-5.4-47.1-53.1-19.8-35.8 16.5 8.8 28.3 46.7 9.3 35.8-16.5z"/><path d="M113.1 462.7c-1.9-9.7-19.9-7.3-21.3 1.6.3 9.8 21.7 7.6 21.3-1.6z" fill="#2e1313"/><path d="M18.1 537.9c11.1 31 36.9 27.8 39.1 65.8 5.6 11.3 23.1 8.2 24.8-4.3 9.7-26.8-17.3-45.2-18.6-69.5-1.8-3.9 5.4-19.5-1-15.5-3.4 10.7-3.1 23.9 2.1 33.9 15.9 10.2 26.3 80.8-4.4 53.9-4.7-11.5-1-28-14.5-34.3-11.2-3-26.2-37.5-27.5-30z" fill="#91625d"/><path class="st5" d="M35.2 607c30.7 25.7 29.4 71.8 12.6 105.1 14.1-7.4 17.1-48.3 13.3-66.9-.9-9.3-18.2-45.1-25.9-38.2zm26.1-12.2c-7-1 .3 12.4-4.5 16 6.9 2.2 4.3-11.6 4.5-16zm3 5.4c.5 2.9 1.5 8.6-.9 10.9 4.5 8.1 7.4-18.9.9-10.9zm9.5 1.1c-6-3.3-.3 9.1-2.9 12 4.5 5.3 4.4-9.1 2.9-12zm53.4-12.3c1.5-1.8 6-8.2.5-5.2-1 2.5-4.6 6.5-5.3 7.6-6.2 2.6 4.2 1.6 4.8-2.4zm3.9-.8c1.5 4.5-11.4 8.6-5.5 9.5 5 .6 12.9-13.9 5.5-9.5zm9.6.5c-5-4.3-2.3 9.6-7.7 10.7 1 6.4 9.7-6.6 7.7-10.7zM81.2 418c-2.1-.6-3.4 5.3-1 5.3 1.8.2 3-4.8 1-5.3zm30.4-1.3c-2.1-.4-3.2 4.8-1.1 5.4 2.1.4 3.1-5.1 1.1-5.4z"/></g><g clip-path="url(#SVGID_00000072275749036451506810000003239719740157206714_)"><path class="st13" d="M1084.4 540.4c-5.9-13.6-23.8-22.3-36.1-12.3 6 10.5 25.9 15.1 36.1 12.3z"/><path class="st4" d="M890.7 615.7c2.1 31.6 2.7 70.5 5.4 98.2 14.8-5.5 17.3-123.9-5.4-98.2zm31.5-.1c2 31.7 2.8 70.2 5.3 98.3 15-3.5 16.8-125.8-5.3-98.3zm82.1-2.3c2.1 31.6 2.7 70.5 5.4 98.2 14.8-5.5 17.3-123.9-5.4-98.2zm37.6-2c-26.7-29 .2 84.9-9.4 95.3 20.2 4 12.9-78.8 9.4-95.3z"/><path d="M994.3 362.3c-9.4-10.6-5.6 30.4-28 38.9 2.5-3.9 7.2-25.7-.3-20.5 1.2 11.2-.8 25.4-14.3 26.9 2.1-4.2 6.8-23.6-.2-18.7 4.6 13.8-18.3 35.2-12.6 13.6 0-3.2 4.4-15.7-2-11-1.6 9.5.1 22.6-11.2 25.9.2-3.5-1.3-15.8-5.7-10.3 8.6 18.8-25.8 29-19.8 53.7.5 3.3 7.9 1.2 7-2.5-.6-55.7 91.7-36.9 87.1-96zm-118.2 70.6c-6.7-2.6-3.7-10.6-1.9-15.4.4-1-3.1-.6-3.5.5-4.8 22.6-14.6-5.5-13.4-16.5-6.4-3.2-2 10.1-1.9 13.4 3.4 18.7-17.2-4.1-12.6-15.9-11.8.6 9.7 27.7-9.9 15.2-4.5-6.5-5.4-15.8-4.7-23.4-7.5-2.2-2.7 15.4-1.2 19.9-12-8-20.8-22.1-19.9-36.9-18.5-8.4 1.1 35.2 10.9 38.3 25.1 17 71.1 18.5 68.9 59.1 18.5 8.3-1-35.2-10.8-38.3z" fill="#945147"/><path d="M1083.4 575c-5.6-44.4-54.9-63.4-94.7-55.6-24.1.8-50.4 26.1-72.9 15.9-18.1-64.2-3.9-43.2 37.3-71.1 16.5-17.6-64.5-20.8-70.6-10.7-47 80.8-58.9 222.7 70.6 217.2 33-6.5 61.1-29.3 95.4-32.1 32.5.6 39.7-38 34.9-63.6z" fill="#c4471b"/><path d="M887.8 455.5c-10.2-11.7-30.8-12.4-42.3-3.5 9 15.3 31 16.5 42.3 3.5z" fill="#f9eacd"/><path class="st4" d="M947.3 449.1c-6.3-.1-6.2 9.7 0 9.6 6.3.1 6.2-9.7 0-9.6z"/><path class="st5" d="M902.4 464.3c2.2 4.4-.2 5.6-2.5 1.3-2.3-4.4.4-5.7 2.5-1.3zm97.1 124.3c-6.4 1.5-3.2 13.3 2.9 12.2 6.7-1.3 3.5-13.6-2.9-12.2zm12.1-15.7c-4.9 1.2-2.5 10 2.3 9 5.1-1.1 2.4-10.1-2.3-9zm42.2-5c-1.2-5.4-9.2-3.4-7.2 2 1.1 5.3 9.2 3.4 7.2-2zm-25.3 11.1c-4.4 1.1-2.3 8.9 2 7.9 4.6-.9 2.4-9-2-7.9zm-30.7 4.2c4.5-.9 2.6-8.9-1.9-7.7-4.4 1.1-2.4 8.7 1.9 7.7zm22.5 2.1c-4.5.8-2.9 8.1 1.4 7.4 4.8-.5 3-8.5-1.4-7.4zm8.2-22.1c-4.4 1.1-2.2 9 2 8 4.5-1 2.4-9-2-8zm-44.7 20.5c-4.9 1.3-2.5 10.1 2.3 9.2 5.1-1.1 2.4-10.3-2.3-9.2zm-10.6 7.8c-4.5.6-2.9 7.9 1.3 7.2 4.8-.4 3-8.4-1.3-7.2z"/><path class="st13" d="M917.1 467.2c.1 6.3-9.7 6.2-9.6 0-.1-6.2 9.7-6.2 9.6 0z"/></g><g clip-path="url(#SVGID_00000072275749036451506810000003239719740157206714_)"><path class="st17" d="M743.4 574.3c-96.5-117.2-273.1 80.8-154.8 156.9 31.1 20.5 74.5 25.3 109.2 13.8 2.2-6.3-6.2-6.9-10.2-6-2.5.3-1-2-.2-3.1 13-11.7 25.1-24 28.2-42.2 1.3 8.9-9.7 51.1 7.2 35.9 5.8-35.6 3.7-72 6.4-108 6.2-36 4.5 45.4 2.1 54.9-4 20.9-3.3 94.7 9.3 26.6.5-41.2 4.2-87.8 2.8-128.8z"/><path d="M766.4 536.2c-11.7-113.2-56.8-41.9-112.8-87.8-16.9-11.3-31.7-1-44.1 11.1-14.2 8.9-31.5 11.8-46.2 19.6-17.7 6.7-10.3 22-9.8 35.8-5.2 13.1-21.5 19.9-16.3 36.8-2.7 52.9 34.9 38.7 68.4 49 41.5 35.9 167.3-2 160.8-64.5z" fill="#ce5039"/><path class="st17" d="M756.5 535.8c1-43.5-73.3-56.1-78.2-10.2-16.8 59.2 87.3 72.9 78.2 10.2z"/><path class="st5" d="M721 546.4c-22.5-9-20.4 24.5-7.1 9.4 4.6 11.6 16.6-4.4 7.1-9.4z"/><path class="st19" d="M701.5 530.6c-1.2-5-4-.5-1.9 2.2 1.4 2 2.4-.7 1.9-2.2zm31.1-.8c-1.7.2-2 5-.2 5.3 1.7-.2 2-5.2.2-5.3z"/><path class="st5" d="M724.9 499.1c-21.1-6.6-19 3.3-17.3 20.5 2.7 8.8-3 29.8 7 31.7 9.7-6.9 6.6-38.5 10.3-52.2z"/><path class="st19" d="M720 540.2c-10.2-.6-12.6-.8-9.6 10.4 9.5 3.5 9.5-3 9.6-10.4z"/><path class="st4" d="M723.3 560.3c-7.9 5.4-7-9.1-10.6-8.3-.3 7.5-4.5 9.4-10.2 8.8 4.4 2.6 9.9.1 11-4.8-.1 7.1 13 6.4 9.8 4.3zm-12.6-8.2c-.7 0-.7 1 0 1 .6 0 .7-1 0-1zm9.1-2.3c0-.7-1-.7-1 0 0 .6 1 .7 1 0zm-2.7 2.3c-.7 0-.7 1 0 1 .6 0 .7-1 0-1zm2.3-.2c0 .7 1 .7 1 0 0-.6-1-.7-1 0zm.6 1.6c-.7 0-.7 1 0 1 .6 0 .7-1 0-1zm-10.8-4.3c-.7 0-.7 1 0 1 .6 0 .7-1 0-1zm-2.1 2.2c-.7 0-.7 1 0 1s.7-1 0-1zm1.4 2.1c-.7 0-.7 1 0 1 .6 0 .7-1 0-1z"/><path class="st17" d="M698.1 489.9c-4.3-15.5-13.9-11.2-13.8 2.9 4-.4 10.5-.9 13.8-2.9zm45.8 5.7c.2-16.1-12.2-15.1-13.4-1.1 1.5-.3 13.1 3.8 13.4 1.1z"/><path d="M695.5 538.9c-8.3 0-8.2 2.2 0 2.2 8.3 0 8.3-2.2 0-2.2zm42.2 1.4c-8.3 0-8.2 2.2 0 2.2 8.3 0 8.3-2.2 0-2.2z" fill="#e06243"/><path d="M693.9 491.6c-1.1-4.1-4.6-10-5-2.2-1.5 4.5 2.3 2.9 5 2.2zm45.9-.5c-1.8-5.1-4.6 2-4.9 4.2 4.8 2.3 7.1 1.3 4.9-4.2z" fill="#29100d"/></g><g clip-path="url(#SVGID_00000072275749036451506810000003239719740157206714_)"><path class="st8" d="M746.9 484.8c.1 9.6-2.3 14.8-10.8 12.9-18.4-2.4-37.1-2.4-55.5 0-1.8-8.1-2.7-16.3-2.6-24.6-8.8 1-17.7.9-26.5-.3.7-3.1 3.2-5.5 5.6-7.6 15.2-12.6 28.2-30.5 45.9-39 23 5.5 44 16.7 64.7 27.9 10.7 3.6-19.4 11.2-22.1 12.7-.1 0 1.5 9.6 1.3 18z"/><path class="st22" d="M640.3 471.3c-2.8 3.6-5.4 7.9-8.9 10.8-3.2-2-6.8-4.7-9.2-7.7 2.6-4 5.7-8.3 10-10.6 6.5-3.3 12.8.8 8.1 7.5z"/><path class="st22" d="M643.9 462.1c1 2-.1 5-3 5.1-8-.8-1.4-11.5 3-5.1z"/><path class="st10" d="M711.6 451.9c-2.6 2.2-7-.4-5.3-3.8 2.7-4.7 9.2-.3 5.3 3.8z"/><path class="st22" d="M640.4 463c5 0 9.4-3.7 13.8-6 15.7-8.6 35.8-2.2 52.8-6.9l-.3-1.2c-17.1 4.7-37-1.7-53.1 7-4.5 2.5-9.2 6.7-14.4 5.9l-.2 1.2h1.4z"/></g><g clip-path="url(#SVGID_00000072275749036451506810000003239719740157206714_)"><path class="st8" d="M313.7 351.2c-1.6 5.3-1.3 8.7 3.8 9 10.7 1.8 21.1 4.9 31 9.3 2.4-4.2 4.2-8.7 5.6-13.3 4.7 2.1 9.7 3.5 14.8 4.3.1-1.9-.9-3.6-1.8-5.2-4.7-5.9-14.1-29.8-21-29.6-13.4.3-28.6 1.4-40.7 6 3.2 3.9 7.9 6.7 12 9.7.1 0-2.3 5.1-3.7 9.8z"/><path class="st23" d="m358.6 372.6-.3.6c-11.3-5.4-11.5-25.5-18.1-35.9l.6-.4c6.6 10.3 6.7 30.3 17.8 35.7z"/><path class="st23" d="M357.3 375.7c6.2 5.7 4.9 8.4 10.8.4-1.7-2.2-4.1-4.5-6.7-5.5-4.1-1.4-7.4 1.5-4.1 5.1z"/><path class="st23" d="M354.4 370.6c-.4 1.3.5 3 2.2 2.8 4.6-1.1-.3-7-2.2-2.8z"/><path class="st10" d="M339 338.8c1.1 1.7 4 .9 3.6-1.2-.6-3.1-5.1-1.6-3.6 1.2z"/></g><g clip-path="url(#SVGID_00000072275749036451506810000003239719740157206714_)"><path class="st8" d="M871.4 454.1c1.4 6.9 3.8 10.2 9.6 7.6 12.8-4.5 26.2-7.3 39.8-8.4.1-6.1-.5-12.1-1.9-18 6.5-.6 12.9-2 19-4.2-10.9-10.2-26.6-17.4-39.7-24.7-7.3-5.7-39.7 23.7-46.5 28.8-6.6 4.5 15.3 5.1 17.8 5.8.2 0 .5 7.1 1.9 13.1z"/><path class="st9" d="m888.6 473-.8.4c-8.7-13 4-35 3.5-50.5h.9c.7 15.3-12.2 37.2-3.6 50.1z"/><path class="st9" d="M885.2 475.5c1 2.4 1.2 9.4 3.5 10.1 2.2-1.1 7.2-1.1 7.9-3.4-.9-3.3-1.5-7-3.7-9.7-3.6-4.1-9-2.9-7.7 3z"/><path class="st9" d="M885.3 468.1c-1.3 1.1-1.4 3.5.6 4.4 5.6 1.7 4.3-7.7-.6-4.4z"/><path class="st10" d="M891.7 425.2c2.2 1.2 5-1.4 3.3-3.5-2.5-3-6.6 1.3-3.3 3.5z"/></g></svg>