<?xml version="1.0" encoding="utf-8"?>
<!-- Generator: Adobe Illustrator 22.0.1, SVG Export Plug-In . SVG Version: 6.00 Build 0)  -->
<svg version="1.1" id="Layer_1" xmlns="http://www.w3.org/2000/svg" xmlns:xlink="http://www.w3.org/1999/xlink" x="0px"
	y="0px" viewBox="0 0 1200 700" enable-background="new 0 0 1200 700" xml:space="preserve">
	<g>
		<defs>
			<rect id="SVGID_23_" width="1200" height="700" />
		</defs>
		<clipPath id="SVGID_1_">
			<use xlink:href="#SVGID_23_" overflow="visible" />
		</clipPath>
		<g clip-path="url(#SVGID_1_)">
			<path fill="#019A6D" d="M365.2,705.9c-12,11.5-25.3,6.3-35.7-3.6c-15-14.2-27.5-34.3-34.6-53.7c-8.4-22.7-16.5-46-18.5-70.3
			c-1-12-1.2-23.7-2.9-35.7c-0.7-5.3,1.2-11.4,2.3-16.5c0.5-2.5,0.4-6.5,1.6-8.8c1.4-2.7,3.1-0.9,5.1,0.8c5,4,10.2,7.9,15.1,11.9
			c7.3,6,12.6,13.8,18.7,21c13.6,16.1,26,35.3,37,53.3c5.9,9.7,11,19.7,14.6,30.5c4.2,12.6,9,24.7,8.2,38c-0.2,3.6-0.8,7-0.9,10.6
			c-0.1,2.8-1.3,5.3-1.5,8.1C373.3,696.9,369,702.2,365.2,705.9z" />
			<path fill="#9FC54D"
				d="M347.4,677.2l0.2-0.1l0.1-0.2c0.1-0.3,10.6-29.5,6.1-54.7c-0.1-0.4-0.4-0.6-0.8-0.6
			c-0.4,0.1-0.6,0.4-0.6,0.8c4,22.3-3.9,47.8-5.7,53c-5.4-14.3-11.3-28.9-17.2-43c1.2-2.5,10-22.1,7.3-39.2
			c-0.1-0.4-0.4-0.6-0.8-0.6c-0.4,0.1-0.6,0.4-0.6,0.8c2.4,15.1-4.5,32.2-6.6,37.2c-5.1-12.4-10.2-24.3-15-35.3
			c0.8-1.8,5-12.4,2.5-29.3c-0.1-0.4-0.4-0.6-0.8-0.6c-0.4,0.1-0.6,0.4-0.6,0.8c2,14-0.7,23.7-2,27.2c-14-32.1-24.9-55.6-25.1-56.1
			c-0.2-0.3-0.6-0.5-0.9-0.3s-0.5,0.6-0.3,0.9c0.2,0.5,11.2,24,25.2,56.2c-17.6-5.5-27-22-27.1-22.2c-0.2-0.3-0.6-0.5-0.9-0.3
			s-0.5,0.6-0.3,0.9c0.1,0.2,10.2,18,29,23.2c4.8,11,9.9,23.1,15.1,35.5c-22.2-5.3-38.2-24.8-38.4-25c-0.2-0.3-0.7-0.3-1-0.1
			s-0.3,0.7-0.1,1c0.2,0.2,16.9,20.7,40.1,25.7c5.8,14.1,11.7,28.7,17.1,43c-5.2-1.5-23.9-13.2-41-25c-0.3-0.2-0.7-0.1-1,0.2
			c-0.2,0.3-0.1,0.7,0.2,1c0.1,0.1,10.1,7,20.3,13.5c14.7,9.3,19.9,11.6,22,11.9c4.2,11.1,8.2,21.9,11.6,32.2
			c0.1,0.4,0.5,0.6,0.9,0.4l0,0c0.4-0.1,0.6-0.5,0.4-0.9C355.4,699,351.5,688.3,347.4,677.2C347.3,677.2,347.4,677.2,347.4,677.2z" />
		</g>
		<g clip-path="url(#SVGID_1_)">
			<path fill="#043A2C" d="M374.3,716.8c-14.2-1.7-20.4-11.3-22.2-21.3c-2.7-14.4-0.5-29.9,4.8-42.1c6.3-14.4,13-28.8,24.4-40.3
			c6.1-6.2,11.3-14.1,18.5-19c3.2-2.2,12.4-8.9,16.3-6c2.7,2,4,12.8,4.9,16.1c1.8,6.6,1.3,12.9,1.6,19.3c0.7,14.4-1,29.5-3,43.3
			c-1.1,7.4-3,14.5-6.2,21.1c-3.8,7.7-6.9,15.6-14.4,20.8c-2,1.4-4.2,2.6-6.1,4.1c-1.5,1.2-3.6,1.5-5.3,2.6
			C384.5,717.5,378.9,717.4,374.3,716.8z" />
			<path fill="#00785F" d="M377.4,694.7h0.2h0.1c0.2-0.1,22.6-6.8,32.8-20.1c0.2-0.2,0-0.5-0.2-0.7c-0.3-0.2-0.6-0.2-0.8,0
			c-9,11.8-27.8,18.3-31.7,19.6c3.8-9.1,7.5-18.6,11-27.9c2.1-0.4,18.3-3.9,25.5-12.7c0.2-0.2,0.1-0.5-0.2-0.7
			c-0.3-0.2-0.6-0.2-0.8,0c-6.3,7.8-19.9,11.3-24,12.2c3-8.1,5.9-16.1,8.4-23.4c1.5-0.3,9.9-2.5,17.1-11.1c0.2-0.2,0.1-0.5-0.2-0.7
			c-0.3-0.2-0.6-0.2-0.8,0c-6,7.1-12.9,9.8-15.6,10.6c7.5-21.5,12.4-37.6,12.5-37.9c0.1-0.2-0.1-0.5-0.4-0.7c-0.3-0.1-0.6,0-0.7,0.2
			c-0.1,0.3-5.1,16.5-12.5,38c-9-12.1-6.6-24.4-6.6-24.5c0.1-0.2-0.2-0.5-0.5-0.6s-0.6,0-0.7,0.2c0,0.1-2.6,13.3,7.4,26
			c-2.6,7.4-5.4,15.4-8.5,23.5c-12.2-14.6-12.7-31.8-12.7-31.9c0-0.3-0.3-0.5-0.6-0.6c-0.3-0.1-0.6,0.1-0.6,0.4
			c0,0.2,0.5,18.2,13.5,33.2c-3.5,9.3-7.2,18.8-11,27.9c-2.7-3.5-9.2-18.9-14.5-33.4c-0.1-0.3-0.4-0.5-0.7-0.5
			c-0.3,0-0.5,0.2-0.4,0.5c0,0.1,3.1,8.6,6.6,17c5,12.1,7.4,16,8.6,17.3c-3,7.1-6,13.9-9.1,20.2c-0.1,0.2,0.1,0.5,0.4,0.7l0,0
			c0.3,0.1,0.6,0.1,0.8-0.1C371.4,708.5,374.4,701.7,377.4,694.7L377.4,694.7z" />
		</g>
		<g clip-path="url(#SVGID_1_)">
			<g>
				<g>
					<path fill="#00785F" d="M114.1,671c0,0,10.4-38.1,37.8-31C151.9,640,147.5,669.9,114.1,671z" />
					<path fill="#00785F" d="M88.2,613.1c0,0,42.6,20.1,28,58.4C116.2,671.5,81.8,661.1,88.2,613.1z" />
				</g>
				<g>
					<path fill="#00785F" d="M139.1,589.4c0,0,16.2-36-9.4-48C129.7,541.4,114,567.3,139.1,589.4z" />
					<path fill="#00785F" d="M196,561.3c0,0-45.7-11.6-58.8,27.2C137.1,588.5,170.2,602.4,196,561.3z" />
				</g>
			</g>
			<path fill="#00785F" d="M168.7,602.1c0,0-6.3,34-43.9,31.5C124.8,633.5,127.4,596.3,168.7,602.1z" />
			<path fill="#00785F" d="M106.7,573.5c0,0,35.9,19,19.9,60.3C126.7,633.8,85.7,617.8,106.7,573.5z" />
			<g>
				<path fill="#00785F"
					d="M141.8,584.6l-2.5-1.1c-0.2,0.6-24.3,56.2-34.1,146.9l2.7,0.3C117.7,640.5,141.6,585.2,141.8,584.6z" />
			</g>
		</g>
		<g clip-path="url(#SVGID_1_)">
			<path fill="#00785F" d="M1154.7,718c-13-0.5-17.2-10.8-17.3-21.9c-0.2-16.1,4.4-34,11.4-48.5c8.2-17,16.9-34.1,29.4-48.4
			c6.2-7.1,12.7-13.5,18.5-20.9c2.6-3.3,7-5.5,10.5-7.6c1.7-1.1,3.9-3.3,5.8-3.9c2.3-0.6,2.1,1.3,2.3,3.3c0.4,5,1.1,10,1.5,15
			c0.6,7.3-0.9,14.6-1.7,21.8c-1.7,16.3-5.7,33.7-9.9,49.6c-2.2,8.6-5.1,16.8-9.2,24.7c-4.8,9.2-8.9,18.4-16.9,25.2
			c-2.1,1.8-4.3,3.3-6.4,5.2c-1.6,1.5-3.7,2.1-5.4,3.5C1164.1,717.7,1158.8,718.1,1154.7,718z" />
			<path fill="#043A2C" d="M1161.2,692.5h0.2l0.1-0.1c0.2-0.1,22.3-10,34-26.2c0.2-0.2,0.1-0.6-0.1-0.8s-0.6-0.1-0.8,0.1
			c-10.4,14.3-29,23.7-32.8,25.5c5.1-10.8,10.1-22,14.8-32.9c2-0.7,17.8-6.4,25.9-17.1c0.2-0.2,0.1-0.6-0.1-0.8s-0.6-0.1-0.8,0.1
			c-7.2,9.5-20.5,14.9-24.4,16.4c4.2-9.6,8.1-18.9,11.7-27.5c1.5-0.5,9.6-3.9,17.8-14.4c0.2-0.2,0.1-0.6-0.1-0.8s-0.6-0.1-0.8,0.1
			c-6.8,8.7-13.7,12.5-16.3,13.7c10.5-25.2,17.7-44.1,17.9-44.5c0.1-0.3,0-0.6-0.3-0.7c-0.3-0.1-0.6,0-0.7,0.3
			c-0.1,0.4-7.4,19.3-17.9,44.6c-6.5-12.8-2.2-27.1-2.2-27.2c0.1-0.3-0.1-0.6-0.4-0.7c-0.3-0.1-0.6,0.1-0.7,0.4
			c0,0.2-4.6,15.4,2.7,28.8c-3.6,8.7-7.6,18-11.7,27.6c-9.1-15.3-6.7-34.9-6.7-35.1c0-0.3-0.2-0.6-0.5-0.6s-0.6,0.2-0.6,0.5
			c0,0.2-2.5,20.7,7.3,36.4c-4.8,10.9-9.8,22.1-14.8,32.9c-2-3.7-5.5-20.5-8.1-36.5c0-0.3-0.3-0.5-0.6-0.4c-0.3,0-0.5,0.3-0.4,0.6
			c0,0.1,1.6,9.4,3.4,18.7c2.7,13.3,4.3,17.5,5.2,18.8c-3.9,8.4-7.9,16.4-11.8,24c-0.1,0.3,0,0.6,0.2,0.7l0,0c0.3,0.1,0.6,0,0.7-0.2
			C1153.3,708.8,1157.2,700.7,1161.2,692.5C1161.1,692.4,1161.1,692.5,1161.2,692.5z" />
		</g>
		<g clip-path="url(#SVGID_1_)">
			<path fill="#019A6D" d="M1145.3,717.5c-10.7,8.3-21.3,4.9-29.2-1.9c-11.4-9.8-20.3-23.8-24.9-37.4c-5.4-15.9-10.5-32.3-10.6-49.4
			c0-8.5,0.6-16.8,0-25.2c-0.3-3.7,1.8-8.1,3-11.7c0.6-1.8,0.7-4.6,1.9-6.3c1.4-1.9,2.6-0.7,4.1,0.5c3.8,2.8,7.9,5.4,11.7,8.2
			c5.6,4.1,9.5,9.6,14,14.5c10.1,11.1,19,24.5,26.9,37c4.2,6.8,7.7,13.8,10,21.3c2.6,8.8,5.8,17.3,4.2,26.8
			c-0.4,2.6-1.1,4.9-1.4,7.5c-0.3,2-1.4,3.8-1.8,5.8C1152.6,711,1148.7,714.8,1145.3,717.5z" />
			<path fill="#9FC54D" d="M1132.6,697.5L1132.6,697.5l0.2-0.2c0.1-0.2,10.7-21,8.7-38.8c0-0.3-0.3-0.4-0.6-0.4
			c-0.3,0.1-0.5,0.3-0.5,0.6c1.8,15.7-6.4,33.9-8.2,37.6c-3.5-10-7.4-20.2-11.2-30.1c1.1-1.8,9.7-15.8,8.6-27.8
			c0-0.3-0.3-0.4-0.6-0.4c-0.3,0.1-0.6,0.3-0.5,0.6c1,10.6-5.8,22.9-8,26.4c-3.4-8.7-6.8-17-10-24.7c0.8-1.3,4.9-8.8,4.1-20.7
			c0-0.3-0.3-0.4-0.6-0.4c-0.3,0-0.6,0.3-0.5,0.6c0.7,9.9-2.2,16.8-3.4,19.3c-9.4-22.5-16.8-38.9-17-39.3c-0.1-0.2-0.4-0.3-0.7-0.2
			c-0.3,0.1-0.4,0.4-0.3,0.7c0.2,0.3,7.6,16.8,17,39.3c-14.1-3.6-20.8-15.1-20.8-15.2c-0.1-0.2-0.5-0.3-0.8-0.2s-0.4,0.4-0.3,0.7
			c0.1,0.1,7.2,12.5,22.4,15.9c3.2,7.7,6.6,16.1,10,24.8c-18-3.3-29.8-16.9-29.9-17c-0.2-0.2-0.5-0.2-0.8-0.1
			c-0.3,0.2-0.3,0.5-0.2,0.7c0.1,0.1,12.5,14.3,31.3,17.5c3.9,9.9,7.7,20.1,11.2,30.1c-4.2-1-18.8-8.9-32.1-17
			c-0.2-0.1-0.6-0.1-0.8,0.1c-0.2,0.2-0.2,0.5,0.1,0.7c0.1,0,7.8,4.7,15.8,9.2c11.5,6.4,15.6,7.9,17.3,8c2.7,7.8,5.2,15.4,7.4,22.6
			c0.1,0.3,0.4,0.4,0.7,0.3l0,0c0.3-0.1,0.5-0.4,0.4-0.6C1137.7,712.8,1135.2,705.2,1132.6,697.5
			C1132.5,697.5,1132.6,697.5,1132.6,697.5z" />
		</g>
		<path clip-path="url(#SVGID_1_)" fill="#019A6D" d="M729.2,731c0,0,1.8-11.8,33-13.3c31.2-1.6,53.3-36.4,48.6-38.3
		c-4.7-1.9-5.7-5.4-17.6,6.6c-11.9,12.1-25.6,26.1-39.9,27.9c-14.3,1.8-24,8.7-24,8.7s-1-13,4.4-16s6.8-3.2,13.4-3.3
		c6.6-0.1,15.7,2.4,28.5-8.1c12.7-10.5,24-29.8,20.6-29.4c-3.4,0.3-4.2-3.7-16.4,9.5s-18.7,20.4-33.6,22
		c-14.9,1.6-10.8,3.4-10.8,3.4s-3.7-8,20-20c23.6-12,28.7-18.3,31.3-23.3c2.7-5,15-18.8,10.7-22c-4.4-3.1-16.3,14-16.3,14
		s-9.3,12.1-17.4,15.6c-8.2,3.5-25.9,20.3-25.9,20.3s9-30.1,16.1-34.5s29.2-13,32.7-16.5c3.6-3.5,33.9-34.7,24-46.4
		c0,0-6.7-1.9-11.4,10.3c-4.7,12.1-13.8,26.2-17.8,28.9s-25.6,16.6-26.2,18.9c-0.7,2.4,5.8-25.9,18.4-35.8
		c12.6-9.9,34.3-41,29.8-53.1c0,0-4.5-5.1-8.8,3.3c-4.3,8.4-9.5,24.8-13.2,28.9c-3.7,4.1-14,19.8-14.5,21.5s1.2-16.3,5.3-21.5
		c4.1-5.3,4.3-25,0.2-24.2c0,0-6,0.3-7.6,13.2c-1.6,13-3,43.9-7.8,54.1c-4.8,10.2-8.6,19.3-8.6,19.3s-5.2-9.7-3.2-19.4
		s2.2-12.8-1.6-13.2c0,0-5.4,3-4.8,12.7c0.6,9.7,6.3,24.7,6.3,24.7l-1.5,5.3c0,0-6.8-13.4-6.8-20.4c0,0-3.4-4.1-3.6,3.5
		c-0.1,7.6,7.1,21.8,7.1,21.8l-4.4,13.5c0,0-7.4-13.5-6.6-23.5c0.8-10,1.4-16.9-2.9-15.5c-4.3,1.4-4.2,29.5,5.9,45.1l-3.7,18.1
		c0,0-0.6-19.3-7.9-28.4c-7.3-9.1-2.2-39.6-2.2-39.6s0.5-4.3-4.3-1.2s-9.3,24.3,3,43.6c12.3,19.4,6,27.9,6,27.9
		s-17.1-18.8-16.6-30.1c0.5-11.4-0.8-23.2-3.7-22.1c-2.9,1.1-2.9,1.1-3.1,4.2c-0.2,3.1-1,20.2,4.4,26.8s15.4,20.2,15.6,24.1
		c0.2,3.9-16.3-9.6-20.6-17.8s-7.8-14.3-10-11.1s-4.1,7.8,1.9,12s35.4,28.3,35.8,34.2l-0.3,3.8L729.2,731z" />
	</g>
</svg>