<svg version="1.1" id="Layer_1" xmlns="http://www.w3.org/2000/svg" xmlns:xlink="http://www.w3.org/1999/xlink" x="0" y="0" viewBox="0 0 1200 700" xml:space="preserve"><style>.st1{fill:#fff}.st2{fill:#1a1b1f}.st4{fill:#eac52d}.st5{fill:#070707}.st6{fill:#efb201}.st7{fill:#291607}.st9{fill:#040100}.st10{fill:#c99732}.st12{fill:#4a5d66}.st13{fill:#8fa1ab}.st15{fill:#272525}.st16{fill:#c1172c}</style><defs><path id="SVGID_1_" d="M0 0h1200v700H0z"/></defs><clipPath id="SVGID_00000052077885452234361100000018159149548833037956_"><use xlink:href="#SVGID_1_" overflow="visible"/></clipPath><g clip-path="url(#SVGID_00000052077885452234361100000018159149548833037956_)"><path class="st1" d="M390 630.2c2.3-11-13.2-28-18.2-11.7.8 34.2 6.2 70.4 4.7 104.4 16 30.9 19.5-82.8 13.5-92.7zm48.4 6.8c2.3-11.2-13.5-28.7-18-11.5 1.7 32.9 4 67.4 5.6 100.3 0 4.8-6.1 7.9 1.6 10.4 17.3-.1 14.2-85.4 10.8-99.2zm92.6-4.5c2.3-11.9-13.4-27-18.4-10.4 1.7 32.9 4 67.4 5.6 100.3.5 4.2-6 8.4 1.2 9.8 18.5-.8 15-85.2 11.6-99.7zm28-3.2c2-10.9-12.9-30.5-17.1-11.8 2 32.9 4.1 67.5 5.7 100.4-.7 4.5-5.4 7.8 1 11 16.6.4 14-86.4 10.4-99.6z"/><path class="st1" d="M575.4 549c-6.8-67.9-2.4-132.3-87.2-79.3-10.1 3.7-23.5 15.8-10.2 24.7 33 12.2 44.8-24.3 39.4 28-27 38.9-143.4-70.1-152.1 88.3C392.1 750.5 615.4 682 575.4 549z"/><path class="st2" d="M597 535.4c-4.4-4.2-11.7-4.9-17.3-6.6 28.2-5 17-11.8-1.6-13.6 29.2-8.8 20-15.5-2.3-15.3 28.9-12.4 20.4-16.8-3-13.3 24.1-15.4 21.4-22.3-3.2-13.4 17-14.6 24.7-28.5-3.9-12.2 22-29.5 6.8-23.9-10.2-4.7 16.7 26.2 16.1 62 18.8 92.2 15.1 5.7 34.1-.6 6.6-8.3 7.2-.2 18.4-1.2 16.1-4.8zm-79.9-72.1c-1.4-.5-3.3 3.4-1.5 4.2 1.8.3 3.2-3.4 1.5-4.2zm18.7 9.1c-1-3.5-4.4 2.5-2.2 3.2 1.2.2 2.5-1.9 2.2-3.2zm-30.9 4.7c.4-22-36-3.2-33.1 10.6 10 16.2 39.6 14.8 33.1-10.6z"/><path class="st1" d="M483 477.5c-2.2-.3-4.8 4-1.9 4.4 2.2.4 4.8-4 1.9-4.4zm7.9 7.2c-2.3-.2-4.5 4.3-1.7 4.9 2.4.5 4.8-4.5 1.7-4.9z"/><path class="st2" d="M404.3 526.2c-28.4 10.3-73.9 59.1-61.3 80.9.3-37.6 39.5-66.4 61.3-80.9z"/><path class="st2" d="M345.2 610.1c-2.4-27.5-34.3 38.1-13.4 15.6-.7 7.9 5.2 15.7 6.4 5.7 8.2 14.7 7.1-17.3 7-21.3zm215.5-141.2c-10.3 12.8-24.6 26.9-42.1 26.6 3 14.7 52.5-19.5 42.1-26.6zm8.9 32.3c-15.3 9.6-35.7 9.7-51.8 6.7 6 9.6 63.8.8 51.8-6.7zm4.2 27.2c-17.5 1.9-37.8 2.2-52.8-8.1-1.4-1.1-4.7-.1-2.6 1.6 6.7 9.1 60.7 15.2 55.4 6.5zm-65.5 3.8c13.5 14.9 47.3 40.8 63.9 32.8-23.8-.8-44.2-17.7-60.1-34-.7-.9-4.5.2-3.8 1.2zm-10 1.6c8.9 28.9 30.9 76.7 58.9 79.1-35.4-10.2-41.1-58.6-58.9-79.1zm-10.6-.7c4.7 30.1 6.8 100.4 32.7 106.8-23.2-29.7-24.3-71.3-28.7-107.3-.3-2.5-4.2-1.8-4 .5zm-19.6-5.2c-1.4 26.7-12.8 92.4 14.2 104.8-20.9-28.6-12.8-69.8-10.4-103.7.2-2.2-3.4-3.7-3.8-1.1zm-22.1-5.7c-18 23.7-30.9 84.8-6.2 98.6-16.1-31-9.2-69.2 9.8-97.4 1.4-1.8-2.5-2.6-3.6-1.2zm-42.9 3.4c-16.5 29.8-19.1 70.4-2.4 100.1-16.1-32-4.2-71.7 2.4-100.1zm-38.2 63.7c-3.4 8.7 25.2 52.1 25.7 39.1-15.8-4.6-20.8-45.4-25.7-39.1zm9.7 72c1.6 4.9 22.9 7.3 15.6 3.4-5.4 3.6-14-6.4-15.6-3.4zm2.2 24.9c6.1 6.9 18.1-.5 12.7.3-6.2 4.9-12.8-4.9-12.7-.3zm47.1.1c10.1 8.1 22.5-.4 15.6-.1-4.3 5.3-15.4-5.9-15.6.1zm93.8-4.8c10.5 2 20.9-6.4 12.7-4.4-1.5 4.3-16.1.6-12.7 4.4zm1.3 17.9c2.9 2.1 16.4-.3 11.4-3.7-4 5.4-15.5-.2-11.4 3.7zm26.2-35.1c8.4 7.4 22.7-2 14-2.1-3.1 6.3-16.6-3.3-14 2.1zm1.9 26.3c3.4 3.6 19.6.1 12.6-2.6-2.8 6.1-16.4-2.3-12.6 2.6z"/></g><g clip-path="url(#SVGID_00000052077885452234361100000018159149548833037956_)"><path d="M515.3 445.9c-1.2 6.6-.1 10.6 6 10.1 13.1.4 26.1 2.4 38.6 6.1 2.2-5.4 3.7-11.1 4.5-16.8 6 1.7 12.2 2.6 18.5 2.7-.2-2.2-1.6-4.2-3-5.9-9.2-10.4-16.2-24.4-27.6-32.2-16.8 2.2-35.6 6.3-50.1 14 18.2 14.7 17.1 1.6 13.1 22z" fill="#3d3b3b"/><path class="st4" d="m574.2 462.7-.3.8c-14.6-3.8-19.4-27.8-29.6-38.7l.6-.6c10.2 10.8 14.8 34.7 29.3 38.5z"/><path class="st4" d="M573.3 466.7c2.4 1.2 6.7 5.9 9 5.1.8-1.9 4.6-5.7 3.5-7.4-2.8-1.7-5.5-4-8.9-4.6-5.1-.8-8.3 3.5-3.6 6.9z"/><path class="st4" d="M568.7 461.3c-.2 1.6 1.2 3.4 3.2 2.8 5.1-2.3-1.8-8.2-3.2-2.8z"/><path class="st5" d="M543.5 426.9c1.5 1.8 4.9.5 4.1-2-1.1-3.4-6.4-1.3-4.1 2z"/></g><g clip-path="url(#SVGID_00000052077885452234361100000018159149548833037956_)"><path class="st6" d="M768 325.1c-.1 2.2-12.7 25.4-5.8 20.2.1-2.2 12.7-25.4 5.8-20.2zm12.5 3.5c.1 2.4-11.9 29.9-5.3 23.7.4-5.8 11.1-24.2 5.3-23.7z"/><path class="st7" d="M751.4 345.2c-19.1-16.2 4.5-43.6 2.7-1.4l-2.7 1.4z"/><path class="st6" d="M753.8 344c-2.9-1.7-2.7-16.3-5.4-15.5.3 2.7 1.6 17.5 5.4 15.5zm48.7 2.5c-6.3-12.3-17.8 3-24.4 7.3 1.3 12.5 27.1 3.6 24.4-7.3z"/><path class="st7" d="M771.3 315.8c-6.6-.6-10.8 11.7-3.1 12.9 6.8.7 10.9-11.8 3.1-12.9zm13.9 3.7c-6.8-1.1-11 11.6-3.7 13.4 6.9 1.3 11-11.5 3.7-13.4z"/><path class="st6" d="M773 661.5c3.1-12.8-10.9-9.2-15.4 2.5-25.8 98.9-38.4 186 15.4-2.5zm8.4 25.8c-.4-6.7-8.9-17.2-9.3 1.5-.9 18.6-24 80.3-28 97.8 2.9 2.4 25.7-40.6 37.3-99.3zm217.4-59.5c-6.6-22-21.1-34.2-18.9-1.4 17.4 9.6 19.5 32.5 18.4 50.7 6.9 5.1 3.7-45.6.5-49.3z"/><path class="st7" d="M1001.5 663.1c-6.8.6-2 12.3-3.7 17.1 4.2 1.8 4.8-15.1 3.7-17.1z"/><path class="st6" d="M990.4 607.2c-41-78.2-197.7.2-196.5-71.3-8.3-60.8-11.4-131.1-15.7-185.9-30.6-23.6-40.5 13.8-59.1 31.3-9.5 11.5 7 17.9 16.3 12.7 18-5.9 31-28.3 29 5.2 2 113.2 4.2 229-23.5 339.5 14.6 18.6 17.5-45 23.4-53.4 31.9 52.5 74.6 35 125.1 42 69.4 30.4 129.5-60.5 101-120.1z"/><path class="st6" d="M927.3 694.3c-6.2-2.8-19.5-.6-3.2 8.8 16 9.7 59.1 59.7 72.5 71.5 3.5-1.4-23.3-42-69.3-80.3zm26.1-5.1c-6.2-2.8-19.5-.6-3.2 8.8 16 9.7 59.1 59.7 72.5 71.5 3.4-1.5-23.4-42-69.3-80.3z"/><path class="st7" d="M749 386.2c-11.2-7.8-24-25-32.2-4.3-7.6 21.2 29.9 15.4 32.2 4.3z"/><path class="st2" d="M750.3 356.7c-1.5-.9-3.7 2.8-2.3 3.6 1.4.7 3.8-2.4 2.3-3.6zm13.8 6.9c-1.5-.9-3.7 2.8-2.3 3.6 1.4.8 3.8-2.5 2.3-3.6z"/><path class="st7" d="M780.6 405c-1.3-4.1-1-37.2-6.4-33.4.5 12.6-9.2 36.7 3.7 43.8 4.9-.6 3-7.3 2.7-10.4zm-5.6 59.4c7-23.1-14.4-25.9-10.1-1.1-5 22.4 17.8 25.5 10.1 1.1zm18.2 64.9c-1.5-7.2-.5-44.6-11.2-26-3.6 12.8-5.5 25.7-9.1 38.3 4.3 12.6 25.1 7.3 20.3-12.3zm.1 68.7c-1.4-17.3-25.8-31.9-31.6-9.3-1.4 16.1-2.6 41.5-5 57.2 6.9 30.5 59.5-24 36.6-47.9zm82.4 34.9c-.3-11.7-7.1-22-18.4-25.5-69.2-9.2 18.1 100.3 18.4 25.5zM987.5 612c3.8-25.1-55-55.2-51.1-17.3 5.3 8.9 17.8 11.1 20.1 22.1 2.5 5.9 4.9 13.8 11.8 15.8 11.7 2.8 20.1-10.2 19.2-20.6zm-187.3 95.2c-15.9-8.7-6.1-20.4-19.9-33.8-12.2-10.3-18.6 13.5-11.3 20.9 5.5 6.7 28.5 31 31.2 12.9zm52.7-26.5c-3.3-11.9-41.5-14.3-18.8 14.2 5.2 6.6 11.8 3.5 11.3-4.6 1.2-4.3 7.8-4.6 7.5-9.6zm8.7-110.3c-9.3-2.5-52.2-8.9-33.6 9.8 7.1 5.2 41.5 4.8 33.6-9.8zm47.6-1.8c-27.5-10.6-39.2 37.6-12.6 42.8 7.4-7.6 2.4-25.6 16.1-27.8 6.7-4 3.6-13.6-3.5-15zm22.7 74.8c-15.3-9.7-24.2-4.2-19.9 13.5-2.5 7.5-5.9 12.9 2.2 18.5 17.7 10.9 32.2-20.5 17.7-32zm64.2 8.8c-13.7-23.8-27.6 32.2-14.8 34.5 6.5-1.8 17-27.9 14.8-34.5zm-35 62.9c-3.5-11.4-13.6-42.4-28.6-24.5-2.5 9 8.1 18.5 3.3 28-12.5 21.7 24.7 7.4 25.3-3.5z"/></g><g clip-path="url(#SVGID_00000052077885452234361100000018159149548833037956_)"><path d="M337 622.8c-76.4-277.1-245-129.6-171.4-101 55.2 12.7 1.9 35.6 19.9 69.1 6.1 8.1 12.6 15.9 4.6 25.5-35.4 24.5-61.2 67.9-27.2 106.2-27.7 9.5-52.8-108.2-14.8-90 47.4-21.5-73.4-55.9-23.2 75.5 49.4 83 227.9 8.2 212.1-85.3z" fill="#ffbd31"/><path class="st9" d="M169.5 475.5c-2.6-16.5-17.5-24.5-29.8-10.8-12.5 26.1 15.7 31.1 29.8 10.8z"/><path class="st1" d="M165.4 476.6c-2.5-16.9-22.6-10.6-20.6 1.7 7 14.8 11.6 3.9 20.6-1.7z"/><path class="st10" d="M204.3 596.3c-10.6-25.2 6.6-83-11-100.5-9.2 30.2-23 66-14.2 98.3 15.7 20.2-9.1 36.4-20.3 51.3-8 19.2 63.2 7.9 45.5-49.1z"/><path d="M214.6 503.3c-.4-37.4-66.9-47.9-68.6-6.4-11.7 49.8 77.9 61.1 68.6 6.4z" fill="#ffc03a"/><path class="st1" d="M177.6 514.6s-.6 13.5-6.1 8.6 3-14.7 6.1-8.6zm0 0s.6 13.5 6.1 8.6c5.6-4.9-3-14.7-6.1-8.6zm-25.7-14.2s9.1-11.1 19.6 1.3c0 0-11.2 8.5-19.6-1.3z"/><path class="st9" d="M167.2 500.9c-.2-1.3-1.1-3.5-2.4-3.4-3.9 2.5 3.2 12.7 2.4 3.4z"/><path class="st1" d="M187.1 500.4s7.8-10.5 18.3 2c0 0-9.8 7.8-18.3-2z"/><path class="st9" d="M202.4 500.9c-.8-4.6-4.4-4.3-3.3.5.7 4.6 4.4 4.3 3.3-.5z"/><path class="st1" d="M171.5 471.6c2.2 1.3-3.1 51.6 9.2 45.4l6.1-44.4c-.1 0-12.9-2.8-15.3-1z"/><path class="st2" d="M181.7 508.3h-8.2c-1.5 14.4 11 10.1 8.2 0zm.8 7.7c0-.7-1-.7-1 0s1 .5 1 0zm-2.3 2c-.7 0-.7 1 0 1s.7-1 0-1zm2-.2c0 .7 1 .7 1 0s-1-.5-1 0zm.5 1.4c-.7 0-.7 1 0 1s.5-1 0-1zm-8-1.2c-.7 0-.7 1 0 1s.7-1 0-1zm-1.2-2.5c-.7 0-.7 1 0 1s.5-1 0-1zm-1.9 1.9c-.7 0-.7 1 0 1s.7-1 0-1zm1.3 1.8c-.7 0-.7 1 0 1s.5-1 0-1zm-15.8-7.3c-.4-.4-25.3.7-25.2-.4-.3-.5 27.5-1.3 25.2.4zm-22.2 11.8c-2.4-.9 21.9-8.3 21.9-7.8.5 1.1-21.7 7.2-21.9 7.8zm10.4 7.1c-1.7-.2 11.6-11.7 12.1-11.2.6.8-11.7 10.9-12.1 11.2zm83.3-21.2c-.4-.4-25.3.7-25.2-.4-.3-.5 27.5-1.3 25.2.4zm-2.6 11.8c-.3-.4-22.3-6.7-21.9-7.7 0-.5 24.1 6.8 21.9 7.7zm-10.5 7.2c-.4-.4-12.8-10.4-12-11.2.3-.5 14.1 11 12 11.2z"/><path class="st2" d="M177.3 524.2v-8.7c1.2-1.3 1.2 10 0 8.7z"/><path class="st2" d="M171.9 529c2.6-5.8 9-5 12.2-.1 5 1.7-5.4-7.5-9.2-4.5-1.5.2-7 5.6-3 4.6zm2.2-5.3c-12.4-8.8 2.4-16.9-2.6-23.8-3.9-9.8-24.3-.7-18.9.7 5.3-7.8 19.9-4.2 17.5 5.7-4.6 4.9-4.4 19.9 4 17.4zm6.7.9c8.5-1.1 6.5-10.8 5.1-16.7-2.5-10.7 12.6-14.6 18-5.5 6.1-6.4-19-9.6-20.4 1.2-.3 8 4 17.5-2.7 21z"/><path class="st10" d="M161 623c-.1-11.8-18.3-11.1-18.2.4.1 11.8 18.3 11.1 18.2-.4z"/><path d="M292.4 560.1c5.1-.1 5.1 7.9 0 7.8-5.1.1-5.1-7.9 0-7.8zm-41.3-18.5c0 4.3-5.8 4.3-5.8 0s5.8-4.3 5.8 0zm17.7-1.7c0 2.1-3.2 2.1-3.2 0s3.2-2.1 3.2 0zm13.3 46.1c.1 5-7.8 5.1-7.8 0-.1-5 7.9-5.1 7.8 0zm9.5-51.6c0 5.1-7.9 5-7.8 0 0-5.1 7.9-5.1 7.8 0zm15.8 53.2c4.8 1.8 1.8 9.2-2.9 7.3-4.8-1.8-1.8-9.3 2.9-7.3zm-159.5 31c0 3.4-5.2 3.4-5.2 0s5.3-3.4 5.2 0zm-22.2 9.2c0 1.7-2.6 1.7-2.6 0s2.6-1.7 2.6 0zm-1.3 19.2c0 2.1-3.2 2.1-3.2 0s3.2-2.1 3.2 0zm135.8 32c0 2.1-3.2 2.1-3.2 0s3.3-2.1 3.2 0zm-126.1 11.9c0 2.6-4 2.6-4 0s4.1-2.6 4 0zM267.5 610c0 2.6-4 2.6-4 0s4-2.6 4 0zm-105.7 85.2c.1 3-4.7 3-4.6 0-.1-3.1 4.6-2.9 4.6 0zm15.9-21c3.5 3-1.5 8.6-4.9 5.3-3.6-3.1 1.5-8.5 4.9-5.3zm6.8 26.4c.1 4.7-7.3 4.7-7.2 0-.1-4.7 7.3-4.7 7.2 0zm108.1-19.9c0 2.6-4 2.6-4 0s4-2.6 4 0zm38.1-42.2c2.5-.5 3.2 3.4.8 3.8-2.4.5-3.3-3.4-.8-3.8zM216 619.3c2.5-.5 3.2 3.4.8 3.8-2.5.5-3.3-3.3-.8-3.8zm-.7 68.6c.1 3.8-5.9 3.8-5.8 0-.1-3.8 5.9-3.8 5.8 0zm14.9-22.2c0 2.6-4 2.6-4 0s4.1-2.6 4 0zm-11.7-23.6c4.3-.1 4.3 6.7 0 6.6-4.3.1-4.3-6.7 0-6.6zm-17.7 4c0 3.4-5.2 3.4-5.2 0 0-3.3 5.3-3.5 5.2 0zm-2.1 17.6c3.4 0 3.4 5.2 0 5.2s-3.4-5.2 0-5.2zm42.6-48.9c0 4.3-6.6 4.3-6.6 0s6.6-4.2 6.6 0zm13-23.8c0 4.3-6.6 4.3-6.6 0s6.6-4.2 6.6 0zm-30.6-93.1c.1 3-4.7 3-4.6 0-.1-3 4.7-2.9 4.6 0zM189.1 487c0 1.2-2 1.4-2 0 0-1.3 2-1.3 2 0zm27.3 54.4c0 3.4-5.2 3.4-5.2 0s5.2-3.4 5.2 0zm-48.2-52.7c0 1.7-2.6 1.7-2.6 0 0-1.6 2.6-1.8 2.6 0zm130.7 61c0 1.7-2.6 1.7-2.6 0s2.6-1.7 2.6 0zm-147-59.7c0 1.7-2.6 1.7-2.6 0 0-1.6 2.6-1.8 2.6 0zm27.5-20.7c-2.7.1-2.8-4.2 0-4.2 2.7-.1 2.8 4.3 0 4.2zm-13.9 6.3c0 1.7-2.6 1.7-2.6 0s2.7-1.7 2.6 0zm60.8-7.5c0 2.1-3.2 2.1-3.2 0s3.3-2.1 3.2 0zm45.7 50.2c3.3 2.8-1.3 7.8-4.3 4.9-3.2-2.8 1.1-7.8 4.3-4.9zm-11.4 42.9c3.3 2.8-1.3 7.8-4.3 4.9-3.2-2.8 1.1-7.8 4.3-4.9zm53.2 93.5c3.3 2.8-1.3 7.8-4.3 4.9-3.3-2.8 1.1-7.7 4.3-4.9zM281 663c3.3 2.8-1.3 7.8-4.3 4.9-3.3-2.8 1.2-7.8 4.3-4.9zm18.6 31.3c3.3 2.8-1.3 7.8-4.3 4.9-3.3-2.8 1.2-7.8 4.3-4.9zM289.3 609c3.3 2.8-1.3 7.8-4.3 4.9-3.3-2.8 1.2-7.6 4.3-4.9zm-37.9 22.2c3.3 2.8-1.3 7.8-4.3 4.9-3.3-2.8 1.3-7.8 4.3-4.9zm67.1 43.4c3.3 2.8-1.3 7.8-4.3 4.9-3.3-2.8 1.3-7.8 4.3-4.9zm-23.2-29.8c3.3 2.8-1.3 7.8-4.3 4.9-3.3-2.8 1.1-7.7 4.3-4.9zm-74.5-59.5c3.3 2.8-1.3 7.8-4.3 4.9-3.3-2.8 1.2-7.8 4.3-4.9zm27.1-103.8c0 4.3-6.6 4.3-6.6 0s6.6-4.3 6.6 0zm1.7 29.5c0 2.6-4 2.6-4 0s4-2.6 4 0zm-13.4 7.9c.1 3.8-5.9 3.8-5.8 0-.1-3.8 5.9-3.8 5.8 0zm17.2-27.6c3 0 3 4.6 0 4.6s-3-4.6 0-4.6zm22.5 6.7c.1 3.3-5.1 3.3-5 0-.1-3.3 5.1-3.3 5 0zM159 659.8c0 3.4-5.2 3.4-5.2 0 0-3.3 5.3-3.4 5.2 0zm159.4-78.7c0 2.1-3.2 2.1-3.2 0s3.3-2.1 3.2 0zm10.5 31.3c.1 3-4.7 3-4.6 0-.1-3 4.6-2.9 4.6 0zm-177 17.3c0 2.6-4 2.6-4 0s4-2.5 4 0zm45.7-148.9c2.6 0 2.6 4 0 4s-2.6-4 0-4zm114 140.2c.1 6.5-10.1 6.5-10 0-.1-6.5 10.1-6.4 10 0zm-55.4 36.5c.1 4.1-6.5 4.2-6.4 0-.1-4.1 6.5-4.2 6.4 0zm22.7-22.5c.1 4.7-7.3 4.7-7.2 0-.1-4.7 7.3-4.7 7.2 0zm-38.1 59.1c.1 5.8-9.1 5.8-9 0-.1-5.8 9-5.9 9 0zm-18.6-126.4c-5.5-2.4-1.8-10.9 3.7-8.5 5.5 2.4 1.9 10.9-3.7 8.5zm-104 105.4c-3.6-1.5-1-7 2.4-5.4 3.5 1.5 1.1 7-2.4 5.4zm154.6 32c-5.2-2.2-1.6-10.3 3.5-7.9 5.2 2.2 1.7 10.1-3.5 7.9z"/></g><g clip-path="url(#SVGID_00000052077885452234361100000018159149548833037956_)"><path class="st12" d="M1101.2 418.3c-34.3 5-139.7 101.3-72.9 115.5-7.5 33.4 28.6 25.3 41.8 7.4 23.4-35.8 26.7-81.3 31.4-122.8.1.1-.1 0-.3-.1z"/><path class="st13" d="M1347.7 534.8c-11.7-89-102-84-169.4-94.6-165.4-106.3-162.7 161-49.9 220.6.2 16.9.5 33.8.8 50.6 21.8 9 15.3-19.5 18.8-33.3 4.3 16.6-4.6 39.6 20.6 32.9 0-9.1 0-18.2-.1-27.3 40.7 11.3 84.2 0 123.4-12.2-10 111.6 77.5-105.3 55.8-136.7z"/><path class="st12" d="M1224.9 511.9c-4.9-6.8-10.5-13.4-16.6-19.4 21.7 10.4 36.2 5.9 21.4-18.8-20.7-29.7-59.5-47.3-92.9-55.2-78.2 219.9 94 259.1 47.1 116.2 23.6 54.2 77.8 23.2 41-22.8z"/><path class="st13" d="M1051.9 474.9s-19.8 104.2 7.3 205.8l10.3-.4s-8.2-98.5 15.2-128.5l-32.8-76.9z"/><path class="st1" d="M1065.7 467.4c.3 8-8.2 8.3-8.4.3-.3-8 8.2-8.3 8.4-.3zm35.9 3.4c.5 10.3-15.7 11-16 .6-.5-10.3 15.7-11 16-.6z"/><path d="M1094.3 474c-2-5.4-6 4.4-2.7 5 1.8.4 3.2-3.2 2.7-5zm-32.4-6.1c-2.3-.6-4.1 5.9-1.5 6.6 2.6.3 3.9-6.1 1.5-6.6zm62.4-65.9-5.1 5.4c.4-9.6.2-10.8-5.2-1.9-.8-1-1.4-3.8-3-3.1-2.4 15.6 7.5 17.8 13.1 3.3.3-1.1 2.8-4.4.2-3.7z" fill="#1d0104"/><path class="st1" d="M1047 509.4c5.7 1.8 20.2 11.4 30.3 5.5l-30.3-5.5zm19.5 20-19.9-4.9s7.8 8.2 19.9 4.9zm-5.3 10.6-16-1.3s7.7 5.3 16 1.3zm-2.4 11.4-13.2.5c0-.1 4.9 3.5 13.2-.5zm.5 14.1-15 .5c1.8-.1 8.5 3.4 15-.5zm-6.1 14.3-8.5-.6c0-.1 2 3.6 8.5.6zm-.5 11.3-7.5.3c-.1 0 1.9 2.7 7.5-.3zm.3 10.3-7.5.3c2.8-.1 3.8 1.7 7.5-.3zm2.2 8.4-9.4.3c0 .1 7.6 2.6 9.4-.3zm.4 12.2-7.5.3s2.9 2.7 7.5-.3zm2.3 10.3-7.5.3s4.8 2.6 7.5-.3zm.3 10.3-7.5.3s3.9 2.7 7.5-.3zm.4 10.4-5.7-.7c0-.1 2.1 3.6 5.7.7zm2.3 10.3-5.6.2c-.1 0 3.8 2.6 5.6-.2zm27.1-98.1c-7.9-12.6-16.4 12.3-24.4 15-1 .7-7.2 4.8-4.8 6.2 11.3.1 30.2-7.4 29.2-21.2zm2.5-128.8c0 .9 10.7 10 30.3 5.5l-30.3-5.5z"/></g><g clip-path="url(#SVGID_00000052077885452234361100000018159149548833037956_)"><path class="st15" d="M1080.7 408.4c-.4 9.3 1.8 14.4 10 12.8 17.9-1.8 36-1.3 53.8 1.5 2-7.8 3.1-15.8 3.2-23.8 8.5 1.2 17.2 1.4 25.7.4-.6-3-3-5.4-5.2-7.5-14.4-12.6-26.5-30.3-43.4-39.1-22.5 4.7-43.1 15-63.5 25.3-10.3 3.5 18.3 11.3 21.1 12.9.1 0-1.6 9.3-1.7 17.5z"/><path class="st4" d="M1172.7 414.3v1.2c-20.6 1.1-37.1-28.3-54.8-38.3l.6-1c17.9 9.7 33.6 39.1 54.2 38.1z"/><path class="st4" d="M1173.3 419.9c13.8 3.5 13.9 8.5 16-7.9-4.3-1.7-9.5-3.3-14.2-2.7-7.1 1.1-9.5 8-1.8 10.6z"/><path class="st4" d="M1164.9 414.7c.4 2.2 3 4 5.4 2.4 5.7-5.2-5.6-10-5.4-2.4z"/><path class="st5" d="M1115.8 377.4c2.4 2.2 6.8-.2 5.3-3.5-2.5-4.7-8.8-.4-5.3 3.5z"/></g><g clip-path="url(#SVGID_00000052077885452234361100000018159149548833037956_)"><path class="st15" d="M753.7 332.3c-2.5 5-2.6 8.3 2.3 9.5 10.2 3.5 20 8.2 29.1 14.1 3-3.8 5.6-7.9 7.6-12.2 4.3 2.8 9.1 5 14 6.6.4-1.8-.3-3.7-1-5.4-3.6-6.5-9.2-31.7-15.9-32.6-13.3-1.8-28.5-3.2-41.2-.6 2.6 4.3 6.7 7.9 10.3 11.5.1 0-3.1 4.6-5.2 9.1z"/><path class="st16" d="m794.6 360.5-.4.6c-10.3-7.2-7.3-27-12.1-38.4l.6-.3c4.9 11.2 1.7 31.1 11.9 38.1z"/><path class="st16" d="M792.8 363.4c5 6.6 3.8 9 10.6 2.1-1.6-2.3-3.4-5-5.8-6.5-3.8-2-7.5.4-4.8 4.4z"/><path class="st16" d="M790.7 357.9c-.6 1.2 0 3 1.7 3.1 4.6-.3.9-6.9-1.7-3.1z"/><path class="st5" d="M780.6 324.1c.8 1.8 3.8 1.6 3.8-.6-.1-3.1-4.9-2.5-3.8.6z"/></g><g clip-path="url(#SVGID_00000052077885452234361100000018159149548833037956_)"><path d="M166.7 459.2c-2.3 7.4-1.8 12.2 5.4 12.7 15 2.5 29.7 6.9 43.6 13.1 3.3-5.9 6-12.2 7.8-18.7 6.7 2.9 13.7 4.9 20.9 6 .2-2.6-1.2-5.1-2.6-7.3-6.3-8.1-20.2-42.2-29.4-41.6-18.5-.3-36.7 3-54.7 6.8-1.1.1-2.6.4-2.5 1.6 4.5 5.5 11.2 9.4 16.9 13.6-.1 0-3.5 7.1-5.4 13.8z" fill="#333131"/><path class="st16" d="M214.9 460.5c-3-6-5.5-12.7-9.3-18.2-.2.2-.5.4-.7.6 7 10.5 13.4 33.5 25.7 35.2l.2-1c-5.9-1.3-11.1-6.7-15.9-16.6z"/><path class="st16" d="M229.8 483.8c2 .9 6.9 5.7 8.4 4.2.7-2.4 3.9-7 2.9-9.1-8.3-7.5-18.2-1.6-11.3 4.9z"/><path class="st16" d="M225.3 478.4c-.1 1.9 1.3 3.7 3.1 2.7 2.9-1.7 1.2-7.3-1.7-5.2-.9.6-1.3 1.6-1.4 2.5z"/><path d="M201.1 444.4c1.7 2.2 5.7.8 4.9-2.2-1.5-4.3-7.2-1.6-4.9 2.2z" fill="#262525"/></g></svg>