<?xml version="1.0" encoding="utf-8"?>
<!-- Generator: Adobe Illustrator 22.0.1, SVG Export Plug-In . SVG Version: 6.00 Build 0)  -->
<svg version="1.1" id="Layer_1" xmlns="http://www.w3.org/2000/svg" xmlns:xlink="http://www.w3.org/1999/xlink" x="0px"
	y="0px" viewBox="0 0 1200 700" enable-background="new 0 0 1200 700" xml:space="preserve">
	<g>
		<defs>
			<rect id="SVGID_3_" width="1200" height="700" />
		</defs>
		<clipPath id="SVGID_1_">
			<use xlink:href="#SVGID_3_" overflow="visible" />
		</clipPath>
		<g clip-path="url(#SVGID_1_)">
			<g>
				<path fill="#00785F" d="M88.7-46.4C73.5-41,72.2-27.3,76.1-14c5.6,19.1,17.5,38.8,31.1,53.5c15.9,17.2,32.4,34.4,52.5,46.9
				c9.9,6.2,20,11.5,29.5,18.2c4.2,3,10.3,3.9,15.3,5.3c2.4,0.6,5.8,2.6,8.3,2.5c3-0.1,2.1-2.3,1.6-4.7c-1.3-6.1-2.3-12.2-3.6-18.3
				c-1.9-8.9-6.4-17-9.9-25.3c-7.9-18.8-19-37.9-29.7-55.3c-5.8-9.4-12.2-18.1-19.9-26c-9-9.2-17.3-18.6-29.2-23.8
				c-3.2-1.4-6.3-2.4-9.5-3.9c-2.5-1.2-5.1-1.2-7.6-2.3C100-49.4,93.5-48.1,88.7-46.4z" />
				<path fill="#043A2C" d="M105.6-18.4l0.2-0.1h0.2c0.3,0,30.1,3.8,49.9,18.8c0.3,0.2,0.4,0.6,0.1,0.9c-0.2,0.3-0.6,0.4-0.9,0.1
				c-17.5-13.3-43-17.7-48.2-18.4c9.9,11,19.9,22.5,29.5,33.7c2.7,0.1,23.4,1.1,37,10.9c0.3,0.2,0.4,0.6,0.1,0.9
				c-0.2,0.3-0.6,0.4-0.9,0.1c-11.9-8.7-29.7-10.3-35-10.6c8.4,9.9,16.5,19.5,23.8,28.4c1.9,0.1,12.8,1.1,26.3,10.7
				c0.3,0.2,0.4,0.6,0.2,0.9c-0.2,0.3-0.6,0.4-0.9,0.2c-11.2-7.9-20.8-9.8-24.4-10.3c21.6,26.2,37,46,37.3,46.4
				c0.2,0.3,0.2,0.7-0.1,0.9c-0.3,0.2-0.7,0.2-0.9-0.1c-0.3-0.4-15.8-20.2-37.4-46.5c-3,17.6,7.1,33,7.2,33.1
				c0.2,0.3,0.1,0.7-0.2,0.9c-0.3,0.2-0.7,0.1-0.9-0.2c-0.1-0.2-11-16.7-7.3-35.2c-7.4-9-15.5-18.7-24-28.6
				c-5.2,21.5,4.6,43.9,4.7,44.1c0.2,0.3,0,0.7-0.3,0.9s-0.7,0-0.9-0.3c-0.1-0.2-10.4-23.6-4.6-45.9c-9.6-11.2-19.6-22.7-29.5-33.7
				c-1,5.1,0.9,26.4,3.6,46.3c0,0.4-0.2,0.7-0.6,0.8c-0.4,0-0.7-0.2-0.8-0.6c0-0.1-1.6-11.8-2.7-23.4c-1.6-16.8-1.2-22.3-0.6-24.2
				C97-25.8,89.4-34,82.1-41.5c-0.3-0.3-0.3-0.7,0-1l0,0c0.3-0.3,0.7-0.3,0.9,0C90.3-34.9,97.9-26.8,105.6-18.4
				C105.5-18.4,105.6-18.4,105.6-18.4z" />
			</g>
			<g>
				<path fill="#019A6D" d="M78.6-40.2c-16.5-3.1-26.2,6.8-31.1,18.7c-7,17.3-8.8,37.8-6.1,55.5c3.2,20.6,6.8,41.6,16.6,60.5
				c4.8,9.4,10.3,18.2,14.4,27.8c1.8,4.3,6.6,7.9,10,11.2c1.7,1.6,3.4,4.7,5.7,5.8c2.6,1.3,3.2-0.7,4.3-2.9
				c2.7-5.3,5.6-10.4,8.2-15.7c3.8-7.7,5-16,7.1-24c4.8-18.1,7-37.9,8.5-56.2c0.8-9.9,0.6-19.6-1.2-29.2
				c-2.1-11.2-3.5-22.4-10.6-31.9c-1.9-2.6-4-4.8-5.8-7.5c-1.4-2.1-3.7-3.3-5.3-5.3C90.3-37.2,83.9-39.2,78.6-40.2z" />
				<path fill="#9FC54D" d="M76-10.9h0.2l0.2,0.1c0.2,0.2,23.8,17.1,31.7,37.9c0.1,0.3-0.1,0.7-0.5,0.8c-0.4,0.1-0.8,0-0.9-0.3
				C99.7,9.2,80.2-6.2,76.1-9.2c1.8,13.1,3.4,26.5,4.8,39.6c2.3,1.3,19.7,11.9,25.4,25.8c0.1,0.3-0.1,0.7-0.5,0.8s-0.8,0-0.9-0.3
				C100,44.4,85.5,34.7,81.1,32c1.2,11.5,2.2,22.6,3.1,32.9c1.6,1,10.5,6.9,16.3,20.6c0.1,0.3-0.1,0.7-0.4,0.8
				c-0.4,0.1-0.8,0-0.9-0.3c-4.8-11.3-12-17.3-14.8-19.3c2.5,30.2,3.7,52.5,3.7,53c0,0.3-0.3,0.6-0.7,0.7c-0.4,0-0.7-0.2-0.7-0.5
				c0-0.5-1.2-22.9-3.7-53.1c-13.5,12-14.3,28.5-14.3,28.7c0,0.3-0.3,0.6-0.7,0.6c-0.4,0-0.7-0.2-0.7-0.6c0-0.2,0.8-17.9,15.6-30.3
				C82,54.8,81,43.6,79.8,32.1C61.8,46,56.4,67.7,56.4,67.9c-0.1,0.3-0.5,0.6-0.8,0.5c-0.4,0-0.6-0.3-0.6-0.7
				c0.1-0.2,5.6-23,24.5-37.2c-1.4-13-3-26.5-4.8-39.5c-4,3.5-15.6,20.6-25.7,37c-0.2,0.3-0.6,0.4-1,0.3s-0.5-0.5-0.3-0.8
				c0.1-0.1,5.9-9.7,12.2-19.2C69-5.2,72.8-9.3,74.5-10.4c-1.4-10.1-3-20-4.7-29.1c-0.1-0.3,0.2-0.6,0.6-0.7l0,0
				c0.4-0.1,0.8,0.1,0.8,0.5C72.9-30.7,74.5-20.9,76-10.9C75.9-10.9,76-10.9,76-10.9z" />
			</g>
			<path fill="#00785F"
				d="M6.6-26.3c0,0-7.7,9.2-11.6,22.7c-3,10.5-1.6,21.4,3.7,31c4.1,7.3,8.1,18.9,1.1,29.8
			c-11.3,17.6-1.7,36.4-1.7,36.4s3.3,6.8,1,13.7c-1.6,4.9-1.9,10.1-0.3,15c0.5,1.5,3.8,7.8,4.6,9.4c0,0,9.5-9.6,8.8-20
			s1.4-15.5,6.5-20.2s9.2-25.7,8.1-37.8s18.1-26.3,21.5-37.1c3.5-10.8,0.5-29.2-22.9-52.9l-5.9-1.1C19.6-37.5,20.5-41.8,6.6-26.3z" />
			<g>
				<g>
					<g>
						<path fill="#019A6D" d="M1.5,95.2c0,0,19.1,30.3,41,16.9C42.6,112.1,30.8,87.2,1.5,95.2z" />
						<path fill="#019A6D" d="M-5.7,152.3c0,0,31.7-28.8,8.9-58.2C3.2,94.1-23.9,112.2-5.7,152.3z" />
					</g>
					<g>
						<path fill="#019A6D" d="M44.8,159.4c0,0,23.6,27,4.5,44.2C49.3,203.5,28.8,185.2,44.8,159.4z" />
						<path fill="#019A6D" d="M101.6,168.8c0,0-36.6,22.2-58.3-8C43.3,160.7,68.4,139.9,101.6,168.8z" />
					</g>
				</g>
				<path fill="#019A6D" d="M67.1,140.6c0,0-14.5-27.8-46.4-15.7C20.7,124.8,32.8,156.5,67.1,140.6z" />
				<path fill="#019A6D" d="M20.9,181.8c0,0,26.2-26,1.4-57.6C22.2,124.2-9.1,148.9,20.9,181.8z" />
				<g>
					<path fill="#019A6D"
						d="M48.4,162.8l-1.9,1.6C46.1,164,10.5,122-22,45.8l2.2-1C12.7,120.7,48.1,162.4,48.4,162.8z" />
				</g>
			</g>
			<path fill="#024F39" d="M1062.7-49.9c0,0-1.9,12.6-35.2,14.2S970.6,3.1,975.6,5.2s6.1,5.8,18.8-7.1s27.3-27.9,42.5-29.8
			s25.7-9.3,25.7-9.3s1,13.9-4.7,17.1s-7.3,3.4-14.3,3.6c-7,0.1-16.8-2.6-30.4,8.6s-25.6,31.8-22,31.4s4.5,4,17.5-10.2
			c13-14.1,20-21.7,35.9-23.5c15.9-1.7,11.5-3.6,11.5-3.6s3.9,8.6-21.3,21.4c-25.2,12.8-30.6,19.5-33.5,24.8S985.2,48.7,989.9,52
			c4.7,3.3,17.4-15,17.4-15s9.9-13,18.6-16.7s27.7-21.7,27.7-21.7s-9.6,32.1-17.2,36.8s-31.1,13.9-35,17.6
			c-3.8,3.7-36.1,37.1-25.6,49.5c0,0,7.1,2,12.1-11c5-12.9,14.7-28,19-30.9s27.3-17.7,28-20.2s-6.2,27.6-19.7,38.2
			c-13.4,10.6-36.6,43.8-31.8,56.7c0,0,4.8,5.4,9.4-3.5c4.6-9,10.1-26.5,14.1-30.9c4-4.3,14.9-21.1,15.5-23c0.5-1.9-1.3,17.4-5.7,23
			s-4.6,26.7-0.2,25.9c0,0,6.4-0.3,8.1-14.1s3.2-46.9,8.3-57.7s9.2-20.6,9.2-20.6s5.5,10.4,3.4,20.7c-2.2,10.3-2.4,13.7,1.7,14.1
			c0,0,5.8-3.2,5.2-13.6c-0.6-10.4-6.7-26.4-6.7-26.4l1.6-5.7c0,0,7.2,14.3,7.3,21.8c0,0,3.7,4.4,3.8-3.7c0.2-8.1-7.6-23.2-7.6-23.2
			l4.7-14.4c0,0,7.9,14.5,7,25.1s-1.5,18,3.1,16.5s4.5-31.5-6.3-48.1l4-19.4c0,0,0.6,20.6,8.4,30.3s2.3,42.2,2.3,42.2
			s-0.6,4.6,4.5,1.3c5.1-3.4,10-25.9-3.2-46.6s-6.5-29.8-6.5-29.8s18.2,20.1,17.7,32.2c-0.6,12.1,0.8,24.8,4,23.6s3.1-1.2,3.4-4.5
			c0.2-3.3,1.1-21.5-4.7-28.6c-5.7-7-16.4-21.6-16.7-25.8c-0.2-4.2,17.4,10.3,22,19.1s8.4,15.3,10.7,11.8c2.4-3.4,4.4-8.3-2-12.8
			S1065.4-39.7,1065-46l0.3-4L1062.7-49.9z" />
			<g>
				<path fill="#019A6D"
					d="M1164.3-37.9c16,2.5,19.8,15.9,18.3,29.7c-2.1,20-10.3,41.6-21.1,58.6c-12.6,19.9-25.9,40-43.5,55.9
				c-8.7,7.9-17.7,15-25.9,23.3c-3.7,3.7-9.5,5.8-14.2,8c-2.3,1.1-5.3,3.6-7.8,4c-2.9,0.5-2.5-1.9-2.4-4.4
				c0.2-6.3,0.1-12.5,0.3-18.8c0.3-9.2,3.2-18,5.2-26.9c4.4-20.1,12-41,19.4-60.1c4-10.3,8.8-20.2,15-29.3
				c7.2-10.7,13.8-21.6,24.6-28.9c2.9-2,5.8-3.5,8.7-5.6c2.2-1.6,4.9-2.1,7.2-3.6C1152.6-38.9,1159.2-38.7,1164.3-37.9z" />
				<path fill="#9FC54D"
					d="M1152.6-7.1l-0.2-0.1l-0.2,0.1c-0.3,0.1-29.1,9.2-46,27.7c-0.3,0.3-0.2,0.7,0,1c0.3,0.3,0.7,0.2,1,0
				c14.9-16.3,39.4-25.3,44.4-27c-7.8,12.7-15.7,25.8-23.2,38.7c-2.6,0.6-23,5.3-34.6,17.5c-0.3,0.3-0.2,0.7,0,1
				c0.3,0.3,0.7,0.2,1,0c10.3-10.8,27.6-15.6,32.7-16.8c-6.5,11.3-12.8,22.3-18.5,32.5c-1.9,0.5-12.5,3.4-24.2,15.3
				c-0.3,0.3-0.3,0.7,0,1s0.7,0.3,1,0c9.7-9.9,18.8-13.5,22.3-14.6c-16.6,29.8-28.4,52.2-28.6,52.7c-0.2,0.3,0,0.7,0.3,0.9
				c0.3,0.2,0.7,0,0.9-0.3c0.2-0.5,12-22.9,28.7-52.8c6.2,16.9-1.1,33.9-1.2,34.1c-0.2,0.3,0,0.7,0.3,0.9c0.3,0.2,0.7,0,0.9-0.3
				c0.1-0.2,7.9-18.5,0.8-36.2c5.7-10.2,12-21.3,18.6-32.6c9.1,20.4,3.4,44.3,3.3,44.5c-0.1,0.4,0.1,0.7,0.5,0.8
				c0.4,0.1,0.7-0.1,0.8-0.5c0.1-0.3,6-25.3-3.8-46.3c7.5-12.9,15.3-26,23.1-38.7c1.9,4.9,3.9,26.3,4.9,46.5c0,0.4,0.3,0.7,0.7,0.6
				c0.4,0,0.7-0.3,0.6-0.7c0-0.1-0.6-11.9-1.6-23.7c-1.5-16.9-2.8-22.3-3.8-24.1c6.1-9.8,12.2-19.3,18.1-28.1
				c0.2-0.3,0.1-0.7-0.2-0.9l0,0c-0.3-0.2-0.7-0.1-0.9,0.2C1164.8-26.3,1158.8-16.9,1152.6-7.1C1152.7-7.1,1152.7-7.1,1152.6-7.1z" />
			</g>
			<g>
				<g>
					<g>
						<path fill="#024F39"
							d="M1164.2,52c0,0,13.2,32.9,36.9,23.8C1201.1,75.7,1194.1,49.5,1164.2,52z" />
						<path fill="#024F39" d="M1147,106.2c0,0,35.9-22.3,19-55C1166,51.3,1136.4,64,1147,106.2z" />
					</g>
					<g>
						<path fill="#024F39"
							d="M1194.8,122.1c0,0,18.1,30.4-3.5,43.7C1191.3,165.9,1174.7,144.4,1194.8,122.1z" />
						<path fill="#024F39"
							d="M1248.4,141.4c0,0-39.5,15-55.2-18.2C1193.1,123.2,1221.2,107.4,1248.4,141.4z" />
					</g>
				</g>
				<path fill="#024F39" d="M1219.8,107.8c0,0-9.1-29.6-42.3-23.6C1177.5,84.2,1183.6,117.2,1219.8,107.8z" />
				<path fill="#024F39" d="M1167.5,139.6c0,0,30.1-20.6,11.6-55.8C1179.1,83.9,1144.3,102.3,1167.5,139.6z" />
				<g>
					<path fill="#024F39"
						d="M1197.7,126.1l-2.1,1.2c-0.3-0.5-27.4-47.6-45.4-127.5l2.4-0.5C1170.5,78.8,1197.4,125.7,1197.7,126.1z" />
				</g>
			</g>
		</g>
	</g>
</svg>