<svg xmlns="http://www.w3.org/2000/svg" xmlns:xlink="http://www.w3.org/1999/xlink" viewBox="0 0 1200 700" xml:space="preserve"><defs><path id="a" d="M0 0h1200v700H0z"/></defs><clipPath id="b"><use xlink:href="#a" overflow="visible"/></clipPath><g clip-path="url(#b)"><path fill="#FFF" d="M390 630.2c-.5-3.7-1.1-7.3-1.8-10.9-1.1-4.7-5.8-7.4-10.5-7.3-3.8.1-5.6 3-5.9 6.5-.3 2.9.2 5.9.4 8.8l.6 9.3c1.1 17.5 2.1 35 3 52.5l1.2 22.5c.1 2.4.3 4.8.4 7.2 0 1.4-.2 2.8-.9 4.1-.5.8-1.4 1.6-1.4 2.6-.1 1.9 2.3 2.7 3.8 3.2 1.7.6 3.2.9 4.4-.5 1.2-1.3 1.9-3.2 2.6-4.8 2.5-6.5 3.8-13.5 4.8-20.4 3.5-24 2.8-48.8-.7-72.8zm48.4 6.8c-.5-3.7-1.1-7.3-1.8-10.9-1.1-4.7-5.8-8.1-10.6-7.6-3.8.4-5.4 3.5-5.6 7-.2 2.9.2 5.9.4 8.8l.6 9.3c1.1 17.5 2.1 35 3 52.5l1.2 22.5c.1 2.4.4 4.8.4 7.2 0 1.6-.4 3.1-1.3 4.4-.5.7-1.1 1.4-1.1 2.3-.1 2 2.4 3.2 4 3.7 4 1.3 5.5-2.8 6.7-6 2.5-6.6 3.8-13.7 4.8-20.6 3.4-24 2.8-48.7-.7-72.6zm92.6-4.5c-.5-3.7-1.1-7.3-1.8-10.9-1.1-4.9-5.8-7.2-10.6-6.5-3.8.6-5.6 3.3-6 7-.3 2.9.2 5.9.4 8.8l.6 9.3c1.1 17.5 2.1 35 3 52.5l1.2 22.5c.1 2.4.3 4.8.4 7.2 0 1.6-.3 3.1-1.2 4.5-.5.7-1.1 1.4-1.2 2.3-.1 1.9 2.2 2.7 3.6 3 4.4.8 6-2.9 7.3-6.3 2.5-6.5 3.8-13.5 4.8-20.4 3.7-24.3 3-49-.5-73zm28-3.2c-.5-3.7-1.1-7.3-1.8-10.9 0-.1-.1-.2-.1-.4-1.1-4.4-4.9-8.7-9.8-8.1-3.8.5-5.3 4.1-5.4 7.6-.2 2.8.3 5.7.5 8.6l.6 9.3c1.1 17.5 2.1 35 3 52.5l1.2 22.5c.1 2.5.4 5 .4 7.5 0 1.6-.7 2.8-1.5 4.1-.5.7-.9 1.4-.9 2.3-.1 2 1.6 3.8 3.4 4.6 3.8 1.6 5.4-3.3 6.4-6.1 2.5-6.6 3.8-13.7 4.8-20.7 3.4-24.1 2.7-48.9-.8-72.8z"/><path fill="#FFF" d="M575.4 549c-.9-20.4-3.1-40.9-7.2-60.9-1-4.9-2.1-9.7-3.4-14.5-.7-2.8-1.3-6-2.5-8.7-1.3-2.8-3.4-5.5-5.5-7.8-3.6-3.9-8.1-7-13.3-8.2-6.8-1.6-14.1.3-20.2 3.4-3.2 1.6-6 4.1-9.1 5.9-3.7 2.1-7.5 4-11.4 5.7-4.8 2.1-9.9 3.6-14.6 5.8-5.6 2.6-12.5 6.3-15.1 12.3-2.2 5 .8 9.5 4.9 12.4 6.8 4.8 15.9 4 23.5 1.6 3.5-1.1 6.8-2.8 10.2-4 2.6-.9 4.5.5 5.2 3.1.6 2.2.7 4.7 1 6.9.3 2.2.6 4.5.7 6.7.3 4.6.3 9.4-1.2 13.7-1.6 4.6-5.2 8.6-10.1 9.7-4 .9-8.3.6-12.4.2-4.6-.5-9.2-1.4-13.7-2.4-9.3-2.1-18.3-5-27.5-7.3-8.4-2.1-17-3.8-25.7-3.5-7.7.3-15.6 2.4-22.1 6.5-2 1.3-3.9 2.8-5.8 4.3-17.5 14.2-31.5 34.6-35 57.1-1.2 7.9-1.1 15.9.2 23.7 2.6 15 7.5 29.8 16.3 42.3 7 10 16.5 18 27.4 23.4 21.6 10.6 46.9 11.1 70.3 8.1 12.2-1.6 24.8-3.8 36.5-7.7 15.3-5.1 29.2-14.3 39.5-26.8 10.4-12.6 17-28.1 18.9-44.3 2-18.7 2-37.9 1.2-56.7z"/><path fill="#1A1B1F" d="M597 535.4c-1.1-1.8-4.2-2.7-6.1-3.4-3.1-1.1-6.3-2-9.4-2.8-.6-.2-1.2-.3-1.8-.4 7.2-1.3 19.6-4.1 16.9-8.2-1.3-1.9-4.4-2.5-6.4-3.1-3.2-.9-6.5-1.5-9.8-2-.7-.1-1.5-.2-2.3-.3 7.4-2.3 21.7-7.3 18.1-11.6-1.6-1.9-5.2-2.3-7.4-2.7-3.5-.6-7.1-.8-10.6-.9-.8 0-1.6-.1-2.4-.1 7.2-3.1 21.8-10 18-13.2-1.8-1.5-5.4-1.2-7.6-1.2-3.6.1-7.1.4-10.7.8l-2.7.3c6.5-4.3 20.5-14.1 16.4-16.8-2-1.3-5.5-.4-7.5 0-3.4.7-6.8 1.6-10.1 2.7-.7.2-1.4.4-2 .7 4.7-4.3 9.4-8.7 13.2-13.6.9-1.2 3.8-4.7 1.3-5.8-2.1-.9-5.3.7-7.2 1.5-3.2 1.4-6.3 3-9.4 4.7-.6.3-1.2.7-1.8 1 3.6-5 7.1-10 9.9-15.5.7-1.4 2.7-5.3-.4-5.2-2.3 0-4.8 2.3-6.5 3.6-2.8 2.2-5.5 4.6-8.1 7-1.6 1.5-3.2 3-4.8 4.6-.2.1-.3.3-.3.4-.1.2-.1.3 0 .4 0 .1.1.1.1.2 4 4.5 6.2 10.5 8 16.2 2.4 7.4 4 15.1 5.3 22.8 2.5 14.5 4 29.1 4.9 43.7.2 3.1.4 6.2.5 9.3 0 .5.3.7.8.8 5.5.6 11.4 1.5 17 .9 1.4-.1 4.8-.8 3.7-2.9-.9-1.7-3.7-2.7-5.3-3.4-2.8-1.3-5.7-2.4-8.7-3.4l-.9-.3c7.2-.2 18.4-1.2 16.1-4.8zm-79.9-72.1c-.7-.2-1.5.5-2 1.7-.2.5-.3 1-.2 1.5s.3.9.7 1h.3c.3 0 .6-.1.9-.4.3-.3.6-.8.8-1.3s.3-1 .2-1.5c-.1-.5-.3-.9-.7-1zm18.7 9.1c-.1-.5-.3-.9-.7-1-.7-.2-1.5.5-2 1.7-.4 1.2-.2 2.3.5 2.5h.3c.6 0 1.3-.7 1.7-1.7.2-.5.3-1 .2-1.5zm-30.9 4.7c-.3-3.1-.9-7-3.4-9.2-2.7-2.4-6.6-1.3-9.5 0-6 2.1-12.4 5.3-16.9 9.9-2.6 2.6-4.6 6.2-3.3 9.9 1.5 4.5 5.7 7.3 10.1 8.6 4.5 1.4 9.5 1.6 14.1 1 2-.3 4.1-.7 6-1.5.9-.3 1.6-.5 1.9-1.4.7-2 .7-4.6.8-6.7.4-3.4.5-7 .2-10.6z"/><path fill="#FFF" d="M483 477.5c-1.4.1-2.5.9-2.9 2.1-.4 1-.4 2.4 1 2.3 1.4 0 2.5-.9 3-2.1.3-1 .3-2.4-1.1-2.3zm7.9 7.2c-1.4 0-2.4 1.1-2.8 2.3-.4 1-.3 2.5 1.1 2.6 1.5.1 2.5-1 3-2.3.3-1.1.2-2.6-1.3-2.6z"/><path fill="#1A1B1F" d="M404.3 526.2c-7.4 3-14.3 7.4-20.8 12-13.7 9.7-25.8 22.1-33.9 37a88.58 88.58 0 0 0-10.3 33.3c-.1 1.2 3.6-.1 3.7-1.4 2-19.2 10.4-36.8 23.3-51.1 8.9-9.8 19.6-18 31.2-24.3 1.7-.9 3.4-1.8 5.1-2.6.2-.1.9-.4.6-.3-.4.2.3-.1.4-.2.2-.1.3-.1.5-.2.5-.2 2.1-1 1.9-1.7-.1-1-1.2-.7-1.7-.5z"/><path fill="#1A1B1F" d="M345.2 610.1c-.1-1.9-.2-4.7-1.8-6.1-1.2-1-3-.6-4.2.1-3.4 2-5.6 6.1-7.5 9.4-2.1 3.5-4.4 7.2-6.1 10.9v.1s0 .1-.1.1c-.4 1.2-2.3 4.7-1.1 6 1 1.1 2.9-.2 3.7-.9 1.4-1.1 2.6-2.5 3.7-4 .2 4.8 1.4 12.9 5 9.9 1.1-.9 1.3-2.7 1.4-4.2.5 1.1 1.1 2.1 1.8 3 1 1.2 2.8 1 3.6-.4 1.3-2.4 1-6.3 1.2-8.9.3-5.1.8-10.1.4-15zm215.5-141.2c-1.3 2.1-3 3.9-4.7 5.7-3 3.3-6.2 6.3-9.6 9.2-7.7 6.4-17.4 12.3-27.8 11.7-1 0 .7 3.5 1.9 3.5 10.5.5 20.3-5.4 28.2-11.8 3.5-2.9 6.8-6.1 9.9-9.4 1.6-1.8 3.4-3.7 4.7-5.8.5-.9-2-4.1-2.6-3.1zm8.9 32.3c-1.3 1.2-3.7 2-5.4 2.8-3.8 1.6-7.7 2.8-11.6 3.8-11 2.7-22.7 3.2-33.6-.4-.7-.2-1.3-.2-1.2.5s1.7 1.5 2.2 1.7c11.2 3.7 23.2 3.5 34.6.8 4.3-1 8.6-2.4 12.7-4.1 1.9-.8 4.2-1.6 5.7-3 .7-.6-2.4-3-3.4-2.1zm4.2 27.2c-12.8 1.7-26.8 1.5-39.3-1.8-4.9-1.3-9.5-3.3-13.5-6.3-1.4-1.1-4.7-.1-2.6 1.6 7.6 5.9 17.4 8.2 26.8 9.4 8.3 1 16.7 1 25 .4 1.7-.1 3.4-.3 5.1-.5 2.5-.5.3-3.1-1.5-2.8zm-65.5 3.8c4.1 5.1 9.5 9.4 14.5 13.5 8.8 7.1 18.6 13.6 29.3 17.6 5.9 2.2 12.1 3.6 18.3 3.5.7 0 2.3-.1 2.7-.8.3-.7-.2-1-.9-1-11.3.2-22-4.8-31.5-10.5-8.4-5.1-16.2-11.3-23.3-18-1.8-1.7-3.7-3.5-5.3-5.5-.7-.9-4.5.2-3.8 1.2zm-10 1.6c2.4 8.3 5.5 16.3 9 24.2 6.5 15 14.7 29.9 26.3 41.6 6.2 6.3 13.7 11.6 22.2 14.2.4.1 2.2.7 2.6.2.3-.6-.8-1-1.2-1.1-15.3-4.7-26.3-18.8-34.3-31.8-7.4-12-13.2-25-17.8-38.2-1-2.8-1.9-5.6-2.7-8.4-.5-1.1-4.4-1.6-4.1-.7zm-10.6-.7c.7 10.4 1.9 20.8 3.4 31.1 2.7 18.9 6.2 38.2 13.1 56.1 3.1 8.1 7.1 16.5 13.4 22.6 1.6 1.6 4.5-1.3 2.8-3-5.4-5.1-8.8-12.2-11.6-19-3.6-8.8-6.1-17.9-8.2-27.1-3.8-16.6-6.3-33.5-8-50.4-.4-3.6-.7-7.2-.9-10.8-.3-2.5-4.2-1.8-4 .5zm-19.6-5.2c-1.4 10.4-2.2 20.8-2.7 31.3-.9 18-1.2 36.9 3.3 54.6 1.8 7.3 4.8 15.1 11.2 19.6.8.6 2 .2 2.4-.7.4-1-.2-2.1-1-2.7-4.8-3.4-7.2-10-8.7-15.6-2.3-8.2-3.1-16.7-3.5-25.1-.9-16.5 0-33.1 1.6-49.5.3-3.6.7-7.2 1.2-10.8.2-2.2-3.4-3.7-3.8-1.1zm-22.1-5.7c-4.4 6-7.8 13-10.7 19.8-6.3 14.9-9.7 31.2-8.5 47.4.8 11.3 4 22.4 9.1 32.5.8 1.7 4.8.8 3.9-1.1-8.6-17-11-36.1-7.6-54.8 2.3-12.7 7-25 13.4-36.2 1.3-2.2 2.6-4.4 4-6.4 1.4-1.8-2.5-2.6-3.6-1.2zm-42.9 3.4c-3.6 5.8-6.1 12.3-8.1 18.7-4.8 14.9-6.6 30.8-4.9 46.4 1.2 11.4 4.3 22.5 8.9 33 .2.5.9 2.1 1.7 2 .7-.1.4-1.2.2-1.7-12.4-28.4-11.7-61.3 1.5-89.3.9-2 1.9-4 3.1-5.8.4-1-1.8-4.3-2.4-3.3zm-38.2 63.7c1.5 11.1 6.2 22.6 13.2 31.4 3.1 4 6.9 7.3 11.2 10 2.2 1.3 3.4-1 1.3-2.3-8.6-5.4-14.3-14.4-17.9-23.8-1.8-4.7-3.3-9.7-4-14.7-.3-1.7-4.1-2.8-3.8-.6zm9.7 72c4.5 4.3 11.5 6.5 17.5 4.9 1.6-.4-1-1.8-1.9-1.5-4.8 1.3-9.8-.5-13.3-3.8-.6-.8-3.5-.8-2.3.4zm2.2 24.9c3.9 3.5 9.4 4.2 13.7 1 1.1-.8-.2-1.3-1-.7-3.5 2.6-8.1 1.1-11.1-1.6-.6-.4-2.3.7-1.6 1.3zm47.1.1c4.7 3.3 11.5 5.2 16.7 1.8 1.6-1 .5-2.9-1.1-1.9-4.1 2.7-9.7.6-13.3-1.9-1.1-.8-3.5 1.1-2.3 2zm93.8-4.8c4.9.4 11.9.2 15.4-3.7 1-1.2-1.9-1.6-2.7-.7-2.6 2.9-8.4 2.8-12 2.5-1.6-.1-2.7 1.7-.7 1.9zm1.3 17.9c4.1 1.3 9.6 1.3 12.7-2.1.6-.7-.7-2.2-1.3-1.6-2.9 3.1-7.8 3.1-11.6 2-1.1-.3-.6 1.5.2 1.7zm26.2-35.1c5 3.6 11.7 4.2 16.4-.1 1.1-1-1.2-3-2.4-2-2.5 2.3-5.6 2.9-8.8 2-1-.3-1.9-.7-2.8-1.2-.3-.2-1.1-.7-.9-.5-1.6-1.1-3.1.7-1.5 1.8zm1.9 26.3c4 1.6 11.6 3.5 14.2-1.3.5-1-1-2.3-1.6-1.3-2.1 3.9-8.7 2.1-12 .8-1.3-.4-1.7 1.4-.6 1.8z"/></g><g clip-path="url(#b)"><path fill="#3D3B3B" d="M515.3 445.9c-.6 4-.6 7.7 1.1 9 1.4 1 3.2 1.1 4.9 1.1 13.1.4 26.1 2.4 38.6 6.1 2.2-5.4 3.7-11.1 4.5-16.8 6 1.7 12.2 2.6 18.5 2.7-.2-2.2-1.6-4.2-3-5.9-7.9-9.9-15.4-20.8-24.1-29.9-1-1-2.1-2.1-3.5-2.3-.8-.1-1.5 0-2.3.2-4.9.9-9.9 1.4-14.7 2.6-5.6 1.4-11.3 2.9-16.9 4.5-4.9 1.4-9.1 4.1-14.2 5.1-.9.2-2.2.7-2 1.6.1.5.5.8.9 1a125 125 0 0 0 15.1 8.6c.1 0-2.1 6.5-2.9 12.4z"/><path fill="#EAC52D" d="m574.2 462.7-.3.8c-6.6-2.2-12.1-7.9-17.1-17.5l-2.5-5c-2.7-5.7-5.6-11.6-10-16.2l.6-.6c4.5 4.7 7.4 10.6 10.1 16.4.8 1.6 1.6 3.3 2.4 5 5 9.4 10.4 15 16.8 17.1z"/><path fill="#EAC52D" d="M573.3 466.7c2.5 1.9 5.2 3.6 7.9 5.3.2.1.4.2.7.2.2-.1.3-.2.4-.4 1.4-2.1 2.6-4.2 3.8-6.4.1-.2.2-.4.1-.6-.1-.2-.2-.3-.4-.4-.7-.4-1.3-.9-2-1.3-2.1-1.4-4.3-2.9-6.9-3.3-5.1-.8-8.3 3.5-3.6 6.9z"/><path fill="#EAC52D" d="M568.7 461.3c-.2 1.6 1.2 3.4 3.2 2.8 3.3-1 1.6-6.1-1.6-4.8-1 .4-1.5 1.2-1.6 2z"/><path fill="#070707" d="M543.5 426.9c1.5 1.8 4.9.5 4.1-2-.4-1.3-2.3-2.3-3.6-1.5-1.1.6-1.4 2.4-.5 3.5z"/></g><g clip-path="url(#b)"><path fill="#EFB201" d="M768 325.1c-2.7 6.6-5.5 13.3-8.2 19.9-.6 1.3 1.9 1.4 2.4.3 2.7-6.6 5.5-13.3 8.2-19.9.6-1.3-1.9-1.4-2.4-.3zm12.5 3.5c-2.6 8-5.2 16.1-7.8 24.1-.2.7 2.2.4 2.5-.4 2.6-8 5.2-16.1 7.8-24.1.2-.7-2.2-.3-2.5.4z"/><path fill="#291607" d="M751.4 345.2s-12.5-13.4-6.2-21.7c6.2-8.3 9.2 5.3 8.8 11.2-.4 5.9.1 9.1.1 9.1l-2.7 1.4z"/><path fill="#EFB201" d="M753.8 344c-.4-.3-.7-.7-.9-1.1l-2.8-10.4c-.2-1.4-.4-2.8-.5-4.3 0-.3-1.3-.1-1.2.3.2 2.4.5 4.8 1 7.2.5 2.8 1.1 6.6 3.4 8.7.1.3 1.2-.1 1-.4zm48.7 2.5c-.5-1.9-2.5-3.7-4.2-4.4-2.1-.8-4.3.1-6.2.9-5.5 2.6-9 7.5-14 10.8v.1c.2 1 .5 2 .7 3 .2.8 1.2 1.5 1.8 2l.2.2c.4.3.8.6 1.1.6 3.8.1 7.7-.4 11.3-1.6 4.8-1.5 10.8-5.6 9.3-11.6z"/><path fill="#291607" d="M771.3 315.8c-3.2-.1-5.9 2.4-6.8 5.3-1 3-.2 7.4 3.7 7.6 3.3.1 5.9-2.4 7-5.3.7-3.1.1-7.5-3.9-7.6zm13.9 3.7c-3.4-.5-6.2 2.4-7.1 5.4-1 3-.3 7.4 3.4 8 3.4.6 6.1-2.3 7.2-5.2v-.3c.8-3 .2-7.3-3.5-7.9z"/><path fill="#EFB201" d="M773 661.5c.9-3.9.1-7.5-1.9-7.9-1.8-.4-11.1 1.5-13.5 10.4-4.3 15.8-19.3 90.4-24.5 107.8-.6 2-1.5 3.8-2.6 5.2-1.1 1.3-2.2 3.3-.5 4.9 2.6 2.7 27.5-50.1 43-120.4zm8.4 25.8c.7-3.3-1.8-5.4-3.2-7-1.7-2-5.6-5.4-6.1 8.5-.4 13.5-21.2 75-25.4 89.5-.5 1.6-1.3 3.2-2.3 4.2-1 1.1-2 2.7-.3 4.1 2.9 2.4 25.7-40.6 37.3-99.3zm217.4-59.5c-2.3-7.6-5.9-15.2-11.6-20.9-.9-.9-1.9-1.8-2.9-2.6 0 0-.1-.1-.2-.1-.2-.1-.4-.1-.6-.1h-.1c-.7.1-1.4.4-1.5.8-.7 4.8-1.4 9.7-1.8 14.6-.2 2-.8 4.9-.2 6.9.3.9.3.8 1.1 1.3 1.5.9 3.1 1.6 4.5 2.7 10.2 8.2 12.4 23.7 12.9 36 .2 3.6.2 7.2-.1 10.7-.1 1 2.4.5 2.5-.3 2.3-16.2 2.8-33.3-2-49z"/><path fill="#291607" d="M1001.5 663.1h-.5c-1.6 0-2.6.5-2.8 2.1-.3 2.5 0 5.1-.1 7.6 0 1.8-.1 3.5-.2 5.3 0 .6-.3 1.6-.1 2.1.3.6 2.3 0 2.5-.5.8-2.9.7-6.2 1.1-9.1.2-1.3 1.7-6.9.1-7.5z"/><path fill="#EFB201" d="M990.4 607.2c-10.3-18.3-28.7-29.4-48.7-34.5-16-4.1-32.4-4.3-48.8-3.9-15.7.4-31.5.6-47.2.2-6.8-.2-13.7-.4-20.5-1.3-2.6-.4-5.2-1-7.3-1.5-3.1-.7-6-2.2-8.9-3.4-6.1-2.6-10.8-6.2-13-12.6-1.6-4.5-1.6-9.6-2.1-14.3-.8-7.6-1.6-15.2-2.4-22.9-3.3-31.8-6.4-63.5-9.4-95.3-1.1-11.4-2.2-22.7-3.2-34.1-.3-3.2-.7-6.4-.9-9.6-.3-6.7 8.8-13 4.8-20.1-1-1.8-3-2.8-4.6-3.9-2-1.3-4-2.6-6.1-3.7-3.2-1.8-6.6-3.3-10.2-3.8-6.7-1-12.4 1.7-16.7 6.7-9.1 10.4-16.7 22.1-26.1 32.1-4.3 4.6-3.7 10.9 2.5 13.6 4.3 1.9 9.7.6 13.8-.9 8.7-3 16.6-8.5 23.8-14.1l1.2-.9c.2-.1.3-.2.3-.2v.1c1 .5 1.6 1.6 2 2.6 1 2.3 1.1 4.8 1.3 7.3.2 3.5.3 6.9.4 10.4.6 16.7.9 33.5 1.1 50.3.3 25.7.1 51.5-.5 77.2-.7 29.8-2.1 59.5-4.6 89.2-2.4 28.9-5.6 57.7-11 86.2-2.3 12.3-5.1 24.6-8.5 36.6 0 .1-.1.1-.1.2.2 3.5 5.5 5.3 8 2.9 1.9-1.8 2.5-5.5 3.2-7.9 3-9.9 5.3-20.1 7.6-30.3.9-4 1.8-8.1 2.7-12.1.2-1 .4-2 .6-2.9.1-.5.2-1 .4-1.4.3-.7.6-1.3 1-1.9.6.3 1.1.6 1.6 1 4.6 3.5 7.8 9.6 11.5 14 4.3 5.2 9.1 10.1 14.5 14.2 5.8 4.4 12.4 7.8 19.6 9.6 6.9 1.7 14 1.5 21.1 1.3 8.4-.3 16.7-1.3 25.1-1.5 10.6-.3 21.3 1.5 31.7 3.4 14.7 2.7 29.3 7.5 44.3 4.7 22.7-4.1 38.4-22 48.6-41.5 4.6-8.8 8.3-18 11.3-27.4 1.8-5.4 3.7-11 4.6-16.6 2.1-13.4-1.3-27.7-7.8-39.3zM744.9 741.8z"/><path fill="#EFB201" d="M927.3 694.3c-2.6-2.1-5.6-1-7.7-.6-2.6.5-7.5 2.3 4.5 9.4 11.7 6.8 55.7 54.5 66.4 65.2 1.2 1.2 2.2 2.6 2.6 4.1.4 1.4 1.4 3.1 3.5 2.2 3.5-1.4-23.3-42-69.3-80.3zm26.1-5.1c-2.6-2.1-5.6-1-7.7-.6-2.6.5-7.5 2.3 4.5 9.4 11.7 6.8 55.7 54.5 66.4 65.2 1.2 1.2 2.2 2.6 2.6 4.1.4 1.4 1.4 3.1 3.5 2.2 3.4-1.5-23.4-42-69.3-80.3z"/><path fill="#291607" d="M749 386.2c-6.6-5-13.2-10.1-19.8-15.1l-.6-.3c-.7-.4-1.6-.5-2.2-.1-3.8 2.9-7.6 6.8-9.6 11.2-2.6 5.9.2 12.3 6.6 14.1 8.8 2.5 18-3.5 25.6-7.2 1.1-.5.9-1.9 0-2.6z"/><path fill="#1A1B1F" d="M750.3 356.7c-.2-.1-.6-.3-1.2.1-.4.2-.7.6-1 1-.7 1.1-.7 2.1-.1 2.5.1.1.3.1.5.1.6 0 1.2-.5 1.8-1.3.3-.4.5-.9.5-1.4 0-.5-.3-.8-.5-1zm13.8 6.9c-.2-.1-.6-.3-1.2.1-.4.2-.7.6-1 1-.7 1.1-.7 2.1-.1 2.5.1.1.3.1.5.1.6 0 1.2-.5 1.8-1.3.3-.4.5-.9.5-1.4 0-.6-.3-.9-.5-1z"/><path fill="#291607" d="M780.6 405c-.8-8.3-1.7-16.7-2.4-25-.2-2.2-.1-4.8-1.2-6.7-.7-1.2-1.9-3.3-2.8-1.7-1 1.7-.8 5-.9 6.9-.3 3.6-.6 7.2-.8 10.9-.2 3.7-.4 7.3-.5 11-.1 2.8-.6 6.1 0 8.9.5 2.5 2.9 6.4 5.9 6.1 4.9-.6 3-7.3 2.7-10.4zm-5.6 59.4c.2-4 1.3-7.9 1.4-11.9.1-3.5-1.9-6.3-5.6-6.6-3.3-.3-5.8 1.7-6 5 0 4.1 0 8.3.1 12.4 0 4.3-.3 8.7.1 13 .6 6.8 11.3 7.4 11.9.3.2-4-2.1-8-1.9-12.2zm18.2 64.9c-.8-8-1.7-15.9-2.5-23.9-.2-2.9 0-7.5-4-7.8-2.8-.2-3.9 3.7-4.7 5.7-1.6 4.2-2.8 8.6-3.4 13-.2 1.6-.3 3.1-.3 4.7.1 2.5-.5 4.8-1.4 7.1-1.5 4.2-4.4 8.9-4 13.5.4 4.4 5.2 6.3 9.1 6.6 6.1.5 10.5-3.9 11.5-9.7.5-3 0-6.2-.3-9.2zm.1 68.7c-3.3-7.7-4.9-17.8-14.2-20.4-8-2.3-16.5 2.6-17.4 11.1l-2.4 31.5c-.4 5.5-.9 11.1-1.3 16.6-.2 3.1-1.1 6-1.3 9.1-.2 4.1 1.3 8.4 5.8 9.3 2.8.6 5.6-.5 8-1.7 5.4-2.6 10.3-6.4 14.7-10.3 6.8-6 13.2-13.6 13.7-23 .5-7.8-2.7-15.1-5.6-22.2zm82.4 34.9c-.3-11.7-7.1-22-18.4-25.5-8.9-2.4-23.4.1-26.4 10.4-1.6 5.5.6 11.3 3 16.2 2.3 4.9 5.2 9.5 8.5 13.7 4.8 6 12.5 14.1 21.1 11.9 3.8-1 6.5-3.8 8.2-7.2 2.9-5.8 4.2-13 4-19.5zM987.5 612c-.1-5.5-1.1-12.6-5.3-16.5-4.7-4.4-9.6-8.7-14.8-12.4-4.7-3.4-11-8.1-17.3-7.5-.7.1-1.8.3-2.5.8-7.2 3-16.3 9.9-11.2 18.3 3 4.9 8.4 8.6 13.2 11.6 3.8 2.3 5.3 6.5 6.9 10.5 2.5 5.9 4.9 13.8 11.8 15.8 4.5 1.3 9.7-.7 13-3.8 4.7-4.3 6.3-10.8 6.2-16.8zm-187.3 95.2c-1-2.3-3.8-3.5-5.7-5-2-1.5-4.1-3.3-5-5.7-1.2-3-.3-6.5-.9-9.6-.9-5.2-4.4-10.2-8.3-13.5-2.2-1.9-5.7-3.2-8.7-2.2-2.5.9-3.4 4-4.1 6.3-.7 2.7-1.2 5.6-1.7 8.4-.5 2.9 1.6 6.1 3.2 8.4 2.4 3.3 5.2 6.2 8.4 8.8 2.6 2 5.2 4 7.7 6.1 2.4 1.9 4.6 4.1 7.8 4.6 3.7.4 9.2-2 7.3-6.6zm52.7-26.5c-.6-5.8-10.3-7.6-14.9-8.2h-.2c-2.9-.3-6.7.2-8.9 2.3-1.9 1.7-2.1 4.3-1.7 6.7.9 4.7 3.8 9.7 6.9 13.4 1.6 1.9 3.8 3.9 6.5 3.6 2-.2 3.6-1.4 4.2-3.4.5-1.6.1-3.2.6-4.8.6-1.9 2-3 3.6-4.1 2.1-1.4 4.1-2.7 3.9-5.5zm8.7-110.3c-1.6-1.7-3.9-1.5-6-1.6-3.2-.1-6.4-.2-9.6-.4-6.2-.2-12.3-.5-18.5-.7-.2 0-.4-.1-.7 0-.4 0-.7.1-1 .2-5.9 1.8-1.4 10.1 2.2 12.3 3.9 2.4 8.7 2.9 13.2 2.9 5.2.1 11.1-.2 16-2.2 4-1.6 8.2-6.4 4.4-10.5zm47.6-1.8c-3.7-1.2-8-.7-11.8-.8h-.2c-4.9.3-8.6 4.6-11.3 8.4-3.5 4.8-5.3 10.6-4.5 16.5.8 5.8 3.9 12 8.1 16 1.6 1.5 4.9 3.6 7.1 2.7 2.2-.8 2.8-4.4 3.3-6.4.9-3.6 1.6-7.3 2.7-10.8 1-3.1 2.3-6.8 5.1-8.7 1.5-1 3.4-1 5-1.9 1.9-1.1 3.2-3 3.6-5.2 1-5-2.7-8.4-7.1-9.8zm22.7 74.8-.3-.3c-.1-.1-.2-.2-.4-.2-4.2-2.2-9.4-4.5-14.2-4.3-10.2.5-4.1 12.4-5 18.3-.5 3.3-2.6 6.1-3.1 9.3-.6 3.8 2.6 7 5.3 9.2 6.4 5.2 14.6 1.3 19-4.5 6.5-8.4 6.5-19.9-1.3-27.5zm64.2 8.8c-1-2.6-3.3-5.5-6.1-6-6.8-1.1-9.7 8.8-10.9 13.7-1.7 7.2-1.7 14.7-2.8 22v.4c0 2.9 1.9 4.5 5 4.4 2.8-.1 3.9-3.1 5.2-5.3 4-6.5 7.2-13.7 9.1-21 .7-2.6 1.5-5.6.5-8.2zm-35 62.9c-.3-2-1.2-4-1.9-5.9-1-2.8-2.1-5.6-3.4-8.3-2.2-4.8-4.7-10.2-8.8-13.8-4.6-4.1-11.3-1.1-14.5 3.5-1.6 2.3-.1 5.7.7 8.1 1.4 4 3.1 8 3.6 12.3.3 2.6.1 5.2-1 7.6-1.1 2.4-2.6 4.5-2.7 7.2-.1 4.3 3.9 5.3 7.4 4.4.2 0 .4-.1.5-.2 4.8-1.7 9.4-3.9 13.6-6.9 2.8-1.7 7-4.2 6.5-8z"/></g><g clip-path="url(#b)"><path fill="#FFBD31" d="M337 622.8c-2.6-18.1-10.3-34.3-18.6-50.5-8.4-16.5-16.6-33.1-24.5-49.8-3.1-6.4-5.9-13.2-9.7-19.2-2.8-4.4-6.5-7.9-10.2-11.5-3.9-3.7-7.7-7.6-11.7-11.1-8.4-7.5-18-13.8-28.3-18.3-9.8-4.3-20.5-7.1-31.2-6.7-9.4.4-17.7 3.9-26.2 7.6-12.3 5.4-23.5 12.3-26.7 26.2-2.1 9.2-1 19 .5 28.1.2 1.1 1.1 1.7 2.1 1.8 4.4.5 8.8 1.4 13.1 2.4 7.4 1.8 15.6 4.1 21.7 9.1 2.5 2.1 4.6 4.8 4.7 8.1.1 1.8-.5 3.5-1.1 5.1-1.5 3.7-3.1 7.3-4.5 11-4.4 11.7-7.2 24.1-.9 35.8 2.6 4.8 7.9 8.8 8.4 14.4.4 4-1.5 7.9-3.8 11.1-4.6 6.6-11.4 11.8-18.2 16.1-7.6 4.8-13.3 12.1-17.7 20-5.1 9.2-7.9 19.6-7.4 30.2.6 14.8 7.3 28.3 16.1 39.9-2.6.7-5.8.4-8.5-.9-4.3-2-7.5-5.9-10-9.8-4.9-7.7-7.8-16.7-10-25.5-2.5-9.8-4.4-19.8-4.8-29.9-.3-6.5-.1-13.4 2-19.6 1-3 2.7-7 5.9-8.2 1-.4 2-.4 3.1 0 2.7.9 4.7 3.1 7.5 3.9 7.1 2.1 13.1-4.6 11.5-11.7-1.1-5.1-7.5-7.6-12.1-8.3-8.3-3.1-19.1-2.1-25.1 5-6.3 7.4-6.7 18.8-7.3 28.2-1.3 20.9.5 43.3 9.8 62.3 5.1 10.4 12.6 19.5 22.5 25.7 11.8 7.5 26 10.1 39.8 9.9 15.5-.2 31.5-3.6 46.5-7.8 19.3-5.4 38.2-12.8 55.3-23.4 19.6-12.1 37.2-28.9 44.9-51.1 4.1-12.4 5-25.7 3.1-38.6z"/><path fill="#040100" d="M169.5 475.5c-1.4-6.9-5.3-15.5-12.7-17.5-6.3-1.7-12.9 2.2-17.1 6.7-4.4 4.8-4.8 10.9-1.4 16.4 2.3 3.8 5.8 7 9.5 9.4.5.4 1.3.4 1.9.2.3 0 .6-.1.8-.3 6.2-4.7 12.4-9.4 18.7-14.1.2-.1.3-.4.3-.8z"/><path fill="#FFF" d="M165.4 476.6c-1.3-6.4-5.7-12.7-13-9.8-4.5 1.8-9.3 6.3-7.6 11.5 1 3.2 3.8 6 6.6 7.8.2.2.7.1 1.2-.1.3-.1.6-.2.8-.3 3.9-2.9 7.8-5.9 11.7-8.8.1 0 .3-.1.3-.3z"/><path fill="#C99732" d="M204.3 596.3c-1.3-9.3-3-18.6-3.9-28-.4-4.6-.7-9.2-.6-13.8.1-5.1.9-10.2 1.2-15.4.8-13.4.4-27.5-3.4-40.4-.2-.5-.3-1.1-.5-1.6 0 0 0-.1-.1-.2-.2-.3-.7-.5-1.3-.7-1-.4-2.3-.7-2.4-.4-3.1 8.6-6.3 17.2-9.4 25.9-.6 1.8-1.5 3.5-1.9 5.4-.6 2.1.8 3.7 1.2 5.9 1 6.9-1.9 12.9-3.9 19.2-4.2 13.4-6.1 28.7-.2 41.9 2 4.5 5.5 8.8 5.4 13.9-.1 7.3-5.2 14-9.8 19.3-5.3 6.1-10.9 11.8-15.9 18.1-.5.7-3.2 3.2-3 4.3.2 1 3.2 1.7 3.9 2 13.6 4.9 27.3-.3 37.3-10.2 11.8-11.4 9.4-30.2 7.3-45.2z"/><path fill="#FFC03A" d="M214.6 503.3c-2.3-13.5-11.5-31.3-27.3-31.4-9.7-2.1-21.5-2-30.2 3.1-8 4.7-10.5 13.1-11.1 21.9-.5 8.6 0 17.6 3.8 25.5 8.3 16.9 30.6 19.6 47 15.3 15.6-4.1 20.2-20.1 17.8-34.4z"/><path fill="#FFF" d="M177.6 514.6s-.6 13.5-6.1 8.6 3-14.7 6.1-8.6zm0 0s.6 13.5 6.1 8.6c5.6-4.9-3-14.7-6.1-8.6zm-25.7-14.2s9.1-11.1 19.6 1.3c0 0-11.2 8.5-19.6-1.3z"/><path fill="#040100" d="M167.2 500.9c-.2-.9-.5-1.7-.9-2.4-.6-.9-1.1-1-1.5-1-.4.1-.8.4-1 1.4-.1.7-.1 1.6.1 2.5.3 1.7 1.2 3.3 2.1 3.3h.2c1.1 0 1.3-2 1-3.8z"/><path fill="#FFF" d="M187.1 500.4s7.8-10.5 18.3 2c0 0-9.8 7.8-18.3-2z"/><path fill="#040100" d="M202.4 500.9c-.2-.9-.5-1.7-.9-2.4-.6-.9-1.1-1-1.5-1-.4.1-.8.4-1 1.4-.1.7-.1 1.6.1 2.5.3 1.7 1.2 3.3 2.1 3.3h.2c1.2 0 1.4-2 1-3.8z"/><path fill="#FFF" d="M171.5 471.6s1.8 42.9 3.7 45.4h5.5l6.1-44.4c-.1 0-12.9-2.8-15.3-1z"/><path fill="#1A1B1F" d="M181.7 508.3h-8.2v.1c.1 1.3.2 2.5.3 3.7.1 1.3.1 3.5.7 4.6.4.7 1.1.5 1.9.5h4.4c.1 0 .2 0 .2-.1.4-2.9.8-5.7 1.2-8.6.1-.2-.3-.2-.5-.2zm.8 7.7c0-.3-.2-.5-.5-.5s-.5.2-.5.5.2.5.5.5c.3-.1.5-.3.5-.5zm-2.3 2c-.3 0-.5.2-.5.5s.2.5.5.5.5-.2.5-.5-.2-.5-.5-.5zm2-.2c0 .3.2.5.5.5s.5-.2.5-.5-.2-.5-.5-.5c-.3.1-.5.3-.5.5zm.5 1.4c-.3 0-.5.2-.5.5s.2.5.5.5.5-.2.5-.5c-.1-.3-.3-.5-.5-.5zm-8-1.2c-.3 0-.5.2-.5.5s.2.5.5.5.5-.2.5-.5-.2-.5-.5-.5zm-1.2-2.5c-.3 0-.5.2-.5.5s.2.5.5.5.5-.2.5-.5c-.1-.3-.3-.5-.5-.5zm-1.9 1.9c-.3 0-.5.2-.5.5s.2.5.5.5.5-.2.5-.5-.2-.5-.5-.5zm1.3 1.8c-.3 0-.5.2-.5.5s.2.5.5.5.5-.2.5-.5c-.1-.3-.3-.5-.5-.5zm-15.8-7.3h-24.8c-.2 0-.4-.2-.4-.4s.2-.4.4-.4h24.8c.2 0 .4.2.4.4s-.2.4-.4.4zm-22.2 11.8c-.2 0-.3-.1-.4-.3-.1-.2 0-.4.2-.5l21.6-7.2c.2-.1.4 0 .5.2s0 .4-.2.5l-21.6 7.2c0 .1-.1.1-.1.1zm10.4 7.1c-.1 0-.2 0-.3-.1-.1-.2-.1-.4 0-.6l11.8-10.5c.2-.1.4-.1.6 0 .1.2.1.4 0 .6l-11.8 10.5c-.1.1-.2.1-.3.1zm83.3-21.2h-24.8c-.2 0-.4-.2-.4-.4s.2-.4.4-.4h24.8c.2 0 .4.2.4.4s-.2.4-.4.4zm-2.6 11.8h-.1l-21.6-7.2c-.2-.1-.3-.3-.2-.5s.3-.3.5-.2l21.6 7.2c.2.1.3.3.2.5-.1.1-.2.2-.4.2zm-10.5 7.2c-.1 0-.2 0-.3-.1L203.5 518c-.2-.1-.2-.4 0-.6.1-.2.4-.2.6 0l11.8 10.5c.2.1.2.4 0 .6-.1 0-.3.1-.4.1z"/><path fill="#1A1B1F" d="m177.27 524.212.026-8.7.8.002-.025 8.7z"/><path fill="#1A1B1F" d="M171.9 529c.6-1.2 1.6-2.4 2.7-3.2 3.6-2.8 7.1.2 9.5 3.1.3.4 1.8.3 1.5 0-2.6-3.1-6.4-6.2-10.7-4.5-2 .8-3.6 2.5-4.6 4.4-.1.3 1.4.6 1.6.2zm2.2-5.3c-5.1-3.1-6.1-8.8-3.8-14.1 1.6-3.5 4-6 1.2-9.7-6-7.7-14.7-5.2-21 .8-.6.5 1.6.3 2.1-.1 4.2-4.1 9.3-6.5 14.3-2.4 2.5 2 4.8 4.8 3.2 8.1-1.3 2.8-2.9 5-3.2 8.2-.4 4.3 1.4 7.7 5.1 9.9.5.5 2.5-.4 2.1-.7z"/><path fill="#1A1B1F" d="M180.8 524.6c8.5-1.1 6.5-10.8 5.1-16.7-.9-3.9.4-6.9 3.8-9.3 4.6-3.2 10.8-.9 14.2 3.8.3.5 2.5-.3 2.1-.8-3.3-4.4-8-6.4-13.4-5.2-3.7.8-7.9 3.5-9.1 7.2-.8 2.3 0 4.5.5 6.8.8 3.5 2.5 12.6-2.9 13.2-.8.2-1.9 1.3-.3 1z"/><path fill="#C99732" d="M161 623v-.5c-.5-4.7-4.2-8.4-9.1-8.3-4.9.1-9.1 4.3-9.1 9.2 0 4.8 4.1 8.8 8.9 8.8 5.1 0 8.8-3.9 9.3-8.8-.1-.1 0-.3 0-.4z"/><circle cx="292.4" cy="564" r="3.9"/><path d="M251.1 541.6c0 1.8-1.3 3.3-2.9 3.3-1.6 0-2.9-1.5-2.9-3.3s1.3-3.3 2.9-3.3 2.9 1.5 2.9 3.3zm17.7-1.7c0 .9-.7 1.6-1.6 1.6s-1.6-.7-1.6-1.6c0-.9.7-1.6 1.6-1.6.8 0 1.6.7 1.6 1.6zm13.3 46.1c0 2.1-1.7 3.9-3.9 3.9-2.1 0-3.9-1.7-3.9-3.9 0-2.1 1.7-3.9 3.9-3.9s3.9 1.7 3.9 3.9zm9.5-51.6c0 2.2-1.8 3.9-3.9 3.9-2.2 0-3.9-1.8-3.9-3.9 0-2.2 1.8-3.9 3.9-3.9 2.2 0 3.9 1.7 3.9 3.9zm15.8 53.2c2 .8 3 3.1 2.2 5.1s-3.1 3-5.1 2.2-3-3.1-2.2-5.1c.8-2.1 3.1-3 5.1-2.2zm-159.5 31c0 1.4-1.2 2.6-2.6 2.6-1.4 0-2.6-1.2-2.6-2.6 0-1.4 1.2-2.6 2.6-2.6 1.5 0 2.6 1.2 2.6 2.6zm-22.2 9.2c0 .7-.6 1.3-1.3 1.3-.7 0-1.3-.6-1.3-1.3s.6-1.3 1.3-1.3 1.3.6 1.3 1.3zm-1.3 19.2c0 .9-.7 1.6-1.6 1.6s-1.6-.7-1.6-1.6c0-.9.7-1.6 1.6-1.6.9 0 1.6.7 1.6 1.6zm135.8 32c0 .9-.7 1.6-1.6 1.6s-1.6-.7-1.6-1.6c0-.9.7-1.6 1.6-1.6.9-.1 1.6.7 1.6 1.6zm-126.1 11.9c0 1.1-.9 2-2 2s-2-.9-2-2 .9-2 2-2c1.2 0 2 .9 2 2zM267.5 610c0 1.1-.9 2-2 2s-2-.9-2-2 .9-2 2-2 2 .9 2 2zm-105.7 85.2c0 1.3-1 2.3-2.3 2.3s-2.3-1-2.3-2.3 1-2.3 2.3-2.3c1.3.1 2.3 1.1 2.3 2.3zm15.9-21c1.5 1.3 1.6 3.6.2 5.1-1.3 1.5-3.6 1.6-5.1.2-1.5-1.3-1.6-3.6-.2-5.1 1.4-1.4 3.6-1.5 5.1-.2zm6.8 26.4c0 2-1.6 3.6-3.6 3.6s-3.6-1.6-3.6-3.6 1.6-3.6 3.6-3.6 3.6 1.6 3.6 3.6zm108.1-19.9c0 1.1-.9 2-2 2s-2-.9-2-2 .9-2 2-2 2 .9 2 2zm38.1-42.2c1.1-.2 2.1.5 2.3 1.5.2 1.1-.5 2.1-1.5 2.3s-2.1-.5-2.3-1.5c-.2-1.1.4-2.1 1.5-2.3zM216 619.3c1.1-.2 2.1.5 2.3 1.5.2 1.1-.5 2.1-1.5 2.3-1.1.2-2.1-.5-2.3-1.5-.3-1 .4-2.1 1.5-2.3zm-.7 68.6c0 1.6-1.3 2.9-2.9 2.9-1.6 0-2.9-1.3-2.9-2.9s1.3-2.9 2.9-2.9 2.9 1.3 2.9 2.9zm14.9-22.2c0 1.1-.9 2-2 2s-2-.9-2-2 .9-2 2-2c1.2 0 2 .9 2 2z"/><circle cx="218.5" cy="645.4" r="3.3"/><path d="M200.8 646.1c0 1.4-1.2 2.6-2.6 2.6-1.4 0-2.6-1.2-2.6-2.6 0-1.4 1.2-2.6 2.6-2.6 1.5-.1 2.6 1.1 2.6 2.6z"/><circle cx="198.7" cy="666.3" r="2.6"/><path d="M241.3 614.8c0 1.8-1.5 3.3-3.3 3.3s-3.3-1.5-3.3-3.3 1.5-3.3 3.3-3.3c1.8.1 3.3 1.5 3.3 3.3zm13-23.8c0 1.8-1.5 3.3-3.3 3.3s-3.3-1.5-3.3-3.3 1.5-3.3 3.3-3.3c1.8.1 3.3 1.5 3.3 3.3zm-30.6-93.1c0 1.3-1 2.3-2.3 2.3s-2.3-1-2.3-2.3 1-2.3 2.3-2.3 2.3 1.1 2.3 2.3zM189.1 487c0 .5-.4 1-1 1-.5 0-1-.4-1-1 0-.5.4-1 1-1 .5 0 1 .5 1 1zm27.3 54.4c0 1.4-1.2 2.6-2.6 2.6-1.4 0-2.6-1.2-2.6-2.6 0-1.4 1.2-2.6 2.6-2.6 1.4 0 2.6 1.2 2.6 2.6zm-48.2-52.7c0 .7-.6 1.3-1.3 1.3s-1.3-.6-1.3-1.3c0-.7.6-1.3 1.3-1.3.7-.1 1.3.5 1.3 1.3zm130.7 61c0 .7-.6 1.3-1.3 1.3s-1.3-.6-1.3-1.3.6-1.3 1.3-1.3 1.3.6 1.3 1.3zm-147-59.7c0 .7-.6 1.3-1.3 1.3s-1.3-.6-1.3-1.3c0-.7.6-1.3 1.3-1.3.7 0 1.3.5 1.3 1.3zm27.5-20.7c-1.1 0-2.1-.9-2.1-2.1 0-1.1.9-2.1 2.1-2.1 1.1 0 2.1.9 2.1 2.1s-.9 2.1-2.1 2.1zm-13.9 6.3c0 .7-.6 1.3-1.3 1.3s-1.3-.6-1.3-1.3c0-.7.6-1.3 1.3-1.3.8 0 1.3.6 1.3 1.3zm60.8-7.5c0 .9-.7 1.6-1.6 1.6-.9 0-1.6-.7-1.6-1.6s.7-1.6 1.6-1.6c.9-.1 1.6.7 1.6 1.6zm45.7 50.2c1.4 1.2 1.5 3.3.3 4.6-1.2 1.4-3.3 1.5-4.6.3-1.4-1.2-1.5-3.3-.3-4.6 1.1-1.4 3.2-1.5 4.6-.3zm-11.4 42.9c1.4 1.2 1.5 3.3.3 4.6-1.2 1.4-3.3 1.5-4.6.3-1.4-1.2-1.5-3.3-.3-4.6 1.1-1.4 3.2-1.5 4.6-.3zm53.2 93.5c1.4 1.2 1.5 3.3.3 4.6-1.2 1.4-3.3 1.5-4.6.3-1.4-1.2-1.5-3.3-.3-4.6s3.2-1.5 4.6-.3zM281 663c1.4 1.2 1.5 3.3.3 4.6-1.2 1.4-3.3 1.5-4.6.3-1.4-1.2-1.5-3.3-.3-4.6 1.2-1.4 3.2-1.5 4.6-.3zm18.6 31.3c1.4 1.2 1.5 3.3.3 4.6-1.2 1.4-3.3 1.5-4.6.3-1.4-1.2-1.5-3.3-.3-4.6 1.2-1.4 3.2-1.5 4.6-.3zM289.3 609c1.4 1.2 1.5 3.3.3 4.6-1.2 1.4-3.3 1.5-4.6.3-1.4-1.2-1.5-3.3-.3-4.6s3.3-1.4 4.6-.3zm-37.9 22.2c1.4 1.2 1.5 3.3.3 4.6-1.2 1.4-3.3 1.5-4.6.3-1.4-1.2-1.5-3.3-.3-4.6 1.2-1.4 3.3-1.5 4.6-.3zm67.1 43.4c1.4 1.2 1.5 3.3.3 4.6-1.2 1.4-3.3 1.5-4.6.3-1.4-1.2-1.5-3.3-.3-4.6 1.2-1.4 3.3-1.5 4.6-.3zm-23.2-29.8c1.4 1.2 1.5 3.3.3 4.6-1.2 1.4-3.3 1.5-4.6.3-1.4-1.2-1.5-3.3-.3-4.6s3.2-1.5 4.6-.3zm-74.5-59.5c1.4 1.2 1.5 3.3.3 4.6-1.2 1.4-3.3 1.5-4.6.3-1.4-1.2-1.5-3.3-.3-4.6 1.2-1.4 3.2-1.5 4.6-.3zm27.1-103.8c0 1.8-1.5 3.3-3.3 3.3s-3.3-1.5-3.3-3.3 1.5-3.3 3.3-3.3 3.3 1.5 3.3 3.3zm1.7 29.5c0 1.1-.9 2-2 2s-2-.9-2-2 .9-2 2-2 2 .9 2 2zm-13.4 7.9c0 1.6-1.3 2.9-2.9 2.9-1.6 0-2.9-1.3-2.9-2.9 0-1.6 1.3-2.9 2.9-2.9s2.9 1.3 2.9 2.9z"/><circle cx="253.4" cy="493.6" r="2.3"/><path d="M275.9 498c0 1.4-1.1 2.5-2.5 2.5s-2.5-1.1-2.5-2.5 1.1-2.5 2.5-2.5 2.5 1.1 2.5 2.5zM159 659.8c0 1.4-1.2 2.6-2.6 2.6-1.4 0-2.6-1.2-2.6-2.6 0-1.4 1.2-2.6 2.6-2.6 1.5 0 2.6 1.1 2.6 2.6zm159.4-78.7c0 .9-.7 1.6-1.6 1.6s-1.6-.7-1.6-1.6c0-.9.7-1.6 1.6-1.6.9-.1 1.6.7 1.6 1.6zm10.5 31.3c0 1.3-1 2.3-2.3 2.3s-2.3-1-2.3-2.3 1-2.3 2.3-2.3c1.2 0 2.3 1.1 2.3 2.3zm-177 17.3c0 1.1-.9 2-2 2s-2-.9-2-2 .9-2 2-2c1.1.1 2 .9 2 2z"/><circle cx="197.6" cy="482.8" r="2"/><path d="M311.6 621c0 2.8-2.2 5-5 5s-5-2.2-5-5 2.2-5 5-5 5 2.3 5 5zm-55.4 36.5c0 1.7-1.4 3.2-3.2 3.2s-3.2-1.4-3.2-3.2c0-1.7 1.4-3.2 3.2-3.2s3.2 1.4 3.2 3.2zm22.7-22.5c0 2-1.6 3.6-3.6 3.6s-3.6-1.6-3.6-3.6 1.6-3.6 3.6-3.6 3.6 1.6 3.6 3.6zm-38.1 59.1c0 2.5-2 4.5-4.5 4.5s-4.5-2-4.5-4.5 2-4.5 4.5-4.5c2.4 0 4.5 2 4.5 4.5zm-18.6-126.4c-2.3-1-3.4-3.8-2.4-6.1s3.8-3.4 6.1-2.4 3.4 3.8 2.4 6.1-3.7 3.4-6.1 2.4zm-104 105.4c-1.5-.7-2.2-2.4-1.5-3.9s2.4-2.2 3.9-1.5 2.2 2.4 1.5 3.9c-.6 1.5-2.4 2.2-3.9 1.5zm154.6 32c-2.2-1-3.2-3.5-2.2-5.7s3.5-3.2 5.7-2.2 3.2 3.5 2.2 5.7c-.9 2.1-3.5 3.1-5.7 2.2z"/></g><g clip-path="url(#b)"><path fill="#4A5D66" d="M1101.2 418.3c-.5-.4-1.6-.1-2.5.2-.5.1-1 .3-1.3.5-15.8 7-30.9 16.7-44.4 27.3-11.7 9.2-22.5 19.7-30.9 32-7.9 11.6-14.7 26.2-14.8 40.5 0 3.6 1.2 7.4 3.3 10.2 4.2 5.6 11.4 5.9 17.7 4.8-1.4 6.8-1.7 16.8 4.6 21.1 6.1 4.2 15.1 1.2 21.2-1.4 6.5-2.7 11.7-6.6 16-12.3 9.7-12.7 14.7-29 18.7-44.2 4.4-16.6 7.4-33.6 9.7-50.6 1.3-9.3 2.4-18.7 3-28 .1.1-.1 0-.3-.1z"/><path fill="#8FA1AB" d="M1347.7 534.8c-4.7-29.2-22.8-57.1-48.3-72.3-22.7-13.6-49.2-14.8-74.9-15.6-12-.3-24.3-.6-36.1-3.4-3.3-.8-7.6-1.6-10.1-3.3-1.9-1.3-3.6-2.8-5.5-4.1-17.2-12.2-38.1-21.6-59.5-21.8-13.1-.1-25.7 4.2-35.7 12.7-11.7 9.9-19.7 24.2-25.1 38.4-10.7 27.8-10.3 58.4-1.7 86.6 10.3 33.7 31 63.4 55.5 88.3 7 7.2 14.5 14 22.1 20.5.2 14.7.5 29.5.7 44.2 0 2.1.1 4.3.1 6.4 0 .9 3.3 1.2 3.9 1.1 3.4-.1 6.9-.2 10.3-.4.1 0 .7 0 .7-.2 1.3-11.3 2.6-22.5 3.9-33.8 1 8.6 2 17.2 3 25.7.3 2.2.5 4.5.8 6.7.1.9 3.2 1.2 3.9 1.1 4.1-.1 8.1-.3 12.2-.4 0 0 .7 0 .7-.2 0-9.1 0-18.2-.1-27.3 19.6 6.1 41.1 5.3 61.2 2.6 19-2.5 37.8-7 56-12.8 2.1-.6 4.1-1.3 6.2-2-1.4 10.1-2.7 20.2-4.1 30.4-.1.8 3.3 1.2 3.9 1.1 2.2-.1 4.3-.2 6.5-.2.9 0 2.9.3 3.7-.3.7-.5 1.2-2 1.6-2.6 3.2-5.6 6.3-11.2 9.2-16.9 10.8-21.2 20-43.2 26.7-66 7.9-26.3 12.8-54.7 8.3-82.2z"/><path fill="#4A5D66" d="M1224.9 511.9c-4.9-6.8-10.5-13.4-16.6-19.4 5.9 2.7 12.2 4.9 18.4 5.3 4.5.2 8.9-1.4 9-6.5.1-6-2.9-12.5-6-17.6-7.5-12.4-19.4-21.7-31.4-29.3-12-7.5-24.8-13.6-38-18.8-7-2.8-14.2-5.4-21.5-7.5-.9-.4-1.8-.4-2 .4-5.4 16.9-9.4 34.4-12.8 51.8-3.1 15.8-5.5 31.8-6.6 47.8-1.1 15.6-1.2 31.5 1.5 46.9 2.3 13.2 6.8 26.5 15.9 36.6 8.7 9.6 22 15.6 35 15.6 26 0 23.8-33 21.1-50.8-1.6-10.7-4.1-21.3-7-31.7 5.5 10 12.3 20 21.8 26 4.8 3 10.4 4.9 16 3.3 6.3-1.7 11.7-6.9 14.2-12.8 5.7-13.3-3.3-28.7-11-39.3z"/><path fill="#8FA1AB" d="M1051.9 474.9s-19.8 104.2 7.3 205.8l10.3-.4s-8.2-98.5 15.2-128.5l-32.8-76.9z"/><path fill="#FFF" d="M1065.7 467.4c.1 3.4-1.7 6.2-4 6.3-2.3.1-4.3-2.6-4.4-6s1.7-6.2 4-6.3c2.3-.1 4.3 2.6 4.4 6zm35.9 3.4c.2 4.4-3.3 8.1-7.7 8.3-4.4.2-8.1-3.3-8.3-7.7-.2-4.4 3.3-8.1 7.7-8.3s8.1 3.3 8.3 7.7z"/><path fill="#1D0104" d="M1094.3 474c-.2-1.1-.8-1.4-1.2-1.5-.3-.1-1-.1-1.7.8-.4.5-.7 1.2-.9 2-.4 1.9 0 3.5 1.1 3.7h.3c1 0 1.9-1.2 2.3-2.9.2-.7.3-1.5.1-2.1zm-32.4-6.1c-1.1-.2-2.2 1-2.6 2.9-.2.8-.2 1.6-.1 2.2.2 1.1.8 1.4 1.2 1.5h.3c.4 0 .9-.2 1.4-.9.4-.5.7-1.2.9-2 .5-1.9 0-3.4-1.1-3.7zm62.4-65.9-5.1 5.4c0-2.5.1-5.1.1-7.6 0-.4-1.1-.7-1.3-.4-1.3 2-2.7 4.1-4 6.1-.5-.9-1.1-1.9-1.6-2.8-.1-.2-1.4-.7-1.4-.3v4.6c0 2.8-.7 5.9 1.9 7.8 1.2.9 2.8 1.2 4.2.5 1.7-.8 3-2.5 4-4.1 1.2-1.7 2.1-3.6 3-5.5.5-1.1 1-2.3 1.5-3.4.2-.3-1.1-.6-1.3-.3z"/><path fill="#FFF" d="M1047 509.4c5.7 1.8 20.2 11.4 30.3 5.5l-30.3-5.5zm19.5 20-19.9-4.9s7.8 8.2 19.9 4.9zm-5.3 10.6-16-1.3s7.7 5.3 16 1.3zm-2.4 11.4-13.2.5c0-.1 4.9 3.5 13.2-.5zm.5 14.1-15 .5c1.8-.1 8.5 3.4 15-.5zm-6.1 14.3-8.5-.6c0-.1 2 3.6 8.5.6zm-.5 11.3-7.5.3c-.1 0 1.9 2.7 7.5-.3zm.3 10.3-7.5.3c2.8-.1 3.8 1.7 7.5-.3zm2.2 8.4-9.4.3c0 .1 7.6 2.6 9.4-.3zm.4 12.2-7.5.3s2.9 2.7 7.5-.3zm2.3 10.3-7.5.3s4.8 2.6 7.5-.3zm.3 10.3-7.5.3s3.9 2.7 7.5-.3zm.4 10.4-5.7-.7c0-.1 2.1 3.6 5.7.7zm2.3 10.3-5.6.2c-.1 0 3.8 2.6 5.6-.2zm27.1-98.1c-.4-1.9-1.7-3.5-3.7-3.7-3.2-.3-5.4 1.8-7.1 4.2-3.8 5.7-8.2 10.5-13.6 14.5-1 .7-7.2 4.8-4.8 6.2 1.6.9 5-.3 6.5-.7 4.7-1.2 9.3-2.6 13.4-5.2 4.8-3.1 10.5-8.9 9.3-15.3zm2.5-128.8c0 .9 10.7 10 30.3 5.5l-30.3-5.5z"/></g><g clip-path="url(#b)"><path fill="#272525" d="M1080.7 408.4c-.1 5.6.6 10.7 3.1 12.1 2.1 1.2 4.6.9 6.9.7 17.9-1.8 36-1.3 53.8 1.5 2-7.8 3.1-15.8 3.2-23.8 8.5 1.2 17.2 1.4 25.7.4-.6-3-3-5.4-5.2-7.5-12.6-12.1-24.7-25.6-38.2-36.5-1.5-1.2-3.2-2.5-5.2-2.6-1.1 0-2.1.3-3.1.6-6.6 2.1-13.2 3.6-19.7 6.1-7.5 2.9-14.9 5.9-22.2 9.1-6.4 2.8-11.7 7.2-18.5 9.5-1.2.4-2.8 1.3-2.4 2.6.2.6.8 1 1.4 1.2 7.2 3.5 14.5 6.6 22.1 9.1.1 0-1.6 9.3-1.7 17.5z"/><path fill="#EAC52D" d="M1172.7 414.3v1.2c-9.5-.1-19.2-5.3-29.7-15.8-1.8-1.8-3.6-3.7-5.3-5.5-6-6.3-12.2-12.9-19.8-17l.6-1c7.9 4.2 14.1 10.8 20.1 17.2 1.7 1.8 3.5 3.7 5.3 5.5 10.1 10.2 19.6 15.3 28.8 15.4z"/><path fill="#EAC52D" d="M1173.3 419.9c4.1 1.4 8.3 2.6 12.5 3.6.3.1.7.1.9 0 .2-.2.3-.4.4-.7.9-3.3 1.7-6.6 2.3-10 0-.3.1-.6-.1-.8-.1-.2-.4-.3-.6-.4-1.1-.3-2.1-.6-3.2-.9-3.4-1-6.9-2-10.4-1.4-7.1 1.1-9.5 8-1.8 10.6z"/><path fill="#EAC52D" d="M1164.9 414.7c.4 2.2 3 4 5.4 2.4 3.9-2.7-.4-8.7-4.1-5.6-1.2.9-1.5 2.1-1.3 3.2z"/><path fill="#070707" d="M1115.8 377.4c2.4 2.2 6.8-.2 5.3-3.5-.8-1.8-3.6-2.8-5.2-1.5-1.4 1.3-1.4 3.8-.1 5z"/></g><g clip-path="url(#b)"><path fill="#272525" d="M753.7 332.3c-1.4 3-2.3 6-1.3 7.4.8 1.1 2.3 1.6 3.6 2.1 10.2 3.5 20 8.2 29.1 14.1 3-3.8 5.6-7.9 7.6-12.2 4.3 2.8 9.1 5 14 6.6.4-1.8-.3-3.7-1-5.4-3.9-9.8-7.2-20.1-11.9-29.5-.5-1.1-1.1-2.2-2.2-2.7-.6-.3-1.2-.4-1.8-.4-4.1-.5-8.1-1.3-12.3-1.5-4.8-.3-9.6-.4-14.4-.5-4.2-.1-8.2 1.1-12.5.6-.8-.1-1.9 0-2 .8 0 .4.2.7.5 1 3 3.7 6.3 7.2 9.8 10.5.1 0-3.1 4.6-5.2 9.1z"/><path fill="#C1172C" d="m794.6 360.5-.4.6c-4.5-3.6-7.2-9.6-8.4-18.4-.2-1.5-.4-3.1-.5-4.6-.5-5.2-1.1-10.6-3.2-15.4l.6-.3c2.2 4.9 2.7 10.3 3.3 15.6.2 1.5.3 3.1.5 4.6 1.1 8.6 3.7 14.5 8.1 17.9z"/><path fill="#C1172C" d="M792.8 363.4c1.4 2.2 3 4.3 4.7 6.3.1.1.3.3.5.3s.3-.1.4-.2c1.6-1.2 3.2-2.5 4.7-3.9.1-.1.3-.2.3-.4s-.1-.3-.2-.4c-.4-.5-.8-1.1-1.2-1.6-1.3-1.7-2.6-3.5-4.4-4.5-3.8-2-7.5.4-4.8 4.4z"/><path fill="#C1172C" d="M790.7 357.9c-.6 1.2 0 3 1.7 3.1 2.8.2 3-4.3.1-4.2-.9 0-1.5.5-1.8 1.1z"/><path fill="#070707" d="M780.6 324.1c.8 1.8 3.8 1.6 3.8-.6 0-1.2-1.3-2.4-2.5-2.1-1.1.2-1.8 1.6-1.3 2.7z"/></g><g clip-path="url(#b)"><path fill="#333131" d="M166.7 459.2c-1.3 4.5-1.9 8.8-.1 10.6 1.4 1.4 3.5 1.8 5.5 2.1 15 2.5 29.7 6.9 43.6 13.1 3.3-5.9 6-12.2 7.8-18.7 6.7 2.9 13.7 4.9 20.9 6 .2-2.6-1.2-5.1-2.6-7.3-7.6-12.7-14.5-26.4-23.1-38.2-1-1.3-2.1-2.8-3.6-3.2-.9-.3-1.8-.2-2.7-.2-5.8.3-11.6 0-17.4.7-6.7.7-13.4 1.5-20.1 2.5-5.9.8-11.2 3.3-17.2 3.6-1.1.1-2.6.4-2.5 1.6 0 .5.5 1 .9 1.3 5.1 4.5 10.4 8.6 16 12.3-.1 0-3.5 7.1-5.4 13.8z"/><path fill="#C1172C" d="M214.9 460.5c-.8-1.7-1.7-3.5-2.5-5.3-2-4.4-4.1-9-6.8-12.9-.2.2-.5.4-.7.6 2.7 3.9 4.7 8.4 6.8 12.9.8 1.7 1.6 3.5 2.5 5.3 4.9 10.1 10.3 15.7 16.4 17l.2-1c-5.9-1.3-11.1-6.7-15.9-16.6z"/><path fill="#C1172C" d="M229.8 483.8c2.4 1.7 4.9 3.3 7.4 4.6.2.1.4.2.6.1.2-.1.3-.3.4-.5 1.2-2.6 2.2-5.3 3.2-8 .1-.2.2-.5.1-.7-.1-.2-.2-.3-.4-.4-.6-.4-1.2-.8-1.9-1.2-2-1.3-4.1-2.6-6.4-2.5-4.8.1-7.5 5.4-3 8.6z"/><path fill="#C1172C" d="M225.3 478.4c-.1 1.9 1.3 3.7 3.1 2.7 2.9-1.7 1.2-7.3-1.7-5.2-.9.6-1.3 1.6-1.4 2.5z"/><path fill="#262525" d="M201.1 444.4c1.7 2.2 5.7.8 4.9-2.2-.4-1.6-2.6-2.8-4.1-2-1.3.9-1.7 3-.8 4.2z"/></g></svg>