<?xml version="1.0" encoding="utf-8"?>
<!-- Generator: Adobe Illustrator 22.0.1, SVG Export Plug-In . SVG Version: 6.00 Build 0)  -->
<svg version="1.1" id="Layer_1" xmlns="http://www.w3.org/2000/svg" xmlns:xlink="http://www.w3.org/1999/xlink" x="0px"
	y="0px" viewBox="0 0 1200 700" enable-background="new 0 0 1200 700" xml:space="preserve">
	<g>
		<defs>
			<rect id="SVGID_31_" width="1200" height="700" />
		</defs>
		<clipPath id="SVGID_1_">
			<use xlink:href="#SVGID_31_" overflow="visible" />
		</clipPath>
		<g clip-path="url(#SVGID_1_)">
			<g>
				<path fill="#FFFFFF" d="M390,630.2c-0.5-3.7-1.1-7.3-1.8-10.9c-1.1-4.7-5.8-7.4-10.5-7.3c-3.8,0.1-5.6,3-5.9,6.5
				c-0.3,2.9,0.2,5.9,0.4,8.8c0.2,3.1,0.4,6.2,0.6,9.3c1.1,17.5,2.1,35,3,52.5c0.4,7.5,0.8,15,1.2,22.5c0.1,2.4,0.3,4.8,0.4,7.2
				c0,1.4-0.2,2.8-0.9,4.1c-0.5,0.8-1.4,1.6-1.4,2.6c-0.1,1.9,2.3,2.7,3.8,3.2c1.7,0.6,3.2,0.9,4.4-0.5c1.2-1.3,1.9-3.2,2.6-4.8
				c2.5-6.5,3.8-13.5,4.8-20.4C394.2,679,393.5,654.2,390,630.2z" />
			</g>
			<g>
				<path fill="#FFFFFF" d="M438.4,637c-0.5-3.7-1.1-7.3-1.8-10.9c-1.1-4.7-5.8-8.1-10.6-7.6c-3.8,0.4-5.4,3.5-5.6,7
				c-0.2,2.9,0.2,5.9,0.4,8.8c0.2,3.1,0.4,6.2,0.6,9.3c1.1,17.5,2.1,35,3,52.5c0.4,7.5,0.8,15,1.2,22.5c0.1,2.4,0.4,4.8,0.4,7.2
				c0,1.6-0.4,3.1-1.3,4.4c-0.5,0.7-1.1,1.4-1.1,2.3c-0.1,2,2.4,3.2,4,3.7c4,1.3,5.5-2.8,6.7-6c2.5-6.6,3.8-13.7,4.8-20.6
				C442.5,685.6,441.9,660.9,438.4,637z" />
			</g>
			<g>
				<path fill="#FFFFFF" d="M531,632.5c-0.5-3.7-1.1-7.3-1.8-10.9c-1.1-4.9-5.8-7.2-10.6-6.5c-3.8,0.6-5.6,3.3-6,7
				c-0.3,2.9,0.2,5.9,0.4,8.8c0.2,3.1,0.4,6.2,0.6,9.3c1.1,17.5,2.1,35,3,52.5c0.4,7.5,0.8,15,1.2,22.5c0.1,2.4,0.3,4.8,0.4,7.2
				c0,1.6-0.3,3.1-1.2,4.5c-0.5,0.7-1.1,1.4-1.2,2.3c-0.1,1.9,2.2,2.7,3.6,3c4.4,0.8,6-2.9,7.3-6.3c2.5-6.5,3.8-13.5,4.8-20.4
				C535.2,681.2,534.5,656.5,531,632.5z" />
			</g>
			<g>
				<path fill="#FFFFFF" d="M559,629.3c-0.5-3.7-1.1-7.3-1.8-10.9c0-0.1-0.1-0.2-0.1-0.4c-1.1-4.4-4.9-8.7-9.8-8.1
				c-3.8,0.5-5.3,4.1-5.4,7.6c-0.2,2.8,0.3,5.7,0.5,8.6c0.2,3.1,0.4,6.2,0.6,9.3c1.1,17.5,2.1,35,3,52.5c0.4,7.5,0.8,15,1.2,22.5
				c0.1,2.5,0.4,5,0.4,7.5c0,1.6-0.7,2.8-1.5,4.1c-0.5,0.7-0.9,1.4-0.9,2.3c-0.1,2,1.6,3.8,3.4,4.6c3.8,1.6,5.4-3.3,6.4-6.1
				c2.5-6.6,3.8-13.7,4.8-20.7C563.2,678,562.5,653.2,559,629.3z" />
			</g>
			<g>
				<path fill="#FFFFFF"
					d="M575.4,549c-0.9-20.4-3.1-40.9-7.2-60.9c-1-4.9-2.1-9.7-3.4-14.5c-0.7-2.8-1.3-6-2.5-8.7
				c-1.3-2.8-3.4-5.5-5.5-7.8c-3.6-3.9-8.1-7-13.3-8.2c-6.8-1.6-14.1,0.3-20.2,3.4c-3.2,1.6-6,4.1-9.1,5.9c-3.7,2.1-7.5,4-11.4,5.7
				c-4.8,2.1-9.9,3.6-14.6,5.8c-5.6,2.6-12.5,6.3-15.1,12.3c-2.2,5,0.8,9.5,4.9,12.4c6.8,4.8,15.9,4,23.5,1.6
				c3.5-1.1,6.8-2.8,10.2-4c2.6-0.9,4.5,0.5,5.2,3.1c0.6,2.2,0.7,4.7,1,6.9c0.3,2.2,0.6,4.5,0.7,6.7c0.3,4.6,0.3,9.4-1.2,13.7
				c-1.6,4.6-5.2,8.6-10.1,9.7c-4,0.9-8.3,0.6-12.4,0.2c-4.6-0.5-9.2-1.4-13.7-2.4c-9.3-2.1-18.3-5-27.5-7.3
				c-8.4-2.1-17-3.8-25.7-3.5c-7.7,0.3-15.6,2.4-22.1,6.5c-2,1.3-3.9,2.8-5.8,4.3c-17.5,14.2-31.5,34.6-35,57.1
				c-1.2,7.9-1.1,15.9,0.2,23.7c2.6,15,7.5,29.8,16.3,42.3c7,10,16.5,18,27.4,23.4c21.6,10.6,46.9,11.1,70.3,8.1
				c12.2-1.6,24.8-3.8,36.5-7.7c15.3-5.1,29.2-14.3,39.5-26.8c10.4-12.6,17-28.1,18.9-44.3C576.2,587,576.2,567.8,575.4,549z" />
			</g>
			<g>
				<path fill="#1A1B1F" d="M597,535.4c-1.1-1.8-4.2-2.7-6.1-3.4c-3.1-1.1-6.3-2-9.4-2.8c-0.6-0.2-1.2-0.3-1.8-0.4
				c7.2-1.3,19.6-4.1,16.9-8.2c-1.3-1.9-4.4-2.5-6.4-3.1c-3.2-0.9-6.5-1.5-9.8-2c-0.7-0.1-1.5-0.2-2.3-0.3
				c7.4-2.3,21.7-7.3,18.1-11.6c-1.6-1.9-5.2-2.3-7.4-2.7c-3.5-0.6-7.1-0.8-10.6-0.9c-0.8,0-1.6-0.1-2.4-0.1
				c7.2-3.1,21.8-10,18-13.2c-1.8-1.5-5.4-1.2-7.6-1.2c-3.6,0.1-7.1,0.4-10.7,0.8c-0.9,0.1-1.8,0.2-2.7,0.3
				c6.5-4.3,20.5-14.1,16.4-16.8c-2-1.3-5.5-0.4-7.5,0c-3.4,0.7-6.8,1.6-10.1,2.7c-0.7,0.2-1.4,0.4-2,0.7c4.7-4.3,9.4-8.7,13.2-13.6
				c0.9-1.2,3.8-4.7,1.3-5.8c-2.1-0.9-5.3,0.7-7.2,1.5c-3.2,1.4-6.3,3-9.4,4.7c-0.6,0.3-1.2,0.7-1.8,1c3.6-5,7.1-10,9.9-15.5
				c0.7-1.4,2.7-5.3-0.4-5.2c-2.3,0-4.8,2.3-6.5,3.6c-2.8,2.2-5.5,4.6-8.1,7c-1.6,1.5-3.2,3-4.8,4.6c-0.2,0.1-0.3,0.3-0.3,0.4
				c-0.1,0.2-0.1,0.3,0,0.4c0,0.1,0.1,0.1,0.1,0.2c4,4.5,6.2,10.5,8,16.2c2.4,7.4,4,15.1,5.3,22.8c2.5,14.5,4,29.1,4.9,43.7
				c0.2,3.1,0.4,6.2,0.5,9.3c0,0.5,0.3,0.7,0.8,0.8c5.5,0.6,11.4,1.5,17,0.9c1.4-0.1,4.8-0.8,3.7-2.9c-0.9-1.7-3.7-2.7-5.3-3.4
				c-2.8-1.3-5.7-2.4-8.7-3.4c-0.3-0.1-0.6-0.2-0.9-0.3C588.1,540,599.3,539,597,535.4z" />
			</g>
			<g>
				<g>
					<path fill="#1A1B1F" d="M517.1,463.3c-0.7-0.2-1.5,0.5-2,1.7c-0.2,0.5-0.3,1-0.2,1.5s0.3,0.9,0.7,1c0.1,0,0.2,0,0.3,0
					c0.3,0,0.6-0.1,0.9-0.4c0.3-0.3,0.6-0.8,0.8-1.3s0.3-1,0.2-1.5C517.7,463.8,517.5,463.4,517.1,463.3z" />
				</g>
				<g>
					<path fill="#1A1B1F" d="M535.8,472.4c-0.1-0.5-0.3-0.9-0.7-1c-0.7-0.2-1.5,0.5-2,1.7c-0.4,1.2-0.2,2.3,0.5,2.5
					c0.1,0,0.2,0,0.3,0c0.6,0,1.3-0.7,1.7-1.7C535.8,473.4,535.9,472.9,535.8,472.4z" />
				</g>
			</g>
			<g>
				<path fill="#1A1B1F" d="M504.9,477.1c-0.3-3.1-0.9-7-3.4-9.2c-2.7-2.4-6.6-1.3-9.5,0c-6,2.1-12.4,5.3-16.9,9.9
				c-2.6,2.6-4.6,6.2-3.3,9.9c1.5,4.5,5.7,7.3,10.1,8.6c4.5,1.4,9.5,1.6,14.1,1c2-0.3,4.1-0.7,6-1.5c0.9-0.3,1.6-0.5,1.9-1.4
				c0.7-2,0.7-4.6,0.8-6.7C505.1,484.3,505.2,480.7,504.9,477.1z" />
			</g>
			<g>
				<g>
					<path fill="#FFFFFF" d="M483,477.5c-1.4,0.1-2.5,0.9-2.9,2.1c-0.4,1-0.4,2.4,1,2.3c1.4,0,2.5-0.9,3-2.1
					C484.4,478.8,484.4,477.4,483,477.5z" />
				</g>
				<g>
					<path fill="#FFFFFF" d="M490.9,484.7c-1.4,0-2.4,1.1-2.8,2.3c-0.4,1-0.3,2.5,1.1,2.6c1.5,0.1,2.5-1,3-2.3
					C492.5,486.2,492.4,484.7,490.9,484.7z" />
				</g>
			</g>
			<g>
				<g>
					<g>
						<path fill="#1A1B1F" d="M404.3,526.2c-7.4,3-14.3,7.4-20.8,12c-13.7,9.7-25.8,22.1-33.9,37c-5.6,10.3-9.1,21.6-10.3,33.3
						c-0.1,1.2,3.6-0.1,3.7-1.4c2-19.2,10.4-36.8,23.3-51.1c8.9-9.8,19.6-18,31.2-24.3c1.7-0.9,3.4-1.8,5.1-2.6
						c0.2-0.1,0.9-0.4,0.6-0.3c-0.4,0.2,0.3-0.1,0.4-0.2c0.2-0.1,0.3-0.1,0.5-0.2c0.5-0.2,2.1-1,1.9-1.7
						C405.9,525.7,404.8,526,404.3,526.2L404.3,526.2z" />
					</g>
				</g>
			</g>
			<g>
				<path fill="#1A1B1F" d="M345.2,610.1c-0.1-1.9-0.2-4.7-1.8-6.1c-1.2-1-3-0.6-4.2,0.1c-3.4,2-5.6,6.1-7.5,9.4
				c-2.1,3.5-4.4,7.2-6.1,10.9v0.1c0,0,0,0.1-0.1,0.1c-0.4,1.2-2.3,4.7-1.1,6c1,1.1,2.9-0.2,3.7-0.9c1.4-1.1,2.6-2.5,3.7-4
				c0.2,4.8,1.4,12.9,5,9.9c1.1-0.9,1.3-2.7,1.4-4.2c0.5,1.1,1.1,2.1,1.8,3c1,1.2,2.8,1,3.6-0.4c1.3-2.4,1-6.3,1.2-8.9
				C345.1,620,345.6,615,345.2,610.1z" />
			</g>
			<g>
				<g>
					<g>
						<path fill="#1A1B1F" d="M560.7,468.9c-1.3,2.1-3,3.9-4.7,5.7c-3,3.3-6.2,6.3-9.6,9.2c-7.7,6.4-17.4,12.3-27.8,11.7
						c-1,0,0.7,3.5,1.9,3.5c10.5,0.5,20.3-5.4,28.2-11.8c3.5-2.9,6.8-6.1,9.9-9.4c1.6-1.8,3.4-3.7,4.7-5.8
						C563.8,471.1,561.3,467.9,560.7,468.9L560.7,468.9z" />
					</g>
				</g>
			</g>
			<g>
				<g>
					<g>
						<path fill="#1A1B1F" d="M569.6,501.2c-1.3,1.2-3.7,2-5.4,2.8c-3.8,1.6-7.7,2.8-11.6,3.8c-11,2.7-22.7,3.2-33.6-0.4
						c-0.7-0.2-1.3-0.2-1.2,0.5s1.7,1.5,2.2,1.7c11.2,3.7,23.2,3.5,34.6,0.8c4.3-1,8.6-2.4,12.7-4.1c1.9-0.8,4.2-1.6,5.7-3
						C573.7,502.7,570.6,500.3,569.6,501.2L569.6,501.2z" />
					</g>
				</g>
			</g>
			<g>
				<g>
					<g>
						<path fill="#1A1B1F"
							d="M573.8,528.4c-12.8,1.7-26.8,1.5-39.3-1.8c-4.9-1.3-9.5-3.3-13.5-6.3c-1.4-1.1-4.7-0.1-2.6,1.6
						c7.6,5.9,17.4,8.2,26.8,9.4c8.3,1,16.7,1,25,0.4c1.7-0.1,3.4-0.3,5.1-0.5C577.8,530.7,575.6,528.1,573.8,528.4L573.8,528.4z" />
					</g>
				</g>
			</g>
			<g>
				<g>
					<g>
						<path fill="#1A1B1F" d="M508.3,532.2c4.1,5.1,9.5,9.4,14.5,13.5c8.8,7.1,18.6,13.6,29.3,17.6c5.9,2.2,12.1,3.6,18.3,3.5
						c0.7,0,2.3-0.1,2.7-0.8c0.3-0.7-0.2-1-0.9-1c-11.3,0.2-22-4.8-31.5-10.5c-8.4-5.1-16.2-11.3-23.3-18c-1.8-1.7-3.7-3.5-5.3-5.5
						C511.4,530.1,507.6,531.2,508.3,532.2L508.3,532.2z" />
					</g>
				</g>
			</g>
			<g>
				<g>
					<g>
						<path fill="#1A1B1F" d="M498.3,533.8c2.4,8.3,5.5,16.3,9,24.2c6.5,15,14.7,29.9,26.3,41.6c6.2,6.3,13.7,11.6,22.2,14.2
						c0.4,0.1,2.2,0.7,2.6,0.2c0.3-0.6-0.8-1-1.2-1.1c-15.3-4.7-26.3-18.8-34.3-31.8c-7.4-12-13.2-25-17.8-38.2
						c-1-2.8-1.9-5.6-2.7-8.4C501.9,533.4,498,532.9,498.3,533.8L498.3,533.8z" />
					</g>
				</g>
			</g>
			<g>
				<g>
					<g>
						<path fill="#1A1B1F" d="M487.7,533.1c0.7,10.4,1.9,20.8,3.4,31.1c2.7,18.9,6.2,38.2,13.1,56.1c3.1,8.1,7.1,16.5,13.4,22.6
						c1.6,1.6,4.5-1.3,2.8-3c-5.4-5.1-8.8-12.2-11.6-19c-3.6-8.8-6.1-17.9-8.2-27.1c-3.8-16.6-6.3-33.5-8-50.4
						c-0.4-3.6-0.7-7.2-0.9-10.8C491.4,530.1,487.5,530.8,487.7,533.1L487.7,533.1z" />
					</g>
				</g>
			</g>
			<g>
				<g>
					<g>
						<path fill="#1A1B1F" d="M468.1,527.9c-1.4,10.4-2.2,20.8-2.7,31.3c-0.9,18-1.2,36.9,3.3,54.6c1.8,7.3,4.8,15.1,11.2,19.6
						c0.8,0.6,2,0.2,2.4-0.7c0.4-1-0.2-2.1-1-2.7c-4.8-3.4-7.2-10-8.7-15.6c-2.3-8.2-3.1-16.7-3.5-25.1c-0.9-16.5,0-33.1,1.6-49.5
						c0.3-3.6,0.7-7.2,1.2-10.8C472.1,526.8,468.5,525.3,468.1,527.9L468.1,527.9z" />
					</g>
				</g>
			</g>
			<g>
				<g>
					<g>
						<path fill="#1A1B1F" d="M446,522.2c-4.4,6-7.8,13-10.7,19.8c-6.3,14.9-9.7,31.2-8.5,47.4c0.8,11.3,4,22.4,9.1,32.5
						c0.8,1.7,4.8,0.8,3.9-1.1c-8.6-17-11-36.1-7.6-54.8c2.3-12.7,7-25,13.4-36.2c1.3-2.2,2.6-4.4,4-6.4
						C451,521.6,447.1,520.8,446,522.2L446,522.2z" />
					</g>
				</g>
			</g>
			<g>
				<g>
					<g>
						<path fill="#1A1B1F" d="M403.1,525.6c-3.6,5.8-6.1,12.3-8.1,18.7c-4.8,14.9-6.6,30.8-4.9,46.4c1.2,11.4,4.3,22.5,8.9,33
						c0.2,0.5,0.9,2.1,1.7,2c0.7-0.1,0.4-1.2,0.2-1.7c-12.4-28.4-11.7-61.3,1.5-89.3c0.9-2,1.9-4,3.1-5.8
						C405.9,527.9,403.7,524.6,403.1,525.6L403.1,525.6z" />
					</g>
				</g>
			</g>
			<g>
				<g>
					<g>
						<path fill="#1A1B1F" d="M364.9,589.3c1.5,11.1,6.2,22.6,13.2,31.4c3.1,4,6.9,7.3,11.2,10c2.2,1.3,3.4-1,1.3-2.3
						c-8.6-5.4-14.3-14.4-17.9-23.8c-1.8-4.7-3.3-9.7-4-14.7C368.4,588.2,364.6,587.1,364.9,589.3L364.9,589.3z" />
					</g>
				</g>
			</g>
			<g>
				<g>
					<g>
						<path fill="#1A1B1F" d="M374.6,661.3c4.5,4.3,11.5,6.5,17.5,4.9c1.6-0.4-1-1.8-1.9-1.5c-4.8,1.3-9.8-0.5-13.3-3.8
						C376.3,660.1,373.4,660.1,374.6,661.3L374.6,661.3z" />
					</g>
				</g>
			</g>
			<g>
				<g>
					<g>
						<path fill="#1A1B1F" d="M376.8,686.2c3.9,3.5,9.4,4.2,13.7,1c1.1-0.8-0.2-1.3-1-0.7c-3.5,2.6-8.1,1.1-11.1-1.6
						C377.8,684.5,376.1,685.6,376.8,686.2L376.8,686.2z" />
					</g>
				</g>
			</g>
			<g>
				<g>
					<g>
						<path fill="#1A1B1F" d="M423.9,686.3c4.7,3.3,11.5,5.2,16.7,1.8c1.6-1,0.5-2.9-1.1-1.9c-4.1,2.7-9.7,0.6-13.3-1.9
						C425.1,683.5,422.7,685.4,423.9,686.3L423.9,686.3z" />
					</g>
				</g>
			</g>
			<g>
				<g>
					<g>
						<path fill="#1A1B1F" d="M517.7,681.5c4.9,0.4,11.9,0.2,15.4-3.7c1-1.2-1.9-1.6-2.7-0.7c-2.6,2.9-8.4,2.8-12,2.5
						C516.8,679.5,515.7,681.3,517.7,681.5L517.7,681.5z" />
					</g>
				</g>
			</g>
			<g>
				<g>
					<g>
						<path fill="#1A1B1F" d="M519,699.4c4.1,1.3,9.6,1.3,12.7-2.1c0.6-0.7-0.7-2.2-1.3-1.6c-2.9,3.1-7.8,3.1-11.6,2
						C517.7,697.4,518.2,699.2,519,699.4L519,699.4z" />
					</g>
				</g>
			</g>
			<g>
				<g>
					<g>
						<path fill="#1A1B1F" d="M545.2,664.3c5,3.6,11.7,4.2,16.4-0.1c1.1-1-1.2-3-2.4-2c-2.5,2.3-5.6,2.9-8.8,2
						c-1-0.3-1.9-0.7-2.8-1.2c-0.3-0.2-1.1-0.7-0.9-0.5C545.1,661.4,543.6,663.2,545.2,664.3L545.2,664.3z" />
					</g>
				</g>
			</g>
			<g>
				<g>
					<g>
						<path fill="#1A1B1F" d="M547.1,690.6c4,1.6,11.6,3.5,14.2-1.3c0.5-1-1-2.3-1.6-1.3c-2.1,3.9-8.7,2.1-12,0.8
						C546.4,688.4,546,690.2,547.1,690.6L547.1,690.6z" />
					</g>
				</g>
			</g>
		</g>
		<g clip-path="url(#SVGID_1_)">
			<path fill="#3D3B3B" d="M515.3,445.9c-0.6,4-0.6,7.7,1.1,9c1.4,1,3.2,1.1,4.9,1.1c13.1,0.4,26.1,2.4,38.6,6.1
			c2.2-5.4,3.7-11.1,4.5-16.8c6,1.7,12.2,2.6,18.5,2.7c-0.2-2.2-1.6-4.2-3-5.9c-7.9-9.9-15.4-20.8-24.1-29.9c-1-1-2.1-2.1-3.5-2.3
			c-0.8-0.1-1.5,0-2.3,0.2c-4.9,0.9-9.9,1.4-14.7,2.6c-5.6,1.4-11.3,2.9-16.9,4.5c-4.9,1.4-9.1,4.1-14.2,5.1c-0.9,0.2-2.2,0.7-2,1.6
			c0.1,0.5,0.5,0.8,0.9,1c4.8,3.2,9.9,6.1,15.1,8.6C518.3,433.5,516.1,440,515.3,445.9z" />
			<g>
				<path fill="#EAC52D" d="M574.2,462.7l-0.3,0.8c-6.6-2.2-12.1-7.9-17.1-17.5c-0.8-1.6-1.7-3.4-2.5-5c-2.7-5.7-5.6-11.6-10-16.2
				l0.6-0.6c4.5,4.7,7.4,10.6,10.1,16.4c0.8,1.6,1.6,3.3,2.4,5C562.4,455,567.8,460.6,574.2,462.7z" />
			</g>
			<path fill="#EAC52D" d="M573.3,466.7c2.5,1.9,5.2,3.6,7.9,5.3c0.2,0.1,0.4,0.2,0.7,0.2c0.2-0.1,0.3-0.2,0.4-0.4
			c1.4-2.1,2.6-4.2,3.8-6.4c0.1-0.2,0.2-0.4,0.1-0.6c-0.1-0.2-0.2-0.3-0.4-0.4c-0.7-0.4-1.3-0.9-2-1.3c-2.1-1.4-4.3-2.9-6.9-3.3
			C571.8,459,568.6,463.3,573.3,466.7z" />
			<path fill="#EAC52D"
				d="M568.7,461.3c-0.2,1.6,1.2,3.4,3.2,2.8c3.3-1,1.6-6.1-1.6-4.8C569.3,459.7,568.8,460.5,568.7,461.3z" />
			<path fill="#070707"
				d="M543.5,426.9c1.5,1.8,4.9,0.5,4.1-2c-0.4-1.3-2.3-2.3-3.6-1.5C542.9,424,542.6,425.8,543.5,426.9z" />
		</g>
		<g clip-path="url(#SVGID_1_)">
			<g>
				<g>
					<g>
						<g>
							<path fill="#EFB201" d="M768,325.1c-2.7,6.6-5.5,13.3-8.2,19.9c-0.6,1.3,1.9,1.4,2.4,0.3c2.7-6.6,5.5-13.3,8.2-19.9
							C771,324.1,768.5,324,768,325.1L768,325.1z" />
						</g>
					</g>
				</g>
				<g>
					<g>
						<g>
							<path fill="#EFB201" d="M780.5,328.6c-2.6,8-5.2,16.1-7.8,24.1c-0.2,0.7,2.2,0.4,2.5-0.4c2.6-8,5.2-16.1,7.8-24.1
							C783.2,327.5,780.8,327.9,780.5,328.6L780.5,328.6z" />
						</g>
					</g>
				</g>
			</g>
			<g>
				<g>
					<g>
						<path fill="#291607"
							d="M751.4,345.2c0,0-12.5-13.4-6.2-21.7c6.2-8.3,9.2,5.3,8.8,11.2c-0.4,5.9,0.1,9.1,0.1,9.1L751.4,345.2z" />
					</g>
				</g>
				<g>
					<path fill="#EFB201" d="M753.8,344c-0.4-0.3-0.7-0.7-0.9-1.1l-2.8-10.4c-0.2-1.4-0.4-2.8-0.5-4.3c0-0.3-1.3-0.1-1.2,0.3
					c0.2,2.4,0.5,4.8,1,7.2c0.5,2.8,1.1,6.6,3.4,8.7C752.9,344.7,754,344.3,753.8,344z" />
				</g>
			</g>
			<g>
				<path fill="#EFB201" d="M802.5,346.5c-0.5-1.9-2.5-3.7-4.2-4.4c-2.1-0.8-4.3,0.1-6.2,0.9c-5.5,2.6-9,7.5-14,10.8v0.1
				c0.2,1,0.5,2,0.7,3c0.2,0.8,1.2,1.5,1.8,2c0,0,0.1,0.1,0.2,0.2c0.4,0.3,0.8,0.6,1.1,0.6c3.8,0.1,7.7-0.4,11.3-1.6
				C798,356.6,804,352.5,802.5,346.5z" />
			</g>
			<g>
				<path fill="#291607" d="M771.3,315.8c-3.2-0.1-5.9,2.4-6.8,5.3c-1,3-0.2,7.4,3.7,7.6c3.3,0.1,5.9-2.4,7-5.3
				C775.9,320.3,775.3,315.9,771.3,315.8z" />
			</g>
			<g>
				<path fill="#291607" d="M785.2,319.5c-3.4-0.5-6.2,2.4-7.1,5.4c-1,3-0.3,7.4,3.4,8c3.4,0.6,6.1-2.3,7.2-5.2c0-0.1,0-0.1,0-0.2
				v-0.1C789.5,324.4,788.9,320.1,785.2,319.5z" />
			</g>
			<g>
				<g>
					<g>
						<path fill="#EFB201" d="M773,661.5c0.9-3.9,0.1-7.5-1.9-7.9c-1.8-0.4-11.1,1.5-13.5,10.4c-4.3,15.8-19.3,90.4-24.5,107.8
						c-0.6,2-1.5,3.8-2.6,5.2c-1.1,1.3-2.2,3.3-0.5,4.9C732.6,784.6,757.5,731.8,773,661.5z" />
					</g>
				</g>
			</g>
			<g>
				<g>
					<g>
						<path fill="#EFB201" d="M781.4,687.3c0.7-3.3-1.8-5.4-3.2-7c-1.7-2-5.6-5.4-6.1,8.5c-0.4,13.5-21.2,75-25.4,89.5
						c-0.5,1.6-1.3,3.2-2.3,4.2c-1,1.1-2,2.7-0.3,4.1C747,789,769.8,746,781.4,687.3z" />
					</g>
				</g>
			</g>
			<g>
				<path fill="#EFB201" d="M998.8,627.8c-2.3-7.6-5.9-15.2-11.6-20.9c-0.9-0.9-1.9-1.8-2.9-2.6c0,0-0.1-0.1-0.2-0.1l0,0l0,0l0,0
				c-0.2-0.1-0.4-0.1-0.6-0.1l0,0c0,0,0,0-0.1,0c-0.7,0.1-1.4,0.4-1.5,0.8c-0.7,4.8-1.4,9.7-1.8,14.6c-0.2,2-0.8,4.9-0.2,6.9
				c0.3,0.9,0.3,0.8,1.1,1.3c1.5,0.9,3.1,1.6,4.5,2.7c10.2,8.2,12.4,23.7,12.9,36c0.2,3.6,0.2,7.2-0.1,10.7c-0.1,1,2.4,0.5,2.5-0.3
				C1003.1,660.6,1003.6,643.5,998.8,627.8z" />
			</g>
			<g>
				<path fill="#291607" d="M1001.5,663.1c-0.1,0-0.1,0-0.2,0c-0.1,0-0.2,0-0.3,0c-1.6,0-2.6,0.5-2.8,2.1c-0.3,2.5,0,5.1-0.1,7.6
				c0,1.8-0.1,3.5-0.2,5.3c0,0.6-0.3,1.6-0.1,2.1c0.3,0.6,2.3,0,2.5-0.5c0.8-2.9,0.7-6.2,1.1-9.1
				C1001.6,669.3,1003.1,663.7,1001.5,663.1z" />
			</g>
			<g>
				<path fill="#EFB201" d="M990.4,607.2c-10.3-18.3-28.7-29.4-48.7-34.5c-16-4.1-32.4-4.3-48.8-3.9c-15.7,0.4-31.5,0.6-47.2,0.2
				c-6.8-0.2-13.7-0.4-20.5-1.3c-2.6-0.4-5.2-1-7.3-1.5c-3.1-0.7-6-2.2-8.9-3.4c-6.1-2.6-10.8-6.2-13-12.6
				c-1.6-4.5-1.6-9.6-2.1-14.3c-0.8-7.6-1.6-15.2-2.4-22.9c-3.3-31.8-6.4-63.5-9.4-95.3c-1.1-11.4-2.2-22.7-3.2-34.1
				c-0.3-3.2-0.7-6.4-0.9-9.6c-0.3-6.7,8.8-13,4.8-20.1c-1-1.8-3-2.8-4.6-3.9c-2-1.3-4-2.6-6.1-3.7c-3.2-1.8-6.6-3.3-10.2-3.8
				c-6.7-1-12.4,1.7-16.7,6.7c-9.1,10.4-16.7,22.1-26.1,32.1c-4.3,4.6-3.7,10.9,2.5,13.6c4.3,1.9,9.7,0.6,13.8-0.9
				c8.7-3,16.6-8.5,23.8-14.1c0.4-0.3,0.8-0.6,1.2-0.9c0.2-0.1,0.3-0.2,0.3-0.2v0.1c1,0.5,1.6,1.6,2,2.6c1,2.3,1.1,4.8,1.3,7.3
				c0.2,3.5,0.3,6.9,0.4,10.4c0.6,16.7,0.9,33.5,1.1,50.3c0.3,25.7,0.1,51.5-0.5,77.2c-0.7,29.8-2.1,59.5-4.6,89.2
				c-2.4,28.9-5.6,57.7-11,86.2c-2.3,12.3-5.1,24.6-8.5,36.6c0,0.1-0.1,0.1-0.1,0.2c0.2,3.5,5.5,5.3,8,2.9c1.9-1.8,2.5-5.5,3.2-7.9
				c3-9.9,5.3-20.1,7.6-30.3c0.9-4,1.8-8.1,2.7-12.1c0.2-1,0.4-2,0.6-2.9c0.1-0.5,0.2-1,0.4-1.4c0.3-0.7,0.6-1.3,1-1.9
				c0.6,0.3,1.1,0.6,1.6,1c4.6,3.5,7.8,9.6,11.5,14c4.3,5.2,9.1,10.1,14.5,14.2c5.8,4.4,12.4,7.8,19.6,9.6c6.9,1.7,14,1.5,21.1,1.3
				c8.4-0.3,16.7-1.3,25.1-1.5c10.6-0.3,21.3,1.5,31.7,3.4c14.7,2.7,29.3,7.5,44.3,4.7c22.7-4.1,38.4-22,48.6-41.5
				c4.6-8.8,8.3-18,11.3-27.4c1.8-5.4,3.7-11,4.6-16.6C1000.3,633.1,996.9,618.8,990.4,607.2z M744.9,741.8L744.9,741.8L744.9,741.8
				z" />
			</g>
			<g>
				<g>
					<g>
						<path fill="#EFB201" d="M927.3,694.3c-2.6-2.1-5.6-1-7.7-0.6c-2.6,0.5-7.5,2.3,4.5,9.4c11.7,6.8,55.7,54.5,66.4,65.2
						c1.2,1.2,2.2,2.6,2.6,4.1c0.4,1.4,1.4,3.1,3.5,2.2C1000.1,773.2,973.3,732.6,927.3,694.3z" />
					</g>
				</g>
			</g>
			<g>
				<g>
					<g>
						<path fill="#EFB201" d="M953.4,689.2c-2.6-2.1-5.6-1-7.7-0.6c-2.6,0.5-7.5,2.3,4.5,9.4c11.7,6.8,55.7,54.5,66.4,65.2
						c1.2,1.2,2.2,2.6,2.6,4.1c0.4,1.4,1.4,3.1,3.5,2.2C1026.1,768,999.3,727.5,953.4,689.2z" />
					</g>
				</g>
			</g>
			<g>
				<path fill="#291607"
					d="M749,386.2c-6.6-5-13.2-10.1-19.8-15.1c-0.2-0.1-0.4-0.2-0.6-0.3c-0.7-0.4-1.6-0.5-2.2-0.1
				c-3.8,2.9-7.6,6.8-9.6,11.2c-2.6,5.9,0.2,12.3,6.6,14.1c8.8,2.5,18-3.5,25.6-7.2C750.1,388.3,749.9,386.9,749,386.2z" />
			</g>
			<g>
				<g>
					<path fill="#1A1B1F" d="M750.3,356.7c-0.2-0.1-0.6-0.3-1.2,0.1c-0.4,0.2-0.7,0.6-1,1c-0.7,1.1-0.7,2.1-0.1,2.5
					c0.1,0.1,0.3,0.1,0.5,0.1c0.6,0,1.2-0.5,1.8-1.3c0.3-0.4,0.5-0.9,0.5-1.4C750.8,357.2,750.5,356.9,750.3,356.7z" />
				</g>
				<g>
					<path fill="#1A1B1F" d="M764.1,363.6c-0.2-0.1-0.6-0.3-1.2,0.1c-0.4,0.2-0.7,0.6-1,1c-0.7,1.1-0.7,2.1-0.1,2.5
					c0.1,0.1,0.3,0.1,0.5,0.1c0.6,0,1.2-0.5,1.8-1.3c0.3-0.4,0.5-0.9,0.5-1.4C764.6,364,764.3,363.7,764.1,363.6z" />
				</g>
			</g>
			<g>
				<path fill="#291607" d="M780.6,405c-0.8-8.3-1.7-16.7-2.4-25c-0.2-2.2-0.1-4.8-1.2-6.7c-0.7-1.2-1.9-3.3-2.8-1.7
				c-1,1.7-0.8,5-0.9,6.9c-0.3,3.6-0.6,7.2-0.8,10.9c-0.2,3.7-0.4,7.3-0.5,11c-0.1,2.8-0.6,6.1,0,8.9c0.5,2.5,2.9,6.4,5.9,6.1
				C782.8,414.8,780.9,408.1,780.6,405z" />
			</g>
			<g>
				<path fill="#291607" d="M775,464.4c0.2-4,1.3-7.9,1.4-11.9c0.1-3.5-1.9-6.3-5.6-6.6c-3.3-0.3-5.8,1.7-6,5c0,4.1,0,8.3,0.1,12.4
				c0,4.3-0.3,8.7,0.1,13c0.6,6.8,11.3,7.4,11.9,0.3C777.1,472.6,774.8,468.6,775,464.4z" />
			</g>
			<g>
				<path fill="#291607" d="M793.2,529.3c-0.8-8-1.7-15.9-2.5-23.9c-0.2-2.9,0-7.5-4-7.8c-2.8-0.2-3.9,3.7-4.7,5.7
				c-1.6,4.2-2.8,8.6-3.4,13c-0.2,1.6-0.3,3.1-0.3,4.7c0.1,2.5-0.5,4.8-1.4,7.1c-1.5,4.2-4.4,8.9-4,13.5c0.4,4.4,5.2,6.3,9.1,6.6
				c6.1,0.5,10.5-3.9,11.5-9.7C794,535.5,793.5,532.3,793.2,529.3z" />
			</g>
			<g>
				<path fill="#291607" d="M793.3,598c-3.3-7.7-4.9-17.8-14.2-20.4c-8-2.3-16.5,2.6-17.4,11.1c-0.8,10.5-1.6,21-2.4,31.5
				c-0.4,5.5-0.9,11.1-1.3,16.6c-0.2,3.1-1.1,6-1.3,9.1c-0.2,4.1,1.3,8.4,5.8,9.3c2.8,0.6,5.6-0.5,8-1.7c5.4-2.6,10.3-6.4,14.7-10.3
				c6.8-6,13.2-13.6,13.7-23C799.4,612.4,796.2,605.1,793.3,598z" />
			</g>
			<g>
				<path fill="#291607" d="M875.7,632.9c-0.3-11.7-7.1-22-18.4-25.5c-8.9-2.4-23.4,0.1-26.4,10.4c-1.6,5.5,0.6,11.3,3,16.2
				c2.3,4.9,5.2,9.5,8.5,13.7c4.8,6,12.5,14.1,21.1,11.9c3.8-1,6.5-3.8,8.2-7.2C874.6,646.6,875.9,639.4,875.7,632.9z" />
			</g>
			<g>
				<path fill="#291607" d="M987.5,612c-0.1-5.5-1.1-12.6-5.3-16.5c-4.7-4.4-9.6-8.7-14.8-12.4c-4.7-3.4-11-8.1-17.3-7.5
				c-0.7,0.1-1.8,0.3-2.5,0.8c-7.2,3-16.3,9.9-11.2,18.3c3,4.9,8.4,8.6,13.2,11.6c3.8,2.3,5.3,6.5,6.9,10.5
				c2.5,5.9,4.9,13.8,11.8,15.8c4.5,1.3,9.7-0.7,13-3.8C986,624.5,987.6,618,987.5,612z" />
			</g>
			<g>
				<path fill="#291607" d="M800.2,707.2c-1-2.3-3.8-3.5-5.7-5c-2-1.5-4.1-3.3-5-5.7c-1.2-3-0.3-6.5-0.9-9.6
				c-0.9-5.2-4.4-10.2-8.3-13.5c-2.2-1.9-5.7-3.2-8.7-2.2c-2.5,0.9-3.4,4-4.1,6.3c-0.7,2.7-1.2,5.6-1.7,8.4
				c-0.5,2.9,1.6,6.1,3.2,8.4c2.4,3.3,5.2,6.2,8.4,8.8c2.6,2,5.2,4,7.7,6.1c2.4,1.9,4.6,4.1,7.8,4.6
				C796.6,714.2,802.1,711.8,800.2,707.2z" />
			</g>
			<g>
				<path fill="#291607" d="M852.9,680.7c-0.6-5.8-10.3-7.6-14.9-8.2h-0.1h-0.1c-2.9-0.3-6.7,0.2-8.9,2.3c-1.9,1.7-2.1,4.3-1.7,6.7
				c0.9,4.7,3.8,9.7,6.9,13.4c1.6,1.9,3.8,3.9,6.5,3.6c2-0.2,3.6-1.4,4.2-3.4c0.5-1.6,0.1-3.2,0.6-4.8c0.6-1.9,2-3,3.6-4.1
				C851.1,684.8,853.1,683.5,852.9,680.7z" />
			</g>
			<g>
				<path fill="#291607" d="M861.6,570.4c-1.6-1.7-3.9-1.5-6-1.6c-3.2-0.1-6.4-0.2-9.6-0.4c-6.2-0.2-12.3-0.5-18.5-0.7
				c-0.2,0-0.4-0.1-0.7,0c-0.4,0-0.7,0.1-1,0.2c-5.9,1.8-1.4,10.1,2.2,12.3c3.9,2.4,8.7,2.9,13.2,2.9c5.2,0.1,11.1-0.2,16-2.2
				C861.2,579.3,865.4,574.5,861.6,570.4z" />
			</g>
			<g>
				<path fill="#291607" d="M909.2,568.6c-3.7-1.2-8-0.7-11.8-0.8c-0.1,0-0.2,0-0.2,0c-4.9,0.3-8.6,4.6-11.3,8.4
				c-3.5,4.8-5.3,10.6-4.5,16.5c0.8,5.8,3.9,12,8.1,16c1.6,1.5,4.9,3.6,7.1,2.7c2.2-0.8,2.8-4.4,3.3-6.4c0.9-3.6,1.6-7.3,2.7-10.8
				c1-3.1,2.3-6.8,5.1-8.7c1.5-1,3.4-1,5-1.9c1.9-1.1,3.2-3,3.6-5.2C917.3,573.4,913.6,570,909.2,568.6z" />
			</g>
			<g>
				<path fill="#291607" d="M931.9,643.4c-0.1-0.1-0.2-0.2-0.3-0.3s-0.2-0.2-0.4-0.2c-4.2-2.2-9.4-4.5-14.2-4.3
				c-10.2,0.5-4.1,12.4-5,18.3c-0.5,3.3-2.6,6.1-3.1,9.3c-0.6,3.8,2.6,7,5.3,9.2c6.4,5.2,14.6,1.3,19-4.5
				C939.7,662.5,939.7,651,931.9,643.4z" />
			</g>
			<g>
				<path fill="#291607"
					d="M996.1,652.2c-1-2.6-3.3-5.5-6.1-6c-6.8-1.1-9.7,8.8-10.9,13.7c-1.7,7.2-1.7,14.7-2.8,22
				c0,0.2,0,0.3,0,0.4c0,2.9,1.9,4.5,5,4.4c2.8-0.1,3.9-3.1,5.2-5.3c4-6.5,7.2-13.7,9.1-21C996.3,657.8,997.1,654.8,996.1,652.2z" />
			</g>
			<g>
				<path fill="#291607" d="M961.1,715.1c-0.3-2-1.2-4-1.9-5.9c-1-2.8-2.1-5.6-3.4-8.3c-2.2-4.8-4.7-10.2-8.8-13.8
				c-4.6-4.1-11.3-1.1-14.5,3.5c-1.6,2.3-0.1,5.7,0.7,8.1c1.4,4,3.1,8,3.6,12.3c0.3,2.6,0.1,5.2-1,7.6c-1.1,2.4-2.6,4.5-2.7,7.2
				c-0.1,4.3,3.9,5.3,7.4,4.4c0.2,0,0.4-0.1,0.5-0.2c4.8-1.7,9.4-3.9,13.6-6.9C957.4,721.4,961.6,718.9,961.1,715.1z" />
			</g>
		</g>
		<g clip-path="url(#SVGID_1_)">
			<g>
				<path fill="#FFBD31"
					d="M337,622.8c-2.6-18.1-10.3-34.3-18.6-50.5c-8.4-16.5-16.6-33.1-24.5-49.8c-3.1-6.4-5.9-13.2-9.7-19.2
				c-2.8-4.4-6.5-7.9-10.2-11.5c-3.9-3.7-7.7-7.6-11.7-11.1c-8.4-7.5-18-13.8-28.3-18.3c-9.8-4.3-20.5-7.1-31.2-6.7
				c-9.4,0.4-17.7,3.9-26.2,7.6c-12.3,5.4-23.5,12.3-26.7,26.2c-2.1,9.2-1,19,0.5,28.1c0.2,1.1,1.1,1.7,2.1,1.8
				c4.4,0.5,8.8,1.4,13.1,2.4c7.4,1.8,15.6,4.1,21.7,9.1c2.5,2.1,4.6,4.8,4.7,8.1c0.1,1.8-0.5,3.5-1.1,5.1c-1.5,3.7-3.1,7.3-4.5,11
				c-4.4,11.7-7.2,24.1-0.9,35.8c2.6,4.8,7.9,8.8,8.4,14.4c0.4,4-1.5,7.9-3.8,11.1c-4.6,6.6-11.4,11.8-18.2,16.1
				c-7.6,4.8-13.3,12.1-17.7,20c-5.1,9.2-7.9,19.6-7.4,30.2c0.6,14.8,7.3,28.3,16.1,39.9c-2.6,0.7-5.8,0.4-8.5-0.9
				c-4.3-2-7.5-5.9-10-9.8c-4.9-7.7-7.8-16.7-10-25.5c-2.5-9.8-4.4-19.8-4.8-29.9c-0.3-6.5-0.1-13.4,2-19.6c1-3,2.7-7,5.9-8.2
				c1-0.4,2-0.4,3.1,0c2.7,0.9,4.7,3.1,7.5,3.9c7.1,2.1,13.1-4.6,11.5-11.7c-1.1-5.1-7.5-7.6-12.1-8.3c-8.3-3.1-19.1-2.1-25.1,5
				c-6.3,7.4-6.7,18.8-7.3,28.2c-1.3,20.9,0.5,43.3,9.8,62.3c5.1,10.4,12.6,19.5,22.5,25.7c11.8,7.5,26,10.1,39.8,9.9
				c15.5-0.2,31.5-3.6,46.5-7.8c19.3-5.4,38.2-12.8,55.3-23.4c19.6-12.1,37.2-28.9,44.9-51.1C338,649,338.9,635.7,337,622.8z" />
			</g>
			<g>
				<path fill="#040100" d="M169.5,475.5c-1.4-6.9-5.3-15.5-12.7-17.5c-6.3-1.7-12.9,2.2-17.1,6.7c-4.4,4.8-4.8,10.9-1.4,16.4
				c2.3,3.8,5.8,7,9.5,9.4c0.5,0.4,1.3,0.4,1.9,0.2c0.3,0,0.6-0.1,0.8-0.3c6.2-4.7,12.4-9.4,18.7-14.1
				C169.4,476.2,169.5,475.9,169.5,475.5z" />
			</g>
			<g>
				<path fill="#FFFFFF" d="M165.4,476.6c-1.3-6.4-5.7-12.7-13-9.8c-4.5,1.8-9.3,6.3-7.6,11.5c1,3.2,3.8,6,6.6,7.8
				c0.2,0.2,0.7,0.1,1.2-0.1c0.3-0.1,0.6-0.2,0.8-0.3c3.9-2.9,7.8-5.9,11.7-8.8C165.2,476.9,165.4,476.8,165.4,476.6z" />
			</g>
			<g>
				<path fill="#C99732" d="M204.3,596.3c-1.3-9.3-3-18.6-3.9-28c-0.4-4.6-0.7-9.2-0.6-13.8c0.1-5.1,0.9-10.2,1.2-15.4
				c0.8-13.4,0.4-27.5-3.4-40.4c-0.2-0.5-0.3-1.1-0.5-1.6l0,0c0,0,0-0.1-0.1-0.2c-0.2-0.3-0.7-0.5-1.3-0.7c-1-0.4-2.3-0.7-2.4-0.4
				c-3.1,8.6-6.3,17.2-9.4,25.9c-0.6,1.8-1.5,3.5-1.9,5.4c-0.6,2.1,0.8,3.7,1.2,5.9c1,6.9-1.9,12.9-3.9,19.2
				c-4.2,13.4-6.1,28.7-0.2,41.9c2,4.5,5.5,8.8,5.4,13.9c-0.1,7.3-5.2,14-9.8,19.3c-5.3,6.1-10.9,11.8-15.9,18.1
				c-0.5,0.7-3.2,3.2-3,4.3c0.2,1,3.2,1.7,3.9,2c13.6,4.9,27.3-0.3,37.3-10.2C208.8,630.1,206.4,611.3,204.3,596.3z" />
			</g>
			<g>
				<path fill="#FFC03A" d="M214.6,503.3c-2.3-13.5-11.5-31.3-27.3-31.4c-9.7-2.1-21.5-2-30.2,3.1c-8,4.7-10.5,13.1-11.1,21.9
				c-0.5,8.6,0,17.6,3.8,25.5c8.3,16.9,30.6,19.6,47,15.3C212.4,533.6,217,517.6,214.6,503.3z" />
			</g>
			<g>
				<g>
					<g>
						<path fill="#FFFFFF" d="M177.6,514.6c0,0-0.6,13.5-6.1,8.6C166,518.3,174.5,508.5,177.6,514.6z" />
					</g>
				</g>
				<g>
					<g>
						<path fill="#FFFFFF"
							d="M177.6,514.6c0,0,0.6,13.5,6.1,8.6C189.3,518.3,180.7,508.5,177.6,514.6z" />
					</g>
				</g>
			</g>
			<g>
				<g>
					<path fill="#FFFFFF" d="M151.9,500.4c0,0,9.1-11.1,19.6,1.3C171.5,501.7,160.3,510.2,151.9,500.4z" />
				</g>
			</g>
			<g>
				<path fill="#040100" d="M167.2,500.9c-0.2-0.9-0.5-1.7-0.9-2.4c-0.6-0.9-1.1-1-1.5-1c-0.4,0.1-0.8,0.4-1,1.4
				c-0.1,0.7-0.1,1.6,0.1,2.5c0.3,1.7,1.2,3.3,2.1,3.3c0.1,0,0.1,0,0.2,0C167.3,504.7,167.5,502.7,167.2,500.9z" />
			</g>
			<g>
				<g>
					<path fill="#FFFFFF" d="M187.1,500.4c0,0,7.8-10.5,18.3,2C205.4,502.4,195.6,510.2,187.1,500.4z" />
				</g>
			</g>
			<g>
				<path fill="#040100" d="M202.4,500.9c-0.2-0.9-0.5-1.7-0.9-2.4c-0.6-0.9-1.1-1-1.5-1c-0.4,0.1-0.8,0.4-1,1.4
				c-0.1,0.7-0.1,1.6,0.1,2.5c0.3,1.7,1.2,3.3,2.1,3.3c0.1,0,0.1,0,0.2,0C202.6,504.7,202.8,502.7,202.4,500.9z" />
			</g>
			<g>
				<g>
					<path fill="#FFFFFF"
						d="M171.5,471.6c0,0,1.8,42.9,3.7,45.4h5.5l6.1-44.4C186.7,472.6,173.9,469.8,171.5,471.6z" />
				</g>
			</g>
			<g>
				<path fill="#1A1B1F" d="M181.7,508.3c-2.7,0-5.3,0-8,0c-0.1,0-0.2,0-0.2,0s0,0,0,0.1c0.1,1.3,0.2,2.5,0.3,3.7
				c0.1,1.3,0.1,3.5,0.7,4.6c0.4,0.7,1.1,0.5,1.9,0.5c1.5,0,2.9,0,4.4,0c0.1,0,0.2,0,0.2-0.1c0.4-2.9,0.8-5.7,1.2-8.6
				C182.3,508.3,181.9,508.3,181.7,508.3z" />
			</g>
			<g>
				<g>
					<path fill="#1A1B1F" d="M182.5,516c0-0.3-0.2-0.5-0.5-0.5s-0.5,0.2-0.5,0.5s0.2,0.5,0.5,0.5C182.3,516.4,182.5,516.2,182.5,516z
					" />
				</g>
				<g>
					<path fill="#1A1B1F"
						d="M180.2,518c-0.3,0-0.5,0.2-0.5,0.5s0.2,0.5,0.5,0.5s0.5-0.2,0.5-0.5S180.5,518,180.2,518z" />
				</g>
				<g>
					<path fill="#1A1B1F" d="M182.2,517.8c0,0.3,0.2,0.5,0.5,0.5s0.5-0.2,0.5-0.5s-0.2-0.5-0.5-0.5
					C182.4,517.4,182.2,517.6,182.2,517.8z" />
				</g>
				<g>
					<path fill="#1A1B1F" d="M182.7,519.2c-0.3,0-0.5,0.2-0.5,0.5s0.2,0.5,0.5,0.5s0.5-0.2,0.5-0.5
					C183.1,519.4,182.9,519.2,182.7,519.2z" />
				</g>
			</g>
			<g>
				<g>
					<path fill="#1A1B1F"
						d="M174.7,518c-0.3,0-0.5,0.2-0.5,0.5s0.2,0.5,0.5,0.5s0.5-0.2,0.5-0.5S175,518,174.7,518z" />
				</g>
				<g>
					<path fill="#1A1B1F" d="M173.5,515.5c-0.3,0-0.5,0.2-0.5,0.5s0.2,0.5,0.5,0.5s0.5-0.2,0.5-0.5
					C173.9,515.7,173.7,515.5,173.5,515.5z" />
				</g>
				<g>
					<path fill="#1A1B1F" d="M171.6,517.4c-0.3,0-0.5,0.2-0.5,0.5s0.2,0.5,0.5,0.5s0.5-0.2,0.5-0.5
					C172.1,517.6,171.9,517.4,171.6,517.4z" />
				</g>
				<g>
					<path fill="#1A1B1F" d="M172.9,519.2c-0.3,0-0.5,0.2-0.5,0.5s0.2,0.5,0.5,0.5s0.5-0.2,0.5-0.5
					C173.3,519.4,173.1,519.2,172.9,519.2z" />
				</g>
			</g>
			<g>
				<g>
					<g>
						<path fill="#1A1B1F" d="M157.1,511.9h-24.8c-0.2,0-0.4-0.2-0.4-0.4c0-0.2,0.2-0.4,0.4-0.4h24.8c0.2,0,0.4,0.2,0.4,0.4
						C157.5,511.7,157.3,511.9,157.1,511.9z" />
					</g>
				</g>
				<g>
					<g>
						<path fill="#1A1B1F" d="M134.9,523.7c-0.2,0-0.3-0.1-0.4-0.3c-0.1-0.2,0-0.4,0.2-0.5l21.6-7.2c0.2-0.1,0.4,0,0.5,0.2
						s0,0.4-0.2,0.5l-21.6,7.2C135,523.7,134.9,523.7,134.9,523.7z" />
					</g>
				</g>
				<g>
					<g>
						<path fill="#1A1B1F" d="M145.3,530.8c-0.1,0-0.2,0-0.3-0.1c-0.1-0.2-0.1-0.4,0-0.6l11.8-10.5c0.2-0.1,0.4-0.1,0.6,0
						c0.1,0.2,0.1,0.4,0,0.6l-11.8,10.5C145.5,530.8,145.4,530.8,145.3,530.8z" />
					</g>
				</g>
			</g>
			<g>
				<g>
					<g>
						<path fill="#1A1B1F" d="M228.6,509.6h-24.8c-0.2,0-0.4-0.2-0.4-0.4c0-0.2,0.2-0.4,0.4-0.4h24.8c0.2,0,0.4,0.2,0.4,0.4
						S228.8,509.6,228.6,509.6z" />
					</g>
				</g>
				<g>
					<g>
						<path fill="#1A1B1F" d="M226,521.4h-0.1l-21.6-7.2c-0.2-0.1-0.3-0.3-0.2-0.5s0.3-0.3,0.5-0.2l21.6,7.2c0.2,0.1,0.3,0.3,0.2,0.5
						C226.3,521.3,226.2,521.4,226,521.4z" />
					</g>
				</g>
				<g>
					<g>
						<path fill="#1A1B1F" d="M215.5,528.6c-0.1,0-0.2,0-0.3-0.1L203.5,518c-0.2-0.1-0.2-0.4,0-0.6c0.1-0.2,0.4-0.2,0.6,0l11.8,10.5
						c0.2,0.1,0.2,0.4,0,0.6C215.8,528.5,215.6,528.6,215.5,528.6z" />
					</g>
				</g>
			</g>
			<g>
				<g>

					<rect x="173.3" y="519.5" transform="matrix(2.915797e-03 -1 1 2.915797e-03 -342.7348 695.9973)"
						fill="#1A1B1F" width="8.7" height="0.8" />
				</g>
			</g>
			<g>
				<g>
					<g>
						<path fill="#1A1B1F" d="M171.9,529c0.6-1.2,1.6-2.4,2.7-3.2c3.6-2.8,7.1,0.2,9.5,3.1c0.3,0.4,1.8,0.3,1.5,0
						c-2.6-3.1-6.4-6.2-10.7-4.5c-2,0.8-3.6,2.5-4.6,4.4C170.2,529.1,171.7,529.4,171.9,529L171.9,529z" />
					</g>
				</g>
			</g>
			<g>
				<g>
					<g>
						<path fill="#1A1B1F" d="M174.1,523.7c-5.1-3.1-6.1-8.8-3.8-14.1c1.6-3.5,4-6,1.2-9.7c-6-7.7-14.7-5.2-21,0.8
						c-0.6,0.5,1.6,0.3,2.1-0.1c4.2-4.1,9.3-6.5,14.3-2.4c2.5,2,4.8,4.8,3.2,8.1c-1.3,2.8-2.9,5-3.2,8.2c-0.4,4.3,1.4,7.7,5.1,9.9
						C172.5,524.9,174.5,524,174.1,523.7L174.1,523.7z" />
					</g>
				</g>
			</g>
			<g>
				<g>
					<g>
						<path fill="#1A1B1F" d="M180.8,524.6c8.5-1.1,6.5-10.8,5.1-16.7c-0.9-3.9,0.4-6.9,3.8-9.3c4.6-3.2,10.8-0.9,14.2,3.8
						c0.3,0.5,2.5-0.3,2.1-0.8c-3.3-4.4-8-6.4-13.4-5.2c-3.7,0.8-7.9,3.5-9.1,7.2c-0.8,2.3,0,4.5,0.5,6.8c0.8,3.5,2.5,12.6-2.9,13.2
						C180.3,523.8,179.2,524.9,180.8,524.6L180.8,524.6z" />
					</g>
				</g>
			</g>
			<g>
				<path fill="#C99732" d="M161,623c0-0.2,0-0.4,0-0.5c-0.5-4.7-4.2-8.4-9.1-8.3c-4.9,0.1-9.1,4.3-9.1,9.2c0,4.8,4.1,8.8,8.9,8.8
				c5.1,0,8.8-3.9,9.3-8.8C160.9,623.3,161,623.1,161,623z" />
			</g>
			<g>
				<g>
					<circle cx="292.4" cy="564" r="3.9" />
				</g>
			</g>
			<g>
				<g>
					<path
						d="M251.1,541.6c0,1.8-1.3,3.3-2.9,3.3c-1.6,0-2.9-1.5-2.9-3.3s1.3-3.3,2.9-3.3S251.1,539.8,251.1,541.6z" />
				</g>
			</g>
			<g>
				<g>
					<path
						d="M268.8,539.9c0,0.9-0.7,1.6-1.6,1.6s-1.6-0.7-1.6-1.6c0-0.9,0.7-1.6,1.6-1.6C268,538.3,268.8,539,268.8,539.9z" />
				</g>
			</g>
			<g>
				<g>
					<path
						d="M282.1,586c0,2.1-1.7,3.9-3.9,3.9c-2.1,0-3.9-1.7-3.9-3.9c0-2.1,1.7-3.9,3.9-3.9S282.1,583.8,282.1,586z" />
				</g>
			</g>
			<g>
				<g>
					<path d="M291.6,534.4c0,2.2-1.8,3.9-3.9,3.9c-2.2,0-3.9-1.8-3.9-3.9c0-2.2,1.8-3.9,3.9-3.9C289.9,530.5,291.6,532.2,291.6,534.4
					z" />
				</g>
			</g>
			<g>
				<g>
					<path
						d="M307.4,587.6c2,0.8,3,3.1,2.2,5.1s-3.1,3-5.1,2.2s-3-3.1-2.2-5.1C303.1,587.7,305.4,586.8,307.4,587.6z" />
				</g>
			</g>
			<g>
				<g>
					<path
						d="M147.9,618.6c0,1.4-1.2,2.6-2.6,2.6c-1.4,0-2.6-1.2-2.6-2.6c0-1.4,1.2-2.6,2.6-2.6C146.8,616,147.9,617.2,147.9,618.6z" />
				</g>
			</g>
			<g>
				<g>
					<path
						d="M125.7,627.8c0,0.7-0.6,1.3-1.3,1.3c-0.7,0-1.3-0.6-1.3-1.3s0.6-1.3,1.3-1.3S125.7,627.1,125.7,627.8z" />
				</g>
			</g>
			<g>
				<g>
					<path
						d="M124.4,647c0,0.9-0.7,1.6-1.6,1.6s-1.6-0.7-1.6-1.6c0-0.9,0.7-1.6,1.6-1.6C123.7,645.4,124.4,646.1,124.4,647z" />
				</g>
			</g>
			<g>
				<g>
					<path
						d="M260.2,679c0,0.9-0.7,1.6-1.6,1.6s-1.6-0.7-1.6-1.6c0-0.9,0.7-1.6,1.6-1.6C259.5,677.3,260.2,678.1,260.2,679z" />
				</g>
			</g>
			<g>
				<g>
					<path d="M134.1,690.9c0,1.1-0.9,2-2,2s-2-0.9-2-2s0.9-2,2-2C133.3,688.9,134.1,689.8,134.1,690.9z" />
				</g>
			</g>
			<g>
				<g>
					<path d="M267.5,610c0,1.1-0.9,2-2,2s-2-0.9-2-2s0.9-2,2-2S267.5,608.9,267.5,610z" />
				</g>
			</g>
			<g>
				<g>
					<path
						d="M161.8,695.2c0,1.3-1,2.3-2.3,2.3s-2.3-1-2.3-2.3s1-2.3,2.3-2.3C160.8,693,161.8,694,161.8,695.2z" />
				</g>
			</g>
			<g>
				<g>
					<path d="M177.7,674.2c1.5,1.3,1.6,3.6,0.2,5.1c-1.3,1.5-3.6,1.6-5.1,0.2c-1.5-1.3-1.6-3.6-0.2-5.1
					C174,673,176.2,672.9,177.7,674.2z" />
				</g>
			</g>
			<g>
				<g>
					<path
						d="M184.5,700.6c0,2-1.6,3.6-3.6,3.6s-3.6-1.6-3.6-3.6s1.6-3.6,3.6-3.6S184.5,698.6,184.5,700.6z" />
				</g>
			</g>
			<g>
				<g>
					<path d="M292.6,680.7c0,1.1-0.9,2-2,2s-2-0.9-2-2s0.9-2,2-2S292.6,679.6,292.6,680.7z" />
				</g>
			</g>
			<g>
				<g>
					<path
						d="M330.7,638.5c1.1-0.2,2.1,0.5,2.3,1.5c0.2,1.1-0.5,2.1-1.5,2.3s-2.1-0.5-2.3-1.5C329,639.7,329.6,638.7,330.7,638.5z" />
				</g>
			</g>
			<g>
				<g>
					<path d="M216,619.3c1.1-0.2,2.1,0.5,2.3,1.5c0.2,1.1-0.5,2.1-1.5,2.3c-1.1,0.2-2.1-0.5-2.3-1.5
					C214.2,620.6,214.9,619.5,216,619.3z" />
				</g>
			</g>
			<g>
				<g>
					<path
						d="M215.3,687.9c0,1.6-1.3,2.9-2.9,2.9c-1.6,0-2.9-1.3-2.9-2.9s1.3-2.9,2.9-2.9S215.3,686.3,215.3,687.9z" />
				</g>
			</g>
			<g>
				<g>
					<path d="M230.2,665.7c0,1.1-0.9,2-2,2s-2-0.9-2-2s0.9-2,2-2C229.4,663.7,230.2,664.6,230.2,665.7z" />
				</g>
			</g>
			<g>
				<g>
					<circle cx="218.5" cy="645.4" r="3.3" />
				</g>
			</g>
			<g>
				<g>
					<path d="M200.8,646.1c0,1.4-1.2,2.6-2.6,2.6c-1.4,0-2.6-1.2-2.6-2.6c0-1.4,1.2-2.6,2.6-2.6C199.7,643.4,200.8,644.6,200.8,646.1
					z" />
				</g>
			</g>
			<g>
				<g>
					<circle cx="198.7" cy="666.3" r="2.6" />
				</g>
			</g>
			<g>
				<g>
					<path
						d="M241.3,614.8c0,1.8-1.5,3.3-3.3,3.3s-3.3-1.5-3.3-3.3s1.5-3.3,3.3-3.3C239.8,611.6,241.3,613,241.3,614.8z" />
				</g>
			</g>
			<g>
				<g>
					<path
						d="M254.3,591c0,1.8-1.5,3.3-3.3,3.3s-3.3-1.5-3.3-3.3s1.5-3.3,3.3-3.3C252.8,587.8,254.3,589.2,254.3,591z" />
				</g>
			</g>
			<g>
				<g>
					<path d="M223.7,497.9c0,1.3-1,2.3-2.3,2.3s-2.3-1-2.3-2.3s1-2.3,2.3-2.3S223.7,496.7,223.7,497.9z" />
				</g>
			</g>
			<g>
				<g>
					<path
						d="M189.1,487c0,0.5-0.4,1-1,1c-0.5,0-1-0.4-1-1c0-0.5,0.4-1,1-1C188.6,486,189.1,486.5,189.1,487z" />
				</g>
			</g>
			<g>
				<g>
					<path
						d="M216.4,541.4c0,1.4-1.2,2.6-2.6,2.6c-1.4,0-2.6-1.2-2.6-2.6c0-1.4,1.2-2.6,2.6-2.6C215.2,538.8,216.4,540,216.4,541.4z" />
				</g>
			</g>
			<g>
				<g>
					<path
						d="M168.2,488.7c0,0.7-0.6,1.3-1.3,1.3s-1.3-0.6-1.3-1.3c0-0.7,0.6-1.3,1.3-1.3C167.6,487.3,168.2,487.9,168.2,488.7z" />
				</g>
			</g>
			<g>
				<g>
					<path
						d="M298.9,549.7c0,0.7-0.6,1.3-1.3,1.3s-1.3-0.6-1.3-1.3s0.6-1.3,1.3-1.3S298.9,549,298.9,549.7z" />
				</g>
			</g>
			<g>
				<g>
					<path
						d="M151.9,490c0,0.7-0.6,1.3-1.3,1.3s-1.3-0.6-1.3-1.3c0-0.7,0.6-1.3,1.3-1.3C151.3,488.7,151.9,489.2,151.9,490z" />
				</g>
			</g>
			<g>
				<g>
					<path
						d="M179.4,469.3c-1.1,0-2.1-0.9-2.1-2.1c0-1.1,0.9-2.1,2.1-2.1c1.1,0,2.1,0.9,2.1,2.1S180.6,469.3,179.4,469.3z" />
				</g>
			</g>
			<g>
				<g>
					<path
						d="M165.5,475.6c0,0.7-0.6,1.3-1.3,1.3s-1.3-0.6-1.3-1.3c0-0.7,0.6-1.3,1.3-1.3C165,474.3,165.5,474.9,165.5,475.6z" />
				</g>
			</g>
			<g>
				<g>
					<path
						d="M226.3,468.1c0,0.9-0.7,1.6-1.6,1.6c-0.9,0-1.6-0.7-1.6-1.6s0.7-1.6,1.6-1.6C225.6,466.4,226.3,467.2,226.3,468.1z" />
				</g>
			</g>
			<g>
				<g>
					<path d="M272,518.3c1.4,1.2,1.5,3.3,0.3,4.6c-1.2,1.4-3.3,1.5-4.6,0.3c-1.4-1.2-1.5-3.3-0.3-4.6
					C268.5,517.2,270.6,517.1,272,518.3z" />
				</g>
			</g>
			<g>
				<g>
					<path d="M260.6,561.2c1.4,1.2,1.5,3.3,0.3,4.6c-1.2,1.4-3.3,1.5-4.6,0.3c-1.4-1.2-1.5-3.3-0.3-4.6
					C257.1,560.1,259.2,560,260.6,561.2z" />
				</g>
			</g>
			<g>
				<g>
					<path
						d="M313.8,654.7c1.4,1.2,1.5,3.3,0.3,4.6c-1.2,1.4-3.3,1.5-4.6,0.3c-1.4-1.2-1.5-3.3-0.3-4.6S312.4,653.5,313.8,654.7z" />
				</g>
			</g>
			<g>
				<g>
					<path d="M281,663c1.4,1.2,1.5,3.3,0.3,4.6c-1.2,1.4-3.3,1.5-4.6,0.3c-1.4-1.2-1.5-3.3-0.3-4.6C277.6,661.9,279.6,661.8,281,663z
					" />
				</g>
			</g>
			<g>
				<g>
					<path d="M299.6,694.3c1.4,1.2,1.5,3.3,0.3,4.6c-1.2,1.4-3.3,1.5-4.6,0.3c-1.4-1.2-1.5-3.3-0.3-4.6
					C296.2,693.2,298.2,693.1,299.6,694.3z" />
				</g>
			</g>
			<g>
				<g>
					<path
						d="M289.3,609c1.4,1.2,1.5,3.3,0.3,4.6c-1.2,1.4-3.3,1.5-4.6,0.3c-1.4-1.2-1.5-3.3-0.3-4.6S288,607.9,289.3,609z" />
				</g>
			</g>
			<g>
				<g>
					<path d="M251.4,631.2c1.4,1.2,1.5,3.3,0.3,4.6c-1.2,1.4-3.3,1.5-4.6,0.3c-1.4-1.2-1.5-3.3-0.3-4.6
					C248,630.1,250.1,630,251.4,631.2z" />
				</g>
			</g>
			<g>
				<g>
					<path d="M318.5,674.6c1.4,1.2,1.5,3.3,0.3,4.6c-1.2,1.4-3.3,1.5-4.6,0.3c-1.4-1.2-1.5-3.3-0.3-4.6
					C315.1,673.5,317.2,673.4,318.5,674.6z" />
				</g>
			</g>
			<g>
				<g>
					<path
						d="M295.3,644.8c1.4,1.2,1.5,3.3,0.3,4.6c-1.2,1.4-3.3,1.5-4.6,0.3c-1.4-1.2-1.5-3.3-0.3-4.6S293.9,643.6,295.3,644.8z" />
				</g>
			</g>
			<g>
				<g>
					<path d="M220.8,585.3c1.4,1.2,1.5,3.3,0.3,4.6c-1.2,1.4-3.3,1.5-4.6,0.3c-1.4-1.2-1.5-3.3-0.3-4.6
					C217.4,584.2,219.4,584.1,220.8,585.3z" />
				</g>
			</g>
			<g>
				<g>
					<path
						d="M247.9,481.5c0,1.8-1.5,3.3-3.3,3.3s-3.3-1.5-3.3-3.3s1.5-3.3,3.3-3.3S247.9,479.7,247.9,481.5z" />
				</g>
			</g>
			<g>
				<g>
					<path d="M249.6,511c0,1.1-0.9,2-2,2s-2-0.9-2-2c0-1.1,0.9-2,2-2C248.7,509,249.6,509.9,249.6,511z" />
				</g>
			</g>
			<g>
				<g>
					<path
						d="M236.2,518.9c0,1.6-1.3,2.9-2.9,2.9c-1.6,0-2.9-1.3-2.9-2.9c0-1.6,1.3-2.9,2.9-2.9S236.2,517.3,236.2,518.9z" />
				</g>
			</g>
			<g>
				<g>
					<circle cx="253.4" cy="493.6" r="2.3" />
				</g>
			</g>
			<g>
				<g>
					<path
						d="M275.9,498c0,1.4-1.1,2.5-2.5,2.5s-2.5-1.1-2.5-2.5s1.1-2.5,2.5-2.5S275.9,496.6,275.9,498z" />
				</g>
			</g>
			<g>
				<g>
					<path
						d="M159,659.8c0,1.4-1.2,2.6-2.6,2.6c-1.4,0-2.6-1.2-2.6-2.6c0-1.4,1.2-2.6,2.6-2.6C157.9,657.2,159,658.3,159,659.8z" />
				</g>
			</g>
			<g>
				<g>
					<path
						d="M318.4,581.1c0,0.9-0.7,1.6-1.6,1.6s-1.6-0.7-1.6-1.6c0-0.9,0.7-1.6,1.6-1.6C317.7,579.4,318.4,580.2,318.4,581.1z" />
				</g>
			</g>
			<g>
				<g>
					<path
						d="M328.9,612.4c0,1.3-1,2.3-2.3,2.3s-2.3-1-2.3-2.3s1-2.3,2.3-2.3C327.8,610.1,328.9,611.2,328.9,612.4z" />
				</g>
			</g>
			<g>
				<g>
					<path d="M151.9,629.7c0,1.1-0.9,2-2,2s-2-0.9-2-2s0.9-2,2-2C151,627.8,151.9,628.6,151.9,629.7z" />
				</g>
			</g>
			<g>
				<g>
					<circle cx="197.6" cy="482.8" r="2" />
				</g>
			</g>
			<g>
				<g>
					<path d="M311.6,621c0,2.8-2.2,5-5,5s-5-2.2-5-5s2.2-5,5-5S311.6,618.3,311.6,621z" />
				</g>
			</g>
			<g>
				<g>
					<path
						d="M256.2,657.5c0,1.7-1.4,3.2-3.2,3.2s-3.2-1.4-3.2-3.2c0-1.7,1.4-3.2,3.2-3.2S256.2,655.7,256.2,657.5z" />
				</g>
			</g>
			<g>
				<g>
					<path d="M278.9,635c0,2-1.6,3.6-3.6,3.6s-3.6-1.6-3.6-3.6s1.6-3.6,3.6-3.6S278.9,633,278.9,635z" />
				</g>
			</g>
			<g>
				<g>
					<path
						d="M240.8,694.1c0,2.5-2,4.5-4.5,4.5s-4.5-2-4.5-4.5s2-4.5,4.5-4.5C238.7,689.6,240.8,691.6,240.8,694.1z" />
				</g>
			</g>
			<g>
				<g>
					<path
						d="M222.2,567.7c-2.3-1-3.4-3.8-2.4-6.1s3.8-3.4,6.1-2.4s3.4,3.8,2.4,6.1S224.6,568.7,222.2,567.7z" />
				</g>
			</g>
			<g>
				<g>
					<path
						d="M118.2,673.1c-1.5-0.7-2.2-2.4-1.5-3.9s2.4-2.2,3.9-1.5s2.2,2.4,1.5,3.9C121.5,673.1,119.7,673.8,118.2,673.1z" />
				</g>
			</g>
			<g>
				<g>
					<path
						d="M272.8,705.1c-2.2-1-3.2-3.5-2.2-5.7s3.5-3.2,5.7-2.2s3.2,3.5,2.2,5.7C277.6,705,275,706,272.8,705.1z" />
				</g>
			</g>
		</g>
		<g clip-path="url(#SVGID_1_)">
			<g>
				<path fill="#4A5D66"
					d="M1101.2,418.3L1101.2,418.3c-0.5-0.4-1.6-0.1-2.5,0.2c-0.5,0.1-1,0.3-1.3,0.5
				c-15.8,7-30.9,16.7-44.4,27.3c-11.7,9.2-22.5,19.7-30.9,32c-7.9,11.6-14.7,26.2-14.8,40.5c0,3.6,1.2,7.4,3.3,10.2
				c4.2,5.6,11.4,5.9,17.7,4.8c-1.4,6.8-1.7,16.8,4.6,21.1c6.1,4.2,15.1,1.2,21.2-1.4c6.5-2.7,11.7-6.6,16-12.3
				c9.7-12.7,14.7-29,18.7-44.2c4.4-16.6,7.4-33.6,9.7-50.6c1.3-9.3,2.4-18.7,3-28C1101.6,418.5,1101.4,418.4,1101.2,418.3z" />
			</g>
			<g>
				<path fill="#8FA1AB" d="M1347.7,534.8c-4.7-29.2-22.8-57.1-48.3-72.3c-22.7-13.6-49.2-14.8-74.9-15.6c-12-0.3-24.3-0.6-36.1-3.4
				c-3.3-0.8-7.6-1.6-10.1-3.3c-1.9-1.3-3.6-2.8-5.5-4.1c-17.2-12.2-38.1-21.6-59.5-21.8c-13.1-0.1-25.7,4.2-35.7,12.7
				c-11.7,9.9-19.7,24.2-25.1,38.4c-10.7,27.8-10.3,58.4-1.7,86.6c10.3,33.7,31,63.4,55.5,88.3c7,7.2,14.5,14,22.1,20.5
				c0.2,14.7,0.5,29.5,0.7,44.2c0,2.1,0.1,4.3,0.1,6.4c0,0.9,3.3,1.2,3.9,1.1c3.4-0.1,6.9-0.2,10.3-0.4c0.1,0,0.7,0,0.7-0.2
				c1.3-11.3,2.6-22.5,3.9-33.8c1,8.6,2,17.2,3,25.7c0.3,2.2,0.5,4.5,0.8,6.7c0.1,0.9,3.2,1.2,3.9,1.1c4.1-0.1,8.1-0.3,12.2-0.4
				c0,0,0.7,0,0.7-0.2c0-9.1,0-18.2-0.1-27.3c19.6,6.1,41.1,5.3,61.2,2.6c19-2.5,37.8-7,56-12.8c2.1-0.6,4.1-1.3,6.2-2
				c-1.4,10.1-2.7,20.2-4.1,30.4c-0.1,0.8,3.3,1.2,3.9,1.1c2.2-0.1,4.3-0.2,6.5-0.2c0.9,0,2.9,0.3,3.7-0.3c0.7-0.5,1.2-2,1.6-2.6
				c3.2-5.6,6.3-11.2,9.2-16.9c10.8-21.2,20-43.2,26.7-66C1347.3,590.7,1352.2,562.3,1347.7,534.8z" />
			</g>
			<g>
				<path fill="#4A5D66" d="M1224.9,511.9c-4.9-6.8-10.5-13.4-16.6-19.4c5.9,2.7,12.2,4.9,18.4,5.3c4.5,0.2,8.9-1.4,9-6.5
				c0.1-6-2.9-12.5-6-17.6c-7.5-12.4-19.4-21.7-31.4-29.3c-12-7.5-24.8-13.6-38-18.8c-7-2.8-14.2-5.4-21.5-7.5
				c-0.9-0.4-1.8-0.4-2,0.4c-5.4,16.9-9.4,34.4-12.8,51.8c-3.1,15.8-5.5,31.8-6.6,47.8c-1.1,15.6-1.2,31.5,1.5,46.9
				c2.3,13.2,6.8,26.5,15.9,36.6c8.7,9.6,22,15.6,35,15.6c26,0,23.8-33,21.1-50.8c-1.6-10.7-4.1-21.3-7-31.7c5.5,10,12.3,20,21.8,26
				c4.8,3,10.4,4.9,16,3.3c6.3-1.7,11.7-6.9,14.2-12.8C1241.6,537.9,1232.6,522.5,1224.9,511.9z" />
			</g>
			<g>
				<path fill="#8FA1AB"
					d="M1051.9,474.9c0,0-19.8,104.2,7.3,205.8l10.3-0.4c0,0-8.2-98.5,15.2-128.5L1051.9,474.9z" />
			</g>
			<g>
				<path fill="#FFFFFF" d="M1065.7,467.4c0.1,3.4-1.7,6.2-4,6.3c-2.3,0.1-4.3-2.6-4.4-6s1.7-6.2,4-6.3
				C1063.6,461.3,1065.6,464,1065.7,467.4z" />
			</g>
			<g>
				<path fill="#FFFFFF" d="M1101.6,470.8c0.2,4.4-3.3,8.1-7.7,8.3c-4.4,0.2-8.1-3.3-8.3-7.7c-0.2-4.4,3.3-8.1,7.7-8.3
				S1101.4,466.4,1101.6,470.8z" />
			</g>
			<g>
				<path fill="#1D0104" d="M1094.3,474c-0.2-1.1-0.8-1.4-1.2-1.5c-0.3-0.1-1-0.1-1.7,0.8c-0.4,0.5-0.7,1.2-0.9,2
				c-0.4,1.9,0,3.5,1.1,3.7c0.1,0,0.2,0,0.3,0c1,0,1.9-1.2,2.3-2.9C1094.4,475.4,1094.5,474.6,1094.3,474z" />
			</g>
			<g>
				<path fill="#1D0104" d="M1061.9,467.9c-1.1-0.2-2.2,1-2.6,2.9c-0.2,0.8-0.2,1.6-0.1,2.2c0.2,1.1,0.8,1.4,1.2,1.5
				c0.1,0,0.2,0,0.3,0c0.4,0,0.9-0.2,1.4-0.9c0.4-0.5,0.7-1.2,0.9-2C1063.5,469.7,1063,468.2,1061.9,467.9z" />
			</g>
			<g>
				<path fill="#1D0104" d="M1124.3,402c-1.7,1.8-3.4,3.6-5.1,5.4c0-2.5,0.1-5.1,0.1-7.6c0-0.4-1.1-0.7-1.3-0.4c-1.3,2-2.7,4.1-4,6.1
				c-0.5-0.9-1.1-1.9-1.6-2.8c-0.1-0.2-1.4-0.7-1.4-0.3c0,1.5,0,3.1,0,4.6c0,2.8-0.7,5.9,1.9,7.8c1.2,0.9,2.8,1.2,4.2,0.5
				c1.7-0.8,3-2.5,4-4.1c1.2-1.7,2.1-3.6,3-5.5c0.5-1.1,1-2.3,1.5-3.4C1125.8,402,1124.5,401.7,1124.3,402z" />
			</g>
			<g>
				<g>
					<path fill="#FFFFFF" d="M1047,509.4c5.7,1.8,20.2,11.4,30.3,5.5L1047,509.4z" />
				</g>
				<g>
					<path fill="#FFFFFF" d="M1066.5,529.4l-19.9-4.9C1046.6,524.5,1054.4,532.7,1066.5,529.4z" />
				</g>
				<g>
					<path fill="#FFFFFF" d="M1061.2,540l-16-1.3C1045.2,538.7,1052.9,544,1061.2,540z" />
				</g>
				<g>
					<path fill="#FFFFFF" d="M1058.8,551.4l-13.2,0.5C1045.6,551.8,1050.5,555.4,1058.8,551.4z" />
				</g>
				<g>
					<path fill="#FFFFFF" d="M1059.3,565.5l-15,0.5C1046.1,565.9,1052.8,569.4,1059.3,565.5z" />
				</g>
				<g>
					<path fill="#FFFFFF" d="M1053.2,579.8l-8.5-0.6C1044.7,579.1,1046.7,582.8,1053.2,579.8z" />
				</g>
				<g>
					<path fill="#FFFFFF" d="M1052.7,591.1l-7.5,0.3C1045.1,591.4,1047.1,594.1,1052.7,591.1z" />
				</g>
				<g>
					<path fill="#FFFFFF" d="M1053,601.4l-7.5,0.3C1048.3,601.6,1049.3,603.4,1053,601.4z" />
				</g>
				<g>
					<path fill="#FFFFFF" d="M1055.2,609.8l-9.4,0.3C1045.8,610.2,1053.4,612.7,1055.2,609.8z" />
				</g>
				<g>
					<path fill="#FFFFFF" d="M1055.6,622l-7.5,0.3C1048.1,622.3,1051,625,1055.6,622z" />
				</g>
				<g>
					<path fill="#FFFFFF" d="M1057.9,632.3l-7.5,0.3C1050.4,632.6,1055.2,635.2,1057.9,632.3z" />
				</g>
				<g>
					<path fill="#FFFFFF" d="M1058.2,642.6l-7.5,0.3C1050.7,642.9,1054.6,645.6,1058.2,642.6z" />
				</g>
				<g>
					<path fill="#FFFFFF" d="M1058.6,653l-5.7-0.7C1052.9,652.2,1055,655.9,1058.6,653z" />
				</g>
				<g>
					<path fill="#FFFFFF" d="M1060.9,663.3l-5.6,0.2C1055.2,663.5,1059.1,666.1,1060.9,663.3z" />
				</g>
			</g>
			<g>
				<path fill="#FFFFFF" d="M1088,565.2c-0.4-1.9-1.7-3.5-3.7-3.7c-3.2-0.3-5.4,1.8-7.1,4.2c-3.8,5.7-8.2,10.5-13.6,14.5
				c-1,0.7-7.2,4.8-4.8,6.2c1.6,0.9,5-0.3,6.5-0.7c4.7-1.2,9.3-2.6,13.4-5.2C1083.5,577.4,1089.2,571.6,1088,565.2z" />
			</g>
			<g>
				<path fill="#FFFFFF" d="M1090.5,436.4c0,0.9,10.7,10,30.3,5.5L1090.5,436.4z" />
			</g>
		</g>
		<g clip-path="url(#SVGID_1_)">
			<path fill="#272525" d="M1080.7,408.4c-0.1,5.6,0.6,10.7,3.1,12.1c2.1,1.2,4.6,0.9,6.9,0.7c17.9-1.8,36-1.3,53.8,1.5
			c2-7.8,3.1-15.8,3.2-23.8c8.5,1.2,17.2,1.4,25.7,0.4c-0.6-3-3-5.4-5.2-7.5c-12.6-12.1-24.7-25.6-38.2-36.5
			c-1.5-1.2-3.2-2.5-5.2-2.6c-1.1,0-2.1,0.3-3.1,0.6c-6.6,2.1-13.2,3.6-19.7,6.1c-7.5,2.9-14.9,5.9-22.2,9.1
			c-6.4,2.8-11.7,7.2-18.5,9.5c-1.2,0.4-2.8,1.3-2.4,2.6c0.2,0.6,0.8,1,1.4,1.2c7.2,3.5,14.5,6.6,22.1,9.1
			C1082.5,390.9,1080.8,400.2,1080.7,408.4z" />
			<g>
				<path fill="#EAC52D" d="M1172.7,414.3v1.2c-9.5-0.1-19.2-5.3-29.7-15.8c-1.8-1.8-3.6-3.7-5.3-5.5c-6-6.3-12.2-12.9-19.8-17l0.6-1
				c7.9,4.2,14.1,10.8,20.1,17.2c1.7,1.8,3.5,3.7,5.3,5.5C1154,409.1,1163.5,414.2,1172.7,414.3z" />
			</g>
			<path fill="#EAC52D" d="M1173.3,419.9c4.1,1.4,8.3,2.6,12.5,3.6c0.3,0.1,0.7,0.1,0.9,0c0.2-0.2,0.3-0.4,0.4-0.7
			c0.9-3.3,1.7-6.6,2.3-10c0-0.3,0.1-0.6-0.1-0.8c-0.1-0.2-0.4-0.3-0.6-0.4c-1.1-0.3-2.1-0.6-3.2-0.9c-3.4-1-6.9-2-10.4-1.4
			C1168,410.4,1165.6,417.3,1173.3,419.9z" />
			<path fill="#EAC52D"
				d="M1164.9,414.7c0.4,2.2,3,4,5.4,2.4c3.9-2.7-0.4-8.7-4.1-5.6C1165,412.4,1164.7,413.6,1164.9,414.7z" />
			<path fill="#070707" d="M1115.8,377.4c2.4,2.2,6.8-0.2,5.3-3.5c-0.8-1.8-3.6-2.8-5.2-1.5C1114.5,373.7,1114.5,376.2,1115.8,377.4z
			" />
		</g>
		<g clip-path="url(#SVGID_1_)">
			<path fill="#272525" d="M753.7,332.3c-1.4,3-2.3,6-1.3,7.4c0.8,1.1,2.3,1.6,3.6,2.1c10.2,3.5,20,8.2,29.1,14.1
			c3-3.8,5.6-7.9,7.6-12.2c4.3,2.8,9.1,5,14,6.6c0.4-1.8-0.3-3.7-1-5.4c-3.9-9.8-7.2-20.1-11.9-29.5c-0.5-1.1-1.1-2.2-2.2-2.7
			c-0.6-0.3-1.2-0.4-1.8-0.4c-4.1-0.5-8.1-1.3-12.3-1.5c-4.8-0.3-9.6-0.4-14.4-0.5c-4.2-0.1-8.2,1.1-12.5,0.6c-0.8-0.1-1.9,0-2,0.8
			c0,0.4,0.2,0.7,0.5,1c3,3.7,6.3,7.2,9.8,10.5C759,323.2,755.8,327.8,753.7,332.3z" />
			<g>
				<path fill="#C1172C" d="M794.6,360.5l-0.4,0.6c-4.5-3.6-7.2-9.6-8.4-18.4c-0.2-1.5-0.4-3.1-0.5-4.6c-0.5-5.2-1.1-10.6-3.2-15.4
				l0.6-0.3c2.2,4.9,2.7,10.3,3.3,15.6c0.2,1.5,0.3,3.1,0.5,4.6C787.6,351.2,790.2,357.1,794.6,360.5z" />
			</g>
			<path fill="#C1172C" d="M792.8,363.4c1.4,2.2,3,4.3,4.7,6.3c0.1,0.1,0.3,0.3,0.5,0.3s0.3-0.1,0.4-0.2c1.6-1.2,3.2-2.5,4.7-3.9
			c0.1-0.1,0.3-0.2,0.3-0.4c0-0.2-0.1-0.3-0.2-0.4c-0.4-0.5-0.8-1.1-1.2-1.6c-1.3-1.7-2.6-3.5-4.4-4.5
			C793.8,357,790.1,359.4,792.8,363.4z" />
			<path fill="#C1172C"
				d="M790.7,357.9c-0.6,1.2,0,3,1.7,3.1c2.8,0.2,3-4.3,0.1-4.2C791.6,356.8,791,357.3,790.7,357.9z" />
			<path fill="#070707"
				d="M780.6,324.1c0.8,1.8,3.8,1.6,3.8-0.6c0-1.2-1.3-2.4-2.5-2.1C780.8,321.6,780.1,323,780.6,324.1z" />
		</g>
		<g clip-path="url(#SVGID_1_)">
			<path fill="#333131" d="M166.7,459.2c-1.3,4.5-1.9,8.8-0.1,10.6c1.4,1.4,3.5,1.8,5.5,2.1c15,2.5,29.7,6.9,43.6,13.1
			c3.3-5.9,6-12.2,7.8-18.7c6.7,2.9,13.7,4.9,20.9,6c0.2-2.6-1.2-5.1-2.6-7.3c-7.6-12.7-14.5-26.4-23.1-38.2c-1-1.3-2.1-2.8-3.6-3.2
			c-0.9-0.3-1.8-0.2-2.7-0.2c-5.8,0.3-11.6,0-17.4,0.7c-6.7,0.7-13.4,1.5-20.1,2.5c-5.9,0.8-11.2,3.3-17.2,3.6
			c-1.1,0.1-2.6,0.4-2.5,1.6c0,0.5,0.5,1,0.9,1.3c5.1,4.5,10.4,8.6,16,12.3C172,445.4,168.6,452.5,166.7,459.2z" />
			<g>
				<g>
					<path fill="#C1172C"
						d="M214.9,460.5c-0.8-1.7-1.7-3.5-2.5-5.3c-2-4.4-4.1-9-6.8-12.9c-0.2,0.2-0.5,0.4-0.7,0.6
					c2.7,3.9,4.7,8.4,6.8,12.9c0.8,1.7,1.6,3.5,2.5,5.3c4.9,10.1,10.3,15.7,16.4,17l0.2-1C224.9,475.8,219.7,470.4,214.9,460.5z" />
				</g>
				<path fill="#C1172C" d="M229.8,483.8c2.4,1.7,4.9,3.3,7.4,4.6c0.2,0.1,0.4,0.2,0.6,0.1c0.2-0.1,0.3-0.3,0.4-0.5
				c1.2-2.6,2.2-5.3,3.2-8c0.1-0.2,0.2-0.5,0.1-0.7c-0.1-0.2-0.2-0.3-0.4-0.4c-0.6-0.4-1.2-0.8-1.9-1.2c-2-1.3-4.1-2.6-6.4-2.5
				C228,475.3,225.3,480.6,229.8,483.8z" />
				<path fill="#C1172C"
					d="M225.3,478.4c-0.1,1.9,1.3,3.7,3.1,2.7c2.9-1.7,1.2-7.3-1.7-5.2C225.8,476.5,225.4,477.5,225.3,478.4z" />
			</g>
			<path fill="#262525"
				d="M201.1,444.4c1.7,2.2,5.7,0.8,4.9-2.2c-0.4-1.6-2.6-2.8-4.1-2C200.6,441.1,200.2,443.2,201.1,444.4z" />
		</g>
	</g>
</svg>