<svg xmlns="http://www.w3.org/2000/svg" viewBox="0 0 500 500"><rect x="25" y="25" width="450" height="450" rx="225" ry="225" fill="#c66" stroke="#fff" stroke-miterlimit="10" stroke-width="13.1"/><path d="M280.94 367.69c-71.07-3.09-112.06 33.17-122.61 87.78 28.01 12.52 59.01 19.53 91.68 19.53 41.38 0 80.12-11.22 113.44-30.72-11.93-34.98-41.52-74.81-82.5-76.6Z" fill="#ffcb7c"/><path d="M294.45 393.64c0-10.72-6.11-20.19-15.45-26-18.99-.64-35.82 1.55-50.44 6.18-4.97 5.45-7.97 12.33-7.97 19.82 0 17.68 16.53 32.01 36.93 32.01s36.93-14.33 36.93-32.01Zm-136.13 61.83a224.832 224.832 0 0 0 44.61 14.57c-2.18-37.72-11.83-56.76-20.59-66.34-12.11 14.08-20.13 31.68-24.02 51.77Zm158.35 9.45a224.205 224.205 0 0 0 46.77-20.64c-5.97-17.48-16.34-36.18-30.34-50.73-10.1 15.93-14.58 44.33-16.43 71.36Z" fill="#ffa439"/><ellipse cx="257.53" cy="388.3" rx="30.77" ry="26.67" fill="#d4d4d4"/><path d="M291.01 134.44S329.05 23.4 373.27 27.09c44.22 3.7 80.62 151.12 44.33 194.66" fill="#7f3d58"/><path d="M323.01 137.99s23.23-75.45 43.18-69.25c19.95 6.2 44.1 96.38 34.89 124.12" fill="#ff7878"/><path d="M232.15 139.39s-39.37-114.93-85.13-111.1c-45.77 3.83-83.44 156.41-45.88 201.46" fill="#7f3d58"/><path d="M199.04 143.06S175 64.97 154.35 71.39c-20.65 6.42-45.64 99.75-36.11 128.46" fill="#ff7878"/><path d="M72.12 290.03C69.86 156.92 140.15 114.53 289.03 121c183.06 7.96 181.81 246.52 61.68 268.99-89.69 16.78-276.33 32.98-278.59-99.96Z" fill="#d4d4d4"/><path d="M72.12 290.03C69.86 156.92 140.15 114.53 289.03 121c183.06 7.96 181.81 246.52 61.68 268.99-89.69 16.78-276.33 32.98-278.59-99.96Z" fill="#d4d4d4"/><path d="M311.22 139.44c13.14-15.46 47.92.77 35.55 16.23-12.37 15.46-49.78.51-35.55-16.23Zm-107.99 1.54c-13.14-15.46-47.92.77-35.55 16.23 12.37 15.46 49.78.51 35.55-16.23Zm97.94 45.6c-47.67 21.19-34.24 77.84-34.24 77.84 19.08 79.04 115.29 77.83 156.34 63.19 13.63-32.29 15.36-72.14 3.52-108.23-31.33-38.47-83.76-51.41-125.61-32.81Zm-91.71 1.55c-30.91-18.55-70.59-12.88-129.5 31.25-5.67 20.01-8.3 43.4-7.84 70.65.23 13.39 2.35 25.25 6.04 35.76 37.87 16.24 141.17 20.85 161.01-61.37 0 0 15.03-49.45-29.71-76.29Z" fill="#7f3d58"/><path d="M267.66 397.56s86.73 5.47 132.71-33.39m-289.61 5.47s55.13 41.35 135.36 28.55" fill="none" stroke="#502220" stroke-miterlimit="10" stroke-width="5.24"/><path d="M180.76 297.87c-18.97-.02-34.32-15.83-34.27-35.31l.04-18.67c.04-19.48 15.46-35.26 34.43-35.23 18.97.02 34.32 15.83 34.28 35.31l-.04 18.68c-.04 19.48-15.46 35.26-34.43 35.24" fill="#f8f8f8"/><path d="M215.23 243.96c.03-10.54-4.48-19.98-11.61-26.45-2.71-1.01-5.57-1.58-8.54-1.58-16.74-.02-30.35 17.15-30.4 38.35-.05 21.2 13.49 38.4 30.23 38.42 1.52 0 3-.18 4.46-.46 9.48-6.27 15.79-17.17 15.81-29.61l.04-18.68Z" fill="#502220"/><path d="M327.6 296.81c19.44.31 35.43-15.61 35.71-35.57l.28-19.13c.29-19.95-15.23-36.38-34.67-36.7-19.43-.31-35.42 15.61-35.71 35.57l-.28 19.13c-.29 19.96 15.23 36.38 34.66 36.7" fill="#f8f8f8"/><path d="M293.22 240.98c.15-10.8 4.93-20.39 12.34-26.89 2.79-.99 5.73-1.52 8.77-1.47 17.15.27 30.79 18.1 30.48 39.82-.32 21.72-14.47 39.1-31.62 38.83-1.56-.03-3.07-.24-4.56-.55-9.6-6.59-15.88-17.87-15.69-30.6l.28-19.13Z" fill="#502220"/><ellipse cx="255.63" cy="290.1" rx="51.91" ry="45.08" transform="rotate(-2.36 255.095 289.629)" fill="#f8f8f8"/><path d="M282.04 251.97c-4.16-12.68-50.48-12.12-51.26 2.77-.78 14.89 13 23.69 27.67 23.88 12.93.17 27.75-13.98 23.59-26.66Z" fill="#502220"/><path d="M262.73 247.42c-4.31-.36-9.76-.26-15.33 1.3m24.15.28s-1.88-.6-4.93-1.09" fill="none" stroke="#f8f8f8" stroke-miterlimit="10" stroke-width="2.62"/><path d="M258.35 258.85s-1.14 23.47.01 33.91" fill="none" stroke="#502220" stroke-miterlimit="10" stroke-width="3.93"/><g fill="none" stroke="#502220" stroke-miterlimit="10"><path d="M230.95 285.39s2.28 10.82 10.58 12.15c6.9 1.11 11.74-2.68 14.34-5.57 1.22-1.36 3.25-1.4 4.49-.06 2.74 2.93 7.84 6.66 14.65 3.98 10.47-4.12 9.53-11.25 9.53-11.25" stroke-width="3.93"/><path d="M229.06 288.35s.54-4.7 5.47-3.3m46.58.48s4.21-2.56 6.53 1.52" stroke-width="2.62"/></g></svg>