<svg version="1.1" id="Layer_1" xmlns="http://www.w3.org/2000/svg" x="0" y="0" viewBox="0 0 500 500" xml:space="preserve"><style>.st3{fill:#d4d4d4}.st4{fill:#7f3d58}.st5{fill:#ff7878}.st7{fill:#f8f8f8}.st8{fill:#502220}.st10{fill:none;stroke:#502220;stroke-width:3.93;stroke-miterlimit:10}</style><path d="M250 25c124.3 0 225 100.7 225 225-1.3 294.3-448.7 294.2-450 0C25 125.7 125.7 25 250 25z" fill="#c66" stroke="#fff" stroke-width="13.1" stroke-miterlimit="10"/><path d="M280.9 367.7c-71.1-3.1-112.1 33.2-122.6 87.8 62.8 29.5 146.5 24.7 205.1-11.2-11.9-35-41.5-74.8-82.5-76.6z" fill="#ffcb7c"/><path d="M294.5 393.6c0-10.7-6.1-20.2-15.5-26-19-.6-35.8 1.5-50.4 6.2-36.4 50 61.2 76 65.9 19.8zm-136.2 61.9c14.3 6.4 29.3 11.3 44.6 14.6-2.2-37.7-11.8-56.8-20.6-66.3-12.1 14-20.1 31.6-24 51.7zm158.4 9.4c16.3-5.1 32-12 46.8-20.6-6-17.5-16.3-36.2-30.3-50.7-10.2 15.9-14.7 44.3-16.5 71.3z" fill="#ffa439"/><path class="st3" d="M257.5 361.6c40.5.6 40.5 52.7 0 53.3-40.4-.6-40.4-52.6 0-53.3z"/><path class="st4" d="M291 134.4c79.3-234.6 177.5-20.1 126.6 87.3"/><path class="st5" d="M323 138s23.2-75.4 43.2-69.2c20 6.2 44.1 96.4 34.9 124.1"/><path class="st4" d="M232.1 139.4c-82.1-242.8-183.7-20.8-131 90.4"/><path class="st5" d="M199 143.1S175 65 154.3 71.4s-45.6 99.8-36.1 128.5"/><path class="st3" d="M72.1 290c-2.3-133.1 68-175.5 216.9-169 183.1 8 181.8 246.5 61.7 269C261 406.8 74.4 423 72.1 290z"/><path class="st3" d="M72.1 290c-2.3-133.1 68-175.5 216.9-169 183.1 8 181.8 246.5 61.7 269C261 406.8 74.4 423 72.1 290z"/><path class="st4" d="M311.2 139.4c13.1-15.5 47.9.8 35.5 16.2-12.3 15.5-49.7.6-35.5-16.2zm-108 1.6c-13.1-15.5-47.9.8-35.6 16.2s49.9.5 35.6-16.2zm98 45.6c-47.7 21.2-34.2 77.8-34.2 77.8 19.1 79 115.3 77.8 156.3 63.2 39.8-96.6-20.8-174.7-122.1-141zm-91.7 1.5c-30.9-18.6-70.6-12.9-129.5 31.2-7.6 27.9-12.7 75-1.8 106.4 37.9 16.2 141.2 20.9 161-61.4 0 .1 15-49.3-29.7-76.2z"/><path d="M267.7 397.6s86.7 5.5 132.7-33.4m-289.6 5.4s55.1 41.4 135.4 28.5" fill="none" stroke="#502220" stroke-width="5.24" stroke-miterlimit="10"/><path class="st7" d="M180.8 297.9c-48.2 0-46.7-89.6.2-89.2 48.1-.1 46.7 89.6-.2 89.2"/><path class="st8" d="M215.2 244c-1.3-45.5-51.3-30.2-50.5 10.3.4 42.7 48 54.5 50.5 8.3V244z"/><path class="st7" d="M327.6 296.8c49.4.8 49.4-91 1.3-91.4-49.3-.8-49.4 91-1.3 91.4"/><path class="st8" d="M293.2 241c2.1-46.6 53-30 51.6 11.5-4.6 53.7-60.4 52.5-51.6-11.5z"/><path class="st7" d="M253.8 245c68.3-1.7 71.9 86.2 3.7 90.1-68.3 1.7-71.9-86.2-3.7-90.1z"/><path class="st8" d="M282 252c-4.2-12.7-50.5-12.1-51.3 2.8-.8 32.8 57.3 30.2 51.3-2.8z"/><path d="M262.7 247.4c-4.3-.4-9.8-.3-15.3 1.3m24.2.3s-1.9-.6-4.9-1.1" fill="none" stroke="#f8f8f8" stroke-width="2.62" stroke-miterlimit="10"/><path class="st10" d="M258.4 258.9s-1.1 23.5 0 33.9"/><path class="st10" d="M230.9 285.4c1.7 11 15 17.8 24.9 6.6 4.9-4.4 8.3 8.7 19.1 3.9 10.5-4.1 9.5-11.2 9.5-11.2"/><path d="M229.1 288.4s.5-4.7 5.5-3.3m46.5.4s4.2-2.6 6.5 1.5" fill="none" stroke="#502220" stroke-width="2.62" stroke-miterlimit="10"/></svg>