<svg version="1.1" id="Layer_1" xmlns="http://www.w3.org/2000/svg" x="0" y="0" viewBox="0 0 500 500" xml:space="preserve"><style>.st1{fill:#ffa938}.st2{fill:#ffd07c}.st3{fill:#cb381d}.st4{fill:none;stroke:#502220;stroke-width:5.47;stroke-miterlimit:10}.st5{fill:#fff}.st6{fill:#502220}.st8{fill:none;stroke:#502220;stroke-width:4.1;stroke-miterlimit:10}</style><path d="M83.2 25h333.6C449 25 475 51.1 475 83.2v333.6c0 32.2-26.1 58.2-58.2 58.2H83.2C51.1 475 25 448.9 25 416.8V83.2C25 51.1 51.1 25 83.2 25z" fill="#c99" stroke="#fff" stroke-width="13.68" stroke-miterlimit="10"/><path class="st1" d="M276.3 374C185 370 141 395.5 140.7 475H367c3.8-45.7-23.7-98-90.7-101z"/><path class="st2" d="M311.5 475c-11.7-59.4-100.3-59.3-112 0h112z"/><path class="st1" d="M359.5 143.7c-9-112.3 161-11.4 35.4 24.9"/><path class="st3" d="M372.1 144.2c-7.2-71.4 95.6-19.5 18 15.3l-18-15.3z"/><path class="st1" d="M141.6 138.1c9-112.3-161-11.4-35.4 24.9"/><path class="st3" d="M129.1 138.7c7.2-71.4-95.6-19.5-18 15.3l18-15.3z"/><path class="st1" d="M48.2 289.2c-2.5-145.4 74.3-191.7 236.9-184.6 200 8.7 198.6 269.3 67.4 293.8-98 18.3-301.8 36-304.3-109.2z"/><path class="st3" d="M249.3 201.6c23 2.6 26.3-62.4 21.1-97.5-17.2-.4-33.2-.1-48.4.8-1.7 32.6 4.1 94.1 27.3 96.7zm-54.9-19.7c13.3-.7 13-49.4 11.9-75.7-14.2 1.4-27.5 3.6-39.7 6.5 4.2 23.8 14.2 69.9 27.8 69.2zm95-77c-10 87.8 22.2 109.8 40.6 6.6-12.5-3.5-26-5.7-40.6-6.6zM48.5 267c-.6 14.4-.8 31.5 2 45.5 55.9-25.1 69.8-61.5-2-45.5zM89 242.1c1.5-8.9-16.9-13.7-35.6-16.3-2 9.9-3.5 20.5-4.3 31.8 18.4-1.8 38.4-6 39.9-15.5zm355 15.8c-.5-10.9-2.1-21.8-4.6-32.4-57.3 6.1-44.4 29.8 4.6 32.4zm-5.8 53.9c3.9-14.1 5.9-29 6-44.2-70.7-17.1-64.4 17.3-6 44.2zm-4.3 13.2c-44.5-25.5-46.3-2.3-16 30.5 6.4-9.2 11.8-19.5 16-30.5z"/><path class="st4" d="M385.2 137.8s44.9 40.1 50.5 76m-319.4-80.9s-47.7 22.8-56 67.8"/><path class="st3" d="M54.1 326.4c3.9 11.8 9.6 22.1 16.7 31 32.7-34.9 30.2-58.9-16.7-31z"/><path class="st4" d="M63 343.3s26.5 67.4 143.4 63.2"/><path class="st5" d="M172.8 300.3c-50.9 2.4-55.4-82.7-2.9-83.4 50.8-2.4 55.4 82.6 2.9 83.4"/><path class="st6" d="M208.5 248.8c-3.3-43-57.1-26.2-54.8 11.1.7 21.6 19.1 38.4 39.2 34.5 17.8-10 17-28 15.6-45.6z"/><path class="st5" d="M325 295c51.7 3.8 59.9-83 5.9-85.4-51.7-3.8-59.9 83-5.9 85.4"/><path class="st6" d="M290.2 241.4c4.8-43.8 59.3-25.5 55.7 12.8-9.5 52.1-67.9 45.2-55.7-12.8z"/><path class="st4" d="M315.2 405.6s108.6-7.2 120.5-86.2"/><path class="st2" d="M247.9 259.3c74.6-1.9 78.4 90.6 3.9 94.9-74.5 1.9-78.3-90.6-3.9-94.9z"/><path class="st6" d="M278.2 264.1c-4.5-13.9-55.1-13.2-56 3-1 35.9 62.5 33.1 56-3z"/><path d="M257.1 259.1c-4.7-.4-10.7-.3-16.7 1.4m26.4.3s-2.1-.6-5.4-1.2" fill="none" stroke="#ecffe9" stroke-width="2.74" stroke-miterlimit="10"/><path class="st8" d="M252.3 288s-1.2 25.6 0 37"/><path class="st8" d="M223.1 319.2c1.8 12 16.4 19.4 27.2 7.2 1.3-1.5 3.5-1.5 4.9-.1 9 11.8 27.9.8 26.4-7.9"/><path d="M221.1 322.4s.6-5.1 6-3.6m50.8.5s4.6-2.8 7.1 1.7" fill="none" stroke="#502220" stroke-width="2.74" stroke-miterlimit="10"/></svg>