<svg version="1.1" id="Layer_1" xmlns="http://www.w3.org/2000/svg" x="0" y="0" viewBox="0 0 500 500" xml:space="preserve"><style>.st1{fill:#f8f8f8}.st2{fill:#47d2af}.st3{fill:#d4d4d4}.st4{fill:#bebebe}.st5,.st6{fill:none;stroke:#502220;stroke-width:3.45;stroke-miterlimit:10}.st6{stroke-width:4.6}.st8{fill:#502220}</style><path d="M245.6 52.6C354.6 52.6 443 141 443 250s-88.4 197.4-197.4 197.4S48.2 359 48.2 250 136.6 52.6 245.6 52.6z" fill="#f66" stroke="#fff" stroke-width="11.49" stroke-miterlimit="10"/><path class="st1" d="M272.1 353.4c-63.9-2.8-99 26.8-107.1 76.8 54.1 25.5 126.2 22 177.2-8.1-7.5-32.6-30-67-70.1-68.7z"/><path class="st2" d="M182.4 387.1c-2.4 3.2-4.6 6.5-6.5 10 62.5 16.2 125.3 4.5 155.7-3.3-2.2-4.1-4.7-8-7.4-11.7-54.8 17.3-108.2 12-141.8 5z"/><path class="st2" d="M172.5 404.1c-1.4 3.2-2.7 6.5-3.8 10 68.8 21.9 140.3 7.5 171.1-.8-1.4-4.3-3-8.6-4.9-12.8-65.8 22.8-130.5 11.8-162.4 3.6z"/><path class="st2" d="M341.7 419.8c-72.4 28.1-144.9 13.7-175.7 5.1-.4 1.7-.7 3.5-1 5.3 51.8 24.1 133.4 24.5 176.7-10.4z"/><path class="st3" d="M251.5 348.1c39.3.6 39.3 46.2 0 46.8-39.2-.6-39.2-46.2 0-46.8z"/><path class="st4" d="M314.2 220.2C273.2 82.7 513.4 69.1 494 202c-14.9 14.1-27.5 6.6-27.5 6.6s28.3 25.3 15.1 47.9c-13.2 22.6-29 15.8-29 15.8-5.1 91.6-157.3 38.3-138.4-52.1z"/><path class="st5" d="M476.5 166.3S410.9 95.9 335 178"/><path class="st4" d="M185.8 225.2C226.8 87.7-13.4 74.1 6 207c14.9 14.1 27.5 6.6 27.5 6.6S5.1 239 18.3 261.5s29 15.8 29 15.8c5.2 91.6 157.5 38.3 138.5-52.1z"/><path class="st5" d="M27.8 171.9s69.7-61.4 120.1-7.6"/><path class="st6" d="M33.5 213.6c-17.3 13.9-30.2 68.3 13.8 63.7 0 0-3.7 48.6 52.3 48.6"/><path class="st3" d="M88.9 285.3c-2-116.8 59.7-153.9 190.3-148.3 160.6 7 159.5 216.2 54.1 236-78.7 14.7-242.4 28.9-244.4-87.7z"/><path class="st6" d="M94.5 232.4s-3.1-78.4 110.6-92.5"/><path class="st1" d="M248.9 264.2c55.3-5.3 74.2 86.6 2.2 92-71.9 5.4-57.5-86.7-2.2-92z"/><path class="st5" d="M241.7 340.6s11.1 19.3 22.3-2.1"/><path d="M240.1 242.8c51.5-15.3 72.4 110.2-5.1 93.5-33.7-7.3-25.7-84.3 5.1-93.5z" fill="#7f3d58"/><path class="st6" d="M260.4 379.6s76.1 4.8 116.4-29.3m-254 4.8s48.4 36.3 118.7 25"/><path class="st1" d="M179.9 302.1c-42.3 0-41-78.6.2-78.3 42.3 0 41 78.6-.2 78.3"/><path class="st8" d="M210.2 254.8c-1.1-39.9-45-26.5-44.3 9.1 5.6 51.4 52.2 39.4 44.3-9.1z"/><path class="st1" d="M322.2 300.4c43.3.7 43.3-79.8 1.2-80.2-43.3-.7-43.4 79.9-1.2 80.2"/><path class="st8" d="M292 251.5c1.9-40.9 46.5-26.3 45.3 10.1-6.6 52.3-54.1 39.7-45.3-10.1z"/><path d="M295.5 147.9c35.5-55.8-103.4-72.2-87.1-3.1.1.1 51 16.7 87.1 3.1z" fill="#00bf96"/><path class="st5" d="M299.4 137.6c2.9 18.7-39.9 17.1-57.1 15.4"/><path d="M265.3 104.3s28.3 11.4 22.7 45.7" fill="none" stroke="#502220" stroke-width="2.99" stroke-miterlimit="10"/><path d="M250.3 98.3c1.1-4 17.2-2.6 13.9 2.9s-15.5 2.9-13.9-2.9z" fill="#c5381d"/><path d="M223.7 123.4c-29.9-.5-40.7 11.2-38.3 21.7 1.5 6.5 66.3 13.1 79.5 8.5 13.6-4.8-13.1-29.7-41.2-30.2z" fill="#ff7878"/><path class="st5" d="M260.2 136.9s19.2 10 3.8 16.4c-15.1 6.3-73.3 2.5-78.6-8.2-5.3-10.7 16.8-24.6 43.9-21.7"/></svg>