<svg xmlns="http://www.w3.org/2000/svg" viewBox="0 0 500 500"><rect x="41.74" y="72.66" width="407.34" height="407.34" rx="52.7" ry="52.7" fill="#f99" stroke="#fff" stroke-miterlimit="10" stroke-width="12.39"/><path d="M278.73 388.61c-82.62-3.59-122.44 19.45-122.74 91.39h204.85c3.43-41.37-21.45-88.75-82.11-91.39Z" fill="#ff9b55"/><path d="M314.27 480c-5.48-25.14-27.73-43.96-54.36-43.96s-48.87 18.82-54.36 43.96h108.71Z" fill="#ffd07c"/><path d="M364.74 183.07s35.81-77.16 106.21-61.31c0 0 4.41 104.43-93.57 88" fill="#ff9b55"/><path d="M376.41 197s66.79-65.41 89.1-68.31c0 0 1.64 76.11-73.19 79.65L376.41 197Z" fill="#ffd07c"/><path d="M465.51 128.7s-38.19 8.21-77.23 60.56" fill="none" stroke="#502220" stroke-miterlimit="10" stroke-width="4.95"/><path d="M134.88 188.54s-35.31-77.39-105.81-61.99c0 0-5.08 104.4 93 88.6" fill="#ff9b55"/><path d="M123.12 202.39s-66.37-65.83-88.66-68.88c0 0-2.13 76.1 72.68 80.12l15.99-11.24Z" fill="#ffd07c"/><path d="M274.68 156.03s-4.24-20.68 12.97-41.87c0 0-17.33-39.97-.77-45.93 16.55-5.96 21.19 26.48 21.19 26.48l19.2-22.51s-9.31-45.52 1.67-51.22c14.74-7.67 17.69 32.44 17.69 32.44s27.65-38.15 42.88-20.94c15.23 17.21-53.63 73.49-53.63 73.49s46.35-13.9 46.35 3.97-60.91 21.85-60.91 21.85l-10.59 25.16-36.04-.92Z" fill="#cb381d"/><path d="M275.1 142.16s-3.5-18.94 12.56-28c0 0-17.39-42.51-.47-48.56 16.92-6.04 20.88 29.11 20.88 29.11l19.2-22.51" fill="none" stroke="#502220" stroke-miterlimit="10" stroke-width="4.95"/><path d="M213.18 161.46s6.06-20-8.98-42.44c0 0 20.71-37.82 4.94-45.19C193.37 66.45 185.85 98 185.85 98l-16.88-23.93s13.31-44.01 3.01-50.63c-13.83-8.9-20.38 30.36-20.38 30.36s-23.78-40.11-40.35-24.53c-16.57 15.58 46.17 77.3 46.17 77.3s-44.41-17.92-46.04-.3c-1.63 17.62 58.04 27.07 58.04 27.07l8.15 25.76 35.6 2.37Z" fill="#cb381d"/><path d="M157.42 106.56s-58.91-61.66-46.17-77.3c12.74-15.64 40.35 24.53 40.35 24.53s2.17-39.27 20.38-30.36c11.24 5.5-2.46 49.42-2.46 49.42l16.33 25.14" fill="none" stroke="#502220" stroke-miterlimit="10" stroke-width="4.95"/><path d="M72.25 311.82c-2.24-131.61 67.27-173.53 214.47-167.13 181.01 7.87 179.77 243.74 60.99 265.96-88.68 16.59-273.23 32.61-275.46-98.84Z" fill="#ff9b55"/><path d="M139.44 164.69s114.95-50.34 220.89-.75" fill="none" stroke="#502220" stroke-miterlimit="10" stroke-width="4.95"/><path d="M329.85 218.72c-63.84 19.48-60.59 88.73-60.59 88.73h-19.48c-10.82-66-58.71-109.25-122.27-80.07-33.95 15.58-48.69 43.17-55.03 66.31-.22 5.87-.33 11.87-.22 18.13 2.23 131.45 186.78 115.43 275.46 98.84 63.54-11.89 93.42-84.91 79.79-151.47-26.11-31.67-63.85-50.79-97.65-40.47Z" fill="#ffd07c"/><path d="M104.18 193.56S63.74 240.2 72.25 311.83" fill="none" stroke="#502220" stroke-miterlimit="10" stroke-width="4.95"/><circle cx="129.7" cy="348.39" r="37.02" transform="rotate(-80.83 129.675 348.382)" fill="#ff7878"/><circle cx="369.62" cy="348.55" r="37.02" fill="#ff7878"/><path d="M85.62 360.81s23.96 61.05 129.84 57.19" fill="none" stroke="#502220" stroke-miterlimit="10" stroke-width="4.95"/><path d="M184.99 321.83c-18.75.49-34.41-12.48-34.98-28.97l-.54-15.81c-.57-16.49 14.17-30.26 32.92-30.75 18.75-.49 34.41 12.48 34.98 28.97l.54 15.81c.57 16.49-14.17 30.26-32.92 30.75" fill="#fff"/><path d="M217.36 275.27c-.3-8.92-5.05-16.79-12.3-22.08-2.71-.78-5.55-1.19-8.49-1.11-16.54.43-29.45 15.33-28.84 33.28.62 17.95 14.53 32.14 31.08 31.71 1.5-.04 2.96-.24 4.39-.51 9.17-5.56 15.06-14.96 14.7-25.48l-.55-15.81Z" fill="#502220"/><path d="M322.82 317.03c19.18.99 35.68-11.89 36.83-28.76l1.11-16.17c1.16-16.87-13.46-31.35-32.64-32.34-19.18-.99-35.67 11.89-36.83 28.76l-1.11 16.17c-1.16 16.87 13.45 31.35 32.64 32.34" fill="#fff"/><path d="M291.29 268.52c.62-9.13 5.76-17.06 13.37-22.29 2.8-.73 5.73-1.07 8.73-.92 16.93.87 29.63 16.47 28.37 34.83-1.26 18.36-16 32.54-32.93 31.67-1.54-.08-3.02-.32-4.48-.63-9.2-5.93-14.9-15.71-14.16-26.48l1.11-16.17Z" fill="#502220"/><path d="M313.98 417.2s98.28-6.5 109.12-78.05" fill="none" stroke="#502220" stroke-miterlimit="10" stroke-width="4.95"/><path d="M280.15 298.38c-4.06-12.38-49.3-11.83-50.07 2.71-.76 14.54 12.69 23.14 27.03 23.33 12.63.17 27.1-13.65 23.04-26.04Z" fill="#502220"/><path d="M261.29 293.93c-4.21-.35-9.53-.26-14.97 1.27m23.59.27s-1.84-.58-4.82-1.07" fill="none" stroke="#ecffe9" stroke-miterlimit="10" stroke-width="2.48"/><path d="M257.12 316.73s.6 8.02.23 16.12" fill="none" stroke="#502220" stroke-miterlimit="10" stroke-width="3.72"/><g fill="none" stroke="#502220" stroke-miterlimit="10"><path d="M230.59 326.37s2.26 10.7 10.46 12.01c6.82 1.09 11.61-2.65 14.18-5.51 1.21-1.34 3.21-1.38 4.44-.06 2.71 2.9 7.75 6.59 14.48 3.94 10.36-4.08 9.42-11.12 9.42-11.12" stroke-width="3.72"/><path d="M228.72 329.29s.53-4.65 5.41-3.26m46.05.48s4.17-2.53 6.46 1.5" stroke-width="2.48"/></g></svg>