<svg xmlns="http://www.w3.org/2000/svg" viewBox="0 0 500 500"><rect x="25" y="25" width="450" height="450" rx="58.22" ry="58.22" fill="#c99" stroke="#fff" stroke-miterlimit="10" stroke-width="13.68"/><path d="M276.31 374.04c-91.27-3.97-135.27 21.48-135.6 100.96h226.3c3.79-45.7-23.7-98.04-90.71-100.96Z" fill="#ffa938"/><path d="M311.55 475c-5.65-25.91-28.58-45.3-56.02-45.3s-50.37 19.39-56.02 45.3h112.04Z" fill="#ffd07c"/><path d="M359.52 143.66s-6.7-49.79 35.43-51.71c42.13-1.92 76.6 61.28 0 76.6" fill="#ffa938"/><path d="M372.11 144.24s-5.55-37.46 25.67-35.38c31.22 2.08 25.67 42.32-7.63 50.64l-18.04-15.26Z" fill="#cb381d"/><path d="M141.64 138.12s6.7-49.79-35.43-51.71c-42.13-1.92-76.6 61.28 0 76.6" fill="#ffa938"/><path d="M129.06 138.7s5.55-37.46-25.67-35.38c-31.22 2.08-25.67 42.32 7.63 50.64l18.04-15.26Z" fill="#cb381d"/><path d="M48.21 289.21c-2.47-145.39 74.31-191.7 236.93-184.63 199.96 8.69 198.59 269.27 67.38 293.82-97.97 18.33-301.84 36.03-304.31-109.19Z" fill="#ffa938"/><path d="M249.3 201.6c23 2.63 26.29-62.35 21.13-97.51-17.16-.41-33.25-.13-48.39.83-1.69 32.58 4.05 94.03 27.26 96.68Zm-54.93-19.7c13.31-.67 13.02-49.4 11.9-75.71-14.21 1.45-27.47 3.59-39.73 6.52 4.26 23.78 14.29 69.87 27.83 69.19Zm95.01-77.05c-2.75 27.05-4.7 71.71 11.72 76.14 11.42 3.07 22.42-38.91 28.86-69.52-12.44-3.45-25.97-5.7-40.59-6.62ZM48.54 267.02c-.31 7.14-.45 14.5-.32 22.19.14 8.29.97 16.03 2.37 23.29 23.2-11.77 51.63-29.11 47.17-41.61-3.96-11.09-27.88-8.58-49.21-3.87Zm40.49-24.87c1.48-8.88-16.91-13.7-35.63-16.3-2.04 9.89-3.45 20.48-4.29 31.77 18.37-1.86 38.36-6.04 39.93-15.47Zm355.01 15.75a176.06 176.06 0 0 0-4.61-32.39c-19.58 2.51-39.78 7.36-38.23 16.64 1.65 9.93 23.74 14.04 42.84 15.74Zm-5.85 53.86c3.9-14.08 5.94-29.01 6.04-44.17-21.93-5.06-47.64-8.23-51.75 3.3-4.37 12.23 22.8 29.12 45.71 40.87Zm-4.33 13.28c-15.53-9.05-32.79-15.51-36.52-6.72-2.94 6.94 7.86 22.41 20.47 37.18 6.53-9.21 11.9-19.48 16.05-30.46Z" fill="#cb381d"/><path d="M385.23 137.76s44.94 40.1 50.47 76.04m-319.4-80.88s-47.7 22.81-56 67.75" fill="none" stroke="#502220" stroke-miterlimit="10" stroke-width="5.47"/><path d="M54.13 326.37c3.88 11.81 9.57 22.07 16.71 30.98 13.26-15.31 25.11-31.79 22.04-39.02-3.91-9.21-22.68-1.68-38.75 8.04Z" fill="#cb381d"/><path d="M62.98 343.33s26.47 67.45 143.43 63.18" fill="none" stroke="#502220" stroke-miterlimit="10" stroke-width="5.47"/><path d="M172.75 300.27c-20.72.54-38.02-13.79-38.64-32l-.6-17.46c-.63-18.22 15.66-33.42 36.37-33.97 20.71-.54 38.01 13.79 38.64 32l.6 17.46c.63 18.22-15.65 33.43-36.37 33.97" fill="#fff"/><path d="M208.52 248.83c-.34-9.86-5.58-18.55-13.59-24.39-2.99-.86-6.13-1.31-9.38-1.23-18.28.48-32.54 16.94-31.86 36.76.68 19.83 16.05 35.51 34.33 35.03 1.66-.04 3.27-.26 4.85-.56 10.13-6.14 16.64-16.53 16.24-28.15l-.6-17.46Z" fill="#502220"/><path d="M325.02 294.97c21.19 1.09 39.41-13.13 40.69-31.77l1.23-17.87c1.28-18.64-14.87-34.63-36.06-35.73-21.19-1.09-39.41 13.13-40.69 31.77l-1.22 17.87c-1.28 18.64 14.86 34.64 36.06 35.73" fill="#fff"/><path d="M290.19 241.37c.69-10.09 6.37-18.85 14.76-24.62 3.09-.81 6.33-1.18 9.64-1.01 18.7.96 32.73 18.19 31.34 38.47-1.39 20.28-17.68 35.94-36.38 34.98-1.7-.09-3.34-.35-4.95-.7-10.16-6.55-16.46-17.36-15.64-29.25l1.23-17.87Z" fill="#502220"/><path d="M315.25 405.63s108.57-7.19 120.55-86.22" fill="none" stroke="#502220" stroke-miterlimit="10" stroke-width="5.47"/><ellipse cx="249.86" cy="306.77" rx="56.7" ry="47.47" transform="rotate(-2.36 249.41 306.268)" fill="#ffd07c"/><path d="M278.21 264.09c-4.54-13.85-55.14-13.24-55.99 3.03-.85 16.27 14.2 25.87 30.22 26.09 14.12.19 30.31-15.27 25.77-29.12Z" fill="#502220"/><path d="M257.13 259.12c-4.71-.4-10.66-.29-16.74 1.42m26.37.29s-2.06-.65-5.38-1.19" fill="none" stroke="#ecffe9" stroke-miterlimit="10" stroke-width="2.74"/><path d="M252.34 288.03s-1.25 25.63.01 37.04" fill="none" stroke="#502220" stroke-miterlimit="10" stroke-width="4.1"/><g fill="none" stroke="#502220" stroke-miterlimit="10"><path d="M223.13 319.16s2.49 11.82 11.56 13.27c7.53 1.21 12.82-2.93 15.66-6.09 1.33-1.48 3.55-1.53 4.91-.07 2.99 3.21 8.56 7.28 16 4.35 11.44-4.5 10.41-12.29 10.41-12.29" stroke-width="4.1"/><path d="M221.07 322.39s.58-5.14 5.97-3.6m50.88.53s4.6-2.8 7.14 1.66" stroke-width="2.74"/></g></svg>