<svg version="1.1" id="Layer_1" xmlns="http://www.w3.org/2000/svg" x="0" y="0" viewBox="0 0 500 500" xml:space="preserve"><style>.st1{fill:#ff9b55}.st2{fill:#ffd07c}.st3{fill:none;stroke:#502220;stroke-width:4.95;stroke-miterlimit:10}.st4{fill:#cb381d}.st6{fill:#fff}.st7{fill:#502220}.st9{fill:none;stroke:#502220;stroke-width:3.72;stroke-miterlimit:10}</style><path d="M94.4 72.7h301.9c29.1 0 52.7 23.6 52.7 52.7v301.9c0 29.1-23.6 52.7-52.7 52.7H94.4c-29.1 0-52.7-23.6-52.7-52.7V125.4c0-29.1 23.6-52.7 52.7-52.7z" fill="#f99" stroke="#fff" stroke-width="12.39" stroke-miterlimit="10"/><path class="st1" d="M278.7 388.6C196.1 385 156.3 408.1 156 480h204.9c3.4-41.4-21.5-88.8-82.2-91.4z"/><path class="st2" d="M314.3 480c-11.4-57.6-97.3-57.6-108.7 0h108.7z"/><path class="st1" d="M364.7 183.1s35.8-77.2 106.2-61.3c0 0 4.4 104.4-93.6 88"/><path class="st2" d="M376.4 197s66.8-65.4 89.1-68.3c0 0 1.6 76.1-73.2 79.6L376.4 197z"/><path class="st3" d="M465.5 128.7s-38.2 8.2-77.2 60.6"/><path class="st1" d="M134.9 188.5s-35.3-77.4-105.8-62c0 0-5.1 104.4 93 88.6"/><path class="st2" d="M123.1 202.4s-66.4-65.8-88.7-68.9c0 0-2.1 76.1 72.7 80.1l16-11.2z"/><path class="st4" d="M274.7 156s-4.2-20.7 13-41.9c-22.7-46 10.7-68.8 20.4-19.4l19.2-22.5S318 26.7 329 21c14.7-7.7 17.7 32.4 17.7 32.4s27.6-38.2 42.9-20.9-53.7 73.5-53.7 73.5 46.4-13.9 46.4 4-60.9 21.9-60.9 21.9L310.7 157l-36-1z"/><path class="st3" d="M275.1 142.2s-3.5-18.9 12.6-28c-22.9-48.8 11.7-73.1 20.4-19.4l19.2-22.5"/><path class="st4" d="M213.2 161.5s6.1-20-9-42.4c26.6-43.3-4.2-68.8-18.3-21l-16.9-24s13.3-44 3-50.6c-13.8-8.9-20.4 30.4-20.4 30.4s-23.8-40.1-40.3-24.5 46.2 77.3 46.2 77.3-44.4-17.9-46-.3 58 27.1 58 27.1l8.1 25.8 35.6 2.2z"/><path class="st3" d="M157.4 106.6s-58.9-61.7-46.2-77.3 40.4 24.5 40.4 24.5 2.2-39.3 20.4-30.4c11.2 5.5-2.5 49.4-2.5 49.4L185.9 98"/><path class="st1" d="M72.2 311.8C70 180.2 139.5 138.3 286.7 144.7c181 7.9 179.8 243.7 61 266-88.7 16.5-273.2 32.6-275.5-98.9z"/><path class="st3" d="M139.4 164.7s114.9-50.3 220.9-.8"/><path class="st2" d="M329.9 218.7c-63.8 19.5-60.6 88.7-60.6 88.7h-19.5c-13-117.3-151.7-112.3-177.3-13.8-16.2 145.7 180.2 136.9 275.2 117 108.3-22.8 119.2-214.8-17.8-191.9z"/><path class="st3" d="M104.2 193.6s-40.4 46.6-31.9 118.3"/><path d="M93.1 342.5c8.6-47.9 80-36.4 73.1 11.8-8.5 47.9-80 36.3-73.1-11.8zm276.5-31c48.7.8 48.7 73.2 0 74-48.6-.8-48.6-73.1 0-74z" fill="#ff7878"/><path class="st3" d="M85.6 360.8s24 61 129.8 57.2"/><path class="st6" d="M185 321.8c-46 2.2-50.1-74.9-2.6-75.5 46-2.2 50.1 74.9 2.6 75.5"/><path class="st7" d="M217.4 275.3c-3-39-51.7-23.7-49.6 10.1.6 19.5 17.3 34.7 35.5 31.2 16-9.1 15.3-25.4 14.1-41.3z"/><path class="st6" d="M322.8 317c46.8 3.5 54.2-75.2 5.3-77.3-46.8-3.4-54.2 75.2-5.3 77.3"/><path class="st7" d="M291.3 268.5c4.3-39.7 53.7-23.1 50.5 11.6-8.6 47.2-61.5 41-50.5-11.6z"/><path class="st3" d="M314 417.2s98.3-6.5 109.1-78"/><path class="st7" d="M280.1 298.4c-4.1-12.4-49.3-11.8-50.1 2.7-.8 32.1 55.9 29.6 50.1-2.7z"/><path d="M261.3 293.9c-4.2-.4-9.5-.3-15 1.3m23.6.3s-1.8-.6-4.8-1.1" fill="none" stroke="#ecffe9" stroke-width="2.48" stroke-miterlimit="10"/><path class="st9" d="M257.1 316.7s.6 8 .2 16.1"/><path class="st9" d="M230.6 326.4c1.6 10.9 14.9 17.6 24.6 6.5 4.8-4.3 8.2 8.6 18.9 3.9 10.4-4.1 9.4-11.1 9.4-11.1"/><path d="M228.7 329.3s.5-4.6 5.4-3.3m46.1.5s4.2-2.5 6.5 1.5" fill="none" stroke="#502220" stroke-width="2.48" stroke-miterlimit="10"/></svg>