<svg xmlns="http://www.w3.org/2000/svg" viewBox="0 0 500 500"><rect x="48.24" y="52.63" width="394.74" height="394.74" rx="197.37" ry="197.37" fill="#f66" stroke="#fff" stroke-miterlimit="10" stroke-width="11.49"/><path d="M272.06 353.39c-63.92-2.78-98.96 26.82-107.06 76.76 24.62 11.03 51.88 17.22 80.6 17.22 35.12 0 68.07-9.21 96.64-25.29-7.57-32.58-30.04-66.94-70.18-68.69Z" fill="#f8f8f8"/><path d="M182.44 387.11a80.865 80.865 0 0 0-6.52 10.02c62.54 16.18 125.29 4.54 155.74-3.33-2.2-4.07-4.68-7.99-7.44-11.68-54.86 17.33-108.23 11.94-141.78 4.99Z" fill="#47d2af"/><path d="M172.53 404.07c-1.41 3.2-2.66 6.54-3.75 10 68.75 21.9 140.29 7.53 171.06-.77-1.35-4.3-2.98-8.58-4.86-12.76-65.87 22.78-130.56 11.79-162.44 3.53Z" fill="#47d2af"/><path d="M341.68 419.77c-72.4 28.12-144.94 13.7-175.7 5.1-.36 1.73-.68 3.5-.97 5.29 24.62 11.03 51.88 17.22 80.6 17.22 35.1 0 68.03-9.2 96.59-25.26-.18-.78-.32-1.56-.52-2.34Z" fill="#47d2af"/><ellipse cx="251.52" cy="371.47" rx="29.84" ry="23.39" fill="#d4d4d4"/><path d="M314.16 220.17s-27.71-87.99 67.69-109.32c95.4-21.32 127.04 77.1 112.14 91.16-14.9 14.06-27.47 6.61-27.47 6.61s28.33 25.33 15.13 47.91c-13.2 22.58-28.96 15.77-28.96 15.77s8.01 26.64-35.55 45.66c-47.31 20.66-115.75-45.4-102.99-97.78Z" fill="#bebebe"/><path d="M476.52 166.33S410.94 95.91 335 178.07" fill="none" stroke="#502220" stroke-miterlimit="10" stroke-width="3.45"/><path d="M185.84 225.17s27.71-87.99-67.69-109.32C22.76 94.54-8.89 192.96 6.01 207.02c14.9 14.06 27.47 6.61 27.47 6.61s-28.33 25.33-15.13 47.91c13.2 22.58 28.96 15.77 28.96 15.77s-8.01 26.64 35.55 45.66c47.31 20.66 115.75-45.4 102.99-97.78Z" fill="#bebebe"/><path d="M27.79 171.85s69.73-61.44 120.12-7.59" fill="none" stroke="#502220" stroke-miterlimit="10" stroke-width="3.45"/><path d="M33.48 213.63s-24.23 27.11-15.13 47.91c9.1 20.8 28.96 15.77 28.96 15.77s-3.7 48.56 52.26 48.56" fill="none" stroke="#502220" stroke-miterlimit="10" stroke-width="4.6"/><path d="M88.89 285.26c-1.98-116.76 59.68-153.95 190.27-148.27 160.59 6.98 159.48 216.24 54.11 235.96-78.68 14.72-242.4 28.93-244.38-87.68Z" fill="#d4d4d4"/><path d="M94.48 232.41s-3.14-78.42 110.57-92.54" fill="none" stroke="#502220" stroke-miterlimit="10" stroke-width="4.6"/><path d="M248.93 264.18c55.34-5.34 74.19 86.65 2.25 92.01-71.93 5.37-57.59-86.67-2.25-92.01Z" fill="#f8f8f8"/><path d="M241.72 340.61s11.15 19.31 22.32-2.14" fill="none" stroke="#502220" stroke-miterlimit="10" stroke-width="3.45"/><path d="M240.15 242.81c51.52-15.29 72.42 110.16-5.11 93.45-33.73-7.27-25.72-84.31 5.11-93.45Z" fill="#7f3d58"/><path d="M260.42 379.59s76.08 4.8 116.42-29.29m-254.06 4.8s48.36 36.27 118.74 25.04" fill="none" stroke="#502220" stroke-miterlimit="10" stroke-width="4.6"/><path d="M179.93 302.07c-16.64-.02-30.1-13.89-30.07-30.98l.04-16.38c.04-17.09 13.56-30.93 30.2-30.91 16.64.02 30.1 13.89 30.07 30.97l-.04 16.38c-.04 17.09-13.56 30.93-30.2 30.91" fill="#f8f8f8"/><path d="M210.17 254.78c.02-9.25-3.93-17.53-10.18-23.2-2.38-.89-4.88-1.38-7.49-1.39-14.68-.02-26.62 15.05-26.66 33.64-.04 18.6 11.83 33.69 26.52 33.7 1.33 0 2.63-.16 3.91-.4 8.32-5.5 13.85-15.06 13.87-25.97l.03-16.38Z" fill="#502220"/><path d="M322.22 300.43c17.05.27 31.08-13.7 31.33-31.2l.24-16.78c.26-17.5-13.36-31.92-30.41-32.19-17.05-.27-31.07 13.7-31.33 31.2l-.24 16.78c-.26 17.51 13.36 31.92 30.41 32.19" fill="#f8f8f8"/><path d="M292.05 251.46c.14-9.47 4.33-17.88 10.83-23.59 2.45-.87 5.03-1.33 7.7-1.29 15.04.24 27.01 15.88 26.74 34.93-.28 19.05-12.7 34.3-27.74 34.06-1.37-.02-2.69-.21-4-.48-8.42-5.78-13.93-15.67-13.76-26.85l.25-16.78Z" fill="#502220"/><path d="M295.54 147.95s16.19-24.19-8.73-40.86c-24.92-16.68-91.83-7.87-78.34 37.77 0 0 50.97 16.6 87.07 3.09Z" fill="#00bf96"/><path d="M299.35 137.55s.58 6.62-3.81 10.4c-4.39 3.79-40.67 8.21-53.28 5.05" fill="none" stroke="#502220" stroke-miterlimit="10" stroke-width="3.45"/><path d="M265.26 104.26s28.28 11.36 22.72 45.7" fill="none" stroke="#502220" stroke-miterlimit="10" stroke-width="2.99"/><path d="M250.31 98.32c1.1-4.02 17.19-2.56 13.9 2.93-3.29 5.49-15.47 2.82-13.9-2.93Z" fill="#c5381d"/><path d="M223.7 123.39c-29.89-.54-40.65 11.25-38.27 21.69 1.49 6.52 66.28 13.12 79.5 8.49 13.62-4.76-13.12-29.68-41.23-30.19Z" fill="#ff7878"/><path d="M260.24 136.92s19.17 9.99 3.79 16.4c-15.14 6.31-73.27 2.46-78.59-8.24-5.32-10.69 16.76-24.57 43.89-21.73" fill="none" stroke="#502220" stroke-miterlimit="10" stroke-width="3.45"/></svg>