<svg xmlns="http://www.w3.org/2000/svg" viewBox="0 0 1674.3 390.31"><title>qaAsset 2</title><path d="M1301.07,110.52s-1-67.56,11.57-75.17c13.23-8,16.69,9.84,14.77,16.58S1318,61.32,1316.9,64.6s-5.38,44.54-5.38,44.54" fill="#5e4325"/><path d="M1266.73,119.43s-5.66-75.09-22-77.18-12.75,10.68-9.84,17.49S1246.4,64.68,1248,68s7.53,51.42,7.53,51.42" fill="#5e4325"/><path d="M1403.87,220.22s-17.89-9.08-66.48-97.09c-25.26-45.74-126.14-20-109.29,76.77s201.14,188.92,367.7,136.29C1505.15,280,1403.87,220.22,1403.87,220.22Z" fill="#f3ceb5"/><path d="M1646.06,293.66s-83.24,116.44-214.39,33.54c-116.15-73.42-29.79-270.64,114.48-254.32C1688.59,89,1696.48,208.93,1646.06,293.66Z" fill="#b2c7c0"/><path d="M1268.64,156.68a4.41,4.41,0,1,1-3.25-5.32A4.41,4.41,0,0,1,1268.64,156.68Z" fill="#040404"/><path d="M1294,153.71a4.41,4.41,0,1,1-3.26-5.32A4.41,4.41,0,0,1,1294,153.71Z" fill="#040404"/><path d="M1527.51,262.5s-13,34.06-45.67,7.07S1495,171.4,1539,215s10.24,124.34-82.1,83-.7-207.59,109.56-177.23,91.87,208.52-93,222.81" fill="none" stroke="#fff" stroke-miterlimit="10" stroke-width="3.68"/><path d="M1263.17,179.38c11.34,17.49,31.32,17.38,40.36-2.11" fill="none" stroke="#040404" stroke-miterlimit="10" stroke-width="2.45"/><path d="M490.47,136s-86.23,51.65-64.08,137.34c27.14,105,364.17,157.35,379.92-44.09,0-97.81-111.9-104.36-111.9-104.36s48.9-89-19.91-109.51C587.6-10.56,581,110.89,581,110.89s-10-130-96.16-73.78C427.68,74.41,490.47,136,490.47,136Z" fill="#a3c546"/><circle cx="641.4" cy="75.5" r="7.31" transform="translate(95.05 419.88) rotate(-38.94)" fill="#040404"/><circle cx="520.16" cy="90.11" r="7.31" transform="translate(88.63 394.2) rotate(-45)" fill="#040404"/><ellipse cx="676.44" cy="128.89" rx="14.84" ry="9.56" fill="#f3bbcd"/><ellipse cx="512.85" cy="159.36" rx="14.84" ry="9.56" fill="#f3bbcd"/><path d="M567.56,156.48s28,28.29,60.31-6.68" fill="none" stroke="#040404" stroke-miterlimit="10" stroke-width="3.68"/><path d="M911.77,249a1.12,1.12,0,0,1-.67,2c-14.18.59-69.74,19.92-48.2,56.15,24,40.43,69.43-2,69.43-2s-18.94,50.13,16.2,61C981.66,376.41,999,317.05,999,317.05s4.31,60.07,40.26,54.94c37.74-5.38,28.11-60.82,28.11-60.82s48,60.27,74,14.88c24.7-43.15-23.84-47.61-38.15-44.39a1.11,1.11,0,0,1-1.08-1.81c13.76-15.9,81.15-100.27,42.07-186.88-47.73-105.76-224.9-128.62-273.29,5.27C840.23,183.07,899.06,238.33,911.77,249Z" fill="#dfa471"/><circle cx="965" cy="156.5" r="5.76" transform="translate(27.96 435.21) rotate(-25.78)" fill="#040404"/><path d="M1033.35,151a5.42,5.42,0,1,1-4.24-6.38A5.41,5.41,0,0,1,1033.35,151Z" fill="#040404"/><ellipse cx="932.33" cy="194.49" rx="9.83" ry="18.78" transform="translate(557.9 1070.2) rotate(-78.63)" fill="#f3bbcd"/><ellipse cx="1089.71" cy="195.16" rx="9.83" ry="18.78" transform="translate(683.62 1225.03) rotate(-78.63)" fill="#f3bbcd"/><path d="M1002.52,180.94s5.63-10.32,12.1-5.24c5.51,4.33-2.61,11.36-2.61,11.36s11.07-.68,9.33,9.17c-1.46,8.26-18.48,1.1-18.48,1.1" fill="none" stroke="#040404" stroke-linejoin="bevel" stroke-width="6.13"/><path d="M96.17,380.71s-30.72,2.37-31.51-22.84S62.46,259,59.15,245.22C44.5,249.11-53.13,146,39.31,44.43,92-14.67,315.76-24.17,353.9,74.05,393.2,175.22,328,237.57,298.61,237.57c-7.87,11.82.64,118.59-1.72,133.56s-22.69,17.46-30.57,19-31.51-8.67-26.78-70.9-4.35-60.37-16.95-59.58-5.09,88.09-9,101.2-18.14,26.91-33.1,25.34S146.58,365,152.1,317.69,146.59,258.17,134,259.4C95.6,263.14,152.1,379.14,96.17,380.71Z" fill="#dfd0e6"/><circle cx="124.21" cy="123.3" r="32.19" transform="translate(-24.33 215.86) rotate(-76.72)" fill="#040404"/><circle cx="231.07" cy="123.3" r="32.19" transform="translate(72.35 331.64) rotate(-80.78)" fill="#040404"/><path d="M156.4,164.81s23,33.35,42.48,0" fill="none" stroke="#040404" stroke-miterlimit="10" stroke-width="3.71"/></svg>