<svg xmlns="http://www.w3.org/2000/svg" viewBox="0 0 1674.3 390.31"><path d="M1301.07 110.52s-1-67.56 11.57-75.17c13.23-8 16.69 9.84 14.77 16.58s-9.41 9.39-10.51 12.67-5.38 44.54-5.38 44.54m-44.79 10.29s-5.66-75.09-22-77.18-12.75 10.68-9.84 17.49S1246.4 64.68 1248 68s7.53 51.42 7.53 51.42" fill="#5e4325"/><path d="M1403.87 220.22s-17.89-9.08-66.48-97.09c-25.26-45.74-126.14-20-109.29 76.77s201.14 188.92 367.7 136.29c-90.65-56.19-191.93-115.97-191.93-115.97Z" fill="#f3ceb5"/><path d="M1646.06 293.66s-83.24 116.44-214.39 33.54c-116.15-73.42-29.79-270.64 114.48-254.32 142.44 16.12 150.33 136.05 99.91 220.78Z" fill="#b2c7c0"/><path d="M1268.64 156.68a4.41 4.41 0 1 1-3.25-5.32 4.41 4.41 0 0 1 3.25 5.32Zm25.36-2.97a4.41 4.41 0 1 1-3.26-5.32 4.41 4.41 0 0 1 3.26 5.32Z" fill="#040404"/><path d="M1527.51 262.5s-13 34.06-45.67 7.07S1495 171.4 1539 215s10.24 124.34-82.1 83-.7-207.59 109.56-177.23 91.87 208.52-93 222.81" fill="none" stroke="#fff" stroke-miterlimit="10" stroke-width="3.68"/><path d="M1263.17 179.38c11.34 17.49 31.32 17.38 40.36-2.11" fill="none" stroke="#040404" stroke-miterlimit="10" stroke-width="2.45"/><path d="M490.47 136s-86.23 51.65-64.08 137.34c27.14 105 364.17 157.35 379.92-44.09 0-97.81-111.9-104.36-111.9-104.36s48.9-89-19.91-109.51c-86.9-25.94-93.5 95.51-93.5 95.51s-10-130-96.16-73.78c-57.16 37.3 5.63 98.89 5.63 98.89Z" fill="#06d76a"/><circle cx="641.4" cy="75.5" r="7.31" transform="rotate(-38.94 641.365 75.51)" fill="#040404"/><circle cx="520.16" cy="90.11" r="7.31" transform="rotate(-45 520.156 90.114)" fill="#040404"/><ellipse cx="676.44" cy="128.89" rx="14.84" ry="9.56" fill="#ddf080"/><ellipse cx="512.85" cy="159.36" rx="14.84" ry="9.56" fill="#ddf080"/><path d="M567.56 156.48s28 28.29 60.31-6.68" fill="none" stroke="#040404" stroke-miterlimit="10" stroke-width="3.68"/><path d="M911.77 249a1.12 1.12 0 0 1-.67 2c-14.18.59-69.74 19.92-48.2 56.15 24 40.43 69.43-2 69.43-2s-18.94 50.13 16.2 61c33.13 10.26 50.47-49.1 50.47-49.1s4.31 60.07 40.26 54.94c37.74-5.38 28.11-60.82 28.11-60.82s48 60.27 74 14.88c24.7-43.15-23.84-47.61-38.15-44.39a1.11 1.11 0 0 1-1.08-1.81c13.76-15.9 81.15-100.27 42.07-186.88-47.73-105.76-224.9-128.62-273.29 5.27-30.69 84.83 28.14 140.09 40.85 150.76Z" fill="#f8933e"/><circle cx="965" cy="156.5" r="5.76" transform="rotate(-25.78 964.856 156.516)" fill="#040404"/><path d="M1033.35 151a5.42 5.42 0 1 1-4.24-6.38 5.41 5.41 0 0 1 4.24 6.38Z" fill="#040404"/><ellipse cx="932.33" cy="194.49" rx="9.83" ry="18.78" transform="rotate(-78.63 932.365 194.472)" fill="#fdbd7d"/><ellipse cx="1089.71" cy="195.16" rx="9.83" ry="18.78" transform="rotate(-78.63 1089.758 195.128)" fill="#fdbd7d"/><path d="M1002.52 180.94s5.63-10.32 12.1-5.24c5.51 4.33-2.61 11.36-2.61 11.36s11.07-.68 9.33 9.17c-1.46 8.26-18.48 1.1-18.48 1.1" fill="none" stroke="#040404" stroke-linejoin="bevel" stroke-width="6.13"/><path d="M96.17 380.71s-30.72 2.37-31.51-22.84-2.2-98.87-5.51-112.65C44.5 249.11-53.13 146 39.31 44.43 92-14.67 315.76-24.17 353.9 74.05c39.3 101.17-25.9 163.52-55.29 163.52-7.87 11.82.64 118.59-1.72 133.56s-22.69 17.46-30.57 19-31.51-8.67-26.78-70.9-4.35-60.37-16.95-59.58-5.09 88.09-9 101.2-18.14 26.91-33.1 25.34-33.91-21.19-28.39-68.5-5.51-59.52-18.1-58.29c-38.4 3.74 18.1 119.74-37.83 121.31Z" fill="#fdcd48"/><circle cx="124.21" cy="123.3" r="32.19" transform="rotate(-76.72 124.204 123.3)" fill="#040404"/><circle cx="231.07" cy="123.3" r="32.19" transform="rotate(-80.78 231.082 123.3)" fill="#040404"/><path d="M156.4 164.81s23 33.35 42.48 0" fill="none" stroke="#040404" stroke-miterlimit="10" stroke-width="3.71"/></svg>