<svg version="1.1" id="Layer_1" xmlns="http://www.w3.org/2000/svg" x="0" y="0" viewBox="0 0 1674.3 390.3" xml:space="preserve"><style>.st3{fill:#040404}</style><path d="M1301.1 110.5s-1-67.6 11.6-75.2c13.2-8 16.7 9.8 14.8 16.6-14 11.3-14.5 44-15.9 57.2m-44.9 10.3s-5.7-75.1-22-77.2-12.8 10.7-9.8 17.5 11.5 4.9 13.1 8.3 7.5 51.4 7.5 51.4" fill="#5e4325"/><path d="M1403.9 220.2c-223.5-359.7-296.4 231.6 191.9 116-90.6-56.2-191.9-116-191.9-116z" fill="#f3ceb5"/><path d="M1646.1 293.7s-83.2 116.4-214.4 33.5C1184.9 66.7 1818-49 1646.1 293.7z" fill="#b2c7c0"/><path class="st3" d="M1268.6 156.7c-1.3 5.6-10 3.5-8.6-2.1 1.3-5.6 10.1-3.5 8.6 2.1zm25.4-3c-1.3 5.6-10 3.5-8.6-2.1 1.3-5.5 10-3.4 8.6 2.1z"/><path d="M1527.5 262.5s-13 34.1-45.7 7.1 13.2-98.2 57.2-54.6 10.2 124.3-82.1 83-.7-207.6 109.6-177.2 91.9 208.5-93 222.8" fill="none" stroke="#fff" stroke-width="3.68" stroke-miterlimit="10"/><path d="M1263.2 179.4c11.3 17.5 31.3 17.4 40.4-2.1" fill="none" stroke="#040404" stroke-width="2.45" stroke-miterlimit="10"/><path d="M490.5 136c-257.3 177.9 269.4 371.3 315.9 93.3 0-97.8-111.9-104.4-111.9-104.4 70.2-145.5-115-151.9-113.4-14-4.3-153.4-187.7-76.4-90.6 25.1z" fill="#06d76a"/><path class="st3" d="M636.8 69.8c7.3-6.1 16.7 5.5 9.2 11.4-7.3 6-16.7-5.6-9.2-11.4zM515 84.9c6.6-6.8 17.1 3.7 10.3 10.3-6.6 6.9-17.1-3.7-10.3-10.3z"/><path d="M676.4 119.3c19.4.1 19.4 19 0 19.1-19.4 0-19.4-19 0-19.1zm-163.6 30.5c19.4.1 19.4 19 0 19.1-19.4-.1-19.4-19 0-19.1z" fill="#ddf080"/><path d="M567.6 156.5s28 28.3 60.3-6.7" fill="none" stroke="#040404" stroke-width="3.68" stroke-miterlimit="10"/><path d="M911.8 249c-94.4 17.8-44.6 115.4 20.6 56.1-24.1 79.3 51.2 80.5 66.7 11.9 3.4 78.4 81.4 69 68.4-5.9 48.4 81.2 137-28.6 34.5-30.4C1353.9-70.5 678.1-66 911.8 249z" fill="#f8933e"/><path class="st3" d="M962.5 151.3c6.7-3.3 11.8 7.2 5 10.4-6.7 3.3-11.8-7.3-5-10.4zm70.8-.3c-1.3 6.9-12.1 4.7-10.6-2.1 1.3-6.9 12.1-4.8 10.6 2.1z"/><path d="M914 190.8c2.4-12.6 39.5-5.1 36.8 7.4-2.4 12.6-39.5 5.1-36.8-7.4zm157.4.7c2.4-12.6 39.5-5.1 36.8 7.4-2.4 12.6-39.5 5.1-36.8-7.4z" fill="#fdbd7d"/><path d="M1002.5 180.9c5.3-12 21.8-5.5 9.5 6.1 14.7-.3 13.8 20.8-9.1 10.3" fill="none" stroke="#040404" stroke-width="6.13" stroke-linejoin="bevel"/><path d="M96.2 380.7c-53 10.3-25.8-115.3-37-135.5C-151.4 94.8 219.4-123.6 353.9 74.1c39.3 101.2-25.9 163.5-55.3 163.5-7.9 11.8.6 118.6-1.7 133.6-24.2 34.6-62.6 29.4-57.3-51.9 4.7-62.2-4.4-60.4-17-59.6-22.5 18.7 17.5 128.1-42.1 126.5-56-7.8-3-127.2-46.5-126.8-38.4 3.7 18.1 119.7-37.8 121.3z" fill="#fdcd48"/><path class="st3" d="M92.9 115.9c10.4-41 71.7-26.6 62.7 14.8-10.5 41-71.7 26.5-62.7-14.8zm106.4 2.3c7.5-41.7 69.6-31.6 63.5 10.3-7.4 41.6-69.6 31.5-63.5-10.3z"/><path d="M156.4 164.8s23 33.4 42.5 0" fill="none" stroke="#040404" stroke-width="3.71" stroke-miterlimit="10"/></svg>