<svg version="1.1" id="Layer_1" xmlns="http://www.w3.org/2000/svg" xmlns:xlink="http://www.w3.org/1999/xlink" x="0" y="0" viewBox="0 0 310.6 261" xml:space="preserve"><style>.st0{fill:#b4cd3a}.st1{fill:#00975d}.st3{fill:#4db68e}.st7{fill:#fff}</style><path class="st0" d="M123.4 49c-3.9-3.4 31.9-34.2 34-30.4l-.2 15.2c-4.6 1.3-25.8 12.5-33.8 15.2z"/><path class="st0" d="M153.2 35c-3.3-3.9 36.8-28.9 38.3-24.7l-2.6 15c-4.7.5-27.3 8.3-35.7 9.7z"/><path class="st0" d="M185.5 23.1C183 18.6 227.3 2 227.9 6.4l-5.5 14.2c-4.7-.5-28.4 2.7-36.9 2.5z"/><path class="st0" d="M217.7 18.8c-.4-5.2 46.8-1.4 45.5 2.8l-10.9 10.5c-4.2-2.4-27-9.6-34.6-13.3z"/><path class="st0" d="M247.1 28.5c1.2-5 45.2 12.3 42.7 16l-13.5 6.9c-3.3-3.5-23-17-29.2-22.9z"/><path class="st0" d="M271 48.3c3-4.2 36.8 28.8 33.1 31.3l-15.2 1.1c-1.6-4.5-14.5-24.6-17.9-32.4z"/><path class="st0" d="M283.9 76.7c3.9-3.4 28.8 36.9 24.7 38.4l-15-2.6c-.5-4.7-8.2-27.4-9.7-35.8z"/><path class="st0" d="M291 108.7c4.6-2.4 20 42.3 15.6 42.9l-14-5.8c.5-4.8-2-28.7-1.6-37.1z"/><path class="st1" d="M121.6 48.3c181.9-133.1 250.4 176 65.2 191.2-83.9-8.1-43.8-104.2 1.6-72.9 8.1 9-.3 16.3-12.6 13.8-8.7-1.8-21.1 8.5-12.1 21.9 86 69.9 195.5-125.7-41.7-92.8l-.4-61.2z"/><defs><path id="SVGID_1_" d="M121.6 48.3c181.9-133.1 250.4 176 65.2 191.2-83.9-8.1-43.8-104.2 1.6-72.9 8.1 9-.3 16.3-12.6 13.8-8.7-1.8-21.1 8.5-12.1 21.9 86 69.9 195.5-125.7-41.7-92.8l-.4-61.2z"/></defs><clipPath id="SVGID_00000157270451639039324520000006160613403019410574_"><use xlink:href="#SVGID_1_" overflow="visible"/></clipPath><g clip-path="url(#SVGID_00000157270451639039324520000006160613403019410574_)"><path class="st3" d="M125 27.1c28.7 34.8 10.6 116.5 26.8 110.4 27.1-4.1-7.8-143-26.8-110.4zM163.4 17c22.9 32.8 22.2 73.4 18.7 111.4 24 23.2 19.5-49.4 16.5-62 1.8-11.2-26.5-74.2-35.2-49.4zm49.5-10.7c18.1 41.3 9.4 86.5 3.3 129 25.6 22.2 23.5-51.7 25.1-66.1 3.9-11.2-16.2-91.1-28.4-62.9zm56 27.3c.6 44.2-11.6 87.7-33.4 125.7 28 42.9 72.1-150.4 33.4-125.7zm30.6 92.1c-12.6 26.5-34.3 46.3-61.4 57.2.3 25.8 39.3-1.4 48.4-11.2 10.1-7.4 40-50.1 13-46zm-21.8 81.2c-21 11.2-41.3-2-61.4-7.1-17.2 11.7 25.9 23.9 36.1 24.4 11.9 6.1 55.7-13.3 25.3-17.3zm-77.3 46.2c-17.2-13.2-11.6-35.7-10.1-53.6-15.4-16.8-20.4 21.4-16.5 31.7-1.3 18.4 35 43.2 26.6 21.9z"/><path class="st3" d="M133.6 220.8c11.6-21 35.9-19 54.4-27.5.8-17.5-31.3-5.8-41.3-2.1-12.2 1.3-38.1 35.4-13.1 29.6z"/></g><path d="M46 98.1c-69.3 8.5-37.7-78.3-11.9-31.2C38.6 79.5 20.3 89.7 15 76c-1.3-3.9 3.6-12.3 7-5.4-.3 7.1 9.3-3.1.5-5.6-26.8 2.3 2.3 34.7 13.9 13C46.6 39-14 46.3 2.6 82.3 6.9 96.2 42.4 107.8 46 98.1z" fill="#df4863"/><path class="st0" d="M126.2 61.3c14-45.2-56.8-43.7-74 3.8-31 76.2 34.3 52.2 75.6 49.1 9.1-7.3-6.1-37.7-1.6-52.9z"/><defs><path id="SVGID_00000101067468933780210100000008389339954488001162_" d="M126.2 61.3c14-45.2-56.8-43.7-74 3.8-31 76.2 34.3 52.2 75.6 49.1 9.1-7.3-6.1-37.7-1.6-52.9z"/></defs><clipPath id="SVGID_00000148638052801207930120000012320434472335870120_"><use xlink:href="#SVGID_00000101067468933780210100000008389339954488001162_" overflow="visible"/></clipPath><g clip-path="url(#SVGID_00000148638052801207930120000012320434472335870120_)"><path class="st1" d="M39.8 98h92.3v2.2H39.8V98z"/></g><path class="st1" d="M87.8 44.8c30.8-.5 30.8 48 0 47.5-30.8.5-30.8-47.9 0-47.5z"/><path d="M86.3 64.3c.1 10-15.5 10-15.4 0-.2-10 15.5-10 15.4 0z" fill="#231f20"/><path class="st7" d="M75.6 59.5c3.1 0 3.1 4.8 0 4.8-3.1.1-3.1-4.8 0-4.8z"/><path class="st7" d="M80.7 62c0 1.4-2.1 1.4-2.1 0-.1-1.4 2.2-1.4 2.1 0z"/><path class="st0" d="M164.9 80.3c-15.4-12.2-38.4-.6-17.5 16.1 18.1 5 10.8 23.4-1.1 30.5-4.4 1.9-12.1-1.4-15.4 2.7-6.8 8.4 13.2 7.6 17 7.8 31.6-1.8 60.1-43.2 17-57.1zm110.6 40.5c-36.5-75.2-64-51.5-45 21-10.4-9.6-33.4 1.1-11.5 7 29.1 12.7 28.3-4.4 28.6-28.4 6-1.3 11.9 9.8 16.8 15.2 10.8 10.7 16.9-8.3 11.1-14.8z"/><path class="st7" d="M272.1 62.8C259.2 41 235.2 26 209.5 28c25.6-7.1 54.1 10 62.6 34.8z"/></svg>