<svg xmlns="http://www.w3.org/2000/svg" xmlns:xlink="http://www.w3.org/1999/xlink" viewBox="0 0 310.56 261.01"><defs><clipPath id="a"><path d="M121.58,48.34s43.33-25.52,74.11-30.78S256.85,20,275.88,49.15,299,135.42,288.44,165.39s-44.15,79-101.66,74.11-53.46-53.86-40.09-68,33.75-13.63,41.71-4.86c8.12,9-.27,16.34-12.55,13.77-8.72-1.82-21.06,8.51-12.15,21.87s37.66,24.71,67.63,7.29,36.86-46.57,34.43-62.37-28.76-34-59.13-37.67-59.54-2.43-68-1.21A133.82,133.82,0,0,1,122,109.49Z" fill="#00975d"/></clipPath><clipPath id="b"><path d="M126.17,61.3c0-1.35,6.75-29.43-11.34-32.13S65.41,31.6,52.18,65.08s-4.86,49.68.54,51.84,64.54,3.24,75.07-2.7c7.86-4.44-.81-21.33-1.62-35.64A125.44,125.44,0,0,1,126.17,61.3Z" fill="#b4cd3a"/></clipPath></defs><title>qaAsset 4</title><path d="M123.4,49s2.63-8.31,13.57-18,20.45-12.35,20.45-12.35l-.2,15.19s-17.62,7.29-22.68,10.33A57.26,57.26,0,0,1,123.4,49Z" fill="#b4cd3a"/><path d="M153.2,35s3.89-7.79,16.2-15.7,22.12-9,22.12-9l-2.56,15S170.43,29.74,165,32A56.58,56.58,0,0,1,153.2,35Z" fill="#b4cd3a"/><path d="M185.47,23.1s5.35-6.87,19-12.19,23.47-4.47,23.47-4.47l-5.46,14.17s-19.06.71-24.86,1.8A56.56,56.56,0,0,1,185.47,23.1Z" fill="#b4cd3a"/><path d="M217.69,18.78s7.75-4,22.35-3,23.17,5.84,23.17,5.84L252.27,32.13S234.7,24.73,229,23.27A56.69,56.69,0,0,1,217.69,18.78Z" fill="#b4cd3a"/><path d="M247.09,28.54s8.58-1.53,22.27,3.64,20.43,12.38,20.43,12.38l-13.54,6.87s-14.64-12.21-19.68-15.29A56.69,56.69,0,0,1,247.09,28.54Z" fill="#b4cd3a"/><path d="M271,48.29s8.49,1.93,19.1,12,14,19.34,14,19.34l-15.16,1.08S280.19,63.77,276.74,59A56.43,56.43,0,0,1,271,48.29Z" fill="#b4cd3a"/><path d="M283.94,76.74S291.73,80.65,299.6,93s9,22.14,9,22.14l-15-2.59S289.19,94,287,88.5A56.92,56.92,0,0,1,283.94,76.74Z" fill="#b4cd3a"/><path d="M291,108.65s6.73,5.53,11.69,19.29,3.87,23.58,3.87,23.58l-14-5.83s-.23-19.07-1.17-24.9A57,57,0,0,1,291,108.65Z" fill="#b4cd3a"/><path d="M121.58,48.34s43.33-25.52,74.11-30.78S256.85,20,275.88,49.15,299,135.42,288.44,165.39s-44.15,79-101.66,74.11-53.46-53.86-40.09-68,33.75-13.63,41.71-4.86c8.12,9-.27,16.34-12.55,13.77-8.72-1.82-21.06,8.51-12.15,21.87s37.66,24.71,67.63,7.29,36.86-46.57,34.43-62.37-28.76-34-59.13-37.67-59.54-2.43-68-1.21A133.82,133.82,0,0,1,122,109.49Z" fill="#00975d"/><g clip-path="url(#a)"><path d="M125,27.15c4.32,7.86,8.49,15.31,11.15,24a199,199,0,0,1,6.21,27.62A212.23,212.23,0,0,1,145,107.85a90.78,90.78,0,0,1-.49,14c-.6,4.39-2.35,8.08-.22,12.28,1.39,2.75,4.64,3.83,7.51,3.37,10.18-1.61,9.19-17.75,9.14-25.35a198.07,198.07,0,0,0-3-33.59c-3.39-18.93-8.76-43.5-24.77-56-3.42-2.68-11.09-.7-8.17,4.61Z" fill="#4db68e"/><path d="M163.43,17c4.32,7.62,8.86,14.9,12.07,23.11,3.41,8.74,5.4,18.09,6.92,27.32a152.74,152.74,0,0,1,1.84,29.67q-.24,7.92-1.25,15.78c-.68,5.19-1.63,10.23-.9,15.47.59,4.28,8.86,8,11.76,3.88,6-8.62,6.46-21.42,7-31.64a156,156,0,0,0-2.25-34.25c-3.3-19-10.7-42.07-27-53.95-3.39-2.48-11.22-.77-8.17,4.61Z" fill="#4db68e"/><path d="M212.94,6.32a162.48,162.48,0,0,1,11.15,62.15,275.11,275.11,0,0,1-2.91,33.66c-.78,5.6-1.54,11.22-2.63,16.77-1,5.23-3.78,11.08-2.29,16.39,1.25,4.44,6.23,6.28,10.27,4.6,5.78-2.39,7.44-9.14,8.75-14.7,1.43-6.06,2.35-12.27,3.23-18.43a251.32,251.32,0,0,0,2.8-37.57c-.18-23.56-4.87-47.21-18.62-66.71-3.27-4.62-12.22-2.47-9.75,3.84Z" fill="#4db68e"/><path d="M268.94,33.6a197,197,0,0,1-2.23,33.27c-1.68,11.61-3.39,23.26-6.47,34.58a257.23,257.23,0,0,1-11.36,31.62A109.91,109.91,0,0,1,242.53,146c-2.59,4.44-5.91,8.18-7,13.3-.93,4.38,5.35,7.08,8.71,6.31,10.59-2.43,16-14.81,19.93-23.88a254.66,254.66,0,0,0,12.39-34.92,238.26,238.26,0,0,0,6.59-36.43c1.28-12.63,1.77-24.91-3.14-36.83-1.58-3.83-11.21-5.67-11.06.1Z" fill="#4db68e"/><path d="M299.47,125.68c-4.1,5.74-6.71,12.37-10.69,18.21a94.56,94.56,0,0,1-14.12,16.24A106.93,106.93,0,0,1,257.57,173a74.1,74.1,0,0,1-9.86,5.28c-3.4,1.4-6.74,2.19-9.59,4.61-3.48,2.95.52,7.72,3.27,9,8.83,4.26,18.19-1.07,25.78-5.62a111.83,111.83,0,0,0,19.4-14.55,99.17,99.17,0,0,0,15.28-18.47c4.25-6.62,8.54-14.59,8.7-22.62.1-4.56-7.83-9.51-11.08-5Z" fill="#4db68e"/><path d="M277.68,206.85a51.73,51.73,0,0,1-29.83,3.49c-11.09-2-20.47-9.52-31.61-10.61-4.73-.46-6.17,4.87-3.58,8,4.51,5.41,11.87,8.51,18.28,11.06a76.6,76.6,0,0,0,21.4,5.32c11.52,1,28.25,1.06,35-10.2,3.18-5.32-6-8.58-9.64-7.05Z" fill="#4db68e"/><path d="M200.41,253.09c-7.41-5.54-11.07-15.61-12.35-24.43a46.3,46.3,0,0,1,.25-14.1c.78-4.74,3.52-10.35,2-15.05a6.43,6.43,0,0,0-8.73-3.92c-5.88,2.49-7.5,11-8.32,16.66a56,56,0,0,0,.59,19c2.48,12,9.13,25.24,21.46,29.37,5.38,1.81,10.7-3.35,5.08-7.55Z" fill="#4db68e"/><path d="M133.61,220.83c6-8.22,13.22-14.85,22.82-18.55a78.24,78.24,0,0,1,16.39-4c5.45-.83,10.92-1.08,15.23-4.92,2.62-2.33-.28-6.14-2.58-7.14-6.29-2.75-12.78-1.92-19.34-.74a86.82,86.82,0,0,0-19.38,5.78c-10.23,4.48-20.44,12.39-23.62,23.5-1.45,5.08,6.94,11,10.48,6.11Z" fill="#4db68e"/></g><path d="M46,98.1C34.34,99.93,22,97.94,12.58,90.32,3.48,82.93-1.25,69.45,7.11,59.66a17,17,0,0,1,14.75-6.14c6.92.81,11.08,7,12.2,13.42,1.19,6.8-.65,14.31-8.45,15.49-4.52.68-9.46-1.58-10.62-6.35a7.61,7.61,0,0,1,.44-4.73,5.56,5.56,0,0,1,2.11-2.57Q19.67,66.4,22,70.65c-1.67.8.57,2.87,2,2.25,4.1-1.85,2.12-6.81-1.49-7.87-5.08-1.49-10.16,2.84-10.72,7.83C10.25,86.33,31.4,89.53,36.36,78.08,41.68,65.79,31.48,49.67,17.91,51,2.56,52.44-4.09,69.53,2.59,82.32,10.55,97.58,31.07,103.83,47,100c1.48-.36.14-2.06-1-1.88Z" fill="#df4863"/><path d="M126.17,61.3c0-1.35,6.75-29.43-11.34-32.13S65.41,31.6,52.18,65.08s-4.86,49.68.54,51.84,64.54,3.24,75.07-2.7c7.86-4.44-.81-21.33-1.62-35.64A125.44,125.44,0,0,1,126.17,61.3Z" fill="#b4cd3a"/><g clip-path="url(#b)"><rect x="39.76" y="98.02" width="92.34" height="2.16" fill="#00975d"/></g><circle cx="87.82" cy="68.59" r="23.76" fill="#00975d"/><path d="M86.27,64.31a7.7,7.7,0,1,1-7.69-7.7A7.69,7.69,0,0,1,86.27,64.31Z" fill="#231f20"/><circle cx="75.63" cy="61.91" r="2.4" fill="#fff"/><path d="M80.68,62a1.05,1.05,0,1,1-1.05-1.05A1,1,0,0,1,80.68,62Z" fill="#fff"/><path d="M164.91,80.33C158.46,77,140.7,68.7,139.4,82.56c-.51,5.42,2.56,10.33,8,13.88,4.61,3,12.87,5.6,11.75,12.56-.87,5.42-8.17,15.87-12.87,17.91-4.42,1.92-12.06-1.35-15.4,2.75-6.81,8.35,13.18,7.62,17,7.8s8,.42,11.54-1.23c7-3.23,13-9.73,18.41-15,7.94-7.65,14.62-16.6,7-26.66C179.27,87.27,171.6,83.77,164.91,80.33Z" fill="#b4cd3a"/><path d="M275.48,120.83c-2.29-6.16-8-15.2-11.61-21.06-4.32-7.07-9.7-13.3-15.21-19.44-4.26-4.75-10.9-8.32-17.24-5.16-8.07,4-7.88,22-7.29,29.55,1,12.37,6.45,24.9,6.34,37.14-4.75-2-11.8-5.88-17.24-3.54-2.44,1.05-4,4-2.87,6.42,1.35,2.95,5.81,3.4,8.64,4.14,5.9,1.54,12,3.87,18.12,4.38,6.37.52,7-1.66,8.39-7.73,2-8.36,1.59-16.55,2.09-25,6-1.28,11.93,9.76,16.81,15.2,3.75,4.17,10.18,4.1,12.73-1.58C279.41,129,276.36,123.19,275.48,120.83Z" fill="#b4cd3a"/><path d="M272.11,62.75l-.45-.74c-.3-.48-.76-1.17-1.34-2-1.18-1.74-2.93-4.16-5.21-6.9-1.13-1.38-2.42-2.81-3.8-4.29s-2.94-3-4.56-4.44-3.4-2.9-5.25-4.27a56.57,56.57,0,0,0-5.81-3.83c-1-.57-2-1.16-3.07-1.68s-2.06-1.06-3.13-1.47-2.1-.9-3.17-1.26l-1.57-.58c-.53-.19-1.06-.33-1.59-.49l-1.56-.47-1.55-.38c-1-.26-2-.53-3-.68-2-.41-3.88-.63-5.64-.87l-2.54-.2c-.81-.08-1.58-.14-2.31-.14l-2-.06-.91,0h-.83c-2.09,0-3.31,0-3.31,0s1.17-.27,3.25-.69c1-.24,2.32-.35,3.79-.54s3.15-.22,5-.3l2.87.07a12.71,12.71,0,0,1,1.5.09l1.56.16c1,.08,2.12.27,3.22.45.55.1,1.1.18,1.66.3l1.67.41c.56.15,1.13.27,1.69.44l1.7.53a33.79,33.79,0,0,1,3.4,1.23c1.14.42,2.22,1,3.35,1.5s2.19,1.14,3.28,1.73a61.4,61.4,0,0,1,6.08,4.15,56.7,56.7,0,0,1,5.32,4.71,58.18,58.18,0,0,1,4.42,4.94,55.59,55.59,0,0,1,3.46,4.78c1,1.52,1.84,3,2.55,4.28s1.26,2.47,1.69,3.44A27.87,27.87,0,0,1,272.11,62.75Z" fill="#fff"/></svg>