<svg xmlns="http://www.w3.org/2000/svg" viewBox="0 0 235.88 306.82"><title>qaAsset 5</title><path d="M121.11,188v105.1a2.51,2.51,0,0,0,5,0V188a2.51,2.51,0,1,0-5,0" fill="#b55c80"/><path d="M156.38,186.41l30,44.84,2.08-1.39.43-2.47a259.47,259.47,0,0,0-39.53-3.11,173.19,173.19,0,0,0-27.13,2c-9,1.46-17.74,3.85-25.22,7.69a2.51,2.51,0,0,0,2.29,4.46c6.82-3.51,15.06-5.81,23.73-7.2a167.64,167.64,0,0,1,26.33-1.9,258.75,258.75,0,0,1,27.27,1.52c3.52.39,6.39.77,8.36,1.05l2.27.34.59.1.14,0H188a2.5,2.5,0,0,0,2.5-3.86l-30-44.84a2.51,2.51,0,0,0-4.17,2.78Z" fill="#b55c80"/><path d="M95.8,235.26l-6.54,17.05a2.51,2.51,0,0,0,4.68,1.79l6.54-17a2.51,2.51,0,0,0-4.68-1.79" fill="#b55c80"/><path d="M95.65,236.43l2,18.33a2.5,2.5,0,0,0,5-.54l-2-18.33a2.5,2.5,0,1,0-5,.54" fill="#b55c80"/><path d="M96,237.39l9.19,16.32a2.5,2.5,0,0,0,4.36-2.46l-9.19-16.32A2.5,2.5,0,1,0,96,237.39" fill="#b55c80"/><path d="M123.94,290.18l-18.18-3a2.51,2.51,0,0,0-.82,4.95l18.18,3a2.5,2.5,0,1,0,.82-4.94" fill="#b55c80"/><path d="M123.16,290.63,105.05,294a2.51,2.51,0,1,0,.91,4.93l18.12-3.37a2.5,2.5,0,1,0-.92-4.92" fill="#b55c80"/><path d="M122.09,291.1l-14.61,11.23a2.51,2.51,0,1,0,3.06,4l14.61-11.23a2.51,2.51,0,1,0-3.06-4" fill="#b55c80"/><ellipse cx="124.75" cy="192.03" rx="8.86" ry="8.54" fill="#de557a"/><path d="M173.14,190a8.87,8.87,0,1,1-11.23-5A8.71,8.71,0,0,1,173.14,190Z" fill="#de557a"/><path d="M7.76,84.77c4.74-9.21,14.68-13.52,23.4-18.08,3.05-1.6,6.11-3.21,9.11-4.91s5.78-3.13,8.76-4.53c2.6-1.22,8.47-1.84,9.46-5,.53-1.71-.46-4-1.08-5.52l0-.14c-1.73-4.35-3.92-8.61-5.9-12.86-1.49-3.17-3-6.35-4.6-9.46-1.24-2.38-4.07-8.81-6.8-9.79-2-.71-3.91,1.74-5.21,2.89-9,8-18.67,15.31-26.42,24.51C1.28,50.32-1.22,59.42.55,70.38c.47,3,1.11,5.89,1.82,8.79L5.26,89.9C6.09,88.24,6.88,86.48,7.76,84.77Z" fill="#ecd6dc"/><path d="M209.14,171.3c-.68,1.76,2.82,3.53,5,4.48-6.66,3.92-17.32,6.6-20.27,7.89l-3.28,1.41c-14.24,6.13-27.72,11.36-43.66,11.64-26.19.46-58.1-12.06-70.14-36.81-11.33-23.26-14.55-57.15-7.92-82.08,1.2-4.51,4-11.79.18-15.74-6.53-6.75-17.18-5.8-17.18-5.8L34,18.11C49.11-1.72,81.29-7.35,99.1,11.79c8.68,9.35,9.44,26.2,7.22,38.09-2.1,11.29-6.2,22.12-8.44,33.4-1.16,5.81-2.38,12.21-.59,18a12.39,12.39,0,0,0,13,8.33c13.75-1.39,25-7.89,39.43-6.42,22.46,2.3,42.64,21,56.56,41.24a144,144,0,0,1,12.93,23c.86,1.95.23,3.74-1.32,5.39a48.32,48.32,0,0,0-5.84-2.09C211.32,170.63,209.54,170.3,209.14,171.3Z" fill="#f093b7"/><path d="M217.81,164.38c-6.18,2.54-12.89,4.34-15.18,5.34l-3.46,1.49c-15,6.46-29.22,12-46,12.26-27.61.49-61.24-12.71-73.94-38.79-8.25-17-12.41-39.26-11.89-60.09-4.48,24-.9,54.1,9.43,75.32,12,24.75,44,37.27,70.14,36.81,15.94-.28,29.42-5.51,43.66-11.64l3.28-1.41c2.95-1.29,13.61-4,20.27-7.89-2.14-.95-5.64-2.72-5-4.48.4-1,2.18-.67,2.94-.5a48.32,48.32,0,0,1,5.84,2.09c1.55-1.65,2.18-3.44,1.32-5.39C218.78,166.47,218.3,165.43,217.81,164.38Z" fill="#ea5999"/><ellipse cx="63.97" cy="25.01" rx="11.09" ry="11.62" fill="#ea5999"/><ellipse cx="63.97" cy="22.67" rx="9.69" ry="10.81" fill="#d9d9d9"/><ellipse cx="65.28" cy="21.74" rx="7.59" ry="8.47" fill="#fff"/><ellipse cx="66.28" cy="21.44" rx="5.81" ry="6.49" fill="#1d1d1b"/><ellipse cx="68.34" cy="18.39" rx="1.34" ry="1.49" fill="#fff"/><path d="M66.74,19.32a.67.67,0,1,1-.67-.74A.71.71,0,0,1,66.74,19.32Z" fill="#fff"/><path d="M7,43.68c-6,8-8.07,16.53-6.42,26.7.47,3,1.11,5.89,1.82,8.79L5.26,89.9c.83-1.66,1.62-3.42,2.5-5.13C11,78.49,16.65,74.48,22.68,71.13,17.35,62,12,52.93,7,43.68Z" fill="#1d1d1b"/><path d="M6.12,84.36s0-.94.08-2.59c0-.82.08-1.82.18-3A31.81,31.81,0,0,1,6.88,75a21.45,21.45,0,0,1,1.35-4.41,22.49,22.49,0,0,1,2.63-4.42,31.26,31.26,0,0,1,3.68-4.09,54.15,54.15,0,0,1,4.34-3.63c1.51-1.13,3.05-2.22,4.54-3.31a48.14,48.14,0,0,0,4.21-3.37,30.8,30.8,0,0,0,3.44-3.66,19.8,19.8,0,0,0,2.37-3.81A15.27,15.27,0,0,0,35,37.75a16.44,16.44,0,0,0-.11-1.9c-.07-.44-.1-.67-.1-.67l.14.66a12.39,12.39,0,0,1,.23,1.9,14.67,14.67,0,0,1-1.25,6.72,16.94,16.94,0,0,1-1,2l-.61,1q-.34.48-.69,1a27,27,0,0,1-3.44,3.82,50.64,50.64,0,0,1-4.24,3.47l-4.5,3.35a51.26,51.26,0,0,0-4.31,3.53,30.51,30.51,0,0,0-3.63,3.95,24,24,0,0,0-2.66,4.24,20.12,20.12,0,0,0-1.44,4.25,53.08,53.08,0,0,0-1,6.72C6.21,83.43,6.12,84.36,6.12,84.36Z" fill="#252626"/><path d="M194.51,146.18l-.46-.74c-.29-.48-.76-1.16-1.34-2-1.18-1.73-2.93-4.16-5.2-6.9-1.13-1.37-2.42-2.8-3.8-4.29s-2.94-2.94-4.56-4.44-3.41-2.9-5.26-4.27a58.88,58.88,0,0,0-5.81-3.83c-1-.57-2-1.15-3.06-1.68s-2.07-1-3.14-1.46-2.1-.9-3.16-1.27l-1.58-.58c-.52-.18-1.06-.32-1.58-.48l-1.56-.47-1.56-.39c-1-.26-2-.52-3-.68-2-.4-3.88-.62-5.64-.87l-2.55-.19c-.81-.08-1.58-.14-2.3-.14l-2-.06-.91,0-.82,0c-2.1,0-3.32,0-3.32,0s1.17-.28,3.26-.69c1-.24,2.32-.35,3.79-.54s3.15-.23,5-.3l2.86.06a12.9,12.9,0,0,1,1.51.1l1.55.16c1.06.08,2.13.26,3.22.45.55.09,1.11.17,1.66.3l1.67.41c.56.14,1.13.27,1.7.43l1.69.53a31.57,31.57,0,0,1,3.4,1.24c1.15.41,2.23,1,3.36,1.49s2.19,1.14,3.27,1.74a61.87,61.87,0,0,1,6.08,4.14,55.6,55.6,0,0,1,5.33,4.71,58,58,0,0,1,4.41,4.94,55.88,55.88,0,0,1,3.47,4.79c1,1.52,1.84,3,2.55,4.28s1.26,2.46,1.69,3.43A28.82,28.82,0,0,1,194.51,146.18Z" fill="#fff"/><path d="M99.91,36.63s-.18-.69-.48-1.9l-.6-2.15c-.23-.83-.53-1.75-.84-2.75s-.7-2-1.13-3.16-.91-2.25-1.43-3.42-1.13-2.33-1.82-3.46a29.32,29.32,0,0,0-2.21-3.31A18.62,18.62,0,0,0,90.14,15l-.66-.73-.69-.69c-.45-.47-1-.85-1.43-1.29s-1-.75-1.5-1.14l-1.54-1c-.53-.28-1-.57-1.55-.83l-1.54-.7L79.74,8c-.47-.2-1-.28-1.41-.43A10.21,10.21,0,0,0,77,7.25c-.83-.16-1.55-.4-2.16-.48-1.22-.2-1.94-.35-1.94-.35s.7-.14,2-.31A20.59,20.59,0,0,1,77.18,6a19.23,19.23,0,0,1,3,.19l1.72.29,1.8.5c.62.19,1.22.46,1.86.7s1.24.61,1.87.93A22,22,0,0,1,91,11.15l.83.76c.27.26.52.54.78.81.52.54,1,1.14,1.46,1.73a25.9,25.9,0,0,1,2.38,3.77,29,29,0,0,1,1.72,3.92A34.78,34.78,0,0,1,99.26,26a33.33,33.33,0,0,1,.6,3.47,30.93,30.93,0,0,1,.22,5.24A17.21,17.21,0,0,1,99.91,36.63Z" fill="#fff"/><path d="M200.77,146.91c-2.36,2.15-4.33,4.67-6.58,6.94a40.85,40.85,0,0,0-9.81,15.61c-1.31,3.61-2.14,7.68.66,10.83a36,36,0,0,0,5.51,4.79l2.49,1.85a28.28,28.28,0,0,0,9.27,4.93c1.62.46,10.84,2.91,9.39-1.58-.83-2.61-4.51-4.72-6.21-6.76-.46-.55-1.71-2-1.05-2.87,1.28-1.59,4.83.73,6.16,1.26a23.16,23.16,0,0,0,8.29,2c1.34,0,3.29-.37,3.77-1.86,1-3.05-5.3-4.75-7.25-5.64-.27-.13-.75-.32-1.31-.58-2.14-.95-5.64-2.72-5-4.48.4-1,2.18-.67,2.94-.5a48.32,48.32,0,0,1,5.84,2.09l.27.09a34.56,34.56,0,0,0,6.76,1.65,34.64,34.64,0,0,0,7.31.77,3.62,3.62,0,0,0,3.56-2.75,3.68,3.68,0,0,0-.36-2.31c-1.29-2.6-4.25-3.93-6.54-5.47-3.2-2.15-6.5-4.17-9.56-6.51a40.8,40.8,0,0,1-5-4.42c-1.87-2-3.64-4.11-5.41-6.2-.82-1-1.8-2.17-4-5.11Z" fill="#f093b7"/><path d="M183.74,143.68c-4.09-4-7.94-7.63-8.68-8.31-7.33-6.72-15.54-12.71-25.06-15.87-13.54-4.5-35.24-3.65-46.49,6.49-6.8,6.13-4.57,17.16-.61,24.32,11.57,20.9,40,29.34,62.13,23.17a68.44,68.44,0,0,0,18.46-8.29,26.1,26.1,0,0,0,5.35-4c1.78-1.88,4.42-3.56,5.8-5.8C195,154.88,189.14,149,183.74,143.68Z" fill="#de557a"/><path d="M183.74,143.68c-4.09-4-7.94-7.63-8.68-8.31-7.33-6.72-15.54-12.71-25.06-15.87-13.54-4.5-35.24-3.65-46.49,6.49-6.8,6.13-4.57,17.16-.61,24.32,11.57,20.9,40,29.34,62.13,23.17a68.44,68.44,0,0,0,18.46-8.29,26.1,26.1,0,0,0,5.35-4c1.78-1.88,4.42-3.56,5.8-5.8C195,154.88,189.14,149,183.74,143.68Z" fill="#de557a"/><path d="M166.75,141.14c-.32,1.54-2.21,2.07-3.54,2.3-5.7,1-11.54,1-17.29,1.22-1.45.05-2.8,1.56-1.95,2.93.6,1,2.2,1.35,3.24,1.55a36.39,36.39,0,0,1,6.72,1.86,14.06,14.06,0,0,1,5.22,3c1.62,1.74,1.62,4.42-1,5-2.41.51-4.91-.12-7.25-.69-2-.49-4.82-1.54-6.79-.57s-.68,3.21.77,3.95c3.63,1.85,8.26,3.58,8.57,8.37.33,5-5.84,5.25-10.29,5-14-1.62-27.69-8.07-36.32-18.92a40.53,40.53,0,0,1-3.91-5.82c-4-7.16-6.19-18.19.61-24.32a34,34,0,0,1,13.8-7.11,59.85,59.85,0,0,1,32.69.62c.79.26,1.56.55,2.33.84a9.65,9.65,0,0,1,2.29,2.65c1.45,2.58-5.23,4.09-6.83,4.85-1.95.94-1.09,3.86.92,4a28.59,28.59,0,0,1,12.67,3.64,26.27,26.27,0,0,1,2.65,1.68C165.23,138,167.12,139.4,166.75,141.14Z" fill="#ed749a"/><path d="M148.28,138c-.26,1.23-1.76,1.64-2.82,1.83a97.59,97.59,0,0,1-13.78,1c-1.14,0-2.22,1.25-1.55,2.33a3.94,3.94,0,0,0,2.59,1.23,28.55,28.55,0,0,1,5.35,1.5,10.91,10.91,0,0,1,4.16,2.4c1.29,1.38,1.29,3.51-.82,4a13.21,13.21,0,0,1-5.78-.55c-1.59-.39-3.83-1.22-5.41-.45s-.53,2.56.61,3.14c2.9,1.48,6.59,2.85,6.84,6.68.26,4-4.66,4.18-8.2,4a46,46,0,0,1-22.66-8.92,40.53,40.53,0,0,1-3.91-5.82c-4-7.16-6.19-18.19.61-24.32a34,34,0,0,1,13.8-7.11,46.75,46.75,0,0,1,17.63,1.92c.63.21,1.24.44,1.86.67a8,8,0,0,1,1.82,2.11c1.15,2.06-4.16,3.25-5.44,3.87a1.69,1.69,0,0,0,.74,3.15A23.06,23.06,0,0,1,144,133.5a19.36,19.36,0,0,1,2.11,1.35C147.08,135.55,148.57,136.65,148.28,138Z" fill="#f3abc7"/></svg>