<svg version="1.1" id="Layer_1" xmlns="http://www.w3.org/2000/svg" x="0" y="0" viewBox="0 0 235.9 306.8" xml:space="preserve"><style>.st0{fill:#b55c80}.st1{fill:#de557a}.st3{fill:#f093b7}.st6{fill:#fff}.st7{fill:#1d1d1b}</style><path class="st0" d="M121.1 188c2.5 2.3-4.8 108.5 2.7 107.4 6.3.4.3-105.2 2.3-107.4.3-3.5-5.3-3.6-5 0"/><path class="st0" d="M156.4 186.4c1.3-.3 29.9 50.2 32.1 43.5-22.1-10.7-65.7-6.8-91.4 4.1-3.7 11.1 18.6-4.2 26-2.7 61-10.6 90.9 27.2 37.5-47.6-1.9-2.6-6 .2-4.2 2.7z"/><path class="st0" d="m95.8 235.3-6.5 17.1c2 15.1 18.2-27 6.5-17.1"/><path class="st0" d="M95.7 236.4c1.2 2.1-.1 21.7 4.8 20.6 4.8.8.1-33.5-4.8-20.6"/><path class="st0" d="m96 237.4 9.2 16.3c13.4 8.9-9.9-32.3-9.2-16.3m27.9 52.8c-2.2.1-28.7-7.2-19 2 2.2-.2 29 7.1 19-2"/><path class="st0" d="M123.2 290.6c-2.1 1.3-21.5 1.6-20.3 6.2-.7 5.2 33.6-2.3 20.3-6.2"/><path class="st0" d="M122.1 291.1c-1.2 2.1-18.6 11.2-15.1 14.8 1.9 4.6 28.7-17.3 15.1-14.8"/><path class="st1" d="M124.8 183.5c11.5-.2 11.5 17.2 0 17.1-11.5.1-11.5-17.3 0-17.1zm48.3 6.5c4.5 10.6-12.3 17.4-16.4 6.7-4.5-10.6 12.4-17.5 16.4-6.7z"/><path d="M7.8 84.8c8.8-14.5 27.4-19 41.3-27.5 5.8-2 12.4-2.9 8.4-10.7-3.2-7.5-6.9-15-10.5-22.3-2.4-4.7-6.3-14.6-12-6.9C7 41.4-8.4 50.6 5.4 89.9c.7-1.7 1.5-3.4 2.4-5.1z" fill="#ecd6dc"/><path class="st3" d="M209.1 171.3c-.7 1.8 2.8 3.5 5 4.5-44.2 23.3-108.6 35.2-137.4-15.9C45 91.8 94.7 57.2 51.9 56.3L34 18.1C49.1-1.7 81.3-7.3 99.1 11.8c29.4 25.6-27.3 86.4 11.2 97.8 46.1-13 66-5.8 96 34.8 4.8 9.4 24.6 32.5 2.8 26.9z"/><path d="M218.8 164.4c-72.9 40-156.2 13.6-150.5-79.8-23.6 121.6 111.1 137.6 150.5 79.8zM64 13.4c14.5.1 14.5 23.2 0 23.2s-14.5-23.2 0-23.2z" fill="#ea5999"/><path d="M64 11.9c12.6-.2 12.6 21.8 0 21.6-12.6.2-12.6-21.9 0-21.6z" fill="#d9d9d9"/><path class="st6" d="M65.3 13.3c9.8-.2 9.8 17.1 0 16.9-9.9.2-9.9-17.1 0-16.9z"/><path class="st7" d="M66.3 15c7.5-.1 7.5 13.1 0 13-7.6.1-7.6-13.2 0-13z"/><path class="st6" d="M68.3 16.9c1.7 0 1.7 3 0 3s-1.7-3 0-3zm-1.6 2.4c-.1.9-1.4.7-1.3-.1.1-.9 1.4-.7 1.3.1z"/><path class="st7" d="M7 43.7C-4.2 56.9.8 74.8 5.3 89.9c3.2-8.4 9.4-14.8 17.4-18.8C17.4 62 12 52.9 7 43.7z"/><path d="M6.1 84.4C2.8 57.2 36.5 57.8 34.8 35.2 37.9 58 4.6 57 6.1 84.4z" fill="#252626"/><path class="st6" d="M194.5 146.2c-13.2-21.9-36.6-36.6-62.6-34.7 25.6-7.2 54.1 10 62.6 34.7zM99.9 36.6C96.7 22.1 89.3 8 72.9 6.4c17.1-3.9 29.3 14.7 27 30.2z"/><path class="st3" d="M200.8 146.9c-7.6 8.2-22.3 21.4-15.7 33.4 2.3 2.5 5.3 4.6 8 6.6 7.1 6.6 29.4 10.4 12.4-3.4-.5-.5-1.7-2-1-2.9 2.6-2.4 14.8 7.5 18.2 1.4.5-5.8-13.7-5.2-13.6-10.7 2.5-2 6.4 1 9 1.7 4.5 1.5 9.3 2.3 14.1 2.4 12.3-4.4-9.5-13.4-12.9-17-6.3-5-9-8.9-14.4-15.7l-4.1 4.2z"/><path class="st1" d="M183.7 143.7c-12.1-11.6-18.9-18.8-33.7-24.2-20.4-7.6-64.5.7-47.1 30.8 16.9 29.6 61.6 32.5 85.9 10.9 9.7-7.9 5.2-6.1-5.1-17.5z"/><path d="M166.8 141.1c-1.8 6.1-25.1 0-22.8 6.4 3.5 2.7 22.2 4.5 14.2 11.4-4.7 1.2-9.5-2.7-14-1.3-3.8 5.5 10.5 5.5 9.3 12.3.3 5-5.8 5.2-10.3 5-58.8-8.8-58.9-72.1 6.9-55.5 8.4 3.3 4.3 6.6-2.2 8.3-6.7 6.5 16.3 2.6 18.9 13.4z" fill="#ed749a"/><path d="M148.3 138c-1.5 4.8-19.9 0-18.2 5.2 3.6 2.4 8.9 1.7 12.1 5.1 5.6 9.5-18.1-2.2-11.4 6.1 23 15.8-17.3 10.8-24 1.8-12.4-15.1-10.2-32.6 10.5-37.2 5.5-1.4 32.7 2.9 15.9 8.6-1.4.8-.9 3.1.7 3.1 4.9.5 12.8 2 14.4 7.3z" fill="#f3abc7"/></svg>