<svg xmlns="http://www.w3.org/2000/svg" viewBox="0 0 280.25 362.7"><title>qaAsset 1</title><path d="M187.17,60.58a25.2,25.2,0,0,0,3.11.51c1.7-1.78,3.39-3.57,4.94-5.5s3-3.71,4.52-5.47c-4.2-6.88-13.11-15.85-17.49-18.2-4.95-2.66-13.62-6.13-17,.09-3.08,5.67.46,12.28,4.15,16.67C174.06,54.21,180,58.92,187.17,60.58Z" fill="#fcc430"/><path d="M183.42,53.54a16.06,16.06,0,0,0,2.06.33c1.14-1.18,2.26-2.37,3.29-3.65s2-2.48,3-3.65C189,42,183.06,36,180.14,34.46c-3.29-1.77-9.06-4.07-11.31.06-2.05,3.78.31,8.17,2.77,11.09C174.69,49.3,178.65,52.43,183.42,53.54Z" fill="#ec6d62"/><path d="M209.83,41a2.73,2.73,0,1,1-4.78,2.64L191.53,19.2a2.73,2.73,0,0,1,4.78-2.64Z" fill="#875313"/><path d="M201.62,11.55a10.61,10.61,0,0,1-21.12,2,10.61,10.61,0,0,1,21.12-2Z" fill="#875313"/><path d="M235.07,40.46a2.73,2.73,0,1,0,5,2.16L251.17,17a2.73,2.73,0,1,0-5-2.17Z" fill="#875313"/><ellipse cx="251" cy="10.31" rx="10.61" ry="10.31" fill="#875313"/><path d="M257.16,52.7a25.51,25.51,0,0,1-3.11.51c-1.71-1.78-3.39-3.57-4.94-5.5s-3-3.71-4.53-5.47c4.21-6.88,13.12-15.85,17.5-18.2,4.94-2.66,13.62-6.13,17,.09,3.08,5.67-.46,12.28-4.15,16.66C270.27,46.33,264.32,51,257.16,52.7Z" fill="#f3b01b"/><path d="M122.86,308.87a27.72,27.72,0,0,0-6.2,4.85,30.29,30.29,0,0,0-6.39,8.49c-.1.22-.18.43-.26.64-1.4,3.82-2.19,8.94-3,13.08-.05.26-.09.57-.14.93-.1.86-.18,2-.28,3.26,0,.43-.07.86-.1,1.31-.12,1.55-.25,3.2-.42,4.66l-.06.47c-.07.52-.14,1-.22,1.47,0,.2-.07.38-.11.56s-.14.62-.22.87l-.09.27a2.72,2.72,0,0,1-.22.48c-2.63,4.41-19.33,5-23.25-.44a6.34,6.34,0,0,1-1-2.47,12.26,12.26,0,0,1-.21-1.26h0c0-.29-.06-.59-.08-.89h0c-.07-1.07-.06-2.19,0-3.29,0-.44,0-.88,0-1.31,0-.64,0-1.26.06-1.85a22.66,22.66,0,0,0-.06-2.54A130.92,130.92,0,0,0,77.82,321c-.16-.7-.31-1.4-.46-2.09-3.81-17.58-6.79-38.26-3.77-56.76,2.81-17.23,11.89-30.2,25.78-38.35,14.25-6.89,11.56,34.94,18.33,57.17C119.87,288.08,126.06,305.67,122.86,308.87Z" fill="#e8a316"/><path d="M240,52.62c0,19-6.05,97.71-6.53,103.26q-.65,7.35-1.28,14.77c-1.46,16.61-3,33.33-5.5,49.66,0,.1,0,.2,0,.3-2.55,17-3.41,33.84-6.33,50.74-.86,5-1.89,10-3,14.92-2.49,11.25-5.33,22.45-7.24,33.82a105.53,105.53,0,0,0-1.17,11.28v0c-.29,5-.42,10-.82,14.77L208,347c0,.76-.06,1.49-.06,2.2s0,1.39,0,2c0,.25,0,.51,0,.76s0,.53,0,.78v.09c0,.15,0,.3,0,.45s-.07.56-.12.82v.07a7,7,0,0,1-.16.69c0,.11-.07.22-.11.33s-.08.22-.13.33a3.5,3.5,0,0,1-.26.51l-.16.25-.17.24a4.15,4.15,0,0,1-.27.32,1.75,1.75,0,0,1-.24.23l-.14.12-.15.11-.18.13-.2.12a5.49,5.49,0,0,1-1.06.51l-.38.13-.42.12-.54.13-.47.08-.39.06c-.57.08-1.2.14-1.91.17h-.34c-.55,0-1.14,0-1.77,0-5.06-.15-16.58,2.11-16.64-3.61,0-3.95,0-7.25.13-10.28.09-3.35.19-6.39.12-9.64q0-1.05-.06-2.13c-.26-6.66-4.52-10.89-11.68-10.39a9.93,9.93,0,0,0-2.53.53c-3.56,1.26-7,4.59-8.78,9.28a14,14,0,0,0-.56,1.62c-.44,1.53-.9,2.93-1.32,4.39a45.65,45.65,0,0,0-1.72,9c-.05.51-.09,1.09-.11,1.71l0,.9c0,.68,0,1.38-.06,2.11,0,1.47-.07,3-.19,4.38,0,.2,0,.4,0,.6,0,.39-.08.77-.13,1.13a5.58,5.58,0,0,1-.09.59c0,.15-.05.3-.08.44a3.59,3.59,0,0,1-.08.35q-.06.24-.12.45c-.05.17-.11.33-.17.48-1.32,3.34-21.76,2.61-22.23-1.82-.06-.55-.11-1.16-.17-1.82,0-.33,0-.67-.07-1s-.06-.78-.09-1.19l-.06-1c-.06-.95-.11-1.95-.17-3s-.11-2.06-.17-3.11c-.14-2.58-.28-5.17-.45-7.4-.59-8-2.52-17.18-9.09-23.1a24.46,24.46,0,0,0-5-3.51c-6-3.2-12.51-3.16-20.12-2.72-8.51.49-14.94,1.78-19.18,7.92a23,23,0,0,0-2.72,5.37c-1.51,4.11-2.36,9.61-3.2,14.07-.24,1.28-.41,3.95-.63,6.75-.14,1.79-.3,3.65-.51,5.2,0,.35-.1.68-.16,1s-.1.54-.15.78,0,.24-.08.35a8,8,0,0,1-.26.85l-.08.19a1.58,1.58,0,0,1-.13.26c-2.83,4.73-20.79,5.32-25-.48a5.17,5.17,0,0,1-.59-1.06,3.65,3.65,0,0,1-.14-.35,7.73,7.73,0,0,1-.36-1.26c-.05-.27-.1-.54-.14-.82s-.06-.39-.08-.59,0-.28,0-.42v-.07c0-.22,0-.43,0-.65s0-.6,0-.91c0-1.49,0-3,.08-4.5,0-.7,0-1.38.06-2s0-1.41-.07-2-.14-1.28-.23-1.94-.16-1.22-.27-1.85-.22-1.39-.35-2.09c-.63-3.48-1.46-7.06-2.2-10.38-1.11-5-2.16-10.17-3.07-15.53-2.5-14.74-3.84-30.6-1.84-45.33.11-.82.23-1.62.36-2.43,3.6-22.1,16.78-37.72,36.91-45.75l1.16-.45c8.71-3.36,15.11-4.32,24.79-4.32,9.36,0,18.75.39,28.12.79l5.53.24c2.25.09,4.58.46,6.91.78,4,.53,8,.94,11.8-.39,12.47-4.4,22.85-18.56,27.22-30.61A88.54,88.54,0,0,0,181,168.49c1.23-5.44,2.11-11,3.11-16.43,1.66-9,2.92-18,4-27.09.6-5,1.17-10.1,1.76-15.15,1.7-14.45,6.36-57.89,6.36-57.89l.88-.09.19,0c.6-.06,1.21-.15,1.84-.25q1.67-.26,3.39-.63c.74-.15,1.5-.33,2.26-.51,4.42-1.06,9-2.48,13.38-3.67l1.14-.31c1.22-.34,2.43-.65,3.61-.92l1.88-.43a41.16,41.16,0,0,1,5-.75c.27,0,.53,0,.79-.05C236.22,44,240,46,240,52.62Z" fill="#fcc430"/><path d="M240,52.62c0,19-6.05,97.71-6.53,103.26q-.65,7.35-1.28,14.77c-1.46,16.61-3,33.33-5.5,49.66,0,.1,0,.2,0,.3-2.55,17-3.41,33.84-6.33,50.74-.86,5-1.89,10-3,14.92-2.49,11.25-5.33,22.45-7.24,33.82a105.53,105.53,0,0,0-1.17,11.28v0c-.29,5-.42,10-.82,14.77L208,347c0,.76-.06,1.49-.06,2.2s0,1.39,0,2c0,.25,0,.51,0,.76s0,.53,0,.78v.09c0,.15,0,.3,0,.45s-.07.56-.12.82v.07a7,7,0,0,1-.16.69c0,.11-.07.22-.11.33s-.08.22-.13.33a3.5,3.5,0,0,1-.26.51l-.16.25-.17.24a4.15,4.15,0,0,1-.27.32,1.75,1.75,0,0,1-.24.23l-.14.12-.15.11-.18.13-.2.12a5.49,5.49,0,0,1-1.06.51l-.38.13-.42.12-.54.13-.47.08-.39.06c-.57.08-1.2.14-1.91.17h-.34c-.55,0-1.14,0-1.77,0-5.06-.15-16.58,2.11-16.64-3.61,0-3.95,0-7.25.13-10.28.09-3.35.19-6.39.12-9.64q0-1.05-.06-2.13c-.26-6.66-4.52-10.89-11.68-10.39a9.93,9.93,0,0,0-2.53.53c-3.56,1.26-7,4.59-8.78,9.28a14,14,0,0,0-.56,1.62c-.44,1.53-.9,2.93-1.32,4.39a45.65,45.65,0,0,0-1.72,9c-.05.51-.09,1.09-.11,1.71l0,.9c0,.68,0,1.38-.06,2.11,0,1.47-.07,3-.19,4.38,0,.2,0,.4,0,.6,0,.39-.08.77-.13,1.13a5.58,5.58,0,0,1-.09.59c0,.15-.05.3-.08.44a3.59,3.59,0,0,1-.08.35q-.06.24-.12.45c-.05.17-.11.33-.17.48-1.32,3.34-21.76,2.61-22.23-1.82-.06-.55-.11-1.16-.17-1.82,0-.33,0-.67-.07-1s-.06-.78-.09-1.19l-.06-1c-.06-.95-.11-1.95-.17-3s-.11-2.06-.17-3.11c-.14-2.58-.28-5.17-.45-7.4-.59-8-2.52-17.18-9.09-23.1a24.46,24.46,0,0,0-5-3.51c-6-3.2-12.51-3.16-20.12-2.72-8.51.49-14.94,1.78-19.18,7.92a23,23,0,0,0-2.72,5.37c-1.51,4.11-2.36,9.61-3.2,14.07-.24,1.28-.41,3.95-.63,6.75-.14,1.79-.3,3.65-.51,5.2,0,.35-.1.68-.16,1s-.1.54-.15.78,0,.24-.08.35a8,8,0,0,1-.26.85l-.08.19a1.58,1.58,0,0,1-.13.26c-2.83,4.73-20.79,5.32-25-.48a5.17,5.17,0,0,1-.59-1.06,3.65,3.65,0,0,1-.14-.35,7.73,7.73,0,0,1-.36-1.26c-.05-.27-.1-.54-.14-.82s-.06-.39-.08-.59,0-.28,0-.42v-.07c0-.22,0-.43,0-.65s0-.6,0-.91c0-1.49,0-3,.08-4.5,0-.7,0-1.38.06-2s0-1.41-.07-2-.14-1.28-.23-1.94-.16-1.22-.27-1.85-.22-1.39-.35-2.09c2.5-11.42,4.32-23.06,7.94-34.13,4-12.13,12.27-20.71,22.4-27,8-4.92,17-8.41,26-11.06,4.9-1.46,9.85-2.74,14.81-4,5.66-1.42,11.34-2.8,17-4.32,10.52-2.83,21.55-6,30.59-12.27,19.3-13.34,27.22-36.62,32-58.58a240.42,240.42,0,0,0,5.22-45.54c.34-15.81-.64-31.63-.27-47.45.26-11.2,1.36-24.49-.69-36.56l.19,0c.6-.06,1.21-.15,1.84-.25q1.67-.26,3.39-.63l2.26-.51c4.42-1.06,9-2.48,13.38-3.67l1.14-.31c1.22-.34,2.43-.65,3.61-.92l1.88-.43a41.16,41.16,0,0,1,5-.75c.27,0,.53,0,.79-.05C236.22,44,240,46,240,52.62Z" fill="#f3b01b"/><path d="M43.12,340.59c0,4.11-.74,9.83,1.31,12.65,4.22,5.8,22.18,5.21,25,.47.72-1.21,1.09-5,1.38-8.6A109.16,109.16,0,0,1,43.12,340.59Z" fill="#c36a15"/><path d="M131.17,347.74c.23,4.17.44,8.34.73,11.06.47,4.43,20.91,5.15,22.23,1.82,1-2.42.84-7.7,1-11.43C147.14,349,139.2,348.18,131.17,347.74Z" fill="#c36a15"/><path d="M181.77,344.85c-.09,3-.17,6.32-.13,10.28.06,5.72,11.59,3.46,16.65,3.61,11.38.33,9.36-4.71,9.76-11.78C199.35,347.71,190.49,346.5,181.77,344.85Z" fill="#c36a15"/><path d="M92.54,340.78a57.58,57.58,0,0,1-11.84-2.1c-.08,3.75-.57,8.62,1.23,11.08,3.92,5.39,20.62,4.85,23.25.45.82-1.37,1.15-6.26,1.44-10.09A51.51,51.51,0,0,1,92.54,340.78Z" fill="#c36a15"/><path d="M59.91,244.69s-.14-.28-.39-.83-.64-1.32-1.1-2.3-1.12-2.14-1.86-3.41a26.59,26.59,0,0,0-2.81-3.88,16.44,16.44,0,0,0-4-3.37c-.39-.22-.81-.41-1.2-.63s-.85-.36-1.28-.51l-.68-.2-.33-.11h-.06l.08,0-.1,0-.21-.05a12.48,12.48,0,0,0-1.58-.33l-.69-.11-.79-.09c-.52-.07-1.08-.11-1.63-.15-1.11-.08-2.29-.12-3.5-.19a57,57,0,0,1-7.8-.7,20.07,20.07,0,0,1-8.19-3.38l-.06,0,0,0-.2-.15-.09-.08-.17-.15-.35-.3-.69-.59a9.6,9.6,0,0,1-.76-.78l-.8-.88a15.7,15.7,0,0,1-1.3-1.74,12.39,12.39,0,0,1-1-1.77,28,28,0,0,1-2.5-7c-.48-2.21-.77-4.28-1-6.16s-.38-3.57-.54-5.08-.31-2.81-.49-3.88q-.15-.8-.24-1.44c-.09-.42-.17-.77-.23-1.06-.13-.59-.19-.9-.19-.9l.55.74c.18.24.39.55.65.9s.49.8.77,1.3A36.84,36.84,0,0,1,14.87,199c.62,1.44,1.23,3.08,1.87,4.84s1.31,3.64,2.07,5.53a30.23,30.23,0,0,0,2.8,5.39A9.59,9.59,0,0,0,22.5,216a8.4,8.4,0,0,0,.94,1.06l.45.44a3.5,3.5,0,0,0,.54.48l.72.56.37.29.18.14.09.07-.15-.12h0l0,0a15.48,15.48,0,0,0,5.56,2c2.15.41,4.53.58,7,.83,1.24.11,2.5.25,3.78.46.64.1,1.27.2,1.92.34l1,.21,1,.29c.74.2,1.22.4,1.77.6a18.5,18.5,0,0,1,1.88.84c.59.31,1.15.67,1.7,1s1.05.74,1.53,1.15A18.38,18.38,0,0,1,57.08,232a24.35,24.35,0,0,1,2.66,9.16,22.88,22.88,0,0,1,.16,2.61C59.91,244.37,59.91,244.69,59.91,244.69Z" fill="#fcc430"/><path d="M5.84,168.48c-17.16,32.48,9,34.92,9,34.92h0S36.41,188.85,5.84,168.48Z" fill="#884617"/><polygon points="12.25 200.19 12.85 206.23 17.49 205.22 15.94 200.19 12.25 200.19" fill="#884617"/><path d="M269.56,116.08a37.23,37.23,0,0,1-29.43,27c-5,.86-11.32,1.21-16.34.11-9.29-2-17.56-7.65-19.67-17.4-2-9.46-.73-19.65-3.25-29C197.1,82.9,182.81,72,188.14,56.3c2-5.9,6.49-10.41,11.71-13.81a55.24,55.24,0,0,1,9.08-4.71c10.78-4.44,22.65-5.72,33.92-2.3.9.28,1.78.59,2.63,1a25.33,25.33,0,0,1,13,11.93c5.12,10,4.93,21.16,5.87,32C265.42,92.88,272.83,103.16,269.56,116.08Z" fill="#fcc430"/><path d="M264.35,80.38c-.94-10.86-.75-22-5.87-32a25.33,25.33,0,0,0-13-11.93c-.85-.36-1.73-.67-2.63-1-11.27-3.42-23.14-2.14-33.92,2.3a58.38,58.38,0,0,0-8.61,4.41,39.83,39.83,0,0,1,12,4.31c10.71,6,21.63,17.9,21.14,31-.42,11.2-5.69,26.49-16.46,31.81a37.93,37.93,0,0,1-14.28,3.55,80.78,80.78,0,0,0,1.37,13c2.11,9.75,10.38,15.37,19.67,17.4,5,1.1,11.32.75,16.34-.11a37.23,37.23,0,0,0,29.43-27C272.83,103.16,265.42,92.89,264.35,80.38Z" fill="#f3b01b"/><path d="M269.56,116.08a37.21,37.21,0,0,1-29.42,27c-5,.86-11.33,1.2-16.35.12-9.29-2-17.57-7.65-19.66-17.41a72.26,72.26,0,0,1-1.3-11.6c8.75-10.36,23-17.1,39.09-17.1a53.73,53.73,0,0,1,28.13,7.74A28.57,28.57,0,0,1,269.56,116.08Z" fill="#c36a15"/><ellipse cx="212.15" cy="68.91" rx="8.05" ry="8.98" fill="#ec6d62"/><path d="M219.55,68.13c0,3.89-2.83,7-6.31,7s-6.31-3.15-6.31-7,2.82-7,6.31-7S219.55,64.24,219.55,68.13Z" fill="#fff"/><path d="M218.89,67.88a4.85,4.85,0,1,1-4.82-5.38A5.13,5.13,0,0,1,218.89,67.88Z" fill="#1d1d1b"/><path d="M216.89,65.34a1.12,1.12,0,1,1-1.11-1.23A1.18,1.18,0,0,1,216.89,65.34Z" fill="#fff"/><path d="M214.45,66.12a.56.56,0,1,1-1.11,0,.56.56,0,1,1,1.11,0Z" fill="#fff"/><ellipse cx="243.49" cy="65.34" rx="8.05" ry="8.98" fill="#ec6d62"/><path d="M250.89,64.57c0,3.89-2.82,7-6.31,7s-6.31-3.15-6.31-7,2.83-7,6.31-7S250.89,60.68,250.89,64.57Z" fill="#fff"/><path d="M250.24,64.32a4.86,4.86,0,1,1-4.83-5.38A5.13,5.13,0,0,1,250.24,64.32Z" fill="#1d1d1b"/><path d="M248.23,61.78a1.12,1.12,0,1,1-1.11-1.23A1.18,1.18,0,0,1,248.23,61.78Z" fill="#fff"/><path d="M245.79,62.56a.59.59,0,0,1-.55.62.59.59,0,0,1-.55-.62.58.58,0,0,1,.55-.61A.58.58,0,0,1,245.79,62.56Z" fill="#fff"/><path d="M261.59,44.72a18,18,0,0,1-2,.33c-1.13-1.17-2.24-2.35-3.26-3.62s-2-2.45-3-3.61c2.77-4.53,8.64-10.43,11.52-12,3.26-1.75,9-4,11.19.06,2,3.74-.3,8.08-2.73,11C270.23,40.52,266.31,43.62,261.59,44.72Z" fill="#ec6d62"/><path d="M126.44,209.3a8.86,8.86,0,0,1-1.78,3.21c-2.54,2.75-7.46,5.69-11.06,6.36s-7.19.63-10.39,2.36c-3.6,2-5.93,3.07-10.16,2.93a56.06,56.06,0,0,1-12-1.92c-3-.8-6.12-3-7.26-6.14a12,12,0,0,1-.21-3.27c8.71-3.36,15.11-4.32,24.79-4.32C107.68,208.51,117.07,208.9,126.44,209.3Z" fill="#884617"/><path d="M245.48,36.43a12.83,12.83,0,0,1-1.57,5.68,29.68,29.68,0,0,0-1.85,4.25c-.47,1.6-.52,3.39-1.54,4.79-1.48,2-4.5,2.32-6.78,2.06-3-.34-5.6-1.8-8.31-2.91-3.4-1.39-7.2-.95-10.72-.37-2.47.42-5,1.87-7.53,1.33-3.88-.83-6-5.11-7.33-8.77a55.24,55.24,0,0,1,9.08-4.71c10.78-4.44,22.65-5.72,33.92-2.3C243.75,35.76,244.63,36.07,245.48,36.43Z" fill="#884617"/><path d="M232.18,170.65c-1.46,16.61-3,33.33-5.5,49.66,0,.1,0,.2,0,.3-7.07,0-14.4-3.83-15.38-11.41-.73-5.74,2.18-10.21,5-14.82,1.52-2.46,3.26-4.7,3.52-7.64.23-2.67-.92-4.13-1.54-6.52-1.36-5.14-.63-8.82,5-9.45A61.38,61.38,0,0,1,232.18,170.65Z" fill="#884617"/><path d="M49.87,295.2c.24,4.92-3.46,8.07-7.43,10.18a12.28,12.28,0,0,1-5.5,1.41c-2.5-14.74-3.84-30.6-1.84-45.33a8.15,8.15,0,0,1,3-.77A11,11,0,0,1,47.46,265c3.08,4.09,1.87,9,.61,13.56a16.57,16.57,0,0,0-.27,8.67c.45,1.79,1.17,3.52,1.63,5.3A13.08,13.08,0,0,1,49.87,295.2Z" fill="#884617"/><path d="M217.33,286.27c-2.49,11.25-5.33,22.45-7.24,33.82a105.53,105.53,0,0,0-1.17,11.28v0a12,12,0,0,1-4.36-2.13c-3.57-2.72-6.7-6.44-5.65-11.26a13.14,13.14,0,0,1,.88-2.61c.75-1.68,1.75-3.26,2.49-5a16.5,16.5,0,0,0,1.16-8.6c-.49-4.69-.86-9.74,2.86-13.27a11,11,0,0,1,9.92-2.64A6.53,6.53,0,0,1,217.33,286.27Z" fill="#884617"/><path d="M110.14,245.19a14.23,14.23,0,0,0-9.39.65c-3.94,1.84-6.84,2.1-11.49,2.1-5.55,0-9.06,1.21-9.93,6.77-.33,2.14,0,4.66,0,6.83A20.59,20.59,0,0,1,78,269.46c-2.06,5.74-2.18,10.15,3.53,13.06,5,2.57,12.16,2.36,16.69-.67,2.07-1.39,4.39-3.15,6.69-3.64,2.48-.52,5.71,0,8.25,0,6.09,0,9.71-2,12.63-7.19C132.38,259.32,121.32,248.1,110.14,245.19Z" fill="#884617"/><path d="M178.82,243.51a9.28,9.28,0,0,0,6-1.33,15.52,15.52,0,0,1,7.15-2.45c3.55-.55,5.69-1.64,5.7-5.29a29.43,29.43,0,0,0-.66-4.36,13.33,13.33,0,0,1,.09-5.2c.77-3.88.42-6.71-3.51-8a11.4,11.4,0,0,0-10.62,2,13.82,13.82,0,0,1-3.94,3c-1.53.58-3.65.56-5.28.8-3.89.59-6,2.22-7.39,5.82C163.23,236.6,171.39,242.72,178.82,243.51Z" fill="#884617"/><path d="M110.27,322.21c-.1.22-.18.43-.26.64-1.4,3.82-2.19,8.94-3,13.08-.05.26-.09.57-.14.93a10.19,10.19,0,0,1-1.25-.11,7.91,7.91,0,0,1-3.38-.93,7.6,7.6,0,0,1-2.41-2.21,3.75,3.75,0,0,1-.7-2.31,5.82,5.82,0,0,1,.52-2.4,24.46,24.46,0,0,1,1.35-2.17,10.87,10.87,0,0,0,1-3,4.73,4.73,0,0,1,1.24-2.78c1.21-1,3.93-.56,5.25-.06A4.18,4.18,0,0,1,110.27,322.21Z" fill="#773e17"/><path d="M167.62,323.22c-3.56,1.26-7,4.59-8.78,9.28a14,14,0,0,0-.56,1.62c-.44,1.53-.9,2.93-1.32,4.39-.42-.19-.83-.4-1.21-.62a9.76,9.76,0,0,1-3.46-2.6,9.43,9.43,0,0,1-1.74-3.62,4.69,4.69,0,0,1,.26-3,7.21,7.21,0,0,1,1.68-2.5,29.22,29.22,0,0,1,2.54-1.88,13.42,13.42,0,0,0,2.51-2.91c.68-1,1.46-2.24,2.7-2.61,1.81-.56,4.75,1.15,6,2.32A5.21,5.21,0,0,1,167.62,323.22Z" fill="#773e17"/><path d="M193,153.06s0,.76,0,2.19-.07,3.52-.3,6.18a96.3,96.3,0,0,1-4.25,21.75,72,72,0,0,1-6,13.72,49.29,49.29,0,0,1-10.58,13.16,37.45,37.45,0,0,1-16.23,8.35,20.08,20.08,0,0,1-2.31.46l-1.17.19-.59.09-.16,0h-.21l-.28,0-4.52.34c-1.56,0-3.16,0-4.74,0s-3.1-.19-4.66-.28c-6.16-.55-12.18-1.59-18.06-2.38-1.47-.18-2.93-.39-4.38-.55l-4.33-.43-.27,0h-.74l-1.1,0-2.17-.07c-1.4,0-2.75.12-4.11.17a62.83,62.83,0,0,0-15.6,3.3,72.11,72.11,0,0,0-13,6.09c-1.87,1.22-3.7,2.36-5.31,3.63s-3.12,2.48-4.52,3.66-2.55,2.46-3.68,3.57-2,2.27-2.89,3.28-1.52,2-2.15,2.8-1.06,1.58-1.46,2.17L52,246.22l1-1.94c.35-.62.7-1.44,1.25-2.32l1.91-3c.77-1.09,1.69-2.26,2.66-3.56.5-.63,1.08-1.25,1.65-1.91s1.16-1.36,1.84-2A66,66,0,0,1,72,223.36a67.14,67.14,0,0,1,13.25-7,61.73,61.73,0,0,1,16.33-4c1.48-.09,3-.22,4.48-.27l2.18,0h2l.28,0,4.49.34c1.49.15,3,.35,4.48.53,6,.76,11.95,1.73,17.9,2.23,1.47.09,3,.28,4.43.3l4.35.06,4.52-.3.47,0,.53-.08,1.05-.16a18.55,18.55,0,0,0,2.1-.41,35.59,35.59,0,0,0,7.92-2.77,36.4,36.4,0,0,0,6.9-4.5,49.1,49.1,0,0,0,10.29-12,69,69,0,0,0,3.58-6.53c1.06-2.17,2-4.32,2.77-6.43a109,109,0,0,0,5.62-21.09c.43-2.61.71-4.68.87-6.09Z" fill="#fff"/><path d="M227.72,119.83c.73,3.18,0,6.06-1.57,6.42s-3.48-1.92-4.2-5.11,0-6.06,1.58-6.42S227,116.64,227.72,119.83Z" fill="#884617"/><path d="M248.66,116.9c-.73,3.19,0,6.06,1.57,6.42s3.48-1.92,4.2-5.11,0-6.06-1.58-6.42S249.38,113.72,248.66,116.9Z" fill="#884617"/></svg>