<svg version="1.1" id="Layer_1" xmlns="http://www.w3.org/2000/svg" x="0" y="0" viewBox="0 0 280.2 362.7" xml:space="preserve"><style>.st0{fill:#fcc430}.st1{fill:#ec6d62}.st2{fill:#875313}.st3{fill:#f3b01b}.st5{fill:#c36a15}.st6{fill:#884617}.st7{fill:#fff}.st8{fill:#1d1d1b}</style><path class="st0" d="M187.2 60.6c1 .2 2.1.4 3.1.5 3.4-3.4 6.4-7.4 9.5-11-31.2-46-55.7-6.6-12.6 10.5z"/><path class="st1" d="M183.4 53.5c.7.2 1.4.3 2.1.3 2.3-2.2 4.3-4.9 6.3-7.3-19.6-29.9-37.9-5.3-8.4 7z"/><path class="st2" d="M209.8 41c1.8 3.1-3.1 5.8-4.8 2.6l-13.5-24.4c-.7-1.3-.2-3 1.1-3.7 1.3-.7 3-.2 3.7 1.1L209.8 41z"/><path class="st2" d="M201.6 11.6c1.2 13.4-19.8 15.4-21.1 2-1.2-13.5 19.8-15.4 21.1-2zm33.5 28.9c-1.8 3.3 3.8 5.8 5 2.2l11.1-25.6c.7-1.3.1-3-1.2-3.7-1.4-.7-3.2 0-3.8 1.5 0-.1-11.1 25.6-11.1 25.6z"/><path class="st2" d="M251 0c13.9.1 13.9 20.6 0 20.6S237.1.1 251 0z"/><path class="st3" d="M257.2 52.7c-1 .2-2.1.4-3.1.5-3.4-3.4-6.4-7.4-9.5-11 31.1-45.9 55.7-6.7 12.6 10.5z"/><path d="M122.9 308.9c-15.3 7.9-15.6 25.6-17.4 40.6-2 5.5-19.5 5.7-23.6.3-2.5-28.7-13.1-57.9-8.3-87.6 2.8-17.2 11.9-30.2 25.8-38.4 14.2-6.9 11.6 34.9 18.3 57.2 2.2 7.1 8.4 24.7 5.2 27.9z" fill="#e8a316"/><path class="st0" d="M240 52.6c-2.5 106.9-17.5 194-32 294.4.4 7.9-.2 12.5-9.6 11.8-24.5 2.4-14.8-5.4-16.4-23.5 1.4-15.4-18.5-16.7-23-2.7-4 9-3.1 18.8-4.6 28.1-1.3 3.3-21.8 2.6-22.2-1.8-1.7-14.2 1.2-30.6-10.3-41.6-9.5-9.2-36.5-9.4-44.3 1.7-6.7 10.2-5.1 23.2-7.9 34.8-4.1 5.7-28.7 6-26.3-6.6.7-8.3-1-16.7-3-24.8-19.4-78.3 7-123.9 92-112.8 6.1.3 12.7 2.5 18.7.4 45.7-19.3 36.7-121.8 45.3-158 10.3.7 43.7-18.1 43.6.6z"/><path class="st3" d="M240 52.6c-1.8 109.1-19.7 197.9-32.1 300.7-.1 3.2-2.4 5-5.5 5.3-27.9 2.2-19.4-1.2-20.4-23.4-.2-20.3-23.3-13.8-24.9 3.3-2.6 7.1-1 14.9-2.8 22.1-1.3 3.3-21.8 2.6-22.2-1.8-1.7-14.2 1.2-30.6-10.3-41.6-9.5-9.2-36.5-9.4-44.3 1.7-6.6 10.1-5.3 22.9-7.8 34.6-2.6 5.1-20.9 5.6-25.1-.2-2.3-3.7-1.1-8.5-1.2-12.6 8.9-166.2 179.7 26.1 154.1-288.8 10.1.4 42.9-17.7 42.5.7z"/><path class="st5" d="M43.1 340.6c0 4.1-.7 9.8 1.3 12.6 4.2 5.8 22.2 5.2 25 .5.7-1.2 1.1-5 1.4-8.6-9.4-.3-18.7-1.8-27.7-4.5zm88.1 7.1c.2 4.2.4 8.3.7 11.1.5 4.4 20.9 5.1 22.2 1.8 1-2.4.8-7.7 1-11.4-8-.2-15.9-1-23.9-1.5zm50.6-2.9c-1.4 15.6.8 14.7 16.5 13.9 11.4.3 9.4-4.7 9.8-11.8-8.8.8-17.6-.4-26.3-2.1zm-89.3-4c-4-.3-8-1-11.8-2.1-.1 3.8-.6 8.6 1.2 11.1 3.9 5.4 20.6 4.9 23.2.5.8-1.4 1.2-6.3 1.4-10.1-4.5.8-9.3 1-14 .6z"/><path class="st0" d="M59.9 244.7c-2.7-6-6.6-13.6-13.7-15.2h.1c-8.1-1.8-17.4.3-24.5-5h-.1c-9.9-7.4-8.2-21.4-10.5-32 6.4 7.8 5.9 20.3 14.6 26.6l-.1-.1c5.8 3.4 12.9 2.2 19.3 3.8 9.9 2 15.3 12.3 14.9 21.9z"/><path class="st6" d="M5.8 168.5c-17.2 32.5 9 34.9 9 34.9s21.6-14.6-9-34.9z"/><path class="st6" d="m12.2 200.2.6 6 4.6-1-1.6-5h-3.6z"/><path class="st0" d="M269.6 116.1c-5.4 28.7-55.6 40.8-65.4 9.7-2-9.5-.7-19.7-3.2-29-3.8-13.9-18.1-24.8-12.7-40.5 10.3-24.1 56.5-33 70.3-7.9 5.1 10 4.9 21.2 5.9 32 .9 12.5 8.3 22.8 5.1 35.7z"/><path class="st3" d="M264.4 80.4c1.8-43.4-27.1-58.7-64-38.2 16.2 3.1 33.2 17.8 33.1 35.3-.1 17.1-11.8 36-30.7 35.4-3.4 43.3 58.7 38.6 66.8 3.3 3.2-13-4.2-23.3-5.2-35.8z"/><path class="st5" d="M269.6 116.1c-7.2 34.5-69.4 40.1-66.7-1.9 14.3-18 46.8-22.7 67.2-9.4.5 3.8.4 7.6-.5 11.3z"/><path class="st1" d="M212.1 59.9c10.4-.2 10.4 18.1 0 18-10.4.2-10.4-18.1 0-18z"/><path class="st7" d="M219.6 68.1c.1 9.1-12.7 9.1-12.6 0-.2-9 12.7-9.1 12.6 0z"/><path class="st8" d="M218.9 67.9c-.6 6.3-10.4 5.2-9.6-1.1.6-6.3 10.1-5 9.6 1.1z"/><path class="st7" d="M216.9 65.3c-.1 1.4-2.4 1.2-2.2-.2.1-1.4 2.3-1.2 2.2.2zm-2.5.8c.1.8-1.2.8-1.1 0-.1-.8 1.3-.8 1.1 0z"/><path class="st1" d="M243.5 56.4c10.4-.2 10.4 18.1 0 18-10.5.1-10.5-18.2 0-18z"/><path class="st7" d="M250.9 64.6c.1 9.1-12.7 9.1-12.6 0-.1-9.1 12.7-9.1 12.6 0z"/><path class="st8" d="M250.2 64.3c-.6 6.3-10.4 5.2-9.7-1 .7-6.3 10.2-5.1 9.7 1z"/><path class="st7" d="M248.2 61.8c-.1 1.4-2.4 1.2-2.2-.2.1-1.5 2.3-1.2 2.2.2zm-2.4.8c0 .8-1.1.8-1.1 0-.1-.8 1.1-.8 1.1 0z"/><path class="st1" d="M261.6 44.7c-.7.1-1.3.3-2 .3-2.2-2.2-4.2-4.9-6.3-7.2 19.5-29.7 37.4-5.2 8.3 6.9z"/><path class="st6" d="M126.4 209.3c-3.6 9.6-15.4 9-23.2 11.9-7.6 5.2-30.2 3.9-29.6-8.4 16.7-6.8 35.1-3.8 52.8-3.5zM245.5 36.4c-4 13.4-4 21.7-20 13.9-10.4-4.1-21 8.2-25.6-7.8 13.3-8.5 30.5-11.9 45.6-6.1zm-13.3 134.2c-1.4 16.7-3.1 33.5-5.5 50-7.1 0-14.4-3.8-15.4-11.4-1.4-8.9 6.9-14.5 8.5-22.5-3.5-14.2-3.5-16.9 12.4-16.1zM49.9 295.2c.2 6.7-6.9 11.2-12.9 11.6-2.5-14.7-3.8-30.6-1.8-45.3 10.8-4 17.3 7.9 13 17.1-2.3 5.7.9 11 1.7 16.6zm167.4-8.9c-3.2 14.9-7.6 29.8-8.4 45.1-10.2-3.2-12.8-12.5-6.6-21 3.5-7-2.2-15.9 4-21.9 2.9-2.7 7.3-3.8 11-2.2zm-107.2-41.1c-7.5-2.2-13.1 3.8-20.9 2.7-5.5 0-9.1 1.2-9.9 6.8 1.9 11.8-7.9 23.1 2.2 27.8 13.8 6.8 18.4-7 31.6-4.3 23-1.9 16.2-29.3-3-33zm68.7-1.7c4.9.7 8.3-3.8 13.2-3.8 3.5-.6 5.7-1.6 5.7-5.3-2.5-5.8 3.1-15.2-4.1-17.6-8-3.3-12.2 6.4-19.8 5.8-14.5 3.2-7.3 20.7 5 20.9z"/><path d="M110.3 322.2c-1.7 4.4-2.5 9.9-3.4 14.6-5.7.5-10.4-5.4-5.9-10.1 1.1-1.8.7-4.2 2.2-5.8 2-1.2 5.6-.5 7.1 1.3zm57.3 1c-5.7 1.6-9.4 9.2-10.7 15.3-6.7-2.1-9.1-11-1.9-14.2 2.1-1.5 2.8-4.5 5.2-5.5 2.8-.5 6.5 1.8 7.4 4.4z" fill="#773e17"/><path class="st7" d="M193 153.1c.6 28.1-13.3 66.5-46.6 66.4-38.7-3.3-68.8-11.1-94.4 26.7 43.7-79.6 125.6 26.1 141-93.1z"/><path class="st6" d="M227.7 119.8c1.8 7.5-4.1 8.8-5.8 1.3-1.7-7.4 4.2-8.8 5.8-1.3zm21-2.9c-1.8 7.5 4.1 8.8 5.8 1.3 1.7-7.5-4.2-8.8-5.8-1.3z"/></svg>