<svg version="1.1" id="Layer_1" xmlns="http://www.w3.org/2000/svg" x="0" y="0" viewBox="0 0 236.8 323.2" xml:space="preserve"><style>.st0{fill:#f5f8fc}</style><path d="M50.8 164.7c-2.1 4.6-19.1 52.9-22.5 55.3-15.7 20.6-34.8 4.3-26.3-18.3-.7-.5 25.2-47.3 26-49.2 17.4-28.5 33.8-19.8 22.8 12.2zm178.6 63.5c-24.7 11.2-35.7-49.6-43.4-63.5-11-32 5.3-40.7 22.8-12.2 6.1 15.9 43.5 62.3 20.6 75.7z"/><path class="st0" d="M206.1 232.6c-12.3 42.1-57.2 48.9-79 49-3.6-14.9-14.7-14.3-18.3 0-45.3 1.4-92.4-28.6-81.4-92.3 3.3-26.9 13.3-55 35.5-72 30.4-22.6 79.5-22.6 109.9-.2 32.6 24.9 42.9 79 33.3 115.5z"/><path d="M206.1 232.6c-57.1-24.4-119-24.4-176.3 0l.3 1h-.3c4.8 42.1 56.6 151.8 80 45.1 3.4-10.5 12.9-11.2 16.3 0 5.7 15.2 6.4 44.1 21.6 44.2 39-.9 55.2-74.5 58.3-89.3h-.3c.2-.3.3-.6.4-1zm-4.7-74.2c-42.7 30.7-124.1 30.8-166.9 0 26.7-78.4 140.1-78.5 166.9 0zM187.1 0c43.2.7 43.2 65 0 65.7-43.2-.7-43.2-65 0-65.7zM47.5 0c43.2.7 43.2 65 0 65.7C4.3 65 4.3.7 47.5 0z"/><path class="st0" d="M212.6 98.2c.4 20.5-8.1 40.2-28.8 48.5C121 171.9-13.9 165.8 30.2 56.4 72.1-30 214.7.6 212.6 98.2z"/><path d="M83.5 57.5s-37.8 6.7-41.1 40.4 39.8 16.4 50.3 5.4C107 88.2 107.3 56 83.5 57.5zm69.8 0s37.8 6.7 41.1 40.4-39.9 16.4-50.3 5.4c-14.3-15.1-14.7-47.3 9.2-45.8z"/><path class="st0" d="M71.2 95.4c-5.6-20.1 25.7-24.2 19.4-2.2h-.3c-.8-18.2-20.8-14.4-18.9 2.2h-.2z"/><path d="M108.3 110.4c-.5 8.2 9.2 9.9 10 1.2 3.8 12.2-15.4 9.9-10-1.2z"/><path d="M128.4 110.4c5.4 11.2-13.8 13.5-10 1.2.9 8.8 10.6 7 10-1.2z"/><path class="st0" d="M166 95.3c1.9-16.6-18-20.4-18.8-2.2h-.3c-6.4-22 25-17.9 19.4 2.2h-.3z"/><path d="M117.4 105.1h2v10.5h-2v-10.5z"/><path d="M129.3 99.8c-.3 6.9-10.9 9.3-10.9 9.3s-10.7-2.4-11-9.3c-.3-9.5 22.3-9.5 21.9 0z"/></svg>