<svg xmlns="http://www.w3.org/2000/svg" viewBox="0 0 236.75 323.16"><path d="m50.76 164.71-18.62 48.75a36.19 36.19 0 0 1-3.88 6.54c-6.07 8-14.53 11.63-20.93 8.22C.15 224.35-2 213 1.94 201.73a37.27 37.27 0 0 1 1.45-3.58l24.55-45.6c17.49-28.55 33.82-19.86 22.82 12.16Zm178.66 63.46c-7.94 4.23-19-2.36-24.81-14.71L186 164.71c-11-32 5.33-40.72 22.83-12.16l24.54 45.6c5.75 12.35 3.99 25.85-3.95 30.02Z"/><path d="M206.06 232.63c-.1.33-.2.66-.31 1-13.17 41.7-57 47.67-78.7 48q-.45-1.5-1-2.85c-1.92-5.15-4.4-8.52-8.25-8.27s-6.17 3.48-8.07 8.25c-.36.9-.7 1.86-1 2.86-21.68-.32-65.49-6.31-78.66-48l-.3-1c-3.34-11.12-4.53-24.72-2.61-41.35l.24-2a148.05 148.05 0 0 1 7.06-30.86 107.55 107.55 0 0 1 6.27-14.38c.64-1.21 1.29-2.39 2-3.53l.42-.7a79.69 79.69 0 0 1 19.74-22.51 78.1 78.1 0 0 1 29.8-14 89.12 89.12 0 0 1 15-2.2 84.5 84.5 0 0 1 10.3 0 84.33 84.33 0 0 1 11.21.07 87.72 87.72 0 0 1 15.26 2.43 77.74 77.74 0 0 1 28.35 13.53 79.5 79.5 0 0 1 20 22.7c.29.48.58 1 .86 1.47.52.9 1 1.81 1.51 2.75a106.28 106.28 0 0 1 6.27 14.38 149.56 149.56 0 0 1 7.3 32.84c0 .14 0 .27.05.41 1.77 16.47.57 29.93-2.74 40.96Z" fill="#f5f8fc"/><path d="M206.06 232.63c-34.42-17.5-74.31-17.6-88.14-17-13.84-.58-53.72-.48-88.14 17l.3 1h-.3c0 .22.29 1.42.73 3.4 3.76 17 22.05 90.62 55.09 85.89 16.42-2.35 18.36-26.65 23.14-41.35.33-1 .67-2 1-2.86 1.9-4.77 4.32-8 8.07-8.25s6.33 3.12 8.25 8.27q.51 1.35 1 2.85c4.73 15.4 6.37 41.34 20.64 41.34 37.94 0 55.14-73.84 57.95-87.25a.09.09 0 0 0 0-.05c.24-1.14.37-1.83.4-2h-.31c.12-.33.26-.62.32-.99Zm-4.7-74.19c-29.19 22.94-70.57 22.45-83.44 21.66-12.88.79-54.25 1.28-83.45-21.66a107.55 107.55 0 0 1 6.27-14.38c22.91-43.27 65.25-43.74 77.18-42.95 11.92-.79 54.27-.32 77.17 43a106.28 106.28 0 0 1 6.27 14.33Z"/><circle cx="187.08" cy="32.86" r="32.86"/><circle cx="47.45" cy="32.86" r="32.86"/><path d="M212.6 98.2a73.54 73.54 0 0 1-1.13 13.38 53.85 53.85 0 0 1-3.36 11.42c-4.46 10.49-12.35 18.66-24.26 23.75C153 160 93.49 166 51.3 145.62c-11.8-5.71-19.19-13.75-23.59-22.72a52.71 52.71 0 0 1-4-11.29 67.2 67.2 0 0 1-1.65-13.45 88.34 88.34 0 0 1 .75-13.76A108 108 0 0 1 25 72.72c1.05-4.41 2.24-8.24 3.26-11.22.77-2.21 1.39-4 1.93-5.09C47.45 20.13 77.32 11.62 86.8 9.49c1-.24 2.1-.46 3.15-.67 3.47-.68 6.94-1.2 10.4-1.58a129.524 129.524 0 0 1 23.78-.34q5.38.4 10.62 1.22c3.51.55 7 1.22 10.35 2 1.08.25 2.15.51 3.22.79 15.6 4.1 49.93 21.22 61.16 61.91a88.6 88.6 0 0 1 2.11 11.49 102.45 102.45 0 0 1 1.01 13.89Z" fill="#f5f8fc"/><path d="M83.48 57.52s-37.8 6.68-41.1 40.4 39.85 16.39 50.27 5.4c14.35-15.12 14.68-47.27-9.17-45.8Zm69.81 0s37.8 6.68 41.1 40.4-39.85 16.39-50.27 5.4c-14.35-15.12-14.68-47.27 9.17-45.8Z"/><path d="M71.17 95.37a16.27 16.27 0 0 1-.44-2.51 20 20 0 0 1 0-2.57 15.84 15.84 0 0 1 1.13-5.08 11.65 11.65 0 0 1 3.08-4.42A10.44 10.44 0 0 1 80 78.45c.23 0 .46-.06.69-.09a2.09 2.09 0 0 1 .35 0h1.74a11.15 11.15 0 0 1 2.87.46 7.81 7.81 0 0 1 2.65 1.48 8 8 0 0 1 1.88 2.35c.11.22.23.43.32.66s.2.44.27.67a11.43 11.43 0 0 1 .39 1.35 12.64 12.64 0 0 1 .3 2.71 14.4 14.4 0 0 1-.21 2.64 12.31 12.31 0 0 1-.69 2.53h-.31a41 41 0 0 0-1-4.84 13.83 13.83 0 0 0-1.77-4.09 7.31 7.31 0 0 0-3-2.54 8 8 0 0 0-2-.6 9.72 9.72 0 0 0-2.22-.09 8.09 8.09 0 0 0-4.09 1.48 10 10 0 0 0-3 3.47 13.84 13.84 0 0 0-1 2.19 16.86 16.86 0 0 0-.6 2.35 16.43 16.43 0 0 0-.27 2.43 15.7 15.7 0 0 0 .09 2.47Z" fill="#f5f8fc"/><path d="M108.31 110.37a14.33 14.33 0 0 0 .32 2.61 7.46 7.46 0 0 0 .88 2.21 4.47 4.47 0 0 0 3.29 2.3 4.1 4.1 0 0 0 1 0 5.14 5.14 0 0 0 1-.25 3.84 3.84 0 0 0 1.68-1.12 6.8 6.8 0 0 0 1.15-2 15.7 15.7 0 0 0 .68-2.54 6 6 0 0 1 .41 1.33 8.42 8.42 0 0 1 .12 1.42 6 6 0 0 1-.75 2.91 5.25 5.25 0 0 1-2.38 2.18l-.38.16c-.13 0-.25.1-.38.13l-.39.11-.4.08a5.7 5.7 0 0 1-1.65 0 5.57 5.57 0 0 1-3-1.34 6 6 0 0 1-1.74-2.6 6.93 6.93 0 0 1 .53-5.6Z"/><path d="M128.45 110.37a6.93 6.93 0 0 1 .85 2.66 6.76 6.76 0 0 1-.3 2.97 6.16 6.16 0 0 1-1.74 2.6 5.57 5.57 0 0 1-3 1.34 5.77 5.77 0 0 1-1.66 0l-.4-.08-.38-.11c-.13 0-.26-.09-.38-.13l-.38-.16a5.27 5.27 0 0 1-2.39-2.18 6.11 6.11 0 0 1-.74-2.91 6.76 6.76 0 0 1 .12-1.42 5.54 5.54 0 0 1 .41-1.33 14.74 14.74 0 0 0 .68 2.54 6.59 6.59 0 0 0 1.15 2 3.84 3.84 0 0 0 1.68 1.12 4.88 4.88 0 0 0 1 .25 4.19 4.19 0 0 0 1 0 4.5 4.5 0 0 0 3.29-2.3 7.45 7.45 0 0 0 .87-2.21 14.32 14.32 0 0 0 .32-2.65Z"/><path d="M166 95.31a14.58 14.58 0 0 0 .09-2.47 16.43 16.43 0 0 0-.27-2.43 16.86 16.86 0 0 0-.6-2.35 13.84 13.84 0 0 0-1-2.19 9.93 9.93 0 0 0-3-3.47 8.09 8.09 0 0 0-4.09-1.48A9.74 9.74 0 0 0 155 81a8 8 0 0 0-2 .6 7.29 7.29 0 0 0-3 2.54 13.59 13.59 0 0 0-1.78 4.09 41 41 0 0 0-1 4.84h-.3a11.73 11.73 0 0 1-.7-2.53 14.4 14.4 0 0 1-.21-2.64 13.31 13.31 0 0 1 .3-2.71 11.43 11.43 0 0 1 .39-1.35c.08-.23.18-.45.27-.67s.21-.44.32-.66a8.29 8.29 0 0 1 1.88-2.35 7.76 7.76 0 0 1 2.66-1.48 11.08 11.08 0 0 1 2.87-.46h1.73a2 2 0 0 1 .35 0c.24 0 .47 0 .7.09a10.41 10.41 0 0 1 5.05 2.34 11.79 11.79 0 0 1 3.09 4.42 16.1 16.1 0 0 1 1.12 5.08 18.35 18.35 0 0 1 0 2.57 16.27 16.27 0 0 1-.44 2.51Z" fill="#f5f8fc"/><path d="M117.41 105.11h1.96v10.52h-1.96z"/><path d="M129.33 99.79c-.26 6.95-10.94 9.35-10.94 9.35s-10.69-2.4-11-9.35c-.32-9.49 22.31-9.49 21.94 0Z"/></svg>