<svg version="1.1" id="Layer_1" xmlns="http://www.w3.org/2000/svg" x="0" y="0" viewBox="0 0 270.1 319.6" xml:space="preserve"><style>.st0{fill:#f67f1b}.st1{fill:#6a3003}.st2{fill:#272724}.st3{fill:#fdbd7d}.st4{fill:#562234}.st5{fill:#fff}</style><path class="st0" d="M181.7 306.6c-65.4 4.6-73.9-74.5-50.8-47.6 5.6 53.5 102.8 38.8 113.7 2.2 10.1-19.3 8.8-40.6 6-45.4-1.7-2.9-.7-6.7 2.2-8.3 12.8-3.5 11.8 14.3 11.8 26.2-3.5 40.5-29.6 72.6-82.9 72.9z"/><path class="st1" d="M252.5 229.9c10.5 4.4 14.5-2 11.4-11.8-7.6 4-13.7.9-11.4 11.8zm-16.9 60.6c11.4-7.5 5.4-7.3-1.6-14.9-8.4 4.9-5.6 10.4 1.6 14.9zm-33.2 12.3c9.8 4.2 12.2-1.6 7.1-12.4-8.3.8-9.1 4.7-7.1 12.4zm-58.8-8.8c-4.2 4.5 6.4 6 9.5 8 7.5-11.1-2.3-21.3-9.5-8zm41.5.3c-10.4-1.7-11.8 2.2-11.1 12 11.5 2.2 11.7-1.5 11.1-12zm70.2-27.3c6.4-11.9 7.7-14.9-5.7-18.4-3.9 9.5-8.1 17.1 5.7 18.4z"/><path class="st0" d="M128.6 224.4h-58c.4 9.9 12.4 80 2 85.8-.8 11.1 47.1 11.1 46.3 0 .1 0 9.6-85.6 9.7-85.8z"/><path class="st1" d="m120.6 295.2 1.4-12.8c-12.7 2.6-25.4 5.4-37.2 10.9 11.8 1.9 23.8 2 35.8 1.9zm-45-24.3 1.2 10.9c18-1.3 10.5-4-1.2-10.9z"/><path class="st2" d="M77 315.9c-3-3.6 4.1-12.5 3.5-8.4-1.3.3-2.7 5.1-3.5 8.4zm6.9 1.8c-3-3.6 4-12.4 3.6-8.5-1.5.5-2.8 5-3.6 8.5zm8.6 1.9c-3-3.3 3.9-11.4 3.1-7.5-1.5.6-2.2 4.7-3.1 7.5z"/><path class="st0" d="M141.6 224.4h58c-.4 9.9-12.4 80-2 85.8.7 11.1-47.1 11.1-46.3 0-.1 0-9.7-85.6-9.7-85.8z"/><path class="st1" d="m149.6 295.2-1.4-12.8c12.7 2.6 25.4 5.4 37.2 10.9-11.9 1.9-23.9 2-35.8 1.9zm44.9-24.3-1.2 10.9c-18-1.3-10.4-4 1.2-10.9z"/><path class="st2" d="M193.1 315.9c3-3.6-4.1-12.4-3.5-8.5 1.4.5 2.7 5 3.5 8.5zm-6.8 1.8c3-3.6-4.1-12.4-3.5-8.5 1.3.5 2.6 5.1 3.5 8.5zm-8.6 1.9c2.9-3.1-3.8-11.4-3.2-7.5 1.5.7 2.2 4.5 3.2 7.5z"/><path class="st0" d="M252.1 201.6c2.6 3.5 6.8.4 4.1-3.1-2.5-3.6-6.7-.4-4.1 3.1zm11.7-4.6c3.3 4.5 8.7.5 5.3-4-3.3-4.5-8.7-.4-5.3 4zm-5.7 4.1c3.3 4.6 8.8.5 5.4-4-3.4-4.6-8.9-.5-5.4 4z"/><path class="st0" d="M224.1 114.8c19.9 1.2 70.9 85.5 30.5 85.8-17.8-9.5-28.7-30.4-40.3-45.2-17.2-15.8-10.3-43 9.8-40.6z"/><path class="st1" d="M250.8 175.5c1.6-8.5 4.3-16.8 6.6-25.1 8.3 10.1 2.1 18.3-6.6 25.1zm15-5.6c3.3 4.8.3 8.1-4.4 10.8 1.2-3.7 2.7-7.4 4.4-10.8zm-20.3 9.6c-.4 4.2-1.4 8.3-2.9 12.2-7-4.8-2.2-8.2 2.9-12.2zm-3.9-53.1c12.2 10.6 13.2 25.5 2.5 37.7-1.2-12.5.5-25.2-2.5-37.7z"/><path class="st3" d="M248.5 195.2c2 6.8 16.3 2.3 14-4.5-2.1-6.8-16.4-2.2-14 4.5z"/><path class="st0" d="M18.1 201.6c-2.6 3.5-6.8.4-4.2-3.1 2.6-3.6 6.8-.4 4.2 3.1zM6.4 197c-3.3 4.5-8.7.5-5.4-3.9 3.2-4.6 8.7-.5 5.4 3.9zm5.7 4.1c-3.3 4.6-8.8.5-5.4-4 3.3-4.6 8.8-.5 5.4 4z"/><path class="st0" d="M46 114.8c-19.9 1.1-70.9 85.5-30.5 85.8 17.8-9.5 28.7-30.4 40.3-45.2 17.2-15.8 10.4-43-9.8-40.6z"/><path class="st1" d="M19.3 175.5c-1.6-8.5-4.3-16.8-6.6-25.1-8.2 10.1-2.1 18.3 6.6 25.1zm-15-5.6c-3.3 4.8-.4 8.1 4.4 10.8-1.1-3.7-2.6-7.4-4.4-10.8zm20.3 9.6c.4 4.2 1.4 8.3 2.9 12.2 7-4.8 2.3-8.2-2.9-12.2zm4-53.1C16.4 137 15.4 152 26.1 164.2c1.2-12.6-.6-25.3 2.5-37.8z"/><path class="st3" d="M21.7 195.2c-2 6.8-16.3 2.3-13.9-4.5 2-6.8 16.2-2.2 13.9 4.5z"/><path class="st0" d="M112.2 24c.9 13.6-27.7 26.7-38.4 27.3-18-21.8 19.1-84.9 38.4-27.3z"/><path class="st3" d="M96.3 33.8c.6 9-11 9.6-18.1 10.1C66.8 29 92.4-16.4 96.3 33.8z"/><path class="st0" d="M157 24c-.9 13.6 27.7 26.7 38.4 27.3 18-21.8-19.1-84.9-38.4-27.3z"/><path class="st3" d="M172.9 33.8c-.6 9 11 9.6 18.1 10.1 11.4-14.9-14.2-60.3-18.1-10.1z"/><path class="st0" d="M241 172.5c4.1 142.2-215.9 142.2-211.8 0 10.7-206.9 201.1-206.9 211.8 0z"/><path class="st3" d="M211.8 221.6c3 77-156.3 77-153.3 0 7.2-111.8 146-111.8 153.3 0z"/><path class="st4" d="M112.9 39.1c10-.1 10 15.5 0 15.4-10 .1-10-15.5 0-15.4z"/><path class="st5" d="M110 42c3.1 0 3.1 4.8 0 4.8-3.2 0-3.2-4.8 0-4.8zm-1.4 6.4c1.4 0 1.4 2.1 0 2.1s-1.4-2.1 0-2.1z"/><path class="st4" d="M165 46.8c-3.9 19.9-27.6-3.8-7.7-7.7 4.3 0 7.7 3.4 7.7 7.7z"/><path class="st5" d="M154.3 42c3.1 0 3.1 4.8 0 4.8s-3.1-4.8 0-4.8zm-.3 7.5c0 1.3-2.1 1.2-2-.1 0-1.3 2.1-1.2 2 .1z"/><path class="st3" d="M163.5 93.2c0 18.7-12.7 21.5-28.4 21.5-73.3.8 13-130 28.4-21.5z"/><path class="st2" d="M125.2 108.1c-4.5.3-11-6-9.9-12.1 1.9 5.3 4.6 11.4 9.9 11.1 5.3.3 8-5.8 9.9-11.1 1 6.1-5.3 12.3-9.9 12.1z"/><path class="st2" d="M145 108.1c-4.6.3-11-6-9.9-12.1 1.9 5.3 4.6 11.4 9.9 11.1 5.3.3 8-5.8 9.9-11.1 1.1 6.1-5.4 12.4-9.9 12.1z"/><path class="st1" d="M149.7 91.8c0-3.1-6.5-3.6-14.6-3.6-38.7.2 10.7 21 14.6 3.6zm-20-74.2s-32.5 8-25.5 9.4c13.2-.4 29.6 3.5 25.5-9.4zm-1.6 11.6s-20.8 5.1-16.3 6c8.5-.3 18.9 2.3 16.3-6zM83.6 44.3s10 10.6 18.8 15.5-16.1 3.4-22.9-4.2 1.6-13.7 4.1-11.3zm11-10.7s2.5 7.2 5.6 11.4c3.1 7.1-21.1-13.3-5.6-11.4zM68.7 62.1s11.4 6.2 20.3 8-12.7 7.4-20.6 2.8-2.5-12.2.3-10.8zM60 78.4s10.9 5.9 19.3 7.6c11.3 5.9-39.1 6.3-19.3-7.6zm80.5-60.8s32.5 8 25.5 9.4c-13.2-.4-29.6 3.5-25.5-9.4zm1.6 11.6s20.8 5.1 16.3 6c-8.5-.3-18.9 2.3-16.3-6zm44.5 15.1s-10 10.6-18.8 15.5 16.1 3.4 22.9-4.2-1.6-13.7-4.1-11.3zm-11-10.7s-2.6 7.2-5.7 11.4c-3 7.1 20.9-13.3 5.7-11.4zm25.9 28.5s-11.4 6.2-20.3 8 12.7 7.4 20.6 2.8 2.5-12.2-.3-10.8zm8.6 16.3s-10.8 5.9-19.2 7.6 12.1 7 19.6 2.6 2.3-11.5-.4-10.2zM85.8 98.5c-24.8.4-46.8-2.2-49 22.7 28.6-20 73.8-21 49-22.7zm-7.7 23.1c14.5-6 7.7-6.9 7.7-6.9-20.5.8-40.8 11.7-52.2 19.1-13.6 46.1 17.9-8.2 44.5-12.2zm106.3-23.1c-24.9 1.8 20.4 2.8 49 22.7-2.2-24.9-24.1-22.3-49-22.7zm-119.3 69c23.3-27.1-35.8 16.8-35 21.3 1.8 40.3 14.5-10.8 35-21.3zm127-45.9c26.4 3.9 58.2 58.3 44.5 12.1-11.4-7.4-31.7-18.3-52.2-19.1 0 .1-6.9 1 7.7 7z"/><path d="M76.1 135.1c-3.7 6-53.9 47.2-39.3 30 1.7-4.7 44.1-43.7 39.3-30zm118 0c-4.6-13.6 37.5 25.2 39.3 30 14.5 17.2-35.6-24-39.3-30z" fill="#fff" stroke="#272724" stroke-width="1.2" stroke-linecap="round" stroke-linejoin="round"/><path class="st1" d="M59.1 181.7c-15 16.5-28.7 36.1-12.7 53.7-3.8-13 19.5-58.2 12.7-53.7zm140.8-23.2s-6.8-1.3 5.1 9c13.1 11 23.8 24.6 31.3 40 11.7-24.1-14.8-38.3-36.4-49zm11.2 23.2s-4.9-3.3 1.1 8.8c7.2 13.9 11.1 29.2 11.6 44.9 16-17.6 2.2-37.3-12.7-53.7zM73.7 132.6c-14.1 8.6-26.6 19.5-36.9 32.4-19 20.3 54.1-36.3 36.9-32.4zM233.4 165c-1.7-4.7-44-43.6-39.3-30 3.7 6.1 53.8 47.3 39.3 30z"/></svg>