<svg xmlns="http://www.w3.org/2000/svg" viewBox="0 0 270.15 319.57"><title>qaAsset 6</title><path d="M181.71,306.57c-19.34,0-34.78-4.9-46-14.61a50.12,50.12,0,0,1-17-32.2,6.1,6.1,0,0,1,12.18-.79,38.35,38.35,0,0,0,13,23.9c10.59,9.06,26.48,12.8,47.2,11.1,31.34-2.56,46.38-19.24,53.48-32.79,10.13-19.3,8.82-40.58,6-45.4a6.1,6.1,0,1,1,10.57-6.1c2.86,5,4.16,13.93,3.48,24a84.51,84.51,0,0,1-9.28,33.18c-8.53,16.26-26.43,36.27-63.3,39.28Q186.7,306.57,181.71,306.57Z" fill="#f67f1b"/><path d="M252.53,229.86c3.92,1.69,8.14,1.4,12.25.08a61.15,61.15,0,0,0-.86-11.92,20.35,20.35,0,0,1-11.86,3A51.91,51.91,0,0,1,252.53,229.86Z" fill="#6a3003"/><path d="M235.55,290.52a70,70,0,0,0,8.41-7.6,18.12,18.12,0,0,1-10-7.26,56.16,56.16,0,0,1-6.54,5.62C229.48,285,232.12,288.52,235.55,290.52Z" fill="#6a3003"/><path d="M202.44,302.77c.12.63.26,1.27.4,1.9A88.31,88.31,0,0,0,214,301.79c-2.29-3-3.52-7.2-4.44-11.42a75.62,75.62,0,0,1-8,2.09A49.74,49.74,0,0,0,202.44,302.77Z" fill="#6a3003"/><path d="M143.61,294c-.55.84-1.09,1.71-1.62,2.6A58.09,58.09,0,0,0,153.16,302a59.37,59.37,0,0,1,4.29-11.44,47.44,47.44,0,0,1-8.06-3.8A49.51,49.51,0,0,0,143.61,294Z" fill="#6a3003"/><path d="M185.06,294.3a97.8,97.8,0,0,1-10.22-.2,88.09,88.09,0,0,0-.93,12.18c2.53.18,5.12.29,7.8.29,1.23,0,2.49,0,3.75-.08A53.54,53.54,0,0,1,185.06,294.3Z" fill="#6a3003"/><path d="M255.26,267l.08-.15a81.72,81.72,0,0,0,6.06-15.09,20,20,0,0,1-11.82-3.14,69,69,0,0,1-5.05,12.56c-.13.25-.26.5-.4.75A21.94,21.94,0,0,0,255.26,267Z" fill="#6a3003"/><path d="M128.59,224.45H70.64l8.08,75.08c-3.78,4.06-6.08,8.5-6.08,10.74,0,4.77,10.36,8.63,23.15,8.63s23.15-3.86,23.15-8.63c0-.07,0-.16,0-.24Z" fill="#f67f1b"/><path d="M120.59,295.24,122,282.49c-12.69,2.63-25.44,5.43-37.22,10.88C96.64,295.22,108.62,295.33,120.59,295.24Z" fill="#6a3003"/><path d="M75.64,270.92l1.17,10.87c4.53-.32,9-1.56,13.55-2.08C85.56,276.6,80.46,274,75.64,270.92Z" fill="#6a3003"/><path d="M77,315.92a.61.61,0,0,1-.59-.49c-.89-4.74,3.1-8.65,3.27-8.82a.6.6,0,0,1,.83.87s-3.69,3.63-2.92,7.73a.6.6,0,0,1-.48.7Z" fill="#272724"/><path d="M83.88,317.72a.59.59,0,0,1-.58-.48c-.9-4.74,3.09-8.66,3.26-8.82a.6.6,0,1,1,.83.86s-3.69,3.64-2.92,7.73a.59.59,0,0,1-.47.7Z" fill="#272724"/><path d="M92.5,319.57a.61.61,0,0,1-.59-.49c-.79-4.22,2.75-7.7,2.9-7.84a.6.6,0,1,1,.84.86s-3.23,3.18-2.56,6.76a.6.6,0,0,1-.48.7Z" fill="#272724"/><path d="M141.56,224.45h58l-8.09,75.08c3.78,4.06,6.09,8.5,6.09,10.74,0,4.77-10.37,8.63-23.15,8.63s-23.15-3.86-23.15-8.63c0-.07,0-.16,0-.24Z" fill="#f67f1b"/><path d="M149.56,295.24l-1.44-12.75c12.7,2.63,25.44,5.43,37.22,10.88C173.51,295.22,161.53,295.33,149.56,295.24Z" fill="#6a3003"/><path d="M194.51,270.92l-1.17,10.87c-4.53-.32-9-1.56-13.55-2.08C184.59,276.6,189.69,274,194.51,270.92Z" fill="#6a3003"/><path d="M193.13,315.92a.6.6,0,0,0,.59-.49c.89-4.74-3.09-8.65-3.26-8.82a.61.61,0,0,0-.85,0,.6.6,0,0,0,0,.85s3.69,3.63,2.92,7.73a.6.6,0,0,0,.48.7Z" fill="#272724"/><path d="M186.27,317.72a.61.61,0,0,0,.59-.48c.89-4.74-3.1-8.66-3.27-8.82a.59.59,0,0,0-.84,0,.6.6,0,0,0,0,.85s3.69,3.64,2.92,7.73a.6.6,0,0,0,.48.7Z" fill="#272724"/><path d="M177.65,319.57a.6.6,0,0,0,.59-.49c.79-4.22-2.75-7.7-2.9-7.84a.6.6,0,0,0-.85,0,.61.61,0,0,0,0,.85s3.23,3.18,2.56,6.76a.6.6,0,0,0,.48.7Z" fill="#272724"/><path d="M252.1,201.57c1.1,1.49,2.93,2,4.08,1.14s1.17-2.75.07-4.24-2.94-2-4.08-1.13S251,200.09,252.1,201.57Z" fill="#f67f1b"/><path d="M263.79,197c1.42,1.9,3.76,2.56,5.23,1.46s1.51-3.53.09-5.43-3.76-2.56-5.23-1.46S262.37,195.14,263.79,197Z" fill="#f67f1b"/><path d="M258.07,201.1c1.44,1.93,3.82,2.6,5.31,1.48s1.53-3.58.09-5.51-3.82-2.59-5.31-1.48S256.63,199.17,258.07,201.1Z" fill="#f67f1b"/><path d="M224.11,114.75c17.31,2,36.64,39.25,41.34,54,1.48,4.68,9.21,21.56.95,28-3.43,2.67-7.61,4.56-11.83,3.81-6.74-1.19-20.25-18.19-23.26-22-5.95-7.54-11.58-15.36-17.06-23.25-2.13-3.07-4.27-6.14-6.35-9.24C195.68,127.86,212,113.38,224.11,114.75Z" fill="#f67f1b"/><path d="M250.83,175.54c1.61-8.52,4.33-16.77,6.6-25.13,2,3.8,3.71,7.45,5.12,10.74C259.39,166.56,255.81,171.85,250.83,175.54Z" fill="#6a3003"/><path d="M265.81,169.87c.51,1.41,1.27,3.39,2,5.66a69.71,69.71,0,0,1-6.37,5.16A69.32,69.32,0,0,1,265.81,169.87Z" fill="#6a3003"/><path d="M245.54,179.48a48.26,48.26,0,0,1-2.89,12.25c-1.59-1.64-3.14-3.35-4.58-5A45.78,45.78,0,0,1,245.54,179.48Z" fill="#6a3003"/><path d="M241.57,126.45A111.31,111.31,0,0,1,252.7,142c-.41,2.15-.85,4.28-1.4,6.4-1.42,5.49-3.22,11.58-7.24,15.78-1.16-9,.19-18.11-.84-27.12C242.81,133.5,242.24,130,241.57,126.45Z" fill="#6a3003"/><path d="M248.46,195.25c.94,2.9,4.82,4.23,8.67,3s6.22-4.6,5.29-7.49-4.82-4.23-8.67-3S247.53,192.36,248.46,195.25Z" fill="#fdbd7d"/><path d="M18.06,201.57c-1.11,1.49-2.94,2-4.08,1.14s-1.18-2.75-.08-4.24,2.94-2,4.09-1.13S19.16,200.09,18.06,201.57Z" fill="#f67f1b"/><path d="M6.36,197c-1.42,1.9-3.76,2.56-5.23,1.46S-.38,195,1,193.07s3.76-2.56,5.23-1.46S7.78,195.14,6.36,197Z" fill="#f67f1b"/><path d="M12.09,201.1c-1.45,1.93-3.83,2.6-5.32,1.48s-1.53-3.58-.09-5.51,3.82-2.59,5.31-1.48S13.53,199.17,12.09,201.1Z" fill="#f67f1b"/><path d="M46,114.75c-17.3,2-36.64,39.25-41.34,54-1.48,4.68-9.2,21.56-1,28,3.43,2.67,7.61,4.56,11.83,3.81,6.74-1.19,20.25-18.19,23.26-22,5.95-7.54,11.58-15.36,17.06-23.25,2.14-3.07,4.27-6.14,6.35-9.24C74.47,127.86,58.18,113.38,46,114.75Z" fill="#f67f1b"/><path d="M19.32,175.54c-1.61-8.52-4.33-16.77-6.6-25.13-2,3.8-3.71,7.45-5.11,10.74C10.76,166.56,14.34,171.85,19.32,175.54Z" fill="#6a3003"/><path d="M4.34,169.87c-.51,1.41-1.26,3.39-2,5.66a68.25,68.25,0,0,0,6.36,5.16A68.36,68.36,0,0,0,4.34,169.87Z" fill="#6a3003"/><path d="M24.62,179.48a48.24,48.24,0,0,0,2.88,12.25c1.59-1.64,3.15-3.35,4.58-5A45.72,45.72,0,0,0,24.62,179.48Z" fill="#6a3003"/><path d="M28.59,126.45A111.36,111.36,0,0,0,17.45,142c.41,2.15.86,4.28,1.4,6.4,1.42,5.49,3.22,11.58,7.25,15.78,1.15-9-.2-18.11.83-27.12C27.34,133.5,27.91,130,28.59,126.45Z" fill="#6a3003"/><path d="M21.69,195.25c-.93,2.9-4.81,4.23-8.67,3s-6.22-4.6-5.28-7.49,4.81-4.23,8.67-3S22.62,192.36,21.69,195.25Z" fill="#fdbd7d"/><path d="M112.2,24c.88,13.6-27.65,26.66-38.39,27.35S74.33.72,85.07,0,111.33,10.36,112.2,24Z" fill="#f67f1b"/><path d="M96.31,33.79c.58,9-11,9.63-18.09,10.08s.34-33.3,7.41-33.76S95.73,24.84,96.31,33.79Z" fill="#fdbd7d"/><path d="M157,24c-.88,13.6,27.66,26.66,38.39,27.35S194.87.72,184.14,0,157.88,10.36,157,24Z" fill="#f67f1b"/><path d="M172.89,33.79c-.58,9,11,9.63,18.09,10.08s-.34-33.3-7.41-33.76S173.47,24.84,172.89,33.79Z" fill="#fdbd7d"/><path d="M241,172.49c0,68.77-47.41,107.11-105.9,107.11S29.19,241.26,29.19,172.49,76.6,12.6,135.09,12.6,241,103.71,241,172.49Z" fill="#f67f1b"/><path d="M211.76,221.59c0,37.25-34.33,58-76.67,58s-76.66-20.76-76.66-58S92.75,135,135.09,135,211.76,184.34,211.76,221.59Z" fill="#fdbd7d"/><circle cx="112.91" cy="46.8" r="7.7" fill="#562234"/><circle cx="109.96" cy="44.4" r="2.4" fill="#fff"/><circle cx="108.61" cy="49.45" r="1.05" fill="#fff"/><path d="M165,46.8a7.7,7.7,0,1,1-7.7-7.7A7.7,7.7,0,0,1,165,46.8Z" fill="#562234"/><circle cx="154.33" cy="44.4" r="2.4" fill="#fff"/><path d="M154,49.45A1,1,0,1,1,153,48.4,1,1,0,0,1,154,49.45Z" fill="#fff"/><path d="M163.49,93.17c0,18.66-12.72,21.49-28.4,21.49s-28.39-2.83-28.39-21.49S119.41,49.9,135.09,49.9,163.49,74.51,163.49,93.17Z" fill="#fdbd7d"/><path d="M125.2,108.08c-5,0-9.39-4.83-10.32-11.5a.5.5,0,0,1,.43-.56.5.5,0,0,1,.56.42c.86,6.17,4.78,10.65,9.33,10.65s8.46-4.48,9.32-10.65a.51.51,0,0,1,.57-.42.5.5,0,0,1,.42.56C134.58,103.25,130.25,108.08,125.2,108.08Z" fill="#272724"/><path d="M145,108.08c-5.05,0-9.39-4.83-10.32-11.5a.51.51,0,0,1,.43-.56.5.5,0,0,1,.56.42c.86,6.17,4.79,10.65,9.33,10.65s8.47-4.48,9.33-10.65a.49.49,0,1,1,1,.14C154.38,103.25,150,108.08,145,108.08Z" fill="#272724"/><path d="M149.67,91.75c0-3.09-6.53-3.56-14.58-3.56s-14.57.47-14.57,3.56,6.52,7.18,14.57,7.18S149.67,94.85,149.67,91.75Z" fill="#6a3003"/><path d="M129.72,17.58S97.2,25.6,104.26,27s25.46-1.33,25.46-1.33Z" fill="#6a3003"/><path d="M128.13,29.19s-20.82,5.13-16.3,6,16.3-.85,16.3-.85Z" fill="#6a3003"/><path d="M83.55,44.32s10,10.58,18.81,15.52-16.12,3.43-22.92-4.23S81.1,41.86,83.55,44.32Z" fill="#6a3003"/><path d="M94.64,33.6s2.51,7.17,5.64,11.39-8.4-1.8-10-6.9S94,31.91,94.64,33.6Z" fill="#6a3003"/><path d="M68.66,62.13s11.42,6.21,20.27,8-12.74,7.37-20.64,2.75S65.9,60.72,68.66,62.13Z" fill="#6a3003"/><path d="M60,78.43S70.88,84.32,79.28,86,67.19,93,59.69,88.6,57.42,77.08,60,78.43Z" fill="#6a3003"/><path d="M140.47,17.58S173,25.6,165.93,27s-25.46-1.33-25.46-1.33Z" fill="#6a3003"/><path d="M142.06,29.19s20.81,5.13,16.29,6-16.29-.85-16.29-.85Z" fill="#6a3003"/><path d="M186.64,44.32s-10,10.58-18.82,15.52,16.12,3.43,22.93-4.23S189.08,41.86,186.64,44.32Z" fill="#6a3003"/><path d="M175.55,33.6S173,40.77,169.9,45s8.4-1.8,10-6.9S176.18,31.91,175.55,33.6Z" fill="#6a3003"/><path d="M201.53,62.13s-11.43,6.21-20.27,8,12.73,7.37,20.63,2.75S204.28,60.72,201.53,62.13Z" fill="#6a3003"/><path d="M210.15,78.43S199.3,84.32,190.91,86,203,93,210.5,88.6,212.77,77.08,210.15,78.43Z" fill="#6a3003"/><path d="M85.75,98.46c-17.08-1.21-33.19,2.33-43.36,5.35-2.12,5.73-4,11.54-5.65,17.39C65.38,101.23,110.64,100.21,85.75,98.46Z" fill="#6a3003"/><path d="M78.14,121.58c14.51-6,7.68-6.92,7.68-6.92-20.5.75-40.76,11.68-52.19,19.05A198,198,0,0,0,30.05,156C48.87,134.76,66.34,126.45,78.14,121.58Z" fill="#6a3003"/><path d="M184.43,98.46c-24.88,1.75,20.38,2.77,49,22.74-1.64-5.85-3.53-11.66-5.65-17.39C217.63,100.79,201.51,97.25,184.43,98.46Z" fill="#6a3003"/><path d="M65.12,167.52c11.9-10.25,5.13-9,5.13-9-16.87,6.26-31.09,19.9-40.11,30.3a119.21,119.21,0,0,0,3.7,18.66A122.07,122.07,0,0,1,65.12,167.52Z" fill="#6a3003"/><path d="M192.05,121.58c11.79,4.87,29.26,13.18,48.08,34.37a195.69,195.69,0,0,0-3.57-22.24c-11.44-7.37-31.7-18.3-52.19-19.05C184.37,114.66,177.53,115.58,192.05,121.58Z" fill="#6a3003"/><path d="M76.13,135.05c-3.72,6-53.86,47.22-39.32,30a142.08,142.08,0,0,1,36.87-32.4S79.84,129,76.13,135.05Zm117.93,0c-3.72-6,2.45-2.4,2.45-2.4a141.92,141.92,0,0,1,36.86,32.4C247.91,182.27,197.77,141.05,194.06,135.05Z" fill="#fff" stroke="#272724" stroke-linecap="round" stroke-linejoin="round" stroke-width="1.2"/><path d="M59.13,181.66C48,192.07,41.34,207.31,37.62,218.5a98.52,98.52,0,0,0,8.83,16.85,105.39,105.39,0,0,1,11.62-44.88C64.08,178.39,59.13,181.66,59.13,181.66Z" fill="#6a3003"/><path d="M199.94,158.54s-6.78-1.27,5.12,9a122.07,122.07,0,0,1,31.28,40,118.07,118.07,0,0,0,3.7-18.66C231,178.44,216.8,164.8,199.94,158.54Z" fill="#6a3003"/><path d="M211.05,181.66s-4.94-3.27,1.07,8.81a105.42,105.42,0,0,1,11.61,44.88,97.81,97.81,0,0,0,8.83-16.85C228.85,207.31,222.15,192.07,211.05,181.66Z" fill="#6a3003"/><path d="M73.68,132.65a142.08,142.08,0,0,0-36.87,32.4c-14.54,17.22,35.6-24,39.32-30S73.68,132.65,73.68,132.65Z" fill="#6a3003"/><path d="M233.37,165.05a141.92,141.92,0,0,0-36.86-32.4s-6.17-3.61-2.45,2.4S247.91,182.27,233.37,165.05Z" fill="#6a3003"/></svg>