<svg xmlns="http://www.w3.org/2000/svg" viewBox="0 0 270.15 319.57"><path d="M181.71 306.57c-19.34 0-34.78-4.9-46-14.61a50.12 50.12 0 0 1-17-32.2 6.1 6.1 0 0 1 12.18-.79 38.35 38.35 0 0 0 13 23.9c10.59 9.06 26.48 12.8 47.2 11.1 31.34-2.56 46.38-19.24 53.48-32.79 10.13-19.3 8.82-40.58 6-45.4a6.1 6.1 0 1 1 10.57-6.1c2.86 5 4.16 13.93 3.48 24a84.51 84.51 0 0 1-9.28 33.18c-8.53 16.26-26.43 36.27-63.3 39.28q-5.34.43-10.33.43Z" fill="#f67f1b"/><path d="M252.53 229.86c3.92 1.69 8.14 1.4 12.25.08a61.15 61.15 0 0 0-.86-11.92 20.35 20.35 0 0 1-11.86 3 51.91 51.91 0 0 1 .47 8.84Zm-16.98 60.66a70 70 0 0 0 8.41-7.6 18.12 18.12 0 0 1-10-7.26 56.16 56.16 0 0 1-6.54 5.62c2.06 3.72 4.7 7.24 8.13 9.24Zm-33.11 12.25c.12.63.26 1.27.4 1.9a88.31 88.31 0 0 0 11.16-2.88c-2.29-3-3.52-7.2-4.44-11.42a75.62 75.62 0 0 1-8 2.09 49.74 49.74 0 0 0 .88 10.31ZM143.61 294c-.55.84-1.09 1.71-1.62 2.6a58.09 58.09 0 0 0 11.17 5.4 59.37 59.37 0 0 1 4.29-11.44 47.44 47.44 0 0 1-8.06-3.8 49.51 49.51 0 0 0-5.78 7.24Zm41.45.3a97.8 97.8 0 0 1-10.22-.2 88.09 88.09 0 0 0-.93 12.18c2.53.18 5.12.29 7.8.29 1.23 0 2.49 0 3.75-.08a53.54 53.54 0 0 1-.4-12.19Zm70.2-27.3.08-.15a81.72 81.72 0 0 0 6.06-15.09 20 20 0 0 1-11.82-3.14 69 69 0 0 1-5.05 12.56c-.13.25-.26.5-.4.75a21.94 21.94 0 0 0 11.13 5.07Z" fill="#6a3003"/><path d="M128.59 224.45H70.64l8.08 75.08c-3.78 4.06-6.08 8.5-6.08 10.74 0 4.77 10.36 8.63 23.15 8.63s23.15-3.86 23.15-8.63v-.24Z" fill="#f67f1b"/><path d="m120.59 295.24 1.41-12.75c-12.69 2.63-25.44 5.43-37.22 10.88 11.86 1.85 23.84 1.96 35.81 1.87Zm-44.95-24.32 1.17 10.87c4.53-.32 9-1.56 13.55-2.08-4.8-3.11-9.9-5.71-14.72-8.79Z" fill="#6a3003"/><path d="M77 315.92a.61.61 0 0 1-.59-.49c-.89-4.74 3.1-8.65 3.27-8.82a.6.6 0 0 1 .83.87s-3.69 3.63-2.92 7.73a.6.6 0 0 1-.48.7Zm6.88 1.8a.59.59 0 0 1-.58-.48c-.9-4.74 3.09-8.66 3.26-8.82a.6.6 0 1 1 .83.86s-3.69 3.64-2.92 7.73a.59.59 0 0 1-.47.7Zm8.62 1.85a.61.61 0 0 1-.59-.49c-.79-4.22 2.75-7.7 2.9-7.84a.6.6 0 1 1 .84.86s-3.23 3.18-2.56 6.76a.6.6 0 0 1-.48.7Z" fill="#272724"/><path d="M141.56 224.45h58l-8.09 75.08c3.78 4.06 6.09 8.5 6.09 10.74 0 4.77-10.37 8.63-23.15 8.63s-23.15-3.86-23.15-8.63v-.24Z" fill="#f67f1b"/><path d="m149.56 295.24-1.44-12.75c12.7 2.63 25.44 5.43 37.22 10.88-11.83 1.85-23.81 1.96-35.78 1.87Zm44.95-24.32-1.17 10.87c-4.53-.32-9-1.56-13.55-2.08 4.8-3.11 9.9-5.71 14.72-8.79Z" fill="#6a3003"/><path d="M193.13 315.92a.6.6 0 0 0 .59-.49c.89-4.74-3.09-8.65-3.26-8.82a.61.61 0 0 0-.85 0 .6.6 0 0 0 0 .85s3.69 3.63 2.92 7.73a.6.6 0 0 0 .48.7Zm-6.86 1.8a.61.61 0 0 0 .59-.48c.89-4.74-3.1-8.66-3.27-8.82a.59.59 0 0 0-.84 0 .6.6 0 0 0 0 .85s3.69 3.64 2.92 7.73a.6.6 0 0 0 .48.7Zm-8.62 1.85a.6.6 0 0 0 .59-.49c.79-4.22-2.75-7.7-2.9-7.84a.6.6 0 0 0-.85 0 .61.61 0 0 0 0 .85s3.23 3.18 2.56 6.76a.6.6 0 0 0 .48.7Z" fill="#272724"/><path d="M252.1 201.57c1.1 1.49 2.93 2 4.08 1.14s1.17-2.75.07-4.24-2.94-2-4.08-1.13-1.17 2.75-.07 4.23Zm11.69-4.57c1.42 1.9 3.76 2.56 5.23 1.46s1.51-3.53.09-5.43-3.76-2.56-5.23-1.46-1.51 3.57-.09 5.43Zm-5.72 4.1c1.44 1.93 3.82 2.6 5.31 1.48s1.53-3.58.09-5.51-3.82-2.59-5.31-1.48-1.53 3.58-.09 5.51Z" fill="#f67f1b"/><path d="M224.11 114.75c17.31 2 36.64 39.25 41.34 54 1.48 4.68 9.21 21.56.95 28-3.43 2.67-7.61 4.56-11.83 3.81-6.74-1.19-20.25-18.19-23.26-22-5.95-7.54-11.58-15.36-17.06-23.25-2.13-3.07-4.27-6.14-6.35-9.24-12.22-18.21 4.1-32.69 16.21-31.32Z" fill="#f67f1b"/><path d="M250.83 175.54c1.61-8.52 4.33-16.77 6.6-25.13 2 3.8 3.71 7.45 5.12 10.74-3.16 5.41-6.74 10.7-11.72 14.39Zm14.98-5.67c.51 1.41 1.27 3.39 2 5.66a69.71 69.71 0 0 1-6.37 5.16 69.32 69.32 0 0 1 4.37-10.82Zm-20.27 9.61a48.26 48.26 0 0 1-2.89 12.25c-1.59-1.64-3.14-3.35-4.58-5a45.78 45.78 0 0 1 7.47-7.25Zm-3.97-53.03A111.31 111.31 0 0 1 252.7 142c-.41 2.15-.85 4.28-1.4 6.4-1.42 5.49-3.22 11.58-7.24 15.78-1.16-9 .19-18.11-.84-27.12-.41-3.56-.98-7.06-1.65-10.61Z" fill="#6a3003"/><path d="M248.46 195.25c.94 2.9 4.82 4.23 8.67 3s6.22-4.6 5.29-7.49-4.82-4.23-8.67-3-6.22 4.6-5.29 7.49Z" fill="#fdbd7d"/><path d="M18.06 201.57c-1.11 1.49-2.94 2-4.08 1.14s-1.18-2.75-.08-4.24 2.94-2 4.09-1.13 1.17 2.75.07 4.23ZM6.36 197c-1.42 1.9-3.76 2.56-5.23 1.46S-.38 195 1 193.07s3.76-2.56 5.23-1.46 1.55 3.53.13 5.39Zm5.73 4.1c-1.45 1.93-3.83 2.6-5.32 1.48s-1.53-3.58-.09-5.51 3.82-2.59 5.31-1.48 1.54 3.58.1 5.51Z" fill="#f67f1b"/><path d="M46 114.75c-17.3 2-36.64 39.25-41.34 54-1.48 4.68-9.2 21.56-1 28 3.43 2.67 7.61 4.56 11.83 3.81 6.74-1.19 20.25-18.19 23.26-22 5.95-7.54 11.58-15.36 17.06-23.25 2.14-3.07 4.27-6.14 6.35-9.24 12.31-18.21-3.98-32.69-16.16-31.32Z" fill="#f67f1b"/><path d="M19.32 175.54c-1.61-8.52-4.33-16.77-6.6-25.13-2 3.8-3.71 7.45-5.11 10.74 3.15 5.41 6.73 10.7 11.71 14.39Zm-14.98-5.67c-.51 1.41-1.26 3.39-2 5.66a68.25 68.25 0 0 0 6.36 5.16 68.36 68.36 0 0 0-4.36-10.82Zm20.28 9.61a48.24 48.24 0 0 0 2.88 12.25c1.59-1.64 3.15-3.35 4.58-5a45.72 45.72 0 0 0-7.46-7.25Zm3.97-53.03A111.36 111.36 0 0 0 17.45 142c.41 2.15.86 4.28 1.4 6.4 1.42 5.49 3.22 11.58 7.25 15.78 1.15-9-.2-18.11.83-27.12.41-3.56.98-7.06 1.66-10.61Z" fill="#6a3003"/><path d="M21.69 195.25c-.93 2.9-4.81 4.23-8.67 3s-6.22-4.6-5.28-7.49 4.81-4.23 8.67-3 6.21 4.6 5.28 7.49Z" fill="#fdbd7d"/><path d="M112.2 24c.88 13.6-27.65 26.66-38.39 27.35S74.33.72 85.07 0s26.26 10.36 27.13 24Z" fill="#f67f1b"/><path d="M96.31 33.79c.58 9-11 9.63-18.09 10.08s.34-33.3 7.41-33.76 10.1 14.73 10.68 23.68Z" fill="#fdbd7d"/><path d="M157 24c-.88 13.6 27.66 26.66 38.39 27.35S194.87.72 184.14 0 157.88 10.36 157 24Z" fill="#f67f1b"/><path d="M172.89 33.79c-.58 9 11 9.63 18.09 10.08s-.34-33.3-7.41-33.76-10.1 14.73-10.68 23.68Z" fill="#fdbd7d"/><path d="M241 172.49c0 68.77-47.41 107.11-105.9 107.11S29.19 241.26 29.19 172.49 76.6 12.6 135.09 12.6 241 103.71 241 172.49Z" fill="#f67f1b"/><path d="M211.76 221.59c0 37.25-34.33 58-76.67 58s-76.66-20.76-76.66-58S92.75 135 135.09 135s76.67 49.34 76.67 86.59Z" fill="#fdbd7d"/><circle cx="112.91" cy="46.8" r="7.7" fill="#562234"/><circle cx="109.96" cy="44.4" r="2.4" fill="#fff"/><circle cx="108.61" cy="49.45" r="1.05" fill="#fff"/><path d="M165 46.8a7.7 7.7 0 1 1-7.7-7.7 7.7 7.7 0 0 1 7.7 7.7Z" fill="#562234"/><circle cx="154.33" cy="44.4" r="2.4" fill="#fff"/><path d="M154 49.45a1 1 0 1 1-1-1.05 1 1 0 0 1 1 1.05Z" fill="#fff"/><path d="M163.49 93.17c0 18.66-12.72 21.49-28.4 21.49s-28.39-2.83-28.39-21.49 12.71-43.27 28.39-43.27 28.4 24.61 28.4 43.27Z" fill="#fdbd7d"/><path d="M125.2 108.08c-5 0-9.39-4.83-10.32-11.5a.5.5 0 0 1 .43-.56.5.5 0 0 1 .56.42c.86 6.17 4.78 10.65 9.33 10.65s8.46-4.48 9.32-10.65a.51.51 0 0 1 .57-.42.5.5 0 0 1 .42.56c-.93 6.67-5.26 11.5-10.31 11.5Z" fill="#272724"/><path d="M145 108.08c-5.05 0-9.39-4.83-10.32-11.5a.51.51 0 0 1 .43-.56.5.5 0 0 1 .56.42c.86 6.17 4.79 10.65 9.33 10.65s8.47-4.48 9.33-10.65a.49.49 0 1 1 1 .14c-.95 6.67-5.33 11.5-10.33 11.5Z" fill="#272724"/><path d="M149.67 91.75c0-3.09-6.53-3.56-14.58-3.56s-14.57.47-14.57 3.56 6.52 7.18 14.57 7.18 14.58-4.08 14.58-7.18Zm-19.95-74.17S97.2 25.6 104.26 27s25.46-1.33 25.46-1.33Zm-1.59 11.61s-20.82 5.13-16.3 6 16.3-.85 16.3-.85ZM83.55 44.32s10 10.58 18.81 15.52-16.12 3.43-22.92-4.23 1.66-13.75 4.11-11.29ZM94.64 33.6s2.51 7.17 5.64 11.39-8.4-1.8-10-6.9 3.72-6.18 4.36-4.49ZM68.66 62.13s11.42 6.21 20.27 8-12.74 7.37-20.64 2.75-2.39-12.16.37-10.75ZM60 78.43S70.88 84.32 79.28 86s-12.09 7-19.59 2.6-2.27-11.52.31-10.17Zm80.47-60.85S173 25.6 165.93 27s-25.46-1.33-25.46-1.33Zm1.59 11.61s20.81 5.13 16.29 6-16.29-.85-16.29-.85Zm44.58 15.13s-10 10.58-18.82 15.52 16.12 3.43 22.93-4.23-1.67-13.75-4.11-11.29ZM175.55 33.6S173 40.77 169.9 45s8.4-1.8 10-6.9-3.72-6.19-4.35-4.5Zm25.98 28.53s-11.43 6.21-20.27 8 12.73 7.37 20.63 2.75 2.39-12.16-.36-10.75Zm8.62 16.3S199.3 84.32 190.91 86s12.09 7 19.59 2.6 2.27-11.52-.35-10.17ZM85.75 98.46c-17.08-1.21-33.19 2.33-43.36 5.35-2.12 5.73-4 11.54-5.65 17.39 28.64-19.97 73.9-20.99 49.01-22.74Zm-7.61 23.12c14.51-6 7.68-6.92 7.68-6.92-20.5.75-40.76 11.68-52.19 19.05A198 198 0 0 0 30.05 156c18.82-21.24 36.29-29.55 48.09-34.42Zm106.29-23.12c-24.88 1.75 20.38 2.77 49 22.74-1.64-5.85-3.53-11.66-5.65-17.39-10.15-3.02-26.27-6.56-43.35-5.35ZM65.12 167.52c11.9-10.25 5.13-9 5.13-9-16.87 6.26-31.09 19.9-40.11 30.3a119.21 119.21 0 0 0 3.7 18.66 122.07 122.07 0 0 1 31.28-39.96Zm126.93-45.94c11.79 4.87 29.26 13.18 48.08 34.37a195.69 195.69 0 0 0-3.57-22.24c-11.44-7.37-31.7-18.3-52.19-19.05 0 0-6.84.92 7.68 6.92Z" fill="#6a3003"/><path d="M76.13 135.05c-3.72 6-53.86 47.22-39.32 30a142.08 142.08 0 0 1 36.87-32.4s6.16-3.65 2.45 2.4Zm117.93 0c-3.72-6 2.45-2.4 2.45-2.4a141.92 141.92 0 0 1 36.86 32.4c14.54 17.22-35.6-24-39.31-30Z" fill="#fff" stroke="#272724" stroke-linecap="round" stroke-linejoin="round" stroke-width="1.2"/><path d="M59.13 181.66C48 192.07 41.34 207.31 37.62 218.5a98.52 98.52 0 0 0 8.83 16.85 105.39 105.39 0 0 1 11.62-44.88c6.01-12.08 1.06-8.81 1.06-8.81Zm140.81-23.12s-6.78-1.27 5.12 9a122.07 122.07 0 0 1 31.28 40 118.07 118.07 0 0 0 3.7-18.66c-9.04-10.44-23.24-24.08-40.1-30.34Zm11.11 23.12s-4.94-3.27 1.07 8.81a105.42 105.42 0 0 1 11.61 44.88 97.81 97.81 0 0 0 8.83-16.85c-3.71-11.19-10.41-26.43-21.51-36.84ZM73.68 132.65a142.08 142.08 0 0 0-36.87 32.4c-14.54 17.22 35.6-24 39.32-30s-2.45-2.4-2.45-2.4Zm159.69 32.4a141.92 141.92 0 0 0-36.86-32.4s-6.17-3.61-2.45 2.4 53.85 47.22 39.31 30Z" fill="#6a3003"/></svg>