<svg xmlns="http://www.w3.org/2000/svg" viewBox="0 0 340.17 259.73"><title>qaAsset 7</title><path d="M286.42,120.86a115.11,115.11,0,0,1-15.62-10.62C254.14,97,231.89,72.16,245.43,41.43A49,49,0,0,1,263,45.11C279.07,51.68,298.68,70,286.42,120.86Z" fill="#8db4e0"/><path d="M270.87,110.29l-.07-.05C254.14,97,231.89,72.16,245.43,41.43A49,49,0,0,1,263,45.11c-3.57,1.81-6.69,5.06-9,10.14-5.63,12.45.55,25.79,7.16,36.47C264.87,97.72,268.62,103.68,270.87,110.29Z" fill="#79abdc"/><path d="M24.22,201.49S20,236.8,26.31,246.59c2.85,4.4,11.07,14,33.44-22.34Z" fill="#8db4e0"/><path d="M29.32,238.69c-4.26-6.58-3.74-24.64-2.94-35.82l-2.16-1.38S20,236.8,26.31,246.59c2.85,4.4,11.07,14,33.44-22.34l-1.47-.94C39.28,251.37,32,242.78,29.32,238.69Z" fill="#79abdc"/><path d="M193.34,215.88s6.38,31,4.22,41.05c-1,4.53-15.59,6.81-44.14-19.8Z" fill="#8db4e0"/><path d="M193.34,215.88,189.4,218c1.74,9.91,4.1,26,2.66,32.69-.9,4.18-13.38,6.42-37.67-14.06l-1,.52c28.55,26.61,43.17,24.33,44.14,19.8C199.72,246.84,193.34,215.88,193.34,215.88Z" fill="#79abdc"/><path d="M290.47,115.86c-8.25,20.12-15.12,34.39-24.86,50.5-17.76,29.36-43.57,56-77.06,67.72-.67.24-1.34.47-2,.69-20,6.55-41.28,7.72-62.15,8.37a132.81,132.81,0,0,1-15.43.9c-33.3,0-63.12-12.25-83.11-31.58C9.72,196.9,0,176.74,0,154.73c0-49.32,48.78-89.31,108.94-89.31s108.92,40,108.92,89.31a74.68,74.68,0,0,1-5.7,28.59c12.76-8.19,25.26-20.44,35.29-32.94,12.78-15.93,21.08-32.79,27.88-51.74,2.87-8,12.28,1.14,15.56,4.59a11,11,0,0,1,2.55,3.77C294.45,109.81,292.15,111.76,290.47,115.86Z" fill="#8db4e0"/><path d="M170.37,238.94c-15.1,3-30.67,3.72-46,4.21a135.38,135.38,0,0,1-15.44.89,129.41,129.41,0,0,1-40.76-6.47l-.82-.28c-.74-.24-1.48-.5-2.21-.76-1.09-.4-2.15-.8-3.22-1.22l-1.82-.73c-.85-.35-1.7-.71-2.56-1.09L56.49,233q-3.24-1.46-6.34-3.09l-.88-.47q-1.05-.57-2.1-1.17c-.76-.42-1.51-.86-2.27-1.31s-1.62-1-2.41-1.49-1.43-.9-2.13-1.38l-.15-.09-2-1.38-.1-.08c-.74-.52-1.47-1.05-2.18-1.58s-1.42-1.06-2.12-1.61-1.32-1-2-1.57l-.18-.16c-.64-.52-1.27-1.06-1.89-1.59l-.07-.07c-.66-.56-1.3-1.14-1.94-1.73s-1.28-1.19-1.9-1.79C9.73,196.9,0,176.74,0,154.73c0-49.32,48.78-89.31,108.94-89.31,1,0,2,0,3,0,.76,0,1.51,0,2.27.07s1.75.07,2.62.12,1.61.1,2.41.17h.2l2.29.2c.67.06,1.34.14,2,.22.47,0,1,.1,1.43.16l.44.06c.56.06,1.12.14,1.67.22q.3,0,.6.09l1.76.26c.77.11,1.53.25,2.29.38l.45.08c.76.14,1.5.27,2.25.43.54.1,1.08.21,1.61.33.88.18,1.76.38,2.63.58l.14,0,1.67.4.38.1c.57.14,1.15.3,1.71.45,1.26.33,2.51.68,3.74,1.06l1.19.37c.45.13.89.28,1.33.42a128,128,0,0,0-35.88,10.17c-16.52,7.66-30.51,19.54-37.95,36.92-7.9,18.46-4.87,42.15,4.76,59.36,0,0,17.19,26.27,53.22,45.91A170.09,170.09,0,0,0,170.37,238.94Z" fill="#97bce1"/><path d="M290.47,115.86c-8.25,20.13-15.12,34.39-24.85,50.5-17.78,29.35-43.58,56-77.06,67.72-.68.24-1.35.47-2,.69a136.86,136.86,0,0,1-16.16,4.17c-15.1,3-30.67,3.72-46,4.21a135.38,135.38,0,0,1-15.44.89,129.41,129.41,0,0,1-40.76-6.47l-.82-.28c-.74-.24-1.48-.5-2.21-.76-1.09-.4-2.15-.8-3.22-1.22l-1.82-.73c-.85-.35-1.7-.71-2.56-1.09L56.49,233q-3.24-1.46-6.34-3.09l-.88-.47q-1.05-.57-2.1-1.17L44.9,227c-.81-.48-1.62-1-2.41-1.49s-1.43-.9-2.13-1.38l-.15-.09-2-1.38-.1-.08c-.74-.52-1.47-1.05-2.18-1.58s-1.42-1.06-2.12-1.61-1.32-1-2-1.57l-.18-.16c-.64-.52-1.27-1.06-1.89-1.59l-.07-.07c-.66-.56-1.3-1.14-1.94-1.73s-1.28-1.19-1.9-1.79C9.73,196.9,0,176.74,0,154.73c0-49.32,48.78-89.31,108.94-89.31,1,0,2,0,3,0,.76,0,1.51,0,2.27.07s1.75.07,2.62.12,1.61.1,2.41.17h.2l2.29.2c.67.06,1.34.14,2,.22.47,0,1,.1,1.43.16l.44.06c.56.06,1.12.14,1.67.22q.3,0,.6.09l1.76.26c.77.11,1.53.25,2.29.38l.45.08c.76.14,1.5.27,2.25.43.54.1,1.08.21,1.61.33l2.63.58.14,0,1.67.4.38.1c.57.14,1.15.3,1.71.45,1.26.33,2.51.68,3.74,1.06l1.19.37c.45.13.89.28,1.33.42a119,119,0,0,1,20.07,8.61A160,160,0,0,0,143,79.56c-9.8.36-19.87,1-29.78,2.29a144.84,144.84,0,0,0-24.82,5.39c-19.76,6.34-39,17.7-50.24,35.62-10.89,17.37-10.91,40.26-2,58.42,16.05,32.71,59.2,40.89,91.94,42.56,1.71.08,3.43.15,5.14.2,46.47,1.12,93.73-14.6,123.72-51.67C268.76,157.76,276,139.51,281,121.53c2-7.34,3.82-14.94,5.26-22.63a47,47,0,0,1,4.67,4.34,11,11,0,0,1,2.55,3.76C294.45,109.81,292.15,111.76,290.47,115.86Z" fill="#79abdc"/><path d="M190,222.6a45.91,45.91,0,0,1-1.46,11.48c-.57.2-1.14.4-1.73.59l-.3.1q-4,1.32-8.12,2.36a153.59,153.59,0,0,1-15.48,3.1c-3.39.51-6.8.92-10.22,1.27-6.06.61-12.15,1-18.22,1.27q-5.07.22-10.11.37l-.49.06a133.69,133.69,0,0,1-14.94.84c-1,0-2,0-3,0q-5.55-.12-11-.69a127.62,127.62,0,0,1-25.22-5.23,119.5,119.5,0,0,1-12.42-4.68,108.28,108.28,0,0,1-31.51-20.94c2.28-10.07,7.87-19.31,15.92-27.09A72.53,72.53,0,0,1,49,179.26,84.67,84.67,0,0,1,65.07,170c2.39-1,4.84-2,7.37-2.88a102.27,102.27,0,0,1,15.13-4q3.5-.63,7.09-1a110.11,110.11,0,0,1,12.69-.72c1.32,0,2.63,0,3.92.07,2.29.07,4.55.23,6.78.44a108.23,108.23,0,0,1,15.38,2.6q3.48.85,6.8,1.93C169.53,175.85,190,197.46,190,222.6Z" fill="#fff"/><path d="M47,138.4c0,6.65,4.84,12,10.8,12s10.79-5.4,10.79-12-4.83-12-10.79-12S47,131.75,47,138.4Z" fill="#65a0d6"/><path d="M47.91,137.36c0,5.21,3.79,9.44,8.46,9.44s8.46-4.23,8.46-9.44-3.79-9.44-8.46-9.44S47.91,132.15,47.91,137.36Z" fill="#fff"/><path d="M48.79,137c0,4,2.89,7.23,6.47,7.23S61.73,141,61.73,137s-2.9-7.22-6.47-7.22S48.79,133.05,48.79,137Z" fill="#1d1d1b"/><path d="M51.48,133.63A1.49,1.49,0,1,0,53,132,1.58,1.58,0,0,0,51.48,133.63Z" fill="#fff"/><path d="M54.75,134.67a.74.74,0,1,0,1.48,0,.74.74,0,1,0-1.48,0Z" fill="#fff"/><path d="M119.21,138.4c0,6.65,4.84,12,10.8,12s10.79-5.4,10.79-12-4.83-12-10.79-12S119.21,131.75,119.21,138.4Z" fill="#65a0d6"/><path d="M120.09,137.36c0,5.21,3.79,9.44,8.46,9.44s8.46-4.23,8.46-9.44-3.79-9.44-8.46-9.44S120.09,132.15,120.09,137.36Z" fill="#fff"/><ellipse cx="127.44" cy="137.03" rx="6.47" ry="7.22" fill="#1d1d1b"/><path d="M123.66,133.63a1.49,1.49,0,1,0,1.49-1.66A1.58,1.58,0,0,0,123.66,133.63Z" fill="#fff"/><path d="M126.93,134.67a.74.74,0,1,0,.74-.82A.78.78,0,0,0,126.93,134.67Z" fill="#fff"/><path d="M69.76,238.08a119.5,119.5,0,0,1-12.42-4.68c-9.4-13.14-13.36-25.49-14.83-35.32a73.51,73.51,0,0,1-.76-12.71A72.53,72.53,0,0,1,49,179.26a63.38,63.38,0,0,0-.54,8.31,65.12,65.12,0,0,0,.76,9.9C51.44,211.77,58.41,225.47,69.76,238.08Z" fill="#c2e1ee"/><path d="M105.93,244q-5.55-.12-11-.69c-21.28-20.14-28.25-39.93-30-54.29a71.42,71.42,0,0,1,.14-19c2.39-1,4.84-2,7.37-2.88a63.76,63.76,0,0,0-1.33,13,66.93,66.93,0,0,0,.55,8.45C74.27,208.43,86,227.37,105.93,244Z" fill="#c2e1ee"/><path d="M162.92,240.23c-3.39.51-6.8.92-10.22,1.27-26.95-19.05-36.87-39.77-40.28-54.88a70.94,70.94,0,0,1-1.15-25.14c2.29.07,4.55.23,6.78.44a64,64,0,0,0,1,23.6C123.9,206.32,139,225.07,162.92,240.23Z" fill="#c2e1ee"/><path d="M134.48,242.77q-5.07.22-10.11.37l-.49.06c-25-20-33.6-40.7-36.23-55.68a70.75,70.75,0,0,1-.08-24.35q3.5-.63,7.09-1a63.82,63.82,0,0,0-.31,24.61C98.11,207.44,111.9,226.63,134.48,242.77Z" fill="#c2e1ee"/><path d="M186.82,234.67l-.3.1q-4,1.32-8.12,2.36c-30.57-21.3-40.78-44.29-43.78-60.57a72.13,72.13,0,0,1-1.19-12q3.48.85,6.8,1.93a65.2,65.2,0,0,0,1.09,9.26C145.54,197.82,161.21,218.09,186.82,234.67Z" fill="#c2e1ee"/><path d="M104.55,8.28a7.86,7.86,0,1,0-15.69,0,8.52,8.52,0,0,0,.63,3.25h-.06l3.64,9,3.63,9,3.64-9,3.64-9h-.06A8.71,8.71,0,0,0,104.55,8.28Z" fill="#80cef4"/><path d="M94.89,40a7.88,7.88,0,1,0-14.44,6.23,8.71,8.71,0,0,0,1.87,2.74l0,0,6.91,6.81,6.91,6.81-.22-9.7-.22-9.7-.05,0A8.53,8.53,0,0,0,94.89,40Z" fill="#80cef4"/><path d="M102.68,29.18A8.7,8.7,0,1,1,119,35.12a9.8,9.8,0,0,1-1.88,3.14l.06,0-7.18,8-7.17,7.95-.4-10.7L102,32.78l.06,0A9.57,9.57,0,0,1,102.68,29.18Z" fill="#80cef4"/><path d="M112.31,71c0,1.12-5.3,2-11.82,2s-11.82-.92-11.82-2,5.29-2,11.82-2S112.31,69.82,112.31,71Z" fill="#a5caec"/><path d="M110.71,69.92l0,.12c0,1.13-5.29,2-11.82,2a41,41,0,0,1-10.22-1c.37,1.07,5.5,1.92,11.79,1.92,6.52,0,11.81-.92,11.81-2C112.3,70.57,111.72,70.22,110.71,69.92Z" fill="#5da0d7"/><path d="M277.05,118.7s68.51-13.14,62.78-63.62C339.83,55.08,282.5,36,277.05,118.7Z" fill="#8db4e0"/><path d="M339.83,55.08a46.06,46.06,0,0,0-11.26-1.83,14.49,14.49,0,0,1,5.19,15.56c-2.75,11-11.38,19-20.15,25.6-4.65,3.48-9.52,6.78-13.8,10.73-2.75,2.54-11.93,5.45-17.76,12.37C309.9,110.28,343.87,90.7,339.83,55.08Z" fill="#79abdc"/><path d="M145.08,83.68s.46.08,1.3.28,2.09.49,3.64,1,3.45,1,5.56,1.84c1.07.38,2.18.84,3.37,1.3s2.4,1,3.67,1.62c2.54,1.16,5.23,2.55,8,4.17a86.46,86.46,0,0,1,8.43,5.59,80.34,80.34,0,0,1,8.25,7.07c1.28,1.34,2.62,2.64,3.82,4.1.61.71,1.24,1.41,1.83,2.15l1.73,2.25.84,1.13.78,1.19,1.55,2.37c.49.8.93,1.64,1.39,2.45s1,1.62,1.34,2.47.79,1.68,1.18,2.51l.58,1.26.48,1.29a53,53,0,0,1,1.75,5.1c.25.85.49,1.69.73,2.53a24.51,24.51,0,0,1,.56,2.51,46.63,46.63,0,0,1,.83,4.91c.1.8.19,1.59.29,2.37,0,.39.09.78.14,1.16s0,.77,0,1.15c.05,1.51.1,3,.15,4.37s-.1,2.75-.17,4q0,1-.09,1.86c-.06.6-.15,1.18-.21,1.75-.15,1.12-.28,2.17-.41,3.14-.06.49-.13,1-.19,1.4l-.26,1.25c-.66,3.18-1.08,5-1.08,5s.11-1.86.37-5.06c0-.41.07-.83.1-1.27s0-.91,0-1.39c0-1,0-2,.06-3.13,0-.56,0-1.14,0-1.73s-.06-1.2-.09-1.82c0-1.25-.11-2.55-.17-3.92s-.31-2.77-.47-4.23l-.12-1.1c-.07-.37-.13-.73-.2-1.11-.13-.74-.27-1.5-.4-2.26-.23-1.54-.67-3.08-1.07-4.66-.1-.39-.2-.79-.31-1.18a10,10,0,0,0-.33-1.19l-.78-2.39a70.26,70.26,0,0,0-4.07-9.54c-.37-.81-.87-1.55-1.29-2.33s-.87-1.55-1.36-2.31l-1.49-2.23-.75-1.12-.81-1.07L190.18,115c-.55-.71-1.15-1.38-1.72-2.07-1.12-1.4-2.4-2.66-3.61-4-.6-.65-1.27-1.23-1.9-1.85s-1.24-1.25-1.9-1.81c-1.31-1.16-2.59-2.31-3.93-3.36-2.64-2.14-5.31-4.06-7.91-5.81-1.31-.85-2.58-1.69-3.85-2.44s-2.49-1.5-3.68-2.18c-2.39-1.33-4.62-2.51-6.63-3.48s-3.79-1.79-5.27-2.43-2.65-1.13-3.46-1.44S145.08,83.68,145.08,83.68Z" fill="#fff"/></svg>