<svg version="1.1" id="Layer_1" xmlns="http://www.w3.org/2000/svg" x="0" y="0" viewBox="0 0 340.8 258.5" xml:space="preserve"><style>.st0{fill:#8db4e0}.st1{fill:#79abdc}.st3{fill:#fff}.st4{fill:#65a0d6}.st5{fill:#1d1d1b}</style><path class="st0" d="M287.1 119.3c-24.9-15.7-56-40.3-41-79.4 32.3 4.3 52.9 18.5 41 79.4z"/><path class="st1" d="M271.5 108.7c-16.7-13.2-39-38.1-25.4-68.9 6 .1 12 1.4 17.6 3.7-26 17.3-.3 45.5 7.8 65.2z"/><path class="st0" d="M24.9 199.9c-2.1 15.7-7 89.4 35.5 22.8l-35.5-22.8z"/><path class="st1" d="M30 237.1c-4.3-6.6-3.7-24.6-2.9-35.8-7.7 5.3-8.4 91.8 33.4 21.4-19.8 20.4-25.9 22.7-30.5 14.4z"/><path class="st0" d="M194 214.3c4.1 25.7 19.5 72.3-39.9 21.2l39.9-21.2z"/><path class="st1" d="M194 214.3c-8.8 23.6 14.9 60.4-39 20.7 53.6 51.3 45.4 6.4 39-20.7z"/><path class="st0" d="M291.1 114.3c-20.9 51.2-49.6 100.1-103.9 118.9-51.3 13.7-122.6 16.8-160.7-22.3-62-59.5-3.6-149.4 83.1-147 71.2-.2 127.4 56.9 103.2 117.9 29.5-19.4 51.9-51.2 63.2-84.7 3.8-8.9 15.7 3.5 18.1 8.4 1 2.8-1.3 4.7-3 8.8z"/><path d="M171 237.4c-33.6 4.5-69.3 9.3-102.2-1.4C-41.3 199-8.7 64 109.6 63.9c13.5-.1 27.2 2 40.1 6.2-55 5.2-98.7 51.9-69.1 106.4 3 10 54 54.9 90.4 60.9z" fill="#97bce1"/><path class="st1" d="M291.1 114.3C260.3 227 120.6 286.1 26.5 210.9-58.7 126.2 81.1 23 169.7 78.6c-361.3 30.4 70.7 298.1 117.2 18.7 6.6 5.6 10 8.2 4.2 17z"/><path class="st3" d="M190.7 221c0 3.9-.5 7.7-1.5 11.5-20.6 7.2-42.6 8.4-64.2 9.1-35.1 4.2-72.8-5.8-98.6-30.6 19.3-73.2 160.3-65.5 164.3 10z"/><path class="st4" d="M47.7 136.8c.1 15.7 21.5 15.7 21.6 0-.1-15.6-21.6-15.7-21.6 0z"/><path class="st3" d="M48.6 135.8c-.2 12.3 17.1 12.3 16.9 0 .1-12.2-17.1-12.2-16.9 0z"/><path class="st5" d="M49.4 135.4c-.1 9.4 13.1 9.4 12.9 0 .2-9.3-13-9.3-12.9 0z"/><path class="st3" d="M52.1 132.1c.2 1.9 3.2 1.6 3-.3-.2-1.9-3.1-1.6-3 .3zm3.3 1c0 1 1.5 1 1.5 0 0-.9-1.5-.9-1.5 0z"/><path class="st4" d="M119.9 136.8c.1 15.7 21.5 15.7 21.6 0-.1-15.6-21.6-15.7-21.6 0z"/><path class="st3" d="M120.7 135.8c-.2 12.3 17.1 12.3 16.9 0 .2-12.2-17-12.2-16.9 0z"/><path class="st5" d="M128.1 128.3c8.4-.1 8.4 14.6 0 14.4-8.4.1-8.4-14.6 0-14.4z"/><path class="st3" d="M124.3 132.1c.2 1.9 3.2 1.6 3-.3-.2-2-3.1-1.6-3 .3zm3.3 1c.1 1 1.6.8 1.5-.2-.1-.9-1.6-.7-1.5.2z"/><path d="M70.4 236.5c-4.2-1.3-8.4-2.9-12.4-4.7-12.5-18.5-15.5-30.5-15.6-48 2.3-2.2 4.7-4.2 7.2-6.1-2.6 22 5.1 41.2 20.8 58.8zm36.2 5.9c-3.7-.1-7.4-.3-11-.7-27.3-28.2-31.9-45.5-29.9-73.3 2.4-1 4.8-2 7.4-2.9-5.5 30.1 7.4 54.6 33.5 76.9zm57-3.7c-3.4.5-6.8.9-10.2 1.3-36-28.2-43.2-47.1-41.4-80 2.3.1 4.6.2 6.8.4-4 33 13.4 57.8 44.8 78.3zm-28.5 2.5c-3.5.2-7.1.2-10.6.4-33.2-29.4-39.3-48.1-36.3-80 2.3-.4 4.7-.8 7.1-1-6 32.8 9.8 58.5 39.8 80.6zm52.4-8.1c-2.8.9-5.6 1.7-8.4 2.5-35.7-26.9-42.9-45.9-45-72.6 2.3.6 4.6 1.2 6.8 1.9 1.8 27.7 17.8 49.1 46.6 68.2z" fill="#c2e1ee"/><path d="M105.2 8.7c-5.9-18.6-25-5.5-7.9 21.2 2.1-6 7.1-15 7.9-21.2zm-9.7 31.7C82.9 25.7 70.2 45.1 96.8 63c-.6-6.3.5-16.6-1.3-22.6zm7.8-10.8c5.1-13.8 24.2-1.8 14.4 9.1h.1c-3.6 4-10.8 12-14.3 16 .2-7.1-1.7-18.3-.2-25.1z" fill="#80cef4"/><path d="M113 69.4c.5 2.6-24.1 2.5-23.6 0-.6-2.5 24.1-2.6 23.6 0z" fill="#a5caec"/><path d="M111.4 68.4c-.8 2.7-17.2 2.5-22 1.1-1 2.4 29.8 2.8 22-1.1z" fill="#5da0d7"/><path class="st0" d="M277.7 117.1s68.5-13.1 62.8-63.6c0 0-57.3-19.1-62.8 63.6z"/><path class="st1" d="M340.5 53.5c-3.7-1.1-7.4-1.7-11.3-1.8 19.4 20.2-15.2 40.2-28.8 51.9-2.8 2.5-11.9 5.5-17.8 12.4 28-7.3 61.9-26.9 57.9-62.5z"/><path class="st3" d="M145.7 82.1c40.9 9.3 71.5 45.8 59.8 88.5 5.4-43.2-20.9-73.8-59.8-88.5z"/></svg>