<svg xmlns="http://www.w3.org/2000/svg" viewBox="0 0 916.7 1094.85"><path d="M671.49 597.1c34.64-31.92 78.1-52.58 115.07-81.57 35.69-28 66.76-62.57 89.34-102 46.87-81.9 57.61-185.62 9.7-269.66C843.3 69.67 763.05 22 680.46 6.55 633-2.33 581.22-4.19 535.55 13.88c-42.6 16.86-80.31 49.85-99.62 91.94-21 45.77-25.93 97.06-21.07 146.87 2.2 22.55 4.07 48.78 29.81 55.91 18.38 5.08 42.19 7 61.12 5.62 46.33-3.42 68.75-34.48 77.36-77.31 3.23-16.1 5.17-37.32 22.29-45 13.83-6.18 30.09-4.49 43.24 2.37 36.46 19 35.84 72.51 29.13 107.1-8.33 43-26.88 84.45-54.76 118.44-30.72 37.46-73.19 61.81-105.87 97.07-30.47 32.86-51.93 75-61.65 118.69-10 44.84-12.85 91.3-13.49 137.12-.28 20.33.1 43.68 9.53 62.21 10.65 20.92 28.71 26.86 50.6 29.18a254.92 254.92 0 0 0 80.68-4.5c12.84-2.73 17.82-13.18 17-23.55 1.84-20.56 4.45-40.73 4.46-61.44a323.36 323.36 0 0 1 6.79-65.22c8.82-42.99 27.83-82.28 60.39-112.28ZM461.82 266.61c-.34-.22-.26-.24 0 0Zm110.84 442.54a326.39 326.39 0 0 0-2.07 70.55 121.47 121.47 0 0 0 7.32 32.69 24.54 24.54 0 0 0-7.8 1 219.6 219.6 0 0 1-36.74 7.73c-8.43.93-27.36 4.71-34.95.11-11.29-6.84-3.24-37.45-2.76-48.5 1.77-41.08 4.08-82.12 14-122.19 9.64-38.94 22.85-76.51 50.2-106.8 29.73-32.92 68.19-56.17 96.81-90.27 51.43-61.26 92.33-157.19 66.85-237.64-12-38-41.32-68.39-81.58-74.88-38.3-6.17-73.62 10.59-87.21 48.21-10.48 29-7.39 79.31-46.62 84.11a94.64 94.64 0 0 1-27.8-1.17c-4.68-.88-9.28-2.41-13.85-3.72a22.61 22.61 0 0 1-4.39-1.63c-3.26-5.52-2.18-22.87-2.43-28.81-.58-13.67-.34-27.2 2-40.7 6.95-40 25.57-79.17 56.35-106.35C551.68 61.13 598.84 57 641.84 60.14c70.76 5.1 145.88 38.54 188.4 97 50.73 69.77 48 166 5.67 239-23.75 41-57.44 75.46-96.13 102.62-39.5 27.72-83.3 51.41-114.45 89.19-28.41 34.5-46.33 77.05-52.67 121.2Zm-96.91 299.72q-1.15-9.66-2.11-19.35c-1.56-15.82-4.21-31.34-6.58-47.06-1-6.87-12.35-6.61-13.63 0-6.9 35.8-8.73 72.57-8.3 109 .45 38.39 58.05 31.24 83.54 31.94 15.34.42 33.32 4.25 47.64-2.79 12.87-6.32 20-18.39 23-32 7.32-32.65 9.52-76.63-1.28-108.61-2.09-6.18-6.91-12.52-13.78-13.78a10.42 10.42 0 0 0-6-6.61c-17.47-7-37-12.74-56-8.79-8.59 1.77-15.24 6-22.92 10-9.25 4.84-19.43 7.87-29.07 11.94-.67.29-.16 1.26.48 1.13 11-2.32 21.46-4.6 32.58-2 7.59 1.79 14.64 4.36 22.48 5.09 11.79 1.09 23.69.82 35.56.9-5.32 12.74-3.7 32.4-3.79 43.87-.12 14.23-.58 28.46-.87 42.68-.08 4.42 1.17 12-.61 16.2-2.45 5.85 2 2.48-5.44 2.73-14.41.49-29.53-2.08-43.9-3.09-7.81-.55-17.35-2.28-25.09-.77h-1a20.57 20.57 0 0 0-1.05-3c1.64-7.21-2.97-20.23-3.86-27.63ZM1.17 126.63c2.43 14.86 5.51 29.63 8.28 44.43 1.39 7.43 2.17 15.24 4.22 22.5 2.39 8.48 7.22 15.91 9.42 24.44 8.15 31.41 11.91 64.8 16.26 96.91 4.27 31.45 9.69 62.56 15.36 93.79C66.2 472 77.22 535.38 89.46 598.53c13.46 69.49 26 139.23 41 208.4 6.38 29.43 18.05 53.78 49.81 61.57 30.84 7.55 60.33-7.76 86-23.24 12.77-7.7 12.9-21.78 6.64-31.52 0-122.93-19.86-245.25-34.42-367.16-7.45-62.24-16.33-124.3-25.13-186.37q-6.84-48.25-13.42-96.55c-4-29.58-6.19-61.73-15.2-90.27-9.6-30.42-41.09-32.1-68.13-30.31-29.2 1.92-59 8.46-85.17 21.73C5.48 78-3.47 98.24 1.17 126.63Zm138.7-33.95a3.58 3.58 0 0 1-.84 0c.27.02.58.04.84 0Zm-96.73 17.06c2.86-3.27 13.28-5.45 17-6.78 5.49-2 11.05-3.74 16.68-5.25A165 165 0 0 1 113.63 92q8.75-.33 17.49.09c1.52.07 3.36.38 5.15.56-.56 4.16 2.37 13.78 2.8 17l3 22.44c7.45 55.79 18.68 111.27 27.41 166.9 8.53 54.41 16.75 108.87 25.64 163.22 18.61 113.75 31 229 58.22 341a22.22 22.22 0 0 0-9.76 3.28c-12.72 7.68-38.76 26-53.69 12.55-5.64-5.08-5.73-16.16-7-23.21-2.53-14-5-27.9-7.82-41.78q-16.56-81.63-33.11-163.25c-11-54.38-23-108.58-34.67-162.82-6-27.65-11.67-55.36-17.86-83-5.94-26.49-14.3-52.42-20.2-78.93-3.07-13.8-5.87-27.67-8.8-41.51-3.07-14.48-1.84-28.36-4.13-42.8-2-12.84-5.36-25.62-8-38.35-1.62-7.39-9.45-28.74-5.16-33.65Zm124 959.91c.56 9.89 6.57 18.88 16.44 21.59 25.07 6.86 57.53 2.09 83.33.61 26.58-1.53 52.58-8.52 66.46-33.49 13.53-24.33 7.51-53.86 1.3-79.33-6.67-27.38-14.09-61.29-39.39-77.17-11.16-7-29.53-.71-32 13 0 .18-.05.36-.08.53-33.1-1.57-68.76 3.85-90.95 30.8-11.52 14-14.1 30-12.84 47.72 1.75 25.33 6.31 50.47 7.73 75.74ZM186 955.74c7.25-10.53 24.63-12.87 36.2-15.33 13.3-2.83 26.85-5.06 40.34-7.16C264 948 269.8 961.6 274 976.86q4 14.65 6.76 29.61c1.07 5.79 4.57 17 2.7 23.12-3.16 10.37-24.68 9-33.35 9.78-13.91 1.29-29.93 1.17-44.87 3.26-2.62-10.52-5-21.1-8.19-31.46-4.05-13.07-19.38-43.3-11.05-55.43Z"/></svg>