<svg xmlns="http://www.w3.org/2000/svg" viewBox="0 0 916.7 1094.8" xml:space="preserve"><path d="M671.5 597.1c534.7-271.7 58.9-838.3-235.6-491.3-20.4 38.2-44.9 186.3 8.8 202.8 182.1 51 96.7-155.1 204-114.3 139.6 175.9-169.9 283.1-193.1 441.3-20.9 115.5-46.4 272.4 127.3 224 44.5-4.1-14.6-171.9 88.6-262.5zM461.8 266.6c-.3-.2-.2-.2 0 0zm110.9 442.6c-3.9 34.1-6.5 70.3 5.2 103.2-47 5.8-101.1 38-82.2-39.7-7.5-138.3 54.8-237.8 161-319.2 73.7-79.3 127.8-276.4-14.8-312.5C498.4 124.9 597 313.6 462 266.8c8.1-482.1 689.8-27.5 277.7 232-79.5 47.2-157.3 111.9-167 210.4zm-96.9 299.7c-15-159.2-34.6-14.4-30.6 42.6 1.1 45.6 100.9 33.7 131.2 29.2 35.2-7.7 40.2-148 7.9-154.4-29.9-32.3-81-9-114 6.5 27.5-5.1 60.6 7.8 91.1 5.1-8.9 34.3-1.1 68.6-5.3 102.7-2.4 5.9 2 2.5-5.4 2.7-23.2.9-46.9-5.9-70-3.9-1-8.2-2.8-21.7-4.9-30.5zM1.2 126.6c50.4 224.7 79.5 454.7 129.3 680.3-.6 90.4 161.9 71 142.5 6.8-9.7-247.9-50-495.6-88.2-740.4-19.1-54-114.9-26.2-153.3-8.6-26 13.3-35 33.5-30.3 61.9zm138.7-33.9h-.8.8zm-96.8 17c28.3-13.7 61.6-20.1 93.1-17.1 29.5 232.9 91.6 495.8 107.3 713.8-22.8 15.1-59.6 34-60.7-10.7-12.5-68.6-27.4-136.7-40.9-205-30-160.3-77.7-320.7-98.8-481zm124 959.9c3.6 39.4 72.9 21.5 99.8 22.2 106.5 2.1 82.8-141.2 28.4-190-11.3-7.1-30.1-.5-32.1 13.5-109.7-7.3-112 68.9-96.1 154.3zM186 955.7c13.8-16.9 55.3-17.5 76.5-22.5 3.3 24.1 14.8 48.4 18.2 73.2 18.4 50.1-47 27.2-75.5 36.2-1.9-26.5-27.7-61.5-19.2-86.9z"/></svg>