<svg xmlns="http://www.w3.org/2000/svg" viewBox="0 0 2024.85 2024.85"><title>robotAsset 1</title><rect width="2024.85" height="2024.85" fill="none"/><path d="M899.9,1314.14,767.56,1294l-118.2,21.91c-57.51,122-64.39,261.25-54.71,393L842,1713C839.45,1542.63,842,1460.18,899.9,1314.14Z" fill="#ddede7"/><path d="M1377,1296.78l-127-15-134.88,27.52c79.29,134.65,89.75,255.32,84.37,407.79l250.77,2C1457.24,1538.18,1450.72,1444.81,1377,1296.78Z" fill="#ddede7"/><path d="M541.84,795.55c-57.06-1.63-112.91,12.55-163.11,38.15a389.27,389.27,0,0,0-120.82,96.54,296.9,296.9,0,0,0-24.48,33.83C202,1014.7,187.8,1071.9,184.05,1134.54c-2.17,36.6-.82,75,2.72,115.14L379.26,1235c.08-27.39.74-53.51,3.6-77.85,3.61-30.52,10.66-58.23,24.41-82.05q1.71-3,3.6-5.94c14.66-22.8,33-41.87,56-55.05C488,1002,513,994.87,542.64,994.45l20.69-99Z" fill="#ddede7"/><path d="M1837.69,537.36l-192.55,13.89c-.19,27.39-1,53.5-3.92,77.83-3.73,30.51-10.89,58.19-24.73,81.95q-1.73,3-3.63,5.93c-14.75,22.75-33.18,41.74-56.18,54.83-21.16,12-46.23,19.07-75.89,19.37L1459.7,888l21.09,102.1c57,1.86,113-12.09,163.26-37.49a389.14,389.14,0,0,0,121.21-96.06,297.6,297.6,0,0,0,24.62-33.73c31.67-50.49,46.06-107.64,50.06-170.27C1842.26,615.93,1841.07,577.47,1837.69,537.36Z" fill="#ddede7"/><path d="M1428.39,1293.19a56.35,56.35,0,0,0,52.17-55.73c2-233.45-1.67-476.35.32-709.8.63-72.95-7.19-174.31-56.54-228-43.14-47-111.07-68-174.41-75.59-111.71-13.37-213.31-16.49-325.59-9.28-61.14,3.92-122.75,11-180.37,31.85S632.49,303,599.09,354.37c-41,63-47.27,141.81-50.88,216.92-10.49,217.93-8.76,474.22,5.17,692a56.34,56.34,0,0,0,56.29,52.68C835.73,1315.81,1144.05,1314.25,1428.39,1293.19Z" fill="#f07642"/><path d="M708.85,409.23c18.72-14.39,45-12.89,68.67-12.87l493.44.29c36.06,0,64.5,3,84.86,32.77,13.9,20.33,12.88,47,11.33,71.58-3.53,55.77-.28,111.54-3.81,167.31-1.91,30.2,1.05,80.47-19.45,102.73-20.78,22.57-46.7,18.34-96.38,20.24-135.47,5.15-277,1.62-440,4.19-25.66.41-93.11-1.86-110.64-20.19-23.89-25-19.48-77.67-19.41-103.67C677.58,625.94,672.79,436.93,708.85,409.23Z" fill="#ddede7"/><path d="M1015.56,732.08a75.7,75.7,0,0,1-30.31-6.15c-24.5-10.69-41.41-35.12-42.09-60.78a15.82,15.82,0,1,1,31.63-.84c.35,13.42,9.86,26.84,23.12,32.63s29.91,4.46,43.54-3.43c13.22-7.65,23.72-21.33,28.82-37.52a15.82,15.82,0,1,1,30.17,9.5c-7.44,23.64-23.16,43.83-43.13,55.4A83.83,83.83,0,0,1,1015.56,732.08Z" fill="#1a1d3f"/><path d="M827.3,609.46a15.82,15.82,0,0,1-10.07-28l44.71-36.86-52.07-15.15a15.82,15.82,0,1,1,8.84-30.37l80.8,23.5a15.82,15.82,0,0,1,5.64,27.4l-67.8,55.89A15.74,15.74,0,0,1,827.3,609.46Z" fill="#1a1d3f"/><path d="M1204,605.35a15.77,15.77,0,0,1-9.79-3.4l-65.92-52a15.83,15.83,0,0,1,4.91-27.47l86.41-28.1a15.82,15.82,0,1,1,9.79,30.08l-58.29,19,42.7,33.69a15.82,15.82,0,0,1-9.81,28.24Z" fill="#1a1d3f"/><path d="M669.61,992.23c3.34-14.8,14.75-28.82,29.3-29.45,12.91-.56,24.48,9.56,30.15,21.67s6.66,25.95,7.54,39.39l9,137c1,15.08,1.92,30.68-3,44.9s-17.42,26.73-31.9,26.31c-11.7-.34-22-9-27.76-19.7s-7.59-23-8.84-35.19C669.31,1130.67,666.28,1007,669.61,992.23Z" fill="#1a1d3f"/><path d="M804.75,1021.53c-.29-10.24-.57-20.63,1.44-30.56s6.64-19.51,14-24.44c13-8.66,30.33.23,39,15S870,1015,871.38,1032.89a960.83,960.83,0,0,1,.48,136.58c-.73,10.78-1.69,21.76-5.42,31.56s-10.73,18.37-19.55,20.23c-11.42,2.41-22.85-7.2-28.45-19.54-11.34-25-9.3-68.36-11.78-96C803.89,1075,805.64,1052.39,804.75,1021.53Z" fill="#1a1d3f"/><path d="M937.46,1019.26c-.85-13.22-1.64-26.91,2.76-39.34s15.48-23.33,28.17-22.73c10.28.48,19.19,8.37,24.07,17.84s6.4,20.35,7.66,31c6.7,56.73,11.72,114.19,7,171.14-1.08,13-2.69,24.43-10.07,34.91s-24.14,12.16-36.72,2.43c-8.43-6.52-12.45-24.86-13.52-35.76C941.09,1120.7,941.21,1077.5,937.46,1019.26Z" fill="#1a1d3f"/><path d="M1133.37,963.74c-9.51,8.17-15.43,20.8-14.24,33.29,1.72,18,18.15,32.46,36,35.52,14.62,2.5,30.55-1.84,40.94-12.42s14.36-27.42,8.58-41.07C1192.36,950,1156.37,944,1133.37,963.74Z" fill="#ffcb47"/><path d="M1278.15,971.46c-5.12,14.14-1.32,30.88,8.75,42s25.8,16.68,40.76,15.16c11.51-1.17,22.88-6.57,29.72-15.89,9.85-13.44,8.23-33.57-2.55-46.26C1335.41,943.65,1290,938.8,1278.15,971.46Z" fill="#16c172"/><path d="M1140.87,1133.06c-7.85,7.14-13.7,19.32-13.26,29.93.46,11.27,5.68,21.12,14,28.8a59.8,59.8,0,0,0,24.91,13.51c15,3.59,31.77-4,40-17.08s7.91-30.75.28-44.21c-6.32-11.14-15.77-19.48-29-21.54C1159.83,1119.69,1150.07,1124.68,1140.87,1133.06Z" fill="#16c172"/><path d="M1290.34,1127.46c-9.34,12.16-10.62,29.66-4.12,43.54a46.17,46.17,0,0,0,27.87,24.22c15.29,4.7,33,.54,44.42-10.67s15.8-29.09,10.64-44.23C1358.65,1109.51,1310.32,1101.46,1290.34,1127.46Z" fill="#ffcb47"/><path d="M890,1808c4.83-45.09-28.74-91.82-83.29-116s-127.53-24.56-181.06-1-85.11,69.88-78.35,115C659,1808.11,778.27,1805.9,890,1808Z" fill="#16c172"/><path d="M1497.89,1813.88c4.84-45.08-28.73-91.82-83.29-116s-127.52-24.57-181-1-85.11,69.89-78.35,115C1266.9,1814,1386.2,1811.79,1497.89,1813.88Z" fill="#16c172"/><path d="M422.19,1429.4c15.79-31.34,25.33-66.68,21.5-101.56s-22.35-69-52.65-86.75c-33.66-19.66-75.35-23.14-114.17-19.7-36.06,3.2-74.69,13.77-102.12,37.39-25.21,21.71-36.06,56.6-35.45,89.86s7.49,75.85,23.19,96.53c14.08,18.55,48,21.08,63.32,3.53,13.79-15.83,10.39-39.41,7.6-60.22s-8-43.72,3.5-61.29c14.86-22.75,50.89-30,78-28.34,23.41,1.44,48.82,11.94,57.51,33.74,12.54,31.48-23.33,66.06-12.28,98.09a35.31,35.31,0,0,0,30.76,23.16C404.51,1454.55,416.06,1441.56,422.19,1429.4Z" fill="#16c172"/><path d="M382.88,1173a15.93,15.93,0,0,1-1.81-.1l-9.41-1.07Q277,1161,182.26,1150.26a15.82,15.82,0,0,1,3.58-31.44l189.4,21.56,9.42,1.08a15.82,15.82,0,0,1-1.78,31.53Z" fill="#1a1d3f"/><path d="M466.84,1030a15.82,15.82,0,0,1-14.22-8.88l-21.44-43.91q-33.31-68.26-66.66-136.51a15.82,15.82,0,1,1,28.42-13.89Q426.29,895,459.61,963.28l21.44,43.91A15.83,15.83,0,0,1,466.84,1030Z" fill="#1a1d3f"/><path d="M407.25,1091a15.8,15.8,0,0,1-8.5-2.49L224.91,977.41a15.82,15.82,0,0,1,17-26.67l173.84,111a15.82,15.82,0,0,1-8.53,29.16Z" fill="#1a1d3f"/><path d="M1603,356.7c-15.93,31.27-25.61,66.57-21.92,101.47s22.08,69.14,52.31,87c33.57,19.79,75.25,23.45,114.09,20.16,36.07-3,74.74-13.46,102.26-37,25.3-21.61,36.29-56.46,35.82-89.72s-7.19-75.88-22.81-96.63c-14-18.6-47.94-21.27-63.3-3.77-13.86,15.77-10.55,39.36-7.85,60.18s7.81,43.75-3.74,61.27c-14.95,22.69-51,29.81-78.12,28-23.41-1.54-48.78-12.14-57.37-34-12.42-31.53,23.58-66,12.66-98a35.31,35.31,0,0,0-30.66-23.28C1620.77,331.62,1609.18,344.57,1603,356.7Z" fill="#16c172"/><path d="M1840,668.33a16.86,16.86,0,0,1-1.87-.1q-99.36-11.7-198.72-23.44a15.82,15.82,0,1,1,3.71-31.42q99.35,11.73,198.71,23.43a15.82,15.82,0,0,1-1.83,31.53Z" fill="#1a1d3f"/><path d="M1644.06,968.39a15.81,15.81,0,0,1-14.25-8.94Q1597.38,892.4,1565,825.32l-22.55-46.65a15.82,15.82,0,0,1,28.49-13.76l22.54,46.64q32.41,67.07,64.83,134.13a15.82,15.82,0,0,1-14.23,22.71Z" fill="#1a1d3f"/><path d="M1789.86,838.6a15.72,15.72,0,0,1-8.55-2.52L1607.92,724.33a15.82,15.82,0,1,1,17.14-26.59l173.39,111.75a15.82,15.82,0,0,1-8.59,29.11Z" fill="#1a1d3f"/><path d="M866.55,1428.34a15.86,15.86,0,0,1-2.81-.25,1633.34,1633.34,0,0,0-242.45-24.79,15.82,15.82,0,0,1,.85-31.63A1664.55,1664.55,0,0,1,869.31,1397a15.82,15.82,0,0,1-2.76,31.39Z" fill="#1a1d3f"/><path d="M591.83,1588.51a15.82,15.82,0,0,1-1.69-31.54,1677.33,1677.33,0,0,1,253.67-8.16,15.82,15.82,0,0,1-1.39,31.61,1647.94,1647.94,0,0,0-248.87,8A16.66,16.66,0,0,1,591.83,1588.51Z" fill="#1a1d3f"/><path d="M1165.07,1431.21a15.82,15.82,0,0,1-1.57-31.56l252-25.42a15.82,15.82,0,1,1,3.18,31.48l-252,25.42C1166.14,1431.18,1165.6,1431.21,1165.07,1431.21Z" fill="#1a1d3f"/><path d="M1451.43,1591.23a14.41,14.41,0,0,1-1.6-.08,1624.23,1624.23,0,0,0-251.62-5.7,15.82,15.82,0,1,1-1.75-31.59,1656.56,1656.56,0,0,1,256.54,5.81,15.82,15.82,0,0,1-1.57,31.56Z" fill="#1a1d3f"/></svg>