<svg version="1.1" id="Layer_1" xmlns="http://www.w3.org/2000/svg" x="0" y="0" viewBox="0 0 2024.8 2024.8" xml:space="preserve"><style>.st1{fill:#ddede7}.st3{fill:#1a1d3f}.st4{fill:#ffcb47}.st5{fill:#6eec99}</style><path d="M0 0h2024.8v2024.8H0V0z" fill="none"/><path class="st1" d="M899.9 1314.1 767.6 1294l-118.2 21.9c-57.5 122-64.4 261.2-54.7 393L842 1713c-2.5-170.4 0-252.8 57.9-398.9zm477.1-17.3-127-15-134.9 27.5c79.3 134.7 89.8 255.3 84.4 407.8l250.8 2c6.9-180.9.4-274.3-73.3-422.3zM541.8 795.5c-123.2-3.1-242.3 66.1-308.4 168.5-52.3 83.5-55.5 186.6-46.7 285.6l192.5-14.7c-5.2-114 30.1-236.7 163.4-240.5 24.6-110.7 24-88.7-.8-198.9zm1295.9-258.1-192.6 13.9c4.7 114-31.1 236.6-164.4 239.9-26 110.7-23.3 89.2 0 198.9 123.2 3.6 242.5-65.2 309.1-167.3 52.7-83.3 56.3-186.5 47.9-285.4z"/><path d="M1428.4 1293.2c29.2-2.2 51.9-26.4 52.2-55.7 2-233.5-1.7-476.3.3-709.8.6-73-7.2-174.3-56.5-228-126.7-115.1-339.7-84.1-500-84.9-119.1 6.1-255.4 33.7-325.3 139.6-101.9 215.4-46.5 661-45.7 908.9 2 29.7 26.6 52.7 56.3 52.7 226-.2 534.4-1.7 818.7-22.8z" fill="#f07642"/><path class="st1" d="M708.8 409.2c77.3-13 579.7-45.4 647 20.2 20.5 90.4 19 259.9-11.9 341.7-156.7 52.1-343.7 9.1-536.4 24.5-196.1 54.7-135.1-307.1-98.7-386.4z"/><path class="st3" d="M1015.6 732.1c-57 4-95.8-77.8-57-83.2 8.7-.2 16 6.7 16.2 15.4 8.8 56.8 83.1 41 95.5-8.3 48.9-49.8 38.5 74.6-54.7 76.1zM827.3 609.5c-47-11.5 22.8-52.8 34.6-64.9l-52.1-15.2c-20.5-5.8-11.6-36.4 8.8-30.4l80.8 23.5c12 3.1 15.4 19.8 5.6 27.4-5.5 3.1-71.5 63.7-77.7 59.6zm376.7-4.1c-5.7 4-70.4-52.8-75.7-55.4-9.9-7.4-6.9-23.9 4.9-27.5l86.4-28.1c19.5-6.7 29.9 23 10.4 29.9-.7.2-58.2 19-58.9 19.2 12.2 11.5 79.5 49.9 32.9 61.9zM669.6 992.2c76.3-116.9 72.3 132.1 76 168.6 11.4 41-28 104.1-62.7 51.5-19.4-50.1-14.3-193.4-13.3-220.1zm135.2 29.3c-7.3-36.8 22.6-86 54.4-40 17.1 46.7 33.2 215.9-12.3 239.7-61.9-9.8-33.7-151.1-42.1-199.7zm132.7-2.2c-11-69.1 56-90 62.7-13.2 4.4 57.4 21.1 154.8-3.1 206.1-78.1 47.2-48-149.1-59.6-192.9z"/><path class="st4" d="M1133.4 963.7c-44.6 41.9 23.9 94.7 62.7 56.4 37.2-40.8-25.1-91.3-62.7-56.4z"/><path class="st5" d="M1278.2 971.5c-16.3 46 50.5 78.5 79.2 41.3 32.9-47.8-58.6-94.3-79.2-41.3zm-137.3 161.6c-44.1 41.2 32.8 104 65.7 55.2 24.9-43.3-30.2-89.1-65.7-55.2z"/><path class="st4" d="M1290.3 1127.5c-30.8 44 29.8 93.7 68.2 57.1 43.4-45.9-30.2-100.9-68.2-57.1z"/><path class="st5" d="M890 1808c7.5-174.1-354.3-181-342.7-2 111.7 2.1 231-.1 342.7 2zm607.9 5.9c7.5-174.1-354.2-181-342.6-2 111.6 2.1 230.9-.1 342.6 2zM422.2 1429.4c126.7-233.3-274.5-293.3-282.9-80.8-.7 54.4 21.7 146.6 86.5 100.1 37.9-51.1-55.3-146.9 89.1-149.9 110.2 17.8 31.4 87 45.2 131.8 13.1 31.3 48.5 30 62.1-1.2z"/><path class="st3" d="M382.9 1173c-66.9-7.3-133.7-15.3-200.6-22.7-8.7-1-14.9-8.8-13.9-17.5s8.8-14.9 17.5-13.9l189.4 21.6 9.4 1.1c19.3 2.1 17.7 31.3-1.8 31.4zm83.9-143c-6 0-11.6-3.4-14.2-8.9l-21.4-43.9c-22.2-45.5-44.4-91-66.7-136.5-4-7.8-1-17.3 6.8-21.3s17.3-1 21.3 6.8c22.3 45.7 44.7 91.4 67 137.1l21.4 43.9c5.3 10.2-2.7 23-14.2 22.8zm-59.6 61c-3 0-6-.9-8.5-2.5L224.9 977.4c-7.2-4.9-9.1-14.7-4.2-22 4.7-6.9 14-9 21.2-4.7l173.8 111c13.3 7.9 6.9 29.7-8.5 29.3z"/><path class="st5" d="M1603 356.7c-127.8 231.4 272.5 295.6 282.6 81.9.9-54.4-21.2-146.7-86.1-100.4-38.1 50.9 54.7 147.2-89.7 149.5-110.1-18.2-31.1-87.2-44.7-132-13-31.4-48.4-30.1-62.1 1z"/><path class="st3" d="M1840 668.3c-66.9-7.5-133.7-15.8-200.6-23.5-8.7-.9-15-8.7-14-17.4.9-8.7 8.7-15 17.4-14 66.3 7.8 132.7 15.7 199 23.5 19.4 2.1 17.7 31.4-1.8 31.4zm-195.9 300.1c-6.1 0-11.6-3.5-14.2-8.9-28.7-59.2-58.6-121.4-87.4-180.8-8.7-18.5 19.3-32.2 28.5-13.8l22.5 46.6 64.8 134.1c5.2 10.2-2.8 23-14.2 22.8zm145.8-129.8c-3 0-6-.9-8.6-2.5l-173.4-111.8c-7.4-4.6-9.7-14.4-5.1-21.8s14.4-9.7 21.8-5.1c0-.1 173.7 112 173.8 112 13.2 8 6.8 29.7-8.5 29.2zm-923.3 589.7c-81.1-13.9-163-23-245.3-25-8.7-.2-15.6-7.5-15.4-16.2s7.5-15.6 16.2-15.4c82.9 2.3 165.5 10.7 247.2 25.3 18.6 3.2 16.2 31.4-2.7 31.3zm-274.8 160.2c-8.7 0-15.8-7.2-15.7-15.9-11.9-33.3 238.6-23.9 267.7-23.8 8.7.4 15.5 7.8 15.1 16.5s-7.8 15.5-16.5 15.1c-83.6-3.7-167.3-.7-250.6 8.1zm573.3-157.3c-19.6 0-21.2-29.6-1.6-31.6l252-25.4c8.7-.9 16.5 5.5 17.3 14.1.9 8.7-5.5 16.5-14.2 17.3-1.4.2-252.2 25.7-253.5 25.6zm286.3 160c-84.1-8.3-168.8-10.5-253.2-5.8-8.7.6-16.2-6-16.8-14.8s6-16.2 14.8-16.8c85.6-4.7 171.5-2.8 256.9 5.8 8.7.9 15 8.6 14.2 17.3-1 8.2-7.8 14.3-15.9 14.3z"/></svg>