<svg xmlns="http://www.w3.org/2000/svg" viewBox="0 0 5000 5000" style="enable-background:new 0 0 5000 5000" xml:space="preserve"><style>.st2{fill:#105738}</style><path d="M5000 882.3c-135.8-58.4-285.4-90.7-442.5-90.7-619.5 0-1121.8 502.2-1121.8 1121.8s502.2 1121.8 1121.8 1121.8c157.2 0 306.8-32.3 442.5-90.7V882.3zM860.3 1309.1c79.8 35.3 86.7 94.8 73.8 125.4-7.1 16.8-5.6 35.4 9.4 35.4 18.5 0 21.6-49.4 60.1-54.6 34.7-4.6 46.2 28.3 74.2 36.4-22.8 4.6-41.3 22-41.3 22s7.7 52.4-12.1 116.7c-22.8 73.8-76.8 101.6-168.7 112.1-41.9 4.8-131-18.7-147.9-10.4-16.9 8.3-34.7 40.6-63 67.4-21.6 20.5-45.3-8.4-17.6-43.9-26.2 15.3-63.9 6.8-41.4-33.9-37.3 13.9-51.1-22.5-20.8-47.7-49.6-8-63.3-51.6-41.8-47.5 38.7 7.4 111.1 10.4 130.8 9.2 43.6-2.5 83-24.6 108.7-45.1-38.8 16.1-85.5-11.7-84.7-70.1-39.6 9.9-83.5-25.9-66.1-80.2-56.6 3.5-95.9-46.2-77.4-87.8-60.1-10.4-72-149.2-17.3-121.3 115.5 59 300.8 99.2 343.1 117.9z" fill="#ffe699"/><path d="M5000 2593.9c-258.5-55-692.5-175.9-1019-412.9 0 0-336-256-784-416 0 0-496-160-976 80 0 0-216 120-821.8 368 0 0-739.4 279.1-1399.2 351.1V4262c525.9 80 2334.5 325.1 4818.5 335.1 0 0 79.4-58.3 181.5-166.8V2593.9z" style="fill:#187b4c"/><path class="st2" d="M5000 3482.9c-87.7-49.2-197.8-78.5-317.4-78.5-51.8 0-101.9 5.5-149.1 15.7-56.4-79.7-171.3-134.2-303.7-134.2-44.9 0-87.8 6.3-127 17.7-92.3-108.4-258.2-180.8-447.4-180.8-166.1 0-314.2 55.7-410.3 142.7-117.7-66.4-266-106.1-427-106.1-152.9 0-294.3 35.7-409 96.2-62-58.5-159.7-96.2-269.6-96.2-72.7 0-140 16.5-195.3 44.6-89.8-69.9-218.2-113.7-360.7-113.7-136.7 0-260.4 40.3-349.6 105.3-56.9-23.1-122.6-36.2-192.5-36.2-158.5 0-295.2 67.6-357.6 165.1-46.2-24.3-103.1-38.6-164.6-38.6-154.5 0-279.7 90.4-279.7 201.9 0 6 .4 11.8 1.1 17.7-24-1.9-48.4-2.9-73.1-2.9-57.9 0-114 5.5-167.3 15.7v904.3c53.4 10.3 109.5 15.7 167.3 15.7 218.8 0 412.2-78.2 529.6-198 93.9 48.3 208.8 76.7 332.9 76.7 127.2 0 244.8-29.9 340-80.4 123.3 86.9 291.9 140.4 477.8 140.4 274.2 0 510.7-116.5 619.7-284.6 102.9 43.6 222.7 68.6 350.7 68.6 139.9 0 270.2-29.9 379.2-81.4 100.4 140.9 303.8 237.3 538.4 237.3 123.4 0 238.2-26.7 334-72.5 69.7 162.5 279.6 280.5 527.6 280.5 158.9 0 302.1-48.5 402.9-126v-916h-.3z"/><path class="st2" d="M488.9 3357.8c.2.9.3 1.7.5 2.6.3 1.6.7 3.3 1 4.9.2.8.4 1.6.5 2.5.5 2.4 1.1 4.8 1.7 7.2 2 .8 4 1.6 6.1 2.4.6.2 1.3.5 1.9.7 1.4.5 2.7 1 4.1 1.6.7.3 1.5.6 2.2.8 1.3.5 2.5.9 3.8 1.4.8.3 1.5.6 2.3.8 1.2.4 2.4.9 3.7 1.3.8.3 1.5.5 2.2.8 1.2.4 2.5.9 3.7 1.3.7.3 1.4.5 2.1.8 1.3.4 2.5.9 3.8 1.3.7.2 1.3.5 2 .7 1.4.5 2.7.9 4.1 1.4.6.2 1.1.4 1.7.6 1.6.6 3.3 1.1 4.9 1.6.2.1.5.2.7.2 434 141.4 366.8-302.5 648.2-390.3-321.2-206.2-763.1 12.6-702.3 349.4.3 1.9.7 4 1.1 6z"/><path class="st2" d="M556.8 3315.4c.2.5.4 1.1.6 1.6.4 1 .7 2.1 1.1 3.1.2.5.4 1 .5 1.6.5 1.5 1 3 1.5 4.6-.9 1.1-1.7 2.3-2.6 3.4-.3.4-.5.7-.8 1.1-.6.8-1.2 1.5-1.7 2.3-.3.4-.6.8-1 1.2-.5.7-1.1 1.4-1.6 2.1-.3.4-.7.8-1 1.3-.5.7-1.1 1.3-1.6 2-.3.4-.6.8-1 1.2-.5.7-1.1 1.3-1.6 2l-.9 1.2c-.6.7-1.1 1.4-1.7 2-.3.4-.6.7-.9 1.1-.6.7-1.2 1.4-1.8 2.2-.2.3-.5.6-.7.9-.7.9-1.5 1.7-2.2 2.6-.1.1-.2.2-.3.4-193 228.9-309-41.8-496.3 6.6 107.7-226 429.7-256.8 512.3-48.1.7 1 1.2 2.3 1.7 3.6zm3113.5-66.2c104.8 37.6 237.7 129.4 242.7-35.6 5.2-168 75.5-81.1 189.6-143.4 64.9-35.4 38-56.7 27.1-117.4-7.5-41.9 174.4-72 95.1-217.2-41.9-76.7-122.9-48.1-169.9 7.3-49.6 58.5-45.8 63-121.6 43.6-129.8-33.3-72.3 102.1-160.2 150.2-43.7 23.9-121.9-30.7-144.9 47.8-6.8 23.2 16.9 93.4-7.3 106.6-71.1 38.8-166.2 8.7-92.2 144.4 58.5 106.7 190.6 39.3 141.6 13.7z"/><path class="st2" d="M3585.9 3220.3c-77.5 27.8-175.7 95.7-179.4-26.3-3.8-124.2-55.8-60-140.2-106-48-26.2-28.1-41.9-20-86.8 5.6-31-129-53.2-70.3-160.6 30.9-56.7 90.8-35.6 125.6 5.4 36.7 43.2 33.9 46.6 89.9 32.2 96-24.6 53.4 75.5 118.5 111 32.3 17.6 90.1-22.7 107.1 35.3 5 17.2-12.5 69 5.4 78.8 52.6 28.7 122.9 6.4 68.1 106.7-43.3 79.1-141 29.2-104.7 10.3zm1159.7-117.7c-7 32.5-15.8 63.8-26.6 94.2 28.5-17.9 56.3-26.5 82.2-9.6 30.7 25.3 17.4 58.8-15.8 64.3-29.7-1.5-26.9-47.2-68.2-49.4-11.2 30.8-24.4 60.5-39.6 89.1 28.9-17 56.8-24.7 82.1-7.2 30 26.1 15.8 59.3-17.6 63.8-29.7-2.3-25.5-48.3-67.4-51.3-14.8 27.2-31.4 53.4-49.9 78.4 25.6-10.7 49.7-12.9 70.6 3.7 28.2 28 11.8 60.2-21.8 62.5-28-4.1-22.9-45.3-57.7-54.4-18.2 23.6-38.2 46.3-59.9 67.9 33.8-9.7 64.2-10.6 84.7 13.9 22 33.1-.5 61.3-34 56.8-28.5-10.3-11.1-54.9-53.4-68.1-16.6 16.4-34.2 32.2-52.8 47.5l-31.2-28.5c20.3-15.3 39.6-31.1 57.9-47.6-19.2-28.5-56-12.7-67.8-37.8-7.5-32.9 18.5-57.9 53.5-39 22.4 15.5 27.1 39.8 23.9 68.1 18.6-17.3 36.2-35.2 52.7-53.8-18.5-33.2-57.7-15.2-70-41.3-7.5-32.9 18.5-57.9 53.5-39 23.6 16.3 27.5 42.4 23.4 72.5 21.7-25 41.4-51.2 59.3-78.5-17.9-36.5-58.7-17-71.2-43.7-7.5-32.9 18.5-57.9 53.5-39 24.1 16.6 27.7 43.5 23.1 74.5 16.1-25.3 30.5-51.5 43.4-78.7-17.4-39.1-59.3-18.4-72.1-45.6-7.5-32.9 18.5-57.9 53.5-39 24.3 16.8 27.8 44 22.9 75.3 11.3-24.7 21.3-50.3 30-76.6 4.2-42.9-42.7-45.3-40.6-75.3 9.5-32.4 44.4-41.5 65.8-7.9 13.1 27.2 2 53.2-18.4 78.8zm-3453.9-229.2c7 32.5 15.8 63.8 26.6 94.2-28.5-17.9-56.3-26.5-82.2-9.6-30.7 25.3-17.4 58.8 15.8 64.3 29.7-1.5 26.9-47.2 68.2-49.4 11.2 30.8 24.4 60.5 39.6 89.1-28.9-17-56.8-24.7-82.1-7.2-30 26.1-15.8 59.3 17.6 63.8 29.7-2.3 25.5-48.3 67.4-51.3 14.8 27.2 31.4 53.4 49.9 78.4-25.6-10.7-49.7-12.9-70.6 3.7-28.2 28-11.8 60.2 21.8 62.5 28-4.1 22.9-45.3 57.7-54.4 18.2 23.6 38.2 46.3 59.9 67.9-33.8-9.7-64.2-10.6-84.7 13.9-22 33.1.5 61.3 34 56.8 28.5-10.3 11.1-54.9 53.4-68.1 16.6 16.4 34.2 32.2 52.8 47.5l31.2-28.5c-20.3-15.3-39.6-31.1-57.9-47.6 19.2-28.5 56-12.7 67.8-37.8 7.5-32.9-18.5-57.9-53.5-39-22.4 15.5-27.1 39.8-23.9 68.1-18.6-17.3-36.2-35.2-52.7-53.8 18.5-33.2 57.7-15.2 70-41.3 7.5-32.9-18.5-57.9-53.5-39-23.6 16.3-27.5 42.4-23.4 72.5-21.7-25-41.4-51.2-59.3-78.5 17.9-36.5 58.7-17 71.2-43.7 7.5-32.9-18.5-57.9-53.5-39-24.1 16.6-27.7 43.5-23.1 74.5-16.1-25.3-30.5-51.5-43.4-78.7 17.4-39.1 59.3-18.4 72.1-45.6 7.5-32.9-18.5-57.9-53.5-39-24.3 16.8-27.8 44-22.9 75.3-11.3-24.7-21.3-50.3-30-76.6-4.2-42.9 42.7-45.3 40.6-75.3-9.5-32.4-44.4-41.5-65.8-7.9-13 27.3-2 53.3 18.4 78.8zm3110.2 290.2c-4.3 19.8-9.7 39-16.2 57.5 17.4-11 34.3-16.2 50.1-5.9 18.7 15.4 10.6 35.9-9.7 39.2-18.1-.9-16.4-28.8-41.6-30.1-6.8 18.8-14.9 36.9-24.2 54.4 17.6-10.4 34.7-15.1 50.1-4.4 18.3 15.9 9.6 36.2-10.8 39-18.1-1.4-15.6-29.5-41.1-31.3-9 16.6-19.2 32.6-30.5 47.9 15.6-6.5 30.3-7.9 43.1 2.3 17.2 17.1 7.2 36.7-13.3 38.2-17.1-2.5-14-27.6-35.2-33.2-11.1 14.4-23.3 28.2-36.6 41.5 20.6-5.9 39.2-6.5 51.7 8.5 13.4 20.2-.3 37.4-20.7 34.7-17.4-6.3-6.8-33.5-32.6-41.5-10.1 10-20.9 19.7-32.3 29L4233 3392c12.4-9.3 24.2-19 35.3-29-11.7-17.4-34.2-7.7-41.4-23.1-4.6-20.1 11.3-35.3 32.6-23.8 13.7 9.4 16.5 24.3 14.6 41.6 11.4-10.5 22.1-21.5 32.2-32.8-11.3-20.3-35.2-9.3-42.7-25.2-4.6-20.1 11.3-35.3 32.6-23.8 14.4 9.9 16.8 25.9 14.3 44.3 13.2-15.3 25.3-31.2 36.2-47.9-10.9-22.3-35.8-10.4-43.5-26.7-4.6-20.1 11.3-35.3 32.6-23.8 14.7 10.1 16.9 26.5 14.1 45.5 9.8-15.4 18.6-31.4 26.5-48-10.6-23.8-36.2-11.3-44-27.8-4.6-20.1 11.3-35.3 32.6-23.8 14.8 10.2 16.9 26.8 14 46 6.9-15.1 13-30.7 18.3-46.7 2.6-26.2-26.1-27.7-24.8-46 5.8-19.8 27.1-25.3 40.1-4.8 8.5 15.9 1.7 31.8-10.7 47.4z"/><path class="st2" d="M1698.1 2936.4c-4.3 19.8-9.7 39-16.2 57.5 17.4-11 34.3-16.2 50.1-5.9 18.7 15.4 10.6 35.9-9.7 39.2-18.1-.9-16.4-28.8-41.6-30.1-6.8 18.8-14.9 36.9-24.2 54.4 17.6-10.4 34.7-15.1 50.1-4.4 18.3 15.9 9.6 36.2-10.8 39-18.1-1.4-15.6-29.5-41.1-31.3-9 16.6-19.2 32.6-30.5 47.9 15.6-6.5 30.3-7.9 43.1 2.3 17.2 17.1 7.2 36.7-13.3 38.2-17.1-2.5-14-27.6-35.2-33.2-11.1 14.4-23.3 28.2-36.6 41.5 20.6-5.9 39.2-6.5 51.7 8.5 13.4 20.2-.3 37.4-20.7 34.7-17.4-6.3-6.8-33.5-32.6-41.5-10.1 10-20.9 19.7-32.3 29l-19.1-17.4c12.4-9.3 24.2-19 35.3-29-11.7-17.4-34.2-7.7-41.4-23.1-4.6-20.1 11.3-35.3 32.6-23.8 13.7 9.4 16.5 24.3 14.6 41.6 11.4-10.5 22.1-21.5 32.2-32.8-11.3-20.3-35.2-9.3-42.7-25.2-4.6-20.1 11.3-35.3 32.6-23.8 14.4 9.9 16.8 25.9 14.3 44.3 13.2-15.3 25.3-31.2 36.2-47.9-10.9-22.3-35.8-10.4-43.5-26.7-4.6-20.1 11.3-35.3 32.6-23.8 14.7 10.1 16.9 26.5 14.1 45.5 9.8-15.4 18.6-31.4 26.5-48-10.6-23.8-36.2-11.3-44-27.8-4.6-20.1 11.3-35.3 32.6-23.8 14.8 10.2 16.9 26.8 14 46 6.9-15.1 13-30.7 18.3-46.7 2.6-26.2-26.1-27.7-24.8-46 5.8-19.8 27.1-25.3 40.1-4.8 8.5 16 1.8 31.8-10.7 47.4z"/><path d="M5000 4007.9c-648.4-227.6-1529.4-367.5-2500-367.5S648.4 3780.3 0 4007.9V5000h5000v-992.1z" fill="#0dac63"/></svg>