<svg version="1.1" id="Layer_1" xmlns="http://www.w3.org/2000/svg" x="0" y="0" viewBox="0 0 5000 5000" xml:space="preserve"><style>.st2{fill:#105738}</style><path d="M5000 882.3c-714.2-323.4-1582.2 241.2-1564.3 1031.1-18 789.7 850.2 1354.8 1564.3 1031.1V882.3zM860.3 1309.1c141.2 66.2 37.2 152 83.2 160.8 18.5 0 21.6-49.4 60.1-54.6 34.7-4.6 46.2 28.3 74.2 36.4-22.8 4.6-41.3 22-41.3 22 11.1 97-24.5 223.6-180.8 228.8-41.9 4.8-131-18.7-147.9-10.4-16.9 8.3-34.7 40.6-63 67.4-21.6 20.5-45.3-8.4-17.6-43.9-26.2 15.3-63.9 6.8-41.4-33.9-37.3 13.9-51.1-22.5-20.8-47.7-49.6-8-63.3-51.6-41.8-47.5 91.1 14.5 177.8 19 239.5-35.9-38.8 16.1-85.5-11.7-84.7-70.1-39.6 9.9-83.5-25.9-66.1-80.2-56.6 3.5-95.9-46.2-77.4-87.8-60.1-10.4-72-149.2-17.3-121.3 115.5 59 300.8 99.2 343.1 117.9z" fill="#ffe699"/><path d="M5000 2593.9c-258.5-55-692.5-175.9-1019-412.9 0 0-336-256-784-416-500-159.4-828.4 13.7-1797.8 448.1 0-.1-739.4 279-1399.2 351V4262c525.9 80 2334.5 325.1 4818.5 335.1 0 0 79.4-58.3 181.5-166.8V2593.9z" fill="#187b4c"/><path class="st2" d="M5000 3482.9c-123.6-72.6-315.7-97.9-466.5-62.8-71.5-112.2-285.7-164.7-430.7-116.5-167.8-221.1-660.3-238.5-857.7-38.1-224.8-135.9-605.9-140.1-836-9.9-100.6-103.6-332.1-125.9-464.9-51.6-171.3-146-533.5-149.6-710.3-8.4-173.8-80-464.8-21.3-550.1 128.9-154.1-95.1-470.3-4.6-443.2 181-79.2-6.5-164.7-1.9-240.4 12.8 20.1 619.6-204.3 1299.7 696.9 722 186 102.4 488.6 100.7 672.9-3.7 288.5 229.7 921.5 163.5 1097.5-144.2 211.1 94.9 524.8 89.8 729.9-12.8 147.2 231.1 611.2 305.5 872.4 164.8 107.4 294.7 688.8 367.9 930.5 154.5-.3 0 .6-916.6-.3-916z"/><path class="st2" d="M488.9 3357.8c410.9 256.5 437-266.6 701.2-355.4-323.3-207.7-768.4 15.7-701.2 355.4z"/><path class="st2" d="M556.8 3315.4c-140.9 285.2-335.7 2.6-514 44.5 108.7-227.7 433.2-256.6 514-44.5zm3113.5-66.2c104.8 37.6 237.7 129.4 242.7-35.6-29.8-205.4 296-42.8 216.7-260.8 215.9-150.1 74.9-360.7-74.8-209.9-49.6 58.5-45.8 63-121.6 43.6-129.8-33.3-72.3 102.1-160.2 150.2-43.7 23.9-121.9-30.7-144.9 47.8 53.3 207.6-203.8 52.2-99.5 251 58.5 106.7 190.6 39.3 141.6 13.7z"/><path class="st2" d="M3585.9 3220.3c-77.5 27.8-175.7 95.7-179.4-26.3 22.2-151.9-218.9-31.6-160.2-192.8-156.3-106.8-60.2-268.1 55.3-155.2 36.7 43.2 33.9 46.6 89.9 32.2 96-24.6 53.4 75.5 118.5 111 32.3 17.6 90.1-22.7 107.1 35.3-39.4 153.5 150.8 38.6 73.5 185.5-43.3 79.1-141 29.2-104.7 10.3zm1159.7-117.7c-7 32.5-15.8 63.8-26.6 94.2 73.7-56.4 143.5 32.6 66.4 54.7-91.8-76.8-52.6-58.7-107.8 39.7 75.2-54.1 142.1 36.9 64.5 56.6-85.6-73.1-48.5-66.5-117.3 27.1 68.1-36.6 125.8 51.9 48.8 66.2-79.8-75.3-33.7-67.8-117.6 13.5 90.6-35.1 131.3 72.3 50.7 70.7-28.5-10.3-11.1-54.9-53.4-68.1-16.6 16.4-34.2 32.2-52.8 47.5l-31.2-28.5c20.3-15.3 39.6-31.1 57.9-47.6-19.2-28.5-56-12.7-67.8-37.8-8.6-78.4 93.8-48 77.4 29.1 89.3-82 43-50.3-17.3-95.1-8.6-79.1 96.2-48.2 76.9 33.5 74.2-99.6 83.8-68.4-11.9-122.2-8.6-79.4 97.4-48.3 76.6 35.5 61.2-104.1 56.5-74.4-28.7-124.3-8.6-79.7 98-48 76.4 36.3 46.9-104.4 34.2-73.7-10.6-151.9 30.9-73.5 110.3 5.2 47.4 70.9zm-3453.9-229.2c7 32.5 15.8 63.8 26.6 94.2-73.7-56.4-143.5 32.6-66.4 54.7 91.8-76.8 52.6-58.7 107.8 39.7-75.2-54.1-142.1 36.9-64.5 56.6 85.6-73.1 48.5-66.5 117.3 27.1-68.1-36.6-125.8 51.9-48.8 66.2 79.8-75.3 33.7-67.8 117.6 13.5-90.6-35.1-131.3 72.3-50.7 70.7 28.5-10.3 11.1-54.9 53.4-68.1 16.6 16.4 34.2 32.2 52.8 47.5l31.2-28.5c-20.3-15.3-39.6-31.1-57.9-47.6 19.2-28.5 56-12.7 67.8-37.8 8.6-78.4-93.8-48-77.4 29.1-89.3-82-43-50.3 17.3-95.1 8.6-79.1-96.2-48.2-76.9 33.5-74.2-99.6-83.8-68.4 11.9-122.2 8.6-79.4-97.4-48.3-76.6 35.5-61.2-104.1-56.5-74.4 28.7-124.3 8.6-79.7-98-48-76.4 36.3-46.9-104.4-34.2-73.7 10.6-151.9-31.4-73.9-110 5.9-47.4 70.9zm3110.2 290.2c-4.3 19.8-9.7 39-16.2 57.5 44.9-34.6 87.5 19.9 40.4 33.3-56.1-46.9-32.1-35.6-65.8 24.3 45.8-33.1 86.7 22.4 39.3 34.6-52.2-44.7-29.6-40.5-71.6 16.6 41.2-22.2 77 31.4 29.8 40.5-48.1-45.9-21.5-40.7-71.8 8.3 55.3-21.4 80.1 44.1 31 43.2-17.4-6.3-6.8-33.5-32.6-41.5-22.1 17.4-27.2 41.6-51.4 11.6 12.4-9.3 24.2-19 35.3-29-11.7-17.4-34.2-7.7-41.4-23.1-5.3-47.8 57.2-29.4 47.2 17.8 11.4-10.5 22.1-21.5 32.2-32.8-11.3-20.3-35.2-9.3-42.7-25.2-5.3-48.2 58.7-29.4 46.9 20.5 43.6-58.3 51.8-42.6-7.3-74.6-5.3-48.4 59.4-29.5 46.7 21.7 36.9-62.1 34.5-46.1-17.5-75.8-5.4-48.3 59.6-29.7 46.6 22.2 28.2-61.3 20.7-46.4-6.5-92.7 18.6-44.8 67.4 3.3 29.4 42.6z"/><path class="st2" d="M1698.1 2936.4c-4.3 19.8-9.7 39-16.2 57.5 44.9-34.6 87.5 19.9 40.4 33.3-56.1-46.9-32.1-35.6-65.8 24.3 45.8-33.1 86.7 22.4 39.3 34.6-52.2-44.7-29.6-40.5-71.6 16.6 41.2-22.2 77 31.4 29.8 40.5-48.1-45.9-21.5-40.7-71.8 8.3 55.3-21.4 80.1 44.1 31 43.2-17.4-6.3-6.8-33.5-32.6-41.5-22.1 17.4-27.2 41.6-51.4 11.6 12.4-9.3 24.2-19 35.3-29-11.7-17.4-34.2-7.7-41.4-23.1-5.3-47.8 57.2-29.4 47.2 17.8 11.4-10.5 22.1-21.5 32.2-32.8-11.3-20.3-35.2-9.3-42.7-25.2-5.3-48.2 58.7-29.4 46.9 20.5 43.6-58.3 51.8-42.6-7.3-74.6-5.3-48.4 59.4-29.5 46.7 21.7 36.9-62.1 34.5-46.1-17.5-75.8-5.4-48.3 59.6-29.7 46.6 22.2 28.2-61.3 20.7-46.4-6.5-92.7 18.9-45 67.4 3.7 29.4 42.6z"/><path d="M5000 4007.9c-1254.7-482-3745.3-482-5000 0V5000h5000v-992.1z" fill="#0dac63"/></svg>