<svg xmlns="http://www.w3.org/2000/svg" viewBox="0 0 1456.4 1318.27"><title>treeAsset 1</title><path d="M690,142.12S770,335.93,857,358.89l16.62,63.93S712.78,367.37,690,142.12Z"/><path d="M674.55,713s79.94,193.81,167,216.76l16.62,63.93S697.32,938.2,674.55,713Z"/><path d="M1065.22,490.42s-79.94,193.8-167,216.78l-16.63,63.92S1042.45,715.68,1065.22,490.42Z"/><polygon points="847.9 175.29 819.19 1286.18 932.07 1282.68 883.55 174.15 847.9 175.29"/><path d="M1060.59,107.4a107.42,107.42,0,0,1-107.4,107.39H645.52A107.42,107.42,0,0,1,538.12,107.4h0A107.4,107.4,0,0,1,645.52,0H953.19a107.4,107.4,0,0,1,107.4,107.4Z"/><path d="M1325.14,457.63a90,90,0,0,1-90,90H977.37a90,90,0,0,1-90-90h0a90,90,0,0,1,90-90h257.79a90,90,0,0,1,90,90Z"/><path d="M900.94,702.73a88.69,88.69,0,0,1-88.7,88.68H558.13a88.69,88.69,0,0,1-88.7-88.68h0A88.72,88.72,0,0,1,558.13,614H812.24a88.72,88.72,0,0,1,88.7,88.71Z"/><path d="M167.37,1105.16s52.65,129.15,50.79,146.12l53.5-15.56s-82.92-112.64-94.38-136.41Z"/><path d="M341.3,1113.32s-52.66,129.13-50.79,146.12L237,1243.88s82.92-112.66,94.39-136.43Z"/><path d="M238.28,1016.42s-8.22,211.93-19.73,235.17l71.91,5.69s-36.63-204.13-37.21-244Z"/><path d="M522.47,1014c0,66.66-48.1,120.75-107.4,120.75H107.4C48.1,1134.7,0,1080.61,0,1014H0c0-66.71,48.1-120.78,107.4-120.78H415.07c59.3,0,107.4,54.07,107.4,120.78Z"/><path d="M1122,1119.22s44,107.93,42.44,122.11l44.71-13s-69.28-94.12-78.87-114Z"/><path d="M1267.36,1126.05s-44,107.9-42.45,122.1l-44.7-13s69.29-94.14,78.87-114Z"/><path d="M1181.28,1045.08s-6.87,177.1-16.49,196.52l60.09,4.75s-30.61-170.58-31.1-203.92Z"/><path d="M1418.74,1043c0,55.7-40.19,100.9-89.74,100.9H1071.91c-49.55,0-89.74-45.2-89.74-100.9h0c0-55.74,40.19-100.93,89.74-100.93H1329c49.55,0,89.74,45.19,89.74,100.93Z"/><path d="M695.85,1122.91s124.28,50.31,134.65,167.19h23.68S842.32,1154,695.85,1122.91Z"/><path d="M1005.41,1122.17s-124.27,50.31-134.63,167.19H847.11S858.94,1153.24,1005.41,1122.17Z"/><path d="M1456.4,1278.7c0,21.86-15.45,39.57-34.5,39.57H156.37c-19,0-34.51-17.71-34.51-39.57h0c0-21.86,15.48-39.59,34.51-39.59H1421.9c19,0,34.5,17.73,34.5,39.59Z"/></svg>