<svg xmlns="http://www.w3.org/2000/svg" viewBox="0 0 94.75 130.09"><path d="M51.93 0A7.8 7.8 0 0 1 57 1.56a28 28 0 0 1 6.69 6.34 46.83 46.83 0 0 1 5.18 7.61 2.33 2.33 0 0 0 2.82 1.36c1.6-.29 3.22-.45 4.82-.74a43.4 43.4 0 0 1 9.46-.4 10.63 10.63 0 0 1 4.16 1.14 7.87 7.87 0 0 1 4.4 9 20.5 20.5 0 0 1-2.9 7 61.34 61.34 0 0 1-5.69 7.25 3.56 3.56 0 0 0-1.1 1.55c1.18 2 2.4 4 3.57 6a57.82 57.82 0 0 1 3.74 7.82 23.9 23.9 0 0 1 1.45 6 8 8 0 0 1-1.39 5.9c-2.76 1.4-5.69.78-8.52.54A33.53 33.53 0 0 1 71 64.18c-5.33-2.74-8.15-2-11.6 2.84-1.95 2.74-3.85 5.51-6.53 7.59-3.1 2.39-5.1 2-7.1-1.33-2.28-3.81-2.3-8.13-2.71-12.35-.15-1.53 0-3.08 0-4.62-.09-4.86-1.93-7.5-6.48-9.29A48.14 48.14 0 0 1 31 44.9c-3.37-1.83-3.61-3.53-1-6.32a29.77 29.77 0 0 1 8.38-5.94c5-2.61 7.32-6.56 7.52-12.22.22-7.23 2.91-13.89 6.03-20.42Z" fill="#41e799"/><path d="M51.93 0a5.63 5.63 0 0 1-.6 2.88 68.12 68.12 0 0 0-4 11.78 24 24 0 0 0-.85 6.42 12.61 12.61 0 0 1-3.08 8.74 14.12 14.12 0 0 1-4.08 3.08c-1.58.88-3.16 1.76-4.72 2.67a26 26 0 0 0-5.45 4.86c-.8.85-.72 1.44.11 2.36a9.17 9.17 0 0 0 3.94 2.29 58.49 58.49 0 0 1 5.58 2.09c3.32 1.6 4.61 4.44 5 7.83a46.92 46.92 0 0 1 0 4.89A52.57 52.57 0 0 0 44.85 69a12.37 12.37 0 0 0 2.32 5.14c1.15 1.57 2.3 1.79 4 .83A20.12 20.12 0 0 0 56 70.6a25.9 25.9 0 0 0 2.68-3.73 18.62 18.62 0 0 1 3.21-3.66 4.69 4.69 0 0 1 3.11-1.3 10 10 0 0 1 5.73 1.24 28.81 28.81 0 0 0 8 3.17 35 35 0 0 0 8.83 1.06c1.54-.06 3.08 0 4.62 0-1.37 3-4.1 3.9-7 4.27a16.94 16.94 0 0 1-6.71-.76 61.61 61.61 0 0 1-10.3-4.15c-.57-.28-1.12-.58-1.69-.86a.87.87 0 0 0-1.18.32c-.5.75-1 1.53-1.44 2.3a42 42 0 0 1-6.5 8.33 13.48 13.48 0 0 1-6.52 3.69A7.74 7.74 0 0 1 44 78.79a11.89 11.89 0 0 1-3.48-5.1 35 35 0 0 1-2.14-10.6c-.13-2.35-.11-4.71-.14-7.06 0-1.69-.05-1.73-1.73-2.18-1.4-.37-2.81-.69-4.18-1.15a27.32 27.32 0 0 1-7.49-3.7 12 12 0 0 1-3.47-3.77 7.25 7.25 0 0 1-.07-7.49 11.24 11.24 0 0 1 2.57-3.13A28.75 28.75 0 0 1 29 31.06c2.78-1.52 5.56-3 8.4-4.45a3.25 3.25 0 0 0 2-2.92 67.07 67.07 0 0 1 2.29-12 26.74 26.74 0 0 1 2.6-6.54A11.52 11.52 0 0 1 48.55.74a4.22 4.22 0 0 1 1-.27 5.74 5.74 0 0 0 1.26-.39Z" fill="#16c172"/><path d="M77.63 28.29c-.81 0-1.62-.05-2.43 0a6.23 6.23 0 0 1-3.8-1.2 3 3 0 0 1-1.08-4A4.59 4.59 0 0 1 72.37 21 17.15 17.15 0 0 1 78 19.18a28.27 28.27 0 0 1 7-.07 4.1 4.1 0 0 1 1.79.57c2.66 1.65 3.62 3.85.9 6.27a6.76 6.76 0 0 1-2.37 1.25 19.72 19.72 0 0 1-7.69 1.09ZM62.82 15.93A3.65 3.65 0 0 1 61 19.12a3.06 3.06 0 0 1-3.31-.19c-2.49-1.47-5.27-7.1-4.65-10.4a2.87 2.87 0 0 1 3.41-2.19 4.24 4.24 0 0 1 1.48.6c2.92 2.33 4.14 5.57 4.89 8.99Z" fill="#b7fbdb"/><path d="M19.54 125.57c-1.35-1-1.79-2.77-3-4-1.3.59-2.57 1.16-3.85 1.72A20.44 20.44 0 0 1 8 124.8a10.34 10.34 0 0 1-2.4.2 5.11 5.11 0 0 1-5-5.24 4.39 4.39 0 0 1 .09-.76 17.21 17.21 0 0 1 .85-3.3 25.14 25.14 0 0 1 2.37-5l1.79-3c-.66-.81-1.32-1.63-2-2.42a17.66 17.66 0 0 1-3-4.64 8.11 8.11 0 0 1-.64-2.26 4.46 4.46 0 0 1 3-5 12.33 12.33 0 0 1 6-.42c1.39.16 2.77.38 4.15.65a1.26 1.26 0 0 0 1.49-.74 28.5 28.5 0 0 1 5.13-6.64 8.8 8.8 0 0 1 3.3-2.09 2.61 2.61 0 0 1 2.73.2 1.68 1.68 0 0 0-.48 2.31 31.46 31.46 0 0 1 2.28 9.41c.42 3.15 1.83 5.62 4.89 7a10.22 10.22 0 0 1 3.9 2.62c1.24 1.48 1 2.72-.77 3.58-1.1.54-2.32.79-3.45 1.28-3 1.3-4.77 3.45-4.64 6.9a41.7 41.7 0 0 1 0 5c-.35 4.28-2.52 5.57-6.39 3.85-.51-.23-1-.71-1.66-.72Z" fill="#ffcb47"/><path d="M19.54 125.57a.8.8 0 0 1 1.09-.3c1 .41 1.94.83 2.94 1.14a2 2 0 0 0 2.59-1.12A7.56 7.56 0 0 0 27 122c-.06-1.84 0-3.68 0-5.53a6 6 0 0 1 2.84-5.29 11.59 11.59 0 0 1 3.26-1.63c.76-.2 1.49-.51 2.23-.78 1.78-.63 2-1.8.51-3a14.7 14.7 0 0 0-3.37-2c-3.77-1.49-5.08-4.51-5.5-8.23a25.83 25.83 0 0 0-2-8.35 7.46 7.46 0 0 1-.77-2.48c.54-.52 1.19-.25 1.78-.34 1.56.28 2.3 1.51 3 2.72a23 23 0 0 1 2.24 7 9.69 9.69 0 0 1 .38 2.33c-.13 2 1 2.75 2.58 3.47s2.93 1.57 4.36 2.41a10.94 10.94 0 0 1 2.83 2.33c1.75 2.07 1.56 4.22-.07 6.19a9.06 9.06 0 0 1-2.7 2.06 18.24 18.24 0 0 1-4.15 1.62c-2.42.64-2.07.53-2.1 2.83a27 27 0 0 1-.62 6.53 13.25 13.25 0 0 1-1.42 3.66 4.72 4.72 0 0 1-6.34 2.1l-.43-.25a10.07 10.07 0 0 1-4-3.8Z" fill="#ffb620"/><path d="M12.56 100.73A10.5 10.5 0 0 1 6.63 99a2.62 2.62 0 0 1-.81-1 1 1 0 0 1 .24-1.39 3.6 3.6 0 0 1 2.61-1.07 13.46 13.46 0 0 1 5.57 1.27 4.6 4.6 0 0 1 .87.59 1.66 1.66 0 0 1-.51 2.94 3.28 3.28 0 0 1-2.04.39Zm10.21-11.29a5.84 5.84 0 0 1-2.58 4.63 1.13 1.13 0 0 1-1.23.17 1.23 1.23 0 0 1-.66-1.31 9 9 0 0 1 2-4.19 1.59 1.59 0 0 1 .39-.34 1.54 1.54 0 0 1 1.48-.2c.59.23.52.8.6 1.24Z" fill="#fff1c6"/></svg>