<svg xmlns="http://www.w3.org/2000/svg" viewBox="0 0 94.8 130.1" xml:space="preserve"><path d="M51.9 0c8.1.6 13 9.3 16.9 15.5 2 3.4 12.6-1.2 17.1.2 16.4 2.4 5.6 18.9-1.1 25.9C97.9 61.3 98.5 76.1 71 64.2c-5.3-2.7-8.1-2-11.6 2.8-2.9 4-9.4 13.8-13.6 6.3C39.4 61 49.5 49 31 44.9c-7.7-4 3.5-10.2 7.4-12.3 5-2.6 7.3-6.6 7.5-12.2.2-7.2 2.9-13.9 6-20.4z" fill="#41e799"/><path d="M51.9 0c-.7 5-3.8 9.6-4.6 14.7-1 10.8-1.8 16.3-12.7 20.9-1.8 1.8-7.4 4.4-5.3 7.2 19.2 8.5 12.6 7.7 15.6 26.2 5.1 17.7 12.7-6 20.2-7.1 5-.4 8.9 3.7 13.7 4.4 4.4 1.2 8.9 1 13.4 1.1-5.9 9.1-18.3 1.9-25.7-1.5-1.4-.5-1.9 1.8-2.6 2.6C49.7 92 36.4 77.8 38.2 56c0-1.7-.1-1.7-1.7-2.2-24-5.8-18.7-19.6.9-27.2 1.2-.5 2-1.6 2-2.9C40.9 15.4 41.5 1.3 51.9 0z" fill="#16c172"/><path d="M77.6 28.3c-4.9 1.1-11.3-3.4-5.3-7.3 4.3-3.2 21.8-3.6 15.3 5-2.8 2-6.5 2.4-10 2.3zM62.8 15.9c-2.3 9.4-11.2-2-9.8-7.4 3.7-6.7 9.6 3.4 9.8 7.4z" fill="#b7fbdb"/><path d="M19.5 125.6c-1.4-1-1.8-2.8-3-4-15.9 8.7-20.2-.7-10.8-13.9-6.5-6-9.1-16.5 3.4-14.7 1.8-.2 4.5 1.7 5.6-.1 2.4-3.5 6.2-10.4 11.2-8.5-1.9 2.2 2.4 8.3 1.8 11.7-1 6.7 14.2 8.9 8 13.2-15.8 2.4-.7 22.9-16.2 16.3z" fill="#ffcb47"/><path d="M19.5 125.6c1.1-1.1 2.8.7 4 .8 8.3-.6-3.2-14.8 11.8-17.6 6.2-3.2-9.3-4.8-8.4-13.2 0-3.8-1.8-7.2-2.8-10.8 5.7-1.7 6.6 7.8 7.4 11.7.3 5.7 15.7 6.1 9.7 14.4-1.8 2-4.3 3-6.8 3.7-2.4.6-2.1.5-2.1 2.8.9 9-5.3 18.7-12.8 8.2z" fill="#ffb620"/><path d="M12.6 100.7c-2.1 0-8.1-1.1-6.5-4.1 3.1-3.8 15.5 2.9 6.5 4.1zm10.2-11.3c-.1 1.9-1.6 5.1-3.8 4.8-2.5-1.4 2.9-9.3 3.8-4.8z" fill="#fff1c6"/></svg>