<svg xmlns="http://www.w3.org/2000/svg" viewBox="0 0 915.8 69.1" xml:space="preserve"><path d="M902 22.3c9.5-6 19 9 10.6 14.9-13.9 9.9-42.6 18-59 14-19.8-4.7-23.1-15.5-44.8-19.8-13-2.5-25.2 7.2-37.5 10.9-30.4 11.5-38 3.3-66.4-11.6-24.2-12.8-34.7 7.8-58.7 14.9-27.5 8.2-38-8.6-67.7-15-18.6-4.1-30.3 20.5-47.4 23.5-28.5 5.1-39.1-18-62.7-19.8-14.7-.8-37.2 22-61.9 21.7-38.8-.4-46.2-35.8-83.4-10.5-26.3 17.9-51.8 1.2-72.8-9.8C212.8 16 194 72.2 149.1 52.5 131 46.7 121 30.3 101.2 33.3c-10.4 1.6-22.8 11.3-32.4 15.5-17.7 7.7-42.7 8.1-66-11.5-7.8-6.6 1.5-23.1 12.4-14.9 42.3 32 64.9-19.7 102.8-5.2 20.4 7 33.7 24.7 57.6 19.4 11.5-3.3 25.8-14 35.8-20.1 25.4-15.7 52.9 12.2 77.3 17.6 22.6 5 24.5-9.5 50.6-16.1 26.8-6.9 45.3 21.6 69.7 19.8 13.3-1.7 22.4-9.3 33.9-15 37.7-18.5 49.5 5.5 73.1 12.3 17.8 5.2 31.5-21.6 54.2-22.7 29.7-1.3 54.3 30.2 84.1 9.6 19.2-13.4 32-19.1 55.6-8.3 14 7 28.1 18.2 44.8 16.5 26.8-2.7 40.2-28.2 73.4-10.1 8 4.4 23.9 15 36.7 14.1 12.9-.7 24.2-3.6 37.2-11.9z"/><g fill="#16C172" class="tdots"><path d="M43.6 23.7c-4.1-1.1-6.6-5.4-5.5-9.5 1.1-4.1 5.4-6.6 9.5-5.5 4.1 1.1 6.6 5.4 5.5 9.5-1.1 4.1-5.4 6.6-9.5 5.5zm119-.2c-4.1-1.1-6.6-5.4-5.5-9.5 1.1-4.1 5.4-6.6 9.5-5.5 4.1 1.1 6.6 5.4 5.5 9.5-1.1 4-5.4 6.5-9.5 5.5z"/><circle transform="rotate(-82.82 296.652 11.17)" cx="296.7" cy="11.2" r="7.8"/><path d="M408.5 24.6c-4.1-1.1-6.6-5.4-5.5-9.5 1.1-4.1 5.4-6.6 9.5-5.5 4.1 1.1 6.6 5.4 5.5 9.5-1 4.1-5.3 6.6-9.5 5.5zm112.1-5.7c-4.1-1.1-6.6-5.4-5.5-9.5 1.1-4.1 5.4-6.6 9.5-5.5 4.1 1.1 6.6 5.4 5.5 9.5-1.1 4.1-5.4 6.6-9.5 5.5z"/><ellipse transform="rotate(-75.209 630.38 10.229)" cx="630.4" cy="10.2" rx="7.8" ry="7.3"/><path d="M749.4 18.1c-4.1-1.1-6.6-5.4-5.5-9.5 1.1-4.1 5.4-6.6 9.5-5.5 4.1 1.1 6.6 5.4 5.5 9.5-1.1 4.1-5.4 6.6-9.5 5.5zm111.7 2.7c-4.1-1.1-6.6-5.4-5.5-9.5 1.1-4.1 5.4-6.6 9.5-5.5 4.1 1.1 6.6 5.4 5.5 9.5-1.1 4-5.4 6.6-9.5 5.5z"/></g><g fill="#16C172" class="bdots"><path d="M7.2 68.8c-4.1-1.1-6.6-5.4-5.5-9.5 1.1-4.1 5.4-6.6 9.5-5.5 4.1 1.1 6.6 5.4 5.5 9.5-1.1 4.1-5.4 6.6-9.5 5.5zm95.4-10.1c-4.1-1.1-6.6-5.4-5.5-9.5 1.1-4.1 5.4-6.6 9.5-5.5 4.1 1.1 6.6 5.4 5.5 9.5-1.1 4.1-5.4 6.6-9.5 5.5zm131-1.2c-4.1-1.1-6.6-5.4-5.5-9.5 1.1-4.1 5.4-6.6 9.5-5.5 4.1 1.1 6.6 5.4 5.5 9.5-1.1 4-5.4 6.5-9.5 5.5z"/><circle transform="rotate(-82.82 349.649 53.168)" cx="349.7" cy="53.2" r="7.8"/><path d="M465.5 57.6c-4.1-1.1-6.6-5.4-5.5-9.5 1.1-4.1 5.4-6.6 9.5-5.5 4.1 1.1 6.6 5.4 5.5 9.5-1 4.1-5.3 6.6-9.5 5.5zm105.1-2.7c-4.1-1.1-6.6-5.4-5.5-9.5 1.1-4.1 5.4-6.6 9.5-5.5 4.1 1.1 6.6 5.4 5.5 9.5-1.1 4.1-5.4 6.6-9.5 5.5z"/><circle transform="matrix(.06873 -.9976 .9976 .06873 595.635 728.272)" cx="687.9" cy="45.1" r="7.8"/><path d="M800.4 56.1c-4.1-1.1-6.6-5.4-5.5-9.5 1.1-4.1 5.4-6.6 9.5-5.5 4.1 1.1 6.6 5.4 5.5 9.5-1.1 4.1-5.4 6.6-9.5 5.5zm101.7 9.7c-4.1-1.1-6.6-5.4-5.5-9.5 1.1-4.1 5.4-6.6 9.5-5.5 4.1 1.1 6.6 5.4 5.5 9.5-1.1 4-5.4 6.6-9.5 5.5z"/></g></svg>