<svg xmlns="http://www.w3.org/2000/svg" viewBox="0 0 915.8 69.1" xml:space="preserve"><path d="M902 22.3c9.5-6 19 9 10.6 14.9-13.9 9.9-42.6 18-59 14-19.8-4.7-23.1-15.5-44.8-19.8-13-2.5-25.2 7.2-37.5 10.9-30.4 11.5-38 3.3-66.4-11.6-24.2-12.8-34.7 7.8-58.7 14.9-27.5 8.2-38-8.6-67.7-15-18.6-4.1-30.3 20.5-47.4 23.5-28.5 5.1-39.1-18-62.7-19.8-14.7-.8-37.2 22-61.9 21.7-38.8-.4-46.2-35.8-83.4-10.5-26.3 17.9-51.8 1.2-72.8-9.8C212.8 16 194 72.2 149.1 52.5c-40.6-20-36.5-29.8-80.3-3.7-17.7 7.7-42.7 8.1-66-11.5-7.8-6.6 1.5-23.1 12.4-14.9 42.3 32 64.9-19.7 102.8-5.2 20.4 7 33.7 24.7 57.6 19.4 11.5-3.3 25.8-14 35.8-20.1 25.4-15.7 52.9 12.2 77.3 17.6 22.6 5 24.5-9.5 50.6-16.1 26.8-6.9 45.3 21.6 69.7 19.8 13.3-1.7 22.4-9.3 33.9-15 37.7-18.5 49.5 5.5 73.1 12.3 17.8 5.2 31.5-21.6 54.2-22.7 29.7-1.3 54.3 30.2 84.1 9.6 44.4-35.4 59.1 7.2 100.4 8.2 26.8-2.7 40.2-28.2 73.4-10.1C851 36 875.3 39.8 902 22.3z"/><path d="M43.6 23.7c-9.7-2.5-5.7-17.7 4-15 9.7 2.5 5.7 17.7-4 15zm119-.2c-9.7-2.5-5.7-17.7 4-15 9.7 2.5 5.7 17.5-4 15zm126.3-13.3c1.1-10.1 16.9-8.1 15.5 2-1.1 10-16.9 8-15.5-2zm119.6 14.4c-9.7-2.5-5.7-17.7 4-15 9.7 2.5 5.8 17.7-4 15zm112.1-5.7c-9.7-2.5-5.7-17.7 4-15 9.7 2.5 5.7 17.7-4 15zM623.3 8.3c2.5-9.8 16.8-6 14.1 3.7-2.4 9.9-16.8 6.1-14.1-3.7zm126.1 9.8c-9.7-2.5-5.7-17.7 4-15 9.7 2.5 5.7 17.7-4 15zm111.7 2.7c-9.7-2.5-5.7-17.7 4-15 9.7 2.5 5.7 17.6-4 15zM7.2 68.8c-9.7-2.5-5.7-17.7 4-15 9.7 2.5 5.7 17.7-4 15zm95.4-10.1c-9.7-2.5-5.7-17.7 4-15 9.7 2.5 5.7 17.7-4 15zm131-1.2c-9.7-2.5-5.7-17.7 4-15 9.7 2.5 5.7 17.5-4 15zm108.3-5.4c1.1-10.1 16.9-8.1 15.5 2-1.1 10.1-16.9 8.1-15.5-2zm123.6 5.5c-9.7-2.5-5.7-17.7 4-15 9.7 2.5 5.8 17.7-4 15zm105.1-2.7c-9.7-2.5-5.7-17.7 4-15 9.7 2.5 5.7 17.7-4 15zm109.5-10.3c.5-10.1 16.4-9 15.6 1.1-.6 10.1-16.4 9-15.6-1.1zm120.3 11.5c-9.7-2.5-5.7-17.7 4-15 9.7 2.5 5.7 17.7-4 15zm101.7 9.7c-9.7-2.5-5.7-17.7 4-15 9.7 2.5 5.7 17.6-4 15z" fill="#16c172"/></svg>