<svg xmlns="http://www.w3.org/2000/svg" viewBox="0 0 450 180"><path d="M450 77.84c-22.27 21.46-46.12 35.67-71.14 42.33 24.99 25.81 20.65 59.84 20.65 59.84-26.05-23.94-29.88-45.99-29.61-57.78-24.04 4.66-48.57 2.24-71.32-7.53 22.17 25.42 18.13 57.11 18.13 57.11-30.03-27.6-30.53-52.66-29.26-62.44-.25-.14-.48-.26-.73-.41 3.43 33.17-18.24 56.97-18.24 56.97-7.26-32.87 1.37-52.86 8.34-62.85-5.24-3.4-10.4-7.16-15.47-11.33-17.61 13.79-36.06 23.31-55.21 28.41 24.99 25.81 20.65 59.84 20.65 59.84-26.08-23.94-29.88-45.99-29.61-57.78-24.03 4.65-48.58 2.24-71.32-7.53 22.17 25.42 18.13 57.11 18.13 57.11-30.03-27.6-30.53-52.66-29.26-62.44-.25-.14-.5-.26-.73-.41 3.41 33.17-18.24 56.97-18.24 56.97-7.26-32.87 1.37-52.86 8.34-62.85-21.65-13.99-42.09-34.76-61.01-62.01C31.67 73.93 0 86.34 0 86.34c8.88-34.13 26.95-48.02 37.6-53.43C30.96 22.76 24.52 11.78 18.32 0h18.86c42.09 86.44 131.79 145.31 211.85 80.73-11.5-11.15-22.6-24.37-33.21-39.66-11.44 32.87-43.11 45.27-43.11 45.27 8.88-34.13 26.95-48.02 37.62-53.43-6.63-10.15-13.1-21.13-19.34-32.91h18.94c14.41 26.24 31.59 51.03 51.61 70.25 21.04-19.2 39.03-44.01 54.13-70.25h19.13c-2.5 4.56-5.03 8.97-7.61 13.28 29.74 26.16 24.93 63.93 24.93 63.93-24.97-22.96-29.53-44.16-29.63-56.28-15.16 24.18-31.44 44.28-48.62 60.12 54.68 47.62 132.49 27.19 176.12-26.77v23.55Z" fill="#6c6"/></svg>