<svg xmlns="http://www.w3.org/2000/svg" viewBox="0 0 268.05 477.17"><path d="M255.46 118.48c-.85-37.01-16.08-105.4-55.06-71.04 0 0-4.74-40.26-29.6-46.18-30.73-7.32-40.11 19.54-40.11 19.54S121.31-6.05 90.58 1.26c-24.86 5.92-29.6 46.18-29.6 46.18C-31.03-39.21 12.11 472.67 0 477.17h268.05s-10.98-331.34-12.6-358.69Z"/><path d="M135.09 101.25c-39.54 0-75.95 30.17-55.14 50.98 20.81 20.81 33.08-6.24 56.18-6.24 21.85 0 33.29 21.85 52.02 9.36 18.73-12.49-8.32-54.1-53.06-54.1ZM38.54 57.88c-19.69.72-14 45.2 3.35 42.92 16.76-1.94 17.94-45.47-3.35-42.92Zm61.87 2.6c16.76-1.94 17.94-45.47-3.35-42.92-19.69.72-14 45.19 3.35 42.92Zm64.77 0c16.76-1.94 17.94-45.47-3.35-42.92-19.69.72-14 45.2 3.35 42.92Zm68.13 16.13c-2.29-29.7-33.7-21.49-28.15 5.46 3.87 28.77 29.82 21.66 28.15-5.46Z" fill="#333"/><path d="M109.78 112.95c-18.66 8.13-26.35 21.7-20.15 27.9 6.29 6.29 15.8-12.75 27.9-15.5 11.37-2.58 29.77-3.73 31-9.3 2.07-9.3-18.6-11.88-38.75-3.1ZM39.51 62.82c-6.89-.92-8.96 20.29-2.68 21.4 5.39.88 8.76-21.1 2.68-21.4Zm55.97-21.23c5.39.88 8.76-21.1 2.68-21.4-6.89-.92-8.96 20.29-2.68 21.4Zm67.79-20.62c-6.89-.92-8.96 20.29-2.68 21.4 5.39.88 8.76-21.1 2.68-21.4Zm57.1 40.82c-6.89-.92-8.96 20.29-2.68 21.4 5.39.88 8.76-21.1 2.68-21.4Z" opacity=".4" fill="#fff"/></svg>