<svg xmlns="http://www.w3.org/2000/svg" viewBox="0 0 250 250"><path d="M202.18 100.61c-28.16-10.96-58.99 15.09-68.39 41.19 46.44-167.83-64.63-143.43-16 .89-61.76-130.56-130.58-15.01-4.11 21.29-23.39 6.86-56.45 30.56-45.59 58.35 22.9 13.6 56.44-28.16 61.26-49.13 60.07 82.32 108.87-.46 6.77-10.3 25.64-9.92 89.75-23.33 66.06-62.29Z" fill="#9f9"/><path d="M187.18 118.86c-3.19-4.32-43.54 14.05-57.12 44.67-4.74-43.58-3.65-94.88-3.63-95.61-8.31-14.3-3.88 54.64-.89 93.4-20.61-24.98-55.33-53.59-59.97-50.58-2.37 4.61 44.65 30.77 61 59.56-22.78 5.09-53.14 39.67-44.57 40.54 2.52.34 20.92-30.91 45.13-36.34.58 7.07 8.46 50.27 12.57 35.7-3.7-9.07-6.39-21.88-8.34-36.14 30.35 6.96 44.5 22.1 47.06 22.47 8.93-2.38-17.11-19.42-46.11-26.57 9.94-35.6 56.16-45.96 54.88-51.09Z"/></svg>