<svg xmlns="http://www.w3.org/2000/svg" viewBox="0 0 250 250"><path d="M224.6 139.88c-5.65-22.73-34.77-10.19-57.12 6.04 60.21-117.26-32.37-108.92-27.29-6.97C103.18 8.03 8.93 29.93 115.38 144.98 36.61 79.09-26.84 102.2 86.56 158.65c-25.23-5.29-49.33-7.05-47.91 7.4 1.89 20.73 95.16 35.5 111.06 27.87 17.37-2.46 80.87-29.99 74.89-54.03Z" fill="#ff6"/><path d="M203.67 143.45c-22.94 10.65-42.51 24.6-55.21 46.44 6.32-36.42 13.5-72.99 24.12-108.35-6.42-21.5-25.11 93.2-27.41 99.23-14.07-37.35-32.22-73.95-54.02-107.09-1.6-2.43-5.53-.16-3.92 2.29 23.09 35.11 42.06 74.17 56.38 113.83-23.6-34.05-60.87-51.73-95.79-70.98-2.32-1.78-4.59 2.17-2.29 3.92 32.33 18.17 66.79 33.82 90.19 64.35-2.25-6.3-92.9-29.83-78.59-16.34 29.5 4.07 60.91 7.56 85.38 26.32 1.01 6.15 10.51 3.41 8.48-2.33 12.27-22.55 31.92-36.68 54.98-47.38 2.65-1.23.34-5.15-2.29-3.92Z"/></svg>