<svg xmlns="http://www.w3.org/2000/svg" viewBox="0 0 350 300"><path d="M349.99 47.04c-2.13 66.55-93.41 58.34-96.21-2.73 3.18-58.85 97.12-60.23 96.21 2.73ZM0 49.33c1.52 66.56 92.87 59.21 96.23-1.84C93.59-11.38-.32-13.63 0 49.33Z"/><path d="M122.46 15.08S308.38-41.93 339.7 148.71c31.33 190.64-302.57 194.26-326.37 49.32C-10.47 53.07 122.46 15.08 122.46 15.08Z" fill="#fff"/><path d="M193.84 223.61s-19.29 33.52-40.41.68" fill="none" stroke="#000" stroke-linecap="round" stroke-linejoin="round" stroke-width="4.68"/><path d="M136.14 161.3c-7.6 26.63-41.36 36.03-64.96 29.23-23.61-6.8-37.02-26.96-29.42-53.59 25.7-60.28 116.05-55.44 94.38 24.36Zm74.43-.83c7.35 26.7 41.03 36.41 64.69 29.83 23.67-6.58 37.26-26.62 29.91-53.31-25.15-60.52-115.53-56.5-94.6 23.48Zm-22.86 33.66c.27 12.15-28.4 12.02-28.02-.13-.27-12.14 28.4-12.02 28.02.13Z"/><path d="M75.88 150.73c-9.05-2.89 12.25-17.89 32.75-4.49 2.59 1.58.07 5.63-2.48 3.98-19.13-11.32-27.05.08-30.28.51Zm169.75-5.78c4.71-8.55 17.97-.92 13.01 7.48-4.71 8.55-17.95.92-13.01-7.48Z" fill="#fff"/></svg>