<svg xmlns="http://www.w3.org/2000/svg" viewBox="0 0 270 180"><path d="M270 86.34s-30.26-12.41-41.19-45.27c-18.08 27.25-37.62 48.02-58.3 62.01 6.66 9.99 14.9 29.98 7.97 62.85 0 0-20.69-23.8-17.43-56.97-.22.14-.46.26-.7.41 1.21 9.78.74 34.84-27.96 62.44 0 0-3.86-31.69 17.33-57.11-21.73 9.77-45.2 12.18-68.16 7.53.26 11.8-3.38 33.84-28.3 57.78 0 0-4.15-34.03 19.73-59.84-18.3-5.11-35.93-14.62-52.76-28.41-4.85 4.17-9.78 7.93-14.78 11.33 6.66 9.99 14.9 29.98 7.97 62.85C-3 155.08.16 106.23.39 87.17c2.68-1.93 5.31-3.97 7.89-6.12a200 200 0 0 1-7.89-8.03V48.65c6.2 7.75 12.76 15.01 19.67 21.6C39.2 51.03 55.61 26.24 69.38 0h18.1C81.52 11.78 75.34 22.76 69 32.91c10.19 5.41 27.46 19.3 35.95 53.43 0 0-30.26-12.41-41.19-45.27-10.13 15.29-20.75 28.52-31.73 39.66 76.52 64.59 162.21 5.7 202.44-80.73h18.02c-5.92 11.78-12.08 22.76-18.42 32.91 10.17 5.41 27.44 19.3 35.93 53.43Z" fill="#6c6"/></svg>