<svg version="1.1" id="Layer_1" xmlns="http://www.w3.org/2000/svg" x="0" y="0" viewBox="0 0 2024.8 2024.8" xml:space="preserve"><style>.st2{fill:#ffcb47}</style><path d="M0 0h2024.8v2024.8H0V0z" fill="none"/><path d="M550.5 513.2c-6.1 28.1-181.3 832.5-187.3 860.4l133.4 3.9c6-27.8 181.1-832.1 187.1-860.2l-133.2-4.1zm591.1-.8c4 28.5 119.5 843.6 123.4 871.8l-133.3-6c-3.9-28.1-119.3-843.2-123.3-871.6l133.2 5.8z" fill="#1a1d3f"/><path class="st2" d="M1660.1 586.9c49 285.9 180.3 819.3 209.4 1104.8-116.2 272.1-232-1042.2-267.4-1093.2-87.6-16-93.6-151.9-3.3-169.5 92-19.4 137 108.4 61.3 157.9z"/><path d="M1389.9 1275.6c4.8-95.4 1.3-164.6 6.1-260.1-376.4-6.5-744.9-23.4-1121.3-29.9-10.2 88-2.4 169.8-12.6 257.8 378 16.2 749.7 16 1127.8 32.2z" fill="#f07642"/><path class="st2" d="M1336.9 920.3c5.3-73.4 4.6-168.8 9.9-242.2-339.5-14.9-668.5-13.9-1007.9-28.8-1.9 67.9-4.7 169.6-6.6 237.5 339.3 17.3 665.1 16.2 1004.6 33.5z"/><path d="M1284.9 329.6c-2.1 62.4-3 180.7-5.1 243.1-290-7.2-577.3-18.3-867.4-25.4 1.5-66.1 4.2-173.7 5.7-239.8 278.9 12.8 587.9 9.2 866.8 22.1z" fill="#49d988"/><path d="M1451.7 1646.4c13.6-89.7 10.2-183.4 3.2-282.9-422.2-12.9-844.4-23.7-1266.6-36.6-2.4 86.3-5.4 193.3-7.8 279.6 418.4 17 852.7 22.8 1271.2 39.9z" fill="#494edf"/><path d="M588.9 418.5c-12.3 43.8 44.5 74.9 77.9 46.5 67.1-58.1-50.8-119.1-77.9-46.5zm417.6 15.1c-1.6 42.3 57.8 62.9 84 30.2 48.9-62.7-75.9-101.6-84-30.2zM526.7 747c-51.3 34.6 8.8 97.6 54.3 71.7 62.3-36.1-1.6-116.2-54.3-71.7zm549.4 70.1c21.9 23 65.1 20.1 84.1-5.1 47.7-96.9-140.8-87.1-84.1 5.1zM460 1164.8c62.1 25.8 99.6-73.6 40.8-98.1S398 1139 460 1164.8zm657.6-6c21.6 30.2 72.1 28.6 92.5-2.2 50.6-104.5-144.3-98.5-92.5 2.2zm-757.2 302.1c-23.5 57.9 64.2 92.9 91.4 38.3 33.4-66.4-63.2-105.4-91.4-38.3zm841 74.9c22.2 7.2 48.2-1.1 63.5-18.7 69.4-155.2-197-63.4-63.5 18.7z" fill="#ddede7"/></svg>