<svg xmlns="http://www.w3.org/2000/svg" viewBox="0 0 2024.85 2024.85"><path fill="none" d="M0 0h2024.85v2024.85H0z"/><path d="M550.5 513.2c-6.11 28.1-181.29 832.52-187.31 860.36l133.41 3.89c6-27.77 181.1-832.12 187.15-860.17Zm591.1-.82c4 28.48 119.5 843.61 123.45 871.82l-133.34-6c-3.9-28.13-119.34-843.19-123.3-871.61Z" fill="#1a1d3f"/><path d="M1660.08 586.92C1712 839.76 1815 1372.64 1866.91 1625.47c4.49 21.87 8.94 44.83 2.51 66.21s-27.69 40.07-49.54 35.5c-27-5.63-36.15-38.78-40.11-66-36.16-248.54-141.55-814.14-177.7-1062.68-38.21-6.76-69.92-46.9-70.49-85.7s29.18-75.89 67.18-83.76 80 14.36 94.92 50.19-1.21 86.31-33.6 107.69Z" fill="#ffcb47"/><path d="M1389.88 1275.58c4.83-95.44 1.29-164.62 6.12-260.06-376.4-6.52-744.86-23.36-1121.26-29.92-10.25 88-2.39 169.82-12.64 257.84 378.05 16.17 749.73 15.97 1127.78 32.14Z" fill="#f07642"/><path d="M1336.86 920.29c5.28-73.36 4.59-168.8 9.87-242.16-339.45-14.86-668.46-13.94-1007.91-28.81-1.88 67.92-4.7 169.57-6.59 237.49 339.41 17.31 665.22 16.19 1004.63 33.48Z" fill="#ffcb47"/><path d="M1284.89 329.57c-2.09 62.4-3 180.72-5.1 243.12-290-7.17-577.35-18.26-867.41-25.42 1.53-66.09 4.21-173.69 5.74-239.78 278.88 12.85 587.88 9.23 866.77 22.08Z" fill="#49d988"/><path d="M1451.66 1646.37c13.59-89.71 10.15-183.39 3.16-282.91-422.17-12.9-844.4-23.74-1266.58-36.64-2.39 86.28-5.36 193.31-7.75 279.58 418.43 17.06 852.75 22.91 1271.17 39.97Z" fill="#494edf"/><path d="M588.89 418.5c-5.45 19.2 4.31 41.28 21.63 51.18s40.48 7.55 56.25-4.68 23.72-34.71 17-53.54c-14.5-40.38-84-31.23-94.88 7.04Zm417.58 15.11c-.79 21.35 16.56 41.15 37.47 45.54 16.78 3.53 35.45-2.27 46.54-15.35s13.62-33.09 5.28-48.08c-19.24-34.6-87.7-24.72-89.29 17.89ZM526.72 747c-12.12 8.73-21.35 23-19.93 37.86 1.16 12.18 9.29 22.88 19.42 29.73 15.92 10.78 37.71 12.91 54.82 4.13S609.25 790 606.41 771c-6.19-41.52-51.89-44-79.69-24Zm549.42 70.11c10 10.63 25 15.72 39.66 15.64 17-.09 34.28-7.22 44.47-20.76 25.43-33.79-11.08-73.88-47.75-71.68-34.81 2.09-62.78 48.79-36.38 76.8Zm-616.09 347.67c62.08 25.8 99.63-73.61 40.76-98.07S398 1139 460.05 1164.78Zm657.59-6c9.93 13.5 26.55 21.46 43.3 22 19 .64 38.45-8.41 49.18-24.17 24.66-36.23-7.79-82.34-49.78-78.78-38.02 3.25-66.96 47.99-42.7 80.95Zm-757.2 302.15c-10.34 23.2 2.79 53.47 26.35 63s53.14-2.21 65-24.66a55.42 55.42 0 0 0 1-49.11c-20.28-42.16-75.56-26.87-92.35 10.77Zm840.92 74.9c22.24 7.25 48.2-1.06 63.54-18.72 32.54-37.48-.64-102.06-54.64-83.72-48.02 16.31-66.54 83.66-8.9 102.44Z" fill="#ddede7"/></svg>