<svg xmlns="http://www.w3.org/2000/svg" viewBox="0 0 2024.85 2024.85">
    <title>xyloAsset 2</title>
    <rect width="2024.85" height="2024.85" fill="none" />
    <path d="M550.5,513.2c-6.11,28.1-181.29,832.52-187.31,860.36l133.41,3.89c6-27.77,181.1-832.12,187.15-860.17Z"
        fill="#1a1d3f" />
    <path d="M1141.6,512.38c4,28.48,119.5,843.61,123.45,871.82l-133.34-6c-3.9-28.13-119.34-843.19-123.3-871.61Z"
        fill="#1a1d3f" />
    <path
        d="M1660.08,586.92C1712,839.76,1815,1372.64,1866.91,1625.47c4.49,21.87,8.94,44.83,2.51,66.21s-27.69,40.07-49.54,35.5c-27-5.63-36.15-38.78-40.11-66-36.16-248.54-141.55-814.14-177.7-1062.68-38.21-6.76-69.92-46.9-70.49-85.7s29.18-75.89,67.18-83.76,80,14.36,94.92,50.19S1692.47,565.54,1660.08,586.92Z"
        fill="#ffcb47" />
    <path
        d="M1389.88,1275.58c4.83-95.44,1.29-164.62,6.12-260.06C1019.6,1009,651.14,992.16,274.74,985.6c-10.25,88-2.39,169.82-12.64,257.84C640.15,1259.61,1011.83,1259.41,1389.88,1275.58Z"
        fill="#f07642" />
    <path
        d="M1336.86,920.29c5.28-73.36,4.59-168.8,9.87-242.16-339.45-14.86-668.46-13.94-1007.91-28.81-1.88,67.92-4.7,169.57-6.59,237.49C671.64,904.12,997.45,903,1336.86,920.29Z"
        fill="#ffcb47" />
    <path
        d="M1284.89,329.57c-2.09,62.4-3,180.72-5.1,243.12-290-7.17-577.35-18.26-867.41-25.42,1.53-66.09,4.21-173.69,5.74-239.78C697,320.34,1006,316.72,1284.89,329.57Z"
        fill="#49d988" />
    <path
        d="M1451.66,1646.37c13.59-89.71,10.15-183.39,3.16-282.91-422.17-12.9-844.4-23.74-1266.58-36.64-2.39,86.28-5.36,193.31-7.75,279.58C598.92,1623.46,1033.24,1629.31,1451.66,1646.37Z"
        fill="#494edf" />
    <path
        d="M588.89,418.5c-5.45,19.2,4.31,41.28,21.63,51.18S651,477.23,666.77,465s23.72-34.71,17-53.54C669.27,371.08,599.77,380.23,588.89,418.5Z"
        fill="#ddede7" />
    <path
        d="M1006.47,433.61c-.79,21.35,16.56,41.15,37.47,45.54,16.78,3.53,35.45-2.27,46.54-15.35s13.62-33.09,5.28-48.08C1076.52,381.12,1008.06,391,1006.47,433.61Z"
        fill="#ddede7" />
    <path
        d="M526.72,747c-12.12,8.73-21.35,23-19.93,37.86,1.16,12.18,9.29,22.88,19.42,29.73,15.92,10.78,37.71,12.91,54.82,4.13S609.25,790,606.41,771C600.22,729.48,554.52,727,526.72,747Z"
        fill="#ddede7" />
    <path
        d="M1076.14,817.11c10,10.63,25,15.72,39.66,15.64,17-.09,34.28-7.22,44.47-20.76,25.43-33.79-11.08-73.88-47.75-71.68C1077.71,742.4,1049.74,789.1,1076.14,817.11Z"
        fill="#ddede7" />
    <path d="M460.05,1164.78c62.08,25.8,99.63-73.61,40.76-98.07S398,1139,460.05,1164.78Z" fill="#ddede7" />
    <path
        d="M1117.64,1158.78c9.93,13.5,26.55,21.46,43.3,22,19,.64,38.45-8.41,49.18-24.17,24.66-36.23-7.79-82.34-49.78-78.78C1122.32,1081.08,1093.38,1125.82,1117.64,1158.78Z"
        fill="#ddede7" />
    <path
        d="M360.44,1460.93c-10.34,23.2,2.79,53.47,26.35,63s53.14-2.21,65-24.66a55.42,55.42,0,0,0,1-49.11C432.51,1408,377.23,1423.29,360.44,1460.93Z"
        fill="#ddede7" />
    <path
        d="M1201.36,1535.83c22.24,7.25,48.2-1.06,63.54-18.72,32.54-37.48-.64-102.06-54.64-83.72C1162.24,1449.7,1143.72,1517.05,1201.36,1535.83Z"
        fill="#ddede7" />
</svg>