<svg xmlns="http://www.w3.org/2000/svg" viewBox="0 0 500 500"><path d="M371.37 7.5c-42.74-2.83-75.32 21.78-71.63 66.77-38.38-5.12-78.5-7.06-116.99 1.77-8.04-111.38-151.82-57.63-106.07 35.17-35.26 97.66-65.56 244.91 35.65 312.87-27.06 46.31 37.67 74.89 65.56 36.34 6.73-11.12 18.38-6.65 29.11-6.81 44.08 2.57 85.5.65 128.97-7.99 14.4.4 16.12 16.66 26.1 24.15 16.81 13.23 48.96 11.24 55.71-11.76 7.42-19.71-8.81-34.55-5.98-51.96 79.84-87.17 32.53-192.41 2.1-289.43C453.2 82.15 429.31-1.79 371.37 7.5Z" fill="#393"/><path d="M86.78 169.59c-47.98 12.79-6.82 61.29 31.88 38.97 23.22-18.68-10.64-45.23-31.88-38.97Zm281.47-1.4c-42.45 25.76 10.69 60.74 41.55 28.43 17.03-24.46-22.92-40.41-41.55-28.43Z" fill="#e6c2d8"/><path d="M126.83 54.77c-30.16 4.47-19.92 42.34 8.42 32.72 15.74-6.22 9.78-36.2-8.42-32.72Zm237.12-5.01c-26.21 18.73-.81 45.74 23.94 27.66 13.61-13.34-9.05-35.95-23.94-27.66Zm-221.34 379.2c-24.29.7-18.02 35.19 4.21 29.85 15.33-3.2 12.99-32.44-4.21-29.85Zm237.82-1.44c-20.25 9.05-5.02 36.61 14.03 25.5 15.88-8.11.24-30.82-14.03-25.5ZM251.56 319.13c-13.1-1.4-109.01 10.03-82.68 30.34 6.6 2.31 12.54-3.54 18.61-5.24 49.58-16.38 111.18-14.87 158.59 6.79 3.97 1.83 9.06-.26 10.77-3.74 4.32-11.89-18.65-13.87-26.79-18.5-24.76-9.13-52.12-9.26-78.49-9.66Zm-14.87-148.05c-11.71-1.4-97.5 10.03-73.95 30.34 5.91 2.31 11.22-3.54 16.64-5.24 44.34-16.38 99.44-14.87 141.83 6.79 3.55 1.83 8.11-.26 9.63-3.74 3.86-11.89-16.68-13.87-23.96-18.5-22.14-9.13-46.61-9.26-70.2-9.66Zm2.3 75.41c-11.74-.38-79.56 6.24-73.34 22.97 4.46 11.38 26.49-3.6 35.48-4.33 41.26-7.86 85.41-4.49 124.1 12.29 3.65 1.58 8.01-.07 9.63-3.74 9.2-18.72-83.41-29.09-95.88-27.2Zm-20.28 203.67c-17.74 37.46-14.61 5.07-38.11.25-9.39 2.87-5.27 13.07 1.59 16.36 19.05 22.3 26.29 33.27 42.75 1.65 9.17-8.76 9.38-29.89-6.22-18.26Z"/><path d="M252.71 453.16c-17.74 37.46-14.61 5.07-38.11.25-9.39 2.87-5.27 13.07 1.59 16.36 19.05 22.3 26.29 33.27 42.75 1.65 9.17-8.76 9.38-29.89-6.22-18.26Z"/><path d="M293.71 450.16c-17.74 37.46-14.61 5.07-38.11.25-9.39 2.87-5.27 13.07 1.59 16.36 19.05 22.3 26.29 33.27 42.75 1.65 9.17-8.76 9.38-29.89-6.22-18.26Z"/><path d="M332.69 446.17c-17.74 37.46-14.61 5.07-38.11.25-9.39 2.87-5.27 13.07 1.59 16.36 19.05 22.3 26.29 33.27 42.75 1.65 9.17-8.76 9.38-29.89-6.22-18.26Z"/><path d="m336.89 454.12-153.99 7.16c-10.21.63-11-16.02-.76-16.35l153.99-7.16c10.19-.63 11.02 16.02.76 16.35Z"/></svg>