<svg xmlns="http://www.w3.org/2000/svg" viewBox="0 0 2542.85 1797.98"><path fill="#e3efce" d="M0 0h2542.85v1679.35H0z"/><path fill="#fc6" d="M0 898.99h2542.85v898.99H0z"/><path d="M2031.99 1723.99c-129.9 1.85-199.59-86.36-281.52-141.29-218.04-117.74-395.53-52.97-700.29-68.48-436.61 31.1-20.78-311.01-560.55-347.83H0v631.6h2277.27c-43.18-56.21-131.36-75.62-245.27-74Z" fill="#9cf"/><path d="M1492.35 1743.64c-95.4 1.36-146.59-63.43-206.75-103.77-160.14-86.48-290.49-38.9-514.31-50.29-320.66 22.84-15.26-228.41-411.68-255.45H.01v463.86h1672.47c-31.71-41.28-96.47-55.53-180.13-54.34Z" fill="#6cf"/><path d="M1274.72 1751.56c-81.49 1.16-125.21-54.18-176.6-88.64-136.79-73.86-248.13-33.23-439.31-42.96-273.9 19.51-13.04-195.1-351.65-218.2H0v396.22h1428.59c-27.09-35.26-82.41-47.44-153.87-46.42Z" fill="#39c"/><path d="M430.58 1011.79c-7.39 0-13.38-5.6-13.38-12.5-15.61-176.61 56.65-620.64-96.7-754.46 94.3 23.56 154.48 149.7 147.58 277.93v476.51c.07 17.52-26.72 11.59-37.51 12.52Z" fill="#363"/><path d="M2495.19 637.39v127.13s-48.33 12.81-48.33-82.46c-21.82-185.64 62.38-402.74-78.5-452.76-.03.01-.03 202.33-.03 202.33s-33.98-118.48-89.86-121.31c0 0-25.94 51.8-39.53 92.71-4.41 13.27 56.24 292.5-21.14 291.94-25.85-.29-257.54-285.79-341.79-274.88 0 0 51.78 57.37 28.05 153.75-5.47 22.22-69.15 45.4-69.15-41.5 16.38-152.9-75.79-256.86-206.49-254.62 154.28 26.18 100.2 335.81 109.98 444.48-9.37-35.41-25.54-397.11-152.35-394.76 8.38-12.74 73.27 196.66 26.4 267.46-18.01-161.05-120.03-244.77-259.91-248.06-28.59-69.87-151.07-67.33-202.86-59.12 162.2 5.94 179.7 123.51 169.37 295.19-6.39-93.94-135.45-265.79-312.16-235.91 203.64 30.43 224.36 143.92 214.15 341.35-173.64-36.21 66.58-288.9-362.91-341.52 256.57 54.78 162.64 549.89-3.05 290.57-28.93-130.62-168.25-163.93-235.57-123.96 114.81-9.77 103.13 109.36 108.73 168.62H394.29c-152.01 29.16-38.38-207.51-264.9-191.19 103.62-4.03 223.3 251.19 6.85 242.03-39.55.32-94.48.29-136.24.19v193.09c42.63 7.22 193.27-25.69 200.93 46.43 1.01 115.04 501.09 45.67 517.71 63.95 240.68 23.44-21.12 184.83 343.21 156.4 261.07 3.47 456.34-1.75 674.41.01 0 0 157.87-13.54 203.18 49.84s10.03 79.1 78.53 136.11c126.35 102.28 460.28-7.44 524.89 137.44V473.95s-47.66 36.32-47.66 163.45Zm-960.49-100.1c-29.04-75.46-112.4-112.13-155.41-123.28-2.18-15.42-5.87-24.05-13.12-45.8 109.13 27.54 168.21 92.33 187.25 218.71-4.2-11.4-10.35-27.87-18.72-49.62Z" fill="#6c6"/><path d="M569.02 997.79c-75.54-230.78 120.29-685.27-244.84-793.2 397.46 12.82 265.9 552.72 287.84 779.19-.08 19.97-30.71 12.8-42.99 14.01Zm1692.45 253.54c-10.08 0-18.24-7.63-18.24-17.04-43.67-312.95 159.67-1087.07-279.94-1189.8 227.54 5.27 368.97 184.32 350.52 499.54.02 212.55.02 635.16.02 690.22-.37 24.51-37.12 15.5-52.35 17.07Z" fill="#696"/><path d="M2364.48 1307.11c7.52 0 13.61-6.09 13.61-13.61 21.85-185.68-84.26-661.81 164.76-758-294.28 10.01-186.99 600.9-206.32 757.98.61 15.7 16.59 13.83 27.95 13.63Z" fill="#696"/><path d="M774.28 1086.41c-67.55-211.7 70.46-548.72-115.4-799.9 198.98 194.96 85.66 568.77 115.4 799.9ZM641.37 230.56c4.75 7.44-8.52 11.29-10.57 5.81-.47-7.27-85.86-120.56-71.53-123.78 8.45-11.68 77.63 116.93 82.1 117.96Z" fill="#393"/><path d="M715.01 310.29c18.48 29-31.25 50.23-44.57 24.64-5.29-26.51-131.23-159.88-84.65-180.58 39.78-29.91 109.12 141.44 129.22 155.93Z" fill="#a24528"/><path d="M1156.37 913.03c-60.72-190.28 63.33-493.22-103.73-718.99 178.85 175.24 76.99 511.24 103.73 718.99ZM1036.9 143.76c4.27 6.68-7.66 10.14-9.5 5.22-.43-6.54-77.17-108.36-64.29-111.26 6.51-11.32 70.48 105.53 73.8 106.03Z" fill="#393"/><path d="M1103.09 215.42c16.61 26.06-28.09 45.15-40.06 22.15-4.75-23.83-117.96-143.7-76.09-162.31 35.76-26.88 98.08 127.13 116.15 140.16Z" fill="#a24528"/><path d="M1396.2 1114.87c66.71-209.08-69.59-541.94 113.97-790.01-196.52 192.55-84.6 561.74-113.97 790.01Zm131.27-845.26c-4.09 6.5 6.74 12.03 10.42 5.77-1.11-3.75 85.41-121.36 70.67-122.28-9.48-9.8-76.98 115.9-81.09 116.51Z" fill="#393"/><path d="M1454.73 348.35c-17.35 27.53 28.51 50.72 43.99 24.38 3.89-22.03 129.34-160.48 83.63-178.39-12.14-7.83-30.68-.61-35.09 8.39l-92.53 145.62Z" fill="#a24528"/><path d="M2166.76 1066.09c-67.9-188.54 70.1-540.05-113.98-783.04 196 192.16 84.83 555.97 113.98 783.04Z" fill="#393"/><path d="M2020.87 230.17c3.53 6.8 15.46 1.57 11.45-5.61-4.89-1.67-69.58-139.98-79.38-128.43-14.52 4.54 69.7 129.34 67.93 134.05Z" fill="#4f6024"/><path d="M2036.9 301.5c14.95 28.85 65.23 6.56 48.35-23.68-19.75-17.62-63.81-163.07-106.87-136.37-47.86 19.86 56.14 136.87 58.52 160.05Z" fill="#a24528"/><path d="M508.2 957.71c-45.21-114.98 42.59-452.73-81.07-551.29 173.14 54.21 86.26 426.91 106.11 540.4-.16 12.88-16.05 10.99-25.03 10.88Z" fill="#696"/><path d="M1372.56 1309.99c-38.94-158.62 15.96-539.86-194.42-593.4 293.11 15.74 211.61 372.84 222.47 539.72-.02 27.16.87 58.98-28.05 53.68Z" fill="#363"/><path d="M1675.03 1114.03c-64.94 8.71-84.85 139.27 0 140.06 84.84-.79 64.91-131.37 0-140.06Zm567.12-2.12c-64.93 8.7-84.83 139.27 0 140.06 84.86-.79 64.92-131.37 0-140.06Z"/><path d="M1816.81 1114.03c-64.94 8.71-84.85 139.27 0 140.06 84.84-.79 64.91-131.37 0-140.06Z"/><path d="M1958.59 1115.15c-64.94 8.71-84.85 139.27 0 140.06 84.84-.79 64.91-131.37 0-140.06Z"/><path d="M2100.37 1114.03c-64.93 8.7-84.83 139.27 0 140.06 84.86-.79 64.92-131.37 0-140.06Zm338.12-185.81c-125.66 9.56-80.26 142.43 27.24 109.4 54.91-26.05 33.67-112.12-27.24-109.4Zm-16.94 157.1c-80.74-72.47-150.2-8.52-84.93 77.99 53.49 54.58 134.72-20.49 84.93-77.99Z"/><path d="M2516.25 981.84c-26.56-58.61-61.24-117.35-94.09-117.73-9.59 4.23-6.2 19.94-.59 45.97 32.89 110.44-1.44 221.65-134.69 269.91h-698.22c23.16-131.82-165.5-181.87-211.67-57.97-13.98-117.05-186.78-127.66-215.39-13.92-66.59-9.74-124.65-28.58-172.71-49.62 25.98-45.92-32.49-95.52-73.42-63.47 5.13-33.02-29.55-63.87-62.33-53.78-304.22 158.91 138.35 455.48 405.29 508.44-74.17 251.51-96.41 164.43 142.52 251.05 12.75 3.97 26.3-3.15 30.27-15.89l60.82-195.2c128.69 15.02 262.17 24.75 391.26 28.71 9.91 269.06-62.36 210.27 210.75 216.67 13.35 0 24.18-10.82 24.18-24.18v-202.67c281.53-1.75 485.69-253.51 398.01-526.33Z" fill="#393"/><path d="M1253.12 1648.22c-16 .86 8.23-74.84 20.82-64.9 16-.86-8.23 74.84-20.82 64.9Zm59.9 19.22c-16 .86 8.23-74.84 20.82-64.9 16-.86-8.23 74.84-20.82 64.9Zm59.89 19.22c-16 .86 8.23-74.84 20.82-64.9 16-.86-8.23 74.84-20.82 64.9Zm567.03 43.27c-14.97 5.71-15.03-73.78 0-68.15 14.97-5.71 15.03 73.78 0 68.15Zm62.9 0c-14.97 5.71-15.03-73.78 0-68.15 14.97-5.71 15.03 73.78 0 68.15Zm62.9 0c-14.97 5.71-15.03-73.78 0-68.15 14.97-5.71 15.03 73.78 0 68.15Z"/><path d="M2187.8 1498.2c-244.78 43.85-652.68 9.05-908.75-43.72 27.28-85.15 897.5-49.33 908.75 43.72Z" fill="#f98a00"/><path d="M1390.43 1413.11v62.34c-6.6-.98-13.19-2.07-19.7-3.15v-56.82c6.3-.89 12.9-1.67 19.7-2.36Zm117.19-5.12v83.41c-6.6-.69-13.1-1.48-19.7-2.36v-80.85c6.4-.1 13-.2 19.7-.2Zm351.15 7.11v102.75c-6.2-.22-12.39-.54-18.67-.83v-103.17c6.25.42 12.51.83 18.67 1.25Zm117.8 14.46v88.53c-6.5.2-13 .39-19.7.39v-90.8c6.7.59 13.3 1.18 19.7 1.87Zm117.18 17.23v64.01c-6.5.69-13 1.28-19.7 1.87v-69.92c6.9 1.28 13.39 2.56 19.7 4.04Z" fill="#a24528"/><path d="M962.01 1044.3c-12.96 21.69-45.55 2.97-33.34-19.15 12.96-21.69 45.55-2.97 33.34 19.15Zm-79.21-45.5c-12.96 21.69-45.55 2.97-33.34-19.15 12.96-21.69 45.55-2.97 33.34 19.15Z"/><path d="M1081.6 1237.07c-49.05 50.48-41.22 52.68-50.28-16.72l50.28 16.72Zm-234.7-132.58c-67.8 18.91-62.14 24.75-35.02-39.78l35.02 39.78Zm114.74 81.62c-61.24 34.69-54.34 39-43.57-30.16l43.57 30.16Z" fill="#fff"/><path d="M1124.57 1261.82c-128.18-31.36-245.08-103.03-333.18-201.05-3.64-4.04-3.3-10.27.75-13.91 4.02-3.63 10.27-3.31 13.91.75 84.98 94.87 197.55 163.22 320.97 194.82 10.97 2.49 8.76 19.75-2.45 19.38Z"/><path d="M1542.64 1160.16c-2.13-82.3-122.58-82.08-124.67 0 1.5 81.93 123.31 81.88 124.67 0Z" fill="#fff"/><path d="M1493.23 1181.28c0-33.48-26.5-60.83-59.7-62.24-34.71 36.63-6.83 103.01 44.14 103.36 9.71-10.94 15.56-25.37 15.56-41.12Z"/><path d="M1330.21 1136.95c-2.13-82.3-122.58-82.08-124.67 0 1.5 81.93 123.31 81.88 124.67 0Z" fill="#fff"/><path d="M1280.79 1158.07c0-33.48-26.5-60.83-59.7-62.24-34.71 36.63-6.83 103.01 44.14 103.36 9.71-10.94 15.56-25.37 15.56-41.12Z"/><path d="M1549.48 1391.78v319.05c0 13.35 10.82 24.18 24.18 24.18h186.57c13.35 0 24.18-10.82 24.18-24.18v-319.05h-234.93Z" fill="#393"/><path d="M1604.53 1730.07c-14.97 5.71-15.03-73.78 0-68.15 14.97-5.71 15.03 73.78 0 68.15Zm62.9 0c-14.97 5.71-15.03-73.78 0-68.15 14.97-5.71 15.03 73.78 0 68.15Zm62.9 0c-14.97 5.71-15.03-73.78 0-68.15 14.97-5.71 15.03 73.78 0 68.15Zm-180.85-241.94c-5.44 0-9.85-4.41-9.85-9.85v-107.24c0-5.44 4.4-9.85 9.85-9.85s9.85 4.41 9.85 9.85v107.24c0 5.44-4.4 9.85-9.85 9.85Zm234.92 18.56c-5.44 0-9.85-4.41-9.85-9.85v-125.8c0-5.44 4.4-9.85 9.85-9.85s9.85 4.41 9.85 9.85v125.8c0 5.44-4.4 9.85-9.85 9.85Z"/><path d="m2160.73 1407.01 86.56 277.81c3.97 12.75 17.53 19.86 30.28 15.89l178.13-55.5c12.75-3.97 19.86-17.53 15.89-30.28l-86.56-277.81-224.29 69.89Z" fill="#393"/><path d="M2308.39 1683.08c-12.42 10.12-37.41-65.34-21.38-64.72 12.43-10.12 37.41 65.34 21.38 64.72Zm59.73-19.73c-12.42 10.12-37.41-65.34-21.38-64.72 12.43-10.12 37.41 65.34 21.38 64.72Zm59.72-19.73c-12.42 10.12-37.41-65.34-21.38-64.72 12.43-10.12 37.41 65.34 21.38 64.72Zm-243.34-150.91c-4.27 0-8.19-2.79-9.45-7.09l-32.7-111.81c-3.75-12.17 15.48-17.88 18.91-5.53l32.7 111.81c1.92 6.17-3.02 12.7-9.45 12.62Z"/></svg>