<svg xmlns="http://www.w3.org/2000/svg" viewBox="0 0 500 500"><defs><clipPath id="a"><path d="M416.53 285.48c-4.21 276-330.29 275.97-334.46 0 4.2-276 330.28-275.96 334.46 0Z" fill="none"/></clipPath></defs><path d="M340.59 109.68c103.58-141.27 165.32 17.29 23.26 39.22l-23.26-39.22Zm-181.18 0C55.83-31.59-5.91 126.97 136.15 148.91l23.26-39.22Z" fill="#ffcc57"/><path d="M155.2 113.82c-65.92-89.91-105.22 11-14.81 24.96l14.81-24.96Zm189.6 0c65.92-89.91 105.22 11 14.81 24.96l-14.81-24.96Zm-21.61-86.55c0-12.44-10.09-22.52-22.53-22.52-24.28-.36-30.92 34.43-8.75 43.29l-13.77 44.09 15.41 9.65 8.26-52.03c11.91-.6 21.38-10.42 21.38-22.47Zm-147.6 0c0-12.44 10.08-22.52 22.53-22.52 24.28-.36 30.93 34.43 8.75 43.29l13.77 44.09-15.41 9.65-8.27-52.03c-11.9-.6-21.37-10.42-21.37-22.47Z" fill="#7e4a23"/><path d="M416.53 285.48c-4.21 276-330.29 275.97-334.46 0 4.2-276 330.28-275.96 334.46 0Z" fill="#ffcc57"/><path d="M340.59 282.8c-.1 21.18-23.93 21.18-24.03 0 .1-21.18 23.93-21.18 24.03 0Zm-158.36 0c-.1 21.18-23.93 21.19-24.03 0 .1-21.18 23.93-21.18 24.03 0Z"/><path d="M249.3 495.25c54.43 0 102.76-32.63 133.3-83.14-49.29-119.2-217.33-119.16-266.6 0 30.54 50.5 78.88 83.14 133.3 83.14Z" fill="#fff6b5"/><path d="M249.4 449.78c-34.98 0-40.61-30.05-40.66-30.36l3.84-.67c1.77 28.33 62.46 43.13 73.64 0l3.84.67c-.05.3-5.68 30.36-40.66 30.36Z" fill="#c1aa95"/><path d="M286.81 381.32c.38 7.96-26.92 7.96-26.53 0-.38-7.96 26.92-7.97 26.53 0Zm-48.31 0c.39 7.96-26.92 7.96-26.53 0-.39-7.96 26.92-7.96 26.53 0Z" fill="#7e4a23"/><g fill="#f99c15" clip-path="url(#a)"><path d="M300.67 85.8s-4.31 30.07-10.61 48.09c-6.3 18.02 27.11-2.25 47.45-26.65l-24.12-26.4-12.73 4.96Zm78.47 67.48s-43.79 27.44-50.56 40.07c-8.84 26.83 163.4 5.67 50.56-40.07Zm29.04 66.63S350.35 233 340.58 237c-13.05 12.13 129.02 66.24 103.36-6.01l-35.76-11.09ZM194.52 85.8s4.31 30.07 10.61 48.09c6.3 18.02-27.11-2.25-47.45-26.65l24.12-26.4 12.72 4.96Zm-78.47 67.48s43.8 27.44 50.56 40.07c8.85 26.83-163.4 5.67-50.56-40.07ZM87 219.91S144.83 233 154.6 237c13.05 12.13-129.02 66.23-103.36-6.01L87 219.9Z"/></g></svg>