<svg xmlns="http://www.w3.org/2000/svg" xmlns:xlink="http://www.w3.org/1999/xlink" viewBox="0 0 750 500" xml:space="preserve"><path fill="#FFF274" d="M0 0h750v500H0z"/><path d="M558.9 89.6c52.8 18.7 115-44.3 191.1-7.1V0H502.3c5.3 36.9 19 70.6 56.6 89.6zm-490.4-.3C106.1 26 140.1 111.8 233.9 0H0v158.4c40.6-1.4 51.9-39.2 68.5-69.1z" fill="#FF9"/><path fill="#633" d="M539.6 168.7c13.2-6.5 32.2 16.6 22.3 29.2 12.8 5 16.7 23.4 7.9 33.5 7.5 5.5 10.1 15.9 6.2 24.4 8.7 6.5 15.7 19.3 6.2 28.1 10.8 8.2 12.5 21.1 4.1 31.1 11 3.7 15.9 17.4 8.4 26.6 9.9 6.6 13.8 17.8 5.5 27.5 9.2 4.7 12.2 17.3 5.4 24.9 12.1 10.1 6.6 21.9 7 34.8 0 0 8.9 6 3.8 19.1 8 3.9 12.8 14.9 5.9 23.1 3.6 4.9 10.6 14.1 1.3 19.9 13.5 11.7-2.9 8.6-11 9.1-20.3-109.4-85.4-220.4-73-331.3z"/><path fill="#FC0" d="M545.7 183.5c.5 1.4 58.7 280.9 69.9 316.5H476.8c3.2-72.6-30.3-267.1 68.9-316.5z"/><path fill="#F93" d="M545 178.9c21.3 37.9-16.4 112.7-68.4 114.8-15.9-35.1 61-105.5 68.4-114.8z"/><path fill="#633" d="M517 134.8c5.1-7.2 13.7-12.3 20.5-17.8 12.8-.2-23.3 38.2-20.5 17.8zm-23.1-22.7c9.5-40.3 14.1 12.1.7 17.8-7.8-2.1-2.1-12.6-.7-17.8z"/><path fill="#FC0" d="M537.9 145.6c50.9 95.9-122.7 228.9-160.1 88.1 4.1-90.7 101.5-167.5 160.1-88.1z"/><path fill="#FFF" d="M420.9 181.3c40.7 16.4 58.7 49.9 66.5 75.6 5.1 16.7-5.6 34.1-22.9 36.9-55.5 9.1-102.1-37.2-81.7-95.2 5.5-15.6 22.7-23.5 38.1-17.3z"/><path fill="#FC0" d="M532.6 147.5c13.5 2 27.9-3.7 41.1-6.9 41.1 11.8-42.8 76.2-41.1 6.9zm-63.9-28.9s-6.4-12.8-9.9-30.7c-20.5-52-41.8 61.3 9.9 30.7z"/><path fill="#633" d="M534.5 113.9c2.8-8.3 15.4-1.6 12 5.8-3.6 7.9-14.5 1.5-12-5.8zm-38.1-20.5c4.8-4.8 14.4 2.3 10.7 8.2-5 8.4-17.6-1.1-10.7-8.2z"/><path fill="#F93" d="M445 84.8c8.1-6.1 8.2 24 7.2 28.3-10.4 14.7-14.3-21.8-7.2-28.3zm100.8 79.9c3.4-4.8 27.7-15.6 31-7.8 3.9 10.4-37.7 24.9-31 7.8zm14 146.6c-25.7-11.7-19.4-43.7.3-60.2 4.5 21.3 9.8 46 15.2 71.4-5.8-2.8-10.9-7.7-15.5-11.2zm-84.1 13.5c40.7 4.6 32.9 47.5.3 59.5-.1-20.7-.2-41.5-.3-59.5zm97.9 26.2c-15.2-22.1-32-28.1-50.1-4.4.7 9.2 12.1 19.8 18.4 26.2 12.9 3.3 30.2-9.5 31.7-21.8zm-50.9-60.8c8.5 17.5-18.6 29.2-24.6 11.7 2.8-6.2 20-23.4 24.6-11.7zm1.2-150.3c6.8 15.1-13.2 26.9-20.4 12.6-9.5-15.6 12.8-26.5 20.4-12.6zm-38.1-24.4c2.9-5.2 18.5 3.7 24.6 5.9-7.9 7.4-24.6 8.2-24.6-5.9zm-5.7 9.9c-5.8-3.1-14.6-1-14.3 6.8 4.4 15 30.5 5.1 14.3-6.8zm12.6 21.1c-3.8-1.7-9.4 3.1-7.9 7.1 4.9 7.1 16.8-.8 7.9-7.1z"/><path fill="#633" d="M454.2 215.3c3.4-.9 5.4 4.2 2.2 5.8-6.4 2.8-9.1-3.6-2.2-5.8zM426 197.1c4.5-6.7 9.2 3.1 4.1 6.7-4.1 2.9-5.2-3.9-4.1-6.7zm-26.4 23.7c3.6-.7 8.4 4 2.4 4 3 34.6 59.1 47.3 68.9 17.9 10.6-2.4 6.6 22.5 2.7 8.4-24.8 23.7-73.9 12.3-75.3-24.8-6.5 2.6-4.6-5.6 1.3-5.5zm107.8-57.6c14-6 11.3 26.7 2.5 7.9-2.4-1.8-6.3-5.4-2.5-7.9zm-53.2-28.5c13.1-9.8 26.8 18.3 1.6 4.4-1.5-.7-2.9-2.8-1.6-4.4zm30.1 56.6c14.9-15.2 29-3.3 22.9 15.4 8.1 2-.7 5.4-4.3 6-8.9-.4 6.7-20.2-4.6-22-6.9-.7-9.4 8.8-15.8 8.9-4.7-1.2-1-6.6 1.8-8.3zM433.4 158c1.8-1.2 3.5.8 4.5 3.1 13.4-24.4 35.9 10.1 16.7 13.7 2.1-36.8-11.5-1.3-18.9-8.2-2.7-1.6-5.2-6.8-2.3-8.6z"/><g fill="#F66"><path d="M508.8 230.1c0 .1.1.1 0 0 0 .1 0 .1 0 0z"/><path d="M499.2 235.4c15.6 19.2 35.4-11.7 11.2-17.2-9-.7-15.6 9.3-11.2 17.2z"/></g><path d="M417.9 162.9s0 .1 0 0c0 .1 0 .1 0 0zm-6.8 3.7c10.7 13.5 24.8-8.3 7.8-12-6.2-.5-10.9 6.5-7.8 12z" fill="#F66"/><path fill="#F93" d="M523 378.4c14.7 4.5 21 22.7 9 35.1-26.2 11-36.1-31.7-9-35.1zm-46.8 27.1c18.7 7.7 21.3 28.9.2 35.3-.1-11-.2-23-.2-35.3zm110.9 59.7c-11.1-5-23.7-17.8-29.7-28.5 5.1-16.7 17.2-31.9 36.5-28.7 1.5 25.6 28.5 66.7-6.8 57.2zm-46-20.6c25.7 11.5 11.4 42.2-11.9 29.2-18-13.3-11.4-50.8 11.9-29.2zM476.8 500c-8.6-44 26.5-38.2 42.9 0h-42.9zm72.4 0c14.3-18.7 40.2-24.9 51.9 0h-51.9z"/><path fill="#633" d="M235.6 467.9c.2-.1.3-.2.6-.4-2.4-6.1-.3-13.1 4.8-17.2-6-12.9 2.4-25.7 10.5-33.7-3.2-6.6-1.1-15 4.3-19.8-7.7-11.3-1.4-24.5 7.4-32-2.6-7 .3-15.5 7.1-19-1-7.5 3-16.8 9.7-20.7 29.2 6.9-9.6 143.3-22.7 174.9h-27.9c-5.8-10.4-3.9-25.2 6.2-32.1z"/><path fill="#FC0" d="M279.6 332c-.3.8-34.6 148.7-40.7 168h82.5c6.1-59.9 11.4-120.8-41.8-168z"/><path fill="#F93" d="M282.6 400.5c-26.1-11.4-.6-69.9-2.9-68.6 9.5 13.4 56.7 62.6 45.2 92.6-16.5-3.1-30.8-12-42.3-24z"/><path fill="#633" d="M303.4 305.8c-2.5-5.5-7.5-9.9-11.3-14.5-8.5-1.8 10.5 28.4 11.3 14.5zm18.3-12.2c-.7-3.4.1-7.3-1.6-10.4-5-4.7-6.5 28.8 1.2 21.3 2.2-3.3.8-7.2.4-10.9z"/><path fill="#FC0" d="M288.1 310.2c-46.3 57.3 52.1 168.3 95.2 79.4 9-60.9-45.9-124.7-95.2-79.4z"/><path fill="#FFF" d="M364.3 351.9c-29.3 5.2-42.6 25.1-49.3 40.8-4.2 9.8.5 21.2 10.4 25.2 35.4 14.3 69.2-9.9 61.2-50.6-2-10.5-11.8-17.3-22.3-15.4z"/><path fill="#FC0" d="M291.4 312.2c-54.8-29-38.9 25.7-7 16.9.2-1.1 7-16.9 7-16.9zm46.3-11s5.9-7.7 10.6-19.2c20.3-31.9 19.8 46.3-10.6 19.2z"/><path fill="#633" d="M294.4 289.6c-.8-5.9-10.1-3.1-8.7 2.3 1.4 5.7 9.5 2.8 8.7-2.3zm28-8.8c-2.5-3.8-9.9-.3-8.2 4.1 2.3 6.3 11.9 1.6 8.2-4.1z"/><path fill="#F93" d="M357.8 281.8c-4.8-4.9-8.6 15-8.4 18.2 5.3 10.4 12.1-13.1 8.4-18.2zm-77.5 40.1c-2-3.8-16-13.9-19.6-9.2-3.7 6.6 21.6 21.4 19.6 9.2z"/><path fill="#633" d="M338.9 364.1c-2.2-1-4.1 2.1-2.2 3.6 3.8 2.7 6.5-1.4 2.2-3.6zm13.3-4.4c-3.3-6.6-7.3 4.8-1.7 4.5 1.4-.7 1.8-2.9 1.7-4.5z"/><path fill="#F66" d="M301.7 357.7c-16.8-1.9-18.9 24.5-1.4 23.2 14.7 1.2 15.9-21.8 1.4-23.2zm62.5-29.9c-13.1-1.5-14.7 19.1-1.1 18.1 11.4.9 12.3-17 1.1-18.1z"/><path fill="#633" d="M339.6 327.1c5.8-4 10.4 6.2 7.8 10.7-5 6-12.3-6.5-7.8-10.7zm-32 13.1c6.4-4.4 11.5 6.9 8.6 11.9-5.5 6.6-13.5-7.4-8.6-11.9zm23.3-27.3c.2-.9.8-1.5 1.6-1.9 4.8-3.9 15 3.4 4.9 4 .2 0 .5-.1.7-.1-.5.1-1 .2-1.5.4.2-.1.4-.2.7-.3-2.4 1.9-7.1 2-6.4-2.1zm-35.5 14.5c2.4-7.7 14.4-5.3 7.7-.3.2-.1.3-.3.5-.4-2.3 3.4-8.6 8.2-8.2.7zm28.6 57.2c0-2.1 5.5-8 6-3.9.2-.2-.7.9-1 1.2 11.4 14.1 34 4.6 35.3-12.5-5.1-1.1.3-3.5 2.7-1.5 2.1 1.7.9 2.7-1.4 1.7 1.9 19.6-26.3 30.4-38.4 15.1-.1.3-.4 1.3-.4 1.2-.8 2.2-3.6.7-2.8-1.3z"/><path fill="#FFF" d="M342.3 327.1c.4-1.8 3.3-1.6 3.5.2v-.1c.7 3-4.3 2.8-3.5-.1zm-31.7 12.3c3.7-4.1 6 4.7.8 2.9-.9-.6-1.4-1.9-.8-2.9z"/><path fill="#F93" d="M322.7 473.8c-15.1-8.7-20.7-35.3 1.7-38.8-.5 12.8-1.1 27-1.7 38.8zM274 436c1.3 12-12.8 16-24 20.6 4.2-17.3 9-37.3 13.5-56.2 18 8.5 4.7 21.8 10.5 35.6zm26 45.3c1.2-31.5-33.7-22.1-38.8-1.3 4.3 10.7 37.8 15.2 38.8 1.3zm-2.2 17.3c6.2-5.4 16.2-11.7 24.1-8.5-.3 6.1-.5 9.9-.5 9.9h-24.9c.6-.5 1-1 1.3-1.4zm-58.9 1.4c.9-2.7 2.3-8 4.1-15.1 9.9-.7 23.7 4.2 26.3 15.1h-30.4zm75.4-197.4c13.7 2.8.3 15.8-7.6 11.1-5-4.9.6-13.4 7.6-11.1zm15.1-6.9c-.8 8.2-12.7 4.8-16.9 1.1 5.5-1.2 11.2-1.6 16.9-1.1zm-35.9 13.2c-.9 0-2.2-.2-3.5-.5 3.3-3 7-5.4 10.9-7.4.6 4.2-2.9 7.9-7.4 7.9z"/><path fill="#FFF" d="M142.9 160.2c1.7-5.1 7.9-7.8 13-7.5.4-5.4 5.4-10.1 10.9-8.4 5.2-30 34.4-26.5 37.7 2.3 5.6-2.6 12 2.7 10.3 8.7 44.5 20.8-77.5 22.5-71.9 4.9z"/><defs><path id="a" d="M0 0h750v500H0z"/></defs><clipPath id="b"><use xlink:href="#a" overflow="visible"/></clipPath><g clip-path="url(#b)"><path fill="#696" d="M656 403.7c23.2 9.6 44.9 23.3 63.1 40.7-25.1-47-37.9-100.6-36-153.8 44.5-16.7 160 280 56.1 212.3-36.9-10.3-98.5-62.9-83.2-99.2z"/><path fill="#BFD48C" d="M690.9 287.1c86.1 63.9 108 270.8 89.3 212.1-3-79.6-46.2-151.3-89.3-212.1zM658 400.3c42.5 13.3 73.2 49.5 96.7 85.7-97-255.7-49.5-182.1 5.8 9 7.7 9.4 20 38 .7 10.3-18.5-46.2-81.3-82.4-103.2-105z"/><path fill="#BFD48C" d="M664.1 416.2c11.5.4 95.4 87 85.8 93-24.8-30.6-62.8-65.8-85.8-93z"/></g><g clip-path="url(#b)"><path fill="#696" d="M25.7 312.8c46.9 4.1 76.9 100.1 81.2 148.6 78.8-218 56.8 90.3-11.5 76.3-49.6-62.7-73-145.4-69.7-224.9z"/><path fill="#BFD48C" d="M102 453.1C113.5 405.3 4.1 278 44.8 317.5c99.5 98.2 21.9 177.5 104.3 65.3-40.5 36.6-51.4 207.7-62.1 122.3-9.2-62.2-34.6-120.3-54.6-179.4 37.1 27.9 63.5 255.7 69.6 127.4z"/><path fill="#BFD48C" d="M106 525.4c11.9-38 21.4-99.7 42.3-126.9-15.4 32.6-25 120.3-42.3 126.9z"/></g><g clip-path="url(#b)"><path fill="#696" d="M687.4 190.4c-2.3-5.5-17.9-26.9-10.8-30.2 18-4.4 34.8 8.4 48.4 18.7 13.9 11.5 25.1 26.1 32.7 42.5 2.1 4.5 14.1 37.7 3.4 34.5-30.4-14-56.4-36.9-73.7-65.5z"/><path fill="#BFD48C" d="M763.1 253.5c-1.4-35.8-43-90.2-80.4-91.8-13 3.1-3.5-6.4 3.5-4.9 39.8 7.1 67.7 46.5 80.4 82.5 1.9 2.8 1.3 22.1-3.5 14.2z"/><path fill="#BFD48C" d="M756.1 252.5c-13.8-24.5-33.1-45.8-54-64.5-2.7-3.8-20-13.3-17-16.9 9.8-2 88.5 79.9 71 81.4z"/></g><g clip-path="url(#b)"><path fill="#696" d="M58.8 203.8c2.1-5.3 16-24.7 9.5-28C51.6 172 36.4 184 24 193.7c-12.6 10.8-22.7 24.4-29.5 39.6-1.9 4.2-12.4 35-2.6 31.8 27.8-13.2 51.4-34.7 66.9-61.3z"/><path fill="#BFD48C" d="M-10 263.1c3-36.4 38.2-86.8 78-85.3 2.6-3.7-5.9-5.4-8.6-4.9C22.9 180-2.2 216.6-13.4 250c-1.7 2.6-.9 20.4 3.4 13.1z"/><path fill="#BFD48C" d="M-3.6 262c12.3-22.8 29.8-42.7 48.8-60.2 2.5-3.7 18-12.3 15.4-15.8-9.6-1-79.6 73.7-64.2 76z"/></g><path d="M369.8 131.4c9.4-2.8 23 21 15 26.7-5.1-.1-24.5-23.3-15-26.7zm-33.9 51.8c2.8-9.4 30.2-7.4 30.6 2.4-3 4.1-33.1 7.4-30.6-2.4zm3.6-31.8c6.8-9.7 38.1 3.9 34.3 15.1-5.1 3.6-41-4.8-34.3-15.1zm287.2 107.4c-4.1 8.9-30.9 3.3-30-6.5 3.6-3.7 33.8-2.9 30 6.5zm-16.2-59.7c5.1 8.3-14.5 27.5-22.1 21.3-1.1-5 16.4-29.6 22.1-21.3zm21.4 23.9c2.8 11.5-28.2 25.9-34 15.6.6-6.2 30.7-27.6 34-15.6zm-493.3 26.5c3.6-6.4 11.6 1.5 6.4-8.9 5.1-8.7-4.3-1.5-7.2-6.9-2.7-1.8-2.4 2.9-2.6 4.3-.2 2-6.8 2.7-3.6 5.2 5.1-.4 3.2 8 7 6.3zm267.3 188.3c3.6-6.4 11.6 1.5 6.4-8.9 5.1-8.7-4.3-1.5-7.2-6.9-2.7-1.8-2.4 2.9-2.6 4.3-.2 2-6.8 2.7-3.6 5.2 5.1-.4 3.2 7.9 7 6.3z" fill="#C60"/></svg>