<svg xmlns="http://www.w3.org/2000/svg" viewBox="0 0 500 500"><path d="M24 88.63c-30.09 116.28-9.16 277.95 107.01 346.44C372.4 536.99 567.67 310.41 458.69 80.33c-16.55-46.14-27.07-49.26-59.96-12.03 0 0-223.58-11.87-342.72 36.94-8.56-5.7-19.72-21.84-32-16.61Z" fill="#ac99c9"/><path d="M28.08 100.2c-4.76 4.88-2.28 12.99-1.01 18.57-.33-1.45 17.47-9.68 19.38-10.48-3.86-4.17-13.06-13.94-18.37-8.09ZM442.7 71.53c.5.22.78.45.79.7-.95-22.67-21.78-27.09-27.16-3.66 2.37.04 22.15 1.09 26.37 2.97Z" fill="#9460a3"/><path d="M363.51 126.66c-40.33 1.21-33.73-46.91-27.01-33.72-7.41 38.25 56.64 41.22 50.43.5 7.5-12.91 10.34 34.47-23.42 33.23Zm-241.95 22.31c-40.33 1.21-33.73-46.91-27.01-33.72-7.41 38.25 56.64 41.22 50.43.5 7.5-12.91 10.34 34.47-23.42 33.23Z" fill="#221e20"/><path d="M119.88 416.73c18.11 5.15 30.44-16.59 32.94-31.33 1.01-9.79-7.45-15.9-16.64-17.96-33.35-12.04-49.46 39.36-16.3 49.29Zm307.86-35.18c27-22.6-15.75-70.61-40.63-45.92-19.76 18.4 19.87 61.4 40.63 45.92Z" fill="#fff"/><path d="M475.12 296.73C420.1 440.53-83.11 466.07 42.66 237.4c64.69-110.15 489.66-122.53 432.46 59.33Z" fill="#cabdde"/><path d="M76.91 193.99c5.3 17.39 16.84 24.24 36.72 23.57 9.93.93 18.26-5.26 18.37-15.42 6.81-50.26-61.02-50.87-55.09-8.14Z" fill="#cabdde"/><path d="M117.18 196.5c1.08-10.9-11.36-25.85-23.01-17.32-17.11 14.11 16.47 42.1 23.01 17.32Z" fill="#9460a3"/><path d="M422.38 156.21c19.12 21.33-.21 58.08-32.29 44.01-53.94-23.65-.04-80.08 32.29-44.01Z" fill="#cabdde"/><path d="M385.5 179.55c8.37 26.8 40.29-3 16.89-16.45-9.96-4.61-18.12 7.18-16.89 16.45Z" fill="#9460a3"/></svg>