<svg xmlns="http://www.w3.org/2000/svg" viewBox="0 0 750 500"><defs><clipPath id="a"><path fill="none" d="M0 0h750v500H0z"/></clipPath></defs><path fill="#ccf" d="M750 500H0V0h750z"/><g clip-path="url(#a)"><path d="M65.33 351.79c50.48 0 71.42-23.47 99.74-90.24 69.48-139.97 80.34 120.96 139.13-103.23 65.16-177.48 78.15 64.95 127.97 57.01 27.18-3.08 39.71-39.03 71.61 14.38 31.9 53.41 87.31 122.08 180.89 122.08H65.33Z" fill="#9c9"/><path d="M260.99 351.77c54.64-1.59 59.47-32.49 97.85-36.12 83.62 30.99 97.81-37.99 149.78-83.42 60.57-52.59 94.69 23.83 151.77 27.85 24.12-.29 42.8-20.23 64.53-30.7 122.39-50.01 194.49 120.99 308.96 122.39H260.99Z" fill="#363"/><path fill="#69f" d="M-90.32 350.79h965.45v165.23H-90.32z"/><path d="M31.59 503.5c89.46-84.76-7.03-119.86-19.45 4.16l19.45-4.16Z" fill="#363"/><path d="M15.7 507.61c17.23-5.17 16.71-23.6 11-37.2 12.06-18.21 4.38-23.63 1.94-42.08 4.22-8.72 13.43-17.22 2.29-25.63-20.54-8.96-15.96 15.95-19.75 26.77-13.81 10.28-18.05 20.17-16.31 36.42-24.65 27.25-20.51 55.29 20.83 41.72Z" fill="#696"/><path fill="none" stroke="#363" stroke-linecap="round" stroke-miterlimit="10" stroke-width="3" d="M24.82 409.02.83 511.18"/><path d="M22.68 506.4c68.95-104.82 274.5-106.45 346.54-4.16L22.68 506.4Z" fill="#063"/><path d="M115.65 506.75c14.02 5.82 32.27-33.34 23.63-41.87-8.64-8.53-51.29 30.39-23.63 41.87Zm-21.71-.67c16.55-20.88-16.61-57.91-39.08-50.64-12.12 15.77 11.13 63.84 39.08 50.64Zm272.97-24.39c1.08 10.64 18.75 32.12 29.29 23.44 6.97-10.22-32.59-51.87-29.29-23.44Zm-194.99 17.39c19.06-21.15-31.77-11.39-27.28 5.21 4.82 9.14 22.42-1.65 27.28-5.21ZM786.8-20.3v170.75c-24.27-7.07-45.51-32.37-43.47-70-22.9 25.31-60.09 33.56-56.14-16.38-48.53 25.54-67.32 3.1-59.6-45.42-20.84 12.55-35.75 16.41-39.8-14.35 0 0-42.03 24.88-43.21-24.61H786.8Z" fill="#393"/><path d="M755.93 44.57c8.71 4.94-4.29 30.31-12.23 29.27-7.94-1.04-4.95-39.02 12.23-29.27Zm-14.05-18.05c7.48 15.43-21.29 34.38-33.6 25.54-5.01-12.13 18.06-38.75 33.6-25.54Zm-90.02 19.22c-1.56-8.71 16.69-10.95 20.46-6.57.48 5.7-15.4 14.47-20.46 6.57Zm64 35.72c-16.81 7.86-1.34-22.13 8.51-16.22 4.85 4.8-5.34 13.84-8.51 16.22Zm1.34 38.62c-.19 12.8 19.92 12.8 19.73 0 .19-12.8-19.92-12.8-19.73 0Z" fill="#6c6"/><path d="M459.31 67.25c-.52 30.6-46.04 30.6-46.56 0 .52-30.6 46.04-30.59 46.56 0Z" fill="#fcf"/><path d="M235.97 167.66c-14.98 0-14.78-15.09-25.39-16.84-38.27-4.91-24.31-10.66-45.67-26.5-22.57-4.84-32.56 24.03-59.07-6.44C88.61 80.54 44.57 53.87 6.66 80.46c-18.64 13.23-29.61 36.88-50.94 45.09-27.45 5.96-73.01 1.51-72.12 42.12h352.37Z" fill="#fff"/><path d="M315.11 273.93c5.23 0 10.55.39 15.84 1.16 1.15-10.09 6.41-18.91 13.97-24.87-58.43-16.3-17.82-52.26-5.03-38.45 5.82 5.02 18.22 21.33 19.64 31.43 13.88-3.39 29.1 2.23 37.71 13.65 6.37-1.42 12.9-1.93 19.24-1.54 9.58-11.59 26.43-16.14 40.5-10.97.55-9.96 13.68-27.36 19.73-32.57 14.77-14.13 53.33 24.58-8.1 39.19 12.7 10.14 17.19 30.2 9.24 45.04 97.94-50.49 292.29-52.27 293.51 99.65l23.32 37.11c4.99 7.71-7.19 15.44-12.03 7.56l-12.88-20.5c-2.33 17.2-7.28 33.79-14.83 49.56l-12.98 100.09h-70.18l-5.8-44.71c-2.83-1.61-6.34 44.29-7.15 44.71h-70.18l-3.98-30.72c-31.88.86-63.53-4.02-92.76-13.89l-5.79 44.61h-70.18l-12.76-98.36c-14.65-14.58-26.63-30.99-35.23-48.72-137.54 69.88-221.52-133.85-52.88-148.45Z" fill="#96c"/><path d="M424.03 489.22c66.05 50.75 163.33 62.52 241.78 35.62-32.03-49.03-205.8-79.67-241.78-35.62Z" fill="#fc9"/><path d="M585.57 320.54c.49-27.33 41.1-27.33 41.59 0-.49 27.33-41.11 27.32-41.59 0Zm6.78 0c.1 18.33 27.94 18.32 28.03 0-.1-18.33-27.94-18.33-28.03 0Zm52.59-17.41c.49-27.33 41.11-27.33 41.59 0-.49 27.33-41.1 27.33-41.59 0Zm6.78 0c.1 18.33 27.94 18.33 28.03 0-.1-18.33-27.94-18.32-28.03 0Zm29.23 55.82c.49-27.33 41.1-27.32 41.59 0-.49 27.33-41.11 27.33-41.59 0Zm6.78 0c.1 18.33 27.94 18.33 28.03 0-.1-18.32-27.94-18.32-28.03 0Z"/><path d="M308.64 345.84c-2.28-2.26-5.37-2.95-8.25-1.84-15.58 5.96-32.53 5.97-48.05-.04-2.81-1.08-5.78-.41-7.97 1.78-10.82 16.19 17.93 37.52 32.07 35.83 13.86 1.93 42.96-19.94 32.2-35.72Z" fill="#fff"/><path d="M261 315.83c5.68 9.67-1.39 13.75-6.92 4-5.68-9.67 1.39-13.75 6.92-4Zm30.98 0c-5.68 9.67 1.39 13.75 6.92 4 5.68-9.67-1.39-13.75-6.92-4Z"/><path d="M462.61 286.65c9.49-23.42-26.03-37.94-35.71-14.67-9.21 23.64 25.68 37.96 35.71 14.67Z" fill="#fff"/><path d="M445.98 286.89c3.94-9.59-.43-20.54-9.77-24.85-21.75 7.11-4.3 52.9 9.77 24.85Z"/><path d="M385.42 286.65c9.49-23.42-26.03-37.94-35.71-14.67-9.21 23.64 25.68 37.96 35.71 14.67Z" fill="#fff"/><path d="M368.78 286.88c3.94-9.59-.43-20.54-9.77-24.85-21.75 7.11-4.3 52.9 9.77 24.85Z"/><path fill="#96c" d="m449.15 465.53 13.48 103.94h70.18l13.86-106.88-97.52 2.94z"/><path d="M616.95 264.4c2.96-.54 12.16 1.92 12-3.39.86-4.27-.15-23.84-6.78-12.12v8.74c-5.32-1.96-13.34 4.15-5.22 6.78Zm-40.1-82.31c-20.78 1.88-19.92-.4-4.21 13.14l4.21-13.14Z"/><path d="M572.05 187.8c6.24-20.5 37.26-16.74 38.77 4.27 23.71-12.46 53.09 11.08 45.86 37.01 4.87 4.68 30.91 11.91 24.05 22.52-5.75 11.11-24.38-7.22-30.85-9.17-21.15 25.96-65.11 3.96-56.44-28.82-13.97 2.07-26.05-12.37-21.38-25.8Z" fill="#f99"/><path d="M581.07 189.1c-2.3 6.84 8.49 10.29 10.59 3.39 2.3-6.84-8.49-10.29-10.59-3.39Z"/><path d="M625.57 239.22c34.02 16.63 48.07-6.28 18.48-29.35-34.02-16.63-48.06 6.28-18.48 29.35Z" fill="#fc9"/></g></svg>