<svg xmlns="http://www.w3.org/2000/svg" viewBox="0 0 500 500"><path d="M429.58 90.24c11.95 14.65 15.18 37.8 5.53 53.67 55.45-6.62 90.37 107.18 18.3 102.11 68.55 12.94 31.42 138.79-30.49 113.92 51.37 50.33-44.2 125.5-81.46 66.25 6.14 60.78-93.59 72.11-110.13 17.47-19.22 58.97-115.54 44.25-116.31-18.96-46.25 76.61-132.78-19.42-59.85-61.08-66.2 11.5-64.05-54.08-3.12-62-45.06.94-43.98-80.07 5.37-68.78-77.79-56.24 21.09-193.61 97.47-128.26-31.04-70.24 79-91.57 92.35-41.86-1.5-71.43 133.47-47.97 108.68 19.1 17.24-12.96 59.86-10.86 73.67 8.42Z" fill="#ef804e"/><path d="M342.27 173.18c76.81-48.06-56.45-111.47-36.24-6.96 0 0-97.84-8.22-153.75 26.31-31.67-89.13-117.02 37.38-19.73 33.71-93.26 277.44 404.12 193.37 209.72-53.06Z" fill="#f8b858"/><path d="M314.16 196.68c-1.6-22.28-25.11 2.48-8.73 7.83 4.38 1.43 9.06-3.23 8.73-7.83Zm-135.02 21.3c9.05-8.01-9.61-19.81-9.05-4.81 1.03 6.03 6.03 6.97 9.05 4.81Z" fill="#1c1d1c"/><path d="M272.74 347.8c-5.65-2.44-11.06-5.5-16.18-8.89-8.83-30.68-12.56-61.95-15.13-95.64 82-68.57-81.16-59.06-2.47.09 2.59 34.03 6.36 65.62 15.36 96.69-1.81 1.13-18.04 23.5-10.09 19.67 2.86-6.33 6.67-12.14 11.28-17.32 1.37-1.52 21.13 12.95 17.24 5.4Z" fill="#060707"/><path d="M346.06 155.29c-11.92 18.74-37.5 15.8-32.3-9.56 2.28-38.83 57.78-22.84 32.3 9.56ZM137.6 211.47c-32.32 17.95-56.01-39.97-14.12-37.04 13.24 4.85 25.38 25.07 14.12 37.04Z" fill="#f0867e"/><path d="M277.47 259.12c1.57-3.8-4.12-6.12-6-2.8-2.05 3.61 4.48 5.79 6 2.8Zm23.89 23.89c1.57-3.8-4.12-6.12-6-2.8-2.05 3.61 4.48 5.79 6 2.8Zm-19.58 25.44c1.57-3.8-4.12-6.12-6-2.8-2.05 3.61 4.48 5.79 6 2.8Zm-71.04 5.24c-1.44 3.85 4.32 5.98 6.09 2.6 1.93-3.68-4.67-5.64-6.09-2.6Zm-24.68-23.08c-1.44 3.85 4.32 5.98 6.09 2.6 1.93-3.68-4.67-5.64-6.09-2.6Zm18.72-26.08c-1.44 3.85 4.32 5.98 6.09 2.6 1.93-3.68-4.67-5.64-6.09-2.6Z" fill="#c38042"/><path d="M348.2 235.3c-8.12 3.69-18.62 5.8-27.35 3.24-24-20.91 50.98-31.09 27.35-3.24Z" fill="#f49f55"/><path d="M328.93 235.73c.46-1.95 2.54-11.05.49-12.38-4.13-3.14-3.66 18.67-.49 12.38Zm8.69-1.23c.38-1.95 2.06-11.05.4-12.38-3.4-3.09-2.93 18.69-.4 12.38Z" fill="#f8b858"/><path d="M178.63 252.56c-8.12 3.69-18.62 5.8-27.35 3.24-24-20.91 50.98-31.09 27.35-3.24Z" fill="#f49f55"/><path d="M159.36 253c.46-1.95 2.54-11.05.49-12.38-4.13-3.14-3.66 18.67-.49 12.38Zm8.69-1.24c.38-1.95 2.06-11.05.4-12.38-3.4-3.09-2.93 18.69-.4 12.38Z" fill="#f8b858"/></svg>