<svg xmlns="http://www.w3.org/2000/svg" viewBox="0 0 800 500"><path fill="#f0ebdf" d="M0 0h800v500H0z"/><path d="M74.57 278.38C190.7 179.09 301.98 101.04 365.25 60.47c40.5-9.22 68.97 29.95 92.22 57.22 19.87 15.64 52.58 67.43 78.69 43.04C663.94-22.54 708.18-50.85 800 175.06v102.62l-725.43.69Z" fill="#f0ebdf"/><path d="M94.89 367.13c1.42-.35 2.84-.44 4.26-.46 1.42 0 2.84.06 4.26.41a.696.696 0 0 1 0 1.35c-1.42.34-2.84.41-4.26.41-1.42-.03-2.84-.12-4.26-.46a.642.642 0 0 1-.47-.77c.06-.24.25-.41.47-.47Zm14.71 13.16c1.68-.35 3.36-.44 5.05-.46 1.68 0 3.36.06 5.05.41a.696.696 0 0 1 0 1.36c-1.68.34-3.36.41-5.05.41-1.68-.03-3.36-.12-5.05-.46a.637.637 0 0 1-.49-.75c.05-.26.25-.44.49-.49Zm29.42-13.93c2.07-.35 4.14-.44 6.2-.46 2.07 0 4.14.06 6.2.41.37.06.63.42.57.79a.69.69 0 0 1-.57.57c-2.07.34-4.14.41-6.2.41-2.07-.03-4.14-.12-6.2-.46a.642.642 0 0 1-.52-.73.65.65 0 0 1 .52-.52Zm295.97 84c1.55-.35 3.11-.44 4.66-.46 1.55 0 3.11.06 4.66.41a.7.7 0 0 1 .53.83.7.7 0 0 1-.53.53c-1.55.34-3.11.41-4.66.41-1.55-.03-3.11-.12-4.66-.46a.636.636 0 0 1 0-1.24Zm-37.15 0c1.29-.35 2.58-.44 3.87-.46 1.29 0 2.58.06 3.87.41.37.1.6.48.5.86a.72.72 0 0 1-.5.5c-1.29.34-2.58.41-3.87.41-1.29-.03-2.58-.12-3.87-.46a.64.64 0 0 1-.45-.79c.06-.23.24-.4.45-.45Zm18.57 17.8c1.94-.35 3.87-.44 5.81-.46 1.94 0 3.87.06 5.81.41a.7.7 0 0 1 .56.8c-.05.29-.28.51-.56.56-1.94.34-3.87.41-5.81.41-1.94-.03-3.87-.12-5.81-.46a.633.633 0 0 1-.51-.73.64.64 0 0 1 .51-.51ZM685.8 294.24c1.16-.35 2.32-.44 3.48-.46 1.16 0 2.32.06 3.48.41.37.11.59.5.48.88-.07.24-.26.41-.48.48-1.16.34-2.32.41-3.48.41-1.16-.03-2.32-.12-3.48-.46a.641.641 0 0 1-.43-.81.62.62 0 0 1 .43-.43Zm24 3.87c1.55-.35 3.11-.44 4.66-.46 1.55 0 3.11.06 4.66.41a.7.7 0 0 1 .53.83.7.7 0 0 1-.53.53c-1.55.34-3.11.41-4.66.41-1.55-.03-3.11-.12-4.66-.46a.636.636 0 0 1 0-1.24Zm-4.64-12.39c1.17-.35 2.34-.44 3.5-.46 1.17 0 2.34.06 3.5.41.37.11.59.5.48.88-.07.24-.26.41-.48.48-1.17.34-2.34.41-3.5.41-1.17-.03-2.34-.12-3.5-.46a.655.655 0 0 1-.44-.81c.06-.22.24-.37.44-.44Z" fill="#212220"/><path d="M674.29 277.67h113.39c10.39-25.92 13.12-110.67-26.29-55.42 15.06-142.54-38.05-49.22-42.92 4.55-5.89-39.58-33.66-52.09-28.03-.59-27.59-31.92-23.48 36.27-16.14 51.46Z" fill="#38af77"/><path d="M693.25 277.67h79c8.15-18.32 7.71-75.71-18.32-38.61 10.49-99.27-26.52-34.29-29.9 3.17-3.5-27.56-23.94-34.79-19.53-.41-19.22-22.24-16.36 25.27-11.25 35.85Z" fill="#1d9b96" opacity=".56"/><path d="m752.8 160.54-1.5 13.88-1.59 13.87-3.32 27.72-3.51 27.7-1.83 13.84-1.93 13.83a.676.676 0 0 1-1.34-.16l1.51-13.88 1.6-13.87 3.36-27.72 3.55-27.69 1.84-13.84 1.93-13.83c.05-.34.36-.57.7-.53.33.05.57.35.53.68Zm-53.09 43.21c2.23 5.64 4.38 11.3 6.52 16.97 2.14 5.67 4.2 11.37 6.3 17.05l6.12 17.12c2 5.72 3.99 11.44 5.88 17.2.12.35-.08.74-.43.85a.678.678 0 0 1-.84-.39c-2.23-5.63-4.37-11.31-6.5-16.98l-6.27-17.06c-2.02-5.71-4.1-11.41-6.08-17.13-2-5.72-3.97-11.45-5.87-17.21a.62.62 0 0 1 .39-.78c.31-.1.65.06.77.36Zm-19.4 22.9 12.3 22.94 6.18 11.45c2.06 3.82 4.14 7.63 6.17 11.47.17.33.05.74-.28.91-.31.17-.7.06-.89-.23-2.35-3.67-4.57-7.4-6.75-11.17a487.3 487.3 0 0 1-6.34-11.41c-2.02-3.85-4.05-7.7-5.96-11.61-1.92-3.9-3.79-7.83-5.55-11.81-.14-.31 0-.68.31-.82.3-.13.65 0 .8.27Zm101.56-10.86c-2.08 4.82-4.15 9.64-6.14 14.49-1.98 4.85-3.95 9.71-5.78 14.62-1.88 4.89-3.67 9.82-5.4 14.77-1.74 4.94-3.4 9.92-5.06 14.9a.672.672 0 0 1-1.29-.38c1.32-5.1 2.83-10.15 4.46-15.16s3.41-9.97 5.28-14.9c1.92-4.91 3.89-9.79 6.03-14.61 2.14-4.81 4.38-9.58 6.8-14.26.16-.3.53-.42.83-.27.29.15.41.5.28.8Z" fill="#285827"/><path d="M401.63 415.34H221.16c-38.34-25.17-79.16-252.39-9.1-143.99-33.1-255.65 63.25-214.4 81.9 4.76 18.15-76 52.3-44.22 54.07 11.96 79.55-175.63 88.7 62.58 53.6 127.27Z" fill="#38af77"/><path d="M379 415.34H237.38c-30.95-19.65-61.4-182.28-7.14-105.18-26.63-184.32 51.53-153.94 64.27 3.48 12.69-53.91 41.72-32.63 42.43 8.74 57.98-128.81 71.34 45.98 42.06 92.97Z" fill="#1d9b96" opacity=".56"/><path d="M235.47 129.81c12.2 89.82 25.28 190.66 36.3 280.63.05.41-.24.79-.66.84a.759.759 0 0 1-.84-.65c-8.75-64.14-19.35-145.94-27.45-210.44-2.24-17.44-6.63-52.73-8.73-70.2-.05-.38.22-.72.6-.77.37-.05.72.22.77.59Zm-40.98 133.45c17.25 46.71 36 99.33 52.06 146.46.13.39-.08.82-.47.96a.755.755 0 0 1-.95-.45c-12.39-33.34-27.51-76.05-39.3-109.76-3.18-9.12-9.54-27.59-12.64-36.75a.7.7 0 0 1 .43-.88c.35-.12.74.06.87.41Zm129.38-17.22c-4.79 51.65-10.81 109.53-16.86 161.05-.05.41-.42.71-.83.66a.755.755 0 0 1-.66-.82c3.35-36.89 8.32-83.83 12.37-120.81 1.1-10 3.42-30.22 4.61-40.22.04-.38.39-.65.77-.61.37.04.64.38.61.75Zm75.1 3.37c-12.38 51.11-32.78 100.29-51.03 149.49l-3.63 9.88a.752.752 0 0 1-1.42-.5l3.41-9.97c16.12-46.21 35.08-92.02 48.53-139.1l2.8-10.14c.1-.37.48-.6.85-.49.36.1.58.47.48.83Z" fill="#285827"/><path d="M449.82 324.21c-16.25 35.42-5.51 132.25-67.28 113.39 25.91-44.62 22.19-127.94 16.82-229.58l50.46 116.19Z" fill="#fcd058"/><path d="M509.18 195.41c44.7 106.3 167.95 97.02 113.21 216.92-6.9 11.2-18.34 19.26-31.04 22.7-18.67 5.79-114.14 6.16-54-18-94.77-15.47-147.44-197.49-141.75-216.76l113.59-4.86Z" fill="#fddb7f"/><path d="M511.54 319.69c-12.52 35.71-11.03 101.71-45.23 120.21-5.38.53-40.22 2.24-32.1-8.52 43.75-38.74-.22-102.91 20.48-151.53" fill="#fddb7f"/><path d="M451.5 351.58c-2.59-23.66-7.62-49.36 3.19-71.73-7.53 23.33-2.41 47.78-3.19 71.73Zm60.04-31.89a313.01 313.01 0 0 1-18.22 73.76c5.63-23.88 12.1-50 18.22-73.76Zm39.98 18.61c-19.41 6.55-27.07 27.5-25.6 46.55.79 11.5 4.39 22.85 11.42 32.18-5.51-5.57-9.27-12.79-11.5-20.35-6.84-21.96.36-52.92 25.69-58.38Z" fill="#212220"/><path d="M533.63 216.19c-3.33 5.22-10.49 20.24-17.37 14.02 3.88 15.85-58.15 29.56-64.73 16.43-16.23 14.02-94.72-5.27-81.75-35.39-27.96-1.26-31.02-73.37-13.74-84.54-8.79-20.38 15.34-48.46 35.23-53.49.56 1.45 2.46 3.16 3.5 4.31 7.36-14.79 35.04-11.28 50.43-13.9.12 1.96 1.45 4.37 2.34 6.13 20.97-16.24 85.16 13.89 77.11 41.04 9.23-1.44 31.81 49.18 8.98 105.41Z" fill="#ee8e3a"/><path d="M441.5 79.59c.7 5.97.88 11.99.73 17.99-.06 2-.16 4-.35 6a.39.39 0 0 1-.42.35.388.388 0 0 1-.35-.38l-.03-5.98c0-5.98-.16-11.94-.29-17.93-.02-.43.66-.49.71-.05Zm-37.6-.36c4.14 7.82 7.5 16.05 10.17 24.48.88 2.81 1.67 5.66 2.36 8.52a.4.4 0 0 1-.3.48.407.407 0 0 1-.48-.27c-2.61-8.4-5.53-16.7-8.92-24.82-1.13-2.71-2.29-5.4-3.49-8.08-.19-.41.45-.74.66-.32Zm-47.63 58.69c9.21 1.06 18.45 1.85 27.72 2.22 3.09.13 6.18.23 9.27.3.22 0 .4.19.39.41 0 .21-.18.38-.39.39-3.1.12-6.21.15-9.31.08-6.21-.13-12.41-.56-18.58-1.31-3.08-.37-6.15-.83-9.21-1.37-.45-.07-.36-.79.11-.73Zm3.34 57.96c10.16-3.32 20.26-6.8 30.25-10.6l9.98-3.83c.21-.08.44.02.52.23.08.2-.02.42-.21.51a231.3 231.3 0 0 1-9.86 4.19c-6.64 2.64-13.37 5.05-20.19 7.19-3.41 1.08-6.84 2.07-10.29 3-.43.12-.66-.56-.21-.7Zm55.47 9.65c-2.99 8.89-8.95 26.79-11.89 35.69-.15.47-.9.27-.77-.23 2.44-9.1 5.37-18.06 8.59-26.92 1.07-2.95 2.21-5.88 3.38-8.79.16-.42.84-.19.69.25Zm34.56 4.74c.84 8.19 1.38 16.83 1.53 25.07.02.49-.76.54-.8.05-.63-6.01-1.03-12.77-1.29-18.8-.09-2.09-.14-4.19-.17-6.28-.01-.45.7-.5.73-.04Zm36.6-10.19c3.56 9.31 7.34 18.53 11.46 27.6 1.37 3.02 2.76 6.04 4.17 9.05.09.2 0 .44-.19.53-.19.09-.42.01-.52-.17-1.59-2.93-3.1-5.9-4.54-8.91-2.87-6.02-5.48-12.16-7.81-18.41-1.17-3.12-2.26-6.27-3.27-9.45-.14-.43.53-.68.69-.24Zm5.04-69.33c10.11-2.49 20.16-6.93 30.09-10.05.47-.16.74.57.27.75-9.88 3.84-19.72 8.14-30.22 10.02-.45.08-.59-.62-.14-.72Zm2.13 40.4c13.16 2.09 27.57 4.73 40.6 7.49.48.1.37.87-.15.79-3.4-.53-6.8-1.1-10.18-1.69-5.07-.89-15.25-2.79-20.29-3.78-3.38-.66-6.75-1.36-10.11-2.08-.44-.09-.33-.8.13-.72Zm-9.15-95.06c-2.77 12.58-6.15 26.33-9.57 38.75-.12.48-.89.33-.78-.18.71-3.25 1.45-6.5 2.21-9.73 1.15-4.84 3.57-14.56 4.83-19.37.84-3.22 1.71-6.43 2.6-9.64.12-.44.82-.29.71.18Z" fill="#ce5f29"/><path d="M478.3 111.95c14.06-24.91 36.68 4.25 10 12.69l-10-12.69Zm-71.18 1.21c-13.5-22.83-34.1 7.89-8.08 13.65l8.08-13.65Z" fill="#fddb7f"/><path d="M404.41 115.71c-8.76-14.9-22.17 5.26-5.26 8.89l5.26-8.89Zm78.76-2.17c5.85-16.27 22.76 1.07 6.82 7.77l-6.82-7.77Z" fill="#c2914d"/><path d="M408.96 110.14c-20.52 13.79-26.72 61.48-18.73 83.73 12.21 24.15 71.36 18.12 93.42 12.28 13.84-4.38 20.9-17.82 19.35-31.81.14-63.27-35.95-89.32-94.04-64.2Z" fill="#fddb7f"/><path d="M424.54 187.05c-.81 13.24 17.58 11.6 26.56 10.33 39.45-17.35-27.16-58.19-26.56-10.33Z" fill="#f0ebdf"/><path d="M454.71 167.26c-2.75-7.44-3.93-43.4-16.99-34.75-3.81 11.29-4.33 23.75-5.84 35.58 7.46.83 15.42.38 22.84-.83Z" fill="#c2914d"/><path d="M431.87 168.09c2.36 9.79 17.27 20.38 22.84-.83-1.8-3.23-20.43-4.22-22.84.83Zm-17.99-17.91c0 5.04 7.92 4.91 7.76-.12 0-5.04-7.92-4.91-7.76.12Zm49.45-.78c0 5.04 7.92 4.91 7.76-.12 0-5.04-7.92-4.91-7.76.12Z" fill="#212220"/><path fill="none" stroke="#212220" stroke-linecap="round" stroke-linejoin="round" stroke-width="1.66" d="m444.61 179.88.15 9.57"/><path d="M604.94 422.3c48.74-8.57 63.93-69.51 46.58-110.26-14.92-34.27-32.68-77.93-9.92-112.75 1.69-2.48 3.59-4.79 5.56-7.04 3.39-3.79 9.23.78 6.25 4.99-6.36 8.4-10.15 18.26-11.21 28.59-1.14 10.42.25 21.01 2.66 31.25 3.77 15.71 10.18 31.09 16.72 46.03 5.06 10.7 8.11 22.42 9.05 34.2 2.4 29.33-7.36 61.5-31.61 79.75-9.59 7.17-21.27 11.49-33.11 12.51-4.66.29-5.53-6.36-.96-7.27Z" fill="#fddb7f"/><path d="M640.04 179.8c-.05-4.22 6.59-8.45 7.57-2.93 5.52-8.96 18.24-20.49 16.76-2.15 6.12-8.58 14.65 5.64.53 12.48 19.11 14.96-38.45 47.53-24.85-7.4Z" fill="#ee8e3a"/><path d="M529.87 242.63c.81.57 1.18.9 1.65 1.78.29.44-.02 1.07-.55 1.07-1.25 0-2.27-1.23-2.13-2.45.06-.48.66-.69 1.03-.39Zm13.22 14.5c.96.77 1.58 1.29 2.37 2.25.34.4.02 1.06-.5 1.05-1.5 0-2.84-1.37-2.87-2.86-.01-.51.64-.79 1.01-.44Zm71.93 62.25c.75.78 4.21 6.98 2.5 7.29a.6.6 0 0 1-.59-.23c-1.47-1.98-2.42-4.21-2.91-6.62-.12-.56.67-.91 1-.45Zm-12.11-.14c.85.54 3.98 4.64 2.35 5.19-1.17.42-4.98-6.15-2.35-5.19Z" fill="#212220"/><path d="M800 268.76c-27.96 31.38-22.89 87.15-31.49 126.73-52.33-158.85-93.56-51.15-67.98 49.8-51.3-57.48-69.5-7.25-49.1 20.43-12.83-2.34-14.62-4.92-22.45-5.25-19.2.93-18.81 25.5-13.19 39.18h184.2v-230.9Z" fill="#7fbe75"/><path d="M800 359.08c-20.28 17.26-17.66 53.25-23.83 77.16-32.57-89.11-73.29-38.4-51.44 30.32-36.91-33.57-53.41-7.19-37.15 12.44-19.49-7.69-36.45.3-26.97 20.66H800V359.08Z" fill="#7fbe75" opacity=".34"/><path d="m718.67 331.65 5.89 20.33 5.77 20.36 11.54 40.73 11.29 40.8 5.64 20.4 5.51 20.44c.09.33-.11.67-.44.76-.33.09-.67-.1-.76-.43l-5.89-20.33-5.76-20.37-11.51-40.74-11.26-40.81-5.62-20.41-5.51-20.44c-.08-.3.1-.62.4-.7.3-.08.61.09.7.39Zm-53.85 100.37 14.92 15.58 14.96 15.53 15.03 15.47 15.06 15.44c.24.24.24.64 0 .88s-.62.24-.87 0l-7.8-7.46-7.69-7.57c-5.1-5.08-10.14-10.22-15.15-15.39-4.97-5.2-9.94-10.41-14.82-15.7l-7.29-7.96-7.18-8.06c-.21-.24-.19-.6.05-.8.23-.2.58-.19.79.03Zm-36.85 39.59c4.12 2.08 8.21 4.23 12.29 6.4 4.08 2.16 8.12 4.39 12.19 6.58l12.1 6.74c4.01 2.28 8.02 4.57 11.99 6.94.3.18.39.56.21.85a.63.63 0 0 1-.81.24c-4.13-2.08-8.2-4.24-12.28-6.42l-12.17-6.62c-4.03-2.26-8.07-4.48-12.08-6.77-4.01-2.29-8.02-4.58-11.98-6.96a.57.57 0 0 1 .55-1Zm165.27-156.87-.85 22.48-.97 22.48-1.95 44.95-2.21 44.94-1.11 22.47-1.24 22.46c-.02.34-.31.61-.66.59a.63.63 0 0 1-.59-.65l.85-22.48.99-22.48 1.98-44.95 2.24-44.94 1.13-22.47 1.25-22.46c.02-.31.29-.56.6-.54.31.02.55.28.54.59Z" fill="#285827"/><path d="M.52 302.35c24.9 29.44 47.19 79.9 57.77 116.98 39.35-49.13 63.84-5.94 63.18 38.97 47.39-78.42 74.19-88.78 75.21 14.88 18.3-14.87 45.25 4.91 36.57 26.83H.24l.28-197.65Z" fill="#7fbe75"/><path d="M.5 359.16c22.83 20.98 43.27 56.94 52.97 83.35 33.1-31 56.41-13.19 57.93 27.77 35.82-47.73 69.26-69.14 68.96 10.6 13.2-9.65 41.64.87 33.54 19.12H.24L.5 359.16Z" fill="#7fbe75" opacity=".34"/><path d="M10.01 363.68c7.64 42.8 12.49 86.1 14.42 129.54a.68.68 0 0 1-.64.71.662.662 0 0 1-.7-.63c-2.36-32.47-5.5-64.89-9.77-97.17-1.42-10.76-2.92-21.51-4.52-32.25-.05-.34.18-.65.52-.7.33-.05.64.18.7.5Zm67.02 61.81c-5.34 22.92-9.44 46.09-12.37 69.43-.1.82-1.41.74-1.34-.13 1.28-17.67 4.1-35.21 8.06-52.47 1.33-5.75 2.8-11.47 4.46-17.14.21-.73 1.37-.48 1.2.31Zm99.89-15.55c-7.26 26.85-16.64 53.08-24.2 79.85l-1.51 5.35c-.12.43-.57.68-1 .56a.816.816 0 0 1-.57-.95c1.59-7.26 3.49-14.46 5.5-21.61 4.08-14.28 8.73-28.39 13.38-42.49l6.97-21.12c.28-.83 1.65-.56 1.42.42Zm38.43 68.36c-5.67 6.82-12.85 12.48-20.89 16.24-.88.41-1.6-.85-.8-1.4 5.37-3.75 10.6-7.52 15.64-11.68 1.68-1.38 3.32-2.79 5-4.2.67-.57 1.62.35 1.06 1.04Z" fill="#285827"/><path d="M176.01 112.72H62.09c-8.41-62.06 44.53-100.49 60.34-19.45 8.54-32.02 35.21-20.34 36.18 7.58 6.62-13.35 21.8-.62 17.4 11.87Z" fill="#fff"/></svg>