<svg xmlns="http://www.w3.org/2000/svg" viewBox="0 0 500 500"><path d="M94.71 20.25c75.03 26.8 59.49 145.08-27.97 117.33C18.33 110.26 20.78-.91 94.71 20.25Zm331.64 20.72c120.74-49.26 30.39 184.82-29.7 68.58-3.13-24.54 9.24-54.25 29.7-68.58Z" fill="#383a3a"/><path d="M221.12 37.98c-306.87 6.76-275.77 499.73 49.15 441.83C585.74 439.43 553.4-4.4 221.12 37.98Z" fill="#d9dddc"/><path d="M139.11 238.53c99.15-93.41-1.76-170.01-71.46-52.77-40.53 59.57 23.76 94.97 71.46 52.77Zm280.55 16.04c36.27-57.68-48.96-156.23-108.91-109.32-51.21 56.17 50.88 180 108.91 109.32Z" fill="#383a3a"/><path d="M367.29 213.18c27.93-13.46-22.52-42.62-23.45-13.93.81 14.27 14.37 17.5 23.45 13.93Zm-237.98-26.19c4.29-32.3-44.83-2.37-20.47 13.18 8.74 3.34 18.8-4.61 20.47-13.18Z"/><path d="M240.58 266.41c-3.61-3.88-25.22 12.1-29.56 15.15 1.46-24.98 5.25-49.86 11.32-74.14 11.42 3.4 24.99-6.82 14.84-17.46-14.27-13.78-46.46 3.12-18.2 16.36a406.32 406.32 0 0 0-11.57 76.35c-2.78-2.66-13.31-14.16-16.7-10.87-.48.85-.17 1.93.68 2.4 6.66 3.06 11.26 9.47 16.68 13.68 9.97-7.01 19.98-14.62 31.58-19.15.9-.38 1.31-1.42.93-2.32Z" fill="#060707"/><path d="M386.94 109.88c-22.06 13.73-70.16-15.25-38.24-37.75 24.95-15.2 63.48 25.23 38.24 37.75Zm35.29 15.41c4.3-6.36-3.28-16.93-11.3-15.35-16.6 3.28 2.69 28.11 11.3 15.35Zm-319.95-17.76c9.39-25.44-34.2-7.62-17.6 8.86 6.86 5.77 15.23-1.41 17.6-8.86Z" fill="#f8fbfc"/></svg>