<svg xmlns="http://www.w3.org/2000/svg" viewBox="0 0 750 500"><path fill="#cfc" d="M0 0h750v500H0z"/><path d="M750 367.4V500H0V378.97c274.7-199.58 437.65 157.99 750-11.57Z" fill="#9c9"/><path d="M678.77 444.27c9.42 35.58-403.3 35.58-393.85 0-9.42-35.58 403.3-35.58 393.85 0Zm-642.76 44.2c-10.37-9.22-14.61-24.59-20.13-38.27C-17.5 433.29 40 528 36.01 488.47Zm12.03-13.31c.33-5.73 1.57-28.37-8.05-17.37-7.71 20.97 17.92 53.02 8.05 17.37Zm28.4-24.49c-12.46-17.64-20.05 59.16-4.55 36.01.97-9.94 8.19-26.55 4.55-36.01Zm25.53-99.89c-7.49-15.04-12.47-60.85-31.92-42.11-14.04 15.69 32.1 100.98 31.92 42.11Zm50.01-47.84c3.17-15.31-6.09-71.19-21.81-34.26-5.88 37.43 24.34 131.82 21.81 34.26Zm36-34.25c-2.47 10.3-37.17 111.52-6.32 86.31 3.88-13.19 46.71-115.51 6.32-86.31Zm514.53 132.5c-6.28-9.74-19.61-40.79-26.36-26.42-1.01 2.16-1.1 4.65-.33 6.91 4.91 14.56 29.43 46.9 28.21 24.14a9.395 9.395 0 0 0-1.52-4.62Zm17.26-12.56c-1.91-7.91-1.44-53.33-13.04-37.18-1.66 7.55 5.02 57.85 13.04 37.18Zm16.85-30.58c-17.3-3.19-10.55 52.05-.99 26.37-2.23-8.9 12.05-22.5.99-26.37Z" fill="#696"/><path d="M712.47 100.88c-6.24 0-11.85 2.72-15.7 7.03-1.33-29.97-46.66-29.93-47.95.03-14.79-3.74-30.06 7.2-31.39 22.19H731.9c5.95-13.41-4.65-29.57-19.43-29.24Zm-671.98 0c6.24 0 11.85 2.72 15.7 7.03 1.33-29.97 46.66-29.93 47.95.03 14.79-3.74 30.06 7.2 31.39 22.19H21.07c-5.95-13.41 4.65-29.57 19.43-29.24Zm307.12-47.36c5.27 0 10 2.29 13.26 5.93 1.12-25.3 39.39-25.27 40.48.02 12.49-3.16 25.38 6.08 26.5 18.73h-96.64c-5.03-11.32 3.93-24.96 16.4-24.69Z" fill="#ffc"/><path d="M699.24 289c-4.32 189.11-445.11-16.16-336.77-152.66C499.53 112.8 710.29 90.7 699.24 289Z" fill="#fff"/><path d="M305.06 271.74c7.85 41.66 41.76 98.71 26.6 136.06-11.87 5.7-17.78 22.74-9.54 33 11.98 12.75 31.27 12.97 47.76 14.04 63.57 6.74 37.72-92.01 61.41-126.14 25.26-4.74 46.03 78.35 33.19 95.32-27.82 37.24 34.52 36.61 57.46 34.81 64.11-3.15 12.21-142.88 2.96-181.79-23.38-53.6-220.01-74.68-219.83-5.3Z"/><path d="M596.32 274.05c-32.56 29.66-22.46 87.3-22.09 127.66 3.46 21.6-19.68 12.81-20.99 37.46-.57 26.56 37.06 14.98 54 17.39 28.22 3.1 33.86-25.31 40.04-46.47 12.32-33.89 49.74-58.71 49.36-97.11-1.31-49.96-64.68-67.98-100.32-38.93Zm-60.11 35.75c.39 48.01-51.25 48.57-75.33 16.6-16.15-11.47-39.59-10.73-53.29-25.01-28.25-45.13-46.13-97.83-58.04-149.56 11.37-27.57 48.17-21.67 72.22-24.31C536.26 93.5 544.43 227.61 536.21 309.79ZM227.96 198.87c-15.48-4.77-29.07-18.63-26.2-35.8 16.89-89.35 130.76 57.47 26.2 35.8Z"/><path d="M415.65 162.57c44.33-44.1-39.02-90.51-51.14-29.38-1.42 36.41 20.38 64.28 51.14 29.38Z"/><path d="M448.35 202.64c-20.68-43.21-66.59-83.65-117.12-84.29-.75-9.96-14.88-11.79-19.59-3.59-2.55-9.93-13.76-3.28-16.59 3.47 1.86-2.33-.94-6.01-3.92-6.01-8.55 1.5-15.97 15.43-19.94 25.89-38.56 29.62-53.39 85.48-47.3 131.41 7.58 112.83 280.14 32.51 224.45-66.87Z" fill="#fff"/><path d="M272.25 179.76c55.08-28.54 45.26 74.75 5.92 84.7-51.88 10.94-32.74-67.63-5.92-84.7Z"/><path d="M289.06 208.54c-12.42-12.55-31.92 8.51-19.99 20.44 13.19 14.09 33.94-6.73 19.99-20.44Z" fill="#fff"/><path d="M287.91 214.49c-2.33-7.92-15.28-6.25-16.92 1.39-1.94 15.72 20.2 13.3 16.92-1.39Zm69.75-60.18c-61.72 6.26 3.03 87.33 41.4 74.13 49.41-19.24-9.62-74.52-41.4-74.13Z"/><path d="M359.34 187.61c3.52-17.3 31.37-10.34 27.92 6.16-3.33 19.01-32.09 12.94-27.92-6.16Z" fill="#fff"/><path d="M363.57 191.95c-2.39-7.9 9.37-13.59 14.92-8.1 10.22 12.09-9.63 22.19-14.92 8.1Zm-27.04 21.83c27.71-9.73 15.35 28.98.5 29.92-28.85-1.22-31.39-27.97-.5-29.92Z"/><path d="M371.54 248.57c-24.97 46.81-30.29-31.77-38.93-24.41-10.48-2.13 25.82 68.43-19.24 41.74-13.93 9.02 28.35 23.36 30.66-3.38 16.09 20.94 44.24-13.54 27.51-13.95Z"/></svg>